<svg width="134" height="49" viewBox="0 0 134 49" fill="none" xmlns="http://www.w3.org/2000/svg">
<path fill-rule="evenodd" clip-rule="evenodd" d="M65.3242 1.63415C65.3242 0.731633 66.0559 0 66.9584 0V0C67.8609 0 68.5925 0.731635 68.5925 1.63415V46.8673C68.5925 47.7698 67.8609 48.5014 66.9584 48.5014V48.5014C66.0559 48.5014 65.3242 47.7698 65.3242 46.8673V1.63415Z" fill="#82BF00"/>
<path fill-rule="evenodd" clip-rule="evenodd" d="M127.109 30.0772H124.811V18.873H127.109V24.1744L130.899 18.873H133.617L129.674 24.1368L134 30.0772H131.205L127.109 24.212V30.0772ZM119.107 30.0772H116.81V25.3775H112.866V30.0772H110.569V18.873H112.866V23.46H116.81V18.873H119.107V30.0772ZM102.529 26.2423L101.113 22.1817L99.6194 26.2423H102.529ZM106.205 30.0772H103.831L103.142 28.0846H98.9685L98.2794 30.0772H95.9057L100.155 18.873H101.955L106.205 30.0772ZM89.6651 26.5806C89.6651 25.6783 89.0525 25.0391 88.0188 25.0391H85.7216V28.1222H88.0188C89.0525 28.1222 89.6651 27.483 89.6651 26.5806ZM91.9239 26.5806C91.9239 28.6109 90.5074 30.0772 88.1336 30.0772H83.4628V18.873H91.1965V20.8281H85.7216V23.084H88.1336C90.5074 23.084 91.9239 24.5127 91.9239 26.5806Z" fill="white"/>
<path fill-rule="evenodd" clip-rule="evenodd" d="M15.161 25.4162H27.0679V0H15.161V25.4162ZM18.2622 22.5964H23.9668V2.85745H18.2622V22.5964Z" fill="white"/>
<path fill-rule="evenodd" clip-rule="evenodd" d="M0 28.6122H49.9247V31.0937H0V28.6122Z" fill="white"/>
<path fill-rule="evenodd" clip-rule="evenodd" d="M0 48.7273H3.06286V45.3811H20.5595V33.8761H0V48.7273ZM3.06286 42.4484H17.4966V36.8463H3.06286V42.4484Z" fill="white"/>
<path fill-rule="evenodd" clip-rule="evenodd" d="M37.9798 2.85613V25.4149H41.0427V8.45823L46.709 2.85613V25.4149H49.8102V0.0362837H45.4456L41.0427 4.39765V0.0362837H36.7164L29.2507 7.40549V25.4149H32.3135V8.45823L37.9798 2.85613Z" fill="white"/>
<path fill-rule="evenodd" clip-rule="evenodd" d="M23.8141 45.3811H35.185V48.7273H38.3244V45.3811H49.7719V33.8761H23.8141V45.3811ZM38.3627 42.4484H46.7856V36.8463H38.3627V42.4484ZM26.8387 42.4484H35.2233V36.8463H26.8387V42.4484Z" fill="white"/>
<path fill-rule="evenodd" clip-rule="evenodd" d="M11.9069 25.4162V0H7.5423L0 7.36921V25.4162H11.9069ZM3.13944 8.45955L8.84402 2.81985V22.5964H3.13944V8.45955Z" fill="white"/>
</svg>
