<svg width="134" height="50" viewBox="0 0 134 50" fill="none" xmlns="http://www.w3.org/2000/svg">
<g clip-path="url(#clip0_4252_74559)">
<path d="M27.8735 29.1735C27.8235 28.408 27.3501 27.8287 26.712 27.4885C26.8374 26.9348 27.0197 26.4946 27.2599 26.2584H26.3062C26.1072 26.5495 25.9382 26.8598 25.8013 27.1847C25.1619 27.0699 24.5025 27.1841 23.9389 27.5072V26.7309H23.338V27.5072C22.7732 27.1797 22.11 27.0643 21.4677 27.1818C21.3294 26.8538 21.1589 26.5402 20.9589 26.2456H19.9974C20.2394 26.4838 20.4237 26.9318 20.5493 27.4915C19.918 27.8336 19.4504 28.4119 19.3995 29.1735C19.3141 30.2136 19.8562 30.9145 20.6258 31.2624C20.4385 32.5319 20.0317 33.6062 19.3965 33.8777L20.8462 33.8551C21.0159 33.2955 21.1256 32.4044 21.1884 31.4458C21.5521 31.5224 21.9263 31.5373 22.295 31.4899C22.5891 32.7455 22.945 33.9757 23.6389 35.0354C24.3339 33.9767 24.6937 32.7485 24.9848 31.4948C25.3537 31.5413 25.7278 31.5254 26.0914 31.4477C26.1542 32.4053 26.266 33.2964 26.4346 33.8551L27.8618 33.8904C27.2296 33.6218 26.8227 32.5436 26.6346 31.2693C27.4098 30.9243 27.9558 30.2205 27.8735 29.1735ZM23.9301 28.0757C24.4124 27.693 25.0267 27.5167 25.6386 27.5856C25.2465 28.6423 24.9887 29.8969 24.7201 31.0703C24.42 30.9866 24.1475 30.825 23.9301 30.6018V28.0757ZM23.3351 28.0757V30.6008C23.1187 30.8256 22.8464 30.9887 22.5459 31.0733C22.2764 29.8969 22.0235 28.6443 21.6285 27.5866C22.2396 27.5184 22.8529 27.6941 23.3351 28.0757ZM20.0317 29.9333C19.8209 29.0834 20.114 28.3933 20.6424 27.9826C20.7717 28.925 20.7854 29.8795 20.6835 30.8252C20.358 30.6246 20.124 30.3043 20.0317 29.9333ZM21.2129 31.0733C21.2766 29.9457 21.2693 28.8152 21.1913 27.6885C21.2295 27.6749 21.2688 27.662 21.309 27.6513C21.7245 28.7462 21.952 29.9519 22.2176 31.1458C21.8813 31.1931 21.5388 31.1684 21.2129 31.0733ZM23.3351 31.1821C23.3351 31.1821 23.3351 32.376 23.139 33.1945C22.9317 32.6177 22.7611 32.0284 22.6283 31.4301C22.8729 31.3745 23.1101 31.2902 23.3351 31.1791V31.1821ZM23.6292 34.1767C23.5139 34.0062 23.4123 33.8269 23.3252 33.6405H23.934C23.8475 33.826 23.7462 34.0044 23.6311 34.1737L23.6292 34.1767ZM24.1193 33.2132C23.9045 32.3976 23.929 31.1821 23.929 31.1821C24.1542 31.2939 24.3918 31.3789 24.6369 31.435C24.5011 32.0373 24.3267 32.6303 24.1144 33.2102L24.1193 33.2132ZM25.0681 31.1467C25.3347 29.9539 25.5582 28.7501 25.9758 27.6562C26.016 27.668 26.0552 27.6797 26.0944 27.6945C26.016 28.8171 26.0087 29.9438 26.0729 31.0674C25.7463 31.1631 25.4033 31.1892 25.0661 31.1439L25.0681 31.1467ZM26.5806 30.836C26.4776 29.8867 26.4917 28.9284 26.6228 27.9826C27.1541 28.3933 27.45 29.0834 27.2393 29.9362C27.1462 30.3108 26.9088 30.6332 26.5787 30.8331L26.5806 30.836Z" fill="white"/>
<path d="M5.84216 28.1569C7.98101 28.1569 9.53272 27.8755 11.6 27.16C11.6493 27.1422 11.7025 27.1377 11.7541 27.147C11.8058 27.1563 11.854 27.179 11.8941 27.2129C11.8068 27.2785 9.6523 28.9165 3.62684 29.7987C4.92761 31.0358 6.29895 31.3004 7.23506 31.3004C7.63104 31.3005 8.02571 31.2551 8.41134 31.1651C9.89247 30.7584 11.6638 29.833 13.5193 28.4744C13.5731 28.4348 13.6363 28.4103 13.7026 28.4032C13.7689 28.3962 13.8359 28.4069 13.8967 28.4343C13.8526 28.5097 12.7762 30.283 7.59579 32.8972C8.25614 33.2299 8.98442 33.4057 9.72386 33.4109C10.4092 33.4151 11.0841 33.2437 11.6843 32.9129C13.1811 32.0463 14.0555 31.2102 15.4504 29.1734C15.4842 29.1226 15.533 29.0838 15.5898 29.062C15.6467 29.0401 15.709 29.0366 15.768 29.0517C15.7552 29.091 15.7435 29.1341 15.7267 29.1782C15.3896 30.0417 14.8182 31.7268 11.5333 34.641C11.9346 34.818 12.3691 34.9074 12.8076 34.9028C13.4553 34.8936 14.0911 34.7274 14.6603 34.4185C15.4132 34.044 15.9237 33.4118 16.3179 32.3708C16.422 32.0787 16.6372 31.8395 16.9168 31.7052C17.0654 31.6349 17.2277 31.5985 17.3922 31.5984C17.6994 31.6038 17.9933 31.7245 18.2156 31.9366C18.2214 31.9416 18.2285 31.945 18.2362 31.9461C18.2439 31.9472 18.2516 31.9461 18.2587 31.9429C18.2657 31.9397 18.2717 31.9345 18.2759 31.928C18.2801 31.9215 18.2822 31.9139 18.2822 31.9061V24.9593C18.282 24.9513 18.2794 24.9434 18.2747 24.9369C18.27 24.9302 18.2636 24.9252 18.256 24.9223C18.2484 24.9193 18.2403 24.9188 18.2324 24.9204C18.2245 24.9221 18.2173 24.9261 18.2117 24.9318C17.5333 25.6464 16.8207 25.8023 16.3286 25.8023C15.2347 25.8023 14.1634 25.0181 13.834 23.9751C13.8281 23.9546 13.2781 21.8814 15.1543 20.8894H15.1592H15.1651C15.1651 20.8894 15.3356 20.8188 15.3474 20.7031C15.3543 20.6365 15.3141 20.4924 14.972 20.27C14.9534 20.2591 13.0968 19.1495 10.7835 16.9146C8.67502 14.8717 5.74806 11.4596 3.7033 6.72314C3.272 7.4887 1.62718 10.8283 3.6739 14.066C4.88644 15.9461 6.58028 17.5949 8.99555 19.2445C9.04364 19.2771 9.08164 19.3224 9.10521 19.3754C9.12878 19.4285 9.13697 19.4871 9.12886 19.5445C9.09357 19.5348 5.56672 18.4947 0.909651 13.5985C0.769479 14.3571 0.405814 17.3685 2.85737 19.4877C5.01975 21.2031 6.54204 21.6726 8.95732 22.2323C9.02735 22.2484 9.091 22.2849 9.14022 22.3374C9.18944 22.3897 9.22198 22.4555 9.23375 22.5264C9.14878 22.5353 9.06324 22.5376 8.9779 22.5333C7.81046 22.5333 4.61785 22.2157 0 19.2985C0.0460708 20.0631 0.392091 23.0233 3.00929 24.0555C4.08755 24.5133 5.6765 25.0358 8.38585 25.0358C8.87597 25.0358 9.33667 25.0221 9.85619 24.9887C9.92008 24.9847 9.9838 24.9991 10.0399 25.03C10.0959 25.0608 10.142 25.1071 10.1728 25.1632C10.1189 25.1916 8.82206 25.7797 6.24405 25.7797C4.57179 25.7797 2.75542 25.5259 0.842996 25.023C1.84087 27.105 3.23181 28.0999 5.20501 28.15C5.42328 28.1546 5.63566 28.1569 5.84216 28.1569Z" fill="white"/>
<path d="M29.1546 15.0651C30.28 14.1397 32.9325 13.2242 34.4332 13.5035C34.4842 13.5134 35.4192 10.2825 29.238 10.2825C29.238 10.2825 26.7521 10.307 25.4445 10.0776C25.9993 10.6168 27.2736 11.9136 26.2395 13.533C24.1917 16.156 23.7339 18.3361 23.635 20.7415C23.5369 18.3341 23.0782 16.156 21.0305 13.533C19.9974 11.9136 21.2707 10.6168 21.8255 10.0776C20.5189 10.307 18.032 10.2825 18.032 10.2825C11.8566 10.2825 12.7887 13.5173 12.8367 13.5035C14.3375 13.2242 16.989 14.1397 18.1154 15.0651C20.4169 16.9392 20.9354 20.422 18.8897 23.6097C18.8848 23.6174 18.8822 23.6264 18.8818 23.6357C18.8816 23.6448 18.8838 23.6539 18.8881 23.6619C18.8925 23.67 18.899 23.6768 18.9068 23.6816C18.9147 23.6863 18.9236 23.6889 18.9328 23.689H28.3322C28.3415 23.689 28.3505 23.6865 28.3584 23.6817C28.3663 23.677 28.3728 23.6701 28.3771 23.662C28.3814 23.6539 28.3834 23.6447 28.383 23.6354C28.3825 23.6263 28.3795 23.6173 28.3744 23.6097C26.3335 20.422 26.8521 16.9392 29.1546 15.0651Z" fill="white"/>
<path d="M37.1026 25.1612C37.1332 25.1052 37.1792 25.059 37.2351 25.0281C37.291 24.9972 37.3545 24.9829 37.4182 24.9868C37.9397 25.0201 38.3985 25.0338 38.8886 25.0338C41.5979 25.0338 43.1849 24.5075 44.2652 24.0536C46.8813 23.0165 47.2284 20.0612 47.2744 19.2965C42.6556 22.2137 39.463 22.5313 38.2965 22.5313C38.2109 22.5355 38.125 22.5333 38.0397 22.5244C38.0518 22.4537 38.0845 22.3881 38.1337 22.3358C38.1828 22.2835 38.2463 22.2468 38.3162 22.2303C40.7314 21.6746 42.2537 21.205 44.417 19.4857C46.8676 17.3665 46.5039 14.3552 46.3648 13.5965C41.7077 18.4977 38.1799 19.5328 38.1456 19.5426C38.1375 19.4851 38.1456 19.4265 38.1692 19.3735C38.1928 19.3205 38.2308 19.2751 38.2788 19.2426C40.6941 17.5928 42.3879 15.9441 43.6005 14.0641C45.6472 10.8293 44.0024 7.48675 43.5711 6.72119C41.5254 11.4576 38.5984 14.8698 36.4909 16.9077C34.1766 19.1426 32.3201 20.2522 32.3024 20.2631C31.9603 20.4855 31.9201 20.6296 31.926 20.6963C31.9378 20.8119 32.1074 20.8816 32.1093 20.8826H32.1143H32.1201C33.9963 21.8746 33.4463 23.9478 33.4405 23.9683C33.1111 25.0113 32.0388 25.7954 30.9458 25.7954C30.4557 25.7954 29.7401 25.6396 29.0618 24.925C29.0563 24.9191 29.0491 24.915 29.0412 24.9132C29.0334 24.9114 29.0252 24.912 29.0176 24.915C29.0102 24.918 29.0036 24.9231 28.9992 24.9298C28.9946 24.9365 28.9922 24.9444 28.9922 24.9524V31.9061C28.9922 31.9139 28.9944 31.9215 28.9985 31.928C29.0027 31.9345 29.0087 31.9397 29.0157 31.9429C29.0228 31.9461 29.0306 31.9472 29.0382 31.9461C29.0459 31.945 29.053 31.9416 29.0588 31.9366C29.2807 31.7245 29.5744 31.6038 29.8812 31.5984C30.0457 31.5983 30.2081 31.6348 30.3566 31.7052C30.6367 31.8392 30.8522 32.0785 30.9566 32.3708C31.3486 33.4118 31.8613 34.044 32.6141 34.4185C33.1833 34.7276 33.8191 34.8937 34.4668 34.9028C34.9034 34.9067 35.3358 34.8175 35.7351 34.641C32.4515 31.7308 31.8799 30.0417 31.5427 29.1782C31.5261 29.1341 31.5143 29.091 31.5016 29.0517C31.5604 29.0368 31.6225 29.0405 31.6792 29.0623C31.7358 29.084 31.7844 29.1228 31.8182 29.1734C33.214 31.2102 34.0875 32.0463 35.5852 32.9129C36.1854 33.2438 36.8603 33.4152 37.5457 33.4109C38.2848 33.4056 39.0126 33.2298 39.6728 32.8972C34.4922 30.283 33.4159 28.5097 33.3718 28.4343C33.4328 28.4068 33.5 28.3961 33.5664 28.4031C33.633 28.4102 33.6963 28.4348 33.7503 28.4744C35.6058 29.833 37.3771 30.7584 38.8572 31.1651C39.2428 31.255 39.6375 31.3004 40.0335 31.3004C40.9686 31.3004 42.34 31.0358 43.6407 29.7987C37.6162 28.9165 35.4607 27.2785 35.3784 27.2129C35.4182 27.1785 35.4664 27.1556 35.5182 27.1462C35.5699 27.1369 35.6231 27.1416 35.6725 27.16C37.7388 27.8755 39.2914 28.1569 41.4293 28.1569C41.6361 28.1569 41.8479 28.1569 42.0675 28.1509C44.0407 28.101 45.4316 27.106 46.4295 25.024C44.5161 25.5268 42.7046 25.7807 41.0274 25.7807C38.4495 25.7797 37.1565 25.1916 37.1026 25.1612Z" fill="white"/>
<path d="M23.645 1.78196H23.6518C23.8267 1.77942 23.9971 1.72546 24.1415 1.6268C24.286 1.52814 24.3982 1.38915 24.4641 1.22715C24.5301 1.06515 24.547 0.887309 24.5126 0.715802C24.4782 0.544294 24.394 0.386706 24.2707 0.262682C24.1473 0.138659 23.9902 0.0536871 23.819 0.0183603C23.6476 -0.0169665 23.4696 -0.00108558 23.3073 0.0640232C23.1449 0.129132 23.0053 0.240589 22.9059 0.384497C22.8065 0.528406 22.7516 0.698402 22.7481 0.87329C22.7474 0.991847 22.7699 1.1094 22.8146 1.21922C22.8593 1.32905 22.9251 1.429 23.0084 1.51339C23.0917 1.59777 23.1907 1.66491 23.3 1.711C23.4093 1.75707 23.5264 1.7812 23.645 1.78196Z" fill="white"/>
<path d="M36.6122 38.704C36.6122 38.5277 36.5598 38.3555 36.462 38.209C36.3641 38.0625 36.2249 37.9482 36.062 37.8808C35.8993 37.8134 35.7202 37.7957 35.5472 37.8301C35.3744 37.8645 35.2156 37.9493 35.091 38.0739C34.9664 38.1986 34.8815 38.3573 34.8472 38.5301C34.8128 38.703 34.8305 38.8822 34.8979 39.045C34.9654 39.2078 35.0796 39.347 35.2261 39.4449C35.3726 39.5427 35.5449 39.5951 35.7211 39.5951C35.9574 39.5947 36.1838 39.5008 36.3509 39.3338C36.5179 39.1667 36.6119 38.9403 36.6122 38.704Z" fill="white"/>
<path d="M37.3197 39.4588C37.1769 39.7632 36.9502 40.0207 36.6664 40.2011C36.3826 40.3815 36.0533 40.4772 35.717 40.4772C35.3807 40.4772 35.0513 40.3815 34.7675 40.2011C34.4837 40.0207 34.2572 39.7632 34.1143 39.4588C34.1075 39.4446 34.0973 39.4322 34.0846 39.4228C34.072 39.4134 34.0572 39.4071 34.0416 39.4046C34.0259 39.4021 34.01 39.4034 33.995 39.4084C33.98 39.4134 33.9665 39.422 33.9555 39.4333C33.65 39.7374 33.4287 40.1156 33.3133 40.5309C33.1977 40.9462 33.1921 41.3844 33.2968 41.8025C32.9452 41.6982 32.6034 41.5634 32.2754 41.3997C31.0423 40.8115 31.5118 39.6009 31.8726 38.7168C31.9846 38.4503 32.0553 38.1684 32.0823 37.8806C32.3029 35.3605 30.2444 34.5665 29.2397 34.3332C29.2176 34.3281 29.1945 34.3285 29.1726 34.334C29.1506 34.3396 29.1302 34.3502 29.1131 34.3651C29.0959 34.38 29.0826 34.3987 29.0742 34.4197C29.0656 34.4408 29.0623 34.4635 29.0642 34.4861C29.4141 38.6883 24.3179 34.3518 23.6395 38.2786C22.9623 34.3528 17.867 38.6883 18.215 34.4871C18.2169 34.4644 18.2135 34.4415 18.2049 34.4203C18.1964 34.3992 18.183 34.3803 18.1659 34.3653C18.1487 34.3504 18.1282 34.3397 18.1061 34.3341C18.084 34.3285 18.0608 34.3282 18.0386 34.3332C17.0319 34.5665 14.9744 35.3614 15.1959 37.8806C15.2238 38.1682 15.2945 38.4501 15.4057 38.7168C15.7674 39.599 16.2369 40.8105 15.0038 41.3997C12.7561 42.472 13.1257 41.4418 11.424 41.4741C11.3975 41.4741 11.3122 41.482 11.2534 41.4917C11.1993 41.4949 11.1451 41.4866 11.0945 41.4673C11.0438 41.4481 10.9978 41.4183 10.9594 41.3801L6.99336 37.4445C7.00946 37.377 7.01769 37.3079 7.01786 37.2385C7.01792 37.0525 6.96179 36.8709 6.85686 36.7173C6.75191 36.5638 6.60303 36.4455 6.42973 36.3779C6.56635 36.0563 6.6038 35.7013 6.53725 35.3582C6.47071 35.0153 6.30321 34.7 6.05626 34.4527L5.3799 35.1281C5.18935 34.9839 4.95335 34.913 4.71488 34.9283C4.47641 34.9434 4.25134 35.0438 4.08066 35.2111C3.90998 35.3783 3.80506 35.6013 3.78498 35.8394C3.76492 36.0775 3.83104 36.3148 3.97132 36.5083L3.28516 37.1944C3.53435 37.4429 3.8524 37.6108 4.19811 37.6763C4.5438 37.7418 4.90122 37.702 5.22404 37.5621C5.28922 37.7392 5.40716 37.8921 5.56193 38C5.7167 38.108 5.90087 38.1659 6.08959 38.1659C6.15918 38.1656 6.22854 38.1577 6.29641 38.1423L10.3056 42.125C10.3353 42.1547 10.3563 42.192 10.366 42.2329C10.3757 42.2738 10.3738 42.3165 10.3604 42.3564C10.3604 42.371 10.3526 42.3828 10.3497 42.3916C10.2597 42.7234 10.2961 43.0768 10.4518 43.3833C10.6076 43.6896 10.8716 43.9273 11.1926 44.0502C11.4796 44.1678 11.7993 44.1786 12.0935 44.0805L12.1494 44.0629C12.1734 44.0547 12.1994 44.0535 12.2243 44.0594C12.249 44.0653 12.2717 44.078 12.2896 44.0962L12.9354 44.7373C12.9862 44.7877 13.0472 44.8264 13.1145 44.8506C13.1817 44.8748 13.2533 44.8841 13.3245 44.8778C13.3956 44.8714 13.4646 44.8496 13.5263 44.8138C13.5882 44.7781 13.6414 44.7292 13.6824 44.6706C13.7438 44.5711 13.7703 44.4539 13.7577 44.3377C13.7451 44.2214 13.6941 44.1127 13.6128 44.0287L13.0423 43.4621C13.0181 43.4381 13.0031 43.4064 13.0002 43.3725C12.9971 43.3386 13.0061 43.3047 13.0257 43.2768L13.0717 43.2131C13.9108 42.1691 16.179 42.5269 16.9231 42.0643C16.9996 42.0131 17.0527 41.9338 17.0711 41.8438C17.0895 41.7537 17.0715 41.6599 17.0211 41.5829C16.531 40.7988 16.1565 38.4374 18.7629 37.9767C19.4491 37.8963 21.6595 38.3315 21.784 39.8646C21.7862 40.0105 21.7721 40.1562 21.7418 40.2989C21.6145 40.8184 20.9714 41.0154 20.6126 41.1016C17.5014 41.8682 15.3881 44.8775 17.8279 46.5762C18.2836 44.3639 19.4727 43.166 21.5919 42.2074C21.6343 42.1886 21.6817 42.1843 21.7267 42.1953C21.7718 42.2063 21.8119 42.2319 21.8409 42.2682C20.4852 43.1974 17.8219 46.0214 20.8881 48.2181C21.0077 46.5331 21.4419 44.606 22.5476 43.3591C22.5762 43.3254 22.6166 43.304 22.6605 43.2991C22.7044 43.2942 22.7485 43.3062 22.7839 43.3326C22.4564 44.999 21.7164 47.9456 23.5798 49.2209C23.5954 49.2326 23.6125 49.2422 23.6307 49.2493C23.6481 49.2412 23.6649 49.2317 23.6808 49.2209C25.5432 47.9466 24.8041 44.9942 24.4777 43.3326C24.513 43.3062 24.5572 43.2942 24.6011 43.2991C24.6449 43.304 24.6854 43.3254 24.7139 43.3591C25.8196 44.606 26.2539 46.5331 26.3724 48.2181C29.4347 46.0214 26.7763 43.1974 25.4207 42.2682C25.4496 42.2319 25.4897 42.2063 25.5348 42.1953C25.5799 42.1843 25.6273 42.1886 25.6697 42.2074C27.7889 43.166 28.978 44.3639 29.4337 46.5762C31.8735 44.8775 29.7601 41.8712 26.6489 41.1016C26.2901 41.0154 25.6471 40.8184 25.5196 40.2989C25.4895 40.1562 25.4754 40.0105 25.4775 39.8646H25.4883C25.6128 38.3315 27.8213 37.8963 28.5094 37.9767C31.1157 38.4374 30.7364 40.8027 30.2512 41.5829C30.2257 41.6222 30.2084 41.6662 30.2002 41.7123C30.1919 41.7584 30.1929 41.8057 30.2032 41.8514C30.2137 41.8971 30.233 41.9401 30.2603 41.9783C30.2875 42.0163 30.3221 42.0486 30.362 42.0731C31.0668 42.4955 33.0625 42.2211 34.0075 43.018C34.4853 43.4618 35.1181 43.7006 35.77 43.6835C36.422 43.6663 37.0413 43.3944 37.4952 42.926C37.9489 42.4577 38.2013 41.8302 38.198 41.178C38.1947 40.5259 37.936 39.901 37.4775 39.4372C37.4667 39.4259 37.4536 39.4173 37.4388 39.4122C37.4241 39.407 37.4085 39.4054 37.393 39.4076C37.3776 39.4096 37.3629 39.4154 37.3502 39.4243C37.3374 39.4332 37.3269 39.445 37.3197 39.4588Z" fill="white"/>
<path d="M17.9216 5.52533C18.0185 5.52721 18.1139 5.50027 18.1956 5.44791C18.2772 5.39557 18.3415 5.32016 18.3803 5.23125C18.428 5.1306 18.4415 5.0172 18.419 4.90815C18.3966 4.79909 18.3393 4.70028 18.2558 4.6266C18.1724 4.55292 18.0672 4.50836 17.9562 4.49963C17.8452 4.49089 17.7345 4.51847 17.6404 4.5782C17.5465 4.63792 17.4745 4.72657 17.4353 4.83077C17.396 4.93497 17.3918 5.04911 17.423 5.15597C17.4543 5.26283 17.5195 5.35663 17.6086 5.42324C17.6978 5.48986 17.8063 5.52568 17.9176 5.52533H17.9216Z" fill="white"/>
<path d="M7.9211 9.164C9.37478 9.07871 10.3854 9.36004 10.999 10.4951C11.0072 10.5099 11.019 10.5224 11.0333 10.5312C11.0476 10.5401 11.064 10.5451 11.0809 10.5458C11.0977 10.5465 11.1145 10.5429 11.1295 10.5352C11.1445 10.5275 11.1573 10.5161 11.1666 10.502C11.9842 9.31887 11.9332 7.62896 11.0608 6.48307V6.46935C10.993 6.36965 10.9472 6.25665 10.9265 6.13788C10.9058 6.0191 10.9106 5.89729 10.9407 5.78053C10.9707 5.66377 11.0253 5.55475 11.1008 5.46073C11.1762 5.36671 11.2709 5.28984 11.3784 5.23525C12.5841 4.6471 14.6896 3.60708 14.4504 4.68828C14.2122 5.73123 14.0161 7.13884 14.7023 8.02204C15.0719 8.43177 15.4424 8.58566 16.0325 8.70132C16.2693 8.74652 16.51 8.76884 16.7509 8.76798H19.2995C19.3898 8.76865 19.4799 8.76243 19.5692 8.74936C20.519 8.60821 21.1424 8.21416 22.0021 6.95358C22.0685 6.854 22.1552 6.76959 22.2566 6.70591C22.3579 6.64221 22.4717 6.60068 22.5902 6.58404C22.9387 6.55051 23.289 6.53709 23.639 6.54385C23.9891 6.53709 24.3394 6.55051 24.6879 6.58404C24.8064 6.60068 24.9202 6.64221 25.0215 6.70591C25.1229 6.76959 25.2096 6.854 25.276 6.95358C26.1357 8.21416 26.7591 8.60821 27.709 8.74936C27.7982 8.76243 27.8883 8.76865 27.9786 8.76798H30.5271C30.7679 8.76888 31.0082 8.74655 31.2446 8.70132C31.8328 8.58566 32.2052 8.43177 32.5759 8.02204C33.2541 7.13983 33.0659 5.73124 32.8228 4.68435C32.5836 3.60611 34.6852 4.64613 35.8939 5.23132C36.0024 5.28547 36.0979 5.36222 36.1742 5.45641C36.2503 5.55061 36.3055 5.66006 36.3359 5.77738C36.3663 5.89471 36.3712 6.01718 36.3502 6.13655C36.3292 6.25591 36.283 6.36939 36.2144 6.46935V6.48797C35.341 7.63288 35.2901 9.3228 36.1085 10.5069C36.1179 10.5208 36.1306 10.532 36.1455 10.5395C36.1605 10.547 36.1771 10.5506 36.1937 10.5499C36.2105 10.5492 36.2267 10.5443 36.2409 10.5356C36.2552 10.5268 36.267 10.5146 36.2752 10.5C36.8898 9.36396 37.8994 9.08362 39.3532 9.1689C39.3748 9.1702 39.3962 9.16429 39.4142 9.15208C39.4321 9.13987 39.4455 9.12206 39.4522 9.10145C39.4589 9.08082 39.4586 9.05854 39.4513 9.03811C39.444 9.01768 39.4301 9.00025 39.4119 8.98854C37.6877 7.8701 37.7269 7.57897 37.7632 6.93006C37.7946 6.57129 38.2395 5.67732 37.6652 5.50873C35.5086 4.89216 34.8127 4.64416 33.3728 3.16206C32.5434 2.38964 31.4818 2.72095 31.6319 3.61591C31.648 3.7067 31.6749 3.79522 31.7123 3.87959C31.8052 4.10343 31.9116 4.32145 32.0308 4.53242C32.0572 4.58339 33.8609 8.20239 30.8633 8.44353H30.778V8.19357C30.7772 8.14781 30.7853 8.10232 30.8022 8.05975C30.819 8.01718 30.8441 7.97838 30.8761 7.94557C31.0441 7.78637 31.1904 7.60577 31.3113 7.40841C31.4634 7.1679 31.5271 6.88204 31.4917 6.59972C31.427 6.07432 31.0113 5.67341 30.4958 5.54598L30.281 5.49794C30.2634 5.49413 30.2452 5.49408 30.2276 5.49783C30.2099 5.50157 30.1933 5.50902 30.1788 5.51968C30.1642 5.53033 30.1521 5.54395 30.1433 5.55964C30.1343 5.57532 30.1288 5.59272 30.1272 5.61068C30.0792 6.06168 29.9763 6.50511 29.8204 6.93103C29.7508 7.07121 29.6802 7.07121 29.5596 7.07121H29.2097C29.1571 7.08166 29.1025 7.07335 29.0554 7.04774C29.0084 7.02213 28.9717 6.98084 28.9519 6.93103C28.7914 6.50679 28.6879 6.06312 28.6441 5.61165C28.6425 5.59371 28.6371 5.57632 28.6284 5.56059C28.6196 5.54487 28.6076 5.53119 28.5932 5.52045C28.5787 5.5097 28.5622 5.50214 28.5446 5.49826C28.527 5.49438 28.5089 5.49428 28.4912 5.49794L28.2539 5.54989C28.1255 5.57695 28.0017 5.62251 27.8864 5.68517C27.7432 5.76668 27.6179 5.87612 27.5178 6.007C27.4177 6.13788 27.345 6.28753 27.3039 6.44706C27.2626 6.60659 27.254 6.77276 27.2783 6.93572C27.3026 7.09867 27.3594 7.25508 27.4453 7.39566C27.5674 7.58976 27.7103 7.7699 27.8717 7.93283C27.9323 8.0015 27.967 8.08924 27.9698 8.18083V8.47489H27.8423C26.6151 8.35629 26.0298 7.38488 25.9564 6.42916V6.01648C25.9575 5.86431 26.0175 5.7185 26.1239 5.60969C26.3901 5.33755 26.627 5.03825 26.8307 4.71671C26.9821 4.47457 27.0813 4.20346 27.1219 3.92075C27.2787 2.80428 26.5033 1.81033 25.3829 1.61624C25.0124 1.55057 24.9526 1.59859 24.8879 1.96226C24.7967 2.4808 24.6359 3.38163 24.3664 3.94135C24.2585 4.17071 24.1282 4.17071 23.94 4.17071H23.342C23.1549 4.17071 23.0244 4.17071 22.9166 3.94135C22.6461 3.38163 22.4853 2.4808 22.3952 1.96226C22.3305 1.59859 22.2599 1.54567 21.9002 1.61624C20.771 1.81033 19.9956 2.80428 20.1534 3.92075C20.1926 4.20334 20.2907 4.47454 20.4416 4.71671C20.645 5.03822 20.8815 5.33752 21.1473 5.60969C21.2541 5.71834 21.3145 5.86417 21.3159 6.01648V6.43406C21.2424 7.38979 20.6572 8.36119 19.43 8.47979H19.3025V8.18573C19.3053 8.09415 19.3399 8.0064 19.4006 7.93773C19.5616 7.77457 19.7047 7.59447 19.827 7.40056C19.9137 7.25991 19.9713 7.10321 19.9961 6.93982C20.021 6.77644 20.0128 6.60971 19.9717 6.4496C19.9307 6.28949 19.8579 6.13928 19.7576 6.00795C19.6572 5.87661 19.5315 5.76683 19.3879 5.68517C19.2732 5.62442 19.1509 5.57957 19.0241 5.55185L18.7869 5.4999C18.7693 5.49623 18.751 5.49635 18.7335 5.50022C18.7159 5.5041 18.6994 5.51166 18.685 5.52241C18.6705 5.53315 18.6585 5.54684 18.6497 5.56255C18.6409 5.57827 18.6356 5.59567 18.634 5.61361C18.5906 6.06421 18.4881 6.50714 18.3292 6.93103C18.3093 6.98084 18.2728 7.02213 18.2256 7.04774C18.1785 7.07335 18.124 7.08166 18.0714 7.07121H17.7185C17.5979 7.07121 17.5224 7.07121 17.4577 6.93103C17.3025 6.50502 17.2001 6.0616 17.1528 5.61068C17.1511 5.59277 17.1455 5.57547 17.1366 5.55986C17.1276 5.54426 17.1155 5.5307 17.1011 5.52007C17.0865 5.50944 17.0699 5.50198 17.0524 5.49817C17.0348 5.49436 17.0165 5.49429 16.999 5.49794L16.7834 5.54598C16.5281 5.59702 16.2948 5.72562 16.1153 5.91423C15.9358 6.10282 15.8189 6.34222 15.7806 6.59972C15.7456 6.88201 15.8094 7.16772 15.9609 7.40841C16.0822 7.60579 16.2289 7.78638 16.3971 7.94557C16.4291 7.97838 16.4542 8.01718 16.471 8.05975C16.4879 8.10232 16.496 8.14781 16.4952 8.19357V8.44059H16.4109C13.4133 8.19945 15.217 4.58046 15.2434 4.52948C15.3623 4.31831 15.4687 4.10032 15.562 3.87665C15.5984 3.79196 15.6253 3.70354 15.6424 3.61297C15.7923 2.71802 14.7308 2.3867 13.9015 3.15911C12.4615 4.64123 11.7646 4.88923 9.60905 5.50579C9.03366 5.67438 9.47869 6.56835 9.51103 6.92712C9.54731 7.57505 9.58651 7.86618 7.86228 8.9856C7.84498 8.99766 7.83202 9.01499 7.82535 9.03501C7.81867 9.05503 7.81863 9.07666 7.82524 9.09671C7.83185 9.11674 7.84475 9.13411 7.86202 9.14624C7.87928 9.15836 7.90001 9.16459 7.9211 9.164Z" fill="white"/>
<path d="M29.3524 5.52527C29.4204 5.52489 29.4877 5.51109 29.5504 5.48466C29.6132 5.45823 29.67 5.41969 29.7178 5.37126C29.7656 5.32282 29.8034 5.26544 29.8289 5.20238C29.8546 5.13933 29.8675 5.07184 29.867 5.00379C29.865 4.90328 29.8335 4.80557 29.7764 4.72286C29.7193 4.64013 29.639 4.57608 29.5457 4.53868C29.4525 4.50128 29.3502 4.4922 29.2517 4.51256C29.1533 4.53293 29.0631 4.58183 28.9923 4.65319C28.9214 4.72454 28.8732 4.81517 28.8536 4.91376C28.834 5.01235 28.8438 5.11454 28.8819 5.20757C28.92 5.3006 28.9846 5.38034 29.0677 5.43684C29.1509 5.49334 29.2489 5.5241 29.3494 5.52527H29.3524Z" fill="white"/>
<path d="M23.645 51.0315H23.6518C23.8267 51.0289 23.9971 50.975 24.1415 50.8763C24.286 50.7777 24.3982 50.6387 24.4641 50.4767C24.5301 50.3147 24.547 50.1368 24.5126 49.9653C24.4782 49.7938 24.394 49.6362 24.2707 49.5122C24.1473 49.3882 23.9902 49.3032 23.819 49.2679C23.6476 49.2325 23.4696 49.2484 23.3073 49.3135C23.1449 49.3786 23.0053 49.4901 22.9059 49.634C22.8065 49.7779 22.7516 49.9479 22.7481 50.1228C22.7474 50.2414 22.7699 50.3589 22.8146 50.4687C22.8593 50.5786 22.9251 50.6785 23.0084 50.7629C23.0917 50.8473 23.1907 50.9144 23.3 50.9605C23.4093 51.0066 23.5264 51.0307 23.645 51.0315Z" fill="#03A678"/>
</g>
<path d="M58.4121 21.0102V11.197H61.0235L63.0576 15.4714H63.3875L65.3941 11.197H68.0192V21.0102H66.4524V13.1624H66.1225L64.0472 17.4643H62.3704L60.3088 13.1624H59.9789V21.0102H58.4121Z" fill="white"/>
<path d="M72.6886 11.197H74.2554V18.8387H74.5852L78.6397 11.197H80.9762V21.0102H79.4094V13.3685H79.0796L75.0251 21.0102H72.6886V11.197Z" fill="white"/>
<path d="M92.2056 11.197H93.8549V21.0102H92.2056V16.7221H87.299V21.0102H85.6497V11.197H87.299V15.1827H92.2056V11.197Z" fill="white"/>
<path d="M104.124 12.0216H104.276C105.641 12.0216 106.727 12.3606 107.533 13.0387C108.339 13.7167 108.742 14.6925 108.742 15.9662C108.742 17.2673 108.344 18.2523 107.547 18.9211C106.75 19.5808 105.659 19.9107 104.276 19.9107H104.124V21.1889H102.53V19.9107H102.393C101 19.9107 99.905 19.5808 99.1078 18.9211C98.3107 18.2523 97.9121 17.2673 97.9121 15.9662C97.9121 14.6925 98.3153 13.7167 99.1216 13.0387C99.9279 12.3606 101.018 12.0216 102.393 12.0216H102.53V10.8809H104.124V12.0216ZM102.393 18.4813H102.53V13.451H102.393C101.495 13.451 100.798 13.6572 100.304 14.0695C99.8088 14.4818 99.5614 15.114 99.5614 15.9662C99.5614 16.8091 99.8088 17.4414 100.304 17.8628C100.798 18.2752 101.495 18.4813 102.393 18.4813ZM104.124 18.4813H104.276C105.164 18.4813 105.856 18.2706 106.351 17.8491C106.855 17.4276 107.107 16.8 107.107 15.9662C107.107 15.1324 106.855 14.5047 106.351 14.0832C105.856 13.6617 105.164 13.451 104.276 13.451H104.124V18.4813Z" fill="white"/>
<path d="M112.834 11.197H114.4V18.8387H114.73L118.785 11.197H121.121V21.0102H119.554V13.3685H119.225L115.17 21.0102H112.834V11.197Z" fill="white"/>
<path d="M132.351 11.197H134V21.0102H132.351V16.7221H127.444V21.0102H125.795V11.197H127.444V15.1827H132.351V11.197Z" fill="white"/>
<path d="M58.4121 28.377H62.7277C63.8181 28.377 64.6611 28.6473 65.2566 29.1879C65.8614 29.7194 66.1638 30.457 66.1638 31.4007C66.1638 32.372 65.8614 33.1279 65.2566 33.6685C64.6611 34.1999 63.8181 34.4657 62.7277 34.4657H60.0614V38.1903H58.4121V28.377ZM60.0614 33.0088H62.4804C63.8181 33.0088 64.487 32.4774 64.487 31.4145C64.487 30.8922 64.3312 30.4982 64.0197 30.2325C63.7082 29.9668 63.195 29.8339 62.4804 29.8339H60.0614V33.0088Z" fill="white"/>
<path d="M71.0957 29.6278C71.9203 28.6748 73.0702 28.1984 74.5454 28.1984C76.0206 28.1984 77.1659 28.6748 77.9814 29.6278C78.8061 30.5807 79.2184 31.7993 79.2184 33.2837C79.2184 34.768 78.8061 35.9867 77.9814 36.9396C77.1659 37.8925 76.0206 38.369 74.5454 38.369C73.0702 38.369 71.9203 37.8925 71.0957 36.9396C70.271 35.9867 69.8587 34.768 69.8587 33.2837C69.8587 31.7993 70.271 30.5807 71.0957 29.6278ZM72.2914 35.8538C72.8045 36.5318 73.5558 36.8709 74.5454 36.8709C75.535 36.8709 76.2817 36.5318 76.7857 35.8538C77.2896 35.1758 77.5416 34.3191 77.5416 33.2837C77.5416 32.2483 77.2896 31.3916 76.7857 30.7135C76.2817 30.0355 75.535 29.6965 74.5454 29.6965C73.5558 29.6965 72.8045 30.0355 72.2914 30.7135C71.7874 31.3916 71.5355 32.2483 71.5355 33.2837C71.5355 34.3191 71.7874 35.1758 72.2914 35.8538Z" fill="white"/>
<path d="M89.8264 35.2216H91.5581C91.3932 36.1745 90.958 36.9396 90.2524 37.5168C89.5469 38.0849 88.649 38.369 87.5586 38.369C86.1109 38.369 84.9793 37.9017 84.1638 36.9671C83.3483 36.0233 82.9406 34.7955 82.9406 33.2837C82.9406 31.7718 83.3483 30.5486 84.1638 29.614C84.9885 28.6702 86.1246 28.1984 87.5723 28.1984C88.6077 28.1984 89.4644 28.4595 90.1425 28.9818C90.8297 29.5041 91.2649 30.2096 91.4482 31.0984H89.7164C89.4049 30.1638 88.6902 29.6965 87.5723 29.6965C86.6103 29.6965 85.8772 30.0355 85.3733 30.7135C84.8693 31.3916 84.6174 32.2483 84.6174 33.2837C84.6174 34.3191 84.8648 35.1758 85.3595 35.8538C85.8635 36.5318 86.5965 36.8709 87.5586 36.8709C88.1633 36.8709 88.6581 36.7288 89.043 36.4448C89.437 36.1516 89.6981 35.7439 89.8264 35.2216Z" fill="white"/>
<path d="M102.116 35.2216H103.848C103.683 36.1745 103.248 36.9396 102.542 37.5168C101.837 38.0849 100.939 38.369 99.8486 38.369C98.4009 38.369 97.2693 37.9017 96.4538 36.9671C95.6383 36.0233 95.2306 34.7955 95.2306 33.2837C95.2306 31.7718 95.6383 30.5486 96.4538 29.614C97.2785 28.6702 98.4146 28.1984 99.8624 28.1984C100.898 28.1984 101.754 28.4595 102.432 28.9818C103.12 29.5041 103.555 30.2096 103.738 31.0984H102.006C101.695 30.1638 100.98 29.6965 99.8624 29.6965C98.9003 29.6965 98.1673 30.0355 97.6633 30.7135C97.1594 31.3916 96.9074 32.2483 96.9074 33.2837C96.9074 34.3191 97.1548 35.1758 97.6496 35.8538C98.1535 36.5318 98.8865 36.8709 99.8486 36.8709C100.453 36.8709 100.948 36.7288 101.333 36.4448C101.727 36.1516 101.988 35.7439 102.116 35.2216Z" fill="white"/>
<path d="M108.002 28.377H109.568V36.0187H109.898L113.953 28.377H116.289V38.1903H114.723V30.5486H114.393L110.338 38.1903H108.002V28.377Z" fill="white"/>
<path d="M120.963 28.377H122.53V36.0187H122.859L126.914 28.377H129.25V38.1903H127.684V30.5486H127.354L123.299 38.1903H120.963V28.377Z" fill="white"/>
<defs>
<clipPath id="clip0_4252_74559">
<rect width="48.1042" height="49.2495" fill="white"/>
</clipPath>
</defs>
</svg>
