<svg width="134" height="30" viewBox="0 0 134 30" fill="none" xmlns="http://www.w3.org/2000/svg">
<path fill-rule="evenodd" clip-rule="evenodd" d="M24.1401 9.116C24.3024 9.93425 24.4921 10.5635 24.7144 11.0061C24.9338 11.4421 25.308 11.6607 25.8343 11.6607L24.4386 15.125C23.8888 16.4797 23.3062 18.5379 22.6755 21.2845C22.055 24.0429 21.8577 26.003 22.086 27.1775C22.3112 28.3367 22.8403 29.0947 23.6653 29.4582C24.4866 29.8129 25.2747 29.9933 26.037 29.9933C27.199 29.9933 28.5375 29.8613 30.0511 29.5831C31.5604 29.312 32.6979 29.0278 33.4634 28.7333C33.8227 28.5978 34.0465 28.3802 34.1547 28.0938C34.2539 27.8106 34.2178 27.2199 34.0441 26.3261C33.9508 25.853 33.7439 25.6163 33.4059 25.6163C32.9406 25.6163 32.406 25.7211 31.809 25.9336C31.2097 26.1405 30.6028 26.3094 29.9893 26.433C29.3731 26.5668 28.403 26.6281 27.075 26.6281C26.7378 26.6281 26.5142 26.5882 26.4012 26.5076C26.2914 26.433 26.2149 26.2921 26.1746 26.0899C26.0686 25.5472 26.1746 24.6015 26.4892 23.2453C26.7976 21.8855 27.1163 20.7664 27.4325 19.8775L30.1339 19.8087C31.2801 19.7803 32.0439 19.749 32.4306 19.7015C32.8178 19.6568 33.0645 19.5611 33.1684 19.4145C33.2716 19.2617 33.3091 18.9901 33.2679 18.5931C33.2376 18.2252 33.2334 17.9527 33.247 17.772C33.2511 17.7265 33.261 17.6619 33.2766 17.5874C33.2895 17.4993 33.2958 17.4277 33.2831 17.3632C33.1816 16.8454 32.5018 16.5838 31.2481 16.5838C30.2787 16.5838 29.2063 16.651 28.0271 16.7936C28.3582 15.6849 28.8252 14.3588 29.4308 12.8174C29.7262 12.0408 29.9683 11.522 30.1504 11.2533C30.3317 10.9806 30.5877 10.8166 30.9189 10.7448C31.2504 10.6756 31.8879 10.6428 32.8423 10.6428C33.1027 10.6428 33.9434 10.6993 35.3744 10.8166C35.4271 10.8166 35.5257 10.8249 35.6715 10.8356C35.8128 10.8467 35.9225 10.8526 35.9879 10.8526C36.4057 10.8526 36.5857 10.7167 36.5309 10.4409C36.4943 10.2572 36.3155 9.89509 35.9945 9.35957C35.422 8.399 34.9405 7.79295 34.5398 7.53044C34.1399 7.26889 33.5631 7.13867 32.8112 7.13867C31.1405 7.13867 29.2406 7.26889 27.1108 7.53044C24.9751 7.79311 23.987 8.31797 24.1401 9.116Z" fill="#ED1C24"/>
<path fill-rule="evenodd" clip-rule="evenodd" d="M103.667 27.9121C104.022 27.3607 104.318 26.9299 104.554 26.6227C104.8 26.3065 105.268 25.7092 105.944 24.8243C106.626 23.9431 107.298 23.0727 107.961 22.2239C108.619 21.3759 109.252 20.5871 109.846 19.849C110.452 19.1156 111.12 18.3186 111.859 17.4604L110.964 21.4055C110.641 22.8847 110.431 23.8674 110.339 24.3519C110.252 24.8349 110.19 25.3278 110.157 25.8234C110.124 26.3256 110.143 26.7696 110.218 27.1593C110.315 27.6614 110.596 28.1275 111.042 28.5503C111.495 28.9819 111.983 29.3202 112.519 29.5768C113.057 29.8329 113.465 29.9604 113.752 29.9604C114.137 29.9604 114.385 29.6341 114.484 28.9757C114.582 28.319 114.697 26.9563 114.816 24.8868C114.949 22.8247 115.156 20.8074 115.449 18.8439C115.739 16.876 116.222 14.8349 116.904 12.7208C118.335 11.4774 118.99 10.5568 118.875 9.95329C118.8 9.56804 118.545 9.10128 118.116 8.54968C117.678 7.9992 117.258 7.72443 116.851 7.72443C116.463 7.72443 115.677 8.3023 114.484 9.46297C113.291 10.6257 111.979 12.0094 110.539 13.6225C109.107 15.2384 107.793 16.7555 106.599 18.182C105.401 19.6018 104.678 20.4987 104.417 20.8567C104.826 18.9125 105.195 17.3141 105.52 16.067C105.854 14.8233 106.198 13.6209 106.551 12.4489C106.909 11.2803 107.127 10.5168 107.22 10.1591C107.307 9.79823 107.329 9.50595 107.286 9.28387C107.251 9.10112 107.038 8.8297 106.659 8.47152C106.281 8.11191 105.87 7.78715 105.429 7.49536C104.994 7.2045 104.688 7.05566 104.512 7.05566C104.202 7.05566 103.921 7.35781 103.666 7.95622C103.411 8.55621 103.141 9.44052 102.87 10.6093C102.595 11.7733 102.449 12.3838 102.435 12.4333C100.957 18.1164 100.041 21.9427 99.6826 23.9086C99.3267 25.8722 99.1809 27.0385 99.2518 27.4191C99.311 27.6958 99.6826 28.0909 100.386 28.5844C101.08 29.0772 101.652 29.3245 102.102 29.3245C102.393 29.3245 102.636 29.2288 102.835 29.0336C103.029 28.8384 103.306 28.4661 103.667 27.9121Z" fill="#ED1C24"/>
<path fill-rule="evenodd" clip-rule="evenodd" d="M133.356 9.60544C132.97 9.26079 132.565 8.94416 132.131 8.65746C131.696 8.37027 131.426 8.22684 131.313 8.22684C130.968 8.22684 130.558 8.76857 130.096 9.83755C129.633 10.9129 129.208 12.0742 128.827 13.3251C128.443 14.5765 128.176 15.4895 128.034 16.0524L126.966 16.3722C126.62 16.491 126.115 16.6035 125.453 16.7288C124.801 16.8552 124.323 16.9179 124.035 16.9179C123.623 16.9179 123.367 16.657 123.27 16.1517C123.207 15.8255 123.297 15.2153 123.528 14.3216C123.768 13.4235 124.02 12.6361 124.281 11.9514C124.49 11.4626 124.667 11.0348 124.828 10.6919C124.978 10.3403 125.09 10.0717 125.15 9.8764C125.214 9.68155 125.228 9.49894 125.198 9.34421C125.168 9.19154 124.977 8.92442 124.614 8.54554C124.259 8.17033 123.88 7.82313 123.475 7.51621C123.075 7.21071 122.787 7.05566 122.617 7.05566C122.329 7.05566 121.888 7.72443 121.291 9.05464C120.69 10.3847 120.177 11.8206 119.753 13.3729C119.321 14.9185 119.182 16.0411 119.313 16.7226C119.455 17.456 119.879 18.2318 120.578 19.0669C121.283 19.9013 121.967 20.3175 122.629 20.3175C122.985 20.3175 123.73 20.1652 124.868 19.8653C126.002 19.5689 126.868 19.3156 127.473 19.1096C127.366 19.4601 127.166 20.2992 126.875 21.6135C126.579 22.9283 126.33 24.1639 126.133 25.3122C125.93 26.4628 125.862 27.2161 125.93 27.5655C126.03 28.0738 126.493 28.5175 127.312 28.9021C127.727 29.0978 128.129 29.3229 128.507 29.5749C128.892 29.8218 129.136 29.9493 129.243 29.9493C129.565 29.9493 129.794 29.7277 129.917 29.2915C130.038 28.844 130.127 28.1329 130.188 27.1582C130.245 26.1814 130.276 25.654 130.287 25.5596C130.559 23.3627 130.809 21.6294 131.03 20.3534C131.252 19.08 131.498 17.9693 131.776 17.0075C132.052 16.0524 132.475 14.7457 133.042 13.0984C133.238 12.5147 133.458 11.9578 133.683 11.4326C133.913 10.9127 134.016 10.5967 133.998 10.4886C133.949 10.2524 133.735 9.95551 133.356 9.60544Z" fill="#ED1C24"/>
<path fill-rule="evenodd" clip-rule="evenodd" d="M22.7359 5.3927C22.7577 5.3416 22.7811 5.26757 22.8007 5.23128C23.2768 3.85952 24.0284 4.79684 24.4382 4.72536C25.0843 4.52271 25.4539 3.93927 25.5902 3.11449C25.6743 2.62068 25.724 1.60727 25.4629 1.18589C25.3058 0.931491 24.7517 0.50581 23.7766 0.31653C21.6297 -0.104374 17.8408 -0.0988025 14.5632 0.293288C12.1286 0.590501 8.93549 1.2892 4.69772 2.86902C3.24946 3.409 0.985229 3.69842 0.314615 5.45637C-0.228623 6.87605 -0.0224258 7.64097 0.582294 8.00058C1.91517 8.79066 5.18594 7.61709 6.66369 7.14334C6.70452 7.17661 6.74772 7.20988 6.80967 7.25843C6.26737 10.3558 5.06929 14.0802 4.70292 17.5092C3.95129 19.748 2.50365 25.3042 3.71182 27.5018C6.20463 29.0348 7.72589 24.6887 7.53767 24.5423C8.16887 22.6278 10.1449 14.2408 10.3785 11.9719C10.4343 11.4006 10.4819 10.9424 10.5695 10.3497C10.738 9.1974 10.7589 8.05073 10.9514 6.96807C11.0043 6.66624 11.1758 6.41694 11.4205 6.21557C12.5056 5.31708 15.0516 5.30355 15.4849 5.30355C15.8221 5.22109 16.7602 5.07606 17.5078 4.83409C17.838 4.72839 17.8409 5.21042 17.7516 5.76934C17.662 6.32461 17.4826 6.9574 17.442 7.15337C17.3476 7.61868 17.2558 8.01714 17.1471 8.50778C17.0112 9.12242 16.7302 10.3765 16.0859 13.175C14.6262 19.9289 13.4977 25.9362 14.7403 29.1966C15.0387 29.6377 16.0509 30.1092 16.3437 29.9775C17.0927 29.8376 17.6314 29.5083 18.0203 29.0611C18.7007 28.279 18.913 27.1325 18.9698 25.9998C19.0722 23.9256 19.3626 20.7489 19.8322 17.6142C20.1439 15.5339 21.1286 10.9045 21.9357 7.89281C22.2429 6.74918 22.5352 5.85436 22.7359 5.3927Z" fill="#ED1C24"/>
<path fill-rule="evenodd" clip-rule="evenodd" d="M42.883 29.9969C43.1563 29.9969 43.3388 29.7891 43.4269 29.3752C43.5091 28.9615 43.6992 27.7486 43.9889 25.742C44.2796 23.7421 44.6746 21.5873 45.1751 19.2739C45.6753 16.9652 46.4051 14.2287 47.3704 11.0563C47.736 10.9547 48.4297 10.8817 49.4414 10.825C50.4541 10.7715 51.2008 10.6727 51.6812 10.5329C52.1593 10.3844 52.3504 10.0779 52.2562 9.608C52.1932 9.27512 51.9997 8.90086 51.6779 8.5059C51.3547 8.10379 50.9159 7.76232 50.3548 7.48262C49.7987 7.19734 49.1718 7.05566 48.4789 7.05566C48.2991 7.05566 48.0235 7.07683 47.6545 7.12204C47.2462 7.16646 46.6218 7.20928 45.7877 7.25815C44.9445 7.30193 44.3178 7.34603 43.9028 7.38344C41.5182 7.56429 39.848 7.76598 38.8826 7.99028C37.9197 8.20997 37.4859 8.58566 37.5891 9.11959C37.9013 10.7174 38.5564 11.5135 39.5652 11.5135C39.7222 11.5135 40.8465 11.4255 42.9363 11.2505C42.6909 12.1926 42.3403 13.5945 41.8828 15.4645C41.4322 17.3417 41.0262 19.0907 40.6703 20.7181C40.3036 22.3437 40.0042 23.8541 39.7632 25.2437C39.5147 26.6403 39.4321 27.5221 39.5058 27.8994C39.576 28.2564 39.8313 28.5883 40.2741 28.9176C40.7206 29.2367 41.2094 29.4962 41.7478 29.697C42.2874 29.8982 42.6695 29.9969 42.883 29.9969Z" fill="#ED1C24"/>
<path fill-rule="evenodd" clip-rule="evenodd" d="M78.7015 18.0341C78.4448 19.5541 78.0204 20.9678 77.4359 22.2961C76.8437 23.6244 76.1957 24.6897 75.4899 25.497C74.7811 26.3097 74.1379 26.7164 73.5628 26.7164C73.3178 26.7164 73.0589 26.5348 72.7799 26.1682C72.5057 25.802 72.3053 25.3044 72.1802 24.6815C71.8945 23.204 71.878 21.6535 72.1322 20.0566C72.3845 18.4536 72.804 16.9887 73.3847 15.6477C73.9724 14.3166 74.6171 13.2401 75.3197 12.4196C76.0229 11.5998 76.6396 11.1915 77.1756 11.1915C77.8522 11.1915 78.3585 12.0637 78.7012 13.8127C78.9535 15.1131 78.954 16.5199 78.7015 18.0341ZM81.7791 11.1429C81.4 10.2729 81.0117 9.60369 80.6286 9.13328C80.2443 8.66892 79.9453 8.43379 79.75 8.43379C79.6382 8.43379 79.4013 8.52437 79.0476 8.71636C78.6935 8.90102 78.4366 9.04923 78.2898 9.1535C77.8601 8.64615 77.357 8.16985 76.7806 7.72157C76.2097 7.2763 75.7412 7.05566 75.3929 7.05566C74.8571 7.05566 74.087 7.5256 73.0971 8.46993C72.1072 9.41505 71.1534 10.69 70.2308 12.2856C69.312 13.8899 68.6334 15.7251 68.1931 17.7976C67.7503 19.8732 67.7451 21.9975 68.1694 24.1639C68.419 25.4591 68.8957 26.5466 69.5827 27.4258C70.2719 28.3072 71.0398 28.9516 71.8781 29.3674C72.7168 29.7891 73.4893 29.997 74.1941 29.997C75.8546 29.997 77.4502 29.2465 78.98 27.7483C80.5053 26.2455 81.6325 24.2641 82.3588 21.8085C83.0864 19.3586 83.1982 16.8106 82.6841 14.1763C82.4599 13.0298 82.1603 12.0162 81.7791 11.1429ZM94.9331 13.7914C94.4506 14.4431 93.794 15.0485 92.9604 15.6133C92.1304 16.1845 91.2593 16.6315 90.3455 16.9518C90.8431 14.1613 91.0365 12.4569 90.9182 11.8461C90.8506 11.503 90.6217 11.1646 90.2371 10.8303C91.0174 10.5889 91.8887 10.4708 92.8517 10.4708C93.6132 10.4708 94.2238 10.6142 94.685 10.918C95.1404 11.2168 95.41 11.5901 95.4961 12.0382C95.6001 12.5619 95.4098 13.146 94.9331 13.7914ZM93.2986 23.3872C92.7698 24.1372 92.0221 24.7526 91.0613 25.2326C90.0977 25.7223 89.089 25.9595 88.0378 25.9595C88.4838 24.4341 88.8294 23.257 89.0804 22.4439C89.3234 21.624 89.5387 20.8185 89.7106 20.0003C90.372 19.8048 90.9803 19.705 91.5385 19.705C92.9138 19.705 93.6963 20.202 93.8881 21.1762C94.0263 21.8964 93.8329 22.636 93.2986 23.3872ZM98.2971 15.542C99.0314 14.3778 99.2788 13.1623 99.0314 11.9062C98.7554 10.4741 97.947 9.31094 96.6054 8.41087C95.273 7.50952 93.6299 7.05582 91.692 7.05582C90.8474 7.05582 89.6923 7.18731 88.2388 7.44903C86.8432 7.69275 85.8084 7.94014 85.1276 8.18609C84.4531 8.43395 84.1664 8.82174 84.2732 9.3544C84.3821 9.91524 84.6533 10.4741 85.0932 11.0393C85.5294 11.5984 86.1081 11.9408 86.8333 12.0712C86.5347 14.6833 86.1775 16.9039 85.7446 18.7379C85.3126 20.5753 84.9026 22.0066 84.5091 23.0392C84.1174 24.0643 83.7915 24.9573 83.5319 25.7048C83.2698 26.4483 83.1906 27.0923 83.298 27.6381C83.3275 27.7905 83.5476 28.0637 83.9601 28.4519C84.3729 28.8338 84.8156 29.1901 85.2849 29.5121C85.7556 29.8315 86.0949 29.9972 86.3072 29.9972C86.6203 29.9972 86.8554 29.855 87.019 29.5734C87.1859 29.2872 87.3653 28.7773 87.557 28.0272C88.6832 29.3455 89.7755 29.9972 90.8415 29.9972C91.8542 29.9972 92.9544 29.5204 94.1362 28.5506C95.3151 27.5818 96.2658 26.4233 96.982 25.0826C97.6974 23.7327 97.9564 22.5403 97.7537 21.511C97.6476 20.9653 97.3925 20.3927 96.9913 19.8048C96.5914 19.2105 96.019 18.6925 95.2732 18.2353C96.5507 17.596 97.5582 16.7041 98.2971 15.542ZM62.8706 14.5608C62.2447 15.3855 61.4237 16.1614 60.4153 16.8943C59.3955 17.6199 58.4457 18.1258 57.5522 18.3967C57.6701 17.4563 57.9091 16.1143 58.2746 14.3627C58.49 13.3206 58.6568 12.6286 58.778 12.2797C58.8871 11.9266 59.0729 11.6799 59.3184 11.5363C59.5693 11.389 59.9937 11.2959 60.6027 11.2515C60.7607 11.2313 61.003 11.2169 61.3277 11.2169C62.708 11.2169 63.4763 11.6342 63.6399 12.4714C63.7537 13.0435 63.4966 13.743 62.8706 14.5608ZM66.3714 9.78534C65.704 9.00338 64.8054 8.3499 63.6533 7.83077C62.512 7.31196 61.2038 7.05582 59.7256 7.05582C58.8795 7.05582 57.9896 7.14847 57.049 7.33409C56.1056 7.51318 55.3217 7.78875 54.691 8.14454C54.0592 8.50463 53.7874 8.91391 53.8772 9.38528C54.1639 10.8395 54.6881 11.7488 55.462 12.1014C54.7458 15.149 54.1707 17.5063 53.7503 19.1695C53.3311 20.837 52.8928 22.5134 52.444 24.2144C51.9928 25.9053 51.7292 26.9654 51.6495 27.3751C51.5774 27.79 51.5609 28.1319 51.6106 28.3933C51.6896 28.794 51.8565 29.0556 52.1202 29.1825C52.3758 29.3104 52.8104 29.4388 53.4123 29.573C53.7169 29.6436 54.044 29.7307 54.3794 29.839C54.7132 29.9426 54.9449 29.9967 55.0722 29.9967C55.4439 29.9967 55.7243 29.7888 55.9048 29.3806C56.079 28.9722 56.2292 28.3429 56.3518 27.502C56.4715 26.6588 56.6296 25.5279 56.8335 24.1147C57.0362 22.7059 57.3057 21.3341 57.6263 19.9998C58.6055 21.465 59.4125 22.197 60.0463 22.197C60.793 22.197 61.8293 21.5693 63.143 20.3126C64.4621 19.0558 65.5814 17.6289 66.5037 16.0298C67.4252 14.431 67.7912 13.1365 67.5934 12.1334C67.4463 11.3586 67.0355 10.5751 66.3714 9.78534Z" fill="#ED1C24"/>
</svg>
