<svg width="99" height="80" viewBox="0 0 99 80" fill="none" xmlns="http://www.w3.org/2000/svg">
<g clip-path="url(#clip0_4252_74615)">
<path d="M8.83093 68.3301L14.8195 62.3198L12.8088 60.3019L9.05514 64.0701L2.23485 57.2209L0 59.4702L8.83093 68.3301ZM11.2972 51.7458L12.8088 53.2575L15.9116 50.133L17.7125 51.9411L14.6025 55.0656L16.5264 56.9894L20.3668 53.1345L22.1677 54.9426L16.0924 61.0469L7.25424 52.187L13.3368 46.0755L15.1377 47.8837L11.2972 51.7458ZM30.9625 46.1334L24.9523 44.4048C25.287 43.6858 25.3868 42.8796 25.2375 42.1007C25.0882 41.3217 24.6974 40.6096 24.1205 40.0653C23.7754 39.7431 23.3694 39.4932 22.9263 39.3301C22.4832 39.1671 22.0121 39.0942 21.5404 39.1157C21.0688 39.1373 20.6062 39.2529 20.1799 39.4557C19.7536 39.6585 19.372 39.9444 19.0577 40.2967L14.5808 44.7881L23.4551 53.6552L25.6972 51.4059L18.5515 44.2312L19.998 42.7847C20.1449 42.6314 20.3208 42.5086 20.5153 42.4234C20.7099 42.3382 20.9193 42.2923 21.1317 42.2882C21.3441 42.2842 21.5551 42.3222 21.7528 42.3999C21.9504 42.4777 22.1308 42.5937 22.2835 42.7413C22.5834 43.0512 22.7481 43.4675 22.7414 43.8988C22.7346 44.3301 22.5569 44.741 22.2473 45.0413L20.931 46.3648L28.5685 48.5346L30.9625 46.1334ZM26.9195 32.0589C29.6823 29.2888 33.3348 29.5564 35.9168 32.1529C38.4988 34.7494 38.7736 38.4163 36.0108 41.1863C33.248 43.9564 29.6028 43.6888 27.0135 41.0706C24.4243 38.4524 24.1567 34.8072 26.9195 32.0372M28.6698 33.8381C27.2667 35.2412 27.7368 36.9553 29.4437 38.6694C31.1505 40.3835 32.8502 40.8392 34.2533 39.4433C35.6564 38.0474 35.1863 36.3261 33.4794 34.612C31.7725 32.8979 30.0729 32.3916 28.6698 33.8381ZM38.5784 27.4011L36.9293 22.3962L39.5475 19.7708L41.739 28.3558L45.1961 31.8274L42.9613 34.0768L39.5186 30.6196L31.3241 28.0231L33.7904 25.5496L38.5277 27.3939L38.5784 27.4011ZM79.435 57.9514L88.2731 49.0915L85.9153 46.7265L77.0844 55.5863L79.435 57.9514ZM45.6446 24.0308L52.5155 20.74L47.4382 25.8317L49.485 27.8857L58.3087 19.0186L55.5097 16.2052L48.863 19.4598L52.19 12.871L49.297 9.9707L40.4661 18.8306L42.5056 20.8846L47.5829 15.7929L44.3065 22.6855L45.6446 24.0308ZM60.9558 25.2892L59.4442 26.8008L62.8363 30.2001L61.0354 32.0082L57.6506 28.609L55.7267 30.5328L59.8493 34.6698L58.0484 36.478L51.6837 30.0916L60.5147 21.2245L66.8793 27.6109L65.0784 29.419L60.9558 25.2892ZM69.4758 47.9632L75.4643 53.9807L77.4822 51.9556L73.7285 48.1947L80.5488 41.3455L78.3067 39.1034L69.4758 47.9632ZM93.2708 54.1037L90.4357 63.4987H90.4284L96.5327 57.38L98.6301 59.4847L89.7992 68.3445L87.0291 65.5672L89.4448 55.8829H89.452L83.4201 61.9365L81.3805 59.8897L90.2042 51.0298L93.2708 54.1037ZM67.8051 46.2853L69.5047 40.2533C70.2233 40.5928 71.0314 40.6945 71.8117 40.5437C72.592 40.3928 73.3039 39.9972 73.8442 39.4144C74.1632 39.0679 74.4106 38.6617 74.572 38.2193C74.7335 37.7769 74.8059 37.3069 74.785 36.8364C74.7642 36.3658 74.6506 35.9041 74.4506 35.4777C74.2507 35.0512 73.9684 34.6685 73.62 34.3516L68.8682 29.5781L60.0301 38.4669L62.2722 40.7162L69.4324 33.5415L71.132 35.2846C71.2802 35.4323 71.3978 35.6077 71.4782 35.8009C71.5586 35.994 71.6001 36.2011 71.6004 36.4103C71.6008 36.6195 71.5599 36.8267 71.4801 37.0201C71.4004 37.2136 71.2833 37.3894 71.1356 37.5375C70.9879 37.6857 70.8125 37.8033 70.6194 37.8837C70.4262 37.9641 70.2191 38.0056 70.0099 38.0059C69.8007 38.0063 69.5935 37.9654 69.4001 37.8856C69.2067 37.8059 69.0309 37.6888 68.8827 37.5411L67.2626 35.9283L65.3822 43.8841L67.8051 46.2853Z" fill="white"/>
<path d="M10.5098 70.0296H88.1366L49.3196 31.0679L10.5098 70.0296Z" fill="#66C05D"/>
</g>
<defs>
<clipPath id="clip0_4252_74615">
<rect width="98.6301" height="80" fill="white"/>
</clipPath>
</defs>
</svg>
