<svg width="285" height="50" viewBox="0 0 285 50" fill="none" xmlns="http://www.w3.org/2000/svg">
<path d="M50.834 15.212C50.834 14.9359 51.0579 14.712 51.334 14.712H59.2457C59.4691 14.712 59.6655 14.8602 59.7266 15.0751L64.1652 30.6725C64.179 30.7211 64.2234 30.7546 64.2739 30.7546C64.3244 30.7546 64.3688 30.7211 64.3826 30.6725L68.8212 15.0751C68.8824 14.8602 69.0787 14.712 69.3021 14.712H77.2138C77.49 14.712 77.7138 14.9359 77.7138 15.212V36.2705C77.7138 36.5467 77.49 36.7705 77.2138 36.7705H72.4965C72.2204 36.7705 71.9965 36.5467 71.9965 36.2705V20.0755C71.9965 20.0353 71.9639 20.0026 71.9237 20.0026C71.891 20.0026 71.8624 20.0243 71.8535 20.0557L67.2354 36.4064C67.1746 36.6218 66.978 36.7705 66.7542 36.7705H61.7936C61.5698 36.7705 61.3733 36.6218 61.3124 36.4064L56.6943 20.0557C56.6854 20.0243 56.6568 20.0026 56.6242 20.0026C56.5839 20.0026 56.5513 20.0353 56.5513 20.0755V36.2705C56.5513 36.5467 56.3274 36.7705 56.0513 36.7705H51.334C51.0579 36.7705 50.834 36.5467 50.834 36.2705V15.212Z" fill="#1E1E1E"/>
<path d="M81.7604 15.212C81.7604 14.9359 81.9843 14.712 82.2604 14.712H87.3191C87.5952 14.712 87.8191 14.9359 87.8191 15.212V21.8066C87.8191 22.0828 88.0429 22.3066 88.3191 22.3066H93.6644C94.7737 22.3066 95.8119 22.4631 96.779 22.7759C97.7746 23.0604 98.6279 23.5155 99.339 24.1413C100.079 24.7386 100.662 25.4924 101.088 26.4026C101.515 27.2844 101.728 28.3226 101.728 29.5172C101.728 30.7403 101.515 31.807 101.088 32.7172C100.69 33.6274 100.107 34.3812 99.339 34.9785C98.5994 35.5759 97.7177 36.031 96.6937 36.3439C95.6981 36.6283 94.603 36.7705 93.4084 36.7705H82.2604C81.9843 36.7705 81.7604 36.5467 81.7604 36.2705V15.212ZM91.9577 32.5892C93.067 32.5892 93.9488 32.3474 94.603 31.8639C95.2857 31.3803 95.627 30.5981 95.627 29.5172C95.627 28.4363 95.2715 27.6541 94.5604 27.1706C93.8493 26.6586 92.9675 26.4026 91.915 26.4026H88.3191C88.0429 26.4026 87.8191 26.6264 87.8191 26.9026V32.0892C87.8191 32.3654 88.0429 32.5892 88.3191 32.5892H91.9577ZM103.331 15.212C103.331 14.9359 103.555 14.712 103.831 14.712H108.847C109.123 14.712 109.347 14.9359 109.347 15.212V36.2705C109.347 36.5467 109.123 36.7705 108.847 36.7705H103.831C103.555 36.7705 103.331 36.5467 103.331 36.2705V15.212Z" fill="#1E1E1E"/>
<path d="M123.848 37.3252C122.17 37.3252 120.648 37.055 119.283 36.5145C117.918 35.9456 116.752 35.1634 115.785 34.1679C114.817 33.1723 114.064 31.9919 113.523 30.6266C112.983 29.2328 112.713 27.711 112.713 26.0613C112.713 24.3546 112.954 22.7759 113.438 21.3253C113.95 19.8462 114.689 18.5804 115.657 17.528C116.624 16.4471 117.804 15.608 119.198 15.0107C120.592 14.4133 122.184 14.1147 123.976 14.1147C125.285 14.1147 126.536 14.2853 127.731 14.6267C128.954 14.968 130.035 15.4942 130.974 16.2053C131.941 16.888 132.723 17.7555 133.32 18.808C133.841 19.725 134.167 20.7716 134.299 21.9477C134.331 22.2341 134.101 22.4773 133.813 22.4773H128.841C128.595 22.4773 128.388 22.2972 128.335 22.0567C127.842 19.8056 126.375 18.68 123.934 18.68C122.967 18.68 122.156 18.9075 121.502 19.3626C120.848 19.7893 120.307 20.3582 119.881 21.0693C119.482 21.7519 119.198 22.5199 119.027 23.3733C118.857 24.2266 118.771 25.0515 118.771 25.8479C118.771 26.6444 118.857 27.455 119.027 28.2799C119.198 29.1048 119.468 29.8586 119.838 30.5412C120.236 31.1954 120.762 31.7359 121.416 32.1625C122.071 32.5892 122.867 32.8025 123.806 32.8025C125.256 32.8025 126.366 32.4043 127.134 31.6079C127.846 30.8707 128.319 29.9176 128.554 28.7487C128.602 28.5053 128.811 28.3226 129.059 28.3226H133.9C134.203 28.3226 134.437 28.5901 134.385 28.8885C133.922 31.5414 132.814 33.5857 131.059 35.0212C129.182 36.5572 126.778 37.3252 123.848 37.3252Z" fill="#1E1E1E"/>
<path d="M152.146 29.3359C152.146 29.001 151.823 28.7594 151.499 28.8455C150.997 28.9791 150.374 29.1318 149.628 29.3039C148.519 29.5315 147.367 29.6452 146.172 29.6452C143.157 29.6452 140.995 28.9483 139.687 27.5546C138.379 26.1608 137.724 24.2693 137.724 21.8799V15.212C137.724 14.9359 137.948 14.712 138.224 14.712H143.24C143.516 14.712 143.74 14.9359 143.74 15.212V20.6426C143.74 22.2639 144.053 23.3875 144.679 24.0133C145.305 24.639 146.329 24.9519 147.751 24.9519C148.633 24.9519 149.458 24.8808 150.226 24.7386C150.82 24.6286 151.337 24.5186 151.778 24.4085C151.996 24.3542 152.146 24.1565 152.146 23.9319V15.212C152.146 14.9359 152.369 14.712 152.646 14.712H157.704C157.98 14.712 158.204 14.9359 158.204 15.212V36.2705C158.204 36.5467 157.98 36.7705 157.704 36.7705H152.646C152.369 36.7705 152.146 36.5467 152.146 36.2705V29.3359Z" fill="#1E1E1E"/>
<path d="M162.248 15.212C162.248 14.9359 162.472 14.712 162.748 14.712H167.551C167.827 14.712 168.051 14.9359 168.051 15.212V27.7205C168.051 28.2361 168.737 28.4142 168.988 27.9638L176.228 14.9686C176.316 14.8102 176.483 14.712 176.665 14.712H182.74C183.016 14.712 183.24 14.9359 183.24 15.212V36.2705C183.24 36.5467 183.016 36.7705 182.74 36.7705H177.937C177.661 36.7705 177.437 36.5467 177.437 36.2705V23.762C177.437 23.2464 176.752 23.0683 176.501 23.5187L169.26 36.5139C169.172 36.6723 169.005 36.7705 168.824 36.7705H162.748C162.472 36.7705 162.248 36.5467 162.248 36.2705V15.212Z" fill="#1E1E1E"/>
<path d="M193.634 19.7773C193.634 19.5012 193.41 19.2773 193.134 19.2773H186.881C186.605 19.2773 186.381 19.0534 186.381 18.7773V15.212C186.381 14.9359 186.605 14.712 186.881 14.712H206.446C206.722 14.712 206.946 14.9359 206.946 15.212V18.7773C206.946 19.0534 206.722 19.2773 206.446 19.2773H200.193C199.916 19.2773 199.693 19.5012 199.693 19.7773V36.2705C199.693 36.5467 199.469 36.7705 199.193 36.7705H194.134C193.858 36.7705 193.634 36.5467 193.634 36.2705V19.7773Z" fill="#1E1E1E"/>
<path d="M216.672 37.3252C215.619 37.3252 214.638 37.1972 213.728 36.9412C212.818 36.6852 212.021 36.287 211.339 35.7465C210.656 35.2061 210.115 34.5234 209.717 33.6985C209.347 32.8737 209.163 31.8923 209.163 30.7546C209.163 29.503 209.376 28.479 209.803 27.6826C210.258 26.8577 210.827 26.2035 211.509 25.7199C212.22 25.2364 213.017 24.8808 213.899 24.6533C214.809 24.3973 215.719 24.1982 216.629 24.0559C217.539 23.9137 218.435 23.7999 219.317 23.7146C220.199 23.6293 220.981 23.5013 221.664 23.3306C222.346 23.1599 222.887 22.9182 223.285 22.6053C223.683 22.2639 223.868 21.7804 223.84 21.1546C223.84 20.5288 223.726 20.0169 223.498 19.6186C223.299 19.2204 223.015 18.9217 222.645 18.7226C222.304 18.4951 221.891 18.3529 221.408 18.296C220.953 18.2106 220.455 18.168 219.914 18.168C218.72 18.168 217.781 18.424 217.098 18.936C216.505 19.3811 216.127 20.0841 215.963 21.0451C215.92 21.2993 215.707 21.496 215.449 21.496H210.377C210.089 21.496 209.859 21.2527 209.892 20.9665C210.027 19.8043 210.367 18.8145 210.912 17.9973C211.538 17.0302 212.334 16.2622 213.301 15.6933C214.268 15.1244 215.349 14.7262 216.544 14.4987C217.738 14.2427 218.962 14.1147 220.213 14.1147C221.322 14.1147 222.446 14.2 223.584 14.3707C224.722 14.5129 225.76 14.8116 226.698 15.2667C227.637 15.7218 228.405 16.3618 229.002 17.1866C229.6 18.0115 229.898 19.0782 229.898 20.3866V31.8639C229.898 32.8594 229.955 33.8123 230.069 34.7225C230.127 35.1897 230.208 35.5968 230.312 35.9441C230.424 36.3205 230.157 36.7705 229.764 36.7705H224.883C224.668 36.7705 224.476 36.6331 224.413 36.4272C224.344 36.2003 224.281 35.9734 224.224 35.7465C224.158 35.3209 223.612 35.1129 223.274 35.3793C222.501 35.9878 221.637 36.4373 220.682 36.7278C219.374 37.1261 218.037 37.3252 216.672 37.3252ZM218.933 33.3145C220.128 33.3145 221.052 33.1154 221.706 32.7172C222.361 32.319 222.844 31.8497 223.157 31.3092C223.47 30.7403 223.655 30.1714 223.712 29.6026C223.797 29.0337 223.84 28.5786 223.84 28.2372V27.0721C223.84 26.6474 223.298 26.3781 222.901 26.5306C222.531 26.6444 222.119 26.7439 221.664 26.8293C221.209 26.9146 220.739 26.9857 220.256 27.0426C219.772 27.0995 219.289 27.1706 218.805 27.2559C218.322 27.3412 217.866 27.455 217.44 27.5972C217.013 27.7395 216.629 27.9386 216.288 28.1946C215.975 28.4221 215.719 28.7208 215.52 29.0906C215.321 29.4603 215.221 29.9297 215.221 30.4986C215.221 31.0674 215.321 31.5368 215.52 31.9065C215.719 32.2479 215.989 32.5323 216.33 32.7599C216.672 32.959 217.07 33.1012 217.525 33.1865C217.98 33.2719 218.45 33.3145 218.933 33.3145Z" fill="#1E1E1E"/>
<path d="M244.225 37.3252C242.49 37.3252 240.925 37.055 239.532 36.5145C238.138 35.9456 236.957 35.1492 235.99 34.1252C235.023 33.1012 234.269 31.8781 233.729 30.4559C233.217 29.0337 232.961 27.4692 232.961 25.7626C232.961 24.1128 233.231 22.5768 233.772 21.1546C234.312 19.7324 235.08 18.5093 236.076 17.4853C237.071 16.4329 238.252 15.608 239.617 15.0107C241.011 14.4133 242.547 14.1147 244.225 14.1147C245.989 14.1147 247.539 14.4418 248.876 15.096C250.241 15.7502 251.364 16.632 252.246 17.7413C253.156 18.8222 253.839 20.088 254.294 21.5386C254.749 22.9893 254.977 24.4968 254.977 26.0613C254.977 26.2604 254.977 26.4595 254.977 26.6586C254.977 26.6988 254.976 26.7398 254.975 26.7817C254.965 27.0303 254.749 27.2132 254.501 27.2132H239.542C239.257 27.2132 239.029 27.4509 239.053 27.7345C239.199 29.4297 239.685 30.6782 240.513 31.4799C241.423 32.3617 242.732 32.8025 244.438 32.8025C245.661 32.8025 246.714 32.5039 247.596 31.9065C248.326 31.3885 248.822 30.851 249.084 30.294C249.178 30.0929 249.37 29.9439 249.592 29.9439H253.864C254.203 29.9439 254.443 30.275 254.326 30.5933C253.474 32.901 252.241 34.5761 250.625 35.6185C248.861 36.7563 246.728 37.3252 244.225 37.3252ZM248.275 23.3733C248.587 23.3733 248.824 23.0891 248.751 22.7851C248.452 21.5362 247.982 20.5661 247.34 19.8746C246.628 19.0782 245.533 18.68 244.054 18.68C243.059 18.68 242.248 18.8506 241.622 19.192C240.997 19.5049 240.485 19.9031 240.086 20.3866C239.717 20.8702 239.446 21.3822 239.276 21.9226C239.189 22.2501 239.124 22.5567 239.08 22.8424C239.035 23.1282 239.265 23.3733 239.554 23.3733H248.275Z" fill="#1E1E1E"/>
<path d="M257.954 15.212C257.954 14.9359 258.178 14.712 258.454 14.712H266.366C266.589 14.712 266.786 14.8602 266.847 15.0751L271.285 30.6725C271.299 30.7211 271.344 30.7546 271.394 30.7546C271.445 30.7546 271.489 30.7211 271.503 30.6725L275.941 15.0751C276.003 14.8602 276.199 14.712 276.422 14.712H284.334C284.61 14.712 284.834 14.9359 284.834 15.212V36.2705C284.834 36.5467 284.61 36.7705 284.334 36.7705H279.617C279.341 36.7705 279.117 36.5467 279.117 36.2705V20.0755C279.117 20.0352 279.084 20.0026 279.044 20.0026C279.011 20.0026 278.983 20.0243 278.974 20.0557L274.356 36.4064C274.295 36.6218 274.098 36.7705 273.874 36.7705H268.914C268.69 36.7705 268.493 36.6218 268.433 36.4064L263.814 20.0557C263.806 20.0243 263.777 20.0026 263.744 20.0026C263.704 20.0026 263.671 20.0352 263.671 20.0755V36.2705C263.671 36.5467 263.448 36.7705 263.171 36.7705H258.454C258.178 36.7705 257.954 36.5467 257.954 36.2705V15.212Z" fill="#1E1E1E"/>
<rect x="5.96877" y="47.1147" width="28" height="2.25194" rx="0.5" fill="#A3D562"/>
<path fill-rule="evenodd" clip-rule="evenodd" d="M3.21679 19.82L1.90698 22.1147C1.1112 23.6564 0.925378 25.6222 1.49785 27.8836C3.1566 34.4363 10.5536 40.9904 18.0195 42.5227C22.6726 43.4777 26.2543 42.2567 27.8911 39.6147L29.4304 37.1206C27.7386 39.6567 24.1948 40.8106 19.6205 39.8718C12.1181 38.332 4.68498 31.7458 3.01812 25.1611C2.49786 23.1059 2.60083 21.2938 3.21679 19.82Z" fill="#225DB8"/>
<path d="M30.1867 30.7372C31.8535 37.3219 27.1229 41.4116 19.6205 39.8718C12.1181 38.332 4.68498 31.7458 3.01812 25.1611C1.35126 18.5765 6.08189 14.4868 13.5843 16.0266C21.0867 17.5664 28.5198 24.1526 30.1867 30.7372Z" fill="#69A4FE"/>
<path opacity="0.6" d="M30.1867 30.7373C31.8536 37.322 27.1229 41.4116 19.6205 39.8718C12.1181 38.332 4.68499 31.7458 3.01813 25.1612C1.35127 18.5765 6.0819 14.4868 13.5843 16.0266C21.0867 17.5664 28.5198 24.1526 30.1867 30.7373Z" fill="url(#paint0_linear_64_2011)"/>
<path fill-rule="evenodd" clip-rule="evenodd" d="M19.1568 36.9165C25.0603 38.1281 28.5827 34.8917 27.3386 29.9769C26.0944 25.0622 20.4576 19.9459 14.5541 18.7343C8.65058 17.5226 5.1282 20.759 6.37234 25.6738C7.61647 30.5885 13.2533 35.7048 19.1568 36.9165ZM19.4022 37.8859C25.7329 39.1852 29.7247 35.7343 28.3181 30.178C26.9116 24.6217 20.6394 19.0642 14.3087 17.7648C7.97803 16.4655 3.98623 19.9165 5.39276 25.4727C6.79929 31.029 13.0715 36.5866 19.4022 37.8859Z" fill="#225DB8"/>
<path d="M18.8636 25.736L18.5104 24.3411L13.199 23.251L13.4297 27.6726L15.1685 28.0295C15.3003 27.838 15.4618 27.7129 15.653 27.6542C15.8422 27.5875 16.1088 27.5895 16.453 27.6602C16.7156 27.7141 16.9566 27.8012 17.176 27.9216C17.3953 28.0419 17.5956 28.1885 17.7767 28.3613C17.9578 28.5342 18.1087 28.7234 18.2295 28.929C18.3502 29.1346 18.4377 29.3448 18.492 29.5594C18.5444 29.766 18.5549 29.9603 18.5237 30.1423C18.4996 30.3182 18.4341 30.4668 18.3275 30.5881C18.2278 30.7033 18.086 30.7872 17.9018 30.8398C17.7247 30.8864 17.5094 30.8836 17.2558 30.8316C16.8211 30.7423 16.4352 30.5576 16.0981 30.2775C15.759 29.9893 15.5186 29.6499 15.3767 29.2591L13.4477 28.8632C13.5675 29.3022 13.7647 29.7081 14.0393 30.081C14.3211 30.4478 14.6531 30.7759 15.0355 31.0654C15.4178 31.3548 15.8314 31.5979 16.2762 31.7947C16.728 31.9854 17.1848 32.1282 17.6467 32.2229C18.1286 32.3294 18.5643 32.3548 18.9538 32.2991C19.3412 32.2354 19.6592 32.101 19.9077 31.8958C20.1653 31.6925 20.343 31.4275 20.4406 31.1009C20.5362 30.7664 20.5297 30.3845 20.421 29.9553C20.3224 29.5658 20.1619 29.1862 19.9396 28.8166C19.7243 28.4408 19.4576 28.0997 19.1397 27.7934C18.8308 27.4888 18.4761 27.2239 18.0756 26.9985C17.6751 26.7731 17.2394 26.6121 16.7685 26.5155C16.3881 26.4374 16.0616 26.4194 15.7889 26.4614C15.5142 26.4954 15.2747 26.6007 15.0704 26.7773L15.0372 26.7479L14.9377 24.9303L18.8636 25.736Z" fill="#225DB8"/>
<path fill-rule="evenodd" clip-rule="evenodd" d="M17.2483 10.6799L17.564 12.1146C17.8629 13.2043 18.5686 14.2582 19.6951 15.1678C23.1798 17.9816 29.3718 18.3491 33.5252 15.9886C35.7424 14.7286 36.9305 12.9458 37.0262 11.1295L37.0829 10.0254C36.8969 11.7912 35.6957 13.5058 33.5356 14.7334C29.3047 17.1379 22.9971 16.7635 19.4474 13.8973C18.2629 12.9408 17.5351 11.8278 17.2483 10.6799Z" fill="#D7785A"/>
<path d="M34.769 5.18985C38.3188 8.05612 37.7666 12.3289 33.5356 14.7334C29.3047 17.1379 22.9972 16.7635 19.4474 13.8973C15.8976 11.031 16.4498 6.7582 20.6807 4.35372C24.9117 1.94923 31.2192 2.32358 34.769 5.18985Z" fill="#FFB39B"/>
<path fill-rule="evenodd" clip-rule="evenodd" d="M32.273 13.6087C35.7245 11.6472 36.1151 8.20685 33.3022 5.93551C30.4892 3.66418 25.4199 3.32677 21.9684 5.2883C18.5169 7.24984 18.1262 10.6902 20.9392 12.9615C23.7522 15.2329 28.8214 15.5703 32.273 13.6087ZM32.8176 14.0485C36.5676 11.9173 37.0571 8.13014 33.9108 5.58965C30.7645 3.04915 25.1738 2.71735 21.4238 4.84855C17.6737 6.97974 17.1843 10.7669 20.3306 13.3074C23.4769 15.8479 29.0675 16.1797 32.8176 14.0485Z" fill="#D7785A"/>
<path d="M30.7384 11.1194L25.3393 6.75993L24.3005 7.3503C24.4694 7.53727 24.5651 7.7199 24.5874 7.89817C24.6098 8.07645 24.5789 8.24964 24.4947 8.41775C24.4115 8.57822 24.2807 8.73393 24.1022 8.8849C23.9247 9.02823 23.7199 9.16226 23.488 9.28698L24.3133 9.95335L25.9313 9.03385L29.433 11.8613L30.7384 11.1194Z" fill="#D7785A"/>
<defs>
<linearGradient id="paint0_linear_64_2011" x1="13.5843" y1="16.0266" x2="9.13208" y2="37.7192" gradientUnits="userSpaceOnUse">
<stop stop-color="#38CFFF"/>
<stop offset="1" stop-color="#38CFFF" stop-opacity="0"/>
</linearGradient>
</defs>
</svg>
