<svg width="82" height="69" viewBox="0 0 82 69" fill="none" xmlns="http://www.w3.org/2000/svg">
<path d="M48.8751 0L59.7211 17.8468L80.046 22.647L66.4243 38.4771L68.1398 59.2905L48.8751 51.2273L29.6104 59.2905L31.3259 38.4771L17.7042 22.647L38.0291 17.8468L48.8751 0Z" fill="url(#paint0_linear_284_9273)"/>
<g filter="url(#filter0_bi_284_9273)">
<path d="M32.775 3.44995L43.621 21.2967L63.9459 26.0969L50.3242 41.927L52.0397 62.7405L32.775 54.6773L13.5103 62.7405L15.2258 41.927L1.60412 26.0969L21.929 21.2967L32.775 3.44995Z" fill="#FED141" fill-opacity="0.3"/>
<path d="M32.775 3.93133L43.4074 21.4265L43.4617 21.516L43.5635 21.54L63.4881 26.2457L50.1347 41.764L50.0665 41.8433L50.0751 41.9476L51.7567 62.351L32.8715 54.4467L32.775 54.4063L32.6785 54.4467L13.7933 62.351L15.475 41.9476L15.4835 41.8433L15.4153 41.764L2.06194 26.2457L21.9865 21.54L22.0883 21.516L22.1426 21.4265L32.775 3.93133Z" stroke="white" stroke-opacity="0.37" stroke-width="0.5"/>
</g>
<defs>
<filter id="filter0_bi_284_9273" x="-8.396" y="-6.55005" width="82.3418" height="79.2905" filterUnits="userSpaceOnUse" color-interpolation-filters="sRGB">
<feFlood flood-opacity="0" result="BackgroundImageFix"/>
<feGaussianBlur in="BackgroundImage" stdDeviation="5"/>
<feComposite in2="SourceAlpha" operator="in" result="effect1_backgroundBlur_284_9273"/>
<feBlend mode="normal" in="SourceGraphic" in2="effect1_backgroundBlur_284_9273" result="shape"/>
<feColorMatrix in="SourceAlpha" type="matrix" values="0 0 0 0 0 0 0 0 0 0 0 0 0 0 0 0 0 0 127 0" result="hardAlpha"/>
<feOffset dx="-1" dy="1"/>
<feGaussianBlur stdDeviation="0.5"/>
<feComposite in2="hardAlpha" operator="arithmetic" k2="-1" k3="1"/>
<feColorMatrix type="matrix" values="0 0 0 0 1 0 0 0 0 1 0 0 0 0 1 0 0 0 0.15 0"/>
<feBlend mode="normal" in2="shape" result="effect2_innerShadow_284_9273"/>
</filter>
<linearGradient id="paint0_linear_284_9273" x1="118.639" y1="-33.6746" x2="17.3044" y2="31.2185" gradientUnits="userSpaceOnUse">
<stop stop-color="#FED141" stop-opacity="0"/>
<stop offset="0.288069" stop-color="#FED141" stop-opacity="0.1"/>
<stop offset="1" stop-color="#FB9C0F"/>
</linearGradient>
</defs>
</svg>
