<svg width="273" height="36" viewBox="0 0 273 36" fill="none" xmlns="http://www.w3.org/2000/svg">
<path d="M69.0703 11.093C69.0703 10.8916 69.2336 10.7283 69.4349 10.7283H75.2044C75.3674 10.7283 75.5105 10.8364 75.5551 10.9932L78.7919 22.3673C78.802 22.4027 78.8344 22.4272 78.8712 22.4272C78.908 22.4272 78.9404 22.4027 78.9505 22.3673L82.1873 10.9932C82.2319 10.8364 82.375 10.7283 82.538 10.7283H88.3075C88.5088 10.7283 88.6721 10.8916 88.6721 11.093V26.4496C88.6721 26.651 88.5088 26.8142 88.3075 26.8142H84.8674C84.6661 26.8142 84.5028 26.651 84.5028 26.4496V14.6396C84.5028 14.6103 84.479 14.5865 84.4497 14.5865C84.4259 14.5865 84.405 14.6023 84.3986 14.6252L81.0308 26.5487C80.9865 26.7058 80.8431 26.8142 80.6799 26.8142H77.0625C76.8993 26.8142 76.7559 26.7058 76.7116 26.5487L73.3438 14.6252C73.3374 14.6023 73.3165 14.5865 73.2927 14.5865C73.2634 14.5865 73.2396 14.6103 73.2396 14.6396V26.4496C73.2396 26.651 73.0763 26.8142 72.875 26.8142H69.4349C69.2336 26.8142 69.0703 26.651 69.0703 26.4496V11.093Z" fill="white"/>
<path d="M91.623 11.093C91.623 10.8916 91.7863 10.7283 91.9877 10.7283H95.6766C95.878 10.7283 96.0412 10.8916 96.0412 11.093V15.902C96.0412 16.1034 96.2045 16.2666 96.4058 16.2666H100.304C101.113 16.2666 101.87 16.3807 102.575 16.6089C103.301 16.8163 103.923 17.1482 104.442 17.6045C104.981 18.0401 105.407 18.5898 105.718 19.2536C106.029 19.8966 106.184 20.6537 106.184 21.5249C106.184 22.4168 106.029 23.1946 105.718 23.8584C105.427 24.5222 105.002 25.0719 104.442 25.5075C103.903 25.943 103.26 26.2749 102.513 26.5031C101.787 26.7105 100.988 26.8142 100.117 26.8142H91.9877C91.7863 26.8142 91.623 26.651 91.623 26.4496V11.093ZM99.0593 23.7651C99.8682 23.7651 100.511 23.5888 100.988 23.2361C101.486 22.8835 101.735 22.3131 101.735 21.5249C101.735 20.7367 101.476 20.1662 100.957 19.8136C100.439 19.4402 99.7956 19.2536 99.0282 19.2536H96.4058C96.2045 19.2536 96.0412 19.4168 96.0412 19.6182V23.4005C96.0412 23.6018 96.2045 23.7651 96.4058 23.7651H99.0593ZM107.353 11.093C107.353 10.8916 107.516 10.7283 107.718 10.7283H111.376C111.577 10.7283 111.74 10.8916 111.74 11.093V26.4496C111.74 26.651 111.577 26.8142 111.376 26.8142H107.718C107.516 26.8142 107.353 26.651 107.353 26.4496V11.093Z" fill="white"/>
<path d="M122.315 27.2187C121.091 27.2187 119.982 27.0217 118.986 26.6276C117.99 26.2127 117.14 25.6423 116.435 24.9163C115.729 24.1903 115.18 23.3295 114.786 22.3338C114.392 21.3174 114.194 20.2077 114.194 19.0046C114.194 17.7601 114.371 16.6089 114.723 15.551C115.097 14.4724 115.636 13.5493 116.341 12.7819C117.047 11.9936 117.907 11.3817 118.924 10.9461C119.94 10.5105 121.102 10.2927 122.409 10.2927C123.363 10.2927 124.275 10.4172 125.147 10.6661C126.039 10.915 126.827 11.2988 127.511 11.8173C128.217 12.3151 128.787 12.9478 129.223 13.7153C129.602 14.384 129.84 15.1472 129.936 16.0049C129.959 16.2137 129.792 16.3911 129.582 16.3911H125.956C125.777 16.3911 125.625 16.2597 125.587 16.0844C125.227 14.4427 124.157 13.6219 122.377 13.6219C121.672 13.6219 121.081 13.7879 120.604 14.1198C120.127 14.4309 119.733 14.8457 119.422 15.3643C119.131 15.8621 118.924 16.4222 118.799 17.0445C118.675 17.6667 118.613 18.2683 118.613 18.8491C118.613 19.4299 118.675 20.021 118.799 20.6226C118.924 21.2241 119.121 21.7738 119.391 22.2716C119.681 22.7487 120.065 23.1428 120.542 23.4539C121.019 23.7651 121.6 23.9206 122.284 23.9206C123.342 23.9206 124.151 23.6302 124.711 23.0495C125.23 22.5118 125.575 21.8168 125.746 20.9644C125.782 20.7869 125.934 20.6537 126.115 20.6537H129.645C129.866 20.6537 130.037 20.8488 129.999 21.0664C129.661 23.001 128.853 24.4917 127.573 25.5386C126.204 26.6587 124.452 27.2187 122.315 27.2187Z" fill="white"/>
<path d="M142.951 21.3926C142.951 21.1484 142.715 20.9722 142.479 21.0351C142.113 21.1324 141.659 21.2438 141.115 21.3693C140.306 21.5352 139.466 21.6182 138.595 21.6182C136.396 21.6182 134.819 21.11 133.865 20.0936C132.911 19.0772 132.434 17.6979 132.434 15.9555V11.093C132.434 10.8916 132.597 10.7283 132.799 10.7283H136.457C136.658 10.7283 136.821 10.8916 136.821 11.093V15.0532C136.821 16.2355 137.049 17.0548 137.506 17.5112C137.962 17.9675 138.709 18.1957 139.746 18.1957C140.389 18.1957 140.99 18.1438 141.55 18.0401C141.984 17.9599 142.361 17.8796 142.683 17.7994C142.842 17.7598 142.951 17.6156 142.951 17.4518V11.093C142.951 10.8916 143.114 10.7283 143.315 10.7283H147.004C147.206 10.7283 147.369 10.8916 147.369 11.093V26.4496C147.369 26.651 147.206 26.8142 147.004 26.8142H143.315C143.114 26.8142 142.951 26.651 142.951 26.4496V21.3926Z" fill="white"/>
<path d="M150.318 11.093C150.318 10.8916 150.481 10.7283 150.682 10.7283H154.185C154.386 10.7283 154.549 10.8916 154.549 11.093V20.2146C154.549 20.5906 155.049 20.7205 155.232 20.3921L160.512 10.9155C160.577 10.8 160.698 10.7283 160.831 10.7283H165.261C165.463 10.7283 165.626 10.8916 165.626 11.093V26.4496C165.626 26.651 165.463 26.8142 165.261 26.8142H161.759C161.558 26.8142 161.394 26.651 161.394 26.4496V17.328C161.394 16.952 160.894 16.822 160.711 17.1505L155.431 26.6271C155.367 26.7426 155.245 26.8142 155.113 26.8142H150.682C150.481 26.8142 150.318 26.651 150.318 26.4496V11.093Z" fill="white"/>
<path d="M173.205 14.4221C173.205 14.2208 173.042 14.0575 172.841 14.0575H168.281C168.079 14.0575 167.916 13.8943 167.916 13.6929V11.093C167.916 10.8916 168.079 10.7283 168.281 10.7283H182.548C182.75 10.7283 182.913 10.8916 182.913 11.093V13.6929C182.913 13.8943 182.75 14.0575 182.548 14.0575H177.988C177.787 14.0575 177.624 14.2208 177.624 14.4221V26.4496C177.624 26.651 177.46 26.8142 177.259 26.8142H173.57C173.369 26.8142 173.205 26.651 173.205 26.4496V14.4221Z" fill="white"/>
<path d="M190.006 27.2187C189.238 27.2187 188.522 27.1254 187.859 26.9387C187.195 26.752 186.614 26.4616 186.116 26.0675C185.618 25.6734 185.224 25.1756 184.934 24.574C184.664 23.9725 184.529 23.2569 184.529 22.4272C184.529 21.5145 184.685 20.7678 184.996 20.187C185.328 19.5854 185.743 19.1084 186.241 18.7557C186.759 18.4031 187.34 18.1438 187.983 17.9779C188.647 17.7912 189.311 17.646 189.974 17.5423C190.638 17.4386 191.292 17.3556 191.935 17.2934C192.578 17.2311 193.148 17.1378 193.646 17.0133C194.144 16.8889 194.538 16.7126 194.828 16.4844C195.119 16.2355 195.253 15.8829 195.233 15.4265C195.233 14.9702 195.15 14.5968 194.984 14.3064C194.839 14.016 194.631 13.7982 194.361 13.653C194.113 13.4871 193.812 13.3834 193.459 13.3419C193.127 13.2797 192.764 13.2486 192.37 13.2486C191.499 13.2486 190.814 13.4352 190.317 13.8086C189.884 14.1332 189.608 14.6459 189.489 15.3467C189.457 15.532 189.302 15.6754 189.114 15.6754H185.415C185.205 15.6754 185.037 15.498 185.061 15.2893C185.16 14.4418 185.408 13.7201 185.805 13.1241C186.261 12.4189 186.842 11.8588 187.548 11.444C188.253 11.0291 189.041 10.7387 189.912 10.5728C190.783 10.3861 191.675 10.2927 192.588 10.2927C193.397 10.2927 194.216 10.355 195.046 10.4794C195.876 10.5831 196.633 10.8009 197.317 11.1328C198.002 11.4647 198.562 11.9314 198.997 12.5329C199.433 13.1345 199.651 13.9123 199.651 14.8665V23.2361C199.651 23.9621 199.692 24.657 199.775 25.3208C199.818 25.6614 199.877 25.9584 199.952 26.2116C200.034 26.4861 199.839 26.8142 199.553 26.8142H195.993C195.836 26.8142 195.696 26.714 195.651 26.5639C195.6 26.3984 195.554 26.233 195.513 26.0675C195.465 25.7572 195.067 25.6055 194.82 25.7997C194.256 26.2434 193.626 26.5713 192.93 26.7831C191.976 27.0735 191.001 27.2187 190.006 27.2187ZM191.655 24.294C192.526 24.294 193.2 24.1488 193.677 23.8584C194.154 23.568 194.507 23.2258 194.735 22.8317C194.963 22.4168 195.098 22.0019 195.139 21.5871C195.202 21.1722 195.233 20.8404 195.233 20.5915V19.7418C195.233 19.4321 194.837 19.2357 194.548 19.3469C194.279 19.4299 193.978 19.5025 193.646 19.5647C193.314 19.6269 192.972 19.6788 192.619 19.7203C192.266 19.7617 191.914 19.8136 191.561 19.8758C191.209 19.9381 190.877 20.021 190.566 20.1247C190.254 20.2285 189.974 20.3737 189.726 20.5603C189.497 20.7263 189.311 20.9441 189.165 21.2137C189.02 21.4834 188.948 21.8256 188.948 22.2405C188.948 22.6553 189.02 22.9976 189.165 23.2672C189.311 23.5162 189.508 23.7236 189.757 23.8895C190.006 24.0347 190.296 24.1384 190.628 24.2007C190.96 24.2629 191.302 24.294 191.655 24.294Z" fill="white"/>
<path d="M210.098 27.2187C208.833 27.2187 207.692 27.0217 206.676 26.6276C205.659 26.2127 204.799 25.6319 204.093 24.8852C203.388 24.1384 202.838 23.2465 202.444 22.2094C202.071 21.1722 201.884 20.0314 201.884 18.7868C201.884 17.5838 202.081 16.4637 202.475 15.4265C202.87 14.3894 203.43 13.4975 204.156 12.7507C204.882 11.9833 205.742 11.3817 206.738 10.9461C207.754 10.5105 208.875 10.2927 210.098 10.2927C211.384 10.2927 212.515 10.5313 213.49 11.0084C214.485 11.4854 215.305 12.1285 215.948 12.9374C216.612 13.7256 217.109 14.6487 217.441 15.7066C217.773 16.7644 217.939 17.8638 217.939 19.0046C217.939 19.1498 217.939 19.295 217.939 19.4402C217.939 19.4696 217.938 19.4995 217.937 19.53C217.93 19.7113 217.773 19.8447 217.592 19.8447H206.683C206.476 19.8447 206.309 20.018 206.327 20.2248C206.433 21.461 206.788 22.3715 207.391 22.9561C208.055 23.5991 209.009 23.9206 210.254 23.9206C211.146 23.9206 211.913 23.7028 212.556 23.2672C213.089 22.8895 213.45 22.4975 213.642 22.0913C213.711 21.9447 213.85 21.836 214.012 21.836H217.127C217.375 21.836 217.55 22.0775 217.464 22.3095C216.843 23.9925 215.944 25.214 214.765 25.9742C213.479 26.8039 211.924 27.2187 210.098 27.2187ZM213.051 17.0445C213.279 17.0445 213.452 16.8372 213.399 16.6155C213.181 15.7048 212.838 14.9973 212.37 14.4931C211.851 13.9123 211.052 13.6219 209.974 13.6219C209.248 13.6219 208.657 13.7464 208.2 13.9953C207.744 14.2235 207.371 14.5139 207.08 14.8665C206.811 15.2191 206.614 15.5925 206.489 15.9866C206.426 16.2254 206.379 16.449 206.346 16.6574C206.314 16.8658 206.481 17.0445 206.692 17.0445H213.051Z" fill="white"/>
<path d="M220.11 11.093C220.11 10.8916 220.273 10.7283 220.475 10.7283H226.244C226.407 10.7283 226.55 10.8364 226.595 10.9932L229.832 22.3673C229.842 22.4027 229.874 22.4272 229.911 22.4272C229.948 22.4272 229.98 22.4027 229.99 22.3673L233.227 10.9932C233.272 10.8364 233.415 10.7283 233.578 10.7283H239.347C239.549 10.7283 239.712 10.8916 239.712 11.093V26.4496C239.712 26.651 239.549 26.8142 239.347 26.8142H235.907C235.706 26.8142 235.543 26.651 235.543 26.4496V14.6396C235.543 14.6102 235.519 14.5865 235.49 14.5865C235.466 14.5865 235.445 14.6023 235.438 14.6252L232.071 26.5487C232.026 26.7058 231.883 26.8142 231.72 26.8142H228.102C227.939 26.8142 227.796 26.7058 227.751 26.5487L224.384 14.6252C224.377 14.6023 224.356 14.5865 224.333 14.5865C224.303 14.5865 224.279 14.6103 224.279 14.6396V26.4496C224.279 26.651 224.116 26.8142 223.915 26.8142H220.475C220.273 26.8142 220.11 26.651 220.11 26.4496V11.093Z" fill="white"/>
<rect x="36.3525" y="34.3577" width="20.4187" height="1.6422" rx="0.5" fill="#A3D562"/>
<path fill-rule="evenodd" clip-rule="evenodd" d="M34.3457 14.4536L33.3905 16.127C32.8102 17.2513 32.6747 18.6848 33.0922 20.3339C34.3018 25.1123 39.6959 29.8919 45.1404 31.0093C48.5336 31.7057 51.1455 30.8153 52.3391 28.8886L53.4616 27.0699C52.2279 28.9193 49.6436 29.7608 46.3079 29.0761C40.8369 27.9532 35.4163 23.1503 34.2008 18.3486C33.8214 16.8498 33.8965 15.5283 34.3457 14.4536Z" fill="#225DB8"/>
<path d="M54.0133 22.4148C55.2288 27.2166 51.779 30.1989 46.308 29.076C40.837 27.9531 35.4165 23.1502 34.2009 18.3484C32.9854 13.5467 36.4351 10.5643 41.9062 11.6872C47.3772 12.8101 52.7977 17.613 54.0133 22.4148Z" fill="#69A4FE"/>
<path opacity="0.6" d="M54.0133 22.4148C55.2288 27.2166 51.779 30.1989 46.308 29.076C40.837 27.9531 35.4165 23.1502 34.2009 18.3484C32.9854 13.5467 36.4351 10.5643 41.9062 11.6872C47.3772 12.8101 52.7977 17.613 54.0133 22.4148Z" fill="url(#paint0_linear_212_253)"/>
<path fill-rule="evenodd" clip-rule="evenodd" d="M45.9696 26.9211C50.2747 27.8046 52.8434 25.4445 51.9361 21.8605C51.0288 18.2765 46.9183 14.5455 42.6132 13.6619C38.3081 12.7783 35.7395 15.1384 36.6467 18.7225C37.554 22.3065 41.6646 26.0375 45.9696 26.9211ZM46.1486 27.628C50.7652 28.5755 53.6761 26.0589 52.6504 22.0071C51.6247 17.9553 47.0508 13.9025 42.4342 12.955C37.8177 12.0074 34.9067 14.524 35.9324 18.5759C36.9581 22.6277 41.532 26.6805 46.1486 27.628Z" fill="#225DB8"/>
<path d="M45.7559 18.7675L45.4984 17.7503L41.6251 16.9553L41.7933 20.1797L43.0613 20.44C43.1575 20.3004 43.2752 20.2091 43.4147 20.1663C43.5526 20.1177 43.7471 20.1191 43.998 20.1707C44.1895 20.21 44.3653 20.2735 44.5252 20.3613C44.6852 20.4491 44.8312 20.556 44.9633 20.682C45.0954 20.808 45.2054 20.946 45.2935 21.096C45.3815 21.2459 45.4454 21.3991 45.485 21.5556C45.5231 21.7063 45.5308 21.848 45.5081 21.9807C45.4905 22.109 45.4428 22.2174 45.365 22.3058C45.2923 22.3898 45.1889 22.451 45.0546 22.4894C44.9254 22.5233 44.7684 22.5213 44.5835 22.4834C44.2665 22.4183 43.9851 22.2836 43.7393 22.0793C43.492 21.8692 43.3166 21.6216 43.2132 21.3366L41.8065 21.0479C41.8938 21.3681 42.0376 21.6641 42.2379 21.936C42.4434 22.2035 42.6855 22.4428 42.9643 22.6539C43.2432 22.8649 43.5447 23.0422 43.8691 23.1857C44.1985 23.3248 44.5317 23.4289 44.8685 23.498C45.22 23.5756 45.5377 23.5942 45.8217 23.5535C46.1042 23.5071 46.3361 23.4091 46.5174 23.2594C46.7052 23.1112 46.8347 22.9179 46.9059 22.6798C46.9757 22.4358 46.9709 22.1573 46.8917 21.8443C46.8198 21.5603 46.7027 21.2835 46.5406 21.014C46.3836 20.7399 46.1891 20.4912 45.9573 20.2678C45.732 20.0457 45.4733 19.8525 45.1813 19.6882C44.8893 19.5238 44.5715 19.4064 44.2281 19.3359C43.9507 19.279 43.7126 19.2658 43.5138 19.2964C43.3134 19.3213 43.1388 19.3981 42.9898 19.5269L42.9656 19.5054L42.893 18.1799L45.7559 18.7675Z" fill="#225DB8"/>
<path fill-rule="evenodd" clip-rule="evenodd" d="M44.5781 7.78822L44.8083 8.83452C45.0263 9.62911 45.5409 10.3977 46.3624 11.061C48.9036 13.1129 53.419 13.3809 56.4478 11.6596C58.0647 10.7407 58.9311 9.44065 59.0009 8.1161L59.0422 7.31099C58.9066 8.59866 58.0306 9.849 56.4554 10.7442C53.3701 12.4977 48.7704 12.2247 46.1817 10.1345C45.318 9.43701 44.7872 8.62535 44.5781 7.78822Z" fill="#D7785A"/>
<path d="M57.3544 3.7847C59.943 5.87489 59.5403 8.99078 56.455 10.7442C53.3696 12.4977 48.7699 12.2247 46.1813 10.1345C43.5926 8.04429 43.9953 4.92841 47.0807 3.17496C50.1661 1.42152 54.7657 1.69451 57.3544 3.7847Z" fill="#FFB39B"/>
<path fill-rule="evenodd" clip-rule="evenodd" d="M55.5351 9.92407C58.0521 8.49365 58.337 5.98482 56.2856 4.32847C54.2343 2.67213 50.5376 2.42608 48.0206 3.8565C45.5036 5.28693 45.2188 7.79576 47.2701 9.45211C49.3214 11.1085 53.0181 11.3545 55.5351 9.92407ZM55.9323 10.2448C58.6669 8.69061 59.0239 5.92888 56.7294 4.07625C54.435 2.22363 50.3581 1.98167 47.6235 3.53582C44.8888 5.08997 44.5319 7.8517 46.8263 9.70433C49.1207 11.5569 53.1976 11.7989 55.9323 10.2448Z" fill="#D7785A"/>
<path d="M54.4157 8.10847L50.4785 4.92938L49.721 5.35989C49.8441 5.49624 49.9139 5.62942 49.9302 5.75942C49.9465 5.88943 49.924 6.01573 49.8626 6.13831C49.8019 6.25534 49.7065 6.36889 49.5763 6.47898C49.4469 6.58351 49.2976 6.68124 49.1285 6.77219L49.7303 7.25814L50.9102 6.5876L53.4638 8.64947L54.4157 8.10847Z" fill="#D7785A"/>
<rect x="0.860352" y="18.0343" width="20" height="2" rx="0.5" fill="#A3D562"/>
<rect x="251.979" y="13.786" width="20" height="2" rx="0.5" transform="rotate(-10 251.979 13.786)" fill="#A3D562"/>
<rect width="14" height="2" rx="0.5" transform="matrix(0.984808 0.173648 0.173648 -0.984808 251.979 22.2827)" fill="#A3D562"/>
<rect x="8.12207" y="29.5149" width="14" height="2" rx="0.5" transform="rotate(-20 8.12207 29.5149)" fill="#A3D562"/>
<rect width="8" height="2" rx="0.5" transform="matrix(0.939693 0.34202 0.34202 -0.939693 13.3838 11.0865)" fill="#A3D562"/>
<defs>
<linearGradient id="paint0_linear_212_253" x1="41.9062" y1="11.6872" x2="38.6594" y2="27.5062" gradientUnits="userSpaceOnUse">
<stop stop-color="#38CFFF"/>
<stop offset="1" stop-color="#38CFFF" stop-opacity="0"/>
</linearGradient>
</defs>
</svg>
