<svg width="370" height="64" viewBox="0 0 370 64" fill="none" xmlns="http://www.w3.org/2000/svg">
<path d="M65.9023 19.7211C65.9023 19.3631 66.1926 19.0729 66.5506 19.0729H76.8075C77.0971 19.0729 77.3516 19.2651 77.4309 19.5437L83.1852 39.7644C83.2032 39.8274 83.2607 39.8709 83.3261 39.8709C83.3916 39.8709 83.4491 39.8274 83.4671 39.7644L89.2214 19.5437C89.3006 19.2651 89.5552 19.0729 89.8448 19.0729H100.102C100.46 19.0729 100.75 19.3631 100.75 19.7211V47.0219C100.75 47.3799 100.46 47.6701 100.102 47.6701H93.9861C93.6281 47.6701 93.3379 47.3799 93.3379 47.0219V26.0263C93.3379 25.9741 93.2956 25.9318 93.2435 25.9318C93.2012 25.9318 93.164 25.9599 93.1526 26.0006L87.1655 47.1981C87.0866 47.4773 86.8318 47.6701 86.5417 47.6701H80.1106C79.8205 47.6701 79.5657 47.4773 79.4868 47.1981L73.4997 26.0006C73.4883 25.9599 73.4511 25.9318 73.4088 25.9318C73.3567 25.9318 73.3144 25.9741 73.3144 26.0263V47.0219C73.3144 47.3799 73.0242 47.6701 72.6662 47.6701H66.5506C66.1926 47.6701 65.9023 47.3799 65.9023 47.0219V19.7211Z" fill="white"/>
<path d="M105.996 19.7211C105.996 19.3631 106.286 19.0729 106.644 19.0729H113.202C113.56 19.0729 113.851 19.3631 113.851 19.7211V28.2705C113.851 28.6285 114.141 28.9187 114.499 28.9187H121.429C122.867 28.9187 124.213 29.1216 125.467 29.5272C126.757 29.896 127.863 30.486 128.785 31.2972C129.744 32.0716 130.5 33.0488 131.053 34.2289C131.606 35.372 131.883 36.718 131.883 38.2668C131.883 39.8524 131.606 41.2353 131.053 42.4153C130.537 43.5953 129.781 44.5725 128.785 45.3469C127.827 46.1213 126.683 46.7113 125.356 47.1169C124.065 47.4857 122.646 47.6701 121.097 47.6701H106.644C106.286 47.6701 105.996 47.3799 105.996 47.0219V19.7211ZM119.216 42.2493C120.654 42.2493 121.797 41.9359 122.646 41.309C123.531 40.6821 123.973 39.668 123.973 38.2668C123.973 36.8655 123.512 35.8514 122.59 35.2245C121.668 34.5607 120.525 34.2289 119.161 34.2289H114.499C114.141 34.2289 113.851 34.5191 113.851 34.8771V41.6011C113.851 41.9591 114.141 42.2493 114.499 42.2493H119.216ZM133.961 19.7211C133.961 19.3631 134.251 19.0729 134.609 19.0729H141.112C141.47 19.0729 141.76 19.3631 141.76 19.7211V47.0219C141.76 47.3799 141.47 47.6701 141.112 47.6701H134.609C134.251 47.6701 133.961 47.3799 133.961 47.0219V19.7211Z" fill="white"/>
<path d="M160.56 48.3892C158.384 48.3892 156.411 48.0388 154.641 47.3382C152.871 46.6007 151.359 45.5866 150.106 44.2959C148.852 43.0053 147.875 41.4749 147.174 39.7049C146.473 37.898 146.123 35.9251 146.123 33.7863C146.123 31.5738 146.437 29.5272 147.063 27.6465C147.727 25.729 148.686 24.088 149.94 22.7236C151.194 21.3223 152.724 20.2345 154.531 19.4601C156.338 18.6857 158.403 18.2985 160.726 18.2985C162.422 18.2985 164.045 18.5198 165.594 18.9623C167.179 19.4048 168.58 20.087 169.797 21.0089C171.051 21.8939 172.065 23.0186 172.84 24.383C173.514 25.5719 173.937 26.9287 174.108 28.4534C174.15 28.8247 173.852 29.14 173.478 29.14H167.033C166.714 29.14 166.445 28.9065 166.376 28.5948C165.737 25.6763 163.835 24.2171 160.671 24.2171C159.417 24.2171 158.366 24.5121 157.518 25.1021C156.67 25.6552 155.969 26.3928 155.416 27.3146C154.9 28.1997 154.531 29.1953 154.31 30.3016C154.088 31.4079 153.978 32.4773 153.978 33.5098C153.978 34.5423 154.088 35.5933 154.31 36.6627C154.531 37.7321 154.881 38.7093 155.36 39.5943C155.877 40.4424 156.559 41.1431 157.407 41.6962C158.255 42.2493 159.288 42.5259 160.505 42.5259C162.385 42.5259 163.823 42.0096 164.819 40.9771C165.742 40.0214 166.355 38.7858 166.66 37.2705C166.723 36.9549 166.994 36.718 167.316 36.718H173.591C173.983 36.718 174.287 37.0648 174.219 37.4516C173.62 40.891 172.183 43.5412 169.908 45.4022C167.474 47.3935 164.358 48.3892 160.56 48.3892Z" fill="white"/>
<path d="M197.245 38.0317C197.245 37.5975 196.826 37.2843 196.407 37.396C195.756 37.5691 194.948 37.7671 193.982 37.9902C192.543 38.2852 191.05 38.4327 189.501 38.4327C185.592 38.4327 182.79 37.5292 181.093 35.7223C179.397 33.9154 178.549 31.4632 178.549 28.3656V19.7211C178.549 19.3631 178.839 19.0729 179.197 19.0729H185.7C186.058 19.0729 186.348 19.3631 186.348 19.7211V26.7615C186.348 28.8634 186.754 30.32 187.565 31.1313C188.376 31.9426 189.704 32.3482 191.548 32.3482C192.691 32.3482 193.76 32.256 194.756 32.0716C195.526 31.929 196.197 31.7864 196.769 31.6437C197.051 31.5732 197.245 31.317 197.245 31.0258V19.7211C197.245 19.3631 197.535 19.0729 197.893 19.0729H204.451C204.809 19.0729 205.1 19.3631 205.1 19.7211V47.0219C205.1 47.3799 204.809 47.6701 204.451 47.6701H197.893C197.535 47.6701 197.245 47.3799 197.245 47.0219V38.0317Z" fill="white"/>
<path d="M210.342 19.7211C210.342 19.3631 210.632 19.0729 210.99 19.0729H217.217C217.575 19.0729 217.865 19.3631 217.865 19.7211V35.9374C217.865 36.6058 218.754 36.8368 219.079 36.2529L228.466 19.4056C228.58 19.2002 228.797 19.0729 229.032 19.0729H236.908C237.266 19.0729 237.557 19.3631 237.557 19.7211V47.0219C237.557 47.3799 237.266 47.6701 236.908 47.6701H230.682C230.324 47.6701 230.034 47.3799 230.034 47.0219V30.8056C230.034 30.1371 229.145 29.9062 228.819 30.4901L219.433 47.3374C219.319 47.5428 219.102 47.6701 218.867 47.6701H210.99C210.632 47.6701 210.342 47.3799 210.342 47.0219V19.7211Z" fill="white"/>
<path d="M251.031 25.6397C251.031 25.2817 250.741 24.9915 250.383 24.9915H242.276C241.918 24.9915 241.628 24.7013 241.628 24.3433V19.7211C241.628 19.3631 241.918 19.0729 242.276 19.0729H267.641C267.999 19.0729 268.289 19.3631 268.289 19.7211V24.3433C268.289 24.7013 267.999 24.9915 267.641 24.9915H259.534C259.176 24.9915 258.886 25.2817 258.886 25.6397V47.0219C258.886 47.3799 258.596 47.6701 258.238 47.6701H251.68C251.322 47.6701 251.031 47.3799 251.031 47.0219V25.6397Z" fill="white"/>
<path d="M280.898 48.3892C279.534 48.3892 278.262 48.2232 277.082 47.8913C275.902 47.5594 274.869 47.0432 273.984 46.3426C273.099 45.6419 272.398 44.7569 271.882 43.6875C271.403 42.6181 271.163 41.3459 271.163 39.8709C271.163 38.2483 271.44 36.9208 271.993 35.8883C272.583 34.8189 273.32 33.9707 274.205 33.3438C275.127 32.7169 276.16 32.256 277.303 31.961C278.483 31.6291 279.663 31.371 280.843 31.1866C282.023 31.0022 283.185 30.8547 284.328 30.7441C285.471 30.6335 286.485 30.4675 287.37 30.2463C288.255 30.025 288.956 29.7116 289.472 29.3059C289.988 28.8634 290.228 28.2365 290.191 27.4253C290.191 26.614 290.043 25.9502 289.748 25.434C289.49 24.9177 289.122 24.5305 288.642 24.2724C288.2 23.9774 287.665 23.793 287.038 23.7193C286.448 23.6086 285.803 23.5533 285.102 23.5533C283.553 23.5533 282.336 23.8852 281.451 24.549C280.682 25.126 280.191 26.0375 279.979 27.2834C279.923 27.6128 279.647 27.8678 279.313 27.8678H272.737C272.364 27.8678 272.065 27.5524 272.109 27.1813C272.284 25.6746 272.725 24.3915 273.431 23.3321C274.242 22.0783 275.275 21.0826 276.528 20.3451C277.782 19.6076 279.184 19.0914 280.732 18.7963C282.281 18.4645 283.867 18.2985 285.489 18.2985C286.927 18.2985 288.384 18.4091 289.859 18.6304C291.334 18.8148 292.68 19.202 293.897 19.792C295.114 20.382 296.11 21.2117 296.884 22.2811C297.658 23.3505 298.046 24.7333 298.046 26.4296V41.309C298.046 42.5997 298.119 43.835 298.267 45.015C298.342 45.6206 298.447 46.1485 298.581 46.5987C298.726 47.0867 298.381 47.6701 297.872 47.6701H291.543C291.264 47.6701 291.015 47.4919 290.934 47.225C290.844 46.9309 290.762 46.6367 290.689 46.3426C290.604 45.7908 289.896 45.5212 289.457 45.8665C288.455 46.6553 287.335 47.2381 286.098 47.6148C284.401 48.131 282.668 48.3892 280.898 48.3892ZM283.83 43.1897C285.379 43.1897 286.577 42.9315 287.425 42.4153C288.273 41.899 288.9 41.2906 289.306 40.5899C289.712 39.8524 289.951 39.1149 290.025 38.3774C290.136 37.6399 290.191 37.0499 290.191 36.6073V35.0969C290.191 34.5462 289.488 34.1971 288.974 34.3948C288.495 34.5423 287.96 34.6714 287.37 34.782C286.78 34.8926 286.172 34.9848 285.545 35.0586C284.918 35.1323 284.291 35.2245 283.664 35.3351C283.037 35.4458 282.447 35.5933 281.894 35.7776C281.341 35.962 280.843 36.2201 280.4 36.552C279.995 36.847 279.663 37.2342 279.405 37.7136C279.147 38.193 279.018 38.8015 279.018 39.539C279.018 40.2765 279.147 40.8849 279.405 41.3643C279.663 41.8068 280.013 42.1756 280.456 42.4706C280.898 42.7287 281.415 42.9131 282.005 43.0237C282.595 43.1344 283.203 43.1897 283.83 43.1897Z" fill="white"/>
<path d="M316.619 48.3892C314.369 48.3892 312.341 48.0388 310.534 47.3382C308.727 46.6007 307.197 45.5682 305.943 44.2406C304.689 42.9131 303.712 41.3274 303.012 39.4837C302.348 37.6399 302.016 35.6117 302.016 33.3992C302.016 31.2604 302.366 29.2691 303.067 27.4253C303.768 25.5815 304.763 23.9958 306.054 22.6683C307.345 21.3039 308.875 20.2345 310.645 19.4601C312.452 18.6857 314.443 18.2985 316.619 18.2985C318.905 18.2985 320.915 18.7226 322.648 19.5707C324.418 20.4189 325.875 21.562 327.018 23.0002C328.198 24.4015 329.083 26.0424 329.673 27.9231C330.263 29.8038 330.558 31.7582 330.558 33.7863C330.558 34.0445 330.558 34.3026 330.558 34.5607C330.558 34.6129 330.557 34.6661 330.555 34.7203C330.543 35.0427 330.263 35.2798 329.94 35.2798H310.548C310.178 35.2798 309.882 35.5879 309.914 35.9556C310.103 38.1533 310.734 39.7718 311.806 40.8112C312.987 41.9543 314.683 42.5259 316.895 42.5259C318.481 42.5259 319.845 42.1387 320.989 41.3643C321.935 40.6927 322.578 39.9959 322.918 39.2737C323.041 39.013 323.289 38.8199 323.577 38.8199H329.115C329.554 38.8199 329.866 39.2491 329.714 39.6617C328.61 42.6536 327.01 44.8252 324.916 46.1766C322.63 47.6516 319.864 48.3892 316.619 48.3892ZM321.869 30.3016C322.274 30.3016 322.581 29.9332 322.487 29.5391C322.099 27.92 321.489 26.6623 320.657 25.7659C319.735 24.7333 318.315 24.2171 316.398 24.2171C315.107 24.2171 314.056 24.4383 313.245 24.8808C312.433 25.2865 311.77 25.8027 311.253 26.4296C310.774 27.0565 310.424 27.7203 310.202 28.4209C310.091 28.8455 310.006 29.243 309.948 29.6134C309.891 29.9839 310.188 30.3016 310.563 30.3016H321.869Z" fill="white"/>
<path d="M334.418 19.7211C334.418 19.3631 334.708 19.0729 335.066 19.0729H345.323C345.612 19.0729 345.867 19.2651 345.946 19.5437L351.701 39.7644C351.718 39.8274 351.776 39.8709 351.841 39.8709C351.907 39.8709 351.964 39.8274 351.982 39.7644L357.737 19.5437C357.816 19.2651 358.07 19.0729 358.36 19.0729H368.617C368.975 19.0729 369.265 19.3631 369.265 19.7211V47.0219C369.265 47.3799 368.975 47.6701 368.617 47.6701H362.501C362.143 47.6701 361.853 47.3799 361.853 47.0219V26.0263C361.853 25.9741 361.811 25.9318 361.759 25.9318C361.717 25.9318 361.679 25.9599 361.668 26.0006L355.681 47.1981C355.602 47.4773 355.347 47.6701 355.057 47.6701H348.626C348.336 47.6701 348.081 47.4773 348.002 47.1981L342.015 26.0006C342.004 25.9599 341.966 25.9318 341.924 25.9318C341.872 25.9318 341.83 25.9741 341.83 26.0263V47.0219C341.83 47.3799 341.54 47.6701 341.182 47.6701H335.066C334.708 47.6701 334.418 47.3799 334.418 47.0219V19.7211Z" fill="white"/>
<rect x="7.73779" y="61.0805" width="36.2998" height="2.91946" rx="0.5" fill="#A3D562"/>
<path fill-rule="evenodd" clip-rule="evenodd" d="M4.1704 25.6952L2.47234 28.67C1.44066 30.6688 1.19976 33.2172 1.94193 36.149C4.09237 44.644 13.682 53.141 23.361 55.1275C29.3934 56.3656 34.0368 54.7826 36.1587 51.3574L38.1543 48.1241C35.9611 51.412 31.3667 52.9079 25.4366 51.6908C15.7103 49.6945 6.07379 41.156 3.91284 32.6195C3.23836 29.9551 3.37186 27.6058 4.1704 25.6952Z" fill="#225DB8"/>
<path d="M39.1347 39.8485C41.2957 48.385 35.1628 53.6869 25.4365 51.6907C15.7102 49.6944 6.07371 41.156 3.91275 32.6194C1.7518 24.0829 7.8847 18.781 17.611 20.7772C27.3372 22.7735 36.9737 31.312 39.1347 39.8485Z" fill="#69A4FE"/>
<path opacity="0.6" d="M39.1347 39.8485C41.2957 48.385 35.1628 53.6869 25.4365 51.6907C15.7102 49.6944 6.07371 41.156 3.91275 32.6194C1.7518 24.0829 7.8847 18.781 17.611 20.7772C27.3372 22.7735 36.9737 31.312 39.1347 39.8485Z" fill="url(#paint0_linear_208_252)"/>
<path fill-rule="evenodd" clip-rule="evenodd" d="M24.8351 47.8594C32.4886 49.4302 37.0551 45.2344 35.4422 38.8628C33.8292 32.4912 26.5216 25.8584 18.8681 24.2876C11.2146 22.7167 6.64814 26.9125 8.26107 33.2841C9.87399 39.6557 17.1817 46.2886 24.8351 47.8594ZM25.1533 49.1162C33.3605 50.8006 38.5356 46.3268 36.7121 39.1235C34.8887 31.9202 26.7572 24.7152 18.55 23.0308C10.3427 21.3463 5.16766 25.8202 6.99112 33.0235C8.81457 40.2268 16.946 47.4317 25.1533 49.1162Z" fill="#225DB8"/>
<path d="M24.4551 33.3647L23.9973 31.5563L17.1114 30.143L17.4105 35.8754L19.6647 36.338C19.8356 36.0898 20.045 35.9276 20.2928 35.8515C20.5381 35.7651 20.8838 35.7676 21.3299 35.8592C21.6704 35.9291 21.9828 36.042 22.2672 36.1981C22.5516 36.3542 22.8112 36.5442 23.046 36.7682C23.2808 36.9923 23.4765 37.2376 23.633 37.5042C23.7895 37.7708 23.903 38.0432 23.9734 38.3214C24.0413 38.5893 24.0549 38.8412 24.0145 39.0771C23.9832 39.3052 23.8984 39.4978 23.7601 39.655C23.6309 39.8044 23.447 39.9132 23.2082 39.9814C22.9786 40.0417 22.6995 40.0382 22.3707 39.9707C21.8072 39.855 21.3069 39.6156 20.8699 39.2523C20.4303 38.8788 20.1185 38.4387 19.9346 37.9321L17.4339 37.4188C17.5891 37.988 17.8447 38.5142 18.2008 38.9976C18.5661 39.4731 18.9966 39.8985 19.4923 40.2738C19.988 40.649 20.5241 40.9642 21.1007 41.2193C21.6864 41.4666 22.2787 41.6516 22.8774 41.7745C23.5023 41.9125 24.0672 41.9454 24.572 41.8732C25.0743 41.7907 25.4865 41.6164 25.8087 41.3504C26.1427 41.0868 26.373 40.7433 26.4995 40.3199C26.6235 39.8862 26.615 39.3911 26.4742 38.8346C26.3464 38.3297 26.1383 37.8376 25.85 37.3584C25.5709 36.8713 25.2252 36.4291 24.813 36.0319C24.4125 35.6371 23.9527 35.2936 23.4335 35.0014C22.9143 34.7092 22.3495 34.5005 21.739 34.3752C21.2459 34.274 20.8226 34.2506 20.469 34.3051C20.1129 34.3492 19.8024 34.4857 19.5376 34.7147L19.4945 34.6765L19.3655 32.3201L24.4551 33.3647Z" fill="#225DB8"/>
<path fill-rule="evenodd" clip-rule="evenodd" d="M22.3608 13.8455L22.7701 15.7056C23.1576 17.1182 24.0724 18.4846 25.5329 19.6639C30.0506 23.3117 38.0779 23.7881 43.4625 20.728C46.3369 19.0944 47.8772 16.7832 48.0013 14.4284L48.0748 12.9971C47.8337 15.2863 46.2764 17.5091 43.476 19.1006C37.9909 22.2179 29.8137 21.7326 25.2117 18.0167C23.6761 16.7767 22.7326 15.3338 22.3608 13.8455Z" fill="#D7785A"/>
<path d="M45.0754 6.72821C49.6774 10.4441 48.9615 15.9835 43.4764 19.1007C37.9913 22.2179 29.8141 21.7326 25.2121 18.0167C20.6101 14.3008 21.3259 8.76146 26.811 5.64423C32.2961 2.52699 40.4734 3.01231 45.0754 6.72821Z" fill="#FFB39B"/>
<path fill-rule="evenodd" clip-rule="evenodd" d="M41.8396 17.6427C46.3142 15.0997 46.8207 10.6395 43.1739 7.69492C39.5271 4.75031 32.9552 4.31289 28.4806 6.85586C24.0059 9.39884 23.4995 13.859 27.1463 16.8036C30.7931 19.7482 37.365 20.1856 41.8396 17.6427ZM42.5457 18.2128C47.4073 15.4498 48.0419 10.5401 43.9629 7.24653C39.884 3.95297 32.6362 3.52282 27.7745 6.28575C22.9128 9.04868 22.2783 13.9584 26.3573 17.252C30.4362 20.5455 37.684 20.9757 42.5457 18.2128Z" fill="#D7785A"/>
<path d="M39.8499 14.4154L32.8505 8.76366L31.5037 9.52902C31.7227 9.77142 31.8467 10.0082 31.8757 10.2393C31.9048 10.4704 31.8647 10.695 31.7556 10.9129C31.6477 11.1209 31.478 11.3228 31.2466 11.5185C31.0165 11.7043 30.7511 11.8781 30.4504 12.0398L31.5204 12.9037L33.6179 11.7116L38.1576 15.3772L39.8499 14.4154Z" fill="#D7785A"/>
<defs>
<linearGradient id="paint0_linear_208_252" x1="17.611" y1="20.7772" x2="11.839" y2="48.8999" gradientUnits="userSpaceOnUse">
<stop stop-color="#38CFFF"/>
<stop offset="1" stop-color="#38CFFF" stop-opacity="0"/>
</linearGradient>
</defs>
</svg>
