<svg width="93" height="93" viewBox="0 0 93 93" fill="none" xmlns="http://www.w3.org/2000/svg">
<ellipse cx="47" cy="47" rx="46" ry="46" transform="rotate(-90 47 47)" fill="url(#paint0_linear_3842_73201)" fill-opacity="0.6"/>
<path d="M51.416 40.0968H21.4346C22.302 39.5239 23.4309 38.8828 24.8479 38.1743C24.8483 38.174 24.8488 38.1738 24.8492 38.1736L42.7297 29.3437C42.73 29.3436 42.7302 29.3435 42.7305 29.3434C45.8487 27.8213 48.209 26.2168 49.7861 24.1974C51.3751 22.1626 52.1368 19.7487 52.1368 16.6768C52.1368 11.3593 49.9193 7.27669 45.5632 4.55056C41.2431 1.84692 34.8583 0.5 26.5392 0.5C18.4038 0.5 12.3481 1.86493 8.20838 4.95072C4.04377 8.05508 1.90588 12.8328 1.45795 19.4398L1.42175 19.9736H1.9568H17.2656H17.7152L17.7628 19.5265C17.9277 17.9759 18.738 16.8081 20.2508 16.0053C21.793 15.1867 24.0717 14.748 27.128 14.748C29.873 14.748 31.8834 14.9877 33.1908 15.4466C33.8421 15.6752 34.2836 15.9462 34.5579 16.2369C34.8213 16.5159 34.9448 16.8264 34.9448 17.192C34.9448 17.961 34.4656 18.7074 33.2235 19.3997L13.2135 29.4783L13.2135 29.4782L13.2101 29.48C8.98841 31.6469 5.8046 34.4072 3.67808 37.7623C1.5506 41.119 0.5 45.0419 0.5 49.5024V53.8448V54.3448H1H51.416H51.916V53.8448V40.5968V40.0968H51.416Z" fill="white" stroke="white"/>
<defs>
<linearGradient id="paint0_linear_3842_73201" x1="-14.3334" y1="72.9487" x2="30.117" y2="-1.70266" gradientUnits="userSpaceOnUse">
<stop offset="0.0201182" stop-color="#3793AA" stop-opacity="0"/>
<stop offset="0.371992" stop-color="#3793AA" stop-opacity="0.1"/>
<stop offset="1" stop-color="#3DB5D3"/>
</linearGradient>
</defs>
</svg>
