<svg width="65" height="65" viewBox="0 0 65 65" fill="none" xmlns="http://www.w3.org/2000/svg">
<ellipse cx="33" cy="33" rx="32" ry="32" transform="rotate(-90 33 33)" fill="url(#paint0_linear_3842_74688)" fill-opacity="0.6"/>
<path d="M36.072 28.0456H15.7394C16.264 27.7251 16.9004 27.3752 17.658 26.9964C17.6583 26.9963 17.6585 26.9962 17.6588 26.996L30.0961 20.8541C30.0964 20.854 30.0967 20.8538 30.097 20.8537C32.2744 19.7909 33.9402 18.6623 35.0581 17.231C36.1879 15.7842 36.7256 14.0703 36.7256 11.9056C36.7256 8.15608 35.1577 5.26629 32.0812 3.34096C29.0407 1.43812 24.5655 0.5 18.7664 0.5C13.095 0.5 8.84248 1.45053 5.92358 3.62632C2.97977 5.82068 1.48028 9.19276 1.16675 13.8174L1.13055 14.3512H1.6656H12.3152H12.7648L12.8124 13.9041C12.9213 12.8799 13.4516 12.1097 14.4632 11.5729C15.5042 11.0203 17.0605 10.716 19.176 10.716C21.081 10.716 22.4586 10.8829 23.3432 11.1934C23.7831 11.3478 24.0657 11.5257 24.234 11.704C24.3913 11.8707 24.4616 12.0496 24.4616 12.264C24.4616 12.7197 24.1836 13.1972 23.345 13.6653L9.42788 20.6751L9.42787 20.675L9.42448 20.6768C6.46842 22.1941 4.231 24.1312 2.73448 26.4923C1.237 28.855 0.5 31.6131 0.5 34.7408V37.7616V38.2616H1H36.072H36.572V37.7616V28.5456V28.0456H36.072Z" fill="white" stroke="white"/>
<defs>
<linearGradient id="paint0_linear_3842_74688" x1="-9.66668" y1="51.0513" x2="21.2553" y2="-0.880111" gradientUnits="userSpaceOnUse">
<stop offset="0.0201182" stop-color="#3793AA" stop-opacity="0"/>
<stop offset="0.371992" stop-color="#3793AA" stop-opacity="0.1"/>
<stop offset="1" stop-color="#3DB5D3"/>
</linearGradient>
</defs>
</svg>
