<svg width="12" height="10" viewBox="0 0 12 10" fill="none" xmlns="http://www.w3.org/2000/svg">
<path fill-rule="evenodd" clip-rule="evenodd" d="M4.63944 0.973094C4.89979 0.712745 5.3219 0.712745 5.58224 0.973094C5.84259 1.23344 5.84259 1.65555 5.58224 1.9159L3.16476 4.33338H10.4442C10.8124 4.33338 11.1108 4.63186 11.1108 5.00005C11.1108 5.36824 10.8124 5.66672 10.4442 5.66672H3.16476L5.58224 8.08421C5.84259 8.34455 5.84259 8.76667 5.58224 9.02701C5.3219 9.28736 4.89979 9.28736 4.63944 9.02701L1.08388 5.47146C0.953705 5.34128 0.888618 5.17067 0.888618 5.00005C0.888618 4.90894 0.906896 4.8221 0.939984 4.74299C0.970987 4.6687 1.01603 4.59889 1.0751 4.5376C1.07834 4.53423 1.08163 4.53089 1.08494 4.52759L4.63944 0.973094Z" fill="#CACCDF"/>
</svg>
