<svg width="72" height="72" viewBox="0 0 72 72" fill="none" xmlns="http://www.w3.org/2000/svg">
<path d="M41.4546 0L46.7199 10.8954L56.7274 4.09232L55.8395 16.1606L67.9078 15.2727L61.1047 25.2802L72.0001 30.5455L61.1047 35.8107L67.9078 45.8182L55.8395 44.9303L56.7274 56.9986L46.7199 50.1955L41.4546 61.0909L36.1894 50.1955L26.1819 56.9986L27.0698 44.9303L15.0015 45.8182L21.8045 35.8107L10.9092 30.5455L21.8045 25.2802L15.0015 15.2727L27.0698 16.1606L26.1819 4.09232L36.1894 10.8954L41.4546 0Z" fill="url(#paint0_linear_276_8952)"/>
<g filter="url(#filter0_bi_276_8952)">
<path d="M30.5455 10.9092L35.8107 21.8045L45.8182 15.0015L44.9303 27.0698L56.9986 26.1819L50.1955 36.1894L61.0909 41.4546L50.1955 46.7199L56.9986 56.7274L44.9303 55.8395L45.8182 67.9078L35.8107 61.1047L30.5455 72.0001L25.2802 61.1047L15.2727 67.9078L16.1606 55.8395L4.09232 56.7274L10.8954 46.7199L0 41.4546L10.8954 36.1894L4.09232 26.1819L16.1606 27.0698L15.2727 15.0015L25.2802 21.8045L30.5455 10.9092Z" fill="#3DB5D3" fill-opacity="0.2"/>
<path d="M35.9512 22.0113L45.5309 15.4991L44.681 27.0514L44.6597 27.3403L44.9487 27.3191L56.501 26.4692L49.9888 36.0489L49.8259 36.2884L50.0868 36.4145L60.5163 41.4546L50.0868 46.4948L49.8259 46.6208L49.9888 46.8604L56.501 56.4401L44.9487 55.5902L44.6597 55.5689L44.681 55.8578L45.5309 67.4102L35.9512 60.898L35.7116 60.7351L35.5856 60.996L30.5455 71.4255L25.5053 60.996L25.3793 60.7351L25.1397 60.898L15.56 67.4102L16.4099 55.8578L16.4312 55.5689L16.1422 55.5902L4.5899 56.4401L11.1021 46.8604L11.265 46.6208L11.0041 46.4948L0.574566 41.4546L11.0041 36.4145L11.265 36.2884L11.1021 36.0489L4.5899 26.4692L16.1422 27.3191L16.4312 27.3403L16.4099 27.0514L15.56 15.4991L25.1397 22.0113L25.3793 22.1742L25.5053 21.9133L30.5455 11.4837L35.5856 21.9133L35.7116 22.1742L35.9512 22.0113Z" stroke="white" stroke-opacity="0.37" stroke-width="0.5"/>
</g>
<defs>
<filter id="filter0_bi_276_8952" x="-8" y="2.90918" width="77.0908" height="77.0908" filterUnits="userSpaceOnUse" color-interpolation-filters="sRGB">
<feFlood flood-opacity="0" result="BackgroundImageFix"/>
<feGaussianBlur in="BackgroundImage" stdDeviation="4"/>
<feComposite in2="SourceAlpha" operator="in" result="effect1_backgroundBlur_276_8952"/>
<feBlend mode="normal" in="SourceGraphic" in2="effect1_backgroundBlur_276_8952" result="shape"/>
<feColorMatrix in="SourceAlpha" type="matrix" values="0 0 0 0 0 0 0 0 0 0 0 0 0 0 0 0 0 0 127 0" result="hardAlpha"/>
<feOffset dx="-0.5" dy="0.5"/>
<feGaussianBlur stdDeviation="0.5"/>
<feComposite in2="hardAlpha" operator="arithmetic" k2="-1" k3="1"/>
<feColorMatrix type="matrix" values="0 0 0 0 1 0 0 0 0 1 0 0 0 0 1 0 0 0 0.15 0"/>
<feBlend mode="normal" in2="shape" result="effect2_innerShadow_276_8952"/>
</filter>
<linearGradient id="paint0_linear_276_8952" x1="136.355" y1="16.9608" x2="103.582" y2="83.9578" gradientUnits="userSpaceOnUse">
<stop stop-color="#3DB7D3" stop-opacity="0"/>
<stop offset="0.164476" stop-color="#3DB5D3" stop-opacity="0.1"/>
<stop offset="1" stop-color="#3DB5D3"/>
</linearGradient>
</defs>
</svg>
