<svg width="213" height="214" fill="none" xmlns="http://www.w3.org/2000/svg"><path d="M6.973 66.343l-.035.533h61.688l.097-.373c1.392-5.286 5.216-9.286 11.591-11.978 6.392-2.699 15.316-4.065 26.806-4.065 11.789 0 20.564 1.224 26.374 3.669 2.9 1.22 5.034 2.733 6.443 4.524 1.403 1.783 2.107 3.869 2.107 6.283 0 4.421-3.254 7.828-10.206 10.146-6.942 2.314-17.388 3.466-31.342 3.466H72.924v49.96h27.572c15.681 0 27.42 1.368 35.222 4.112 3.899 1.37 6.779 3.073 8.681 5.087 1.891 2.002 2.829 4.329 2.829 7.005 0 3.146-.837 5.868-2.495 8.192-1.661 2.329-4.167 4.287-7.548 5.863-6.776 3.157-16.984 4.741-30.641 4.741-12.642 0-22.43-1.51-29.432-4.496-6.986-2.979-11.172-7.41-12.708-13.275l-.098-.373H1.463l.038.535c1.595 22.466 11.32 39.392 29.212 50.68 17.863 11.268 43.821 16.889 77.847 16.889 34.159 0 59.894-4.826 77.106-14.537 17.253-9.734 25.922-24.37 25.922-43.851 0-13.357-4.141-24.505-12.273-32.892-8.052-8.305-19.974-13.859-35.535-16.211v-6.398c14.687-4.458 25.392-10.075 32.44-17.376 7.121-7.377 10.472-16.435 10.472-27.635 0-17.622-8.465-31.172-24.736-40.288C165.72 5.183 141.716.5 110.576.5 77.558.5 52.391 5.977 35.104 16.958c-17.318 11-26.681 27.496-28.13 49.385z" fill="#fff" stroke="#fff"/></svg>