<svg width="201" height="209" fill="none" xmlns="http://www.w3.org/2000/svg"><path d="M76.422 155.444H198.78v52.84H.5v-17.492c0-17.217 4.052-32.289 12.21-45.16 8.156-12.869 20.398-23.508 36.734-31.893l.003-.002 78.327-39.451c5.102-2.837 7.51-6.156 7.51-9.926 0-1.813-.633-3.383-1.911-4.737-1.289-1.366-3.252-2.528-5.927-3.467-5.354-1.88-13.421-2.816-24.206-2.816-12.061 0-21.254 1.725-27.594 5.09-6.31 3.349-9.8 8.322-10.5 14.91l-.048.448H4.209l.036-.534c1.734-25.581 9.983-43.813 25.832-55.627C45.902 5.831 69.217.5 100.936.5c32.439 0 57.101 5.26 73.669 15.628 16.604 10.391 25.039 25.89 25.039 46.216 0 11.755-2.906 20.869-8.89 28.532-5.972 7.647-14.978 13.807-27.101 19.724h0l-87.23 44.844zm0 0c3.747-2.94 9.418-6.369 17.25-10.285l69.979-34.558-87.229 44.843z" fill="#fff" stroke="#fff"/></svg>