<svg width="705" height="300" viewBox="0 0 705 300" fill="none" xmlns="http://www.w3.org/2000/svg">
<g clip-path="url(#clip0_225_248)">
<path d="M168.934 173.991C168.246 163.363 153.967 158.699 145.269 163.975V159.311H141.657V163.975C132.94 158.641 118.718 163.363 118.011 173.991C116.959 186.779 131.64 191.042 141.657 186.053C141.657 186.053 141.657 196.509 139.573 200.829C141.848 200.829 145.48 200.829 147.315 200.829C145.002 196.567 145.212 186.053 145.212 186.053C155.286 191.08 169.948 186.818 168.934 173.991ZM141.657 182.574C136.285 188.309 123.707 186.665 121.796 178.56C118.871 166.746 132.099 160.075 141.657 167.396V182.574ZM165.111 178.56C163.2 186.665 150.603 188.29 145.231 182.574V167.396C154.77 160.075 168.036 166.746 165.111 178.56Z" fill="white"/>
<path d="M143.414 204.366C136.15 193.891 135.902 169.06 127.338 156.788H121.603C128.504 163.574 127.644 198.536 117.991 202.665L126.707 202.531C129.479 193.336 129.651 169.27 128.409 162.618C134.87 177.222 134.449 195.821 143.491 209.623L143.414 204.366Z" fill="white"/>
<path d="M143.414 204.366C150.678 193.891 150.927 169.06 159.49 156.788H165.225C158.324 163.574 159.223 198.536 168.857 202.665L160.274 202.455C157.502 193.26 157.311 169.194 158.573 162.541C152.112 177.146 152.532 195.745 143.472 209.546V204.366H143.414Z" fill="white"/>
<path d="M144.237 9.27237C144.871 9.29017 145.502 9.18161 146.093 8.95302C146.685 8.72443 147.225 8.38038 147.682 7.94092C148.139 7.50146 148.505 6.97539 148.756 6.39336C149.008 5.81133 149.142 5.18499 149.149 4.55084C149.072 3.31826 148.528 2.16153 147.627 1.31608C146.727 0.470623 145.538 0 144.303 0C143.068 0 141.88 0.470623 140.98 1.31608C140.079 2.16153 139.535 3.31826 139.458 4.55084C139.478 5.80674 139.989 7.00473 140.883 7.88752C141.776 8.77032 142.981 9.26752 144.237 9.27237Z" fill="white"/>
<path d="M110.229 35.2693C110.795 35.2617 111.347 35.0874 111.815 34.7682C112.284 34.4489 112.648 33.9989 112.862 33.4741C113.076 32.9494 113.131 32.3732 113.02 31.8174C112.909 31.2616 112.637 30.7509 112.237 30.3488C111.838 29.9467 111.329 29.6711 110.774 29.5564C110.219 29.4417 109.642 29.493 109.116 29.7038C108.59 29.9146 108.138 30.2756 107.815 30.7418C107.493 31.2081 107.315 31.7589 107.304 32.3255C107.301 32.7112 107.375 33.0936 107.521 33.4506C107.667 33.8077 107.882 34.1324 108.154 34.406C108.425 34.6796 108.749 34.8967 109.105 35.0449C109.461 35.1931 109.843 35.2693 110.229 35.2693Z" fill="white"/>
<path d="M229.088 43.3369C229.203 41.1769 231.955 35.8054 228.476 34.7923C215.459 31.0839 211.272 29.5355 202.613 20.685C201.906 19.9787 201.05 19.4403 200.107 19.1094C199.164 18.7785 198.159 18.6637 197.165 18.7735C193.82 19.194 191.431 22.004 192.386 24.3934C193.004 25.9505 193.725 27.464 194.546 28.9238C194.661 28.9238 206.13 49.5494 186.594 53.6211V52.5888C186.609 52.0374 186.819 51.5091 187.187 51.0978C188.161 50.1174 189.027 49.0343 189.768 47.8673C190.429 46.8187 190.816 45.6209 190.893 44.3837C190.971 43.1465 190.736 41.9097 190.211 40.7868C189.686 39.664 188.887 38.6912 187.887 37.9577C186.888 37.2242 185.72 36.7536 184.492 36.5891C183.906 36.461 183.312 36.3779 182.714 36.3406C182.497 39.3041 181.853 42.2206 180.802 45C180.382 45.841 179.904 45.841 179.235 45.841H177.151C176.425 45.841 176.023 45.841 175.603 45C174.581 42.212 173.938 39.2996 173.691 36.3406C173.087 36.3766 172.486 36.4597 171.895 36.5891C170.668 36.7564 169.502 37.229 168.505 37.9636C167.508 38.6982 166.712 39.6714 166.189 40.7938C165.665 41.9162 165.432 43.152 165.511 44.3878C165.589 45.6237 165.977 46.8201 166.638 47.8673C167.355 49.0455 168.216 50.1306 169.199 51.0978C169.393 51.2942 169.545 51.5273 169.646 51.7834C169.748 52.0395 169.798 52.3133 169.792 52.5888V53.3534C161.61 52.8756 158.093 43.7957 158.208 41.1004V37.8316C158.218 36.916 158.581 36.0396 159.221 35.3849C160.817 33.7457 162.239 31.9456 163.465 30.0134C164.568 28.2735 165.215 26.2833 165.346 24.2271C165.476 22.1709 165.086 20.1149 164.211 18.2494C163.337 16.3839 162.006 14.7691 160.342 13.5543C158.677 12.3395 156.734 11.5639 154.691 11.2993C153.785 11.1027 152.864 10.9812 151.938 10.9361C151.938 10.9361 150.925 20.3218 148.459 25.2728C147.809 26.6491 147.025 26.6491 145.897 26.6491H142.552C141.424 26.6491 140.641 26.6491 139.991 25.2728C137.601 20.3218 136.512 10.9361 136.512 10.9361C135.618 10.9864 134.729 11.1078 133.855 11.2993C131.831 11.5829 129.909 12.3675 128.265 13.582C126.621 14.7965 125.307 16.4023 124.441 18.2537C123.575 20.1051 123.185 22.1435 123.307 24.1838C123.429 26.2241 124.058 28.2016 125.138 29.9369C126.36 31.8718 127.782 33.6723 129.382 35.3084C130.022 35.9631 130.385 36.8396 130.395 37.7552V40.9284C130.395 43.5663 126.935 52.7035 118.811 53.1814V52.455C118.826 51.9036 119.036 51.3753 119.403 50.964C120.37 49.9816 121.229 48.8986 121.965 47.7335C122.609 46.6841 122.981 45.4905 123.047 44.2609C123.114 43.0313 122.872 41.8047 122.344 40.6921C121.816 39.5796 121.019 38.6164 120.025 37.8899C119.031 37.1634 117.871 36.6966 116.651 36.5318C116.059 36.4024 115.458 36.3193 114.854 36.2833C114.637 39.2467 113.993 42.1633 112.942 44.9426C112.823 45.2418 112.603 45.4897 112.32 45.6434C112.037 45.7971 111.71 45.8467 111.394 45.7837H109.272C108.546 45.7837 108.125 45.7837 107.705 44.9426C106.683 42.1547 106.04 39.2423 105.793 36.2833C105.195 36.3205 104.601 36.4036 104.015 36.5318C102.787 36.6963 101.619 37.1669 100.62 37.9003C99.6205 38.6338 98.8215 39.6067 98.2962 40.7295C97.771 41.8523 97.5363 43.0891 97.6137 44.3263C97.6912 45.5635 98.0783 46.7614 98.7395 47.8099C99.468 48.9963 100.348 50.0823 101.358 51.0405C101.552 51.2369 101.704 51.47 101.805 51.726C101.907 51.9821 101.957 52.256 101.951 52.5315V53.5637C82.2428 49.5303 93.7121 28.7518 93.9033 28.8091C94.7244 27.3494 95.4461 25.8358 96.0633 24.2788C97.0191 21.8893 94.6297 19.0793 91.2844 18.6588C90.2909 18.5448 89.2845 18.6576 88.3409 18.9887C87.3973 19.3198 86.541 19.8606 85.8365 20.5703C77.1772 29.4782 72.9909 30.9692 60.0306 34.6776C56.5707 35.6907 59.2468 41.0622 59.438 43.2222C59.6674 47.3512 59.9159 49.0716 47.5482 56.8516C62.1715 54.5768 66.6637 53.8504 68.8046 65.5109C71.4544 62.0125 72.8846 57.7421 72.8762 53.3534C72.9587 48.7504 71.506 44.2509 68.7473 40.5652C68.7473 40.5652 68.7473 40.5652 68.7473 40.4505C68.3372 39.8519 68.0601 39.1726 67.9343 38.4581C67.8086 37.7436 67.8372 37.0104 68.0183 36.3079C68.1994 35.6053 68.5287 34.9497 68.9841 34.3849C69.4396 33.8202 70.0106 33.3594 70.6588 33.0337C77.9036 29.5164 90.558 23.2465 89.1244 29.7458C88.0527 33.7015 87.5317 37.7861 87.576 41.8841C87.8245 45.4014 88.1686 47.982 90.0802 50.1803C91.6106 51.7371 93.4797 52.9196 95.542 53.6358C97.6043 54.352 99.8041 54.5824 101.97 54.3092H114.949C116.078 54.4748 117.224 54.4748 118.352 54.3092H118.773C122.768 53.6593 129.171 50.8493 135.193 40.9284H153.486C159.527 50.9067 165.911 53.7166 169.926 54.3092H170.346C171.475 54.4721 172.62 54.4721 173.749 54.3092H186.709C188.875 54.5795 191.074 54.3476 193.136 53.6316C195.197 52.9156 197.067 51.7347 198.599 50.1803C200.51 47.982 200.874 45.4014 201.103 41.8841C201.153 37.8046 200.632 33.7383 199.555 29.8031C198.121 23.3039 210.795 29.5737 218.02 33.091C218.675 33.4095 219.254 33.8666 219.715 34.4307C220.176 34.9947 220.508 35.6522 220.69 36.3576C220.872 37.063 220.898 37.7995 220.767 38.5161C220.637 39.2327 220.351 39.9123 219.932 40.5078C219.932 40.5078 219.932 40.5078 219.932 40.6225C217.201 44.2997 215.757 48.7736 215.822 53.3534C215.833 57.7535 217.253 62.0343 219.874 65.5682C222.035 53.9078 226.508 54.6342 241.15 56.9089C228.534 49.1863 228.84 47.4659 229.088 43.3369Z" fill="white"/>
<path d="M178.166 35.2693C178.733 35.2617 179.285 35.0874 179.753 34.7682C180.221 34.4489 180.585 33.9989 180.799 33.4741C181.014 32.9494 181.069 32.3732 180.958 31.8174C180.846 31.2616 180.574 30.7509 180.175 30.3488C179.775 29.9467 179.266 29.6711 178.711 29.5564C178.156 29.4417 177.58 29.493 177.054 29.7038C176.527 29.9146 176.075 30.2756 175.753 30.7418C175.43 31.2081 175.253 31.7589 175.241 32.3255C175.236 32.7119 175.308 33.0954 175.453 33.4536C175.598 33.8118 175.813 34.1375 176.085 34.4117C176.358 34.6858 176.682 34.9028 177.039 35.0501C177.396 35.1974 177.779 35.2719 178.166 35.2693Z" fill="white"/>
<path d="M78.6135 82.7327C87.636 81.0505 103.578 86.5558 110.345 92.1184C124.3 103.473 127.186 126.354 113.614 145.107H173.254C159.702 126.354 162.684 103.473 176.542 92.1184C183.367 86.5558 199.251 81.0505 208.274 82.7327C208.58 82.7327 214.314 63.3687 177.211 63.3687H154.273C154.273 63.3687 165.455 73.0985 159.166 82.9047C146.856 98.675 144.065 111.769 143.511 126.24C142.918 111.769 140.165 98.675 127.855 82.9047C121.643 73.1749 132.768 63.3687 132.768 63.3687H109.829C72.6877 63.3687 78.3077 82.79 78.6135 82.7327Z" fill="white"/>
<path d="M47.1098 192.571C55.5398 191.328 69.7044 186.358 83.6204 175.367C83.6204 175.367 75.9743 190.487 43.4779 204.231C56.5529 208.589 66.5312 205.302 72.6864 201.23C80.2179 196.031 83.8116 193.584 96.3514 180.203C90.2535 191.5 86.7936 198.248 68.5001 212.47C68.5001 212.47 77.3506 215.643 89.0684 209.545C91.8133 208.177 94.2096 206.2 96.0747 203.765C97.9397 201.33 99.2243 198.502 99.8304 195.495C101.073 187.849 110.688 187.677 111.166 196.164C111.166 196.164 111.166 159.711 111.166 149.905C101.073 161.909 87.3862 155.525 84.4042 146.082C84.4042 146.082 81.059 134.02 92.0504 128.209C92.0504 128.209 96.122 126.297 90.9799 123.43C90.9799 123.43 43.6499 91.6981 23.0243 41.2332C23.0243 41.2332 9.41408 64.9556 24.4006 85.9253C37.1316 102.307 48.7347 114.599 59.6687 122.551C59.6687 122.551 39.8842 122.856 6.71879 83.3638C6.71879 83.3638 -0.143673 104.926 16.2765 118.02C28.6658 128.772 43.8273 135.826 60.0319 138.378C60.0319 138.378 29.3133 146.502 0.0474813 116.988C0.0474813 116.988 -1.86407 139.563 18.5704 148.108C26.771 151.587 41.7002 155.41 63.8168 154.263C63.8168 154.263 37.0551 166.822 1.36645 151.644C3.278 167.778 17.6146 174.162 29.3324 173.742C43.7927 173.995 58.1993 171.917 71.9982 167.587C71.9982 167.587 53.7047 181.751 16.5633 183.854C26.618 195.686 41.0311 193.469 47.1098 192.571Z" fill="white"/>
<path d="M222.972 154.206C245.146 155.334 260.018 151.511 268.218 148.051C288.691 139.507 286.78 116.912 286.78 116.912C257.552 146.369 226.833 138.302 226.833 138.302C243.06 135.755 258.243 128.694 270.646 117.925C287.124 104.85 280.204 83.2688 280.204 83.2688C247.038 122.761 227.254 122.475 227.254 122.475C238.207 114.523 249.81 102.212 262.541 85.8493C277.528 64.8223 263.917 41.1573 263.917 41.1573C243.292 91.5266 195.962 123.354 195.962 123.354C190.82 126.279 194.891 128.133 194.891 128.133C205.825 133.868 202.538 145.987 202.538 145.987C199.613 155.43 186.156 161.776 176.063 150.173V194.234C177.745 187.716 185.984 188.385 187.111 195.439C187.708 198.446 188.989 201.277 190.855 203.71C192.722 206.143 195.123 208.114 197.873 209.469C209.591 215.567 218.423 212.394 218.423 212.394C200.148 198.115 196.688 191.367 190.59 180.127C203.073 193.508 206.667 195.974 214.255 201.154C220.411 205.207 230.389 208.494 243.464 204.136C210.968 190.392 203.321 175.272 203.321 175.272C217.257 186.263 231.345 191.233 239.832 192.476C245.987 193.431 260.343 195.649 270.417 183.816C233.199 181.733 214.982 167.568 214.982 167.568C228.739 171.885 243.096 173.982 257.514 173.781C269.174 174.201 283.568 167.74 285.365 151.607C249.696 166.804 222.972 154.206 222.972 154.206Z" fill="white"/>
<path d="M220.296 234.644C221.229 234.644 222.142 234.367 222.919 233.849C223.695 233.33 224.3 232.592 224.658 231.73C225.015 230.867 225.109 229.917 224.926 229.002C224.744 228.086 224.294 227.244 223.634 226.584C222.974 225.924 222.133 225.474 221.217 225.292C220.301 225.11 219.351 225.203 218.489 225.561C217.626 225.918 216.889 226.523 216.37 227.3C215.851 228.076 215.574 228.989 215.574 229.923C215.574 231.175 216.071 232.376 216.957 233.261C217.842 234.147 219.043 234.644 220.296 234.644Z" fill="white"/>
<path d="M229.148 237.607C228.041 238.864 226.679 239.87 225.153 240.559C223.627 241.249 221.972 241.606 220.297 241.606C218.623 241.606 216.967 241.249 215.441 240.559C213.915 239.87 212.554 238.864 211.447 237.607C208.984 239.474 207.165 242.063 206.243 245.014C205.321 247.964 205.343 251.128 206.305 254.065C196.403 251.103 185.278 247.585 191.911 236.498C201.469 219.008 183.481 207.519 176.141 207.577C179.333 234.95 145.67 207.577 143.644 231.605C141.599 207.577 108.013 234.854 111.148 207.634C105.413 208.723 89.8149 213.502 93.2748 232.083C95.3393 237.473 100.73 246.553 91.65 250.128C76.3576 258.041 79.7028 248.637 68.7114 250.778L44.6259 226.883C44.8144 225.611 44.5701 224.313 43.9323 223.197C43.2944 222.081 42.3 221.211 41.1086 220.728C41.9436 218.771 42.1732 216.609 41.7677 214.52C41.3622 212.432 40.3404 210.513 38.8339 209.01L34.7814 213.139C29.5246 208.838 22.0504 216.159 26.1603 221.493L21.9931 225.679C23.5114 227.199 25.454 228.225 27.5659 228.62C29.6777 229.016 31.8599 228.764 33.8256 227.896C34.2856 229.113 35.1454 230.136 36.2638 230.8C37.3822 231.463 38.6929 231.727 39.9808 231.547L64.0472 255.499C63.4721 257.002 63.3447 258.64 63.6802 260.214C64.0158 261.789 64.8 263.232 65.9382 264.37C67.0763 265.508 68.5197 266.293 70.0939 266.628C71.6682 266.964 73.3059 266.836 74.8092 266.261C76.3194 267.332 80.7351 273.257 82.876 272.894C90.7325 271.403 82.2834 264.197 79.7028 261.845C85.0743 253.683 103.559 258.233 104.687 252.46C101.533 249.42 97.27 232.771 114.359 229.751C118.947 229.215 133.226 231.127 130.034 244.508C129.715 245.551 129.129 246.493 128.335 247.241C127.54 247.988 126.564 248.515 125.504 248.77C104.477 255.308 88.6298 275.991 108.586 282.108C112.887 264.483 118.756 261.922 133.035 256.111C125.981 262.151 104.916 285.988 126.517 291.073C127.587 279.011 130.34 271.652 138.77 262.4C137.088 276.259 128.524 293.94 143.243 300C157.522 294.992 149.627 276.22 147.964 262.4C156.394 271.728 159.147 279.088 160.217 291.073C181.818 285.874 160.81 262.209 153.699 256.111C167.978 261.845 173.847 264.483 178.148 282.108C198.085 275.953 182.506 255.346 161.345 248.77C160.278 248.524 159.296 248 158.497 247.251C157.698 246.503 157.111 245.556 156.796 244.508C153.642 231.127 167.883 229.215 172.489 229.865C189.693 232.962 185.278 249.497 182.181 252.574C182.296 256.034 187.189 255.384 187.189 255.384C194.243 255.614 209.899 260.163 209.899 260.163C224.541 274.557 245.549 249.65 229.148 237.607Z" fill="white"/>
<path d="M440.867 128.758L440.793 76.8886H434.717L413.376 113.346L391.739 76.8886H385.663V128.758H392.777V91.1899L411.524 122.46H414.932L433.68 90.9676L433.754 128.758H440.867ZM455.827 128.758H462.348L486.356 100.156V128.758H493.47V89.4856H487.023L462.941 118.088V89.4856H455.827V128.758ZM507.277 128.758H514.391V112.308H536.769V128.758H543.883V89.4856H536.769V106.158H514.391V89.4856H507.277V128.758ZM607.287 109.048C607.287 96.8955 598.691 89.9302 584.094 89.1151V73.7764H577.128V89.1151C562.383 89.8561 554.009 96.8955 554.009 109.048C554.009 121.348 562.457 128.462 577.128 129.277V143.134H584.094V129.277C598.766 128.462 607.287 121.274 607.287 109.048ZM561.049 109.048C561.049 100.897 566.31 96.1545 577.128 95.4135V122.979C566.384 122.238 561.049 117.421 561.049 109.048ZM584.094 123.053V95.4135C594.838 96.1545 600.248 100.823 600.248 109.048C600.248 117.495 594.838 122.238 584.094 123.053ZM617.341 128.758H623.862L647.87 100.156V128.758H654.984V89.4856H648.537L624.455 118.088V89.4856H617.341V128.758ZM668.791 128.758H675.905V112.308H698.283V128.758H705.397V89.4856H698.283V106.158H675.905V89.4856H668.791V128.758ZM405.892 176.889H385.663V228.758H393.073V213.049H405.892C419.378 213.049 427.529 206.232 427.529 194.969C427.529 183.706 419.378 176.889 405.892 176.889ZM405.67 206.603H393.073V183.335H405.67C415.155 183.335 420.119 187.559 420.119 194.969C420.119 202.379 415.155 206.603 405.67 206.603ZM453.327 229.203C465.109 229.203 473.704 220.83 473.704 209.122C473.704 197.414 465.109 189.115 453.327 189.115C441.545 189.115 432.876 197.414 432.876 209.122C432.876 220.83 441.545 229.203 453.327 229.203ZM453.327 222.979C445.769 222.979 440.063 217.495 440.063 209.122C440.063 200.749 445.769 195.339 453.327 195.339C460.885 195.339 466.517 200.749 466.517 209.122C466.517 217.495 460.885 222.979 453.327 222.979ZM501.094 229.203C508.133 229.203 513.987 226.239 517.099 220.756L511.69 217.347C509.17 221.2 505.317 222.979 501.019 222.979C493.313 222.979 487.533 217.643 487.533 209.122C487.533 200.749 493.313 195.339 501.019 195.339C505.317 195.339 509.17 197.118 511.69 200.971L517.099 197.488C513.987 192.005 508.133 189.115 501.094 189.115C489.015 189.115 480.346 197.414 480.346 209.122C480.346 220.83 489.015 229.203 501.094 229.203ZM542.847 229.203C549.886 229.203 555.74 226.239 558.852 220.756L553.443 217.347C550.924 221.2 547.071 222.979 542.773 222.979C535.066 222.979 529.287 217.643 529.287 209.122C529.287 200.749 535.066 195.339 542.773 195.339C547.071 195.339 550.924 197.118 553.443 200.971L558.852 197.488C555.74 192.005 549.886 189.115 542.847 189.115C530.769 189.115 522.099 197.414 522.099 209.122C522.099 220.83 530.769 229.203 542.847 229.203ZM568.062 228.758H574.583L598.591 200.156V228.758H605.705V189.486H599.258L575.176 218.088V189.486H568.062V228.758ZM619.512 228.758H626.033L650.041 200.156V228.758H657.155V189.486H650.708L626.626 218.088V189.486H619.512V228.758Z" fill="white"/>
</g>
<defs>
<clipPath id="clip0_225_248">
<rect width="705" height="300" fill="white"/>
</clipPath>
</defs>
</svg>
