<svg width="44" height="58" viewBox="0 0 44 58" fill="none" xmlns="http://www.w3.org/2000/svg">
<path d="M41.5613 16.784V4.37831H41.8108C43.0199 4.37831 44 3.39819 44 2.18915C44 0.980118 43.0199 0 41.8108 0H11.1892C9.98012 0 9 0.980118 9 2.18915C9 3.39819 9.98012 4.37831 11.1892 4.37831H11.4387V16.784C11.4387 17.5138 11.7971 18.1703 12.3712 18.6083L23.4877 26.5623L12.3712 34.8815C11.8691 35.3195 11.5107 35.976 11.4387 36.633V49.6217H11.1892C9.98012 49.6217 9 50.6018 9 51.8108C9 53.0199 9.98012 54 11.1892 54H41.8108C43.0199 54 44 53.0199 44 51.8108C44 50.6018 43.0199 49.6217 41.8108 49.6217H41.5613L41.5618 36.633C41.5618 35.976 41.275 35.3196 40.7014 34.8815L29.5849 26.8547L40.7014 18.5355C41.2034 18.0975 41.5618 17.441 41.5618 16.784H41.5613Z" fill="url(#paint0_linear_284_9281)"/>
<g filter="url(#filter0_bi_284_9281)">
<path d="M32.5613 20.784V8.37831H32.8108C34.0199 8.37831 35 7.39819 35 6.18915C35 4.98012 34.0199 4 32.8108 4H2.18916C0.980119 4 0 4.98012 0 6.18915C0 7.39819 0.980118 8.37831 2.18916 8.37831H2.43868V20.784C2.43868 21.5138 2.79708 22.1703 3.37119 22.6083L14.4877 30.5623L3.37119 38.8815C2.86914 39.3195 2.51075 39.976 2.43868 40.633V53.6217H2.18915C0.980117 53.6217 0 54.6018 0 55.8108C0 57.0199 0.980117 58 2.18915 58H32.8108C34.0199 58 35 57.0199 35 55.8108C35 54.6018 34.0199 53.6217 32.8108 53.6217H32.5613L32.5618 40.633C32.5618 39.976 32.275 39.3196 31.7014 38.8815L20.5849 30.8547L31.7014 22.5355C32.2034 22.0975 32.5618 21.441 32.5618 20.784H32.5613Z" fill="#8BC540" fill-opacity="0.2"/>
<path d="M32.3113 20.784V20.8232C32.2974 21.3783 31.9894 21.9494 31.5439 22.3411L20.4351 30.6546L20.1628 30.8583L20.4385 31.0574L31.5522 39.0822C32.0579 39.4696 32.3118 40.0494 32.3118 40.633L32.3113 53.6217L32.3113 53.8717H32.5613H32.8108C33.8818 53.8717 34.75 54.7399 34.75 55.8108C34.75 56.8818 33.8818 57.75 32.8108 57.75H2.18915C1.11819 57.75 0.25 56.8818 0.25 55.8108C0.25 54.7399 1.11819 53.8717 2.18915 53.8717H2.43868H2.68868V53.6217V40.647C2.75651 40.0634 3.07796 39.4723 3.52866 39.0759L14.6375 30.7625L14.911 30.5578L14.6332 30.359L3.51985 22.4073C3.00337 22.0119 2.68868 21.4273 2.68868 20.784V8.37831V8.12831H2.43868H2.18916C1.11819 8.12831 0.25 7.26012 0.25 6.18915C0.25 5.11819 1.11819 4.25 2.18916 4.25H32.8108C33.8818 4.25 34.75 5.11819 34.75 6.18915C34.75 7.26012 33.8818 8.12831 32.8108 8.12831H32.5613H32.3113V8.37831V20.784ZM32.5613 53.6217H32.8108L31.7014 38.8815C32.275 39.3196 32.5618 39.976 32.5618 40.633L32.5613 53.3717V53.6217Z" stroke="white" stroke-opacity="0.37" stroke-width="0.5"/>
</g>
<defs>
<filter id="filter0_bi_284_9281" x="-8" y="-4" width="51" height="70" filterUnits="userSpaceOnUse" color-interpolation-filters="sRGB">
<feFlood flood-opacity="0" result="BackgroundImageFix"/>
<feGaussianBlur in="BackgroundImage" stdDeviation="4"/>
<feComposite in2="SourceAlpha" operator="in" result="effect1_backgroundBlur_284_9281"/>
<feBlend mode="normal" in="SourceGraphic" in2="effect1_backgroundBlur_284_9281" result="shape"/>
<feColorMatrix in="SourceAlpha" type="matrix" values="0 0 0 0 0 0 0 0 0 0 0 0 0 0 0 0 0 0 127 0" result="hardAlpha"/>
<feOffset dx="-0.5" dy="0.5"/>
<feGaussianBlur stdDeviation="0.5"/>
<feComposite in2="hardAlpha" operator="arithmetic" k2="-1" k3="1"/>
<feColorMatrix type="matrix" values="0 0 0 0 1 0 0 0 0 1 0 0 0 0 1 0 0 0 0.15 0"/>
<feBlend mode="normal" in2="shape" result="effect2_innerShadow_284_9281"/>
</filter>
<linearGradient id="paint0_linear_284_9281" x1="80.8701" y1="14.9921" x2="45.5811" y2="61.7502" gradientUnits="userSpaceOnUse">
<stop stop-color="#8BC540" stop-opacity="0"/>
<stop offset="0.164476" stop-color="#8BC540" stop-opacity="0.1"/>
<stop offset="1" stop-color="#8BC540"/>
</linearGradient>
</defs>
</svg>
