<svg width="32" height="42" viewBox="0 0 32 42" fill="none" xmlns="http://www.w3.org/2000/svg">
<path d="M30.902 7.27708C31.6024 7.93131 32 8.84679 32 9.80523V38.5405C32 40.4511 30.4511 42 28.5405 42H3.45946C1.54885 42 -8.35148e-08 40.4511 0 38.5405L1.51218e-06 3.45946C1.59569e-06 1.54885 1.54885 -8.35152e-08 3.45946 0L21.7467 7.99362e-07C22.6235 8.37684e-07 23.4675 0.332868 24.1082 0.931314L30.902 7.27708Z" fill="url(#paint0_linear_3039_18388)"/>
<path d="M20.5 25C20.5 25.2761 20.2761 25.5 20 25.5H12C11.7239 25.5 11.5 25.2761 11.5 25L11.5 17C11.5 16.7239 11.7239 16.5 12 16.5H15.25C15.6642 16.5 16 16.1642 16 15.75C16 15.3358 15.6642 15 15.25 15H11C10.4477 15 10 15.4477 10 16L10 26C10 26.5523 10.4477 27 11 27H21C21.5523 27 22 26.5523 22 26V21.75C22 21.3358 21.6642 21 21.25 21C20.8358 21 20.5 21.3358 20.5 21.75V25Z" fill="white"/>
<path fill-rule="evenodd" clip-rule="evenodd" d="M19.4393 16.5H18.25C17.8358 16.5 17.5 16.1642 17.5 15.75C17.5 15.3358 17.8358 15 18.25 15H21C21.5523 15 22 15.4477 22 16V18.75C22 19.1642 21.6642 19.5 21.25 19.5C20.8358 19.5 20.5 19.1642 20.5 18.75V17.5607L17.6821 20.4322C17.3752 20.7449 16.8722 20.7473 16.5624 20.4375C16.2526 20.1277 16.255 19.6247 16.5677 19.3178L19.4393 16.5Z" fill="white"/>
<defs>
<linearGradient id="paint0_linear_3039_18388" x1="-12.5405" y1="60.375" x2="48.0042" y2="28.1151" gradientUnits="userSpaceOnUse">
<stop stop-color="#FED141" stop-opacity="0"/>
<stop offset="0.268523" stop-color="#FED141" stop-opacity="0.1"/>
<stop offset="1" stop-color="#FB9C0F"/>
</linearGradient>
</defs>
</svg>
