<svg width="44" height="42" viewBox="0 0 44 42" fill="none" xmlns="http://www.w3.org/2000/svg">
<g filter="url(#filter0_d_87_4795)">
<path d="M9.96031 25.1402C10.5203 24.5802 11.3603 24.5802 12.0603 25.1402C13.8803 26.9602 16.9603 26.9602 18.6403 25.1402C18.6403 25.1402 18.7803 25.1402 18.7803 25.0002H20.6003C20.6003 25.0002 20.7403 25.0002 20.7403 25.1402C22.5603 26.9602 25.6403 26.9602 27.3203 25.1402C27.8803 24.5802 28.8603 24.5802 29.5603 25.2802C30.4003 26.1202 31.6603 26.6802 32.9203 26.6802C34.1803 26.6802 35.3003 26.2602 36.2803 25.2802L36.5603 25.0002C37.1203 24.4402 38.1003 24.4402 38.6603 25.0002C39.2203 25.5602 40.3403 25.5602 40.9003 25.0002C41.4603 24.4402 41.4603 23.3202 40.9003 22.7602C39.0803 20.9402 36.1403 20.9402 34.3203 22.7602L34.0403 23.0402C33.4803 23.6002 32.6403 23.7402 31.8003 22.9002C30.4003 21.5002 28.5803 21.2202 26.9003 21.7802C27.1803 18.8402 26.9003 15.7602 25.9203 12.8202H27.0403C33.4803 12.8202 38.6603 7.6402 38.6603 1.2002H31.1003C27.4603 1.2002 24.2403 2.8802 22.0003 5.5402C20.8803 4.2802 19.6203 3.1602 18.0803 2.4602H17.9403C16.4003 1.7602 14.7203 1.3402 12.9003 1.3402H5.48031C5.48031 7.7802 10.6603 12.9602 17.1003 12.9602H19.0603C18.5003 16.6002 16.9603 19.9602 14.5803 23.0402C14.4403 23.0402 14.4403 22.9002 14.3003 22.9002C12.4803 21.0802 9.54031 21.0802 7.58031 23.0402C7.02031 23.6002 6.04031 23.6002 5.48031 23.0402C4.92031 22.4802 3.80031 22.4802 3.24031 23.0402C2.68031 23.6002 2.68031 24.7202 3.24031 25.2802C5.06031 27.1002 8.00031 27.1002 9.96031 25.1402Z" fill="white"/>
<path d="M34.1803 28.2202L33.9003 28.5002C33.3403 29.0602 32.5003 29.2002 31.6603 28.3602C29.8403 26.5402 26.9003 26.5402 25.0803 28.3602C24.5203 28.9202 23.5403 28.9202 22.9803 28.3602C21.1603 26.5402 18.2203 26.5402 16.4003 28.3602C15.8403 28.9202 15.0003 28.9202 14.3003 28.3602C12.4803 26.5402 9.54031 26.5402 7.58031 28.5002C7.02031 29.0602 6.04031 29.0602 5.48031 28.5002C4.92031 27.9402 3.80031 27.9402 3.24031 28.5002C2.68031 29.0602 2.68031 30.1802 3.24031 30.7402C5.06031 32.5602 8.00031 32.5602 9.96031 30.6002C10.5203 30.0402 11.3603 30.0402 12.0603 30.6002C13.8803 32.4202 16.9603 32.4202 18.6403 30.6002C19.2003 30.0402 20.1803 30.0402 20.7403 30.6002C22.5603 32.4202 25.6403 32.4202 27.3203 30.6002C27.8803 30.0402 28.8603 30.0402 29.5603 30.7402C30.4003 31.5802 31.6603 32.1402 32.9203 32.1402C34.1803 32.1402 35.3003 31.7202 36.2803 30.7402L36.5603 30.4602C37.1203 29.9002 38.1003 29.9002 38.6603 30.4602C39.2203 31.0202 40.3403 31.0202 40.9003 30.4602C41.4603 29.9002 41.4603 28.7802 40.9003 28.2202C38.9403 26.4002 35.8603 26.4002 34.1803 28.2202Z" fill="white"/>
<path d="M34.1803 33.5402L33.9003 33.8202C33.3403 34.3802 32.3603 34.3802 31.6603 33.6802C29.8403 31.8602 26.9003 31.8602 25.0803 33.6802C24.5203 34.2402 23.5403 34.2402 22.9803 33.6802C21.1603 31.8602 18.2203 31.8602 16.4003 33.6802C15.8403 34.2402 15.0003 34.2402 14.3003 33.6802C12.4803 31.8602 9.54031 31.8602 7.58031 33.8202C7.02031 34.3802 6.04031 34.3802 5.48031 33.8202C4.92031 33.2602 3.80031 33.2602 3.24031 33.8202C2.68031 34.3802 2.68031 35.5002 3.24031 36.0602C5.06031 37.8802 8.00031 37.8802 9.96031 35.9202C10.5203 35.3602 11.3603 35.3602 12.0603 35.9202C13.8803 37.7402 16.9603 37.7402 18.6403 35.9202C19.2003 35.3602 20.1803 35.3602 20.7403 35.9202C22.5603 37.7402 25.6403 37.7402 27.3203 35.9202C27.8803 35.3602 28.8603 35.3602 29.5603 36.0602C30.4003 36.9002 31.6603 37.4602 32.9203 37.4602C34.1803 37.4602 35.3003 37.0402 36.2803 36.0602L36.5603 35.7802C37.1203 35.2202 38.1003 35.2202 38.6603 35.7802C39.2203 36.3402 40.3403 36.3402 40.9003 35.7802C41.4603 35.2202 41.4603 34.1002 40.9003 33.5402C38.9403 31.8602 35.8603 31.8602 34.1803 33.5402Z" fill="white"/>
</g>
<defs>
<filter id="filter0_d_87_4795" x="0.358048" y="0.379441" width="43.4245" height="41.1843" filterUnits="userSpaceOnUse" color-interpolation-filters="sRGB">
<feFlood flood-opacity="0" result="BackgroundImageFix"/>
<feColorMatrix in="SourceAlpha" type="matrix" values="0 0 0 0 0 0 0 0 0 0 0 0 0 0 0 0 0 0 127 0" result="hardAlpha"/>
<feOffset dy="1.64151"/>
<feGaussianBlur stdDeviation="1.23113"/>
<feComposite in2="hardAlpha" operator="out"/>
<feColorMatrix type="matrix" values="0 0 0 0 0 0 0 0 0 0 0 0 0 0 0 0 0 0 0.1 0"/>
<feBlend mode="normal" in2="BackgroundImageFix" result="effect1_dropShadow_87_4795"/>
<feBlend mode="normal" in="SourceGraphic" in2="effect1_dropShadow_87_4795" result="shape"/>
</filter>
</defs>
</svg>
