<svg width="48" height="48" viewBox="0 0 48 48" fill="none" xmlns="http://www.w3.org/2000/svg">
<g filter="url(#filter0_d_87_4802)">
<path d="M6.5238 25.6462C6.56576 26.2421 6.65648 26.8336 6.79507 27.4148C6.88431 27.8546 7.00695 28.3992 7.14258 28.9142C7.02232 28.9338 6.90854 28.9822 6.81162 29.0554C6.32167 29.446 6.5037 29.9806 7.44045 31.9233C7.66563 32.3926 7.9567 32.9633 8.24483 33.5015C7.99838 33.3503 7.68692 33.3503 7.44045 33.5015C7.22414 33.6328 7.09737 33.8707 7.10949 34.1217C7.10949 34.3318 7.13608 34.6795 8.94307 36.6055C9.1053 36.776 9.34023 37.0221 9.605 37.2913C9.40554 37.2494 9.21198 37.1835 9.02906 37.0945C8.95371 37.0537 8.87362 37.0218 8.79089 36.9993C8.48209 36.9102 8.1523 37.0467 7.99982 37.3274C7.6987 37.9048 8.17535 38.3545 10.0486 39.9916C10.5285 40.4117 12.1502 41.8095 12.8222 42.154H12.8219C13.3561 42.4238 13.967 42.5059 14.5544 42.3866C15.1418 42.2674 15.6711 41.9542 16.0555 41.4977L16.4725 42.4821C16.6179 42.7962 16.9837 42.9447 17.3096 42.8216C17.6353 42.6989 17.809 42.3467 17.7068 42.0163L17.2898 41.0319H17.4952C18.0593 41.0322 18.609 40.8538 19.064 40.5227C19.5188 40.1917 19.8551 39.725 20.0236 39.1912C20.2487 38.4758 20.3876 36.3497 20.424 35.7163C20.5697 33.2454 20.5794 32.5927 19.9574 32.3958C19.6456 32.3012 19.3099 32.4386 19.1565 32.7239C19.1146 32.7975 19.0812 32.8757 19.0573 32.9568C18.9896 33.1429 18.8998 33.3204 18.7892 33.4851C18.7892 33.0389 18.7694 32.6516 18.7594 32.4383C18.627 29.5148 18.3522 29.4263 17.9651 29.3079C17.7665 29.2508 17.5528 29.2801 17.3773 29.3885C17.2018 29.4966 17.0809 29.6739 17.0449 29.8757C16.8661 29.295 16.6578 28.688 16.4822 28.1991C15.7476 26.1747 15.4893 25.6661 14.8705 25.7382C14.7509 25.7561 14.6374 25.8021 14.5396 25.8727C14.255 25.4001 13.9604 24.9439 13.7089 24.5602C13.3901 24.053 13.0302 23.5726 12.6333 23.1229L9.17793 14.9194C9.11381 14.7541 8.98467 14.6214 8.82037 14.552C8.65607 14.4822 8.4702 14.4814 8.30531 14.5496C8.14042 14.6179 8.0101 14.7494 7.9445 14.9144C7.8789 15.079 7.88333 15.2633 7.95662 15.4247L10.8922 22.4074C10.8029 22.3025 10.7102 22.1973 10.6209 22.0957C9.86619 21.2622 9.25748 20.7996 8.73119 20.6783L5.71945 13.4889C5.57879 13.1528 5.18961 12.9935 4.8507 13.1329C4.51178 13.2724 4.351 13.6582 4.49166 13.9942L7.50991 21.1738C7.22858 21.6331 7.12605 22.3846 7.17894 23.5066C7.17894 23.6379 7.19874 23.7724 7.20879 23.9068L4.28979 16.9209C4.23128 16.7481 4.10303 16.6069 3.93548 16.5316C3.76794 16.4563 3.57615 16.4537 3.40653 16.524C3.23662 16.5943 3.10423 16.7317 3.0407 16.9028C2.97717 17.0742 2.98839 17.2637 3.07173 17.4263L6.5238 25.6462Z" fill="white"/>
<path d="M44.5216 15.5594C44.3546 15.5046 44.1729 15.5175 44.0157 15.5957C43.8587 15.674 43.7394 15.8108 43.6841 15.9763L41.2781 23.1558V22.7457C41.2615 21.6268 41.1061 20.8818 40.7917 20.4488L43.2606 13.0759V13.0756C43.3756 12.7314 43.1874 12.3596 42.8401 12.2454C42.4929 12.1314 42.1179 12.318 42.003 12.6623L39.5373 20.0319C39.0211 20.196 38.4451 20.6882 37.7534 21.5969C37.6706 21.7018 37.5911 21.8102 37.5116 21.9251L39.9176 14.7455L39.9179 14.7458C40.0329 14.4016 39.8447 14.0298 39.4974 13.9156C39.1502 13.8016 38.7752 13.988 38.6603 14.3325L35.8371 22.7715C35.4713 23.2528 35.1459 23.7632 34.864 24.2973C34.6424 24.6878 34.3841 25.1668 34.1326 25.6558C34.0325 25.5945 33.919 25.5573 33.8017 25.5474C33.1728 25.5178 32.9577 26.046 32.3786 28.1199C32.2397 28.6221 32.0774 29.242 31.9418 29.8362C31.8877 29.6408 31.7533 29.4767 31.5712 29.3844C31.3895 29.2918 31.1768 29.2795 30.9853 29.3504C30.6079 29.4981 30.3233 29.6065 30.4259 32.5397C30.4259 32.7529 30.4489 33.1402 30.4755 33.5864C30.3508 33.4227 30.2474 33.2442 30.1676 33.055C30.0866 32.7828 29.8573 32.5792 29.5754 32.53L29.1815 32.4808L28.9433 32.7793C28.7714 32.9958 28.6354 33.1631 29.016 35.9753C29.0988 36.5955 29.3966 38.6659 29.678 39.3518C29.8919 39.9099 30.2935 40.3781 30.815 40.6769C31.3366 40.9757 31.9459 41.0871 32.5408 40.9924L32.1767 42.0784C32.1214 42.2437 32.1344 42.4241 32.2133 42.5797C32.2922 42.7355 32.4302 42.8536 32.5969 42.9084C32.9441 43.0227 33.3191 42.836 33.4343 42.4918L33.7851 41.3597C34.205 41.7831 34.7573 42.0529 35.3519 42.1253C35.9464 42.1973 36.5478 42.0673 37.0584 41.7567C37.7006 41.363 39.2129 39.8504 39.663 39.3942C41.4071 37.6223 41.8506 37.1366 41.5064 36.5855H41.5067C41.3941 36.4229 41.218 36.3145 41.0211 36.2867C40.8243 36.2586 40.6249 36.3134 40.4706 36.4379C40.293 36.5419 40.1027 36.6236 39.9047 36.6807C40.1497 36.3954 40.3648 36.1329 40.5138 35.9489C42.1686 33.8949 42.1686 33.5437 42.1686 33.3239C42.1642 33.0755 42.025 32.8484 41.8045 32.7301C41.5465 32.5997 41.2363 32.6252 41.0034 32.7957C41.2516 32.2411 41.4966 31.6504 41.6884 31.1551C42.4762 29.1503 42.6183 28.6021 42.0988 28.2511C41.9993 28.1873 41.8861 28.148 41.7679 28.1363C41.8639 27.5949 41.9467 27.0567 42.0028 26.6137H42.0031C42.098 26.0234 42.1444 25.4266 42.142 24.8286L44.9717 16.3791C45.0228 16.2113 45.0042 16.0299 44.9194 15.8758C44.8349 15.7217 44.6916 15.6075 44.5217 15.5588L44.5216 15.5594Z" fill="white"/>
<path d="M20.0272 30.8332C20.4781 31.367 21.1247 31.7009 21.8241 31.7619H22.0591C22.4763 31.7651 22.8882 31.6693 23.2606 31.483V42.3437C23.2606 42.7062 23.557 43 23.9225 43C24.2881 43 24.5844 42.7062 24.5844 42.3437V31.483C24.9559 31.6728 25.3678 31.7719 25.786 31.7719H26.0209C26.7204 31.7106 27.3669 31.3766 27.8179 30.8431C28.2945 30.2789 29.2346 28.405 29.5123 27.844C30.7667 25.2946 30.6937 25.091 30.598 24.8353L30.4555 24.4679L30.0782 24.4022L30.0785 24.402C29.7924 24.3645 29.5099 24.4919 29.3504 24.7301C29.2121 24.8754 29.0566 25.0031 28.887 25.1109C29.0294 24.7632 29.1485 24.4547 29.218 24.225C30.1414 21.7577 30.0188 21.426 29.9461 21.2327V21.2324C29.8637 20.998 29.6597 20.826 29.4133 20.783C29.1264 20.7382 28.8388 20.8591 28.6719 21.0947C28.7316 20.4877 28.7777 19.851 28.8043 19.3328C28.9136 17.1836 28.877 16.6193 28.2715 16.4485C28.1542 16.4195 28.0312 16.4195 27.9139 16.4485C27.8344 15.9039 27.7384 15.3689 27.6524 14.9292C27.5605 14.3371 27.4198 13.7532 27.2322 13.1837V4.28118C27.2322 3.91878 26.9358 3.62493 26.5702 3.62493C26.2047 3.62493 25.9083 3.91878 25.9083 4.28118V11.8479C25.8652 11.7167 25.8223 11.5854 25.7792 11.4574C25.4051 10.401 25.0212 9.74118 24.5845 9.42626V1.65625C24.5845 1.29385 24.2881 1 23.9225 1C23.557 1 23.2606 1.29385 23.2606 1.65625V9.42626C22.8238 9.75438 22.4364 10.4106 22.0626 11.4671C22.0195 11.5919 21.9766 11.7196 21.9367 11.8476V4.28089C21.9367 3.91849 21.6403 3.62464 21.2748 3.62464C20.9093 3.62464 20.6129 3.91849 20.6129 4.28089V13.1834C20.4202 13.7491 20.2742 14.3298 20.1761 14.919C20.0901 15.3587 19.9973 15.9034 19.9146 16.4383C19.7973 16.4096 19.6744 16.4096 19.557 16.4383C18.9548 16.6123 18.9149 17.1766 19.0242 19.3226C19.0508 19.8444 19.0937 20.481 19.1566 21.0845C18.9897 20.849 18.7021 20.728 18.4152 20.7728C18.1688 20.8162 17.9649 20.9878 17.8824 21.2225C17.8097 21.4194 17.6903 21.7475 18.6105 24.2184C18.6933 24.4381 18.8124 24.7566 18.9415 25.1043V25.104C18.7716 24.988 18.617 24.8512 18.4814 24.697C18.3221 24.4589 18.0393 24.3314 17.7533 24.3689L17.3662 24.4477L17.237 24.8022C17.141 25.0615 17.0683 25.2648 18.3228 27.811C18.6106 28.3952 19.5505 30.2688 20.0272 30.833L20.0272 30.8332Z" fill="white"/>
</g>
<defs>
<filter id="filter0_d_87_4802" x="0.537736" y="0.179245" width="46.9245" height="46.9245" filterUnits="userSpaceOnUse" color-interpolation-filters="sRGB">
<feFlood flood-opacity="0" result="BackgroundImageFix"/>
<feColorMatrix in="SourceAlpha" type="matrix" values="0 0 0 0 0 0 0 0 0 0 0 0 0 0 0 0 0 0 127 0" result="hardAlpha"/>
<feOffset dy="1.64151"/>
<feGaussianBlur stdDeviation="1.23113"/>
<feComposite in2="hardAlpha" operator="out"/>
<feColorMatrix type="matrix" values="0 0 0 0 0 0 0 0 0 0 0 0 0 0 0 0 0 0 0.1 0"/>
<feBlend mode="normal" in2="BackgroundImageFix" result="effect1_dropShadow_87_4802"/>
<feBlend mode="normal" in="SourceGraphic" in2="effect1_dropShadow_87_4802" result="shape"/>
</filter>
</defs>
</svg>
