<svg width="46" height="36" viewBox="0 0 46 36" fill="none" xmlns="http://www.w3.org/2000/svg">
<g filter="url(#filter0_d_3505_3701)">
<path d="M20.5 31C20.5 31 18 31 18 28.5C18 26 20.5 18.5 30.5 18.5C40.5 18.5 43 26 43 28.5C43 31 40.5 31 40.5 31H20.5ZM30.5 16C32.4891 16 34.3968 15.2098 35.8033 13.8033C37.2098 12.3968 38 10.4891 38 8.5C38 6.51088 37.2098 4.60322 35.8033 3.1967C34.3968 1.79018 32.4891 1 30.5 1C28.5109 1 26.6032 1.79018 25.1967 3.1967C23.7902 4.60322 23 6.51088 23 8.5C23 10.4891 23.7902 12.3968 25.1967 13.8033C26.6032 15.2098 28.5109 16 30.5 16Z" fill="white"/>
<path fill-rule="evenodd" clip-rule="evenodd" d="M16.04 31C15.6694 30.2195 15.4846 29.3639 15.5 28.5C15.5 25.1125 17.2 21.625 20.34 19.2C18.7727 18.7171 17.1399 18.4809 15.5 18.5C5.5 18.5 3 26 3 28.5C3 31 5.5 31 5.5 31H16.04Z" fill="white"/>
<path d="M14.25 16C15.9076 16 17.4973 15.3415 18.6694 14.1694C19.8415 12.9973 20.5 11.4076 20.5 9.75C20.5 8.0924 19.8415 6.50269 18.6694 5.33058C17.4973 4.15848 15.9076 3.5 14.25 3.5C12.5924 3.5 11.0027 4.15848 9.83058 5.33058C8.65848 6.50269 8 8.0924 8 9.75C8 11.4076 8.65848 12.9973 9.83058 14.1694C11.0027 15.3415 12.5924 16 14.25 16Z" fill="white"/>
</g>
<defs>
<filter id="filter0_d_3505_3701" x="0.537736" y="0.179245" width="44.9245" height="34.9245" filterUnits="userSpaceOnUse" color-interpolation-filters="sRGB">
<feFlood flood-opacity="0" result="BackgroundImageFix"/>
<feColorMatrix in="SourceAlpha" type="matrix" values="0 0 0 0 0 0 0 0 0 0 0 0 0 0 0 0 0 0 127 0" result="hardAlpha"/>
<feOffset dy="1.64151"/>
<feGaussianBlur stdDeviation="1.23113"/>
<feComposite in2="hardAlpha" operator="out"/>
<feColorMatrix type="matrix" values="0 0 0 0 0 0 0 0 0 0 0 0 0 0 0 0 0 0 0.1 0"/>
<feBlend mode="normal" in2="BackgroundImageFix" result="effect1_dropShadow_3505_3701"/>
<feBlend mode="normal" in="SourceGraphic" in2="effect1_dropShadow_3505_3701" result="shape"/>
</filter>
</defs>
</svg>
