<svg width="37" height="48" viewBox="0 0 37 48" fill="none" xmlns="http://www.w3.org/2000/svg">
<g clip-path="url(#clip0)">
<path d="M35.7304 8.41412C36.5403 9.17058 37 10.2291 37 11.3373V44C37 46.2091 35.2091 48 33 48H4C1.79086 48 -9.65645e-08 46.2091 0 44L1.74846e-06 4C1.84502e-06 1.79086 1.79086 -9.65644e-08 4 0L25.1447 9.24262e-07C26.1584 9.68572e-07 27.1343 0.384879 27.8751 1.07683L35.7304 8.41412Z" fill="url(#paint0_linear)"/>
<path fill-rule="evenodd" clip-rule="evenodd" d="M24.6994 21.7071C25.1002 21.3166 25.1002 20.6834 24.6994 20.2929C24.2986 19.9024 23.6487 19.9024 23.2479 20.2929L19.5254 23.9198L19.5254 13C19.5254 12.4477 19.0659 12 18.499 12C17.9322 12 17.4726 12.4477 17.4726 13L17.4726 23.9185L13.7515 20.2929C13.3506 19.9024 12.7008 19.9024 12.3 20.2929C11.8991 20.6834 11.8991 21.3166 12.3 21.7071L17.7515 27.0186C17.9387 27.2124 18.2043 27.3333 18.499 27.3333C18.4992 27.3333 18.4995 27.3333 18.4997 27.3333C18.5053 27.3333 18.511 27.3333 18.5166 27.3332C18.7736 27.3291 19.0293 27.2315 19.2254 27.0404L24.6994 21.7071Z" fill="white"/>
</g>
<defs>
<linearGradient id="paint0_linear" x1="-14.5" y1="69" x2="55.1419" y2="31.4581" gradientUnits="userSpaceOnUse">
<stop stop-color="#FED141" stop-opacity="0"/>
<stop offset="0.268523" stop-color="#FED141" stop-opacity="0.1"/>
<stop offset="1" stop-color="#FB9C0F"/>
</linearGradient>
<clipPath id="clip0">
<rect width="37" height="48" fill="white"/>
</clipPath>
</defs>
</svg>
