<svg width="40" height="40" viewBox="0 0 40 40" fill="none" xmlns="http://www.w3.org/2000/svg">
<g filter="url(#filter0_d_3505_3694)">
<path d="M16.9659 8.86938C16.9659 12.7888 13.7886 15.966 9.86925 15.966C5.94987 15.966 2.77258 12.7888 2.77258 8.86938C2.77258 4.94999 5.94987 1.77271 9.86925 1.77271C13.7886 1.77271 16.9659 4.94999 16.9659 8.86938Z" fill="white"/>
<path d="M37.2421 28.1313C37.2421 32.0507 34.0649 35.228 30.1455 35.228C26.2261 35.228 23.0488 32.0507 23.0488 28.1313C23.0488 24.2119 26.2261 21.0346 30.1455 21.0346C34.0649 21.0346 37.2421 24.2119 37.2421 28.1313Z" fill="white"/>
<path d="M26.9178 1.93343H36.1607L13.3849 35.3216H4.05671L26.9178 1.93343Z" fill="white"/>
</g>
<defs>
<filter id="filter0_d_3505_3694" x="0.310319" y="0.95195" width="39.3941" height="38.4734" filterUnits="userSpaceOnUse" color-interpolation-filters="sRGB">
<feFlood flood-opacity="0" result="BackgroundImageFix"/>
<feColorMatrix in="SourceAlpha" type="matrix" values="0 0 0 0 0 0 0 0 0 0 0 0 0 0 0 0 0 0 127 0" result="hardAlpha"/>
<feOffset dy="1.64151"/>
<feGaussianBlur stdDeviation="1.23113"/>
<feComposite in2="hardAlpha" operator="out"/>
<feColorMatrix type="matrix" values="0 0 0 0 0 0 0 0 0 0 0 0 0 0 0 0 0 0 0.1 0"/>
<feBlend mode="normal" in2="BackgroundImageFix" result="effect1_dropShadow_3505_3694"/>
<feBlend mode="normal" in="SourceGraphic" in2="effect1_dropShadow_3505_3694" result="shape"/>
</filter>
</defs>
</svg>
