<svg width="44" height="43" viewBox="0 0 44 43" fill="none" xmlns="http://www.w3.org/2000/svg">
<g filter="url(#filter0_d_87_4788)">
<path d="M28.9512 4.7C28.9512 2.6465 30.601 1 32.6585 1C34.7161 1 36.3659 2.6465 36.3659 4.7C36.3659 6.7535 34.7161 8.4 32.6585 8.4C30.601 8.4 28.9512 6.7535 28.9512 4.7ZM36.3659 38V26.9H41L36.2917 12.7845C36.0437 12.0477 35.5706 11.4069 34.9389 10.9523C34.3072 10.4977 33.5486 10.2521 32.7698 10.25H32.5473C31.7678 10.2493 31.0079 10.4938 30.3757 10.9488C29.7434 11.4038 29.2709 12.0461 29.0254 12.7845L27.4312 17.5575C29.4332 18.6675 30.8049 20.758 30.8049 23.2V38H36.3659ZM22.4634 18.575C24.002 18.575 25.2439 17.3355 25.2439 15.8C25.2439 14.2645 24.002 13.025 22.4634 13.025C20.9249 13.025 19.6829 14.2645 19.6829 15.8C19.6829 17.3355 20.9249 18.575 22.4634 18.575ZM9.4878 8.4C11.5454 8.4 13.1951 6.7535 13.1951 4.7C13.1951 2.6465 11.5454 1 9.4878 1C7.43024 1 5.78049 2.6465 5.78049 4.7C5.78049 6.7535 7.43024 8.4 9.4878 8.4ZM13.1951 38V25.05H15.9756V13.95C15.9756 11.915 14.3073 10.25 12.2683 10.25H6.70732C4.66829 10.25 3 11.915 3 13.95V25.05H5.78049V38H13.1951ZM25.2439 38V30.6H27.0976V23.2C27.0976 21.683 25.8371 20.425 24.3171 20.425H20.6098C19.0898 20.425 17.8293 21.683 17.8293 23.2V30.6H19.6829V38H25.2439Z" fill="white"/>
</g>
<defs>
<filter id="filter0_d_87_4788" x="0.537736" y="0.179245" width="42.9245" height="41.9245" filterUnits="userSpaceOnUse" color-interpolation-filters="sRGB">
<feFlood flood-opacity="0" result="BackgroundImageFix"/>
<feColorMatrix in="SourceAlpha" type="matrix" values="0 0 0 0 0 0 0 0 0 0 0 0 0 0 0 0 0 0 127 0" result="hardAlpha"/>
<feOffset dy="1.64151"/>
<feGaussianBlur stdDeviation="1.23113"/>
<feComposite in2="hardAlpha" operator="out"/>
<feColorMatrix type="matrix" values="0 0 0 0 0 0 0 0 0 0 0 0 0 0 0 0 0 0 0.1 0"/>
<feBlend mode="normal" in2="BackgroundImageFix" result="effect1_dropShadow_87_4788"/>
<feBlend mode="normal" in="SourceGraphic" in2="effect1_dropShadow_87_4788" result="shape"/>
</filter>
</defs>
</svg>
