<svg width="64" height="64" viewBox="0 0 64 64" fill="none" xmlns="http://www.w3.org/2000/svg">
<path fill-rule="evenodd" clip-rule="evenodd" d="M21.4912 24.1732C21.4912 31.0996 21.5146 34.6321 21.5604 34.6321C21.5985 34.6321 21.6297 34.6944 21.6297 34.7706C21.6297 34.8468 21.6609 34.9092 21.699 34.9092C21.7371 34.9092 21.7682 34.9646 21.7682 35.0324C21.7682 35.1002 21.8306 35.2006 21.9068 35.2555C21.9829 35.3104 22.0453 35.4108 22.0453 35.4786C22.0453 35.5505 22.0965 35.6018 22.1685 35.6018C22.2363 35.6018 22.3367 35.6641 22.3916 35.7403C22.4465 35.8165 22.5469 35.8789 22.6147 35.8789C22.6824 35.8789 22.7379 35.91 22.7379 35.9481C22.7379 35.9862 22.8003 36.0174 22.8765 36.0174C22.9526 36.0174 23.015 36.0486 23.015 36.0866C23.015 36.1319 24.2387 36.1559 26.5475 36.1559H30.0799V38.2338C30.0799 39.3767 30.0961 40.3118 30.1159 40.3118C30.1357 40.3118 30.7117 39.7507 31.3959 39.065C32.0801 38.3793 32.6748 37.8182 32.7174 37.8182C32.76 37.8182 32.8823 37.7247 32.989 37.6105C33.0957 37.4962 33.2261 37.4027 33.2785 37.4027C33.331 37.4027 33.4189 37.3403 33.4739 37.2641C33.5288 37.1879 33.6291 37.1256 33.697 37.1256C33.7647 37.1256 33.8202 37.0944 33.8202 37.0563C33.8202 37.0182 33.8825 36.9871 33.9587 36.9871C34.0349 36.9871 34.0972 36.9559 34.0972 36.9178C34.0972 36.8797 34.1596 36.8486 34.2358 36.8486C34.312 36.8486 34.3743 36.8174 34.3743 36.7793C34.3743 36.7412 34.4366 36.71 34.5128 36.71C34.589 36.71 34.6513 36.6789 34.6513 36.6408C34.6513 36.6027 34.7449 36.5715 34.8591 36.5715C34.9734 36.5715 35.0669 36.5403 35.0669 36.5022C35.0669 36.4641 35.1916 36.433 35.344 36.433C35.4964 36.433 35.621 36.4018 35.621 36.3637C35.621 36.3252 35.8058 36.2944 36.0366 36.2944C36.2675 36.2944 36.4522 36.2637 36.4522 36.2252C36.4522 36.1806 37.1679 36.1559 38.4609 36.1559C39.7538 36.1559 40.4695 36.1313 40.4695 36.0866C40.4695 36.0486 40.5319 36.0174 40.6081 36.0174C40.6842 36.0174 40.7466 35.9862 40.7466 35.9481C40.7466 35.91 40.8021 35.8789 40.8698 35.8789C40.9376 35.8789 41.038 35.8165 41.0929 35.7403C41.1478 35.6641 41.2482 35.6018 41.316 35.6018C41.388 35.6018 41.4392 35.5505 41.4392 35.4786C41.4392 35.4108 41.5016 35.3104 41.5778 35.2555C41.6539 35.2006 41.7163 35.1002 41.7163 35.0324C41.7163 34.9646 41.7474 34.9092 41.7855 34.9092C41.8236 34.9092 41.8548 34.8468 41.8548 34.7706C41.8548 34.6944 41.886 34.6321 41.9241 34.6321C41.9699 34.6321 41.9933 31.0996 41.9933 24.1732V13.7144H31.7423H21.4912V24.1732ZM40.6081 24.6581C40.6081 30.8918 40.5846 34.078 40.5388 34.078C40.5007 34.078 40.4695 34.1261 40.4695 34.185C40.4695 34.2439 40.393 34.3686 40.2995 34.4621C40.206 34.5556 40.0813 34.6321 40.0224 34.6321C39.9636 34.6321 39.9154 34.6633 39.9154 34.7014C39.9154 34.746 39.1535 34.7706 37.7682 34.7706C36.3829 34.7706 35.621 34.7952 35.621 34.8399C35.621 34.878 35.4652 34.9092 35.2747 34.9092C35.0842 34.9092 34.9284 34.9403 34.9284 34.9784C34.9284 35.0165 34.8349 35.0477 34.7206 35.0477C34.6063 35.0477 34.5128 35.0789 34.5128 35.117C34.5128 35.155 34.4193 35.1862 34.305 35.1862C34.1907 35.1862 34.0972 35.2174 34.0972 35.2555C34.0972 35.2936 34.0349 35.3247 33.9587 35.3247C33.8825 35.3247 33.8202 35.3559 33.8202 35.394C33.8202 35.4321 33.7647 35.4633 33.697 35.4633C33.6291 35.4633 33.5288 35.5256 33.4739 35.6018C33.4189 35.678 33.3186 35.7403 33.2508 35.7403C33.183 35.7403 33.1275 35.7715 33.1275 35.8096C33.1275 35.8477 33.0777 35.8789 33.0168 35.8789C32.9559 35.8789 32.8187 35.9724 32.712 36.0866C32.6052 36.2009 32.4821 36.2944 32.4384 36.2944C32.3947 36.2944 32.1438 36.5126 31.8808 36.7793C31.6178 37.046 31.3855 37.2641 31.3646 37.2641C31.3438 37.2641 31.3267 36.7031 31.3267 36.0174V34.7706H27.4479C24.9082 34.7706 23.5691 34.7467 23.5691 34.7014C23.5691 34.6633 23.521 34.6321 23.4621 34.6321C23.3235 34.6321 23.015 34.3236 23.015 34.185C23.015 34.1261 22.9838 34.078 22.9457 34.078C22.8999 34.078 22.8765 30.8918 22.8765 24.6581V15.2382H31.7423H40.6081V24.6581ZM14.2877 43.1516C14.2877 43.1897 14.1942 43.2208 14.0799 43.2208C13.9656 43.2208 13.8721 43.252 13.8721 43.2901C13.8721 43.3282 13.7855 43.3594 13.6796 43.3594C13.5666 43.3594 13.4459 43.4166 13.3873 43.4979C13.3324 43.5741 13.2445 43.6364 13.192 43.6364C13.1395 43.6364 13.0092 43.7299 12.9024 43.8442C12.7957 43.9585 12.6896 44.052 12.6669 44.052C12.644 44.052 12.6254 43.865 12.6254 43.6364V43.2208H11.8635H11.1016V46.684V50.1473H11.8635H12.6254V47.6866V45.2258L12.9353 44.916C13.1056 44.7456 13.2927 44.6061 13.3508 44.6061C13.409 44.6061 13.4565 44.575 13.4565 44.5369C13.4565 44.4988 13.55 44.4676 13.6643 44.4676C13.7786 44.4676 13.8721 44.4364 13.8721 44.3983C13.8721 44.3602 13.9968 44.3291 14.1492 44.3291C14.3016 44.3291 14.4262 44.3602 14.4262 44.3983C14.4262 44.4364 14.5052 44.4676 14.6017 44.4676C14.876 44.4676 15.2574 44.8892 15.2574 45.1926C15.2574 45.3272 15.2886 45.4373 15.3267 45.4373C15.3715 45.4373 15.3959 46.2685 15.3959 47.7923V50.1473H16.0886H16.7812V47.6861V45.2249L17.0214 44.9848C17.1534 44.8527 17.3092 44.7447 17.3677 44.7447C17.4261 44.7447 17.4739 44.7135 17.4739 44.6754C17.4739 44.6373 17.5362 44.6061 17.6124 44.6061C17.6886 44.6061 17.7509 44.575 17.7509 44.5369C17.7509 44.4988 17.8444 44.4676 17.9587 44.4676C18.073 44.4676 18.1665 44.4364 18.1665 44.3983C18.1665 44.3602 18.2912 44.3291 18.4436 44.3291C18.5959 44.3291 18.7206 44.3602 18.7206 44.3983C18.7206 44.4364 18.7829 44.4676 18.8591 44.4676C18.9353 44.4676 18.9977 44.4988 18.9977 44.5369C18.9977 44.575 19.06 44.6061 19.1362 44.6061C19.2285 44.6061 19.2747 44.6523 19.2747 44.7447C19.2747 44.8208 19.3059 44.8832 19.344 44.8832C19.3821 44.8832 19.4133 44.9455 19.4133 45.0217C19.4133 45.0979 19.4444 45.1602 19.4825 45.1602C19.5274 45.1602 19.5518 46.0376 19.5518 47.6537V50.1473H20.2444H20.9371V47.1689C20.9371 45.2295 20.9129 44.1905 20.8678 44.1905C20.8297 44.1905 20.7985 44.1282 20.7985 44.052C20.7985 43.9758 20.7674 43.9135 20.7293 43.9135C20.6912 43.9135 20.66 43.8653 20.66 43.8065C20.66 43.6679 20.3515 43.3594 20.2129 43.3594C20.154 43.3594 20.1059 43.3282 20.1059 43.2901C20.1059 43.252 20.0124 43.2208 19.8981 43.2208C19.7838 43.2208 19.6903 43.1897 19.6903 43.1516C19.6903 43.1105 19.4363 43.0823 19.0669 43.0823C18.6975 43.0823 18.4436 43.1105 18.4436 43.1516C18.4436 43.1897 18.35 43.2208 18.2358 43.2208C18.1215 43.2208 18.028 43.252 18.028 43.2901C18.028 43.3282 17.9656 43.3594 17.8894 43.3594C17.8133 43.3594 17.7509 43.3905 17.7509 43.4286C17.7509 43.4667 17.6954 43.4979 17.6277 43.4979C17.5599 43.4979 17.4595 43.5602 17.4046 43.6364C17.3497 43.7126 17.2627 43.775 17.2112 43.775C17.0844 43.775 16.9197 43.9482 16.9197 44.0817C16.9197 44.1416 16.8708 44.1905 16.8109 44.1905C16.6854 44.1905 16.5042 44.0285 16.5042 43.9161C16.5042 43.8008 16.0393 43.3594 15.9177 43.3594C15.8593 43.3594 15.8115 43.3282 15.8115 43.2901C15.8115 43.252 15.718 43.2208 15.6037 43.2208C15.4894 43.2208 15.3959 43.1897 15.3959 43.1516C15.3959 43.1112 15.1651 43.0823 14.8418 43.0823C14.5186 43.0823 14.2877 43.1112 14.2877 43.1516ZM25.37 43.1516C25.37 43.1897 25.2453 43.2208 25.0929 43.2208C24.9405 43.2208 24.8158 43.252 24.8158 43.2901C24.8158 43.3282 24.7223 43.3594 24.6081 43.3594C24.4938 43.3594 24.4003 43.3905 24.4003 43.4286C24.4003 43.4667 24.3505 43.4979 24.2895 43.4979C24.2286 43.4979 24.0914 43.5914 23.9847 43.7057C23.8779 43.82 23.7541 43.9135 23.7095 43.9135C23.6049 43.9135 23.4306 44.0878 23.4306 44.1924C23.4306 44.237 23.3371 44.3609 23.2228 44.4676C23.1085 44.5743 23.015 44.7115 23.015 44.7724C23.015 44.8334 22.9838 44.8832 22.9457 44.8832C22.9076 44.8832 22.8765 44.9455 22.8765 45.0217C22.8765 45.0979 22.8453 45.1602 22.8072 45.1602C22.7691 45.1602 22.7379 45.2849 22.7379 45.4373C22.7379 45.5897 22.7068 45.7144 22.6687 45.7144C22.6258 45.7144 22.5994 46.0837 22.5994 46.684C22.5994 47.2844 22.6258 47.6537 22.6687 47.6537C22.7068 47.6537 22.7379 47.7473 22.7379 47.8615C22.7379 47.9758 22.7691 48.0693 22.8072 48.0693C22.8453 48.0693 22.8765 48.156 22.8765 48.2618C22.8765 48.3749 22.9337 48.4955 23.015 48.5542C23.0912 48.6091 23.1535 48.6945 23.1535 48.7439C23.1535 48.87 24.0286 49.7317 24.1565 49.7317C24.2144 49.7317 24.2617 49.7628 24.2617 49.8009C24.2617 49.839 24.3241 49.8702 24.4003 49.8702C24.4765 49.8702 24.5388 49.9014 24.5388 49.9395C24.5388 49.9776 24.6011 50.0087 24.6773 50.0087C24.7535 50.0087 24.8158 50.0399 24.8158 50.078C24.8158 50.1161 24.9717 50.1473 25.1622 50.1473C25.3526 50.1473 25.5085 50.1784 25.5085 50.2165C25.5085 50.2569 25.7393 50.2858 26.0626 50.2858C26.3859 50.2858 26.6167 50.2569 26.6167 50.2165C26.6167 50.1784 26.7726 50.1473 26.963 50.1473C27.1535 50.1473 27.3094 50.1161 27.3094 50.078C27.3094 50.0399 27.3717 50.0087 27.4479 50.0087C27.5241 50.0087 27.5864 49.9776 27.5864 49.9395C27.5864 49.9014 27.6487 49.8702 27.7249 49.8702C27.8011 49.8702 27.8635 49.839 27.8635 49.8009C27.8635 49.7628 27.9189 49.7317 27.9867 49.7317C28.0545 49.7317 28.1549 49.6693 28.2098 49.5931C28.2647 49.5169 28.3517 49.4546 28.4032 49.4546C28.5182 49.4546 28.6946 49.2857 28.6946 49.1757C28.6946 49.1311 28.7881 49.0072 28.9024 48.9005C29.0167 48.7938 29.1102 48.6566 29.1102 48.5957C29.1102 48.5347 29.1414 48.4849 29.1795 48.4849C29.2176 48.4849 29.2487 48.3914 29.2487 48.2771C29.2487 48.1628 29.2799 48.0693 29.318 48.0693C29.3561 48.0693 29.3873 47.9758 29.3873 47.8615C29.3873 47.7473 29.4184 47.6537 29.4565 47.6537C29.4994 47.6537 29.5258 47.2844 29.5258 46.684C29.5258 46.0837 29.4994 45.7144 29.4565 45.7144C29.4184 45.7144 29.3873 45.5897 29.3873 45.4373C29.3873 45.2849 29.3561 45.1602 29.318 45.1602C29.2799 45.1602 29.2487 45.0979 29.2487 45.0217C29.2487 44.9455 29.2176 44.8832 29.1795 44.8832C29.1414 44.8832 29.1102 44.8277 29.1102 44.76C29.1102 44.6922 29.0479 44.5918 28.9717 44.5369C28.8955 44.4819 28.8332 44.3957 28.8332 44.3453C28.8332 44.2328 28.5231 43.9135 28.4139 43.9135C28.3703 43.9135 28.2473 43.82 28.1405 43.7057C28.0338 43.5914 27.8966 43.4979 27.8357 43.4979C27.7747 43.4979 27.7249 43.4667 27.7249 43.4286C27.7249 43.3905 27.6314 43.3594 27.5171 43.3594C27.4029 43.3594 27.3094 43.3282 27.3094 43.2901C27.3094 43.252 27.1847 43.2208 27.0323 43.2208C26.8799 43.2208 26.7552 43.1897 26.7552 43.1516C26.7552 43.11 26.4782 43.0823 26.0626 43.0823C25.647 43.0823 25.37 43.11 25.37 43.1516ZM32.712 43.1516C32.712 43.1897 32.5873 43.2208 32.4349 43.2208C32.2825 43.2208 32.1578 43.252 32.1578 43.2901C32.1578 43.3282 32.0955 43.3594 32.0193 43.3594C31.9431 43.3594 31.8808 43.3905 31.8808 43.4286C31.8808 43.4667 31.8333 43.4979 31.7754 43.4979C31.7174 43.4979 31.4992 43.6686 31.2905 43.8773C31.0818 44.086 30.9111 44.3042 30.9111 44.3622C30.9111 44.4202 30.8799 44.4676 30.8418 44.4676C30.8003 44.4676 30.7726 44.7447 30.7726 45.1602C30.7726 45.5758 30.8003 45.8529 30.8418 45.8529C30.8799 45.8529 30.9111 45.9005 30.9111 45.9586C30.9111 46.0961 31.4991 46.684 31.6366 46.684C31.6947 46.684 31.7423 46.7152 31.7423 46.7533C31.7423 46.7914 31.8046 46.8226 31.8808 46.8226C31.957 46.8226 32.0193 46.8537 32.0193 46.8918C32.0193 46.9299 32.1128 46.9611 32.2271 46.9611C32.3414 46.9611 32.4349 46.9923 32.4349 47.0304C32.4349 47.0685 32.5596 47.0996 32.712 47.0996C32.8643 47.0996 32.989 47.1308 32.989 47.1689C32.989 47.207 33.1137 47.2382 33.2661 47.2382C33.4184 47.2382 33.5431 47.2693 33.5431 47.3074C33.5431 47.3455 33.6678 47.3767 33.8202 47.3767C33.9726 47.3767 34.0972 47.4079 34.0972 47.446C34.0972 47.484 34.1762 47.5152 34.2727 47.5152C34.5289 47.5152 34.9284 47.937 34.9284 48.2074C34.9284 48.527 34.3965 49.039 34.0644 49.039C33.9301 49.039 33.8202 49.0702 33.8202 49.1083C33.8202 49.1464 33.6643 49.1776 33.4739 49.1776C33.2834 49.1776 33.1275 49.1464 33.1275 49.1083C33.1275 49.0702 33.0029 49.039 32.8505 49.039C32.6981 49.039 32.5734 49.0079 32.5734 48.9698C32.5734 48.9317 32.5111 48.9005 32.4349 48.9005C32.3587 48.9005 32.2964 48.8693 32.2964 48.8312C32.2964 48.7931 32.2097 48.762 32.1039 48.762C31.9908 48.762 31.8702 48.7048 31.8115 48.6234C31.7566 48.5473 31.6631 48.4849 31.6037 48.4849C31.5444 48.4849 31.4509 48.4226 31.3959 48.3464C31.341 48.2702 31.2406 48.2079 31.1728 48.2079C31.0958 48.2079 31.0496 48.2597 31.0496 48.3464C31.0496 48.4226 31.0184 48.4849 30.9804 48.4849C30.9423 48.4849 30.9111 48.5404 30.9111 48.6081C30.9111 48.6759 30.8487 48.7763 30.7726 48.8312C30.6964 48.8862 30.634 48.9865 30.634 49.0543C30.634 49.1221 30.6029 49.1776 30.5648 49.1776C30.5267 49.1776 30.4955 49.2087 30.4955 49.2468C30.4955 49.2849 30.5453 49.3161 30.6063 49.3161C30.6671 49.3161 30.8043 49.4096 30.9111 49.5239C31.0178 49.6382 31.155 49.7317 31.2159 49.7317C31.2769 49.7317 31.3267 49.7628 31.3267 49.8009C31.3267 49.839 31.389 49.8702 31.4652 49.8702C31.5414 49.8702 31.6037 49.9014 31.6037 49.9395C31.6037 49.9776 31.6972 50.0087 31.8115 50.0087C31.9258 50.0087 32.0193 50.0399 32.0193 50.078C32.0193 50.1161 32.1752 50.1473 32.3656 50.1473C32.5561 50.1473 32.712 50.1784 32.712 50.2165C32.712 50.2581 32.989 50.2858 33.4046 50.2858C33.8202 50.2858 34.0972 50.2581 34.0972 50.2165C34.0972 50.1784 34.2531 50.1473 34.4436 50.1473C34.634 50.1473 34.7899 50.1161 34.7899 50.078C34.7899 50.0399 34.8522 50.0087 34.9284 50.0087C35.0046 50.0087 35.0669 49.9776 35.0669 49.9395C35.0669 49.9014 35.1293 49.8702 35.2055 49.8702C35.2816 49.8702 35.344 49.839 35.344 49.8009C35.344 49.7628 35.3918 49.7317 35.4502 49.7317C35.5881 49.7317 36.0366 49.2831 36.0366 49.1452C36.0366 49.0868 36.0678 49.039 36.1059 49.039C36.144 49.039 36.1752 48.9455 36.1752 48.8312C36.1752 48.7169 36.2063 48.6234 36.2444 48.6234C36.284 48.6234 36.3137 48.4156 36.3137 48.1386C36.3137 47.8615 36.284 47.6537 36.2444 47.6537C36.2063 47.6537 36.1752 47.5602 36.1752 47.446C36.1752 47.3317 36.144 47.2382 36.1059 47.2382C36.0678 47.2382 36.0366 47.1904 36.0366 47.132C36.0366 46.9941 35.5881 46.5455 35.4502 46.5455C35.3918 46.5455 35.344 46.5144 35.344 46.4763C35.344 46.4382 35.2816 46.407 35.2055 46.407C35.1293 46.407 35.0669 46.3758 35.0669 46.3377C35.0669 46.2996 34.9734 46.2685 34.8591 46.2685C34.7449 46.2685 34.6513 46.2373 34.6513 46.1992C34.6513 46.1611 34.5578 46.1299 34.4436 46.1299C34.3293 46.1299 34.2358 46.0988 34.2358 46.0607C34.2358 46.0226 34.0799 45.9914 33.8894 45.9914C33.699 45.9914 33.5431 45.9602 33.5431 45.9221C33.5431 45.884 33.4184 45.8529 33.2661 45.8529C33.1137 45.8529 32.989 45.8217 32.989 45.7836C32.989 45.7455 32.91 45.7144 32.8136 45.7144C32.5566 45.7144 32.1578 45.2926 32.1578 45.0209C32.1578 44.7906 32.4188 44.4676 32.6049 44.4676C32.6638 44.4676 32.712 44.4364 32.712 44.3983C32.712 44.3602 32.8055 44.3291 32.9197 44.3291C33.034 44.3291 33.1275 44.2979 33.1275 44.2598C33.1275 44.2217 33.2834 44.1905 33.4739 44.1905C33.6643 44.1905 33.8202 44.2217 33.8202 44.2598C33.8202 44.2979 33.9449 44.3291 34.0972 44.3291C34.2496 44.3291 34.3743 44.3602 34.3743 44.3983C34.3743 44.4364 34.4678 44.4676 34.5821 44.4676C34.6964 44.4676 34.7899 44.4988 34.7899 44.5369C34.7899 44.575 34.8397 44.6061 34.9006 44.6061C34.9615 44.6061 35.1009 44.702 35.2103 44.8191L35.4092 45.032L35.5844 44.8569C35.6807 44.7605 35.7596 44.6335 35.7596 44.5746C35.7596 44.5157 35.7907 44.4676 35.8288 44.4676C35.8669 44.4676 35.8981 44.4053 35.8981 44.3291C35.8981 44.2529 35.9293 44.1905 35.9674 44.1905C36.0702 44.1905 36.0512 43.9874 35.9377 43.8739C35.8833 43.8195 35.7966 43.775 35.7452 43.775C35.6937 43.775 35.6067 43.7126 35.5518 43.6364C35.4969 43.5602 35.3965 43.4979 35.3287 43.4979C35.2609 43.4979 35.2055 43.4667 35.2055 43.4286C35.2055 43.3905 35.112 43.3594 34.9977 43.3594C34.8834 43.3594 34.7899 43.3282 34.7899 43.2901C34.7899 43.252 34.6652 43.2208 34.5128 43.2208C34.3604 43.2208 34.2358 43.1897 34.2358 43.1516C34.2358 43.1096 33.9356 43.0823 33.4739 43.0823C33.0121 43.0823 32.712 43.1096 32.712 43.1516ZM44.4868 43.1516C44.4868 43.1897 44.3933 43.2208 44.2791 43.2208C44.1648 43.2208 44.0713 43.252 44.0713 43.2901C44.0713 43.3282 44.0089 43.3594 43.9327 43.3594C43.8565 43.3594 43.7942 43.3905 43.7942 43.4286C43.7942 43.4667 43.7454 43.4979 43.6858 43.4979C43.6262 43.4979 43.4256 43.6537 43.2401 43.8442C43.0545 44.0347 42.8852 44.1905 42.8636 44.1905C42.8421 44.1905 42.8245 43.9724 42.8245 43.7057V43.2208H42.0626H41.3007V46.684V50.1473H42.0626H42.8245V47.7554V45.3634L43.0646 45.1233C43.1967 44.9912 43.3525 44.8832 43.411 44.8832C43.4694 44.8832 43.5171 44.852 43.5171 44.8139C43.5171 44.7758 43.5795 44.7447 43.6557 44.7447C43.7319 44.7447 43.7942 44.7135 43.7942 44.6754C43.7942 44.6373 43.8877 44.6061 44.002 44.6061C44.1163 44.6061 44.2098 44.575 44.2098 44.5369C44.2098 44.4984 44.3945 44.4676 44.6254 44.4676H45.041V43.775V43.0823H44.7639C44.6115 43.0823 44.4868 43.1135 44.4868 43.1516ZM46.2877 46.0607C46.2877 47.9077 46.312 48.9005 46.357 48.9005C46.3951 48.9005 46.4262 48.9871 46.4262 49.093C46.4262 49.206 46.4834 49.3267 46.5648 49.3853C46.641 49.4403 46.7033 49.5273 46.7033 49.5787C46.7033 49.7056 46.8765 49.8702 47.0101 49.8702C47.0699 49.8702 47.1189 49.9014 47.1189 49.9395C47.1189 49.9776 47.1812 50.0087 47.2574 50.0087C47.3336 50.0087 47.3959 50.0399 47.3959 50.078C47.3959 50.1161 47.4894 50.1473 47.6037 50.1473C47.718 50.1473 47.8115 50.1784 47.8115 50.2165C47.8115 50.2576 48.0655 50.2858 48.4349 50.2858C48.8043 50.2858 49.0583 50.2576 49.0583 50.2165C49.0583 50.1784 49.1829 50.1473 49.3353 50.1473C49.4877 50.1473 49.6124 50.1161 49.6124 50.078C49.6124 50.0399 49.6747 50.0087 49.7509 50.0087C49.8271 50.0087 49.8894 49.9776 49.8894 49.9395C49.8894 49.9014 49.9449 49.8702 50.0127 49.8702C50.0805 49.8702 50.1808 49.8079 50.2358 49.7317C50.2907 49.6555 50.3842 49.5931 50.4436 49.5931C50.5029 49.5931 50.5964 49.5308 50.6513 49.4546C50.8132 49.2301 50.8591 49.2913 50.8591 49.7317V50.1473H51.621H52.3829V46.684V43.2208H51.621H50.8591V45.682V48.1432L50.619 48.3833C50.487 48.5154 50.3311 48.6234 50.2727 48.6234C50.2143 48.6234 50.1665 48.6546 50.1665 48.6927C50.1665 48.7308 50.1042 48.762 50.028 48.762C49.9518 48.762 49.8894 48.7931 49.8894 48.8312C49.8894 48.8693 49.7648 48.9005 49.6124 48.9005C49.46 48.9005 49.3353 48.9317 49.3353 48.9698C49.3353 49.0079 49.2107 49.039 49.0583 49.039C48.9059 49.039 48.7812 49.0079 48.7812 48.9698C48.7812 48.9317 48.6877 48.9005 48.5734 48.9005C48.4591 48.9005 48.3656 48.8693 48.3656 48.8312C48.3656 48.7931 48.3167 48.762 48.2568 48.762C48.1168 48.762 47.95 48.5952 47.95 48.4552C47.95 48.3954 47.9189 48.3464 47.8808 48.3464C47.8427 48.3464 47.8115 48.2529 47.8115 48.1386C47.8115 48.0243 47.7803 47.9308 47.7423 47.9308C47.6974 47.9308 47.673 47.0996 47.673 45.5758V43.2208H46.9804H46.2877V46.0607ZM26.4782 44.3983C26.4782 44.4364 26.5717 44.4676 26.686 44.4676C26.8003 44.4676 26.8938 44.4988 26.8938 44.5369C26.8938 44.575 26.9414 44.6061 26.9995 44.6061C27.137 44.6061 27.7249 45.1941 27.7249 45.3316C27.7249 45.3897 27.7561 45.4373 27.7942 45.4373C27.8323 45.4373 27.8635 45.5308 27.8635 45.6451C27.8635 45.7594 27.8946 45.8529 27.9327 45.8529C27.9708 45.8529 28.002 45.9776 28.002 46.1299C28.002 46.2823 28.0332 46.407 28.0713 46.407C28.1094 46.407 28.1405 46.5005 28.1405 46.6148C28.1405 46.7291 28.1094 46.8226 28.0713 46.8226C28.0332 46.8226 28.002 46.9784 28.002 47.1689C28.002 47.3594 27.9708 47.5152 27.9327 47.5152C27.8946 47.5152 27.8635 47.6019 27.8635 47.7077C27.8635 47.8207 27.8063 47.9414 27.7249 48.0001C27.6487 48.055 27.5864 48.1412 27.5864 48.1917C27.5864 48.3181 27.2702 48.6234 27.1393 48.6234C27.0804 48.6234 27.0323 48.6546 27.0323 48.6927C27.0323 48.7308 26.97 48.762 26.8938 48.762C26.8176 48.762 26.7552 48.7931 26.7552 48.8312C26.7552 48.8693 26.6617 48.9005 26.5475 48.9005C26.4332 48.9005 26.3397 48.9317 26.3397 48.9698C26.3397 49.0079 26.215 49.039 26.0626 49.039C25.9102 49.039 25.7855 49.0079 25.7855 48.9698C25.7855 48.9317 25.692 48.9005 25.5778 48.9005C25.4635 48.9005 25.37 48.8693 25.37 48.8312C25.37 48.7931 25.3076 48.762 25.2314 48.762C25.1552 48.762 25.0929 48.7308 25.0929 48.6927C25.0929 48.6546 25.0448 48.6234 24.9859 48.6234C24.855 48.6234 24.5388 48.3181 24.5388 48.1917C24.5388 48.1412 24.4765 48.055 24.4003 48.0001C24.3189 47.9414 24.2617 47.8207 24.2617 47.7077C24.2617 47.6019 24.2306 47.5152 24.1925 47.5152C24.1544 47.5152 24.1232 47.3594 24.1232 47.1689C24.1232 46.9784 24.092 46.8226 24.0539 46.8226C24.0158 46.8226 23.9847 46.7602 23.9847 46.684C23.9847 46.6079 24.0158 46.5455 24.0539 46.5455C24.092 46.5455 24.1232 46.3897 24.1232 46.1992C24.1232 46.0087 24.1544 45.8529 24.1925 45.8529C24.2306 45.8529 24.2617 45.7594 24.2617 45.6451C24.2617 45.5308 24.2929 45.4373 24.331 45.4373C24.3691 45.4373 24.4003 45.3897 24.4003 45.3316C24.4003 45.1941 24.9882 44.6061 25.1257 44.6061C25.1838 44.6061 25.2314 44.575 25.2314 44.5369C25.2314 44.4988 25.3249 44.4676 25.4392 44.4676C25.5535 44.4676 25.647 44.4364 25.647 44.3983C25.647 44.3598 25.8317 44.3291 26.0626 44.3291C26.2935 44.3291 26.4782 44.3598 26.4782 44.3983ZM37.9241 48.5916C37.7135 48.812 37.699 48.859 37.699 49.3173C37.699 49.7451 37.7205 49.8288 37.869 49.9772C37.9625 50.0707 38.1184 50.1473 38.2153 50.1473C38.3123 50.1473 38.3916 50.1784 38.3916 50.2165C38.3916 50.2546 38.4851 50.2858 38.5994 50.2858C38.7137 50.2858 38.8072 50.2546 38.8072 50.2165C38.8072 50.1784 38.8873 50.1473 38.9853 50.1473C39.1857 50.1473 39.3613 50.004 39.3613 49.8405C39.3613 49.7806 39.3925 49.7317 39.4306 49.7317C39.4697 49.7317 39.4998 49.5347 39.4998 49.2792C39.4998 48.8551 39.4847 48.8115 39.2597 48.5865C39.0351 48.3619 38.9914 48.3467 38.5844 48.3512C38.1824 48.3555 38.132 48.374 37.9241 48.5916Z" fill="#EA221D"/>
</svg>
