<svg width="64" height="64" viewBox="0 0 64 64" fill="none" xmlns="http://www.w3.org/2000/svg">
<path d="M36.9867 15.6736L31.9973 24.5182L27.0079 15.6736L20.6602 19.4145L24.6047 26.3887C25.2577 27.5377 26.4594 28.2591 27.7654 28.2591H36.203C37.5091 28.2591 38.7108 27.5377 39.3639 26.3887L43.3344 19.4145L36.9867 15.6736Z" fill="#4FA2F0"/>
<path d="M48.3261 28.2593H40.4372C39.131 28.2593 37.9294 28.9807 37.2764 30.1297L33.0445 37.6116C32.3914 38.7606 32.3914 40.2035 33.0445 41.3525L36.989 48.3267L43.3106 44.5858L38.3473 35.7412H48.3261V28.2593Z" fill="#004A90"/>
<path d="M30.9535 37.6116L26.7217 30.1297C26.0686 28.9807 24.867 28.2593 23.5609 28.2593H15.6719V35.7412H25.6507L20.6613 44.5858L26.9829 48.3267L30.9274 41.3525C31.6066 40.2035 31.6066 38.7873 30.9535 37.6116Z" fill="#D43333"/>
</svg>
