<svg width="98" height="98" viewBox="0 0 98 98" fill="none" xmlns="http://www.w3.org/2000/svg">
<path fill-rule="evenodd" clip-rule="evenodd" d="M30.0015 37.4438H39.1718V17.0006H35.7324V17.0011L35.7321 17L30.0001 22.6793L30.0015 22.6807V37.4438ZM36.8791 19.2722V35.1722H32.2941V23.8151L36.8791 19.2722ZM65.5353 17.001V17.0081L62.0971 20.4159V17.001H58.6577L52.9267 22.6796V37.4442H55.2191V23.8157L59.8044 19.2726V37.4442H62.0971V23.8157L66.6816 19.2726V37.4442H68.9743V17.001H65.5353ZM41.4641 17.0011H50.6341V37.4442H41.4641V17.0011ZM48.3415 19.2726H43.7564V35.1729H48.3415V19.2726ZM30.002 41.9881H68.9751V39.7165H30.002V41.9881ZM30.002 55.6167V44.2595H46.0499V53.3454H32.2947V55.6167H30.002ZM32.2947 51.0739H43.7573V46.5311H32.2947V51.0739ZM48.3425 44.2595V53.3454H57.5128V55.6167H59.8051V53.3454H68.9754V44.2595H48.3425ZM50.6348 46.5311H57.5124V51.0739H50.6348V46.5311ZM66.6827 51.0739H59.8051V46.5311H66.6827V51.0739ZM30 62.0526L30 64.3448L68.6061 64.3448V62.0526H30ZM34.1196 81H30.0001V70.7807H36.8072V72.5601H32.0097V74.6264H34.1196C36.1865 74.6264 37.4572 75.9485 37.4572 77.8134C37.4572 79.68 36.2007 81 34.1196 81ZM34.0186 76.4072H32.0097V79.2213H34.0186C34.9143 79.2213 35.4488 78.6614 35.4488 77.8134C35.4488 76.9817 34.9143 76.4072 34.0186 76.4072ZM45.4393 79.1924L46.047 81H48.142L44.3844 70.7807H42.8095L39.0666 81H41.1609L41.7831 79.1924H45.4393ZM42.3467 77.5123L43.6474 73.7951L44.9042 77.5123H42.3467ZM55.7409 81V76.7218H52.2584V81H50.2503V70.7807H52.2584V74.9567H55.7409V70.7807H57.7509V81H55.7409ZM60.897 70.7807V81H62.905V75.6603L66.5194 81H68.9753L65.1746 75.5755L68.6297 70.7807H66.2298L62.905 75.6324V70.7807H60.897Z" fill="#1E2321"/>
<path d="M30 64.3447L30 62.0525L68.6061 62.0525V64.3447L30 64.3447Z" fill="#7FCB2C"/>
</svg>
