<svg width="98" height="98" viewBox="0 0 98 98" fill="none" xmlns="http://www.w3.org/2000/svg">
<path d="M44.9121 49.4884H39.7372C39.6844 49.4884 39.658 49.5148 39.6316 49.5676C39.4996 51.9174 39.0507 54.4256 38.4171 56.4851C38.4171 56.5115 38.4171 56.5379 38.4435 56.5643C38.4699 56.5907 38.4963 56.5907 38.5227 56.5907H40.2916C40.3444 56.5907 40.3708 56.5643 40.3708 56.5379C40.8725 54.9537 41.2685 52.8943 41.427 51.1517H43.1167V56.5115C43.1167 56.5643 43.1695 56.6171 43.2223 56.6171H44.9121C44.9649 56.6171 45.0177 56.5643 45.0177 56.5115V49.5676C45.0177 49.5148 44.9649 49.4884 44.9121 49.4884ZM66.7999 49.4884H65.1101C65.0573 49.4884 65.0045 49.5412 65.0045 49.594V54.9537C64.6349 55.0593 64.2652 55.1121 63.8428 55.1121C62.7339 55.1121 62.4699 54.7689 62.4699 53.2903V49.594C62.4699 49.5412 62.4171 49.4884 62.3643 49.4884H60.7009C60.6481 49.4884 60.5953 49.5412 60.5953 49.594V53.4752C60.5953 55.9042 61.4138 56.8283 63.4996 56.8283C64.6877 56.8283 66.0342 56.5115 66.8263 56.221C66.8527 56.1946 66.8791 56.1682 66.8791 56.1418V49.594C66.9055 49.5148 66.8527 49.4884 66.7999 49.4884ZM30.9979 49.4884H29.2817C29.2289 49.4884 29.2025 49.5148 29.2025 49.5676C28.9385 50.6237 28.3841 52.419 27.6448 54.2936L25.9286 49.5676C25.9022 49.5412 25.8758 49.5148 25.8494 49.5148H24.1068C24.0804 49.5148 24.054 49.5412 24.0276 49.5676C24.0012 49.594 24.0012 49.6204 24.0276 49.6468L26.6151 56.7227C26.351 57.2771 26.1134 57.726 25.8758 58.1484C25.691 58.4653 25.5326 58.7821 25.3741 59.0989C25.3477 59.1253 25.3477 59.1517 25.3741 59.1781C25.4006 59.2045 25.427 59.2309 25.4534 59.2309H27.3279C27.3543 59.2309 27.4072 59.2045 27.4072 59.1781C27.724 58.5709 28.12 57.726 28.4897 56.8547C29.5986 54.2672 30.4699 51.8382 31.1299 49.6204C31.1299 49.594 31.1299 49.5676 31.1035 49.5412C31.0507 49.4884 31.0243 49.4884 30.9979 49.4884ZM37.1497 54.9537C37.1497 54.9273 37.1233 54.9009 37.0969 54.9009H37.0177C36.5953 55.0593 35.8296 55.1649 35.3015 55.1649C34.1134 55.1649 33.559 54.8481 33.559 53.0527C33.559 51.6006 33.7438 50.9405 35.3015 50.9405C35.7504 50.9405 36.1464 50.9933 36.6745 51.1517C36.7273 51.1517 36.7537 51.1517 36.7801 51.0989C36.9649 50.7293 37.2025 50.2804 37.4666 49.726V49.6468C37.4666 49.6204 37.4402 49.594 37.4138 49.594C36.7273 49.3827 35.9088 49.2507 35.1695 49.2507C32.7141 49.2507 31.6052 50.4124 31.6052 53.0263C31.6052 55.6666 32.7141 56.8547 35.1695 56.8547C35.7768 56.8547 37.0177 56.7227 37.5986 56.4851C37.6514 56.4587 37.6778 56.4058 37.6514 56.353L37.1497 54.9537ZM53.2289 49.4884H51.5128C51.46 49.4884 51.4336 49.5148 51.4336 49.5676C51.1695 50.6501 50.6151 52.419 49.8758 54.2936L48.1596 49.5676C48.1332 49.5412 48.1068 49.5148 48.0804 49.5148H46.3378C46.3114 49.5148 46.285 49.5412 46.2586 49.5676C46.2322 49.594 46.2322 49.6204 46.2586 49.6468L48.8461 56.7227C48.5821 57.2771 48.3444 57.726 48.1068 58.1484C47.922 58.4653 47.7636 58.7821 47.6052 59.1253C47.5788 59.1517 47.5788 59.1781 47.6052 59.2045C47.6316 59.2309 47.658 59.2573 47.6844 59.2573H49.559C49.5854 59.2573 49.6382 59.2309 49.6382 59.2045C49.955 58.5973 50.351 57.7524 50.7207 56.8811C51.8032 54.2936 52.7009 51.8646 53.3609 49.6468C53.3609 49.6204 53.3609 49.594 53.3345 49.5676C53.2817 49.4884 53.2553 49.4884 53.2289 49.4884ZM59.5656 49.4884H54.5755C54.5227 49.4884 54.4699 49.5412 54.4699 49.594V56.5379C54.4699 56.5907 54.5227 56.6435 54.5755 56.6435H56.2652C56.318 56.6435 56.3708 56.5907 56.3708 56.5379V51.1781H58.9847C59.0111 51.1781 59.0639 51.1517 59.0639 51.1253C59.2751 50.6501 59.46 50.1484 59.6712 49.6468V49.5676C59.6184 49.4884 59.592 49.4884 59.5656 49.4884Z" fill="#EF4058"/>
<path d="M33.0033 38.8218C30.5743 38.8218 29.6238 39.878 29.6238 42.5446C29.6238 45.2641 30.5743 46.3202 33.0033 46.3202C35.4587 46.3202 36.4092 45.2641 36.4092 42.5446C36.4092 39.8516 35.4587 38.8218 33.0033 38.8218ZM33.0033 44.7624C31.8944 44.7624 31.5512 44.472 31.5512 42.571C31.5512 40.5644 31.9208 40.3796 33.0033 40.3796C34.1122 40.3796 34.4818 40.5644 34.4818 42.571C34.4818 44.472 34.1386 44.7624 33.0033 44.7624ZM43.1683 44.472C43.1683 44.4456 43.1419 44.4192 43.1155 44.4192H43.0363C42.6139 44.5776 41.8482 44.6832 41.3201 44.6832C40.132 44.6832 39.5776 44.3664 39.5776 42.571C39.5776 41.1189 39.7624 40.4588 41.3201 40.4588C41.769 40.4588 42.165 40.5116 42.6931 40.67C42.7459 40.67 42.7723 40.67 42.7987 40.6172C42.9835 40.2476 43.2211 39.7987 43.4851 39.2443V39.1651C43.4851 39.1387 43.4587 39.1123 43.4323 39.1123C42.7459 38.9011 41.9274 38.769 41.1881 38.769C38.7327 38.769 37.6238 39.9308 37.6238 42.5446C37.6238 45.1849 38.7327 46.373 41.1881 46.373C41.7954 46.373 43.0363 46.241 43.6172 46.0034C43.67 45.977 43.6964 45.9242 43.67 45.8714L43.1683 44.472ZM29.0957 39.0067H24.1056C24.0528 39.0067 24 39.0595 24 39.1123V46.0562C24 46.109 24.0528 46.1618 24.1056 46.1618H25.7954C25.8482 46.1618 25.901 46.109 25.901 46.0562V40.67H28.4884C28.5149 40.67 28.5677 40.6436 28.5677 40.6172C28.7789 40.142 28.9637 39.6403 29.1749 39.1387V39.0595C29.1485 39.0331 29.1221 39.0067 29.0957 39.0067Z" fill="#1466AC"/>
<path d="M74.6918 55.8779V55.7723C74.6918 55.7195 74.6918 55.6403 74.7182 55.5875C74.7974 54.6106 74.8502 53.4224 74.903 52.0495V51.9439C74.9294 51.0198 74.9558 50.0165 74.9558 48.9868C74.9558 47.9571 74.9294 46.9538 74.903 46.0297V45.9241C74.8502 44.5776 74.7974 43.363 74.7182 42.3861C74.7182 42.3333 74.7182 42.2541 74.6918 42.2013V42.0957C74.6918 41.9901 74.6654 41.9109 74.6654 41.8053V41.6997C74.5861 40.67 74.5333 40.0363 74.5069 39.9835C74.5069 39.8779 74.4805 39.7723 74.4805 39.6931V39.6139C74.4541 39.429 74.4277 39.2706 74.3749 39.0858C74.3749 39.0594 74.3749 39.033 74.3485 39.0066C73.8997 36.868 72.7116 34.5182 71.233 32.7492C70.6522 32.0627 70.0449 31.4554 69.4112 30.9802C69.3584 30.9274 68.6192 30.3993 67.4574 29.5809C66.1109 28.6568 64.1835 27.363 61.9921 26.0957C58.0845 23.7987 54.6258 22.1881 54.1505 22.0033C54.1241 22.0033 54.1241 21.9769 54.1241 21.9769C53.0944 21.5281 51.8535 21.2112 50.5069 21.0792C50.2429 21.0528 49.9789 21.0264 49.7149 21.0264C49.4508 21 49.2132 21 48.9756 21H48.606C46.8106 21.0528 45.1472 21.3696 43.8271 21.9769C43.6423 22.0561 40.1307 23.6667 36.1439 26.0165L35.9855 26.0957C31.8931 28.4983 28.6984 30.8746 28.5664 30.9802C27.5631 31.7195 26.6654 32.67 25.8469 33.8845C25.6621 34.1485 25.6621 34.835 26.4541 34.835H28.4871C29.3584 34.835 29.5697 34.3069 30.5466 33.5941C31.6291 32.802 33.7677 31.2178 37.6753 28.8944C40.5003 27.231 43.1406 25.9109 44.4343 25.3036C44.4607 25.3036 44.4871 25.2772 44.5135 25.2772C44.5135 25.2772 44.54 25.2772 44.54 25.2508C44.54 25.2508 44.5664 25.2508 44.5664 25.2244C44.5928 25.2244 44.6192 25.198 44.6192 25.198C44.6456 25.198 44.672 25.1716 44.6984 25.1716C45.0152 25.0132 45.2264 24.934 45.2264 24.934C46.1241 24.538 47.3914 24.2739 48.738 24.2475H49.266C49.6621 24.2475 50.0581 24.2739 50.4277 24.3267C51.2462 24.4323 51.9855 24.5908 52.5928 24.8548C52.6456 24.8812 52.7248 24.9076 52.7776 24.934C52.7776 24.934 52.804 24.9604 52.8832 24.9868C53.4904 25.2508 56.7644 26.8086 60.3287 28.8944C62.4409 30.1353 64.3155 31.3762 65.6093 32.2739C66.7446 33.066 67.431 33.5677 67.4574 33.5941C67.9591 33.9637 68.4607 34.4917 68.936 35.0726C70.1241 36.604 71.101 38.6898 71.2594 40.3003C71.2594 40.3267 71.3386 40.9604 71.4178 42.0429C71.4178 42.1221 71.4178 42.1749 71.4442 42.2541V42.4125C71.4442 42.5182 71.4706 42.5974 71.4706 42.703V42.8086C71.4706 42.8614 71.4706 42.9406 71.497 42.9934C71.497 43.1254 71.5234 43.2574 71.5234 43.3894C71.5234 43.4686 71.5234 43.5479 71.5498 43.6271V43.6799C71.5498 43.7855 71.5498 43.8647 71.5762 43.9703V44.1815C71.6555 45.5545 71.7083 47.1914 71.7083 48.9076C71.7083 50.6238 71.6555 52.2607 71.5762 53.6337V53.8449C71.5762 53.9505 71.5762 54.0297 71.5498 54.1353V54.1881C71.5498 54.2673 71.5498 54.3465 71.5234 54.4257C71.5234 54.5578 71.497 54.6898 71.497 54.8218C71.497 54.901 71.497 54.9538 71.4706 55.0066V55.1122C71.4706 55.2178 71.4442 55.297 71.4442 55.4026V55.5611C71.4442 55.6403 71.4442 55.7195 71.4178 55.7723C71.3386 56.8548 71.2594 57.5149 71.2594 57.5149C71.101 59.1254 70.1241 61.2112 68.936 62.7426C68.4607 63.3498 67.9591 63.8515 67.4574 64.2211C67.431 64.2211 66.7446 64.7492 65.6093 65.5413C64.3155 66.4389 62.4145 67.6799 60.3287 68.9208C56.7644 71.033 53.464 72.5644 52.8832 72.8284L52.7776 72.8812C52.7248 72.9076 52.6456 72.934 52.5928 72.9604C51.9855 73.198 51.2462 73.3828 50.4277 73.4884C50.0581 73.5413 49.6621 73.5677 49.266 73.5677H48.738C47.3914 73.5413 46.1241 73.3036 45.2264 72.8812C45.2264 72.8812 45.0416 72.802 44.6984 72.6436C44.672 72.6172 44.6192 72.6172 44.5928 72.5908C44.5664 72.5644 44.5399 72.5644 44.5135 72.538C44.4871 72.538 44.4871 72.5116 44.4607 72.5116C44.4343 72.5116 44.4079 72.4851 44.3815 72.4851C44.3551 72.4587 44.3287 72.4587 44.2759 72.4323H44.2495C42.903 71.9043 40.3683 70.637 37.6753 69.0528C33.7413 66.7558 31.6291 65.1452 30.5466 64.3531C29.5697 63.6403 29.3584 63.1122 28.4871 63.1122H26.4541C25.6621 63.1122 25.6621 63.7987 25.8469 64.0627C26.6654 65.2772 27.5631 66.2277 28.5664 66.967C28.6984 67.0726 31.9195 69.4488 35.9855 71.8515C36.1967 71.9835 36.4079 72.1155 36.6456 72.2211C40.4211 74.3861 43.6687 75.8647 43.8535 75.9703C45.1472 76.5512 46.837 76.8944 48.6324 76.9472H49.002C49.2396 76.9472 49.4772 76.9472 49.7149 76.9208C49.9789 76.9208 50.2429 76.8944 50.5069 76.868C51.8535 76.736 53.1208 76.4191 54.1241 75.9703C54.1241 75.9703 54.1505 75.9703 54.1505 75.9439C54.5994 75.7327 58.0845 74.1221 61.9657 71.8515C64.1571 70.5578 66.0845 69.2904 67.431 68.3663C68.5928 67.5479 69.332 67.0198 69.3848 66.967C70.0185 66.4918 70.6258 65.8845 71.2066 65.198C72.6852 63.429 73.8733 61.0792 74.3221 58.9406C74.3221 58.9142 74.3221 58.8878 74.3485 58.8614C74.3749 58.6766 74.4277 58.4917 74.4541 58.3333V58.2541C74.4805 58.1485 74.4805 58.0429 74.4805 57.9637C74.4805 57.9109 74.5597 57.2772 74.639 56.2475V56.1419C74.6918 56.0627 74.6918 55.9835 74.6918 55.8779Z" fill="url(#paint0_linear)"/>
<defs>
<linearGradient id="paint0_linear" x1="50.3501" y1="21" x2="50.3501" y2="76.9955" gradientUnits="userSpaceOnUse">
<stop offset="0.398" stop-color="#1466AC"/>
<stop offset="0.659" stop-color="#EF4058"/>
</linearGradient>
</defs>
</svg>
