<svg width="244" height="54" viewBox="0 0 244 54" fill="none" xmlns="http://www.w3.org/2000/svg">
<path fill-rule="evenodd" clip-rule="evenodd" d="M141.327 0.616523C129.557 3.02644 120.584 13.4516 119.937 25.4672C119.491 33.738 122.031 40.302 127.943 46.1629C133.589 51.7591 138.962 53.9731 146.963 53.9992C151.169 54.0129 152.226 53.8645 155.493 52.8023C162.729 50.4492 168.144 45.7793 171.379 39.1006C173.634 34.4465 174.263 31.8244 174.263 27.0862C174.263 22.3323 173.636 19.7347 171.335 14.9633C168.764 9.63019 164.875 5.75618 159.406 3.07781C153.248 0.0609663 147.716 -0.691799 141.327 0.616523ZM8.24495 7.17014C5.72362 8.06293 3.90537 9.71843 2.64199 12.2721C1.60532 14.3663 1.46337 15.1129 1.47798 18.3862C1.49928 23.1298 2.62864 25.591 5.79168 27.7897L6.73107 28.4426L3.36554 35.7564C1.5143 39.7792 0 43.1556 0 43.2604C0 43.3648 1.00996 43.4506 2.24453 43.4506H4.48863L7.60157 36.5113L10.7145 29.5719L12.4551 29.4447L14.1953 29.3172V36.3841V43.4506H16.0741H17.9529V25.0148V6.57895L13.8822 6.59719C11.5884 6.60754 9.12756 6.85736 8.24495 7.17014ZM185.791 25.0148V43.4506H187.036H188.28L188.393 34.0255L188.505 24.6005L193.687 33.5077C196.537 38.4066 199.094 42.6618 199.369 42.9634C199.644 43.265 200.443 43.4514 201.144 43.3777L202.419 43.2434L199.61 38.4791C198.066 35.8588 195.468 31.4478 193.838 28.6767L190.875 23.6385L195.899 15.6266C198.662 11.2202 201.014 7.38184 201.126 7.09681C201.259 6.75461 200.924 6.58392 200.136 6.59428C199.04 6.60836 198.519 7.28863 193.724 14.9774L188.505 23.3452L188.392 14.9621L188.279 6.57895H187.035H185.791V25.0148ZM14.1953 17.9719V26.0505H12.1695C8.00364 26.0505 5.84679 23.3605 5.84596 18.1633C5.8447 12.744 8.10968 9.89534 12.4209 9.89409L14.1953 9.89326V17.9719ZM143.623 22.239C143.623 29.9162 143.762 33.0656 144.117 33.4178C145.816 35.1039 140.345 34.0442 137.481 32.1322C136.396 31.4076 134.939 30.0074 134.244 29.0205C133.141 27.4553 132.96 26.7999 132.827 23.8825C132.645 19.924 133.185 17.8509 134.903 15.9096C136.81 13.7548 140.687 11.7062 143.101 11.5782C143.506 11.5566 143.623 13.9495 143.623 22.239ZM153.038 12.7746C155.321 13.7569 157.687 15.8851 158.711 17.8778C159.5 19.4128 159.553 20.2616 159.524 30.8997C159.497 40.367 159.597 42.4285 160.116 43.1647C160.46 43.6511 160.741 44.2216 160.741 44.432C160.741 45.0601 153.068 44.4337 151.612 43.6867C148.95 42.3208 148.864 41.8228 148.633 26.4648C148.518 18.8315 148.26 12.3326 148.058 12.0231C147.76 11.5645 148.032 11.5144 149.519 11.7534C150.525 11.915 152.108 12.3744 153.038 12.7746ZM65.9525 17.8683C62.4893 19.6033 60.7128 24.895 61.0497 32.472C61.3182 38.5015 62.7861 41.5415 66.1751 43.0856C68.4242 44.1105 71.3939 44.0662 73.9645 42.9688C75.9552 42.1191 76.0504 42.0072 75.8087 40.8066C75.4429 38.9933 75.0655 38.7927 73.4873 39.5741C71.3167 40.6488 68.7561 40.546 67.4539 39.3321C66.279 38.2368 65.1313 35.0149 65.1313 32.8108V31.4362H70.6149H76.098L75.8988 27.3261C75.6379 21.9499 74.2985 18.9214 71.6549 17.7303C69.3941 16.7116 68.2037 16.7406 65.9525 17.8683ZM103.125 17.4018C99.4192 18.5001 97.1584 21.8699 96.4682 27.3224C95.6219 34.0119 97.378 40.3356 100.686 42.5077C102.988 44.0194 106.108 44.2431 108.746 43.0856C110.58 42.2802 110.71 42.1269 110.448 41.0713C110.023 39.3661 109.721 39.2443 107.785 39.9987C105.076 41.0548 103.22 40.4466 101.878 38.0648C100.901 36.3298 100.828 35.8124 100.828 30.6077C100.828 25.5981 100.926 24.8325 101.769 23.2677C102.287 22.307 103.127 21.2999 103.636 21.0293C104.895 20.3607 107.191 20.499 108.453 21.3193C109.709 22.1359 110.206 21.6276 110.216 19.5151C110.221 18.4222 110.005 18.0767 109.103 17.7361C107.35 17.0749 104.723 16.9279 103.125 17.4018ZM233.188 17.8832C231.108 19.0519 229.409 22.1922 228.656 26.2576L228.119 29.1576H226.682H225.246L225.037 23.3576L224.828 17.5576L223.68 17.4267L222.532 17.2953V30.3732V43.4506H223.784H225.037V37.4434V31.4362H226.632H228.227L228.723 34.5981C229.655 40.5518 232.39 43.8649 236.37 43.8649C238.099 43.8649 238.632 43.6523 240.016 42.4116C243.121 39.6275 244.592 33.6713 243.779 27.1653C242.757 18.9819 238.254 15.0358 233.188 17.8832ZM23.3805 30.4005V43.4506H25.468H27.5555V37.6506V31.8505H30.4781H33.4007V37.6506V43.4506H35.4882H37.5757V30.4005V17.3504H35.4882H33.4007V22.9433V28.5362H30.4781H27.5555V22.9433V17.3504H25.468H23.3805V30.4005ZM44.091 23.8755C43.6739 33.4128 42.3566 40.1363 40.9054 40.1363C39.8958 40.1363 39.6633 40.9499 39.6633 44.4863C39.6633 48.5219 39.8173 48.8363 41.7955 48.8363H43.4209V46.1435V43.4506H49.0372H54.6539L54.7779 46.0399L54.9023 48.6292H56.5724H58.2424L58.3614 44.3827L58.4804 40.1363H57.422H56.3636V28.7434V17.3504H50.3699H44.3761L44.091 23.8755ZM80.1616 30.4005V43.4506H82.2383H84.315L84.4302 37.218L84.5454 30.9851L87.8767 37.218L91.208 43.4506H93.4367H95.6653L93.0401 38.5827C91.5959 35.9056 89.9396 32.8237 89.3589 31.7341L88.303 29.7538L91.5683 23.5296L94.8341 17.3053L92.6914 17.4312L90.5488 17.5576L87.5469 23.2859L84.5454 29.0139L84.4298 23.1824L84.3137 17.3504H82.2379H80.1616V30.4005ZM205.739 30.4009L205.623 43.451H208.935C211.458 43.4506 212.685 43.241 214.077 42.5719C218.97 40.2216 219.832 32.6559 215.625 28.9903C214.214 27.7615 213.039 27.3986 209.798 27.1927L208.128 27.0862L208.01 22.2183C207.893 17.3654 207.889 17.3504 206.874 17.3504H205.855L205.739 30.4009ZM238.037 19.6584C242.344 21.8683 242.886 36.5742 238.81 40.6189C236.52 42.8913 233.71 41.9475 232.073 38.3557C231.198 36.4346 231.091 35.5932 231.091 30.6077C231.091 26.1375 231.244 24.6407 231.857 23.1505C233.385 19.4277 235.385 18.2979 238.037 19.6584ZM70.0324 20.8839C71.0858 21.6164 71.8056 23.8353 71.8089 26.3612L71.8114 28.1219H68.4714C66.6343 28.1219 65.1313 27.9699 65.1313 27.7839C65.1313 27.5979 65.3342 26.3567 65.5822 25.026C66.1972 21.7233 66.8894 20.7372 68.9001 20.2985C69.0216 20.272 69.531 20.5355 70.0324 20.8839ZM52.1885 30.4005V40.1363H48.8485C47.0114 40.1363 45.5084 40.0551 45.5084 39.9561C45.5084 39.8571 45.7067 39.258 45.9497 38.6245C46.6833 36.7093 47.5692 29.903 47.6327 25.6917C47.6657 23.5105 47.7851 21.4867 47.8978 21.195C48.0256 20.864 48.8706 20.6647 50.1457 20.6647H52.1885V30.4005ZM213.643 30.0053C215.148 30.9838 215.974 33.2848 215.756 35.8948C215.456 39.4747 213.499 41.3501 209.896 41.5084L208.128 41.5863L208.011 35.8061C207.947 32.6273 207.998 29.7588 208.125 29.4315C208.423 28.6576 212.169 29.047 213.643 30.0053Z" fill="#1F2334"/>
</svg>
