<svg width="288" height="54" viewBox="0 0 288 54" fill="none" xmlns="http://www.w3.org/2000/svg">
<path fill-rule="evenodd" clip-rule="evenodd" d="M156.937 0.311737C142.822 0.991215 140.17 4.0825 139.663 20.4466L139.475 26.5213L144.581 26.3201C154.352 25.9345 157.885 24.9676 161.344 21.7312C163.331 19.8723 164.656 17.4377 165.351 14.3719C165.884 12.0193 166.453 5.8012 166.453 2.32765V0L163.961 0.0468166C162.59 0.0723007 159.429 0.191428 156.937 0.311737ZM167.525 3.48184C168.057 14.4874 169.091 18.3278 172.391 21.5682C175.65 24.7664 179.742 25.9269 189.114 26.3088L194.324 26.5213L194.154 19.7058C193.758 3.79269 191.222 1.03537 176.295 0.289807C173.291 0.139569 170.051 0.0130429 169.095 0.00830165L167.356 0L167.525 3.48184ZM9.75335 6.65284C5.63493 7.91519 2.73424 11.2092 1.78174 15.7042C1.27242 18.1091 1.58961 22.5861 2.42127 24.7226C3.06926 26.3882 5.50171 29.2202 7.02002 30.0772C7.49219 30.3436 7.16412 31.1902 3.77253 38.4556C1.69776 42.9008 0 46.6677 0 46.8268C0 46.9922 1.0685 47.1131 2.49226 47.1089L4.98452 47.1021L8.48064 39.3303L11.9767 31.5588L13.8428 31.4705L15.7088 31.3825V39.2491V47.116H17.9745H20.2402V26.6694V6.22287L15.6333 6.24272C12.7241 6.25517 10.5572 6.40629 9.75335 6.65284ZM212.667 11.3345C212.663 14.1461 212.529 19.5798 212.368 23.4098C211.891 34.7444 211.216 39.3881 209.564 42.6711C208.761 44.2662 208.452 44.6132 207.764 44.6909L206.933 44.7848V49.358V53.9315H208.105H209.277L209.495 50.5238L209.712 47.116H218.572H227.432L227.609 48.6717C227.706 49.5275 227.817 51.0275 227.857 52.0054L227.929 53.7834L229.061 53.8752L230.194 53.9674V49.3563V44.7454H228.835H227.475V25.4841V6.22287H220.074H212.673L212.667 11.3345ZM224.455 26.6694V44.7454H218.006H211.557L212.28 43.3124C213.925 40.0522 214.612 34.1941 215.144 18.8909L215.503 8.59349H219.978H224.455V26.6694ZM15.7088 18.855V27.9312L13.5186 27.7291C8.23745 27.2414 6.08444 24.3596 6.41221 18.2158C6.70917 12.6455 9.25127 9.87155 14.1228 9.80161L15.7088 9.7788V18.855ZM74.4715 18.2532C71.0361 19.4865 68.9616 23.5106 68.2855 30.2517C67.6252 36.8352 68.7767 41.9795 71.5524 44.8447C73.4806 46.8351 74.6416 47.2642 78.0972 47.2642C80.9202 47.2642 81.2631 47.1972 83.1784 46.2724C84.6904 45.5422 85.1852 45.1608 85.0547 44.8266C84.9568 44.5771 84.7275 43.7897 84.5444 43.0774C84.3617 42.365 84.1729 41.7821 84.1248 41.7821C84.0768 41.7821 83.3315 42.1413 82.4691 42.5801C80.4417 43.612 77.8634 43.8336 76.3085 43.1097C74.453 42.2462 73.3429 39.8424 72.9269 35.7877L72.7221 33.7937L78.8805 33.7134L85.039 33.6331L84.9831 30.2903C84.8943 25.0002 84.0768 22.1282 82.0256 19.901C80.2315 17.9533 77.1683 17.2851 74.4715 18.2532ZM115.149 18.2194C111.614 19.3016 109.211 22.3413 108.118 27.1145C107.544 29.6188 107.62 36.3519 108.251 38.8992C109.168 42.6035 110.813 45.0269 113.318 46.3642C116.232 47.9206 120.725 47.6853 123.037 45.8554L123.878 45.1899L123.371 43.7083C123.092 42.8934 122.836 42.1914 122.803 42.1481C122.769 42.1051 122.121 42.4097 121.363 42.8255C119.771 43.6985 117.551 43.9018 116.101 43.307C113.998 42.4447 112.793 39.3709 112.483 34.0776C112.253 30.1439 112.717 27.0808 113.904 24.6876C114.992 22.4969 116.202 21.6289 118.154 21.6384C119.485 21.6449 121.793 22.4735 122.177 23.0827C122.62 23.7865 122.897 23.3292 123.191 21.4096C123.546 19.0814 123.437 18.9211 121.014 18.2152C119.188 17.6833 116.895 17.6848 115.149 18.2194ZM236.085 18.484C235.254 18.8683 234.26 19.5188 233.874 19.9295C233.232 20.6146 233.202 20.7805 233.519 21.9338L233.864 23.1912L234.975 22.1478C236.563 20.6558 237.847 20.1079 239.757 20.1079C241.647 20.1079 242.621 20.6051 243.5 22.0183C244.209 23.1598 244.305 26.1846 243.678 27.6559C242.837 29.6318 240.591 30.813 237.671 30.8163C236.243 30.818 236.236 30.8231 236.236 31.8172V32.8162L238.609 32.951C241.582 33.1196 243.076 33.8201 244.027 35.4911C246.223 39.3508 244.233 44.6289 240.367 45.1976C238.473 45.4764 236.07 44.7362 234.61 43.4244C233.967 42.8471 233.401 42.3748 233.352 42.3748C233.303 42.3748 233.102 42.8516 232.906 43.4344C232.583 44.3934 232.615 44.5635 233.243 45.2189C233.625 45.6175 234.692 46.3056 235.614 46.7483C236.989 47.4082 237.697 47.5519 239.557 47.5478C241.497 47.5436 242.062 47.4156 243.463 46.6626C246.144 45.2219 247.716 42.3991 247.716 39.0218C247.716 36.034 246.223 33.5179 243.702 32.2567C242.59 31.6999 242.528 31.6125 243.055 31.3393C244.381 30.6515 245.911 28.8729 246.388 27.4642C246.996 25.6676 246.841 22.5312 246.07 21.0703C244.863 18.7797 242.937 17.7782 239.749 17.7826C238.119 17.7847 237.228 17.9554 236.085 18.484ZM256.397 18.6541C253.684 20.342 251.915 24.0271 251.315 29.2424C250.502 36.3075 252.188 43.4765 255.246 45.963C256.688 47.1347 259.172 47.829 261.115 47.6032C262.885 47.3978 265.425 46.2552 266.418 45.2189C267.045 44.5635 267.078 44.3934 266.755 43.4344C266.559 42.8516 266.358 42.3748 266.309 42.3748C266.26 42.3748 265.696 42.8453 265.055 43.4205C263.91 44.4494 261.633 45.3381 260.142 45.3381C257.987 45.3381 255.804 43.3607 254.854 40.5494C254.437 39.314 253.757 35.0819 253.757 33.7149C253.757 33.2269 254.236 33.1886 260.366 33.1886H266.974L267.163 32.2626C267.642 29.9148 267.143 25.3579 266.111 22.6533C265.368 20.7059 263.709 18.7569 262.301 18.1788C261.767 17.9592 260.536 17.7796 259.566 17.7796C258.133 17.7796 257.54 17.9432 256.397 18.6541ZM26.1234 18.4333C26.0409 18.6443 26.0089 25.1508 26.0524 32.8923L26.131 46.9679L28.4722 47.0544L30.8134 47.1409V40.6093V34.0776H34.1364H37.4594V40.5968V47.116H39.7251H41.9908V32.596V18.076H39.7251H37.4594V24.2988V30.5217H34.1425H30.8258L30.7439 24.3729L30.6624 18.2241L28.468 18.137C26.8844 18.0742 26.2316 18.1566 26.1234 18.4333ZM49.4078 18.4407C49.3413 18.6476 49.2129 22.0171 49.1226 25.9286C48.9477 33.4912 48.4323 37.4878 47.1418 41.2923C46.5207 43.1233 46.4101 43.2638 45.5912 43.2638H44.7097V48.005V52.7462H46.6733H48.6369V49.9311V47.116H54.9808H61.3247V49.9311V52.7462H63.2883H65.2519V48.005V43.2638H64.1979H63.1439L63.0651 30.7439L62.9862 18.2241L56.2574 18.1444C51.0279 18.0825 49.5017 18.1483 49.4078 18.4407ZM89.7214 32.596V47.116H91.9817H94.2419L94.3229 40.0098L94.4038 32.9036L98.2057 39.9357L102.007 46.9679L104.474 47.0538C105.831 47.1012 106.941 47.0793 106.941 47.0052C106.941 46.9311 105.105 43.5142 102.862 39.4115C100.619 35.3089 98.7842 31.8744 98.7842 31.7787C98.7842 31.6833 100.347 28.7061 102.258 25.1626C104.169 21.6191 105.732 18.5693 105.732 18.385C105.732 18.1586 105.022 18.0783 103.542 18.137L101.352 18.2241L98.0289 24.4968C96.2013 27.9466 94.6041 30.8693 94.4794 30.9914C94.3546 31.1132 94.2528 28.2572 94.2528 24.6446V18.076H91.9871H89.7214V32.596ZM272.401 18.2597C272.282 18.3758 272.185 24.9235 272.185 32.8096V47.1486L273.62 47.0582L275.055 46.9679L275.136 40.0783L275.217 33.1886H280.196H285.175V40.1692V47.1501L286.459 47.0588L287.743 46.9679V32.596V18.2241L286.465 18.1331L285.187 18.0425L285.106 24.5042L285.024 30.9662L280.121 31.0477L275.218 31.1289L275.137 24.6767L275.055 18.2241L273.836 18.1361C273.165 18.0878 272.519 18.1432 272.401 18.2597ZM261.493 20.4172C262.008 20.7257 262.728 21.4496 263.09 22.0257C263.958 23.4021 264.682 26.8914 264.571 29.1577L264.482 30.9662H259.205H253.929L254.015 29.4846C254.254 25.3594 255.963 21.4476 257.982 20.4001C259.321 19.7055 260.311 19.7102 261.493 20.4172ZM78.6367 22.1614C79.5318 23.1316 80.0865 24.9267 80.2671 27.4405L80.4463 29.929H76.6115H72.7767L72.9417 28.8919C73.0323 28.3215 73.1809 27.3549 73.2722 26.7435C73.5752 24.7143 74.3509 22.8323 75.1337 22.2284C76.1158 21.4707 77.9667 21.4351 78.6367 22.1614ZM58.6059 32.596V43.2638H54.7104H50.8149L51.3768 41.4923C52.5196 37.8908 53.4607 30.3163 53.4673 24.6692L53.4703 21.9282H56.0381H58.6059V32.596ZM139.567 30.818C139.568 35.8562 140.09 41.6752 140.777 44.3086C142.673 51.5811 146.257 53.2935 160.638 53.7967L166.453 54V51.6383C166.453 48.0983 165.883 41.9048 165.342 39.5597C164.636 36.4992 163.658 34.5725 161.866 32.7148C158.404 29.1242 154.612 27.9988 144.659 27.6094L139.566 27.4103L139.567 30.818ZM189.031 27.6174C179.785 27.9952 175.634 29.1793 172.392 32.3634C169.03 35.6659 168.105 39.0965 167.515 50.4497L167.334 53.9315L169.386 53.9241C177.541 53.8951 184.517 53.09 187.506 51.833C190.536 50.5591 192.484 47.7662 193.485 43.2638C193.943 41.2034 194.514 29.0454 194.208 27.8548C194.11 27.4713 193.399 27.4387 189.031 27.6174Z" fill="#232631"/>
</svg>
