<svg width="38" height="38" viewBox="0 0 38 38" fill="none" xmlns="http://www.w3.org/2000/svg">
<g clip-path="url(#clip0_640_17908)">
<path d="M21.184 5.37988L12.1273 15.7679C11.7001 16.261 12.0485 17.0237 12.6991 17.0237H34.94C35.5907 17.0237 35.939 16.2544 35.5118 15.7679L26.4485 5.37988C25.0617 3.78223 22.5774 3.78223 21.184 5.37988Z" fill="url(#paint0_linear_640_17908)"/>
<path d="M33.9226 20.1406V24.5062C33.9226 27.4385 31.5434 29.8186 28.6122 29.8186H19.0231C16.0918 29.8186 13.7126 27.4385 13.7126 24.5062V20.1406H33.9226Z" fill="url(#paint1_linear_640_17908)"/>
</g>
<g filter="url(#filter0_bi_640_17908)">
<path d="M3.7636 20.7504C3.09923 19.105 3.15211 17.2569 3.90948 15.6522L6.46905 10.2289C7.95585 7.07859 11.6993 5.70939 14.8678 7.15698L19.6583 9.3456C21.1394 10.0223 22.3047 11.241 22.9144 12.751L25.6049 19.4143C26.9206 22.673 25.3456 26.3813 22.0869 27.6971L14.6442 30.7022C11.3855 32.018 7.67716 30.443 6.36139 27.1843L3.7636 20.7504Z" fill="url(#paint2_linear_640_17908)" fill-opacity="0.2"/>
</g>
<path d="M15.094 15.3119C15.4984 16.3135 15.0143 17.4532 14.0127 17.8576C13.0111 18.262 11.8714 17.7779 11.467 16.7764C11.0626 15.7748 11.5467 14.6351 12.5482 14.2307C13.5498 13.8263 14.6896 14.3103 15.094 15.3119Z" fill="url(#paint3_linear_640_17908)"/>
<path d="M14.6192 12.6104C14.7279 12.8797 14.5977 13.1862 14.3284 13.2949C14.0591 13.4037 13.7526 13.2735 13.6439 13.0042C13.5351 12.7349 13.6653 12.4284 13.9346 12.3196C14.2039 12.2109 14.5104 12.3411 14.6192 12.6104Z" fill="url(#paint4_linear_640_17908)"/>
<path fill-rule="evenodd" clip-rule="evenodd" d="M12.2354 25.2495C12.1129 24.8442 12.3422 24.4163 12.7476 24.2939L18.8501 22.45C19.2554 22.3276 19.6832 22.5569 19.8057 22.9622C19.9282 23.3675 19.6989 23.7953 19.2936 23.9178L13.191 25.7617C12.7857 25.8841 12.3579 25.6548 12.2354 25.2495Z" fill="url(#paint5_linear_640_17908)"/>
<defs>
<filter id="filter0_bi_640_17908" x="-2.69922" y="0.580078" width="34.7686" height="36.5869" filterUnits="userSpaceOnUse" color-interpolation-filters="sRGB">
<feFlood flood-opacity="0" result="BackgroundImageFix"/>
<feGaussianBlur in="BackgroundImageFix" stdDeviation="3"/>
<feComposite in2="SourceAlpha" operator="in" result="effect1_backgroundBlur_640_17908"/>
<feBlend mode="normal" in="SourceGraphic" in2="effect1_backgroundBlur_640_17908" result="shape"/>
<feColorMatrix in="SourceAlpha" type="matrix" values="0 0 0 0 0 0 0 0 0 0 0 0 0 0 0 0 0 0 127 0" result="hardAlpha"/>
<feOffset dy="0.1"/>
<feGaussianBlur stdDeviation="1"/>
<feComposite in2="hardAlpha" operator="arithmetic" k2="-1" k3="1"/>
<feColorMatrix type="matrix" values="0 0 0 0 1 0 0 0 0 1 0 0 0 0 1 0 0 0 0.74 0"/>
<feBlend mode="normal" in2="shape" result="effect2_innerShadow_640_17908"/>
</filter>
<linearGradient id="paint0_linear_640_17908" x1="11.9395" y1="11.9161" x2="38.1576" y2="11.9161" gradientUnits="userSpaceOnUse">
<stop stop-color="#8DEA33"/>
<stop offset="0.436866" stop-color="#7FD72B"/>
<stop offset="1" stop-color="#6EBE21"/>
</linearGradient>
<linearGradient id="paint1_linear_640_17908" x1="13.7126" y1="25.9694" x2="36.0133" y2="25.9694" gradientUnits="userSpaceOnUse">
<stop stop-color="#8DEA33"/>
<stop offset="0.436866" stop-color="#7FD72B"/>
<stop offset="1" stop-color="#6EBE21"/>
</linearGradient>
<linearGradient id="paint2_linear_640_17908" x1="3.30078" y1="21.388" x2="28.4247" y2="21.388" gradientUnits="userSpaceOnUse">
<stop stop-color="#8DEA33"/>
<stop offset="0.436866" stop-color="#7FD72B"/>
<stop offset="1" stop-color="#6EBE21"/>
</linearGradient>
<linearGradient id="paint3_linear_640_17908" x1="12.5482" y1="14.2308" x2="14.0127" y2="17.8577" gradientUnits="userSpaceOnUse">
<stop stop-color="white" stop-opacity="0.62"/>
<stop offset="1" stop-color="white" stop-opacity="0.75"/>
</linearGradient>
<linearGradient id="paint4_linear_640_17908" x1="13.9346" y1="12.3197" x2="14.3284" y2="13.295" gradientUnits="userSpaceOnUse">
<stop stop-color="white"/>
<stop offset="1" stop-color="white" stop-opacity="0.75"/>
</linearGradient>
<linearGradient id="paint5_linear_640_17908" x1="11.6136" y1="26.2382" x2="21.0665" y2="23.3821" gradientUnits="userSpaceOnUse">
<stop stop-color="white"/>
<stop offset="0.0001" stop-color="white" stop-opacity="0.4"/>
<stop offset="1" stop-color="white" stop-opacity="0.76"/>
</linearGradient>
<clipPath id="clip0_640_17908">
<rect width="23.7591" height="25.6348" fill="white" transform="translate(11.9375 4.18359)"/>
</clipPath>
</defs>
</svg>
