<svg width="38" height="38" viewBox="0 0 38 38" fill="none" xmlns="http://www.w3.org/2000/svg">
<rect x="15.334" y="9.5" width="19" height="19" rx="4" fill="#FF7F7F"/>
<g filter="url(#filter0_bi_640_17922)">
<rect x="1.61133" y="7.38867" width="23.2222" height="23.2222" rx="4" fill="#FF7F7F" fill-opacity="0.3"/>
</g>
<g filter="url(#filter1_b_640_17922)">
<path d="M12.0844 26.3891C11.5798 26.3891 11.1543 26.0132 11.092 25.5125L10.969 24.5237C10.9308 24.2164 10.7206 23.9644 10.4563 23.803V23.803V23.803C10.1929 23.6421 9.86896 23.5994 9.58463 23.7195L8.67011 24.1057C8.20507 24.302 7.66658 24.121 7.4146 23.6836L6.27306 21.702C6.022 21.2662 6.13371 20.7117 6.53395 20.4071L7.52772 19.6508C7.65086 19.557 7.70878 19.404 7.70878 19.2492V19.2492V18.7512V18.7512C7.70878 18.5965 7.65086 18.4434 7.52772 18.3497L6.53395 17.5934C6.13371 17.2887 6.022 16.7343 6.27306 16.2984L7.4146 14.3168C7.66658 13.8794 8.20507 13.6984 8.67011 13.8948L9.57723 14.2778C9.86623 14.3998 10.1952 14.3561 10.4658 14.1974V14.1974V14.1974C10.7294 14.0429 10.9302 13.7887 10.9679 13.4855L11.092 12.4879C11.1543 11.9872 11.5798 11.6113 12.0844 11.6113H14.3614C14.8659 11.6113 15.2915 11.9872 15.3537 12.4879L15.4767 13.4767C15.5149 13.784 15.7252 14.036 15.9895 14.1974V14.1974V14.1974C16.2529 14.3583 16.5768 14.401 16.8611 14.2809L17.7756 13.8948C18.2407 13.6984 18.7792 13.8794 19.0311 14.3168L20.1727 16.2984C20.4237 16.7343 20.312 17.2887 19.9118 17.5934L18.918 18.3497C18.7949 18.4434 18.737 18.5965 18.737 18.7512V18.7512V19.2492V19.2492C18.737 19.402 18.7802 19.5598 18.9017 19.6523L19.8934 20.4071C20.2937 20.7117 20.4054 21.2662 20.1543 21.702L19.0141 23.6813C18.7616 24.1197 18.2213 24.3004 17.7558 24.1021L16.8679 23.724C16.5794 23.6012 16.2504 23.6444 15.9799 23.803V23.803V23.803C15.7163 23.9575 15.5155 24.2117 15.4778 24.5149L15.3537 25.5125C15.2915 26.0132 14.8659 26.3891 14.3614 26.3891H12.0844ZM13.2596 21.5863C13.9703 21.5863 14.5769 21.3339 15.0793 20.829C15.5817 20.3241 15.8329 19.7145 15.8329 19.0002C15.8329 18.286 15.5817 17.6764 15.0793 17.1715C14.5769 16.6666 13.9703 16.4141 13.2596 16.4141C12.5367 16.4141 11.9269 16.6666 11.4304 17.1715C10.9339 17.6764 10.6859 18.286 10.6864 19.0002C10.6864 19.7145 10.9344 20.3241 11.4304 20.829C11.9264 21.3339 12.5362 21.5863 13.2596 21.5863Z" fill="#FF7F7F" fill-opacity="0.4"/>
<path d="M12.0844 26.3891C11.5798 26.3891 11.1543 26.0132 11.092 25.5125L10.969 24.5237C10.9308 24.2164 10.7206 23.9644 10.4563 23.803V23.803V23.803C10.1929 23.6421 9.86896 23.5994 9.58463 23.7195L8.67011 24.1057C8.20507 24.302 7.66658 24.121 7.4146 23.6836L6.27306 21.702C6.022 21.2662 6.13371 20.7117 6.53395 20.4071L7.52772 19.6508C7.65086 19.557 7.70878 19.404 7.70878 19.2492V19.2492V18.7512V18.7512C7.70878 18.5965 7.65086 18.4434 7.52772 18.3497L6.53395 17.5934C6.13371 17.2887 6.022 16.7343 6.27306 16.2984L7.4146 14.3168C7.66658 13.8794 8.20507 13.6984 8.67011 13.8948L9.57723 14.2778C9.86623 14.3998 10.1952 14.3561 10.4658 14.1974V14.1974V14.1974C10.7294 14.0429 10.9302 13.7887 10.9679 13.4855L11.092 12.4879C11.1543 11.9872 11.5798 11.6113 12.0844 11.6113H14.3614C14.8659 11.6113 15.2915 11.9872 15.3537 12.4879L15.4767 13.4767C15.5149 13.784 15.7252 14.036 15.9895 14.1974V14.1974V14.1974C16.2529 14.3583 16.5768 14.401 16.8611 14.2809L17.7756 13.8948C18.2407 13.6984 18.7792 13.8794 19.0311 14.3168L20.1727 16.2984C20.4237 16.7343 20.312 17.2887 19.9118 17.5934L18.918 18.3497C18.7949 18.4434 18.737 18.5965 18.737 18.7512V18.7512V19.2492V19.2492C18.737 19.402 18.7802 19.5598 18.9017 19.6523L19.8934 20.4071C20.2937 20.7117 20.4054 21.2662 20.1543 21.702L19.0141 23.6813C18.7616 24.1197 18.2213 24.3004 17.7558 24.1021L16.8679 23.724C16.5794 23.6012 16.2504 23.6444 15.9799 23.803V23.803V23.803C15.7163 23.9575 15.5155 24.2117 15.4778 24.5149L15.3537 25.5125C15.2915 26.0132 14.8659 26.3891 14.3614 26.3891H12.0844ZM13.2596 21.5863C13.9703 21.5863 14.5769 21.3339 15.0793 20.829C15.5817 20.3241 15.8329 19.7145 15.8329 19.0002C15.8329 18.286 15.5817 17.6764 15.0793 17.1715C14.5769 16.6666 13.9703 16.4141 13.2596 16.4141C12.5367 16.4141 11.9269 16.6666 11.4304 17.1715C10.9339 17.6764 10.6859 18.286 10.6864 19.0002C10.6864 19.7145 10.9344 20.3241 11.4304 20.829C11.9264 21.3339 12.5362 21.5863 13.2596 21.5863Z" fill="url(#paint0_linear_640_17922)" fill-opacity="0.9"/>
</g>
<ellipse cx="29.5833" cy="14.2493" rx="1.58333" ry="1.58333" fill="white"/>
<g filter="url(#filter2_bi_640_17922)">
<path fill-rule="evenodd" clip-rule="evenodd" d="M31.1675 29.5558C29.9994 29.5558 29.0035 29.144 28.1799 28.3204C27.3563 27.4967 26.9448 26.5011 26.9453 25.3336C26.9453 24.1654 27.3571 23.1695 28.1807 22.3459C29.0043 21.5223 29.9999 21.1108 31.1675 21.1113C32.3357 21.1113 33.3316 21.5231 34.1552 22.3468C34.9788 23.1704 35.3903 24.166 35.3898 25.3336C35.3898 26.5017 34.9779 27.4976 34.1543 28.3212C33.3307 29.1448 32.3351 29.5563 31.1675 29.5558ZM30.872 26.9802L32.0753 25.7558H29.0564C28.9438 25.7558 28.8453 25.7136 28.7609 25.6291C28.6764 25.5447 28.6342 25.4461 28.6342 25.3336C28.6342 25.221 28.6764 25.1224 28.7609 25.038C28.8453 24.9536 28.9438 24.9113 29.0564 24.9113H32.0964L30.872 23.6869C30.7875 23.6024 30.7453 23.5039 30.7453 23.3913C30.7453 23.2787 30.7875 23.1802 30.872 23.0958C30.9564 23.0113 31.0549 22.9691 31.1675 22.9691C31.2801 22.9691 31.3786 23.0113 31.4631 23.0958L33.1098 24.7424C33.2786 24.9113 33.3631 25.1084 33.3631 25.3336C33.3631 25.5587 33.2786 25.7558 33.1098 25.9247L31.4631 27.5713C31.3786 27.6558 31.2801 27.698 31.1675 27.698C31.0549 27.698 30.9564 27.6558 30.872 27.5713C30.7875 27.4869 30.7453 27.3884 30.7453 27.2758C30.7453 27.1632 30.7875 27.0647 30.872 26.9802Z" fill="#FDB2B2" fill-opacity="0.3"/>
</g>
<defs>
<filter id="filter0_bi_640_17922" x="-22.3887" y="-16.6113" width="71.2222" height="71.2222" filterUnits="userSpaceOnUse" color-interpolation-filters="sRGB">
<feFlood flood-opacity="0" result="BackgroundImageFix"/>
<feGaussianBlur in="BackgroundImageFix" stdDeviation="12"/>
<feComposite in2="SourceAlpha" operator="in" result="effect1_backgroundBlur_640_17922"/>
<feBlend mode="normal" in="SourceGraphic" in2="effect1_backgroundBlur_640_17922" result="shape"/>
<feColorMatrix in="SourceAlpha" type="matrix" values="0 0 0 0 0 0 0 0 0 0 0 0 0 0 0 0 0 0 127 0" result="hardAlpha"/>
<feOffset dy="0.1"/>
<feGaussianBlur stdDeviation="1"/>
<feComposite in2="hardAlpha" operator="arithmetic" k2="-1" k3="1"/>
<feColorMatrix type="matrix" values="0 0 0 0 1 0 0 0 0 1 0 0 0 0 1 0 0 0 0.25 0"/>
<feBlend mode="normal" in2="shape" result="effect2_innerShadow_640_17922"/>
</filter>
<filter id="filter1_b_640_17922" x="2.1394" y="7.61133" width="22.1667" height="22.7778" filterUnits="userSpaceOnUse" color-interpolation-filters="sRGB">
<feFlood flood-opacity="0" result="BackgroundImageFix"/>
<feGaussianBlur in="BackgroundImageFix" stdDeviation="2"/>
<feComposite in2="SourceAlpha" operator="in" result="effect1_backgroundBlur_640_17922"/>
<feBlend mode="normal" in="SourceGraphic" in2="effect1_backgroundBlur_640_17922" result="shape"/>
</filter>
<filter id="filter2_bi_640_17922" x="22.9453" y="17.1113" width="16.4443" height="16.4443" filterUnits="userSpaceOnUse" color-interpolation-filters="sRGB">
<feFlood flood-opacity="0" result="BackgroundImageFix"/>
<feGaussianBlur in="BackgroundImageFix" stdDeviation="2"/>
<feComposite in2="SourceAlpha" operator="in" result="effect1_backgroundBlur_640_17922"/>
<feBlend mode="normal" in="SourceGraphic" in2="effect1_backgroundBlur_640_17922" result="shape"/>
<feColorMatrix in="SourceAlpha" type="matrix" values="0 0 0 0 0 0 0 0 0 0 0 0 0 0 0 0 0 0 127 0" result="hardAlpha"/>
<feOffset dy="0.2"/>
<feGaussianBlur stdDeviation="2"/>
<feComposite in2="hardAlpha" operator="arithmetic" k2="-1" k3="1"/>
<feColorMatrix type="matrix" values="0 0 0 0 1 0 0 0 0 1 0 0 0 0 1 0 0 0 1 0"/>
<feBlend mode="normal" in2="shape" result="effect2_innerShadow_640_17922"/>
</filter>
<linearGradient id="paint0_linear_640_17922" x1="2.13954" y1="14.2502" x2="55.1477" y2="23.7359" gradientUnits="userSpaceOnUse">
<stop stop-color="white"/>
<stop offset="1" stop-color="white" stop-opacity="0"/>
</linearGradient>
</defs>
</svg>
