<svg width="38" height="38" viewBox="0 0 38 38" fill="none" xmlns="http://www.w3.org/2000/svg">
<g clip-path="url(#clip0_640_17893)" filter="url(#filter0_bi_640_17893)">
<path d="M21.25 31.373V6.62305C21.25 6.32468 21.1315 6.03853 20.9205 5.82755C20.7095 5.61657 20.4234 5.49805 20.125 5.49805H6.625C6.32663 5.49805 6.04048 5.61657 5.8295 5.82755C5.61853 6.03853 5.5 6.32468 5.5 6.62305V31.373" fill="#252628"/>
<path d="M21.25 31.373V6.62305C21.25 6.32468 21.1315 6.03853 20.9205 5.82755C20.7095 5.61657 20.4234 5.49805 20.125 5.49805H6.625C6.32663 5.49805 6.04048 5.61657 5.8295 5.82755C5.61853 6.03853 5.5 6.32468 5.5 6.62305V31.373" fill="url(#paint0_linear_640_17893)"/>
<path d="M32.5 31.373V15.623C32.5 15.3247 32.3815 15.0385 32.1705 14.8276C31.9595 14.6166 31.6734 14.498 31.375 14.498H21.25" fill="#252628"/>
<path d="M32.5 31.373V15.623C32.5 15.3247 32.3815 15.0385 32.1705 14.8276C31.9595 14.6166 31.6734 14.498 31.375 14.498H21.25" fill="url(#paint1_linear_640_17893)"/>
<path d="M32.5 31.373V15.623C32.5 15.3247 32.3815 15.0385 32.1705 14.8276C31.9595 14.6166 31.6734 14.498 31.375 14.498H21.25" fill="url(#paint2_linear_640_17893)"/>
<path d="M32.5 31.373V15.623C32.5 15.3247 32.3815 15.0385 32.1705 14.8276C31.9595 14.6166 31.6734 14.498 31.375 14.498H21.25" fill="url(#paint3_linear_640_17893)"/>
<path d="M32.5 31.373V15.623C32.5 15.3247 32.3815 15.0385 32.1705 14.8276C31.9595 14.6166 31.6734 14.498 31.375 14.498H21.25V31.373H32.5Z" fill="#252628"/>
<path d="M32.5 31.373V15.623C32.5 15.3247 32.3815 15.0385 32.1705 14.8276C31.9595 14.6166 31.6734 14.498 31.375 14.498H21.25V31.373H32.5Z" fill="url(#paint4_linear_640_17893)"/>
<path d="M32.5 31.373V15.623C32.5 15.3247 32.3815 15.0385 32.1705 14.8276C31.9595 14.6166 31.6734 14.498 31.375 14.498H21.25V31.373H32.5Z" fill="url(#paint5_linear_640_17893)"/>
<path d="M32.5 31.373V15.623C32.5 15.3247 32.3815 15.0385 32.1705 14.8276C31.9595 14.6166 31.6734 14.498 31.375 14.498H21.25V31.373H32.5Z" fill="url(#paint6_linear_640_17893)"/>
<path fill-rule="evenodd" clip-rule="evenodd" d="M8.5 11.123C8.5 10.2946 9.17157 9.62305 10 9.62305H14.5C15.3284 9.62305 16 10.2946 16 11.123C16 11.9515 15.3284 12.623 14.5 12.623H10C9.17157 12.623 8.5 11.9515 8.5 11.123Z" fill="url(#paint7_linear_640_17893)"/>
<path fill-rule="evenodd" clip-rule="evenodd" d="M10.75 20.123C10.75 19.2946 11.4216 18.623 12.25 18.623H16.75C17.5784 18.623 18.25 19.2946 18.25 20.123C18.25 20.9515 17.5784 21.623 16.75 21.623H12.25C11.4216 21.623 10.75 20.9515 10.75 20.123Z" fill="url(#paint8_linear_640_17893)"/>
<path fill-rule="evenodd" clip-rule="evenodd" d="M8.5 25.748C8.5 24.9196 9.17157 24.248 10 24.248H14.5C15.3284 24.248 16 24.9196 16 25.748C16 26.5765 15.3284 27.248 14.5 27.248H10C9.17157 27.248 8.5 26.5765 8.5 25.748Z" fill="url(#paint9_linear_640_17893)"/>
<path fill-rule="evenodd" clip-rule="evenodd" d="M24.25 25.748C24.25 24.9196 24.9216 24.248 25.75 24.248H28C28.8284 24.248 29.5 24.9196 29.5 25.748C29.5 26.5765 28.8284 27.248 28 27.248H25.75C24.9216 27.248 24.25 26.5765 24.25 25.748Z" fill="url(#paint10_linear_640_17893)"/>
<path fill-rule="evenodd" clip-rule="evenodd" d="M24.25 20.123C24.25 19.2946 24.9216 18.623 25.75 18.623H28C28.8284 18.623 29.5 19.2946 29.5 20.123C29.5 20.9515 28.8284 21.623 28 21.623H25.75C24.9216 21.623 24.25 20.9515 24.25 20.123Z" fill="url(#paint11_linear_640_17893)"/>
<path fill-rule="evenodd" clip-rule="evenodd" d="M1.75 31.373C1.75 30.5446 2.42157 29.873 3.25 29.873H34.75C35.5784 29.873 36.25 30.5446 36.25 31.373C36.25 32.2015 35.5784 32.873 34.75 32.873H3.25C2.42157 32.873 1.75 32.2015 1.75 31.373Z" fill="#252628"/>
<path fill-rule="evenodd" clip-rule="evenodd" d="M1.75 31.373C1.75 30.5446 2.42157 29.873 3.25 29.873H34.75C35.5784 29.873 36.25 30.5446 36.25 31.373C36.25 32.2015 35.5784 32.873 34.75 32.873H3.25C2.42157 32.873 1.75 32.2015 1.75 31.373Z" fill="url(#paint12_linear_640_17893)"/>
<path fill-rule="evenodd" clip-rule="evenodd" d="M1.75 31.373C1.75 30.5446 2.42157 29.873 3.25 29.873H34.75C35.5784 29.873 36.25 30.5446 36.25 31.373C36.25 32.2015 35.5784 32.873 34.75 32.873H3.25C2.42157 32.873 1.75 32.2015 1.75 31.373Z" fill="url(#paint13_linear_640_17893)"/>
<path fill-rule="evenodd" clip-rule="evenodd" d="M1.75 31.373C1.75 30.5446 2.42157 29.873 3.25 29.873H34.75C35.5784 29.873 36.25 30.5446 36.25 31.373C36.25 32.2015 35.5784 32.873 34.75 32.873H3.25C2.42157 32.873 1.75 32.2015 1.75 31.373Z" fill="url(#paint14_linear_640_17893)"/>
<g filter="url(#filter1_bi_640_17893)">
<rect x="13" y="3.45703" width="22.8787" height="22.522" rx="11.261" transform="rotate(-11.2338 13 3.45703)" fill="url(#paint15_linear_640_17893)" fill-opacity="0.3"/>
</g>
<path d="M23.7201 6.11673L19.8822 8.73326C19.5869 8.93455 19.5059 9.32971 19.7009 9.61573L21.4974 12.251C21.6924 12.537 22.0899 12.6059 22.3851 12.4046L24.662 10.8524L25.4618 12.0255L25.0678 12.294C24.7726 12.4953 24.6915 12.8905 24.8865 13.1765L27.5633 17.1029C28.0963 17.8847 29.1863 18.0734 29.993 17.5235C30.7996 16.9736 31.0222 15.89 30.4892 15.1082L27.8124 11.1818C27.6174 10.8958 27.2198 10.8269 26.9247 11.0281L26.5308 11.2967L25.731 10.1236L28.0079 8.57132C28.303 8.37014 28.3842 7.97486 28.1892 7.68884L27.5723 6.78389C26.727 5.54402 24.999 5.24488 23.7201 6.11673ZM29.4202 15.837C29.5637 16.0474 29.5037 16.3393 29.2866 16.4873C29.0694 16.6354 28.7758 16.5845 28.6323 16.3741L26.3087 12.9658L27.0966 12.4287L29.4202 15.837ZM21.1231 9.405L21.7623 8.96919L22.8525 10.5683L22.2132 11.0041L21.1231 9.405ZM26.767 7.89956L23.9215 9.83948L22.8313 8.24039L24.4265 7.15288C25.1159 6.68291 26.0475 6.84419 26.5033 7.5127L26.767 7.89956Z" fill="url(#paint16_linear_640_17893)"/>
</g>
<defs>
<filter id="filter0_bi_640_17893" x="-6" y="-6" width="50" height="50" filterUnits="userSpaceOnUse" color-interpolation-filters="sRGB">
<feFlood flood-opacity="0" result="BackgroundImageFix"/>
<feGaussianBlur in="BackgroundImageFix" stdDeviation="3"/>
<feComposite in2="SourceAlpha" operator="in" result="effect1_backgroundBlur_640_17893"/>
<feBlend mode="normal" in="SourceGraphic" in2="effect1_backgroundBlur_640_17893" result="shape"/>
<feColorMatrix in="SourceAlpha" type="matrix" values="0 0 0 0 0 0 0 0 0 0 0 0 0 0 0 0 0 0 127 0" result="hardAlpha"/>
<feOffset dy="0.1"/>
<feGaussianBlur stdDeviation="1"/>
<feComposite in2="hardAlpha" operator="arithmetic" k2="-1" k3="1"/>
<feColorMatrix type="matrix" values="0 0 0 0 1 0 0 0 0 1 0 0 0 0 1 0 0 0 0.74 0"/>
<feBlend mode="normal" in2="shape" result="effect2_innerShadow_640_17893"/>
</filter>
<filter id="filter1_bi_640_17893" x="8.97583" y="-5.02393" width="34.8762" height="34.5957" filterUnits="userSpaceOnUse" color-interpolation-filters="sRGB">
<feFlood flood-opacity="0" result="BackgroundImageFix"/>
<feGaussianBlur in="BackgroundImageFix" stdDeviation="3"/>
<feComposite in2="SourceAlpha" operator="in" result="effect1_backgroundBlur_640_17893"/>
<feBlend mode="normal" in="SourceGraphic" in2="effect1_backgroundBlur_640_17893" result="shape"/>
<feColorMatrix in="SourceAlpha" type="matrix" values="0 0 0 0 0 0 0 0 0 0 0 0 0 0 0 0 0 0 127 0" result="hardAlpha"/>
<feOffset dy="0.1"/>
<feGaussianBlur stdDeviation="1"/>
<feComposite in2="hardAlpha" operator="arithmetic" k2="-1" k3="1"/>
<feColorMatrix type="matrix" values="0 0 0 0 1 0 0 0 0 1 0 0 0 0 1 0 0 0 0.74 0"/>
<feBlend mode="normal" in2="shape" result="effect2_innerShadow_640_17893"/>
</filter>
<linearGradient id="paint0_linear_640_17893" x1="5.5" y1="21.0819" x2="22.8793" y2="21.0819" gradientUnits="userSpaceOnUse">
<stop stop-color="#FFB547"/>
<stop offset="0.436866" stop-color="#FF9838"/>
<stop offset="1" stop-color="#E97A2B"/>
</linearGradient>
<linearGradient id="paint1_linear_640_17893" x1="21.25" y1="24.6614" x2="33.6638" y2="24.6614" gradientUnits="userSpaceOnUse">
<stop stop-color="#8DEA33"/>
<stop offset="0.436866" stop-color="#7FD72B"/>
<stop offset="1" stop-color="#6EBE21"/>
</linearGradient>
<linearGradient id="paint2_linear_640_17893" x1="21.25" y1="24.6614" x2="33.6638" y2="24.6614" gradientUnits="userSpaceOnUse">
<stop stop-color="#EAA133"/>
<stop offset="0.0001" stop-color="#E88C37"/>
<stop offset="1" stop-color="#BE9C21"/>
</linearGradient>
<linearGradient id="paint3_linear_640_17893" x1="21.25" y1="24.6614" x2="33.6638" y2="24.6614" gradientUnits="userSpaceOnUse">
<stop stop-color="#FFB547"/>
<stop offset="0.0001" stop-color="#FF9838"/>
<stop offset="1" stop-color="#E97A2B"/>
</linearGradient>
<linearGradient id="paint4_linear_640_17893" x1="21.25" y1="24.6614" x2="33.6638" y2="24.6614" gradientUnits="userSpaceOnUse">
<stop stop-color="#8DEA33"/>
<stop offset="0.436866" stop-color="#7FD72B"/>
<stop offset="1" stop-color="#6EBE21"/>
</linearGradient>
<linearGradient id="paint5_linear_640_17893" x1="21.25" y1="24.6614" x2="33.6638" y2="24.6614" gradientUnits="userSpaceOnUse">
<stop stop-color="#EAA133"/>
<stop offset="0.0001" stop-color="#E88C37"/>
<stop offset="1" stop-color="#BE9C21"/>
</linearGradient>
<linearGradient id="paint6_linear_640_17893" x1="21.25" y1="24.6614" x2="33.6638" y2="24.6614" gradientUnits="userSpaceOnUse">
<stop stop-color="#FFB547"/>
<stop offset="0.0001" stop-color="#FF9838"/>
<stop offset="1" stop-color="#E97A2B"/>
</linearGradient>
<linearGradient id="paint7_linear_640_17893" x1="10.8463" y1="9.73259" x2="11.3554" y2="12.8848" gradientUnits="userSpaceOnUse">
<stop stop-color="white" stop-opacity="0.62"/>
<stop offset="1" stop-color="white" stop-opacity="0.75"/>
</linearGradient>
<linearGradient id="paint8_linear_640_17893" x1="13.0963" y1="18.7326" x2="13.6054" y2="21.8848" gradientUnits="userSpaceOnUse">
<stop stop-color="white" stop-opacity="0.62"/>
<stop offset="1" stop-color="white" stop-opacity="0.75"/>
</linearGradient>
<linearGradient id="paint9_linear_640_17893" x1="10.8463" y1="24.3576" x2="11.3554" y2="27.5098" gradientUnits="userSpaceOnUse">
<stop stop-color="white" stop-opacity="0.62"/>
<stop offset="1" stop-color="white" stop-opacity="0.75"/>
</linearGradient>
<linearGradient id="paint10_linear_640_17893" x1="25.8924" y1="24.3576" x2="26.601" y2="27.4286" gradientUnits="userSpaceOnUse">
<stop stop-color="white" stop-opacity="0.62"/>
<stop offset="1" stop-color="white" stop-opacity="0.75"/>
</linearGradient>
<linearGradient id="paint11_linear_640_17893" x1="25.8924" y1="18.7326" x2="26.601" y2="21.8036" gradientUnits="userSpaceOnUse">
<stop stop-color="white" stop-opacity="0.62"/>
<stop offset="1" stop-color="white" stop-opacity="0.75"/>
</linearGradient>
<linearGradient id="paint12_linear_640_17893" x1="1.75" y1="31.6799" x2="39.819" y2="31.6799" gradientUnits="userSpaceOnUse">
<stop stop-color="#8DEA33"/>
<stop offset="0.436866" stop-color="#7FD72B"/>
<stop offset="1" stop-color="#6EBE21"/>
</linearGradient>
<linearGradient id="paint13_linear_640_17893" x1="1.75" y1="31.6799" x2="39.819" y2="31.6799" gradientUnits="userSpaceOnUse">
<stop stop-color="#EAA133"/>
<stop offset="0.0001" stop-color="#E88C37"/>
<stop offset="1" stop-color="#BE9C21"/>
</linearGradient>
<linearGradient id="paint14_linear_640_17893" x1="1.75" y1="31.6799" x2="39.819" y2="31.6799" gradientUnits="userSpaceOnUse">
<stop stop-color="#FFB547"/>
<stop offset="0.0001" stop-color="#FF9838"/>
<stop offset="1" stop-color="#E97A2B"/>
</linearGradient>
<linearGradient id="paint15_linear_640_17893" x1="13" y1="17.0214" x2="38.2455" y2="17.0214" gradientUnits="userSpaceOnUse">
<stop stop-color="#FFB547"/>
<stop offset="0.436866" stop-color="#FF9838"/>
<stop offset="1" stop-color="#E97A2B"/>
</linearGradient>
<linearGradient id="paint16_linear_640_17893" x1="17.9986" y1="10.0001" x2="33.9986" y2="17" gradientUnits="userSpaceOnUse">
<stop stop-color="white"/>
<stop offset="0.0001" stop-color="white" stop-opacity="0.4"/>
<stop offset="1" stop-color="white" stop-opacity="0.76"/>
</linearGradient>
<clipPath id="clip0_640_17893">
<rect width="38" height="38" fill="white"/>
</clipPath>
</defs>
</svg>
