<svg width="246" height="92" viewBox="0 0 246 92" fill="none" xmlns="http://www.w3.org/2000/svg">
<path d="M199.8 -0.0999756H55.7L49.5 28.6H193.9L199.8 -0.0999756Z" fill="#EEEEEE"/>
<path d="M69.5003 6.20007H64.1003C63.8003 6.20007 63.6003 6.30007 63.3003 6.50007C63.1003 6.70007 62.9003 7.00007 62.8003 7.40007L59.5003 22.7001C59.4003 23.1001 59.4003 23.3001 59.6003 23.5001C59.7003 23.6001 59.9003 23.7001 60.2003 23.7001C60.9003 23.7001 61.3003 23.4001 61.5003 22.6001L63.2003 14.7001H68.9003C70.7003 14.7001 72.1003 14.3001 73.2003 13.6001C74.3003 12.8001 75.0003 11.7001 75.3003 10.2001C75.6003 8.80007 75.3003 7.80007 74.5003 7.10007C73.5003 6.60007 71.9003 6.20007 69.5003 6.20007ZM73.2003 10.6001C73.0003 11.6001 72.5003 12.2001 71.9003 12.5001C71.3003 12.8001 70.1003 13.0001 68.3003 13.0001C68.2003 13.0001 68.1003 13.0001 68.0003 13.0001H63.6003L64.6003 8.10007H69.0003C70.3003 8.10007 71.2003 8.20007 71.8003 8.30007C72.5003 8.40007 72.9003 8.70007 73.1003 9.00007C73.4003 9.40007 73.4003 9.90007 73.2003 10.6001Z" fill="black"/>
<path d="M89.8001 7.00007C88.8001 6.50007 87.6001 6.20007 86.2001 6.20007H86.1001C84.7001 6.20007 83.4001 6.50007 82.2001 7.00007C81.0001 7.50007 80.0001 8.30007 79.2001 9.30007C78.4001 10.3001 77.9001 11.4001 77.6001 12.7001L76.6001 17.5001C76.3001 18.8001 76.4001 19.9001 76.7001 20.9001C77.1001 21.9001 77.7001 22.6001 78.7001 23.1001C79.7001 23.6001 80.9001 23.9001 82.3001 23.9001C83.8001 23.9001 85.1001 23.6001 86.3001 23.1001C87.5001 22.6001 88.5001 21.8001 89.3001 20.8001C90.1001 19.8001 90.6001 18.7001 90.9001 17.4001L91.9001 12.6001C92.2001 11.3001 92.1001 10.2001 91.8001 9.20007C91.4001 8.20007 90.8001 7.50007 89.8001 7.00007ZM89.9001 12.8001L88.9001 17.4001C88.6001 18.9001 87.9001 20.1001 86.8001 20.8001C85.8001 21.6001 84.4001 22.0001 82.8001 22.0001H82.7001C81.0001 22.0001 79.8001 21.6001 79.1001 20.8001C78.4001 20.0001 78.2001 18.8001 78.5001 17.3001L79.5001 12.7001C79.8001 11.2001 80.5001 10.0001 81.6001 9.30007C82.6001 8.50007 84.0001 8.10007 85.6001 8.10007H85.7001C87.4001 8.10007 88.6001 8.50007 89.3001 9.30007C90.0001 10.1001 90.2001 11.3001 89.9001 12.8001Z" fill="black"/>
<path d="M108.4 6.50012H103.9C103.8 6.50012 103.8 6.50012 103.7 6.50012C102.1 6.50012 100.8 6.70012 99.8004 7.00012C98.8004 7.30012 98.0004 7.80012 97.4004 8.50012C96.8004 9.20012 96.4004 10.2001 96.1004 11.5001L94.5004 18.8001C94.2004 20.1001 94.2004 21.0001 94.5004 21.7001C94.8004 22.4001 95.4004 22.9001 96.3004 23.2001C97.3004 23.5001 98.7004 23.7001 100.5 23.7001H104.5C105.6 23.7001 106.4 23.4001 107 22.9001C107.6 22.4001 108 21.6001 108.3 20.5001C108.4 20.0001 108.4 19.6001 108.2 19.4001C108.1 19.3001 107.9 19.2001 107.6 19.2001C107.3 19.2001 107 19.3001 106.8 19.5001C106.6 19.7001 106.4 20.0001 106.3 20.5001C106.2 21.0001 106 21.3001 105.8 21.5001C105.6 21.7001 105.2 21.8001 104.8 21.8001H101C99.5004 21.8001 98.4004 21.7001 97.8004 21.6001C97.1004 21.4001 96.6004 21.1001 96.4004 20.6001C96.2004 20.2001 96.2004 19.5001 96.4004 18.6001L98.0004 11.4001C98.2004 10.5001 98.5004 9.90012 98.8004 9.40012C99.1004 9.00012 99.7004 8.70012 100.4 8.50012C101.1 8.40012 102.1 8.30012 103.4 8.30012H107.7C108.2 8.30012 108.5 8.40012 108.7 8.60012C108.9 8.80012 108.9 9.20012 108.8 9.70012C108.7 10.1001 108.7 10.4001 108.9 10.6001C109 10.8001 109.2 10.9001 109.5 10.9001C110.2 10.9001 110.6 10.5001 110.8 9.50012C111 8.40012 111 7.60012 110.6 7.10012C110.1 6.70012 109.4 6.50012 108.4 6.50012Z" fill="black"/>
<path d="M126.3 6.50012H121.8C121.7 6.50012 121.7 6.50012 121.6 6.50012C120 6.50012 118.7 6.70012 117.7 7.00012C116.7 7.30012 115.9 7.80012 115.3 8.50012C114.7 9.20012 114.3 10.2001 114 11.5001L112.4 18.8001C112.1 20.1001 112.1 21.0001 112.4 21.7001C112.7 22.4001 113.3 22.9001 114.2 23.2001C115.2 23.5001 116.6 23.7001 118.4 23.7001H122.4C123.5 23.7001 124.3 23.4001 124.9 22.9001C125.5 22.4001 125.9 21.6001 126.2 20.5001C126.3 20.0001 126.3 19.6001 126.1 19.4001C126 19.3001 125.8 19.2001 125.5 19.2001C125.2 19.2001 124.9 19.3001 124.7 19.5001C124.5 19.7001 124.3 20.0001 124.2 20.5001C124.1 21.0001 123.9 21.3001 123.7 21.5001C123.5 21.7001 123.1 21.8001 122.7 21.8001H118.9C117.4 21.8001 116.3 21.7001 115.7 21.6001C115 21.4001 114.5 21.1001 114.3 20.6001C114.1 20.2001 114.1 19.5001 114.3 18.6001L115.9 11.4001C116.1 10.5001 116.4 9.90012 116.7 9.40012C117 9.00012 117.6 8.60012 118.3 8.50012C119 8.40012 119.9 8.30012 121.3 8.30012H125.6C126.1 8.30012 126.4 8.40012 126.6 8.60012C126.8 8.80012 126.8 9.20012 126.7 9.70012C126.6 10.1001 126.6 10.4001 126.8 10.6001C126.9 10.8001 127.1 10.9001 127.4 10.9001C128.1 10.9001 128.5 10.5001 128.7 9.50012C128.9 8.40012 128.9 7.60012 128.5 7.10012C128.1 6.80012 127.4 6.50012 126.3 6.50012Z" fill="black"/>
<path d="M147.4 6.60002C147.3 6.50002 147.1 6.40002 146.8 6.40002C146.4 6.40002 146 6.60002 145.6 7.00002L132.3 20.8L135.2 7.60002C135.3 7.20002 135.3 6.80002 135.1 6.70002C135 6.60002 134.8 6.50002 134.5 6.50002C133.8 6.50002 133.4 6.90002 133.2 7.70002L129.9 23.1C129.8 23.5 129.8 23.8 130 23.9C130.1 24 130.3 24.1 130.6 24.1C130.9 24.1 131.1 24.1 131.2 24C131.4 23.9 131.6 23.7 131.9 23.4L145.1 9.80002L142.2 23C142.1 23.3 142.1 23.6 142.3 23.8C142.4 23.9 142.6 24 143 24C143.7 24 144.1 23.6 144.3 22.9L147.6 7.50002C147.6 7.10002 147.6 6.80002 147.4 6.60002Z" fill="black"/>
<path d="M164.7 6.70007H159.5C157.3 6.70007 155.6 7.10007 154.2 7.90007C152.9 8.70007 152 9.90007 151.7 11.4001C151.3 13.4001 151.9 14.7001 153.5 15.5001L153.8 15.6001L153.5 15.8001C152.8 16.3001 152.3 17.0001 151.8 17.8001L150.4 20.6001C150.2 21.0001 149.9 21.3001 149.5 21.6001C149.1 21.9001 148.7 22.1001 148.3 22.1001C147.4 22.1001 146.9 22.4001 146.8 23.0001C146.7 23.3001 146.8 23.5001 146.9 23.6001C147 23.8001 147.4 23.9001 147.8 23.9001C148.6 23.9001 149.5 23.6001 150.3 23.0001C151.1 22.4001 151.8 21.5001 152.4 20.5001L153.7 18.0001C154.1 17.3001 154.5 16.8001 155 16.5001C155.5 16.2001 156.2 16.1001 157.1 16.1001C157.1 16.1001 157.1 16.1001 157.2 16.1001H161.5L160 23.0001C159.9 23.4001 159.9 23.6001 160.1 23.8001C160.2 24.0001 160.5 24.0001 160.8 24.0001C161.5 24.0001 161.9 23.7001 162 22.9001L165.3 7.70007C165.4 7.30007 165.4 6.90007 165.2 6.80007C165.2 6.70007 165 6.70007 164.7 6.70007ZM161.9 14.3001H157.8C155.8 14.3001 154.6 13.9001 154 13.2001C153.6 12.7001 153.5 12.2001 153.7 11.5001C153.9 10.5001 154.5 9.70007 155.3 9.30007C156.1 8.90007 157.3 8.60007 158.9 8.60007H163.1L161.9 14.3001Z" fill="black"/>
<path d="M189.5 16.1C189.4 16 189.2 15.9 189 15.9H178.4C178.1 15.9 177.9 16 177.8 16.1C177.6 16.2 177.5 16.4 177.5 16.7C177.5 16.9 177.5 17.1 177.6 17.2C177.7 17.3 177.9 17.4 178.1 17.4H188.7C189 17.4 189.2 17.3 189.4 17.2C189.6 17.1 189.7 16.9 189.7 16.6C189.6 16.4 189.6 16.2 189.5 16.1Z" fill="black"/>
<path d="M74.6004 31.6L68.4004 60.6H186.9L193.2 31.6H74.6004Z" fill="#25649F"/>
<path d="M5.9002 63L-0.299805 91.8H239.5L245.7 63H5.9002Z" fill="#AE3857"/>
<path d="M80.6004 55.6C81.6004 55.9 83.1004 56.1 84.9004 56.1H88.9004C88.9004 56.1 88.9004 56.1 89.0004 56.1C90.1004 56.1 91.1004 55.8 91.7004 55.2C92.4004 54.6 92.9004 53.7 93.1004 52.6C93.2004 52 93.2004 51.5 92.9004 51.2C92.7004 51 92.4004 50.8 92.0004 50.8C91.6004 50.8 91.2004 50.9 90.9004 51.2C90.6004 51.5 90.4004 51.9 90.3004 52.4C90.2004 52.9 90.0004 53.1 89.9004 53.2C89.8004 53.3 89.5004 53.4 89.1004 53.4H85.3004C83.8004 53.4 82.8004 53.3 82.2004 53.2C81.6004 53.1 81.3004 52.8 81.1004 52.5C81.0004 52.1 81.0004 51.5 81.2004 50.7L82.8004 43.5C83.0004 42.7 83.2004 42.1 83.5004 41.7C83.8004 41.3 84.2004 41.1 84.8004 41C85.4004 40.9 86.4004 40.8 87.7004 40.8H92.0004C92.5004 40.8 92.6004 40.9 92.7004 41C92.7004 41 92.8004 41.2 92.7004 41.7C92.6004 42.2 92.6004 42.6 92.8004 42.9C93.0004 43.2 93.3004 43.4 93.8004 43.4C94.4004 43.4 95.2004 43.1 95.5004 41.7C95.8004 40.5 95.7004 39.6 95.2004 39C94.7004 38.4 93.9004 38.1 92.7004 38.1H88.2004C86.5004 38.1 85.1004 38.3 84.0004 38.6C82.9004 38.9 82.0004 39.5 81.4004 40.3C80.8004 41.1 80.3004 42.1 80.0004 43.4L78.4004 50.7C78.1004 52 78.1004 53.1 78.5004 53.9C78.8004 54.6 79.5004 55.2 80.6004 55.6Z" fill="white"/>
<path d="M98.9003 40.8H102.7L99.7003 54.8C99.6003 55.3 99.7003 55.6 99.9003 55.9C100.1 56.2 100.5 56.3 101 56.3C101.5 56.3 101.9 56.2 102.2 55.9C102.5 55.6 102.8 55.3 102.9 54.9L105.9 40.8H109.8C111.1 40.8 111.5 40.1 111.6 39.5C111.7 39.1 111.6 38.8 111.4 38.5C111.2 38.2 110.8 38.1 110.2 38.1H99.4003C98.9003 38.1 98.5003 38.2 98.2003 38.4C97.9003 38.6 97.7003 39 97.6003 39.4C97.5003 39.8 97.6003 40.2 97.8003 40.4C98.1003 40.6 98.4003 40.8 98.9003 40.8Z" fill="white"/>
<path d="M110.8 56C111 56.2 111.3 56.4 111.8 56.4C112.7 56.4 113.3 55.9 113.5 55L115.1 47.5H120.5C122.3 47.5 123.9 47.1 125 46.3C126.2 45.5 126.9 44.3 127.3 42.7C127.6 41.1 127.3 39.9 126.3 39.2C125.3 38.5 123.6 38.1 121.1 38.1H115.7C115.3 38.1 114.9 38.2 114.6 38.5C114.3 38.8 114.1 39.1 114 39.6L110.7 54.9C110.6 55.3 110.6 55.7 110.8 56ZM116.6 40.7H120.6C121.9 40.7 122.8 40.8 123.4 40.9C123.9 41 124.3 41.2 124.4 41.4C124.6 41.7 124.6 42.1 124.4 42.6C124.2 43.4 123.9 44 123.3 44.2C122.7 44.5 121.5 44.6 119.6 44.6H115.7L116.6 40.7Z" fill="white"/>
<path d="M125.4 55.4C125.3 55.7 125.4 56 125.7 56.3C125.9 56.5 126.2 56.7 126.6 56.7C127.2 56.7 127.7 56.4 128.2 55.7L131.1 51.1H138.5L139.4 55.6C139.5 56.3 140 56.6 140.6 56.6C141 56.6 141.3 56.5 141.6 56.3C141.9 56.1 142.1 55.8 142.2 55.5C142.3 55.2 142.3 55 142.3 54.7L139 38.3V38.1H136.1L125.7 54.6C125.5 54.9 125.4 55.1 125.4 55.4ZM136.5 42.4L137.8 48.4H132.7L136.5 42.4Z" fill="white"/>
<path d="M145.7 56.5C146.6 56.5 147.2 56 147.4 55L148.9 47.9H158.4L156.9 54.9C156.8 55.4 156.8 55.8 157.1 56.1C157.3 56.3 157.6 56.5 158.1 56.5C159 56.5 159.6 56 159.8 55L163.1 39.6C163.2 39.1 163.2 38.7 162.9 38.4C162.7 38.2 162.4 38 161.9 38C161.3 38 160.5 38.3 160.2 39.5L159 45.2H149.5L150.7 39.6C150.8 39.1 150.8 38.7 150.5 38.4C150.3 38.1 150 38 149.5 38C148.9 38 148.1 38.3 147.9 39.5L144.6 54.9C144.5 55.4 144.5 55.8 144.8 56.1C144.9 56.3 145.2 56.5 145.7 56.5Z" fill="white"/>
<path d="M161.8 55.5C161.7 55.8 161.8 56.1 162.1 56.4C162.3 56.6 162.6 56.8 163 56.8C163.6 56.8 164.2 56.5 164.6 55.8L167.5 51.2H174.9L175.8 55.7C175.9 56.4 176.4 56.7 177 56.8C177.4 56.8 177.7 56.7 178 56.5C178.3 56.3 178.5 56 178.6 55.7C178.7 55.4 178.7 55.2 178.7 54.9L175.4 38.5V38.3H172.5L162.1 54.8C162 55 161.9 55.2 161.8 55.5ZM173 42.5L174.3 48.5H169.2L173 42.5Z" fill="white"/>
<path d="M23.6003 68.7C22.6003 68.4 21.3003 68.2 19.6003 68.2H14.3003C13.9003 68.2 13.5003 68.3 13.3003 68.6C13.0003 68.9 12.8003 69.2 12.7003 69.7L9.50026 84.6C9.40026 85.1 9.40025 85.5 9.60025 85.8C9.80025 86.1 10.1003 86.3 10.5003 86.3H16.7003C16.8003 86.3 16.9003 86.3 17.0003 86.3C18.7003 86.3 20.2003 86.1 21.2003 85.8C22.4003 85.5 23.3003 84.9 23.9003 84.1C24.6003 83.3 25.0003 82.3 25.3003 80.9L25.4003 80.4C25.9003 78.3 25.5003 76.7 24.3003 75.8C25.0003 75.1 25.6003 74.1 25.8003 73C26.0003 71.9 26.0003 70.9 25.6003 70.2C25.3003 69.5 24.6003 69 23.6003 68.7ZM22.6003 80.4L22.5003 80.8C22.3003 81.6 22.1003 82.2 21.8003 82.6C21.5003 83 21.0003 83.2 20.4003 83.3C19.7003 83.4 18.6003 83.5 17.2003 83.5H12.5003L13.7003 77.7H19.0003C20.3003 77.7 21.2003 77.8 21.7003 77.9C22.2003 78 22.5003 78.3 22.6003 78.6C22.8003 79 22.8003 79.6 22.6003 80.4ZM23.0003 73C22.9003 73.6 22.7003 74 22.4003 74.3C22.1003 74.6 21.6003 74.8 21.0003 74.9C20.3003 75 19.4003 75.1 18.1003 75.1H14.3003L15.2003 71.1H19.1003C20.3003 71.1 21.3003 71.2 21.9003 71.3C22.5003 71.4 22.8003 71.6 23.0003 71.8C23.1003 72 23.1003 72.4 23.0003 73Z" fill="white"/>
<path d="M42.1004 68.9C41.1004 68.3 39.8004 68 38.3004 68C36.8004 68 35.4004 68.3 34.2004 68.8C32.9004 69.4 31.9004 70.2 31.1004 71.2C30.3004 72.2 29.7004 73.4 29.4004 74.8L28.4004 79.6C28.1004 81 28.2004 82.2 28.5004 83.2C28.9004 84.3 29.6004 85.1 30.7004 85.6C31.7004 86.2 33.0004 86.5 34.5004 86.5H34.6004C36.1004 86.5 37.4004 86.2 38.6004 85.7C39.9004 85.1 40.9004 84.3 41.7004 83.3C42.5004 82.3 43.1004 81.1 43.4004 79.7L44.4004 74.9C44.7004 73.5 44.6004 72.3 44.3004 71.3C43.8004 70.3 43.1004 69.4 42.1004 68.9ZM41.5004 74.9L40.5004 79.5C40.2004 80.9 39.6004 82 38.6004 82.7C37.6004 83.4 36.4004 83.8 34.8004 83.8C33.3004 83.8 32.2004 83.4 31.5004 82.7C30.9004 82 30.7004 80.9 31.0004 79.6L32.0004 75C32.3004 73.6 32.9004 72.5 33.9004 71.8C34.8004 71.1 36.1004 70.7 37.6004 70.7H37.7004C39.3004 70.7 40.4004 71.1 41.0004 71.8C41.7004 72.6 41.8004 73.6 41.5004 74.9Z" fill="white"/>
<path d="M60.5004 68.9C59.7004 68.5 58.7004 68.3 57.5004 68.3H51.9004C50.6004 68.3 49.7004 68.6 49.0004 69.2C48.4004 69.8 47.9004 70.9 47.5004 72.4C47.4004 73 47.4004 73.4 47.7004 73.7C47.9004 73.9 48.2004 74.1 48.6004 74.1C49.2004 74.1 50.0004 73.8 50.3004 72.5L50.4004 72C50.5004 71.5 50.7004 71.2 50.7004 71.2C50.8004 71.1 51.0004 71 51.5004 71H56.7004C57.7004 71 58.5004 71.2 59.0004 71.7C59.5004 72.2 59.7004 72.7 59.5004 73.4C59.4004 74.1 59.0004 74.6 58.3004 75C57.6004 75.4 56.8004 75.6 55.7004 75.6H53.3004C52.0004 75.6 51.5004 76.3 51.4004 76.9C51.3004 77.3 51.4004 77.6 51.6004 77.9C51.8004 78.2 52.3004 78.3 52.9004 78.3H55.3004C56.3004 78.3 57.0004 78.5 57.5004 79C58.0004 79.5 58.1004 80 58.0004 80.7C57.8004 81.5 57.4004 82.1 56.6004 82.7C55.8004 83.2 55.0004 83.5 54.0004 83.5H48.8004C48.3004 83.5 48.1004 83.4 48.1004 83.4C48.1004 83.4 48.0004 83.2 48.1004 82.6L48.2004 82.1C48.3004 81.5 48.3004 81.1 48.0004 80.8C47.8004 80.6 47.5004 80.4 47.1004 80.4C46.5004 80.4 45.7004 80.7 45.4004 82C45.1004 83.5 45.1004 84.6 45.5004 85.2C45.9004 85.9 46.8004 86.2 48.0004 86.2H53.6004C53.6004 86.2 53.6004 86.2 53.7004 86.2C54.8004 86.2 55.9004 86 56.8004 85.5C57.8004 85.1 58.7004 84.4 59.3004 83.6C60.0004 82.8 60.4004 81.9 60.6004 80.9C60.9004 79.3 60.7004 77.9 59.8004 76.9C61.1004 76 62.0004 74.7 62.3004 73.1C62.5004 72.1 62.4004 71.2 62.1004 70.5C61.9004 70 61.3004 69.4 60.5004 68.9Z" fill="white"/>
<path d="M81.3001 68.2C80.8001 68.2 80.3001 68.5 79.8001 68.9L73.2001 75.7L69.6001 68.9C69.3001 68.4 68.9001 68.1 68.3001 68.1C67.7001 68.1 66.9001 68.4 66.7001 69.6L63.4001 85C63.3001 85.5 63.3001 85.9 63.6001 86.2C63.8001 86.4 64.1001 86.6 64.6001 86.6C65.2001 86.6 66.0001 86.3 66.3001 85L68.9001 72.9L71.7001 78.3C72.0001 78.6 72.3001 78.8 72.7001 78.8C73.1001 78.8 73.5001 78.7 73.8001 78.4L78.9001 73L76.3001 84.9C76.2001 85.5 76.2001 85.9 76.5001 86.2C76.7001 86.4 77.0001 86.6 77.4001 86.6C78.3001 86.6 78.9001 86.1 79.1001 85.1L82.4001 69.7C82.5001 69.2 82.5001 68.7 82.2001 68.5C82.0001 68.3 81.7001 68.2 81.3001 68.2Z" fill="white"/>
<path d="M99.6002 71.5C99.2002 70.4 98.5002 69.6 97.4002 69.1C96.4002 68.5 95.1002 68.2 93.6002 68.2C92.1002 68.2 90.7002 68.5 89.5002 69C88.2002 69.6 87.2002 70.4 86.4002 71.4C85.6002 72.4 85.0002 73.6 84.7002 75L83.7002 79.8C83.4002 81.2 83.5002 82.4 83.8002 83.4C84.2002 84.5 84.9002 85.3 86.0002 85.8C87.0002 86.4 88.3002 86.7 89.8002 86.7H89.9002C91.4002 86.7 92.7002 86.4 94.0002 85.9C95.3002 85.3 96.3002 84.5 97.1002 83.5C97.9002 82.5 98.5002 81.3 98.8002 79.9L99.8002 75.1C100.1 73.8 100 72.5 99.6002 71.5ZM97.0002 75.1L96.0002 79.7C95.7002 81.1 95.1002 82.2 94.1002 82.9C93.1002 83.6 91.9002 84 90.3002 84C88.8002 84 87.7002 83.6 87.0002 82.9C86.4002 82.2 86.2002 81.1 86.5002 79.8L87.5002 75.2C87.8002 73.8 88.4002 72.7 89.4002 72C90.3002 71.3 91.6002 70.9 93.1002 70.9H93.2002C94.8002 70.9 95.9002 71.3 96.5002 72C97.1002 72.7 97.2002 73.8 97.0002 75.1Z" fill="white"/>
<path d="M124.7 70.5C124.8 70.1 124.7 69.7 124.4 69.5C124.1 69.3 123.7 69.1 123.2 69.1C122.5 69.1 121.6 69.4 120.7 69.9C120 70.4 119.3 71 118.6 71.6C118 72.3 117.2 73.1 116.4 74.1C115.6 75 115.1 75.6 114.7 76C114.2 76.5 114 76.6 113.8 76.6L115.1 70.6C115.2 70.1 115.2 69.7 114.9 69.4C114.7 69.1 114.4 69 113.9 69C113.5 69 113.1 69.1 112.8 69.4C112.5 69.7 112.3 70 112.2 70.5L110.9 76.6C110.7 76.6 110.5 76.4 110.3 76C110 75.6 109.8 75 109.4 74.1C109.1 73.2 108.7 72.5 108.4 71.8C108 70.9 107.4 70.1 106.8 69.6C106.1 69.1 105.4 68.8 104.6 68.8C103.4 68.8 102.9 69.5 102.8 70.1C102.7 70.6 102.9 71 103.1 71.1C103.4 71.3 103.7 71.5 104.2 71.5C104.5 71.5 104.8 71.8 105.1 72.3C105.4 72.9 105.8 73.8 106.2 75C106.6 76 106.9 76.7 107.2 77.2C106.4 77.6 105.6 78.1 104.9 78.8C104.1 79.6 103.5 80.4 103.1 81.2C102.9 81.7 102.5 82.3 102.1 83.2C102 83.4 101.9 83.6 101.8 83.7C101.7 83.8 101.6 83.8 101.6 83.8C100.3 83.8 99.8004 84.5 99.7004 85.1C99.6004 85.6 99.8004 86 100 86.1C100.3 86.3 100.7 86.5 101.2 86.5C102.1 86.5 102.9 86.2 103.6 85.8C104.3 85.3 105 84.6 105.5 83.7C106 82.8 106.4 82.1 106.7 81.6C107.1 80.8 107.7 80.3 108.3 79.9C108.9 79.5 109.6 79.3 110.4 79.3L109.2 85.1C109.1 85.5 109.2 85.9 109.4 86.2C109.6 86.5 109.9 86.6 110.4 86.6C110.8 86.6 111.2 86.5 111.5 86.2C111.8 85.9 112.1 85.6 112.1 85.2L113.4 79.4C114.2 79.4 114.9 79.6 115.3 80C115.6 80.3 115.8 80.7 115.9 81.2C116 81.7 116.1 82.3 116.2 83.1C116.2 83.3 116.2 83.5 116.3 83.9C116.4 84.8 116.7 85.5 117.3 86C117.9 86.5 118.6 86.8 119.5 86.8C120.9 86.8 121.3 86.1 121.5 85.5C121.6 85.1 121.5 84.7 121.2 84.5C120.9 84.3 120.5 84.1 120.1 84.1C120 84.1 120 84 119.9 83.9C119.8 83.7 119.8 83.4 119.8 83C119.8 82 119.6 81 119.3 80C119.2 79.5 118.9 79 118.5 78.5C118.2 78.1 117.8 77.8 117.3 77.5C117.8 77 118.5 76.2 119.2 75.4C120.1 74.2 120.9 73.4 121.5 72.8C122 72.2 122.5 71.9 122.9 71.9C123.4 71.9 123.8 71.8 124.2 71.5C124.4 71.3 124.6 70.9 124.7 70.5Z" fill="white"/>
<path d="M141.6 68.4C141 68.4 140.2 68.7 139.9 69.9L138.7 75.6H129.2L130.4 70C130.5 69.5 130.5 69.1 130.2 68.8C130 68.5 129.7 68.4 129.2 68.4C128.6 68.4 127.8 68.7 127.6 69.9L124.3 85.3C124.2 85.8 124.2 86.2 124.5 86.5C124.7 86.7 125 86.9 125.5 86.9C126.4 86.9 127 86.4 127.2 85.4L128.7 78.3H138.2L136.7 85.3C136.6 85.8 136.6 86.2 136.9 86.5C137.1 86.7 137.4 86.9 137.9 86.9C138.8 86.9 139.4 86.4 139.6 85.4L142.9 70C143 69.5 143 69.1 142.7 68.8C142.3 68.5 142 68.4 141.6 68.4Z" fill="white"/>
<path d="M157.8 69.2C156.8 68.6 155.5 68.3 154 68.3C152.5 68.3 151.1 68.6 149.9 69.1C148.6 69.7 147.6 70.5 146.8 71.5C146 72.5 145.4 73.7 145.1 75.1L144.1 79.9C143.8 81.3 143.9 82.5 144.2 83.5C144.6 84.6 145.3 85.4 146.4 85.9C147.4 86.5 148.7 86.8 150.2 86.8H150.3C151.8 86.8 153.1 86.5 154.3 86C155.6 85.4 156.6 84.6 157.4 83.6C158.2 82.6 158.8 81.4 159.1 80L160.1 75.2C160.4 73.8 160.3 72.6 160 71.6C159.5 70.6 158.8 69.8 157.8 69.2ZM157.3 75.3L156.3 79.9C156 81.3 155.4 82.4 154.4 83.1C153.4 83.8 152.1 84.2 150.6 84.2C149.1 84.2 148 83.8 147.3 83.1C146.7 82.4 146.5 81.3 146.8 80L147.8 75.4C148.1 74 148.7 72.9 149.7 72.2C150.6 71.5 151.9 71.1 153.4 71.1H153.5C155.1 71.1 156.2 71.5 156.8 72.2C157.4 72.9 157.5 74 157.3 75.3Z" fill="white"/>
<path d="M176.1 68.7H171.6C169.9 68.7 168.5 68.9 167.4 69.2C166.3 69.5 165.4 70.1 164.8 70.9C164.2 71.7 163.7 72.7 163.4 74L161.8 81.3C161.5 82.6 161.5 83.7 161.9 84.5C162.2 85.3 162.9 85.9 164 86.2C165 86.5 166.5 86.7 168.3 86.7H172.3C172.3 86.7 172.3 86.7 172.4 86.7C173.5 86.7 174.5 86.4 175.1 85.8C175.8 85.2 176.3 84.3 176.5 83.2C176.6 82.6 176.6 82.1 176.3 81.8C176.1 81.6 175.8 81.4 175.4 81.4C175 81.4 174.6 81.5 174.3 81.8C174 82.1 173.8 82.5 173.7 83C173.6 83.5 173.4 83.7 173.3 83.8C173.2 83.9 172.9 84 172.5 84H168.7C167.2 84 166.2 83.9 165.6 83.8C165 83.7 164.7 83.4 164.5 83.1C164.4 82.7 164.4 82.1 164.6 81.3L166.2 74.1C166.4 73.3 166.6 72.7 166.9 72.3C167.2 71.9 167.6 71.7 168.2 71.6C168.8 71.5 169.8 71.4 171.1 71.4H175.4C175.9 71.4 176 71.5 176.1 71.6C176.1 71.6 176.2 71.8 176.1 72.3C176 72.8 176 73.2 176.2 73.5C176.4 73.8 176.7 74 177.2 74C177.8 74 178.6 73.7 178.9 72.3C179.2 71.1 179.1 70.2 178.6 69.6C178.2 69 177.3 68.7 176.1 68.7Z" fill="white"/>
<path d="M195 70.2C195.1 69.8 195 69.5 194.8 69.2C194.6 68.9 194.2 68.8 193.6 68.8H182.8C182.3 68.8 181.9 68.9 181.6 69.2C181.3 69.4 181.1 69.8 181 70.2C180.9 70.7 181.1 71 181.2 71.2C181.4 71.5 181.8 71.6 182.3 71.6H186.1L183.1 85.6C183 86.1 183.1 86.4 183.3 86.7C183.5 87 183.9 87.1 184.4 87.1C184.9 87.1 185.3 87 185.6 86.7C185.9 86.4 186.2 86.1 186.3 85.7L189.3 71.6H193.2C194.5 71.5 194.9 70.8 195 70.2Z" fill="white"/>
<path d="M212.5 70.3C212.6 69.8 212.5 69.5 212.3 69.2C212.1 69 211.7 68.8 211.2 68.8H199.1C198.7 68.8 198.3 68.9 198.1 69.2C197.8 69.5 197.6 69.8 197.5 70.3L194.3 85.2C194.2 85.7 194.2 86.1 194.4 86.4C194.6 86.7 194.9 86.9 195.3 86.9H207.4C207.9 86.9 208.3 86.8 208.6 86.6C208.9 86.4 209.1 86.1 209.2 85.7C209.3 85.2 209.2 84.9 209 84.6C208.8 84.4 208.4 84.2 207.9 84.2H197.3L198.6 78.2H205.8C207 78.2 207.7 77.8 207.8 76.9C207.9 76.4 207.8 76 207.5 75.8C207.2 75.6 206.8 75.4 206.2 75.4H199.1L199.9 71.5H210.6C211.1 71.5 211.5 71.4 211.8 71.2C212.2 71 212.4 70.7 212.5 70.3Z" fill="white"/>
<path d="M221.4 69.7H224.7C224.7 69.7 224.7 69.7 224.8 69.7C225.9 69.7 226.8 69.4 227.4 68.8C228 68.2 228.5 67.3 228.8 65.9L229.1 64.5H226.3L225.9 66.3C225.8 66.8 225.7 66.9 225.7 66.9C225.7 66.9 225.6 67 225.1 67H222.2C221.8 67 221.7 66.9 221.7 66.9C221.7 66.9 221.7 66.8 221.8 66.3L222.2 64.4H219.4L219.1 65.7C218.8 67.1 218.8 68.1 219.2 68.7C219.4 69.4 220.2 69.7 221.4 69.7Z" fill="white"/>
<path d="M230.4 69C230.2 68.8 229.9 68.6 229.5 68.6C229 68.6 228.5 68.9 228 69.3L215.7 82L218.2 70.2C218.3 69.6 218.3 69.2 218 68.9C217.8 68.7 217.5 68.5 217.1 68.5C216.5 68.5 215.7 68.8 215.4 70L212.1 85.4C212 85.9 212 86.3 212.3 86.6C212.5 86.8 212.8 87 213.2 87C213.5 87 213.8 86.9 214 86.8C214.2 86.7 214.5 86.5 214.8 86.1L226.9 73.5L224.3 85.4C224.2 85.9 224.2 86.3 224.5 86.5C224.7 86.7 225 86.9 225.5 86.9C226.4 86.9 227 86.4 227.2 85.4L230.5 70C230.7 69.7 230.7 69.3 230.4 69Z" fill="white"/>
<path d="M74.7003 6.90005C73.7003 6.20005 72.0003 5.80005 69.5003 5.80005H64.1003C63.7003 5.80005 63.3003 5.90005 63.0003 6.20005C62.7003 6.50005 62.5003 6.80005 62.4003 7.30005L59.1003 22.6C59.0003 23.1 59.0003 23.5001 59.3003 23.7001C59.5003 23.9001 59.8003 24.1 60.3003 24.1C61.2003 24.1 61.8003 23.6001 62.0003 22.7001L63.6003 15.2001H69.0003C70.8003 15.2001 72.4003 14.8 73.5003 14C74.7003 13.2 75.4003 12.0001 75.8003 10.4001C76.0003 8.80005 75.7003 7.60005 74.7003 6.90005ZM75.3003 10.3C75.0003 11.8 74.3003 12.9001 73.2003 13.7001C72.1003 14.5001 70.7003 14.8 68.9003 14.8H63.2003L61.5003 22.7001C61.3003 23.4001 60.9003 23.8 60.2003 23.8C59.9003 23.8 59.7003 23.7 59.6003 23.6C59.5003 23.4 59.5003 23.2 59.5003 22.8L62.8003 7.50005C62.9003 7.10005 63.0003 6.80005 63.3003 6.60005C63.5003 6.40005 63.8003 6.30005 64.1003 6.30005H69.5003C71.9003 6.30005 73.5003 6.60005 74.4003 7.30005C75.3003 7.90005 75.6003 8.90005 75.3003 10.3Z" fill="white"/>
<path d="M71.8001 8.3001C71.2001 8.2001 70.2001 8.1001 69.0001 8.1001H64.6001L63.6001 13.0001H68.0001C68.1001 13.0001 68.2001 13.0001 68.3001 13.0001C70.1001 13.0001 71.3001 12.8001 71.9001 12.5001C72.6001 12.2001 73.0001 11.6001 73.2001 10.6001C73.3001 9.9001 73.3001 9.4001 73.1001 9.1001C72.9001 8.7001 72.5001 8.4001 71.8001 8.3001ZM72.8001 10.5001C72.6001 11.3001 72.3001 11.9001 71.7001 12.1001C71.1001 12.4001 69.9001 12.5001 68.0001 12.5001H64.1001L65.0001 8.5001H69.0001C70.2001 8.5001 71.2001 8.6001 71.8001 8.7001C72.3001 8.8001 72.7001 9.0001 72.8001 9.2001C72.9001 9.5001 73.0001 9.9001 72.8001 10.5001Z" fill="white"/>
<path d="M85.7002 8.00012C84.0002 8.00012 82.7002 8.40012 81.6002 9.20012C80.6002 10.0001 79.9002 11.1001 79.5002 12.6001L78.5002 17.2001C78.2002 18.7001 78.4002 19.9001 79.1002 20.7001C79.8002 21.5001 81.0002 21.9001 82.7002 21.9001H82.8002C84.4002 21.9001 85.8002 21.5001 86.8002 20.7001C87.8002 19.9001 88.5002 18.8001 88.9002 17.3001L89.9002 12.7001C90.2002 11.2001 90.0002 10.1001 89.3002 9.20012C88.6002 8.40012 87.4002 8.00012 85.7002 8.00012ZM89.5002 12.7001L88.5002 17.3001C88.2002 18.7001 87.6002 19.8001 86.6002 20.5001C85.6002 21.2001 84.3002 21.6001 82.8002 21.6001C81.3002 21.6001 80.2002 21.2001 79.5002 20.5001C78.9002 19.8001 78.7002 18.7001 79.0002 17.4001L80.0002 12.8001C80.3002 11.4001 80.9002 10.3001 81.9002 9.60012C82.8002 8.90012 84.1002 8.50012 85.6002 8.50012H85.7002C87.3002 8.50012 88.4002 8.90012 89.0002 9.60012C89.6002 10.3001 89.8002 11.4001 89.5002 12.7001Z" fill="white"/>
<path d="M90.0003 6.60007C89.0003 6.00007 87.7003 5.70007 86.2003 5.70007C84.7003 5.70007 83.3003 6.00007 82.1003 6.50007C80.8003 7.10007 79.8003 7.90007 79.0003 8.90007C78.2003 9.90007 77.6003 11.1001 77.3003 12.5001L76.3003 17.3001C76.0003 18.7001 76.1003 19.9001 76.4003 20.9001C76.8003 22.0001 77.5003 22.8001 78.6003 23.3001C79.6003 23.9001 80.9003 24.2001 82.4003 24.2001H82.5003C84.0003 24.2001 85.3003 23.9001 86.5003 23.4001C87.8003 22.8001 88.8003 22.0001 89.6003 21.0001C90.4003 20.0001 91.0003 18.8001 91.3003 17.4001L92.3003 12.6001C92.6003 11.2001 92.5003 10.0001 92.2003 9.00007C91.8003 8.00007 91.0003 7.20007 90.0003 6.60007ZM91.9003 12.6001L90.9003 17.4001C90.6003 18.7001 90.1003 19.9001 89.3003 20.8001C88.5003 21.8001 87.5003 22.5001 86.3003 23.1001C85.1003 23.6001 83.8003 23.9001 82.3003 23.9001C80.9003 23.9001 79.7003 23.6001 78.7003 23.1001C77.8003 22.6001 77.1003 21.8001 76.7003 20.9001C76.3003 19.9001 76.3003 18.8001 76.6003 17.5001L77.6003 12.7001C77.9003 11.4001 78.4003 10.2001 79.2003 9.30007C80.0003 8.30007 81.0003 7.60007 82.2003 7.00007C83.4003 6.50007 84.7003 6.20007 86.1003 6.20007H86.2003C87.6003 6.20007 88.8003 6.50007 89.8003 7.00007C90.7003 7.50007 91.4003 8.30007 91.8003 9.20007C92.1003 10.2001 92.2003 11.3001 91.9003 12.6001Z" fill="white"/>
<path d="M108.401 6.1001H103.901C102.201 6.1001 100.801 6.3001 99.7006 6.6001C98.6006 6.9001 97.7006 7.5001 97.1006 8.3001C96.5006 9.1001 96.0006 10.1001 95.7006 11.4001L94.1006 18.7001C93.8006 20.0001 93.8006 21.1001 94.2006 21.9001C94.5006 22.7001 95.2006 23.3001 96.3006 23.6001C97.3006 23.9001 98.8006 24.1001 100.601 24.1001H104.601C104.601 24.1001 104.601 24.1001 104.701 24.1001C105.801 24.1001 106.801 23.8001 107.401 23.2001C108.101 22.6001 108.601 21.7001 108.801 20.6001C108.901 20.0001 108.901 19.5001 108.601 19.2001C108.401 19.0001 108.101 18.8001 107.701 18.8001C107.301 18.8001 106.901 18.9001 106.601 19.2001C106.301 19.5001 106.101 19.9001 106.001 20.4001C105.901 20.9001 105.701 21.1001 105.601 21.2001C105.501 21.3001 105.201 21.4001 104.801 21.4001H101.001C99.5006 21.4001 98.5006 21.3001 97.9006 21.2001C97.3006 21.1001 97.0006 20.8001 96.8006 20.5001C96.7006 20.1001 96.7006 19.5001 96.9006 18.7001L98.5006 11.5001C98.7006 10.7001 98.9006 10.1001 99.2006 9.7001C99.5006 9.3001 99.9006 9.1001 100.501 9.0001C101.101 8.9001 102.101 8.8001 103.401 8.8001H107.701C108.201 8.8001 108.301 8.9001 108.401 9.0001C108.401 9.0001 108.501 9.2001 108.401 9.7001C108.301 10.2001 108.301 10.6001 108.501 10.9001C108.701 11.2001 109.001 11.4001 109.501 11.4001C110.101 11.4001 110.901 11.1001 111.201 9.7001C111.501 8.5001 111.401 7.6001 110.901 7.0001C110.401 6.4001 109.601 6.1001 108.401 6.1001ZM110.701 9.6001C110.501 10.5001 110.101 10.9001 109.401 11.0001C109.101 11.0001 108.901 10.9001 108.801 10.7001C108.701 10.5001 108.701 10.2001 108.701 9.8001C108.801 9.3001 108.801 8.9001 108.601 8.7001C108.401 8.5001 108.101 8.4001 107.601 8.4001H103.301C102.001 8.4001 101.001 8.5001 100.301 8.6001C99.6006 8.8001 99.1006 9.1001 98.7006 9.5001C98.4006 9.9001 98.1006 10.6001 97.9006 11.5001L96.3006 18.7001C96.1006 19.6001 96.1006 20.3001 96.3006 20.7001C96.5006 21.2001 96.9006 21.5001 97.7006 21.7001C98.4006 21.9001 99.5006 21.9001 100.901 21.9001H104.701C105.201 21.9001 105.501 21.8001 105.701 21.6001C105.901 21.4001 106.101 21.1001 106.201 20.6001C106.301 20.2001 106.501 19.9001 106.701 19.6001C106.901 19.4001 107.201 19.3001 107.501 19.3001C107.801 19.3001 108.001 19.4001 108.101 19.5001C108.301 19.7001 108.301 20.1001 108.201 20.6001C108.001 21.7001 107.501 22.5001 106.901 23.0001C106.301 23.5001 105.401 23.7001 104.401 23.8001H100.401C98.6006 23.8001 97.2006 23.6001 96.2006 23.3001C95.3006 23.0001 94.7006 22.5001 94.4006 21.8001C94.1006 21.1001 94.1006 20.1001 94.4006 18.9001L96.0006 11.6001C96.3006 10.4001 96.7006 9.4001 97.3006 8.6001C97.9006 7.9001 98.7006 7.4001 99.7006 7.1001C100.701 6.8001 102.001 6.6001 103.601 6.6001C103.701 6.6001 103.701 6.6001 103.801 6.6001H108.301C109.301 6.6001 110.101 6.9001 110.401 7.3001C110.901 7.7001 111.001 8.5001 110.701 9.6001Z" fill="white"/>
<path d="M126.3 6.1001H121.8C120.1 6.1001 118.7 6.3001 117.6 6.6001C116.5 6.9001 115.6 7.5001 115 8.3001C114.4 9.1001 113.9 10.1001 113.6 11.4001L112 18.7001C111.7 20.0001 111.7 21.1001 112.1 21.9001C112.4 22.7001 113.1 23.3001 114.2 23.6001C115.2 23.9001 116.7 24.1001 118.5 24.1001H122.5C122.5 24.1001 122.5 24.1001 122.6 24.1001C123.7 24.1001 124.7 23.8001 125.3 23.2001C126 22.6001 126.5 21.7001 126.7 20.6001C126.8 20.0001 126.8 19.5001 126.5 19.2001C126.3 19.0001 126 18.8001 125.6 18.8001C125.2 18.8001 124.8 18.9001 124.5 19.2001C124.2 19.5001 124 19.9001 123.9 20.4001C123.8 20.9001 123.6 21.1001 123.5 21.2001C123.4 21.3001 123.2 21.4001 122.7 21.4001H118.9C117.4 21.4001 116.4 21.3001 115.8 21.2001C115.2 21.1001 114.9 20.8001 114.7 20.5001C114.6 20.1001 114.6 19.5001 114.8 18.7001L116.4 11.5001C116.6 10.7001 116.8 10.1001 117.1 9.7001C117.4 9.3001 117.8 9.1001 118.4 9.0001C119 8.9001 120 8.8001 121.3 8.8001H125.6C126.1 8.8001 126.2 8.9001 126.3 8.9001C126.3 8.9001 126.4 9.1001 126.3 9.6001C126.2 10.1001 126.2 10.5001 126.4 10.8001C126.6 11.1001 126.9 11.3001 127.4 11.3001C128 11.3001 128.8 11.0001 129.1 9.6001C129.4 8.4001 129.3 7.5001 128.8 6.9001C128.3 6.4001 127.5 6.1001 126.3 6.1001ZM128.7 9.6001C128.5 10.5001 128.1 10.9001 127.4 11.0001C127.1 11.0001 126.9 10.9001 126.8 10.7001C126.7 10.5001 126.7 10.2001 126.7 9.8001C126.8 9.3001 126.8 8.9001 126.6 8.7001C126.4 8.5001 126.1 8.4001 125.6 8.4001H121.3C120 8.4001 119 8.5001 118.3 8.6001C117.6 8.8001 117.1 9.1001 116.7 9.5001C116.4 9.9001 116.1 10.6001 115.9 11.5001L114.3 18.7001C114.1 19.6001 114.1 20.3001 114.3 20.7001C114.5 21.2001 114.9 21.5001 115.7 21.7001C116.4 21.9001 117.4 21.9001 118.9 21.9001H122.7C123.2 21.9001 123.5 21.8001 123.7 21.6001C123.9 21.4001 124.1 21.1001 124.2 20.6001C124.3 20.2001 124.4 19.9001 124.7 19.6001C124.9 19.4001 125.2 19.3001 125.5 19.3001C125.8 19.3001 126 19.4001 126.1 19.5001C126.3 19.7001 126.3 20.1001 126.2 20.6001C126 21.7001 125.5 22.5001 124.9 23.0001C124.3 23.5001 123.4 23.7001 122.4 23.8001H118.4C116.6 23.8001 115.2 23.6001 114.2 23.3001C113.3 23.0001 112.7 22.5001 112.4 21.8001C112.1 21.1001 112.1 20.1001 112.4 18.9001L114 11.6001C114.3 10.4001 114.7 9.4001 115.3 8.6001C115.9 7.9001 116.7 7.4001 117.7 7.1001C118.7 6.8001 120 6.6001 121.6 6.6001C121.7 6.6001 121.7 6.6001 121.8 6.6001H126.3C127.3 6.6001 128.1 6.9001 128.4 7.3001C128.8 7.8001 128.9 8.6001 128.7 9.6001Z" fill="white"/>
<path d="M147.7 6.40002C147.5 6.20002 147.2 6.00002 146.8 6.00002C146.3 6.00002 145.8 6.20002 145.3 6.70002L133 19.4L135.5 7.60002C135.6 7.00002 135.6 6.60002 135.3 6.30002C135.1 6.10002 134.8 5.90002 134.4 5.90002C133.8 5.90002 133 6.20002 132.7 7.40002L129.4 22.8C129.3 23.3 129.3 23.7 129.6 24C129.8 24.2 130.1 24.4 130.5 24.4C130.8 24.4 131.1 24.3 131.3 24.2C131.5 24.1 131.8 23.9 132.1 23.5L144.3 11L141.7 22.9C141.6 23.4 141.6 23.8 141.9 24C142.1 24.2 142.4 24.4 142.9 24.4C143.8 24.4 144.4 23.9 144.6 22.9L147.9 7.50002C148 7.00002 148 6.60002 147.7 6.40002ZM147.5 7.50002L144.2 22.9C144 23.7 143.6 24 142.9 24C142.6 24 142.4 23.9 142.2 23.8C142.1 23.6 142.1 23.4 142.1 23L145 9.60002L131.8 23.2C131.5 23.5 131.3 23.7 131.1 23.8C130.9 23.9 130.7 23.9 130.5 23.9C130.2 23.9 130 23.8 129.9 23.7C129.8 23.5 129.7 23.3 129.8 22.9L133.1 7.50002C133.3 6.70002 133.7 6.30002 134.4 6.30002C134.7 6.30002 134.9 6.40002 135 6.50002C135.1 6.70002 135.2 7.00002 135.1 7.40002L132.2 20.6L145.6 7.00002C146 6.60002 146.4 6.40002 146.8 6.40002C147.1 6.40002 147.3 6.50002 147.4 6.60002C147.6 6.80002 147.6 7.10002 147.5 7.50002Z" fill="white"/>
<path d="M155.3 9.20002C154.4 9.70002 153.9 10.4 153.7 11.4C153.5 12.1 153.7 12.7 154 13.1C154.6 13.8 155.8 14.2 157.8 14.2H161.9L163.1 8.40002H158.9C157.4 8.50002 156.2 8.70002 155.3 9.20002ZM161.6 13.9H157.8C156 13.9 154.8 13.6 154.3 12.9C154 12.5 153.9 12.1 154.1 11.5C154.3 10.6 154.8 10 155.5 9.60002C156.2 9.20002 157.4 9.00002 158.8 9.00002H158.9H162.6L161.6 13.9Z" fill="white"/>
<path d="M164.7 6.20007H159.5H159.4C157.2 6.20007 155.4 6.60007 154 7.50007C152.6 8.40007 151.7 9.70007 151.3 11.3001C150.9 13.3001 151.5 14.8001 153.1 15.7001C152.5 16.2001 152 16.9001 151.6 17.7001L150.2 20.5001C150 20.8001 149.8 21.1001 149.4 21.4001C149.1 21.7001 148.8 21.8001 148.5 21.8001C147.1 21.8001 146.7 22.5001 146.6 23.1001C146.5 23.5001 146.6 23.8001 146.8 24.1001C147 24.4001 147.5 24.5001 148.1 24.5001C149.1 24.5001 150 24.2001 150.9 23.5001C151.8 22.8001 152.5 22.0001 153.1 20.9001L154.4 18.4001C154.7 17.8001 155.1 17.3001 155.5 17.1001C156 16.8001 156.6 16.7001 157.4 16.7001H161.1L159.7 23.1001C159.6 23.6001 159.6 24.0001 159.9 24.2001C160.1 24.5001 160.5 24.6001 160.9 24.6001C161.8 24.6001 162.3 24.1001 162.5 23.2001L165.8 8.00007C165.9 7.40007 165.9 7.00007 165.6 6.70007C165.4 6.40007 165.1 6.20007 164.7 6.20007ZM165.3 7.80007L162 23.0001C161.8 23.7001 161.4 24.1001 160.8 24.1001C160.5 24.1001 160.2 24.0001 160.1 23.9001C160 23.7001 160 23.5001 160 23.1001L161.5 16.2001H157.2C157.2 16.2001 157.2 16.2001 157.1 16.2001C156.2 16.2001 155.5 16.4001 155 16.6001C154.5 16.9001 154 17.4001 153.7 18.1001L152.4 20.6001C151.9 21.6001 151.2 22.5001 150.3 23.1001C149.5 23.7001 148.6 24.0001 147.8 24.0001C147.3 24.0001 147 23.9001 146.9 23.7001C146.8 23.6001 146.8 23.4001 146.8 23.1001C146.9 22.5001 147.4 22.2001 148.3 22.2001C148.7 22.2001 149.1 22.0001 149.5 21.7001C149.9 21.4001 150.2 21.0001 150.4 20.7001L151.8 17.9001C152.2 17.1001 152.8 16.4001 153.5 15.9001L153.8 15.7001L153.5 15.6001C151.8 14.8001 151.2 13.5001 151.7 11.5001C152 10.0001 152.9 8.80007 154.2 8.00007C155.5 7.20007 157.3 6.80007 159.5 6.80007H164.7C165 6.80007 165.2 6.90007 165.3 7.00007C165.4 7.00007 165.4 7.40007 165.3 7.80007Z" fill="white"/>
<path d="M189.801 15.8001C189.601 15.6001 189.301 15.5001 188.901 15.5001H178.301C178.001 15.5001 177.601 15.6001 177.401 15.8001C177.101 16.0001 177.001 16.3001 176.901 16.6001C176.801 17.0001 176.901 17.3001 177.101 17.5001C177.301 17.7001 177.601 17.8001 177.901 17.8001H188.501C188.901 17.8001 189.201 17.7001 189.401 17.5001C189.601 17.3001 189.801 17.0001 189.901 16.7001C190.001 16.3001 190.001 16.0001 189.801 15.8001ZM189.501 16.6001C189.401 16.9001 189.301 17.1001 189.201 17.2001C189.001 17.3001 188.801 17.4001 188.501 17.4001H177.901C177.701 17.4001 177.501 17.3001 177.401 17.2001C177.301 17.1001 177.301 16.9001 177.301 16.7001C177.401 16.4001 177.501 16.3001 177.601 16.1001C177.801 16.0001 178.001 15.9001 178.201 15.9001H188.801C189.101 15.9001 189.201 16.0001 189.301 16.1001C189.601 16.2001 189.601 16.4001 189.501 16.6001Z" fill="white"/>
</svg>
