<svg width="75" height="26" viewBox="0 0 75 26" fill="none" xmlns="http://www.w3.org/2000/svg">
<path fill-rule="evenodd" clip-rule="evenodd" d="M9.19531 12.1063H12.0576V1.5918H9.19531V12.1063ZM7.63086 13.605H13.6196V0.0947266H7.63086V13.605Z" fill="white"/>
<path fill-rule="evenodd" clip-rule="evenodd" d="M0.109375 16.5688H25.5649V15.0762H0.109375V16.5688Z" fill="white"/>
<path fill-rule="evenodd" clip-rule="evenodd" d="M1.66602 22.4023H9.0239V19.5527H1.66602V22.4023ZM0.109375 25.5835H1.66737V23.8923H10.5837V18.0596H0.109375V25.5835Z" fill="white"/>
<path fill-rule="evenodd" clip-rule="evenodd" d="M19.5752 1.59176V13.6048H21.138V4.5886L23.9996 1.59295V13.6048H25.5639V0.0947266H23.3674L21.138 2.42173V0.0947266H18.9424L15.1484 4.02169V13.6048H16.7132V4.58919L19.5752 1.59176Z" fill="white"/>
<path fill-rule="evenodd" clip-rule="evenodd" d="M13.668 22.4023H18.0092V19.5527H13.668V22.4023ZM19.6328 22.4023H24.0071V19.5527H19.6328V22.4023ZM12.1074 23.8923H18.0077V25.5835H19.633V23.8923H25.5651V18.0596H12.1074V23.8923Z" fill="white"/>
<path fill-rule="evenodd" clip-rule="evenodd" d="M1.67383 4.58999L4.53488 1.59375V12.1072H1.67383V4.58999ZM4.53476 13.6048H6.0987V0.0947266H3.90293L0.109375 4.02169V13.6048H4.53476Z" fill="white"/>
<rect x="32.6953" width="0.804143" height="25.7324" fill="#8BC540"/>
<path d="M44.0066 16.5485C43.0099 16.5485 42.1868 16.2208 41.5371 15.5653C40.8874 14.9098 40.5625 14.1014 40.5625 13.14C40.5625 12.1724 40.8874 11.3639 41.5371 10.7147C42.1868 10.0592 43.0099 9.73145 44.0066 9.73145C44.6058 9.73145 45.1577 9.87191 45.6623 10.1528C46.1733 10.4275 46.5707 10.8021 46.8545 11.2765L45.7286 11.9226C45.5646 11.6292 45.3312 11.4014 45.0284 11.2391C44.7256 11.0705 44.385 10.9862 44.0066 10.9862C43.3632 10.9862 42.8428 11.186 42.4454 11.5855C42.0543 11.9851 41.8588 12.5032 41.8588 13.14C41.8588 13.7705 42.0543 14.2855 42.4454 14.6851C42.8428 15.0846 43.3632 15.2844 44.0066 15.2844C44.385 15.2844 44.7256 15.2032 45.0284 15.0409C45.3375 14.8723 45.5709 14.6445 45.7286 14.3573L46.8545 15.0034C46.5707 15.4779 46.1764 15.8556 45.6718 16.1365C45.1672 16.4112 44.6121 16.5485 44.0066 16.5485Z" fill="white"/>
<path d="M51.9978 11.7354V16.4174H50.7772V12.8684H48.8943V16.4174H47.6738V11.7354H51.9978Z" fill="white"/>
<path d="M55.8694 11.6043C56.5065 11.6043 57.049 11.8446 57.4968 12.3253C57.951 12.7998 58.1781 13.3834 58.1781 14.0764C58.1781 14.7693 57.951 15.3562 57.4968 15.8368C57.049 16.3113 56.5065 16.5485 55.8694 16.5485C55.2071 16.5485 54.6962 16.3207 54.3366 15.8649V18.2902H53.1161V11.7354H54.3366V12.2878C54.6962 11.8321 55.2071 11.6043 55.8694 11.6043ZM54.7056 15.0315C54.9516 15.275 55.2639 15.3967 55.6423 15.3967C56.0208 15.3967 56.333 15.275 56.5791 15.0315C56.8314 14.7818 56.9575 14.4634 56.9575 14.0764C56.9575 13.6893 56.8314 13.3741 56.5791 13.1306C56.333 12.8809 56.0208 12.7561 55.6423 12.7561C55.2639 12.7561 54.9516 12.8809 54.7056 13.1306C54.4596 13.3741 54.3366 13.6893 54.3366 14.0764C54.3366 14.4634 54.4596 14.7818 54.7056 15.0315Z" fill="white"/>
<path d="M63.0695 15.8368C62.5838 16.3113 61.9909 16.5485 61.2907 16.5485C60.5906 16.5485 59.9977 16.3113 59.512 15.8368C59.0326 15.3562 58.7929 14.7693 58.7929 14.0764C58.7929 13.3834 59.0326 12.7998 59.512 12.3253C59.9977 11.8446 60.5906 11.6043 61.2907 11.6043C61.9909 11.6043 62.5838 11.8446 63.0695 12.3253C63.5552 12.7998 63.7981 13.3834 63.7981 14.0764C63.7981 14.7693 63.5552 15.3562 63.0695 15.8368ZM60.373 15.0034C60.619 15.2469 60.9249 15.3686 61.2907 15.3686C61.6566 15.3686 61.9625 15.2469 62.2085 15.0034C62.4545 14.76 62.5775 14.451 62.5775 14.0764C62.5775 13.7018 62.4545 13.3928 62.2085 13.1493C61.9625 12.9059 61.6566 12.7841 61.2907 12.7841C60.9249 12.7841 60.619 12.9059 60.373 13.1493C60.1333 13.3928 60.0134 13.7018 60.0134 14.0764C60.0134 14.451 60.1333 14.76 60.373 15.0034Z" fill="white"/>
<path d="M66.9086 16.5485C66.1958 16.5485 65.5998 16.3113 65.1204 15.8368C64.6473 15.3624 64.4107 14.7756 64.4107 14.0764C64.4107 13.3772 64.6473 12.7904 65.1204 12.3159C65.5998 11.8415 66.1958 11.6043 66.9086 11.6043C67.3691 11.6043 67.7886 11.7135 68.167 11.932C68.5455 12.1505 68.8325 12.4439 69.028 12.8122L67.9778 13.4209C67.8832 13.2274 67.7381 13.0744 67.5426 12.9621C67.3533 12.8497 67.1389 12.7935 66.8992 12.7935C66.5333 12.7935 66.2305 12.9152 65.9908 13.1587C65.7511 13.3959 65.6313 13.7018 65.6313 14.0764C65.6313 14.4447 65.7511 14.7506 65.9908 14.9941C66.2305 15.2313 66.5333 15.3499 66.8992 15.3499C67.1452 15.3499 67.3628 15.2968 67.552 15.1907C67.7476 15.0784 67.8926 14.9254 67.9872 14.7319L69.047 15.3312C68.8388 15.6995 68.5455 15.996 68.167 16.2208C67.7886 16.4393 67.3691 16.5485 66.9086 16.5485Z" fill="white"/>
<path d="M73.1451 11.7354H74.0534V16.4174H72.8613V13.758L70.6378 16.4174H69.7295V11.7354H70.9216V14.3948L73.1451 11.7354Z" fill="white"/>
</svg>
