<svg width="144" height="50" viewBox="0 0 144 50" fill="none" xmlns="http://www.w3.org/2000/svg">
<path fill-rule="evenodd" clip-rule="evenodd" d="M17.7539 23.3784H23.2811V3.07422H17.7539V23.3784ZM14.7344 26.273H26.299V0.183594H14.7344V26.273Z" fill="white"/>
<path fill-rule="evenodd" clip-rule="evenodd" d="M0.210938 31.9957H49.3673V29.1133H0.210938V31.9957Z" fill="white"/>
<path fill-rule="evenodd" clip-rule="evenodd" d="M3.21875 43.2605H17.4274V37.7578H3.21875V43.2605ZM0.210938 49.4043H3.21954V46.1385H20.4375V34.875H0.210938V49.4043Z" fill="white"/>
<path fill-rule="evenodd" clip-rule="evenodd" d="M37.8023 3.07447V26.2726H40.8201V8.86158L46.3461 3.07676V26.2726H49.367V0.183594H45.1252L40.8201 4.6772V0.183594H36.5803L29.2539 7.76684V26.2726H32.2755V8.86272L37.8023 3.07447Z" fill="white"/>
<path fill-rule="evenodd" clip-rule="evenodd" d="M26.3906 43.2605H34.7739V37.7578H26.3906V43.2605ZM37.9102 43.2605H46.3573V37.7578H37.9102V43.2605ZM23.3789 46.1385H34.7727V49.4043H37.9113V46.1385H49.3666V34.875H23.3789V46.1385Z" fill="white"/>
<path fill-rule="evenodd" clip-rule="evenodd" d="M3.23047 8.86408L8.75536 3.07812V23.3804H3.23047V8.86408ZM8.75666 26.2726H11.7767V0.183594H7.53656L0.210938 7.76684V26.2726H8.75666Z" fill="white"/>
<rect x="63.1367" width="1.55286" height="49.6911" fill="#8BC540"/>
<path d="M84.9788 31.9572C83.0543 31.9572 81.4647 31.3243 80.2101 30.0585C78.9554 28.7927 78.3281 27.2316 78.3281 25.3751C78.3281 23.5065 78.9554 21.9454 80.2101 20.6917C81.4647 19.4259 83.0543 18.793 84.9788 18.793C86.136 18.793 87.2018 19.0642 88.1763 19.6067C89.1629 20.1371 89.9303 20.8604 90.4785 21.7766L88.3042 23.0243C87.9875 22.4577 87.5368 22.0177 86.9521 21.7043C86.3674 21.3788 85.7097 21.2161 84.9788 21.2161C83.7364 21.2161 82.7315 21.6018 81.9641 22.3734C81.2089 23.1449 80.8313 24.1455 80.8313 25.3751C80.8313 26.5927 81.2089 27.5872 81.9641 28.3587C82.7315 29.1303 83.7364 29.516 84.9788 29.516C85.7097 29.516 86.3674 29.3593 86.9521 29.0459C87.549 28.7204 87.9997 28.2804 88.3042 27.7258L90.4785 28.9736C89.9303 29.8898 89.169 30.6191 88.1946 31.1616C87.2201 31.692 86.1482 31.9572 84.9788 31.9572Z" fill="white"/>
<path d="M100.41 22.6627V31.7041H98.0534V24.8507H94.4175V31.7041H92.0605V22.6627H100.41Z" fill="white"/>
<path d="M107.887 22.4095C109.117 22.4095 110.165 22.8736 111.03 23.8019C111.907 24.7181 112.345 25.8452 112.345 27.1834C112.345 28.5215 111.907 29.6547 111.03 30.5829C110.165 31.4991 109.117 31.9572 107.887 31.9572C106.608 31.9572 105.621 31.5172 104.927 30.6372V35.3206H102.57V22.6627H104.927V23.7296C105.621 22.8495 106.608 22.4095 107.887 22.4095ZM105.64 29.0278C106.115 29.498 106.718 29.733 107.448 29.733C108.179 29.733 108.782 29.498 109.257 29.0278C109.744 28.5456 109.988 27.9308 109.988 27.1834C109.988 26.4359 109.744 25.8272 109.257 25.357C108.782 24.8748 108.179 24.6337 107.448 24.6337C106.718 24.6337 106.115 24.8748 105.64 25.357C105.164 25.8272 104.927 26.4359 104.927 27.1834C104.927 27.9308 105.164 28.5456 105.64 29.0278Z" fill="white"/>
<path d="M121.791 30.5829C120.853 31.4991 119.708 31.9572 118.356 31.9572C117.004 31.9572 115.859 31.4991 114.921 30.5829C113.995 29.6547 113.532 28.5215 113.532 27.1834C113.532 25.8452 113.995 24.7181 114.921 23.8019C115.859 22.8736 117.004 22.4095 118.356 22.4095C119.708 22.4095 120.853 22.8736 121.791 23.8019C122.729 24.7181 123.198 25.8452 123.198 27.1834C123.198 28.5215 122.729 29.6547 121.791 30.5829ZM116.584 28.9736C117.059 29.4437 117.649 29.6788 118.356 29.6788C119.062 29.6788 119.653 29.4437 120.128 28.9736C120.603 28.5034 120.841 27.9067 120.841 27.1834C120.841 26.4601 120.603 25.8633 120.128 25.3932C119.653 24.923 119.062 24.6879 118.356 24.6879C117.649 24.6879 117.059 24.923 116.584 25.3932C116.121 25.8633 115.889 26.4601 115.889 27.1834C115.889 27.9067 116.121 28.5034 116.584 28.9736Z" fill="white"/>
<path d="M129.204 31.9572C127.828 31.9572 126.677 31.4991 125.751 30.5829C124.838 29.6667 124.381 28.5335 124.381 27.1834C124.381 25.8332 124.838 24.7 125.751 23.7838C126.677 22.8676 127.828 22.4095 129.204 22.4095C130.094 22.4095 130.904 22.6205 131.634 23.0424C132.365 23.4643 132.919 24.0309 133.297 24.7422L131.269 25.9176C131.086 25.5439 130.806 25.2485 130.429 25.0315C130.063 24.8145 129.649 24.706 129.186 24.706C128.48 24.706 127.895 24.9411 127.432 25.4113C126.969 25.8694 126.738 26.4601 126.738 27.1834C126.738 27.8946 126.969 28.4853 127.432 28.9555C127.895 29.4136 128.48 29.6426 129.186 29.6426C129.661 29.6426 130.081 29.5402 130.447 29.3352C130.824 29.1182 131.105 28.8229 131.287 28.4492L133.334 29.6065C132.932 30.3177 132.365 30.8903 131.634 31.3243C130.904 31.7462 130.094 31.9572 129.204 31.9572Z" fill="white"/>
<path d="M141.247 22.6627H143.001V31.7041H140.699V26.5686L136.406 31.7041H134.652V22.6627H136.954V27.7982L141.247 22.6627Z" fill="white"/>
</svg>
