<svg width="64" height="64" viewBox="0 0 64 64" fill="none" xmlns="http://www.w3.org/2000/svg">
<path d="M63.9998 37.6802H0.112305V41.392H63.9998V37.6802Z" fill="#0D0D0D"/>
<path d="M0.112305 63.9999H4.04904V59.7258H26.4322V45.1036H0.112305V63.9999ZM4.04904 48.8154H22.4954V56.014H4.04904V48.8154Z" fill="#0D0D0D"/>
<path d="M30.144 59.7258H44.9911V63.9999H49.0404V59.7258H63.8875V45.1036H30.144V59.7258ZM49.0404 48.8154H60.0632V56.014H49.0404V48.8154ZM34.0808 48.8154H44.9911V56.014H34.0808V48.8154Z" fill="#0D0D0D"/>
<path d="M33.9666 0H18.8945V33.8559H33.9666V0ZM30.0299 30.1441H22.8313V3.82425H30.0299V30.1441Z" fill="#0D0D0D"/>
<path d="M41.7292 11.3603L48.9278 3.82425V33.9684H52.8645V11.3603L59.9506 3.82425V33.9684H63.8874V0H58.376L52.8645 5.84886V0H47.3531L37.7925 9.89807V33.9684H41.7292V11.3603Z" fill="#0D0D0D"/>
<path d="M11.1353 33.9684H15.0721V30.2566V0H9.56063L0 9.89807V30.1441V33.8559H3.93673H11.1353V33.9684ZM4.04921 11.3603L11.2478 3.82425V30.1441H4.04921V11.3603Z" fill="#0D0D0D"/>
</svg>
