<svg width="126" height="36" viewBox="0 0 126 36" fill="none" xmlns="http://www.w3.org/2000/svg">
<path d="M51.1909 16.3125L48.5539 13.0815L51.1009 10.0125H49.8679L47.4739 12.8385V10.0125H46.4389V16.3125H47.4739V13.3155L49.9579 16.3125H51.1909Z" fill="#686D82"/>
<path d="M53.5097 16.4295C54.8327 16.4295 55.8857 15.3945 55.8857 14.0625C55.8857 12.7215 54.8327 11.6955 53.5097 11.6955C52.1957 11.6955 51.1337 12.7215 51.1337 14.0625C51.1337 15.3945 52.1957 16.4295 53.5097 16.4295ZM53.5097 15.4845C52.7177 15.4845 52.1057 14.8815 52.1057 14.0625C52.1057 13.2435 52.7177 12.6405 53.5097 12.6405C54.3017 12.6405 54.9137 13.2435 54.9137 14.0625C54.9137 14.8815 54.3017 15.4845 53.5097 15.4845Z" fill="#686D82"/>
<path d="M59.7976 11.8125V13.6035H57.7366V11.8125H56.7646V16.3125H57.7366V14.5215H59.7976V16.3125H60.7696V11.8125H59.7976Z" fill="#686D82"/>
<path d="M64.0214 16.4295C64.9034 16.4295 65.6684 15.9705 66.0464 15.2595L65.2094 14.7825C64.9934 15.1965 64.5524 15.4755 64.0124 15.4755C63.2204 15.4755 62.6174 14.8725 62.6174 14.0625C62.6174 13.2525 63.2204 12.6495 64.0124 12.6495C64.5524 12.6495 64.9934 12.9195 65.1914 13.3425L66.0284 12.8565C65.6684 12.1545 64.9034 11.6955 64.0214 11.6955C62.6624 11.6955 61.6454 12.7215 61.6454 14.0625C61.6454 15.3945 62.6624 16.4295 64.0214 16.4295Z" fill="#686D82"/>
<path d="M69.6325 11.8125L68.4805 15.0885L67.1125 11.8125H66.0775L67.9675 16.2765L67.9405 16.3395C67.7155 16.9425 67.3735 17.2395 66.7435 17.2035V18.1125C67.7335 18.1755 68.5165 17.5995 68.9395 16.4565L70.6675 11.8125H69.6325Z" fill="#686D82"/>
<path d="M74.8008 11.8125H71.3539V14.3775C71.3539 15.2235 71.0568 15.4935 70.5258 15.4035V16.3125C71.6329 16.4205 72.3259 15.8985 72.3259 14.4225V12.7485H73.8288V16.3125H74.8008V11.8125Z" fill="#686D82"/>
<path d="M77.8955 13.3425H76.9055V11.8125H75.9335V16.3125H77.8955C78.8495 16.3125 79.5335 15.7095 79.5335 14.8275C79.5335 13.9365 78.8495 13.3425 77.8955 13.3425ZM77.9045 15.4395H76.9055V14.2155H77.9045C78.2825 14.2155 78.5795 14.4495 78.5795 14.8275C78.5795 15.1965 78.2825 15.4395 77.9045 15.4395Z" fill="#686D82"/>
<path d="M83.2739 11.8125H79.3589V12.7485H80.8349V16.3125H81.8069V12.7485H83.2739V11.8125Z" fill="#686D82"/>
<path d="M87.3198 11.8125V12.4515C86.9778 11.9835 86.4468 11.6955 85.7448 11.6955C84.5208 11.6955 83.5038 12.7215 83.5038 14.0625C83.5038 15.3945 84.5208 16.4295 85.7448 16.4295C86.4468 16.4295 86.9778 16.1415 87.3198 15.6645V16.3125H88.2918V11.8125H87.3198ZM85.8978 15.5025C85.0878 15.5025 84.4758 14.8995 84.4758 14.0625C84.4758 13.2255 85.0878 12.6225 85.8978 12.6225C86.7078 12.6225 87.3198 13.2255 87.3198 14.0625C87.3198 14.8995 86.7078 15.5025 85.8978 15.5025Z" fill="#686D82"/>
<path d="M93.2947 15.3945V11.8125H92.3227V15.3945H90.3967V11.8125H89.4247V16.3125H93.0787V17.5185H94.0327V15.3945H93.2947Z" fill="#686D82"/>
<path d="M98.0792 11.8125L95.7752 14.6655V11.8125H94.8212V16.3125H95.5682L97.8722 13.4505V16.3125H98.8262V11.8125H98.0792Z" fill="#686D82"/>
<path d="M102.078 16.4295C103.401 16.4295 104.454 15.3945 104.454 14.0625C104.454 12.7215 103.401 11.6955 102.078 11.6955C100.764 11.6955 99.702 12.7215 99.702 14.0625C99.702 15.3945 100.764 16.4295 102.078 16.4295ZM102.078 15.4845C101.286 15.4845 100.674 14.8815 100.674 14.0625C100.674 13.2435 101.286 12.6405 102.078 12.6405C102.87 12.6405 103.482 13.2435 103.482 14.0625C103.482 14.8815 102.87 15.4845 102.078 15.4845Z" fill="#686D82"/>
<path d="M108.366 11.8125V13.6035H106.305V11.8125H105.333V16.3125H106.305V14.5215H108.366V16.3125H109.338V11.8125H108.366Z" fill="#686D82"/>
<path d="M113.499 11.8125V13.6035H111.438V11.8125H110.466V16.3125H111.438V14.5215H113.499V16.3125H114.471V11.8125H113.499Z" fill="#686D82"/>
<path d="M117.561 13.3425H116.571V11.8125H115.599V16.3125H117.561C118.515 16.3125 119.199 15.7095 119.199 14.8275C119.199 13.9365 118.515 13.3425 117.561 13.3425ZM119.739 11.8125V16.3125H120.711V11.8125H119.739ZM117.57 15.4395H116.571V14.2155H117.57C117.948 14.2155 118.245 14.4495 118.245 14.8275C118.245 15.1965 117.948 15.4395 117.57 15.4395Z" fill="#686D82"/>
<path d="M122.577 11.1825H125.097V10.3365H122.577V11.1825ZM125.097 11.8125L122.793 14.6655V11.8125H121.839V16.3125H122.586L124.89 13.4505V16.3125H125.844V11.8125H125.097Z" fill="#686D82"/>
<path d="M50.2459 24.3945V20.8125H49.2739V24.3945H47.3479V20.8125H46.3759V25.3125H50.0299V26.5185H50.9839V24.3945H50.2459Z" fill="#686D82"/>
<path d="M52.3616 23.4765H55.9436C55.9616 23.3505 55.9796 23.2065 55.9796 23.0715C55.9796 21.7755 55.0616 20.6955 53.7206 20.6955C52.3076 20.6955 51.3446 21.7305 51.3446 23.0625C51.3446 24.4125 52.3076 25.4295 53.7926 25.4295C54.6746 25.4295 55.3496 25.0605 55.7636 24.4485L54.9626 23.9805C54.7466 24.2955 54.3416 24.5385 53.8016 24.5385C53.0816 24.5385 52.5146 24.1785 52.3616 23.4765ZM52.3526 22.6845C52.4876 22.0095 52.9826 21.5775 53.7116 21.5775C54.2966 21.5775 54.8636 21.9105 54.9986 22.6845H52.3526Z" fill="#686D82"/>
<path d="M59.8679 20.8125V22.6035H57.8069V20.8125H56.8349V25.3125H57.8069V23.5215H59.8679V25.3125H60.8399V20.8125H59.8679Z" fill="#686D82"/>
<path d="M65.4057 20.8125H61.4907V21.7485H62.9667V25.3125H63.9387V21.7485H65.4057V20.8125Z" fill="#686D82"/>
<path d="M68.6104 20.6955C67.9084 20.6955 67.3774 20.9835 67.0354 21.4605V20.8125H66.0634V27.1125H67.0354V24.6735C67.3774 25.1415 67.9084 25.4295 68.6104 25.4295C69.8344 25.4295 70.8514 24.4035 70.8514 23.0625C70.8514 21.7305 69.8344 20.6955 68.6104 20.6955ZM68.4574 24.5025C67.6474 24.5025 67.0354 23.8995 67.0354 23.0625C67.0354 22.2255 67.6474 21.6225 68.4574 21.6225C69.2674 21.6225 69.8794 22.2255 69.8794 23.0625C69.8794 23.8995 69.2674 24.5025 68.4574 24.5025Z" fill="#686D82"/>
<path fill-rule="evenodd" clip-rule="evenodd" d="M12.6916 16.9649H16.532V2.11487H12.6916V16.9649ZM10.5935 19.0812H18.6287V0H10.5935V19.0812Z" fill="#686D82"/>
<path fill-rule="evenodd" clip-rule="evenodd" d="M0.50293 23.2679H34.6573V21.1598H0.50293V23.2679Z" fill="#686D82"/>
<path fill-rule="evenodd" clip-rule="evenodd" d="M2.59339 31.5058H12.4657V27.4812H2.59339V31.5058ZM0.50293 36H2.59334V33.6114H14.5566V25.3736H0.50293V36Z" fill="#686D82"/>
<path fill-rule="evenodd" clip-rule="evenodd" d="M26.6222 2.11433V19.0809H28.719V6.34689L32.5586 2.116V19.0809H34.6575V0H31.7103L28.719 3.28653V0H25.7732L20.6827 5.54623V19.0809H22.7822V6.34773L26.6222 2.11433Z" fill="#686D82"/>
<path fill-rule="evenodd" clip-rule="evenodd" d="M18.6928 31.5058H24.5176V27.4812H18.6928V31.5058ZM26.6985 31.5058H32.5677V27.4812H26.6985V31.5058ZM16.6013 33.6114H24.5178V36H26.6985V33.6114H34.6578V25.3736H16.6013V33.6114Z" fill="#686D82"/>
<path fill-rule="evenodd" clip-rule="evenodd" d="M2.60209 6.34829L6.44084 2.11656V16.9652H2.60209V6.34829ZM8.53926 19.0809V0H5.59314L0.503229 5.54623V19.0809H8.53926Z" fill="#686D82"/>
<path d="M40.1839 0H41.3089V36H40.1839V0Z" fill="#686D82"/>
</svg>
