<svg width="225" height="64" viewBox="0 0 225 64" fill="none" xmlns="http://www.w3.org/2000/svg">
<path d="M90.1108 27.9998L85.4228 22.2558L89.9508 16.7998H87.7588L83.5028 21.8238V16.7998H81.6628V27.9998H83.5028V22.6718L87.9188 27.9998H90.1108Z" fill="#1C1B28"/>
<path d="M94.233 28.2078C96.585 28.2078 98.457 26.3678 98.457 23.9998C98.457 21.6158 96.585 19.7918 94.233 19.7918C91.897 19.7918 90.009 21.6158 90.009 23.9998C90.009 26.3678 91.897 28.2078 94.233 28.2078ZM94.233 26.5278C92.825 26.5278 91.737 25.4558 91.737 23.9998C91.737 22.5438 92.825 21.4718 94.233 21.4718C95.641 21.4718 96.729 22.5438 96.729 23.9998C96.729 25.4558 95.641 26.5278 94.233 26.5278Z" fill="#1C1B28"/>
<path d="M105.412 19.9998V23.1838H101.748V19.9998H100.02V27.9998H101.748V24.8158H105.412V27.9998H107.14V19.9998H105.412Z" fill="#1C1B28"/>
<path d="M112.921 28.2078C114.489 28.2078 115.849 27.3918 116.521 26.1278L115.033 25.2798C114.649 26.0158 113.865 26.5118 112.905 26.5118C111.497 26.5118 110.425 25.4398 110.425 23.9998C110.425 22.5598 111.497 21.4878 112.905 21.4878C113.865 21.4878 114.649 21.9678 115.001 22.7198L116.489 21.8558C115.849 20.6078 114.489 19.7918 112.921 19.7918C110.505 19.7918 108.697 21.6158 108.697 23.9998C108.697 26.3678 110.505 28.2078 112.921 28.2078Z" fill="#1C1B28"/>
<path d="M122.896 19.9998L120.848 25.8238L118.416 19.9998H116.576L119.936 27.9358L119.888 28.0478C119.488 29.1198 118.88 29.6478 117.76 29.5838V31.1998C119.52 31.3118 120.912 30.2878 121.664 28.2558L124.736 19.9998H122.896Z" fill="#1C1B28"/>
<path d="M132.084 19.9998H125.956V24.5598C125.956 26.0638 125.428 26.5438 124.484 26.3838V27.9998C126.452 28.1918 127.684 27.2638 127.684 24.6398V21.6638H130.356V27.9998H132.084V19.9998Z" fill="#1C1B28"/>
<path d="M137.586 22.7198H135.826V19.9998H134.098V27.9998H137.586C139.282 27.9998 140.498 26.9278 140.498 25.3598C140.498 23.7758 139.282 22.7198 137.586 22.7198ZM137.602 26.4478H135.826V24.2718H137.602C138.274 24.2718 138.802 24.6878 138.802 25.3598C138.802 26.0158 138.274 26.4478 137.602 26.4478Z" fill="#1C1B28"/>
<path d="M147.147 19.9998H140.187V21.6638H142.811V27.9998H144.539V21.6638H147.147V19.9998Z" fill="#1C1B28"/>
<path d="M154.34 19.9998V21.1358C153.732 20.3038 152.788 19.7918 151.54 19.7918C149.364 19.7918 147.556 21.6158 147.556 23.9998C147.556 26.3678 149.364 28.2078 151.54 28.2078C152.788 28.2078 153.732 27.6958 154.34 26.8478V27.9998H156.068V19.9998H154.34ZM151.812 26.5598C150.372 26.5598 149.284 25.4878 149.284 23.9998C149.284 22.5118 150.372 21.4398 151.812 21.4398C153.252 21.4398 154.34 22.5118 154.34 23.9998C154.34 25.4878 153.252 26.5598 151.812 26.5598Z" fill="#1C1B28"/>
<path d="M164.962 26.3678V19.9998H163.234V26.3678H159.81V19.9998H158.082V27.9998H164.578V30.1438H166.274V26.3678H164.962Z" fill="#1C1B28"/>
<path d="M173.468 19.9998L169.372 25.0718V19.9998H167.676V27.9998H169.004L173.1 22.9118V27.9998H174.796V19.9998H173.468Z" fill="#1C1B28"/>
<path d="M180.577 28.2078C182.929 28.2078 184.801 26.3678 184.801 23.9998C184.801 21.6158 182.929 19.7918 180.577 19.7918C178.241 19.7918 176.353 21.6158 176.353 23.9998C176.353 26.3678 178.241 28.2078 180.577 28.2078ZM180.577 26.5278C179.169 26.5278 178.081 25.4558 178.081 23.9998C178.081 22.5438 179.169 21.4718 180.577 21.4718C181.985 21.4718 183.073 22.5438 183.073 23.9998C183.073 25.4558 181.985 26.5278 180.577 26.5278Z" fill="#1C1B28"/>
<path d="M191.755 19.9998V23.1838H188.091V19.9998H186.363V27.9998H188.091V24.8158H191.755V27.9998H193.483V19.9998H191.755Z" fill="#1C1B28"/>
<path d="M200.88 19.9998V23.1838H197.216V19.9998H195.488V27.9998H197.216V24.8158H200.88V27.9998H202.608V19.9998H200.88Z" fill="#1C1B28"/>
<path d="M208.101 22.7198H206.341V19.9998H204.613V27.9998H208.101C209.797 27.9998 211.013 26.9278 211.013 25.3598C211.013 23.7758 209.797 22.7198 208.101 22.7198ZM211.973 19.9998V27.9998H213.701V19.9998H211.973ZM208.117 26.4478H206.341V24.2718H208.117C208.789 24.2718 209.317 24.6878 209.317 25.3598C209.317 26.0158 208.789 26.4478 208.117 26.4478Z" fill="#1C1B28"/>
<path d="M217.019 18.8798H221.499V17.3758H217.019V18.8798ZM221.499 19.9998L217.403 25.0718V19.9998H215.707V27.9998H217.035L221.131 22.9118V27.9998H222.827V19.9998H221.499Z" fill="#1C1B28"/>
<path d="M88.4308 42.3678V35.9998H86.7028V42.3678H83.2788V35.9998H81.5508V43.9998H88.0468V46.1438H89.7428V42.3678H88.4308Z" fill="#1C1B28"/>
<path d="M92.192 40.7358H98.56C98.592 40.5118 98.624 40.2558 98.624 40.0158C98.624 37.7118 96.992 35.7918 94.608 35.7918C92.096 35.7918 90.384 37.6318 90.384 39.9998C90.384 42.3998 92.096 44.2078 94.736 44.2078C96.304 44.2078 97.504 43.5518 98.24 42.4638L96.816 41.6318C96.432 42.1918 95.712 42.6238 94.752 42.6238C93.472 42.6238 92.464 41.9838 92.192 40.7358ZM92.176 39.3278C92.416 38.1278 93.296 37.3598 94.592 37.3598C95.632 37.3598 96.64 37.9518 96.88 39.3278H92.176Z" fill="#1C1B28"/>
<path d="M105.537 35.9998V39.1838H101.873V35.9998H100.145V43.9998H101.873V40.8158H105.537V43.9998H107.265V35.9998H105.537Z" fill="#1C1B28"/>
<path d="M115.382 35.9998H108.422V37.6638H111.046V43.9998H112.774V37.6638H115.382V35.9998Z" fill="#1C1B28"/>
<path d="M121.079 35.7918C119.831 35.7918 118.887 36.3038 118.279 37.1518V35.9998H116.551V47.1998H118.279V42.8638C118.887 43.6958 119.831 44.2078 121.079 44.2078C123.255 44.2078 125.063 42.3838 125.063 39.9998C125.063 37.6318 123.255 35.7918 121.079 35.7918ZM120.807 42.5598C119.367 42.5598 118.279 41.4878 118.279 39.9998C118.279 38.5118 119.367 37.4398 120.807 37.4398C122.247 37.4398 123.335 38.5118 123.335 39.9998C123.335 41.4878 122.247 42.5598 120.807 42.5598Z" fill="#1C1B28"/>
<path fill-rule="evenodd" clip-rule="evenodd" d="M21.6678 30.1599H28.4951V3.75978H21.6678V30.1599ZM17.9378 33.9222H32.2226V0H17.9378V33.9222Z" fill="#1C1B28"/>
<path fill-rule="evenodd" clip-rule="evenodd" d="M-0.000976562 41.3652H60.7179V37.6174H-0.000976562V41.3652Z" fill="#1C1B28"/>
<path fill-rule="evenodd" clip-rule="evenodd" d="M3.7154 56.0103H21.2661V48.8555H3.7154V56.0103ZM-0.000976562 64H3.71531V59.7536H24.9833V45.1086H-0.000976562V64Z" fill="#1C1B28"/>
<path fill-rule="evenodd" clip-rule="evenodd" d="M46.4333 3.7588V33.9217H50.161V11.2834L56.9868 3.76179V33.9217H60.7182V0H55.4788L50.161 5.84272V0H44.9239L35.8742 9.85996V33.9217H39.6065V11.2849L46.4333 3.7588Z" fill="#1C1B28"/>
<path fill-rule="evenodd" clip-rule="evenodd" d="M32.3366 56.0103H42.6918V48.8555H32.3366V56.0103ZM46.569 56.0103H57.003V48.8555H46.569V56.0103ZM28.6183 59.7536H42.6922V64H46.569V59.7536H60.7188V45.1086H28.6183V59.7536Z" fill="#1C1B28"/>
<path fill-rule="evenodd" clip-rule="evenodd" d="M3.73087 11.2858L10.5553 3.76277V30.1604H3.73087V11.2858ZM14.2858 33.9217V0H9.04829L-0.000443892 9.85996V33.9217H14.2858Z" fill="#1C1B28"/>
<rect x="70.543" width="2" height="64" fill="#8BC540"/>
</svg>
