<svg width="172" height="40" viewBox="0 0 172 40" fill="none" xmlns="http://www.w3.org/2000/svg">
<path d="M58.2908 16.5789L54.2813 11.6663L58.1539 7H56.2792L52.6392 11.2968V7H51.0655V16.5789H52.6392V12.0221L56.416 16.5789H58.2908Z" fill="#1C1B28"/>
<path d="M61.8164 16.7568C63.828 16.7568 65.429 15.1832 65.429 13.1579C65.429 11.1189 63.828 9.55895 61.8164 9.55895C59.8185 9.55895 58.2038 11.1189 58.2038 13.1579C58.2038 15.1832 59.8185 16.7568 61.8164 16.7568ZM61.8164 15.32C60.6122 15.32 59.6817 14.4032 59.6817 13.1579C59.6817 11.9126 60.6122 10.9958 61.8164 10.9958C63.0206 10.9958 63.9511 11.9126 63.9511 13.1579C63.9511 14.4032 63.0206 15.32 61.8164 15.32Z" fill="#1C1B28"/>
<path d="M71.3769 9.73684V12.46H68.2433V9.73684H66.7654V16.5789H68.2433V13.8558H71.3769V16.5789H72.8548V9.73684H71.3769Z" fill="#1C1B28"/>
<path d="M77.7991 16.7568C79.1402 16.7568 80.3033 16.0589 80.8781 14.9779L79.6054 14.2526C79.277 14.8821 78.6065 15.3063 77.7854 15.3063C76.5812 15.3063 75.6644 14.3895 75.6644 13.1579C75.6644 11.9263 76.5812 11.0095 77.7854 11.0095C78.6065 11.0095 79.277 11.42 79.5781 12.0632L80.8507 11.3242C80.3033 10.2568 79.1402 9.55895 77.7991 9.55895C75.7328 9.55895 74.1865 11.1189 74.1865 13.1579C74.1865 15.1832 75.7328 16.7568 77.7991 16.7568Z" fill="#1C1B28"/>
<path d="M86.3307 9.73684L84.5791 14.7179L82.4991 9.73684H80.9254L83.7991 16.5242L83.7581 16.62C83.416 17.5368 82.896 17.9884 81.9381 17.9337V19.3158C83.4433 19.4116 84.6339 18.5358 85.277 16.7979L87.9044 9.73684H86.3307Z" fill="#1C1B28"/>
<path d="M94.189 9.73684H88.9479V13.6368C88.9479 14.9232 88.4963 15.3337 87.689 15.1968V16.5789C89.3721 16.7432 90.4258 15.9495 90.4258 13.7053V11.16H92.7111V16.5789H94.189V9.73684Z" fill="#1C1B28"/>
<path d="M98.8943 12.0632H97.389V9.73684H95.9111V16.5789H98.8943C100.345 16.5789 101.385 15.6621 101.385 14.3211C101.385 12.9663 100.345 12.0632 98.8943 12.0632ZM98.908 15.2516H97.389V13.3905H98.908C99.4827 13.3905 99.9343 13.7463 99.9343 14.3211C99.9343 14.8821 99.4827 15.2516 98.908 15.2516Z" fill="#1C1B28"/>
<path d="M107.072 9.73684H101.119V11.16H103.363V16.5789H104.841V11.16H107.072V9.73684Z" fill="#1C1B28"/>
<path d="M113.224 9.73684V10.7084C112.704 9.99684 111.896 9.55895 110.829 9.55895C108.968 9.55895 107.421 11.1189 107.421 13.1579C107.421 15.1832 108.968 16.7568 110.829 16.7568C111.896 16.7568 112.704 16.3189 113.224 15.5937V16.5789H114.701V9.73684H113.224ZM111.061 15.3474C109.83 15.3474 108.899 14.4305 108.899 13.1579C108.899 11.8853 109.83 10.9684 111.061 10.9684C112.293 10.9684 113.224 11.8853 113.224 13.1579C113.224 14.4305 112.293 15.3474 111.061 15.3474Z" fill="#1C1B28"/>
<path d="M122.308 15.1832V9.73684H120.83V15.1832H117.902V9.73684H116.424V16.5789H121.98V18.4126H123.43V15.1832H122.308Z" fill="#1C1B28"/>
<path d="M129.583 9.73684L126.08 14.0747V9.73684H124.629V16.5789H125.765L129.268 12.2274V16.5789H130.719V9.73684H129.583Z" fill="#1C1B28"/>
<path d="M135.663 16.7568C137.675 16.7568 139.276 15.1832 139.276 13.1579C139.276 11.1189 137.675 9.55895 135.663 9.55895C133.665 9.55895 132.05 11.1189 132.05 13.1579C132.05 15.1832 133.665 16.7568 135.663 16.7568ZM135.663 15.32C134.459 15.32 133.528 14.4032 133.528 13.1579C133.528 11.9126 134.459 10.9958 135.663 10.9958C136.867 10.9958 137.798 11.9126 137.798 13.1579C137.798 14.4032 136.867 15.32 135.663 15.32Z" fill="#1C1B28"/>
<path d="M145.224 9.73684V12.46H142.09V9.73684H140.612V16.5789H142.09V13.8558H145.224V16.5789H146.701V9.73684H145.224Z" fill="#1C1B28"/>
<path d="M153.028 9.73684V12.46H149.894V9.73684H148.416V16.5789H149.894V13.8558H153.028V16.5789H154.506V9.73684H153.028Z" fill="#1C1B28"/>
<path d="M159.204 12.0632H157.698V9.73684H156.221V16.5789H159.204C160.654 16.5789 161.694 15.6621 161.694 14.3211C161.694 12.9663 160.654 12.0632 159.204 12.0632ZM162.515 9.73684V16.5789H163.993V9.73684H162.515ZM159.217 15.2516H157.698V13.3905H159.217C159.792 13.3905 160.244 13.7463 160.244 14.3211C160.244 14.8821 159.792 15.2516 159.217 15.2516Z" fill="#1C1B28"/>
<path d="M166.831 8.77895H170.662V7.49263H166.831V8.77895ZM170.662 9.73684L167.159 14.0747V9.73684H165.709V16.5789H166.844L170.348 12.2274V16.5789H171.798V9.73684H170.662Z" fill="#1C1B28"/>
<path d="M56.8539 28.8674V23.4211H55.376V28.8674H52.4476V23.4211H50.9697V30.2632H56.5255V32.0968H57.976V28.8674H56.8539Z" fill="#1C1B28"/>
<path d="M60.0708 27.4716H65.5171C65.5445 27.28 65.5718 27.0611 65.5718 26.8558C65.5718 24.8853 64.1761 23.2432 62.1371 23.2432C59.9887 23.2432 58.5245 24.8168 58.5245 26.8421C58.5245 28.8947 59.9887 30.4411 62.2466 30.4411C63.5876 30.4411 64.614 29.88 65.2434 28.9495L64.0255 28.2379C63.6971 28.7168 63.0813 29.0863 62.2603 29.0863C61.1655 29.0863 60.3034 28.5389 60.0708 27.4716ZM60.0571 26.2674C60.2624 25.2411 61.015 24.5842 62.1234 24.5842C63.0129 24.5842 63.875 25.0905 64.0803 26.2674H60.0571Z" fill="#1C1B28"/>
<path d="M71.4839 23.4211V26.1442H68.3502V23.4211H66.8723V30.2632H68.3502V27.54H71.4839V30.2632H72.9618V23.4211H71.4839Z" fill="#1C1B28"/>
<path d="M79.9039 23.4211H73.9513V24.8442H76.1955V30.2632H77.6734V24.8442H79.9039V23.4211Z" fill="#1C1B28"/>
<path d="M84.7766 23.2432C83.7092 23.2432 82.9018 23.6811 82.3818 24.4063V23.4211H80.9039V33H82.3818V29.2916C82.9018 30.0032 83.7092 30.4411 84.7766 30.4411C86.6376 30.4411 88.1839 28.8811 88.1839 26.8421C88.1839 24.8168 86.6376 23.2432 84.7766 23.2432ZM84.5439 29.0316C83.3124 29.0316 82.3818 28.1147 82.3818 26.8421C82.3818 25.5695 83.3124 24.6526 84.5439 24.6526C85.7755 24.6526 86.706 25.5695 86.706 26.8421C86.706 28.1147 85.7755 29.0316 84.5439 29.0316Z" fill="#1C1B28"/>
<path fill-rule="evenodd" clip-rule="evenodd" d="M13.543 18.8499H17.81V2.34986H13.543V18.8499ZM11.2117 21.2013H20.1398V0H11.2117V21.2013Z" fill="#1C1B28"/>
<path fill-rule="evenodd" clip-rule="evenodd" d="M0 25.8533H37.9493V23.5109H0V25.8533Z" fill="#1C1B28"/>
<path fill-rule="evenodd" clip-rule="evenodd" d="M2.32274 35.0064H13.2919V30.5347H2.32274V35.0064ZM0 40H2.32268V37.346H15.6151V28.1929H0V40Z" fill="#1C1B28"/>
<path fill-rule="evenodd" clip-rule="evenodd" d="M29.0215 2.34925V21.201H31.3512V7.0521L35.6174 2.35112V21.201H37.9495V0H34.6748L31.3512 3.6517V0H28.078L22.422 6.16248V21.201H24.7547V7.05304L29.0215 2.34925Z" fill="#1C1B28"/>
<path fill-rule="evenodd" clip-rule="evenodd" d="M20.211 35.0064H26.683V30.5347H20.211V35.0064ZM29.1062 35.0064H35.6275V30.5347H29.1062V35.0064ZM17.8871 37.346H26.6832V40H29.1062V37.346H37.9499V28.1929H17.8871V37.346Z" fill="#1C1B28"/>
<path fill-rule="evenodd" clip-rule="evenodd" d="M2.3324 7.05365L6.59768 2.35173V18.8502H2.3324V7.05365ZM8.92926 21.201V0H5.65579L0.000332919 6.16248V21.201H8.92926Z" fill="#1C1B28"/>
<rect x="44.0898" width="1.25" height="40" fill="#8BC540"/>
</svg>
