<svg width="1114" height="211" viewBox="0 0 1114 211" fill="none" xmlns="http://www.w3.org/2000/svg">
<g filter="url(#filter0_d_303_2301)">
<path d="M424.955 5.21875H119.082L105.921 65.35H412.432L424.955 5.21875Z" fill="#EEEEEE"/>
<path d="M131.813 52.984C131.388 54.66 130.327 55.707 128.629 55.498C126.931 55.498 126.294 54.66 126.719 52.774L133.723 20.7184C133.936 19.8803 134.36 19.0422 134.785 18.6232C135.422 18.2042 136.058 17.7852 136.695 17.7852H148.157C153.252 17.7852 156.86 18.6232 158.983 19.8803C160.893 21.3469 161.742 23.6516 160.893 26.7943C160.256 29.9371 158.558 32.451 156.223 34.127C153.889 35.803 150.705 36.642 146.884 36.642H135.209L131.813 52.984ZM145.186 32.032C149.219 32.032 151.978 31.823 153.252 31.194C154.525 30.566 155.374 29.3085 155.799 27.4229C156.011 26.1658 156.011 25.1182 155.587 24.4896C155.162 23.8611 154.313 23.4421 153.039 23.2326C151.766 23.023 149.856 22.8135 147.096 22.8135H138.181L136.058 32.032H145.186Z" fill="black"/>
<path d="M131.813 52.984C131.388 54.66 130.327 55.707 128.629 55.498C126.931 55.498 126.294 54.66 126.719 52.774L133.723 20.7184C133.936 19.8803 134.36 19.0422 134.785 18.6232C135.422 18.2042 136.058 17.7852 136.695 17.7852H148.157C153.252 17.7852 156.86 18.6232 158.983 19.8803C160.893 21.3469 161.742 23.6516 160.893 26.7943C160.256 29.9371 158.558 32.451 156.223 34.127C153.889 35.803 150.705 36.642 146.884 36.642H135.209L131.813 52.984ZM145.186 32.032C149.219 32.032 151.978 31.823 153.252 31.194C154.525 30.566 155.374 29.3085 155.799 27.4229C156.011 26.1658 156.011 25.1182 155.587 24.4896C155.162 23.8611 154.313 23.4421 153.039 23.2326C151.766 23.023 149.856 22.8135 147.096 22.8135H138.181L136.058 32.032H145.186Z" fill="black"/>
<path d="M128.843 56.127C128.631 56.127 128.631 56.127 128.843 56.127C127.782 56.127 127.145 55.917 126.72 55.288C126.296 54.66 126.083 54.031 126.296 52.984L133.3 20.9279C133.513 19.8803 133.937 19.0422 134.574 18.6232C135.211 17.9947 135.848 17.7852 136.909 17.7852H148.371C153.678 17.7852 157.286 18.6232 159.409 20.0898C161.532 21.5564 162.381 24.0706 161.532 27.4229C160.895 30.775 159.197 33.289 156.65 34.965C154.102 36.642 150.918 37.48 147.098 37.48H135.635L132.239 53.193C131.815 55.079 130.541 56.127 128.843 56.127ZM136.697 18.4137C136.06 18.4137 135.635 18.6232 134.999 19.0422C134.574 19.4613 134.149 20.0898 133.937 20.9279L126.932 52.984C126.72 53.822 126.72 54.241 127.145 54.66C127.357 54.869 127.782 55.079 128.418 55.079C129.904 55.079 130.753 54.45 131.178 52.774L134.786 36.223H146.885C150.706 36.223 153.678 35.384 156.013 33.918C158.348 32.242 159.834 29.9371 160.47 26.7943C161.107 23.8611 160.47 21.7659 158.772 20.2993C156.862 18.8327 153.253 18.2042 148.371 18.2042L136.697 18.4137ZM145.824 32.451C145.612 32.451 145.4 32.451 145.187 32.451H135.848L137.97 22.185H147.31C150.069 22.185 151.98 22.3945 153.253 22.604C154.739 22.8135 155.588 23.4421 156.013 24.0706C156.437 24.9087 156.437 25.9563 156.225 27.2134C155.8 29.3085 154.739 30.566 153.466 31.194C152.192 32.242 149.645 32.451 145.824 32.451ZM136.909 31.613H145.187C149.22 31.613 151.767 31.404 153.041 30.775C154.315 30.356 154.951 29.099 155.376 27.4229C155.588 26.1658 155.588 25.3277 155.376 24.9087C155.164 24.2801 154.315 24.0706 153.253 23.8611C151.98 23.6516 150.069 23.4421 147.31 23.4421H138.819L136.909 31.613Z" fill="white"/>
<path d="M194.223 41.877C193.586 44.601 192.525 47.115 190.615 49.21C188.916 51.305 186.794 52.981 184.034 54.029C181.487 55.076 178.516 55.705 175.332 55.705C172.148 55.705 169.6 55.076 167.478 54.029C165.355 52.981 163.869 51.305 163.02 49.21C162.171 47.115 162.171 44.601 162.808 41.877L164.931 31.82C165.567 29.0965 166.629 26.5823 168.539 24.4872C170.237 22.392 172.36 20.7159 175.119 19.6683C177.666 18.6207 180.638 17.9922 183.822 17.9922C187.006 17.9922 189.553 18.6207 191.676 19.6683C193.799 20.7159 195.284 22.392 196.133 24.4872C196.983 26.5823 196.983 29.0965 196.346 31.82L194.223 41.877ZM182.761 22.6015C179.365 22.6015 176.605 23.4396 174.482 24.9062C172.36 26.5823 170.874 28.887 170.237 31.82L168.115 41.458C167.478 44.601 167.902 46.905 169.176 48.372C170.662 50.048 172.997 50.677 176.393 50.886C179.789 50.886 182.549 50.048 184.671 48.581C186.794 46.905 188.28 44.601 188.917 41.667L191.039 32.03C191.676 29.0965 191.251 26.7918 189.978 25.1157C188.704 23.4396 186.157 22.6015 182.761 22.6015Z" fill="black"/>
<path d="M194.223 41.877C193.586 44.601 192.525 47.115 190.615 49.21C188.916 51.305 186.794 52.981 184.034 54.029C181.487 55.076 178.516 55.705 175.332 55.705C172.148 55.705 169.6 55.076 167.478 54.029C165.355 52.981 163.869 51.305 163.02 49.21C162.171 47.115 162.171 44.601 162.808 41.877L164.931 31.82C165.567 29.0965 166.629 26.5823 168.539 24.4872C170.237 22.392 172.36 20.7159 175.119 19.6683C177.666 18.6207 180.638 17.9922 183.822 17.9922C187.006 17.9922 189.553 18.6207 191.676 19.6683C193.799 20.7159 195.284 22.392 196.133 24.4872C196.983 26.5823 196.983 29.0965 196.346 31.82L194.223 41.877ZM182.761 22.6015C179.365 22.6015 176.605 23.4396 174.482 24.9062C172.36 26.5823 170.874 28.887 170.237 31.82L168.115 41.458C167.478 44.601 167.902 46.905 169.176 48.372C170.662 50.048 172.997 50.677 176.393 50.886C179.789 50.886 182.549 50.048 184.671 48.581C186.794 46.905 188.28 44.601 188.917 41.667L191.039 32.03C191.676 29.0965 191.251 26.7918 189.978 25.1157C188.704 23.4396 186.157 22.6015 182.761 22.6015Z" fill="black"/>
<path d="M175.751 56.339H175.539C172.355 56.339 169.595 55.71 167.473 54.453C165.35 53.196 163.652 51.52 162.803 49.424C161.954 47.329 161.954 44.606 162.591 41.882L164.713 31.825C165.35 28.892 166.624 26.3778 168.322 24.2826C170.02 22.1875 172.355 20.5113 174.902 19.2542C177.449 17.9972 180.633 17.5781 183.605 17.5781C186.789 17.5781 189.548 18.2067 191.671 19.4638C193.794 20.7209 195.492 22.397 196.341 24.4921C197.19 26.5873 197.19 29.311 196.553 32.035L194.43 42.091C193.794 45.025 192.52 47.539 190.822 49.634C189.124 51.729 186.789 53.405 184.242 54.662C181.694 55.71 178.935 56.339 175.751 56.339ZM183.605 18.4162C180.633 18.4162 177.874 19.0447 175.327 20.0923C172.779 21.1399 170.657 22.816 168.959 24.9112C167.26 27.0063 166.199 29.311 165.562 32.035L163.44 42.091C162.803 44.815 163.015 47.12 163.652 49.215C164.501 51.31 165.775 52.777 167.897 53.824C170.02 54.872 172.567 55.5 175.539 55.5C178.723 55.5 181.482 54.872 184.029 53.824C186.577 52.777 188.699 51.101 190.397 49.005C192.095 46.91 193.157 44.606 193.794 41.882L195.916 31.825C196.553 29.1015 196.341 26.7968 195.704 24.7017C194.855 22.6065 193.581 21.1399 191.459 20.0923C189.336 19.0447 186.789 18.4162 183.817 18.4162H183.605ZM176.812 51.52C176.6 51.52 176.6 51.52 176.812 51.52C172.992 51.52 170.444 50.682 168.959 49.005C167.473 47.329 167.048 44.815 167.685 41.672L169.808 32.035C170.444 28.892 171.93 26.3778 174.265 24.9112C176.388 23.235 179.36 22.397 182.756 22.397H182.968C186.577 22.397 189.124 23.235 190.61 24.9112C192.095 26.7968 192.52 29.311 191.883 32.244L189.761 41.882C189.124 45.025 187.638 47.539 185.303 49.005C182.968 50.682 180.209 51.52 176.812 51.52ZM182.544 23.235C179.36 23.235 176.6 24.0731 174.69 25.5397C172.567 27.0063 171.293 29.311 170.657 32.244L168.534 41.882C167.897 44.815 168.322 46.91 169.595 48.377C170.869 49.844 173.204 50.682 176.6 50.682C179.784 50.682 182.544 49.844 184.666 48.377C186.789 46.91 188.062 44.606 188.699 41.672L190.822 32.035C191.459 29.311 191.034 27.0063 189.761 25.5397C188.487 23.8636 186.152 23.235 182.544 23.235C182.756 23.235 182.756 23.235 182.544 23.235Z" fill="white"/>
<path d="M214.388 55.492C210.355 55.492 207.383 55.073 205.26 54.444C203.138 53.816 201.864 52.559 201.227 51.092C200.59 49.625 200.59 47.321 201.227 44.597L204.623 29.3025C205.26 26.5788 206.109 24.4836 207.383 23.017C208.656 21.5504 210.355 20.2933 212.689 19.6648C215.024 19.0362 217.784 18.6172 221.392 18.6172H230.944C233.279 18.6172 234.977 19.2457 235.826 20.2933C236.675 21.3409 236.888 23.2265 236.463 25.5312C236.039 27.6264 234.977 28.6739 233.279 28.6739C232.43 28.6739 232.006 28.4644 231.581 27.8359C231.156 27.2073 231.156 26.5788 231.369 25.5312C231.581 24.4836 231.581 23.8551 231.369 23.6456C231.156 23.2265 230.52 23.2265 229.671 23.2265H220.543C217.784 23.2265 215.661 23.436 214.388 23.6456C213.114 23.8551 212.053 24.4836 211.416 25.3217C210.779 26.1598 210.142 27.4168 209.718 29.3025L206.321 44.388C205.897 46.273 205.897 47.53 206.109 48.368C206.534 49.206 207.383 49.835 208.656 50.045C210.142 50.254 212.265 50.464 215.449 50.464H223.515C224.364 50.464 225.001 50.254 225.425 50.045C225.85 49.625 226.062 48.997 226.274 48.159C226.487 47.111 226.911 46.483 227.336 45.854C227.972 45.226 228.609 45.016 229.458 45.016C231.156 45.016 231.793 46.064 231.369 48.368C230.944 50.673 229.883 52.559 228.397 53.606C226.911 54.654 225.213 55.282 222.666 55.282L214.388 55.492Z" fill="black"/>
<path d="M214.388 55.492C210.355 55.492 207.383 55.073 205.26 54.444C203.138 53.816 201.864 52.559 201.227 51.092C200.59 49.625 200.59 47.321 201.227 44.597L204.623 29.3025C205.26 26.5788 206.109 24.4836 207.383 23.017C208.656 21.5504 210.355 20.2933 212.689 19.6648C215.024 19.0362 217.784 18.6172 221.392 18.6172H230.944C233.279 18.6172 234.977 19.2457 235.826 20.2933C236.675 21.3409 236.888 23.2265 236.463 25.5312C236.039 27.6264 234.977 28.6739 233.279 28.6739C232.43 28.6739 232.006 28.4644 231.581 27.8359C231.156 27.2073 231.156 26.5788 231.369 25.5312C231.581 24.4836 231.581 23.8551 231.369 23.6456C231.156 23.2265 230.52 23.2265 229.671 23.2265H220.543C217.784 23.2265 215.661 23.436 214.388 23.6456C213.114 23.8551 212.053 24.4836 211.416 25.3217C210.779 26.1598 210.142 27.4168 209.718 29.3025L206.321 44.388C205.897 46.273 205.897 47.53 206.109 48.368C206.534 49.206 207.383 49.835 208.656 50.045C210.142 50.254 212.265 50.464 215.449 50.464H223.515C224.364 50.464 225.001 50.254 225.425 50.045C225.85 49.625 226.062 48.997 226.274 48.159C226.487 47.111 226.911 46.483 227.336 45.854C227.972 45.226 228.609 45.016 229.458 45.016C231.156 45.016 231.793 46.064 231.369 48.368C230.944 50.673 229.883 52.559 228.397 53.606C226.911 54.654 225.213 55.282 222.666 55.282L214.388 55.492Z" fill="black"/>
<path d="M222.879 55.912H214.176C210.143 55.912 207.171 55.493 205.049 54.864C202.926 54.236 201.44 52.979 200.591 51.303C199.954 49.627 199.954 47.322 200.379 44.598L203.775 29.3035C204.412 26.5798 205.261 24.2752 206.747 22.8086C208.02 21.1324 209.931 20.0849 212.266 19.2468C214.601 18.6182 217.572 18.1992 221.181 18.1992H230.733C233.28 18.1992 234.978 18.8278 236.039 20.0849C237.101 21.342 237.313 23.2276 236.676 25.7418C236.039 28.675 234.341 29.3035 233.068 29.3035C232.006 29.3035 231.37 28.8845 230.945 28.256C230.52 27.6274 230.52 26.7894 230.733 25.7418C230.945 24.6942 230.733 24.2752 230.733 24.2752C230.733 24.2752 230.308 24.0657 229.247 23.8561H220.12C217.36 23.8561 215.237 24.0657 213.964 24.2752C212.69 24.4847 211.841 25.1132 211.204 25.7418C210.568 26.5798 210.143 27.8369 209.719 29.5131L206.322 44.598C205.898 46.274 205.898 47.531 206.11 48.369C206.322 48.998 207.171 49.627 208.445 49.836C209.719 50.046 212.053 50.255 215.025 50.255H223.091C223.94 50.255 224.577 50.046 224.789 49.836C225.002 49.627 225.214 49.208 225.638 48.16C225.851 47.112 226.275 46.274 226.912 45.646C227.549 45.017 228.398 44.808 229.247 44.808C230.096 44.808 230.733 45.017 231.157 45.646C231.582 46.274 231.794 47.322 231.582 48.579C230.945 51.093 230.096 52.769 228.61 54.026C227.337 55.283 225.426 55.912 222.879 55.912ZM220.756 19.0373C217.36 19.0373 214.601 19.4563 212.478 20.0849C210.355 20.7134 208.657 21.761 207.384 23.2276C206.11 24.6942 205.261 26.7894 204.624 29.5131L201.228 44.808C200.591 47.531 200.591 49.417 201.228 50.884C201.865 52.35 203.138 53.398 205.049 54.026C207.171 54.655 210.143 55.074 213.964 55.074H222.454C224.789 55.074 226.487 54.445 227.761 53.398C229.035 52.35 229.884 50.674 230.52 48.369C230.733 47.322 230.733 46.484 230.308 46.065C230.096 45.855 229.671 45.646 229.035 45.646C228.398 45.646 227.761 45.855 227.337 46.274C226.912 46.693 226.487 47.322 226.275 48.369C226.063 49.417 225.638 50.046 225.214 50.465C224.789 50.884 223.94 51.093 223.091 51.093H215.025C211.841 51.093 209.506 50.884 208.233 50.674C206.747 50.255 205.686 49.627 205.261 48.579C204.836 47.741 204.836 46.274 205.261 44.389L208.657 29.3035C209.082 27.4179 209.719 26.1608 210.355 25.1132C210.992 24.2752 212.266 23.6466 213.752 23.2276C215.237 23.0181 217.36 22.8086 220.12 22.8086H229.247C230.308 22.8086 230.945 23.0181 231.37 23.4371C231.794 23.8561 231.794 24.6942 231.582 25.7418C231.37 26.5798 231.37 27.2084 231.794 27.6274C232.006 28.0464 232.431 28.256 233.068 28.256C234.554 28.256 235.403 27.4179 235.827 25.3228C236.252 23.0181 236.252 21.342 235.403 20.2944C234.554 19.2468 233.068 18.8278 230.945 18.8278H221.393C221.181 19.0373 220.969 19.0373 220.756 19.0373Z" fill="white"/>
<path d="M252.387 55.715C248.354 55.715 245.382 55.296 243.26 54.667C241.137 54.038 239.863 52.781 239.227 51.315C238.59 49.848 238.59 47.543 239.227 44.82L242.623 29.5251C243.26 26.8014 244.109 24.7063 245.382 23.2397C246.656 21.7731 248.354 20.516 250.689 19.8874C253.024 19.2589 255.783 18.8398 259.392 18.8398H268.944C271.279 18.8398 272.977 19.4684 273.826 20.516C274.675 21.5635 274.887 23.4492 274.463 25.7539C274.038 27.849 272.977 28.8966 271.279 28.8966C270.43 28.8966 270.005 28.6871 269.58 28.0585C269.156 27.43 269.156 26.8014 269.368 25.7539C269.58 24.7063 269.58 24.0777 269.368 23.8682C269.156 23.4492 268.519 23.4492 267.67 23.4492H258.543C255.783 23.4492 253.661 23.6587 252.387 23.8682C251.113 24.0777 250.052 24.7063 249.415 25.5443C248.779 26.3824 248.142 27.6395 247.717 29.5251L244.321 44.61C243.896 46.496 243.896 47.753 244.109 48.591C244.533 49.429 245.382 50.058 246.656 50.267C248.142 50.477 250.264 50.686 253.448 50.686H261.514C262.363 50.686 263 50.477 263.425 50.267C263.849 49.848 264.062 49.22 264.274 48.382C264.486 47.334 264.911 46.705 265.335 46.077C265.972 45.448 266.609 45.239 267.458 45.239C269.156 45.239 269.793 46.286 269.368 48.591C268.944 50.896 267.882 52.781 266.397 53.829C264.911 54.877 263.213 55.505 260.665 55.505L252.387 55.715Z" fill="black"/>
<path d="M252.387 55.715C248.354 55.715 245.382 55.296 243.26 54.667C241.137 54.038 239.863 52.781 239.227 51.315C238.59 49.848 238.59 47.543 239.227 44.82L242.623 29.5251C243.26 26.8014 244.109 24.7063 245.382 23.2397C246.656 21.7731 248.354 20.516 250.689 19.8874C253.024 19.2589 255.783 18.8398 259.392 18.8398H268.944C271.279 18.8398 272.977 19.4684 273.826 20.516C274.675 21.5635 274.887 23.4492 274.463 25.7539C274.038 27.849 272.977 28.8966 271.279 28.8966C270.43 28.8966 270.005 28.6871 269.58 28.0585C269.156 27.43 269.156 26.8014 269.368 25.7539C269.58 24.7063 269.58 24.0777 269.368 23.8682C269.156 23.4492 268.519 23.4492 267.67 23.4492H258.543C255.783 23.4492 253.661 23.6587 252.387 23.8682C251.113 24.0777 250.052 24.7063 249.415 25.5443C248.779 26.3824 248.142 27.6395 247.717 29.5251L244.321 44.61C243.896 46.496 243.896 47.753 244.109 48.591C244.533 49.429 245.382 50.058 246.656 50.267C248.142 50.477 250.264 50.686 253.448 50.686H261.514C262.363 50.686 263 50.477 263.425 50.267C263.849 49.848 264.062 49.22 264.274 48.382C264.486 47.334 264.911 46.705 265.335 46.077C265.972 45.448 266.609 45.239 267.458 45.239C269.156 45.239 269.793 46.286 269.368 48.591C268.944 50.896 267.882 52.781 266.397 53.829C264.911 54.877 263.213 55.505 260.665 55.505L252.387 55.715Z" fill="black"/>
<path d="M261.09 56.123C260.878 56.123 260.878 56.123 261.09 56.123H252.388C248.354 56.123 245.383 55.704 243.26 55.075C241.137 54.447 239.652 53.19 238.803 51.514C238.166 49.837 238.166 47.533 238.59 44.809L241.987 29.5145C242.623 26.7908 243.472 24.4861 244.958 23.0195C246.232 21.3434 248.142 20.2958 250.477 19.4577C252.812 18.8292 255.784 18.4102 259.392 18.4102H268.944C271.491 18.4102 273.189 19.0387 274.251 20.2958C275.312 21.5529 275.524 23.4385 274.888 25.9527C274.251 28.8859 272.553 29.5145 271.279 29.5145C270.218 29.5145 269.581 29.0954 269.156 28.4669C268.732 27.8384 268.732 27.0003 268.944 25.9527C269.156 24.9051 268.944 24.4861 268.944 24.4861C268.944 24.4861 268.52 24.2766 267.458 24.2766H258.331C255.571 24.2766 253.449 24.4861 252.175 24.6956C250.902 24.9051 250.053 25.5337 249.416 26.1622C248.779 27.0003 248.354 28.2574 247.93 29.9335L244.534 45.019C244.109 46.695 244.109 47.952 244.321 48.79C244.534 49.418 245.383 50.047 246.656 50.257C247.93 50.466 250.265 50.676 253.237 50.676H261.303C262.364 50.676 262.788 50.466 263.001 50.257C263.213 50.047 263.425 49.628 263.85 48.58C264.062 47.533 264.487 46.695 265.123 46.066C265.76 45.438 266.609 45.228 267.458 45.228C268.307 45.228 268.944 45.438 269.369 46.066C269.793 46.695 270.005 47.742 269.793 48.999C269.156 51.514 268.307 53.19 266.822 54.447C265.336 55.494 263.425 56.123 261.09 56.123ZM258.968 19.0387C255.572 19.0387 252.812 19.4577 250.689 20.0863C248.567 20.7148 246.869 21.7624 245.595 23.229C244.321 24.6956 243.472 26.7908 242.836 29.5145L239.439 44.809C238.803 47.533 238.803 49.418 239.439 50.885C240.076 52.352 241.35 53.399 243.26 54.028C245.383 54.656 248.354 55.075 252.175 55.075H260.666C263.001 55.075 264.699 54.447 265.972 53.399C267.246 52.352 268.095 50.676 268.732 48.371C268.944 47.323 268.944 46.485 268.52 46.066C268.307 45.857 267.883 45.647 267.246 45.647C266.609 45.647 265.972 45.857 265.548 46.276C265.123 46.695 264.699 47.323 264.487 48.371C264.274 49.418 263.85 50.047 263.425 50.466C263.001 50.885 262.152 51.095 261.303 51.095H253.237C250.053 51.095 247.718 50.885 246.444 50.676C244.958 50.257 243.897 49.628 243.472 48.58C243.048 47.742 243.048 46.276 243.472 44.39L246.869 29.305C247.293 27.4193 247.93 26.1622 248.567 25.1147C249.204 24.2766 250.477 23.4385 251.963 23.229C253.449 23.0195 255.359 22.81 258.331 22.81H267.458C268.52 22.81 269.156 23.0195 269.581 23.4385C270.006 23.8576 270.005 24.6956 269.793 25.7432C269.581 26.5813 269.581 27.2098 270.006 27.6288C270.218 28.0479 270.642 28.2574 271.279 28.2574C272.765 28.2574 273.614 27.4193 274.039 25.3242C274.463 23.0195 274.463 21.3434 273.614 20.2958C272.765 19.2482 271.279 18.8292 269.156 18.8292H259.605C259.18 19.0387 259.18 19.0387 258.968 19.0387Z" fill="white"/>
<path d="M276.154 53.399L283.159 21.1339C283.583 19.2482 284.645 18.4102 286.343 18.4102C288.041 18.4102 288.678 19.4577 288.253 21.3434L282.522 47.533L309.692 19.8768C310.753 18.8292 311.602 18.4102 312.664 18.4102C314.362 18.4102 314.786 19.2482 314.362 21.1339L307.357 53.399C306.933 55.285 305.871 56.123 304.173 56.123C302.475 56.123 301.838 55.285 302.263 53.609L307.994 27.0003L281.036 54.447C280.4 55.075 279.975 55.494 279.55 55.704C279.126 55.913 278.701 55.913 278.065 55.913C276.366 56.123 275.73 55.075 276.154 53.399Z" fill="black"/>
<path d="M276.154 53.399L283.159 21.1339C283.583 19.2482 284.645 18.4102 286.343 18.4102C288.041 18.4102 288.678 19.4577 288.253 21.3434L282.522 47.533L309.692 19.8768C310.753 18.8292 311.602 18.4102 312.664 18.4102C314.362 18.4102 314.786 19.2482 314.362 21.1339L307.357 53.399C306.933 55.285 305.871 56.123 304.173 56.123C302.475 56.123 301.838 55.285 302.263 53.609L307.994 27.0003L281.036 54.447C280.4 55.075 279.975 55.494 279.55 55.704C279.126 55.913 278.701 55.913 278.065 55.913C276.366 56.123 275.73 55.075 276.154 53.399Z" fill="black"/>
<path d="M304.173 56.543C303.112 56.543 302.475 56.334 302.051 55.705C301.626 55.076 301.414 54.448 301.626 53.4L307.145 28.468L281.461 54.867C280.824 55.495 280.187 55.915 279.763 56.334C279.338 56.543 278.701 56.753 278.065 56.753C277.216 56.753 276.579 56.543 276.154 55.915C275.73 55.286 275.517 54.448 275.73 53.4L282.735 21.1349C283.371 18.6207 285.069 17.9922 286.343 17.9922C287.192 17.9922 287.829 18.2017 288.253 18.8303C288.678 19.4588 288.89 20.2969 288.678 21.554L283.159 46.067L309.268 19.4588C310.329 18.4112 311.39 17.9922 312.452 17.9922C313.301 17.9922 313.937 18.2017 314.362 18.8303C314.786 19.4588 314.999 20.2969 314.786 21.3444L307.782 53.61C307.357 55.495 306.084 56.543 304.173 56.543ZM308.843 25.5347L302.687 53.61C302.475 54.238 302.475 54.867 302.9 55.286C303.112 55.495 303.536 55.705 304.386 55.705C305.871 55.705 306.72 54.867 307.145 53.4L314.15 21.1349C314.362 20.2969 314.362 19.6683 313.937 19.2493C313.725 19.0398 313.301 18.8303 312.664 18.8303C311.815 18.8303 310.966 19.2493 310.117 20.0873L281.885 49L288.041 21.3444C288.253 20.5064 288.253 19.6683 287.829 19.4588C287.617 19.2493 287.192 19.0398 286.555 19.0398C285.069 19.0398 284.22 19.8778 283.796 21.554L276.791 53.819C276.579 54.657 276.579 55.286 277.003 55.495C277.216 55.705 277.64 55.915 278.277 55.915C278.914 55.915 279.338 55.915 279.551 55.705C279.975 55.495 280.4 55.076 281.036 54.448L308.843 25.5347Z" fill="white"/>
<path d="M340.048 53.606L343.019 39.569H334.529C332.618 39.569 331.132 39.778 330.283 40.407C329.222 41.035 328.373 42.083 327.736 43.34L324.977 48.578C323.703 50.883 322.217 52.559 320.519 54.025C318.609 55.282 316.698 56.12 314.788 56.12C312.665 56.12 311.816 55.282 312.241 53.816C312.665 52.349 313.727 51.511 315.849 51.511C316.486 51.511 317.335 51.092 318.184 50.464C319.033 49.835 319.458 49.206 319.882 48.368L322.854 42.502C323.703 40.826 324.977 39.359 326.463 38.102C322.854 36.426 321.368 33.283 322.43 29.093C323.066 25.7407 324.977 23.2265 327.949 21.3409C330.92 19.6648 334.741 18.6172 339.411 18.6172H350.449C352.147 18.6172 352.571 19.6648 352.147 21.5504L345.354 53.606C344.93 55.282 343.868 56.33 342.383 56.12C340.472 56.33 339.835 55.492 340.048 53.606ZM346.628 23.6456H338.137C334.741 23.6456 332.406 24.0646 330.708 24.9027C329.01 25.7407 327.948 27.2073 327.524 29.3025C326.675 32.864 329.434 34.75 335.802 34.75H344.293L346.628 23.6456Z" fill="black"/>
<path d="M340.048 53.606L343.019 39.569H334.529C332.618 39.569 331.132 39.778 330.283 40.407C329.222 41.035 328.373 42.083 327.736 43.34L324.977 48.578C323.703 50.883 322.217 52.559 320.519 54.025C318.609 55.282 316.698 56.12 314.788 56.12C312.665 56.12 311.816 55.282 312.241 53.816C312.665 52.349 313.727 51.511 315.849 51.511C316.486 51.511 317.335 51.092 318.184 50.464C319.033 49.835 319.458 49.206 319.882 48.368L322.854 42.502C323.703 40.826 324.977 39.359 326.463 38.102C322.854 36.426 321.368 33.283 322.43 29.093C323.066 25.7407 324.977 23.2265 327.949 21.3409C330.92 19.6648 334.741 18.6172 339.411 18.6172H350.449C352.147 18.6172 352.571 19.6648 352.147 21.5504L345.354 53.606C344.93 55.282 343.868 56.33 342.383 56.12C340.472 56.33 339.835 55.492 340.048 53.606ZM346.628 23.6456H338.137C334.741 23.6456 332.406 24.0646 330.708 24.9027C329.01 25.7407 327.948 27.2073 327.524 29.3025C326.675 32.864 329.434 34.75 335.802 34.75H344.293L346.628 23.6456Z" fill="black"/>
<path d="M342.173 56.75C341.112 56.75 340.475 56.541 340.051 55.912C339.626 55.283 339.414 54.655 339.626 53.607L342.598 40.198H334.744C333.046 40.198 331.56 40.408 330.711 41.036C329.862 41.665 329.013 42.503 328.376 43.76L325.617 48.998C324.343 51.303 322.857 53.188 320.947 54.445C319.036 55.912 317.126 56.541 315.003 56.541C313.73 56.541 312.881 56.331 312.244 55.703C311.819 55.283 311.819 54.445 311.819 53.607C312.032 52.35 313.093 50.884 315.852 50.884C316.489 50.884 317.126 50.674 317.763 50.046C318.4 49.417 319.036 48.789 319.461 48.16L322.433 42.294C323.282 40.617 324.343 39.36 325.617 38.103C322.22 36.218 320.947 33.075 321.796 28.8845C322.645 25.5323 324.555 22.8086 327.527 20.9229C330.499 19.2468 334.319 18.1992 338.989 18.1992H339.201H350.239C351.088 18.1992 351.725 18.4087 352.15 19.0373C352.574 19.6658 352.786 20.5039 352.574 21.761L345.569 53.607C345.357 55.703 344.084 56.75 342.173 56.75ZM340.475 53.817C340.263 54.655 340.263 55.074 340.687 55.493C340.9 55.912 341.536 55.912 342.173 55.912C343.659 55.912 344.508 55.283 344.72 53.607L351.725 21.761C351.937 20.9229 351.937 20.0849 351.513 19.8753C351.301 19.6658 350.876 19.4563 350.239 19.4563H339.201C334.532 19.4563 330.923 20.2944 327.951 21.9705C325.192 23.6466 323.282 26.1608 322.645 29.3036C321.796 33.494 323.069 36.218 326.466 37.894L327.102 38.103L326.466 38.522C324.98 39.57 323.918 41.036 322.857 42.713L319.885 48.579C319.461 49.417 318.824 50.046 317.975 50.674C317.126 51.303 316.277 51.722 315.428 51.722C313.517 51.722 312.456 52.35 312.244 53.607C312.032 54.236 312.244 54.655 312.456 54.864C312.668 55.283 313.517 55.493 314.367 55.493C316.065 55.493 317.975 54.864 319.673 53.607C321.371 52.35 322.857 50.465 324.131 48.369L326.89 43.132C327.739 41.665 328.588 40.617 329.65 39.989C330.711 39.36 332.197 39.151 334.107 39.151C334.107 39.151 334.107 39.151 334.319 39.151H343.447L340.475 53.817ZM344.508 35.379H335.805C331.56 35.379 329.013 34.541 327.739 33.075C326.89 32.027 326.678 30.98 327.102 29.5131C327.527 27.4179 328.801 25.7418 330.499 24.9037C332.197 24.0657 334.744 23.4371 338.14 23.4371H347.055L344.508 35.379ZM337.928 24.0657C334.956 24.0657 332.409 24.4847 330.923 25.3228C329.225 26.1608 328.376 27.4179 327.951 29.3036C327.739 30.561 327.951 31.399 328.376 32.237C329.437 33.494 331.985 34.122 335.805 34.332H343.871L346.206 24.0657H338.352C338.14 24.0657 338.14 24.0657 337.928 24.0657Z" fill="white"/>
<path d="M377.195 41.692C376.982 41.273 376.77 40.854 376.982 40.225C377.195 39.597 377.407 39.178 377.832 38.759C378.256 38.34 378.893 38.34 379.53 38.34H402.03C402.667 38.34 403.303 38.549 403.516 38.759C403.728 39.178 403.94 39.597 403.728 40.225C403.516 40.854 403.303 41.273 402.879 41.692C402.454 42.111 401.817 42.111 401.181 42.111H378.681C378.044 42.321 377.619 42.111 377.195 41.692Z" fill="black"/>
<path d="M377.195 41.692C376.982 41.273 376.77 40.854 376.982 40.225C377.195 39.597 377.407 39.178 377.832 38.759C378.256 38.34 378.893 38.34 379.53 38.34H402.03C402.667 38.34 403.303 38.549 403.516 38.759C403.728 39.178 403.94 39.597 403.728 40.225C403.516 40.854 403.303 41.273 402.879 41.692C402.454 42.111 401.817 42.111 401.181 42.111H378.681C378.044 42.321 377.619 42.111 377.195 41.692Z" fill="black"/>
<path d="M401.179 42.745C400.967 42.745 400.967 42.745 401.179 42.745H378.679C377.83 42.745 377.406 42.535 376.981 42.116C376.557 41.697 376.557 41.069 376.557 40.23C376.769 39.392 376.981 38.973 377.618 38.554C378.255 38.135 378.892 37.926 379.528 37.926H402.028C402.877 37.926 403.514 38.135 403.939 38.554C404.363 38.973 404.363 39.602 404.151 40.44C403.939 41.278 403.727 41.697 403.09 42.116C402.453 42.535 401.816 42.745 401.179 42.745ZM379.528 38.764C378.892 38.764 378.467 38.973 378.255 39.183C377.83 39.392 377.618 39.811 377.618 40.44C377.618 40.859 377.618 41.278 377.83 41.488C378.043 41.697 378.467 41.907 378.892 41.907H401.392C402.028 41.907 402.453 41.697 402.877 41.488C403.302 41.278 403.514 40.859 403.514 40.23C403.727 39.811 403.514 39.392 403.302 39.183C403.09 38.973 402.665 38.764 402.241 38.764H379.528Z" fill="white"/>
<path d="M159.202 71.641L146.042 132.4H397.575L410.948 71.641H159.202Z" fill="#25649F"/>
<path d="M181.057 122.539C177.024 122.539 174.052 122.12 171.93 121.491C169.807 120.863 168.533 119.606 167.897 118.139C167.26 116.672 167.26 114.368 167.897 111.644L171.293 96.3489C171.93 93.6259 172.779 91.5299 174.052 90.0639C175.326 88.5969 177.024 87.3399 179.359 86.7119C181.694 86.0829 184.453 85.6639 188.062 85.6639H197.614C199.949 85.6639 201.647 86.2929 202.496 87.3399C203.345 88.3879 203.557 90.2729 203.133 92.5779C202.708 94.6729 201.647 95.7209 199.949 95.7209C199.099 95.7209 198.675 95.5109 198.25 94.8829C197.826 94.2539 197.826 93.6259 198.038 92.5779C198.25 91.5299 198.25 90.9019 198.038 90.6919C197.826 90.2729 197.189 90.2729 196.34 90.2729H187.213C184.453 90.2729 182.331 90.4829 181.057 90.6919C179.783 90.9019 178.722 91.5299 178.085 92.3689C177.448 93.2069 176.812 94.4639 176.387 96.3489L172.991 111.434C172.566 113.32 172.566 114.577 172.779 115.415C173.203 116.253 174.052 116.882 175.326 117.091C176.812 117.301 178.934 117.51 182.118 117.51H190.184C191.033 117.51 191.67 117.301 192.095 117.091C192.519 116.672 192.732 116.044 192.944 115.206C193.156 114.368 193.581 113.53 194.005 112.901C194.642 112.273 195.279 112.063 196.128 112.063C197.826 112.063 198.463 113.111 198.038 115.415C197.614 117.72 196.552 119.606 195.066 120.653C193.581 121.701 191.882 122.329 189.335 122.329L181.057 122.539Z" fill="white"/>
<path d="M189.766 122.975H181.063C177.03 122.975 174.058 122.555 171.935 121.927C169.813 121.298 168.327 120.041 167.478 118.365C166.841 116.689 166.841 114.384 167.266 111.661L170.662 96.366C171.299 93.642 172.148 91.338 173.634 89.871C174.907 88.195 176.818 87.147 179.152 86.309C181.487 85.681 184.459 85.262 188.068 85.262H197.619C200.167 85.262 201.865 85.89 202.926 87.147C203.987 88.404 204.2 90.29 203.563 92.804C202.926 95.737 201.228 96.366 199.954 96.366C198.893 96.366 198.256 95.947 197.832 95.318C197.407 94.69 197.407 93.852 197.619 92.804C197.832 91.757 197.619 91.338 197.619 91.338C197.619 91.338 197.195 91.128 196.134 90.919H187.006C184.247 90.919 182.124 91.128 180.851 91.338C179.577 91.547 178.728 92.176 178.091 92.804C177.454 93.642 177.03 94.899 176.605 96.576L173.209 111.661C172.784 113.337 172.785 114.594 172.997 115.432C173.209 116.061 174.058 116.689 175.332 116.899C176.605 117.108 178.94 117.318 181.912 117.318H189.978C190.827 117.318 191.464 117.108 191.676 116.899C191.888 116.689 192.101 116.27 192.525 115.222C192.737 114.175 193.162 113.337 193.799 112.708C194.435 112.08 195.285 111.87 196.134 111.87C196.983 111.87 197.619 112.08 198.044 112.708C198.469 113.337 198.681 114.384 198.469 115.641C197.832 118.156 196.983 119.832 195.497 121.089C194.011 122.346 192.101 122.975 189.766 122.975ZM187.643 85.89C184.247 85.89 181.487 86.309 179.365 86.938C177.242 87.566 175.544 88.614 174.27 90.081C172.997 91.547 172.148 93.642 171.511 96.366L168.115 111.661C167.478 114.384 167.478 116.27 168.115 117.737C168.751 119.203 170.025 120.251 171.935 120.879C174.058 121.508 177.03 121.927 180.851 121.927H189.341C191.676 121.927 193.374 121.298 194.648 120.251C195.921 119.203 196.77 117.527 197.407 115.222C197.619 114.175 197.619 113.337 197.195 112.918C196.983 112.708 196.558 112.499 195.921 112.499C195.285 112.499 194.648 112.708 194.223 113.127C193.799 113.546 193.374 114.175 193.162 115.222C192.95 116.27 192.525 116.899 192.101 117.318C191.676 117.737 190.827 117.946 189.766 117.946H181.7C178.516 117.946 176.181 117.737 174.907 117.527C173.421 117.108 172.36 116.48 171.935 115.432C171.511 114.594 171.511 113.127 171.935 111.242L175.332 96.157C175.756 94.271 176.393 93.014 177.03 91.966C177.667 91.128 178.94 90.5 180.426 90.081C181.912 89.871 183.822 89.662 186.794 89.662H195.921C196.983 89.662 197.619 89.871 198.044 90.29C198.469 90.709 198.469 91.547 198.256 92.595C198.044 93.433 198.044 94.061 198.469 94.48C198.681 94.899 199.105 95.109 199.742 95.109C201.228 95.109 202.077 94.271 202.502 92.176C202.926 89.871 202.926 88.195 202.077 87.147C201.228 86.1 199.742 85.681 197.619 85.681H188.068C187.855 85.89 187.855 85.89 187.643 85.89Z" fill="white"/>
<path d="M234.978 85.6639C236.889 85.6639 237.738 86.5019 237.313 87.9689C236.889 89.6449 235.827 90.2729 233.917 90.2729H225.426L218.846 120.234C218.634 121.072 218.209 121.701 217.572 122.12C216.936 122.539 216.087 122.958 215.238 122.748C214.388 122.748 213.752 122.539 213.327 122.12C212.903 121.701 212.903 121.072 213.115 120.234L219.695 90.2729H210.992C210.143 90.2729 209.294 90.0639 208.87 89.6449C208.445 89.2259 208.233 88.5969 208.445 87.9689C208.657 87.3399 209.082 86.7119 209.506 86.2929C210.143 85.8739 210.992 85.6639 211.841 85.6639H234.978Z" fill="white"/>
<path d="M215.237 123.391C214.176 123.391 213.327 123.181 212.903 122.553C212.478 121.924 212.266 121.296 212.478 120.248L218.846 90.916H210.78C209.719 90.916 208.87 90.706 208.445 90.078C207.808 89.449 207.808 88.821 208.021 87.983C208.233 87.144 208.657 86.5159 209.294 85.8869C209.931 85.4679 210.78 85.049 211.841 85.259H234.766C236.039 85.259 236.889 85.468 237.313 86.097C237.738 86.516 237.738 87.354 237.738 88.192C237.525 89.449 236.676 90.916 233.917 90.916H225.638L219.271 120.457C219.058 121.296 218.634 122.134 217.785 122.553C216.936 123.181 216.087 123.391 215.237 123.391ZM211.841 86.097C210.992 86.097 210.355 86.306 209.931 86.725C209.506 87.145 209.082 87.564 208.87 88.192C208.657 88.821 208.87 89.24 209.082 89.449C209.506 89.868 209.931 89.868 210.78 90.078H220.12L213.539 120.457C213.327 121.086 213.539 121.715 213.752 121.924C213.964 122.343 214.601 122.553 215.237 122.553C216.087 122.553 216.723 122.343 217.36 121.924C217.997 121.505 218.209 120.877 218.421 120.248L225.002 89.8679H233.917C235.615 89.8679 236.676 89.2399 236.889 87.7729C237.101 87.1449 236.889 86.725 236.676 86.516C236.464 86.097 235.827 85.8869 234.766 85.8869L211.841 86.097Z" fill="white"/>
<path d="M241.342 120.46C240.917 122.136 239.856 122.975 238.158 122.975C236.46 122.975 235.823 122.136 236.247 120.251L243.252 88.195C243.464 87.357 243.889 86.519 244.314 86.1C244.738 85.681 245.587 85.262 246.224 85.262H257.686C262.781 85.262 266.389 86.1 268.512 87.357C270.422 88.823 271.271 91.128 270.422 94.271C269.785 97.414 268.087 99.928 265.752 101.604C263.417 103.28 260.233 104.118 256.413 104.118H244.738L241.342 120.46ZM254.715 99.509C258.748 99.509 261.507 99.299 262.781 98.461C264.054 97.833 264.903 96.576 265.328 94.69C265.54 93.433 265.54 92.385 265.116 91.757C264.691 91.128 263.842 90.709 262.568 90.5C261.295 90.29 259.384 90.081 256.625 90.081H247.71L245.587 99.299L254.715 99.509Z" fill="white"/>
<path d="M238.164 123.603C237.103 123.603 236.466 123.394 236.041 122.765C235.617 122.136 235.405 121.508 235.617 120.46L242.622 88.404C242.834 87.357 243.258 86.519 243.895 86.1C244.532 85.471 245.381 85.262 246.23 85.262H257.692C262.999 85.262 266.608 86.1 268.73 87.566C270.853 89.033 271.702 91.547 270.853 94.899C270.216 98.252 268.518 100.766 265.971 102.442C263.424 104.118 260.24 104.956 256.419 104.956H244.957L241.56 120.67C241.348 122.555 240.075 123.603 238.164 123.603ZM246.23 85.89C245.593 85.89 245.169 86.1 244.532 86.519C244.108 86.938 243.683 87.566 243.471 88.404L236.466 120.46C236.254 121.298 236.254 121.717 236.678 122.136C236.891 122.346 237.315 122.556 237.952 122.556C239.438 122.556 240.287 121.927 240.499 120.251L244.108 103.699H256.207C259.815 103.699 262.999 102.861 265.334 101.394C267.669 99.718 269.155 97.414 269.792 94.271C270.428 91.338 269.792 89.243 268.093 87.776C266.183 86.309 262.575 85.681 257.692 85.681L246.23 85.89ZM255.358 99.928C255.145 99.928 254.933 99.928 254.721 99.928H245.381L247.716 89.662H257.056C259.815 89.662 261.726 89.871 262.999 90.081C264.485 90.29 265.334 90.919 265.759 91.547C266.183 92.385 266.183 93.433 265.971 94.69C265.546 96.785 264.485 98.042 263.211 98.671C261.726 99.718 259.178 99.928 255.358 99.928ZM254.721 99.09C258.754 99.09 261.301 98.88 262.575 98.252C263.848 97.833 264.485 96.576 264.909 94.899C265.122 93.642 265.122 92.804 264.909 92.385C264.697 91.757 263.848 91.547 262.787 91.338C261.513 91.128 259.603 90.919 256.843 90.919H248.353L246.442 99.299L254.721 99.09Z" fill="white"/>
<path d="M295.258 85.902L302.262 120.263C302.262 120.682 302.262 121.101 302.05 121.73C301.838 122.358 301.626 122.777 300.989 123.196C300.352 123.615 299.715 123.825 299.078 123.825C297.805 123.825 297.168 123.196 296.956 121.939L295.045 112.092H278.701L272.545 121.939C271.696 123.196 270.635 123.825 269.574 123.825C268.937 123.825 268.3 123.615 267.875 123.196C267.451 122.777 267.239 122.358 267.451 121.73C267.663 121.101 267.663 120.682 267.875 120.263L289.739 85.902H295.258ZM290.8 93.026L281.673 107.273H293.772L290.8 93.026Z" fill="white"/>
<path d="M299.079 124.245C297.593 124.245 296.744 123.407 296.32 122.15L294.409 112.721H278.702L272.546 122.359C271.697 123.616 270.423 124.454 269.15 124.454C268.301 124.454 267.664 124.245 267.239 123.616C266.815 122.988 266.603 122.359 266.603 121.731C266.815 121.102 266.815 120.683 267.239 120.264L289.527 85.484H295.683V85.903L302.688 120.264C302.688 120.683 302.688 121.312 302.475 121.94C302.263 122.569 301.839 123.197 301.202 123.616C300.565 124.035 299.928 124.245 299.079 124.245ZM278.489 111.674H295.471L297.381 121.94C297.593 122.988 298.018 123.407 299.079 123.407C299.716 123.407 300.14 123.197 300.777 122.778C301.202 122.359 301.626 122.15 301.626 121.521C301.838 121.102 301.839 120.473 301.839 120.264L295.046 86.322H290.164L268.301 120.473C268.088 120.683 267.876 121.312 267.876 121.731C267.876 122.15 267.876 122.359 268.301 122.778C268.725 123.197 269.15 123.197 269.574 123.197C270.636 123.197 271.485 122.569 272.121 121.521L278.489 111.674ZM294.409 107.693H280.824L291.013 91.979L294.409 107.693ZM282.522 106.855H293.348L290.588 94.284L282.522 106.855Z" fill="white"/>
<path d="M313.094 120.653C312.669 122.539 311.608 123.377 309.91 123.377C308.212 123.377 307.575 122.539 307.999 120.653L315.004 88.3879C315.429 86.5019 316.49 85.6639 317.976 85.6639C319.674 85.6639 320.523 86.5019 320.099 88.3879L317.339 100.749H338.353L341.113 88.5969C341.537 86.7119 342.599 85.8739 344.297 85.8739C345.995 85.8739 346.632 86.7119 346.207 88.5969L339.202 120.653C338.778 122.539 337.717 123.377 336.018 123.377C334.32 123.377 333.683 122.539 334.108 120.653L337.504 105.568H316.49L313.094 120.653Z" fill="white"/>
<path d="M336.226 123.799C335.164 123.799 334.528 123.59 334.103 122.961C333.679 122.333 333.466 121.495 333.679 120.447L336.863 105.781H316.697L313.513 120.657C313.089 122.752 311.815 123.799 309.905 123.799C309.056 123.799 308.207 123.59 307.782 122.961C307.358 122.333 307.145 121.495 307.358 120.447L314.362 88.1819C314.999 85.6679 316.485 85.0389 317.759 85.0389C318.82 85.0389 319.457 85.2489 319.881 85.8769C320.306 86.5059 320.518 87.3439 320.306 88.3909L317.759 100.124H337.924L340.471 88.1819C341.108 85.6679 342.806 85.0389 344.08 85.0389C344.929 85.0389 345.778 85.2489 346.202 85.8769C346.627 86.5059 346.839 87.3439 346.627 88.3909L339.622 120.657C339.197 122.752 337.924 123.799 336.226 123.799ZM316.061 104.943H337.924L334.528 120.657C334.315 121.495 334.315 122.123 334.74 122.333C334.952 122.542 335.377 122.752 336.013 122.752C337.499 122.752 338.348 121.914 338.773 120.447L345.778 88.1819C345.99 87.3439 345.99 86.7149 345.565 86.2959C345.353 86.0869 344.929 85.8769 344.292 85.8769C342.806 85.8769 341.957 86.7149 341.532 88.3909L338.773 100.962H316.91L319.669 88.1819C319.881 87.3439 319.881 86.7149 319.457 86.5059C319.245 86.0869 318.82 86.0869 317.971 86.0869C316.485 86.0869 315.848 86.9249 315.424 88.6009L308.631 120.657C308.419 121.495 308.419 122.123 308.844 122.333C309.056 122.542 309.48 122.752 310.117 122.752C311.603 122.752 312.452 121.914 312.877 120.447L316.061 104.943Z" fill="white"/>
<path d="M372.736 86.094L379.74 120.454C379.74 120.873 379.74 121.292 379.528 121.921C379.316 122.549 379.103 122.968 378.467 123.388C377.83 123.807 377.193 124.016 376.556 124.016C375.283 124.016 374.646 123.388 374.434 122.13L372.311 112.283H355.967L349.811 122.13C348.962 123.388 347.901 124.016 346.839 124.016C346.202 124.016 345.566 123.807 345.141 123.388C344.717 122.968 344.504 122.549 344.717 121.921C344.929 121.292 344.929 120.873 345.141 120.454L367.004 86.094H372.736ZM368.278 93.217L359.151 107.464H371.25L368.278 93.217Z" fill="white"/>
<path d="M376.557 124.424C375.071 124.424 374.222 123.586 373.797 122.12L371.887 112.692H356.179L350.024 122.329C349.174 123.586 347.901 124.424 346.627 124.424C345.778 124.424 345.141 124.215 344.717 123.586C344.292 122.958 344.08 122.329 344.08 121.701C344.292 121.072 344.292 120.653 344.717 120.234L366.792 85.6639H372.948V86.0829L379.953 120.444C379.953 120.863 379.953 121.491 379.741 122.12C379.528 122.748 379.104 123.377 378.467 123.796C378.042 124.215 377.193 124.424 376.557 124.424ZM355.755 111.854H372.736L374.646 122.12C374.859 123.167 375.283 123.586 376.344 123.586C376.981 123.586 377.406 123.377 378.042 122.958C378.467 122.539 378.892 122.12 378.892 121.91C379.104 121.282 379.104 120.863 379.104 120.653L372.311 86.5019H367.429L345.566 120.653C345.354 121.072 345.141 121.491 345.141 121.91C345.141 122.329 345.141 122.539 345.566 122.958C345.99 123.377 346.415 123.377 346.84 123.377C347.901 123.377 348.75 122.748 349.387 121.701L355.755 111.854ZM371.887 107.873H358.302L368.491 92.1589L371.887 107.873ZM360 107.035H370.825L368.066 94.4639L360 107.035Z" fill="white"/>
<path d="M13.1604 137.41L0 197.541H509.223L522.171 137.41H13.1604Z" fill="#AE3857"/>
<path d="M28.0232 151.468C28.2355 150.63 28.66 149.792 29.0845 149.373C29.7213 148.954 30.3581 148.535 30.9949 148.535H42.2449C45.8534 148.535 48.6129 148.954 50.7355 149.583C52.6459 150.211 54.1318 151.259 54.7686 152.725C55.4054 154.192 55.6176 155.868 54.9808 158.173C54.344 160.897 53.2827 162.782 51.3723 164.249C54.1318 165.925 54.9808 169.068 53.9195 173.677L53.7072 174.725C53.0704 177.448 52.2214 179.543 50.7355 181.22C49.4619 182.686 47.5516 183.943 45.2166 184.572C42.8817 185.2 39.6978 185.619 35.877 185.619H22.7166C21.8675 185.619 21.443 185.41 21.0184 184.781C20.8062 184.362 20.5939 183.524 20.8062 182.686L28.0232 151.468ZM29.509 167.811L26.7496 180.801H37.1506C40.3345 180.801 42.4572 180.591 43.9431 180.382C45.4289 180.172 46.4902 179.543 47.3393 178.705C47.9761 177.867 48.6129 176.61 49.0374 174.725L49.2497 173.887C49.6742 172.001 49.6742 170.744 49.4619 169.906C49.2497 169.068 48.4006 168.439 47.127 168.23C45.8534 168.02 43.9431 167.811 41.1836 167.811H29.509ZM39.2732 163.201C42.0327 163.201 43.9431 162.992 45.4289 162.782C46.9148 162.573 47.9761 162.154 48.6129 161.525C49.2497 160.897 49.8865 159.849 50.0987 158.592C50.311 157.335 50.311 156.287 49.8865 155.659C49.4619 155.03 48.6129 154.611 47.3393 154.402C46.0657 154.192 43.9431 153.983 41.3959 153.983H32.693L30.5704 163.201H39.2732Z" fill="white"/>
<path d="M36.718 186.235C36.5057 186.235 36.2934 186.235 36.0812 186.235H22.9208C22.0717 186.235 21.2226 185.816 21.0104 185.187C20.5859 184.559 20.5859 183.721 20.7981 182.673L27.5906 151.455C27.8029 150.408 28.2274 149.57 28.8642 149.151C29.501 148.522 30.1378 148.312 30.9868 148.312H42.2369C45.8454 148.312 48.8171 148.732 50.7275 149.36C52.8501 149.989 54.336 151.246 54.9728 152.712C55.8218 154.179 55.8218 156.065 55.3973 158.579C54.7605 161.093 53.6992 162.979 52.2133 164.445C54.7605 166.331 55.6096 169.474 54.5482 174.083L54.336 175.13C53.6992 177.854 52.6379 180.159 51.3643 181.835C49.8784 183.511 47.968 184.559 45.6331 185.397C43.5105 185.816 40.3265 186.025 36.718 186.235ZM30.9868 149.151C30.35 149.151 29.7132 149.36 29.2887 149.779C28.8642 150.198 28.4397 150.827 28.2274 151.665L21.4349 182.883C21.2226 183.721 21.2227 184.349 21.6472 184.559C21.8594 184.978 22.284 185.187 22.9208 185.187H36.0812C39.902 185.187 43.0859 184.768 45.4208 184.14C47.7558 183.511 49.4539 182.464 50.7275 180.997C52.0011 179.53 53.0624 177.435 53.4869 174.711L53.6992 173.664C54.7605 169.264 53.9114 166.331 51.152 164.655L50.7275 164.236L51.152 163.817C52.8501 162.35 53.9114 160.464 54.5482 157.95C54.9728 155.855 54.9728 153.969 54.336 152.712C53.6992 151.455 52.4256 150.408 50.5152 149.779C48.6048 149.151 45.8454 148.732 42.2369 148.732L30.9868 149.151ZM37.9916 181.416C37.7793 181.416 37.567 181.416 37.3548 181.416H26.317L29.2887 167.588H41.1755C43.935 167.588 45.8454 167.797 47.119 168.007C48.3926 168.426 49.4539 169.055 49.6661 169.893C50.0907 170.731 49.8784 172.197 49.4539 174.083L49.2416 174.921C48.8171 176.807 48.1803 178.064 47.5435 179.111C46.6944 179.949 45.6331 180.578 43.935 180.997C42.8737 181.206 40.751 181.416 37.9916 181.416ZM27.3783 180.368H37.3548C40.3265 180.368 42.6614 180.159 44.1473 179.949C45.6331 179.74 46.4822 179.111 47.119 178.483C47.7558 177.645 48.3926 176.388 48.6048 174.711L48.8171 173.873C49.2416 172.197 49.2416 170.94 49.0293 170.312C48.8171 169.683 48.1803 169.264 47.119 168.845C45.8454 168.636 43.935 168.426 41.3878 168.426H30.1378L27.3783 180.368ZM39.902 163.607C39.6897 163.607 39.4774 163.607 39.2652 163.607H29.9255L32.2604 153.341H41.3878C44.1472 153.341 46.0576 153.55 47.5435 153.76C49.0293 153.969 49.8784 154.598 50.3029 155.227C50.7275 156.065 50.9397 157.112 50.5152 158.369C50.3029 159.836 49.6661 160.883 49.0293 161.512C48.1803 162.141 47.119 162.769 45.6331 162.979C44.1472 163.398 42.4491 163.607 39.902 163.607ZM31.1991 162.56H39.2652C42.0246 162.56 43.935 162.35 45.4208 162.141C46.6944 161.931 47.7558 161.512 48.3926 160.883C49.0293 160.255 49.4539 159.417 49.6661 158.16C49.8784 156.903 49.8784 156.065 49.4539 155.646C49.0293 155.227 48.3926 154.807 47.119 154.598C45.8454 154.388 43.935 154.179 41.1755 154.179H32.8972L31.1991 162.56Z" fill="white"/>
<path d="M92.3325 172.42C91.6957 175.144 90.6344 177.658 88.724 179.753C87.0259 181.848 84.9032 183.524 82.1438 184.572C79.5966 185.619 76.6249 186.248 73.4409 186.248C70.2569 186.248 67.7098 185.619 65.5871 184.572C63.4645 183.524 61.9786 181.848 61.1296 179.753C60.2805 177.658 60.2805 175.144 60.9173 172.42L63.0399 162.363C63.6767 159.639 64.7381 157.125 66.6484 155.03C68.3466 152.935 70.4692 151.259 73.2286 150.211C75.7758 149.164 78.7475 148.535 81.9315 148.535C85.1155 148.535 87.6627 149.164 89.7853 150.211C91.908 151.259 93.3938 152.935 94.2429 155.03C95.0919 157.125 95.0919 159.639 94.4551 162.363L92.3325 172.42ZM81.0825 153.144C77.6862 153.144 74.9268 153.983 72.8041 155.449C70.6815 157.125 69.1956 159.43 68.5588 162.363L66.4362 172.001C65.7994 175.144 66.2239 177.448 67.4975 178.915C68.9834 180.591 71.3183 181.22 74.7145 181.429C78.1108 181.429 80.8702 180.591 82.9928 179.124C85.1155 177.448 86.6013 175.144 87.2381 172.21L89.3608 162.573C89.9976 159.639 89.573 157.335 88.2995 155.659C87.0259 153.983 84.4787 153.144 81.0825 153.144Z" fill="white"/>
<path d="M73.8717 186.866H73.6594C70.4754 186.866 67.716 186.237 65.5933 184.98C63.4707 183.723 61.7726 182.047 60.9235 179.952C60.0745 177.857 60.0744 175.133 60.7112 172.409L62.8339 162.353C63.4707 159.419 64.7443 156.905 66.4424 154.81C68.1405 152.715 70.4754 151.039 73.0226 149.782C75.5698 148.525 78.5415 148.105 81.7255 148.105C84.9094 148.105 87.6689 148.734 89.7915 149.991C91.9142 151.248 93.6123 152.924 94.4614 155.019C95.3104 157.115 95.3104 159.838 94.6736 162.562L92.551 172.619C91.9142 175.552 90.6406 178.066 88.9425 180.161C87.2443 182.257 84.9094 183.933 82.3623 185.19C80.0273 186.237 77.0556 186.656 73.8717 186.866ZM81.9377 148.734C78.966 148.734 76.2066 149.363 73.6594 150.41C71.1122 151.458 68.9896 153.134 67.2915 155.229C65.5933 157.324 64.532 159.629 63.8952 162.353L61.7726 172.409C61.1358 175.133 61.348 177.438 61.9848 179.533C62.8339 181.628 64.1075 183.095 66.2301 184.142C68.3528 185.19 70.9 185.818 73.8717 185.818C76.8434 185.818 79.8151 185.19 82.3623 184.142C84.9094 183.095 87.0321 181.418 88.7302 179.323C90.4283 177.228 91.4896 174.923 92.1264 172.2L94.2491 162.143C94.8859 159.419 94.6736 157.115 94.0368 155.019C93.1878 152.924 91.9142 151.458 89.7915 150.41C87.6689 149.363 85.1217 148.734 81.9377 148.734ZM74.933 182.047C71.1122 182.047 68.565 181.209 67.0792 179.533C65.5933 177.857 65.1688 175.342 65.8056 172.2L67.9282 162.562C68.565 159.419 70.0509 156.905 72.3858 155.439C74.5085 153.762 77.4802 152.924 80.8764 152.924H81.0887C84.6972 152.924 87.2444 153.762 88.7302 155.439C90.2161 157.324 90.6406 159.838 90.0038 162.772L87.8811 172.409C87.2443 175.552 85.7585 178.066 83.4236 179.533C81.3009 181.209 78.3292 182.047 74.933 182.047ZM80.8764 153.553C77.6924 153.553 74.933 154.391 73.0226 155.858C70.9 157.324 69.6264 159.629 68.9896 162.562L66.8669 172.2C66.2301 175.133 66.6547 177.228 67.9282 178.695C69.2018 180.161 71.5368 180.999 74.933 180.999C78.3292 180.999 80.8764 180.161 82.999 178.695C85.1217 177.228 86.3953 174.923 87.0321 171.99L89.1547 162.353C89.7915 159.629 89.367 157.324 88.0934 155.858C86.6076 154.391 84.2726 153.553 80.8764 153.553Z" fill="white"/>
<path d="M119.29 164.46C121.625 164.46 123.535 164.041 125.021 162.993C126.507 162.155 127.568 160.898 127.78 159.222C128.205 157.546 127.78 156.289 126.507 155.241C125.233 154.193 123.535 153.565 121.412 153.565H110.375C109.313 153.565 108.677 153.774 108.464 153.984C108.04 154.193 107.827 155.032 107.615 156.079L107.403 157.127C106.978 159.012 105.917 160.06 104.219 160.06C102.521 160.06 101.884 159.012 102.309 157.127C102.945 153.984 104.007 151.889 105.28 150.632C106.554 149.375 108.464 148.746 111.224 148.746H123.111C125.445 148.746 127.568 149.165 129.266 150.003C130.964 150.841 132.026 152.098 132.875 153.565C133.512 155.032 133.724 156.917 133.299 158.803C132.662 162.155 130.752 164.879 127.78 166.764C129.903 168.86 130.54 171.793 129.903 175.145C129.478 177.24 128.629 178.916 127.144 180.592C125.658 182.269 123.96 183.526 121.837 184.364C119.714 185.202 117.592 185.621 115.257 185.621H103.37C100.823 185.621 99.1249 184.992 98.2759 183.735C97.4259 182.478 97.4259 180.383 98.0629 177.24C98.4879 175.355 99.5489 174.307 101.247 174.307C102.945 174.307 103.582 175.355 103.158 177.24L102.945 178.288C102.733 179.335 102.733 179.964 102.945 180.383C103.158 180.592 103.794 180.802 104.643 180.802H115.681C117.804 180.802 119.714 180.173 121.412 179.126C123.111 177.869 124.172 176.402 124.596 174.726C125.021 173.05 124.596 171.793 123.535 170.745C122.474 169.698 120.776 169.069 118.653 169.069H113.559C111.436 169.069 110.587 168.231 111.011 166.764C111.436 165.088 112.497 164.46 114.62 164.46H119.29Z" fill="white"/>
<path d="M114.837 186.441H102.737C99.978 186.441 98.28 185.812 97.431 184.346C96.582 183.089 96.582 180.784 97.219 177.641C97.855 174.917 99.553 174.498 100.827 174.289C101.676 174.289 102.313 174.498 102.737 175.127C103.162 175.755 103.374 176.594 103.162 177.851L102.95 178.898C102.737 180.155 102.737 180.574 102.95 180.574C102.95 180.574 103.162 180.784 104.436 180.784H115.473C117.596 180.784 119.294 180.155 120.992 179.108C122.69 178.06 123.539 176.594 123.964 174.917C124.388 173.451 123.964 172.194 122.903 171.356C121.841 170.308 120.355 169.889 118.233 169.889H113.138C111.865 169.889 111.016 169.68 110.379 169.051C109.954 168.632 109.954 167.794 109.954 166.956C110.167 165.699 111.228 164.232 113.987 164.232H119.082C121.204 164.232 123.115 163.813 124.601 162.975C126.087 162.137 126.936 161.089 127.148 159.623C127.572 158.156 127.148 156.899 126.087 156.061C125.025 155.013 123.327 154.594 121.204 154.594H110.167C109.105 154.594 108.681 154.804 108.469 155.013C108.256 155.223 108.044 155.642 107.832 156.69L107.62 157.737C106.983 160.461 105.285 160.88 104.011 161.089C103.162 161.089 102.525 160.88 102.101 160.251C101.676 159.623 101.464 158.785 101.676 157.528C102.313 154.385 103.374 152.08 104.86 150.823C106.346 149.566 108.256 148.938 111.016 148.938H122.903C125.45 148.938 127.572 149.357 129.271 150.195C130.969 151.033 132.242 152.29 133.091 153.966C133.728 155.642 133.94 157.528 133.516 159.413C132.879 162.766 130.969 165.28 128.209 167.375C130.12 169.68 130.756 172.403 129.907 175.756C129.483 177.851 128.421 179.736 127.148 181.412C125.662 183.089 123.964 184.346 121.841 185.393C119.506 185.812 117.384 186.441 114.837 186.441ZM100.827 175.127C99.341 175.127 98.492 175.965 98.068 177.641C97.431 180.574 97.431 182.67 98.28 183.717C98.917 184.765 100.615 185.393 102.95 185.393H114.837C117.171 185.393 119.294 184.974 121.204 184.136C123.115 183.298 124.813 182.041 126.299 180.574C127.572 179.108 128.634 177.222 129.058 175.336C129.695 171.984 129.058 169.47 127.148 167.375L126.723 166.956L127.148 166.746C130.12 164.861 131.818 162.347 132.455 159.204C132.879 157.318 132.667 155.642 132.03 154.175C131.393 152.709 130.332 151.661 128.634 150.823C126.936 149.985 125.025 149.566 122.69 149.566H110.804C110.804 149.566 110.804 149.566 110.591 149.566C108.256 149.566 106.346 150.195 105.285 151.242C104.011 152.499 103.162 154.385 102.525 157.318C102.313 158.156 102.313 158.785 102.737 159.204C102.95 159.413 103.374 159.623 104.011 159.623C105.497 159.623 106.346 158.785 106.77 157.109L106.983 156.061C107.195 155.013 107.62 154.175 108.044 153.756C108.469 153.337 109.318 153.337 110.379 153.128H121.417C123.752 153.128 125.662 153.756 126.936 154.804C128.209 156.061 128.634 157.528 128.421 159.413C127.997 161.089 127.148 162.347 125.45 163.394C123.752 164.442 121.841 164.861 119.506 164.861H114.412C112.502 164.861 111.44 165.489 111.228 166.956C111.016 167.584 111.228 168.003 111.44 168.213C111.653 168.632 112.502 168.841 113.351 168.841H118.445C120.78 168.841 122.478 169.47 123.752 170.518C125.025 171.775 125.45 173.241 125.025 174.917C124.601 176.803 123.539 178.27 121.629 179.527C119.931 180.784 117.808 181.412 115.686 181.412H104.648C103.587 181.412 102.737 181.203 102.525 180.784C102.101 180.365 102.101 179.527 102.525 178.479L102.737 177.432C102.95 176.594 102.95 175.965 102.525 175.546C101.888 175.336 101.464 175.127 100.827 175.127Z" fill="white"/>
<path d="M157.076 169.279C156.439 169.907 155.59 170.117 154.953 170.117C154.104 170.117 153.68 169.907 153.043 169.279L146.675 156.917L140.944 183.526C140.519 185.411 139.458 186.459 137.76 186.459C136.062 186.459 135.425 185.621 135.85 183.735L142.854 151.47C143.279 149.584 144.34 148.746 145.826 148.746C146.887 148.746 147.524 149.165 148.161 150.213L156.015 165.088L170.449 150.213C171.51 149.165 172.359 148.746 173.208 148.746C174.906 148.746 175.543 149.584 175.119 151.47L168.114 183.735C167.689 185.621 166.628 186.459 164.93 186.459C163.232 186.459 162.595 185.411 163.019 183.526L168.751 156.917L157.076 169.279Z" fill="white"/>
<path d="M165.144 186.866C164.083 186.866 163.446 186.656 163.022 186.028C162.597 185.399 162.385 184.561 162.597 183.304L168.116 158.372L157.291 169.686C156.442 170.314 155.805 170.524 154.956 170.524C154.107 170.524 153.258 170.105 152.833 169.476L146.89 158.162L141.371 183.514C140.734 186.237 139.036 186.866 137.762 186.866C136.913 186.866 136.064 186.656 135.64 186.028C135.215 185.399 135.003 184.561 135.215 183.514L142.22 151.248C142.857 148.734 144.342 148.105 145.616 148.105C146.89 148.105 147.739 148.734 148.376 149.782L156.017 164.029L170.027 149.782C171.088 148.734 172.149 148.315 173.211 148.315C174.06 148.315 174.696 148.524 175.121 149.153C175.545 149.782 175.758 150.62 175.545 151.667L168.541 183.933C168.116 185.818 167.055 186.866 165.144 186.866ZM169.814 155.648L163.659 183.723C163.446 184.561 163.446 185.19 163.871 185.609C164.083 185.818 164.508 186.028 165.144 186.028C166.63 186.028 167.479 185.19 167.904 183.723L174.909 151.458C175.121 150.62 175.121 149.991 174.696 149.572C174.484 149.363 174.06 149.153 173.423 149.153C172.574 149.153 171.725 149.572 170.876 150.41L156.017 165.705L147.739 150.41C147.314 149.572 146.677 149.153 145.828 149.153C144.555 149.153 143.706 149.991 143.281 151.667L136.276 183.933C136.064 184.771 136.064 185.399 136.489 185.609C136.701 185.818 137.125 186.028 137.762 186.028C139.248 186.028 140.097 185.19 140.522 183.514L146.677 155.648L153.682 169.057C153.894 169.476 154.531 169.686 155.168 169.686C155.805 169.686 156.442 169.476 156.866 169.057L169.814 155.648Z" fill="white"/>
<path d="M209.927 172.822C209.29 175.546 208.229 178.06 206.318 180.155C204.62 182.25 202.497 183.927 199.738 184.974C197.191 186.022 194.219 186.65 191.035 186.65C187.851 186.65 185.304 186.022 183.181 184.974C181.059 183.927 179.573 182.25 178.724 180.155C177.875 178.06 177.875 175.546 178.512 172.822L180.634 162.766C181.271 160.042 182.332 157.528 184.243 155.432C185.941 153.337 188.063 151.661 190.823 150.614C193.37 149.566 196.342 148.938 199.526 148.938C202.71 148.938 205.257 149.566 207.38 150.614C209.502 151.661 210.988 153.337 211.837 155.432C212.686 157.528 212.686 160.042 212.049 162.766L209.927 172.822ZM198.677 153.547C195.28 153.547 192.521 154.385 190.398 155.852C188.276 157.528 186.79 159.832 186.153 162.766L184.03 172.403C183.394 175.546 183.818 177.851 185.092 179.317C186.578 180.993 188.913 181.622 192.309 181.831C195.705 181.831 198.464 180.993 200.587 179.527C202.71 177.851 204.196 175.546 204.832 172.613L206.955 162.975C207.592 160.042 207.167 157.737 205.894 156.061C204.62 154.385 202.073 153.547 198.677 153.547Z" fill="white"/>
<path d="M191.462 187.073C188.066 187.073 185.306 186.444 183.184 185.187C181.061 183.93 179.363 182.254 178.514 180.159C177.665 178.064 177.665 175.34 178.302 172.616L180.424 162.56C181.061 159.626 182.335 157.112 184.033 155.017C185.731 152.922 188.066 151.246 190.613 149.989C193.16 148.941 196.132 148.312 199.316 148.312C202.5 148.312 205.259 148.941 207.382 150.198C209.505 151.455 211.203 153.131 212.052 155.227C212.901 157.322 212.901 160.045 212.264 162.769L210.141 172.826C209.505 175.759 208.231 178.273 206.533 180.368C204.835 182.464 202.5 184.14 199.953 185.397C197.618 186.654 194.646 187.073 191.462 187.073ZM199.528 149.151C196.556 149.151 193.797 149.779 191.25 150.827C188.703 151.874 186.58 153.55 184.882 155.646C183.184 157.741 182.122 160.045 181.486 162.769L179.363 172.826C178.726 175.55 178.938 177.854 179.575 179.949C180.424 182.045 181.698 183.511 183.82 184.559C185.943 185.606 188.49 186.235 191.462 186.235C194.434 186.235 197.405 185.606 199.953 184.559C202.5 183.511 204.622 181.835 206.321 179.74C208.019 177.645 209.08 175.34 209.717 172.616L211.839 162.56C212.476 159.836 212.264 157.531 211.627 155.436C210.778 153.341 209.505 151.874 207.382 150.827C205.259 149.779 202.712 149.151 199.528 149.151ZM192.523 182.464C188.703 182.464 186.155 181.625 184.67 179.949C183.184 178.273 182.759 175.759 183.396 172.616L185.519 162.979C186.155 159.836 187.641 157.322 189.976 155.855C192.099 154.179 195.07 153.341 198.679 153.341C202.287 153.341 204.835 154.179 206.321 155.855C207.806 157.741 208.231 160.255 207.594 163.188L205.471 172.826C204.835 175.969 203.349 178.483 201.014 179.949C198.891 181.416 195.92 182.254 192.523 182.464ZM198.467 153.969C195.283 153.969 192.523 154.807 190.613 156.274C188.49 157.741 187.217 160.045 186.58 162.979L184.457 172.616C183.82 175.55 184.245 177.645 185.519 179.111C186.792 180.578 189.127 181.416 192.523 181.416C195.92 181.416 198.467 180.578 200.589 179.111C202.712 177.645 203.986 175.34 204.622 172.407L206.745 162.769C207.382 160.045 206.957 157.741 205.684 156.274C204.41 154.807 201.863 153.969 198.467 153.969Z" fill="white"/>
<path d="M241.128 171.566L238.369 184.137C238.157 184.975 237.732 185.604 237.095 186.023C236.459 186.442 235.822 186.861 234.973 186.861C234.124 186.861 233.699 186.651 233.275 186.023C232.85 185.604 232.85 184.975 233.062 184.137L235.822 171.566H235.397C233.699 171.566 232.001 171.985 230.515 172.823C229.029 173.661 227.968 174.918 226.907 176.595C226.27 177.642 225.421 179.109 224.36 180.994C223.298 182.88 222.025 184.137 220.539 185.185C219.053 186.232 217.355 186.651 215.444 186.651C214.383 186.651 213.746 186.442 213.322 186.023C212.897 185.604 212.685 184.975 212.897 184.347C213.322 182.671 214.383 182.042 216.506 182.042C216.718 182.042 216.93 181.833 217.143 181.623C217.355 181.413 217.779 180.994 217.992 180.575C219.053 178.899 219.69 177.433 220.114 176.385C220.963 174.709 222.237 173.242 223.723 171.566C225.421 169.89 227.119 168.843 229.029 168.004C228.393 166.957 227.544 165.281 226.694 163.186C225.845 160.881 224.996 158.995 224.36 157.529C223.723 156.272 222.874 155.643 222.025 155.434C220.963 155.434 220.327 155.224 219.902 154.805C219.477 154.386 219.265 153.757 219.477 153.129C219.902 151.662 220.963 150.824 222.874 150.824C224.36 150.824 225.845 151.243 227.119 152.291C228.393 153.338 229.454 154.805 230.515 156.691C231.152 158.157 231.789 159.624 232.638 161.51C233.275 163.186 233.911 164.652 234.548 165.49C234.973 166.538 235.61 166.957 236.246 166.957H236.671L239.643 153.757C239.855 152.919 240.279 152.291 240.916 151.662C241.553 151.243 242.19 150.824 243.039 150.824C244.737 150.824 245.586 151.662 245.162 153.548L242.19 166.747H242.614C243.039 166.747 243.888 166.328 244.949 165.281C245.798 164.443 247.072 163.186 248.558 161.3C250.256 159.205 251.954 157.529 253.228 156.062C254.501 154.595 255.987 153.548 257.473 152.5C259.383 151.453 260.869 150.824 262.567 150.824C263.629 150.824 264.265 151.034 264.69 151.453C265.114 151.872 265.327 152.5 265.114 153.129C264.902 153.757 264.478 154.386 264.053 154.805C263.416 155.224 262.567 155.434 261.506 155.434C260.657 155.434 259.383 156.272 258.322 157.529C257.048 158.786 255.35 160.671 253.44 162.976C251.742 165.071 250.256 166.747 248.982 167.795C250.044 168.424 251.105 169.052 251.954 169.89C252.803 170.728 253.44 171.776 253.652 172.823C254.289 174.919 254.713 177.014 254.713 179.109C254.713 179.947 254.713 180.575 254.926 181.204C255.138 181.623 255.35 181.833 255.775 181.833C256.624 181.833 257.473 182.042 257.897 182.461C258.322 182.88 258.534 183.509 258.322 184.137C257.897 185.813 256.624 186.442 254.501 186.442C252.591 186.442 251.317 186.023 250.044 184.975C248.982 183.928 248.345 182.671 248.133 180.785C248.133 180.156 247.921 179.528 247.921 179.318C247.709 177.642 247.496 176.176 247.284 175.338C247.072 174.29 246.647 173.452 245.798 172.823C244.737 171.776 243.251 171.357 241.341 171.357L241.128 171.566Z" fill="white"/>
<path d="M254.507 187.303C252.596 187.303 250.898 186.674 249.837 185.627C248.563 184.579 247.927 183.112 247.714 181.227C247.714 180.598 247.502 179.97 247.502 179.551C247.29 177.874 247.078 176.617 246.865 175.57C246.653 174.732 246.228 173.894 245.592 173.056C244.743 172.218 243.257 171.798 241.559 171.798L238.799 183.95C238.587 184.788 238.162 185.627 237.526 186.046C236.889 186.674 236.04 186.884 235.191 186.884C234.342 186.884 233.493 186.465 233.068 186.046C232.643 185.417 232.431 184.788 232.643 183.741L235.191 171.589C233.493 171.589 232.007 172.008 230.733 172.846C229.46 173.684 228.186 174.941 227.337 176.408C226.7 177.455 225.851 178.922 224.79 180.808C223.728 182.693 222.455 184.16 220.757 185.207C219.271 186.255 217.36 186.674 215.662 186.674C214.601 186.674 213.752 186.465 213.115 185.836C212.691 185.417 212.266 184.788 212.478 183.741C212.691 182.484 213.752 181.017 216.511 181.017C216.511 181.017 216.724 181.017 216.936 180.808C217.148 180.598 217.36 180.179 217.573 179.76C218.634 178.084 219.271 176.617 219.695 175.57C220.544 173.894 221.818 172.218 223.516 170.541C225.002 169.075 226.7 167.818 228.398 167.189C227.761 166.142 227.125 164.675 226.276 162.58C225.426 160.275 224.577 158.389 223.941 156.923C223.304 155.875 222.667 155.247 222.03 155.247C220.969 155.247 220.12 154.828 219.695 154.409C219.271 153.99 218.846 153.361 219.059 152.314C219.271 151.056 220.12 149.59 222.879 149.59C224.577 149.59 226.063 150.218 227.549 151.266C228.823 152.314 230.096 153.78 230.945 155.875C231.582 157.342 232.219 158.809 233.068 160.694C233.705 162.37 234.342 163.837 234.978 164.675C235.403 165.513 235.827 165.932 236.252 165.932L239.011 153.152C239.224 152.104 239.648 151.475 240.285 150.847C240.922 150.218 241.771 150.009 242.62 150.009C243.681 150.009 244.318 150.218 244.743 150.847C245.167 151.475 245.379 152.314 245.167 153.361L242.408 165.932C242.62 165.932 243.257 165.513 244.318 164.675C245.167 163.837 246.441 162.58 247.927 160.694C249.625 158.599 251.323 156.713 252.596 155.456C253.87 153.99 255.356 152.942 257.054 151.895C258.964 150.637 260.662 150.009 262.361 150.218C263.422 150.218 264.271 150.428 264.908 151.056C265.545 151.685 265.757 152.314 265.545 153.152C265.332 153.99 264.908 154.618 264.271 155.037C263.634 155.456 262.785 155.666 261.512 155.875C260.662 155.875 259.813 156.504 258.54 157.761C257.266 159.018 255.568 160.904 253.658 163.208C252.172 165.094 250.686 166.561 249.625 167.608C250.474 168.027 251.323 168.865 252.172 169.703C253.021 170.751 253.658 171.798 253.87 172.846C254.507 174.941 254.931 177.036 254.931 179.132C254.931 179.97 254.931 180.598 255.144 181.017C255.144 181.227 255.356 181.436 255.568 181.436C256.629 181.436 257.479 181.646 257.903 182.274C258.54 182.903 258.752 183.531 258.54 184.369C258.328 185.836 257.478 187.303 254.507 187.303ZM240.71 171.17H241.559C243.681 171.17 245.167 171.798 246.228 172.637C247.078 173.475 247.502 174.313 247.714 175.36C247.927 176.408 248.139 177.665 248.351 179.341C248.351 179.76 248.351 180.179 248.563 180.808C248.776 182.484 249.2 183.741 250.261 184.788C251.323 185.627 252.596 186.255 254.295 186.255C256.205 186.255 257.266 185.627 257.691 184.16C257.903 183.531 257.691 183.112 257.266 182.903C256.842 182.484 256.205 182.274 255.356 182.274C254.931 182.274 254.507 182.065 254.082 181.227C253.87 180.808 253.87 179.97 253.87 179.132C253.87 177.246 253.445 175.151 252.809 173.056C252.596 172.008 251.96 171.17 251.323 170.332C250.474 169.494 249.625 168.865 248.563 168.237L247.927 168.027L248.351 167.608C249.625 166.561 251.111 164.884 252.809 162.789C254.719 160.275 256.417 158.389 257.691 157.132C258.964 155.666 260.026 155.037 261.299 155.037C262.148 155.037 262.997 154.828 263.422 154.409C263.846 153.99 264.271 153.571 264.483 152.942C264.695 152.314 264.483 151.895 264.059 151.685C263.634 151.266 262.997 151.056 262.148 151.056C260.662 151.056 259.177 151.685 257.478 152.733C255.993 153.78 254.507 154.828 253.233 156.294C251.96 157.551 250.474 159.437 248.563 161.532C246.865 163.418 245.804 164.675 244.955 165.513C243.681 166.561 242.832 167.189 242.408 167.189H241.559L244.53 153.361C244.743 152.523 244.743 151.895 244.318 151.475C244.106 151.056 243.681 151.056 242.832 151.056C242.195 151.056 241.559 151.266 241.134 151.685C240.71 152.104 240.285 152.733 240.073 153.571L237.101 167.189H236.464C235.615 167.189 234.978 166.561 234.554 165.304C233.917 164.465 233.28 162.999 232.643 161.323C232.007 159.647 231.158 157.97 230.521 156.504C229.672 154.618 228.61 153.361 227.337 152.314C226.063 151.475 224.79 150.847 223.304 150.847C221.606 150.847 220.757 151.475 220.332 152.733C220.12 153.361 220.332 153.78 220.544 153.99C220.969 154.409 221.606 154.618 222.455 154.618C223.516 154.618 224.365 155.456 225.214 156.923C225.851 158.18 226.7 160.066 227.549 162.58C228.398 164.884 229.035 166.351 229.884 167.399L230.096 167.818L229.672 168.027C227.761 168.656 226.063 169.913 224.577 171.379C223.092 172.846 221.818 174.522 220.969 175.989C220.544 177.036 219.695 178.293 218.634 180.179C218.422 180.598 217.997 181.017 217.785 181.436C217.36 181.855 216.936 181.855 216.724 181.855C214.813 181.855 213.964 182.484 213.54 183.95C213.327 184.579 213.54 184.998 213.964 185.207C214.389 185.627 215.026 185.836 215.875 185.836C217.573 185.836 219.059 185.417 220.544 184.369C222.03 183.531 223.304 182.065 224.153 180.389C225.214 178.503 226.063 177.036 226.7 175.989C227.761 174.313 228.823 172.846 230.309 172.008C231.794 171.17 233.493 170.751 235.403 170.541H236.464L233.493 183.741C233.28 184.369 233.493 184.788 233.705 185.207C233.917 185.627 234.342 185.836 234.978 185.836C235.615 185.836 236.252 185.627 236.889 185.207C237.526 184.788 237.738 184.16 237.95 183.531L240.71 171.17Z" fill="white"/>
<path d="M270.214 184.136C269.79 186.022 268.729 186.86 267.03 186.86C265.332 186.86 264.696 186.022 265.12 184.136L272.125 151.871C272.549 149.985 273.611 149.147 275.096 149.147C276.795 149.147 277.644 149.985 277.219 151.871L274.46 164.023H295.474L298.233 151.661C298.658 149.776 299.719 148.938 301.417 148.938C303.115 148.938 303.752 149.776 303.328 151.661L296.323 183.927C295.898 185.812 294.837 186.65 293.139 186.65C291.441 186.65 290.804 185.812 291.229 183.927L294.625 168.841H273.611L270.214 184.136Z" fill="white"/>
<path d="M293.135 187.296C292.074 187.296 291.437 187.086 291.012 186.457C290.588 185.829 290.375 184.991 290.588 183.943L293.772 169.277H273.607L270.423 184.153C269.998 186.248 268.724 187.296 266.814 187.296C265.965 187.296 265.116 187.086 264.691 186.457C264.267 185.829 264.055 184.991 264.267 183.943L271.272 151.678C271.908 149.164 273.394 148.535 274.668 148.535C275.729 148.535 276.366 148.745 276.79 149.373C277.215 150.002 277.427 150.84 277.215 151.887L274.668 163.62H294.833L297.38 151.678C298.017 149.164 299.715 148.535 300.989 148.535C301.838 148.535 302.687 148.745 303.111 149.373C303.536 150.002 303.748 150.84 303.536 151.887L296.531 184.153C296.107 186.248 295.045 187.296 293.135 187.296ZM272.97 168.439H294.833L291.437 184.153C291.224 184.991 291.224 185.619 291.649 185.829C291.861 186.038 292.286 186.248 292.923 186.248C294.408 186.248 295.258 185.41 295.682 183.943L302.687 151.678C302.899 150.84 302.899 150.211 302.475 149.792C302.262 149.583 301.838 149.373 301.201 149.373C299.715 149.373 298.866 150.211 298.441 151.887L295.682 164.458H273.819L276.578 151.678C276.79 150.84 276.79 150.211 276.366 149.792C276.154 149.373 275.517 149.373 274.88 149.373C273.607 149.373 272.757 150.211 272.333 151.887L265.328 184.153C265.116 184.991 265.116 185.619 265.54 185.829C265.753 186.038 266.177 186.248 266.814 186.248C268.3 186.248 269.149 185.41 269.573 183.943L272.97 168.439Z" fill="white"/>
<path d="M337.925 173.252C337.288 175.976 336.227 178.49 334.317 180.585C332.619 182.68 330.496 184.356 327.737 185.404C325.189 186.451 322.218 187.08 319.034 187.08C315.85 187.08 313.303 186.451 311.18 185.404C309.057 184.356 307.571 182.68 306.722 180.585C305.873 178.49 305.873 175.976 306.51 173.252L308.633 163.195C309.27 160.472 310.331 157.957 312.241 155.862C313.939 153.767 316.062 152.091 318.821 151.043C321.369 149.996 324.34 149.367 327.524 149.367C330.708 149.367 333.255 149.996 335.378 151.043C337.501 152.091 338.987 153.767 339.836 155.862C340.685 157.957 340.685 160.472 340.048 163.195L337.925 173.252ZM326.675 153.977C323.279 153.977 320.52 154.815 318.397 156.281C316.274 157.957 314.788 160.262 314.152 163.195L312.029 172.833C311.392 175.976 311.817 178.28 313.09 179.747C314.576 181.423 316.911 182.052 320.307 182.261C323.704 182.261 326.463 181.423 328.586 179.956C330.708 178.28 332.194 175.976 332.831 173.042L334.954 163.405C335.59 160.472 335.166 158.167 333.892 156.491C332.619 154.815 330.071 153.977 326.675 153.977Z" fill="white"/>
<path d="M319.67 187.506H319.458C316.274 187.506 313.515 186.878 311.392 185.621C309.27 184.364 307.571 182.688 306.722 180.592C305.873 178.497 305.873 175.774 306.51 173.05L308.633 162.993C309.27 160.06 310.543 157.546 312.241 155.451C313.939 153.355 316.274 151.679 318.821 150.422C321.369 149.165 324.34 148.746 327.524 148.746C330.708 148.746 333.468 149.375 335.59 150.632C337.713 151.889 339.411 153.565 340.26 155.66C341.109 157.755 341.109 160.479 340.472 163.203L338.35 173.259C337.713 176.193 336.439 178.707 334.741 180.802C333.043 182.897 330.708 184.573 328.161 185.83C325.614 186.878 322.642 187.506 319.67 187.506ZM327.524 149.584C324.553 149.584 321.793 150.213 319.246 151.26C316.699 152.308 314.576 153.984 312.878 156.079C311.18 158.174 310.119 160.479 309.482 163.203L307.359 173.259C306.722 175.983 306.935 178.288 307.571 180.383C308.42 182.478 309.694 183.945 311.817 184.992C313.939 186.04 316.487 186.668 319.458 186.668C322.43 186.668 325.402 186.04 327.949 184.992C330.496 183.945 332.619 182.269 334.317 180.173C336.015 178.078 337.076 175.774 337.713 173.05L339.836 162.993C340.472 160.269 340.26 157.965 339.623 155.87C338.774 153.774 337.501 152.308 335.378 151.26C333.255 150.213 330.708 149.584 327.524 149.584ZM320.52 182.688C316.911 182.688 314.152 181.85 312.666 180.173C311.18 178.497 310.755 175.983 311.392 172.84L313.515 163.203C314.152 160.06 315.637 157.546 317.972 156.079C320.095 154.403 323.067 153.565 326.463 153.565H326.675C330.284 153.565 332.831 154.403 334.317 156.079C335.803 157.965 336.227 160.479 335.59 163.412L333.468 173.05C332.831 176.193 331.345 178.707 329.01 180.173C326.888 181.85 323.916 182.688 320.52 182.688ZM326.463 154.403C323.279 154.403 320.52 155.241 318.609 156.708C316.487 158.174 315.213 160.479 314.576 163.412L312.453 173.05C311.817 175.983 312.241 178.078 313.515 179.545C314.788 181.011 317.123 181.85 320.52 181.85C323.704 181.85 326.463 181.011 328.586 179.545C330.708 178.078 331.982 175.774 332.619 172.84L334.741 163.203C335.378 160.479 334.954 158.174 333.68 156.708C332.406 155.241 329.859 154.403 326.463 154.403Z" fill="white"/>
<path d="M358.09 186.644C354.057 186.644 351.085 186.225 348.962 185.597C346.84 184.968 345.566 183.711 344.929 182.244C344.292 180.778 344.292 178.473 344.929 175.749L348.325 160.455C348.962 157.731 349.811 155.636 351.085 154.169C352.359 152.703 354.057 151.446 356.392 150.817C358.726 150.189 361.486 149.77 365.094 149.77H374.646C376.981 149.77 378.679 150.398 379.528 151.446C380.377 152.493 380.59 154.379 380.165 156.684C379.741 158.779 378.679 159.826 376.981 159.826C376.132 159.826 375.708 159.617 375.283 158.988C374.859 158.36 374.859 157.731 375.071 156.684C375.283 155.636 375.283 155.007 375.071 154.798C374.859 154.379 374.222 154.379 373.373 154.379H364.245C361.486 154.379 359.363 154.588 358.09 154.798C356.816 155.007 355.755 155.636 355.118 156.474C354.481 157.312 353.844 158.569 353.42 160.455L350.024 175.54C349.599 177.426 349.599 178.683 349.811 179.521C350.236 180.359 351.085 180.987 352.359 181.197C353.844 181.406 355.967 181.616 359.151 181.616H367.217C368.066 181.616 368.703 181.406 369.127 181.197C369.552 180.778 369.764 180.149 369.976 179.311C370.189 178.264 370.613 177.635 371.038 177.007C371.675 176.378 372.311 176.168 373.16 176.168C374.859 176.168 375.495 177.216 375.071 179.521C374.646 181.825 373.585 183.711 372.099 184.759C370.613 185.806 368.915 186.435 366.368 186.435L358.09 186.644Z" fill="white"/>
<path d="M366.794 187.303H358.092C354.059 187.303 351.087 186.884 348.964 186.255C346.842 185.627 345.356 184.369 344.507 182.693C343.87 181.017 343.87 178.713 344.294 175.989L347.691 160.694C348.327 157.97 349.177 155.666 350.662 154.199C351.936 152.523 353.846 151.475 356.181 150.637C358.516 150.009 361.488 149.59 365.096 149.59H374.648C377.195 149.59 378.894 150.218 379.955 151.475C381.016 152.733 381.228 154.618 380.592 157.132C379.955 160.066 378.257 160.694 376.983 160.694C375.922 160.694 375.285 160.275 374.861 159.647C374.436 159.018 374.436 158.18 374.648 157.132C374.861 156.085 374.648 155.666 374.648 155.666C374.648 155.666 374.224 155.456 373.162 155.247H364.035C361.276 155.247 359.153 155.456 357.879 155.666C356.606 155.875 355.757 156.504 355.12 157.132C354.483 157.97 354.059 159.228 353.634 160.904L350.238 175.989C349.813 177.665 349.813 178.922 350.026 179.76C350.238 180.389 351.087 181.017 352.36 181.227C353.634 181.436 355.969 181.646 358.941 181.646H367.007C367.856 181.646 368.493 181.436 368.705 181.227C368.917 181.017 369.129 180.598 369.554 179.551C369.766 178.503 370.191 177.665 370.828 177.036C371.464 176.408 372.313 176.198 373.162 176.198C374.011 176.198 374.648 176.408 375.073 177.036C375.497 177.665 375.71 178.713 375.497 179.97C374.861 182.484 374.011 184.16 372.526 185.417C371.04 186.674 369.129 187.303 366.794 187.303ZM358.092 186.255H366.582C368.917 186.255 370.615 185.627 371.889 184.579C373.162 183.531 374.011 181.855 374.648 179.551C374.861 178.503 374.861 177.665 374.436 177.246C374.224 177.036 373.799 176.827 373.162 176.827C372.526 176.827 371.889 177.036 371.464 177.455C371.04 177.874 370.615 178.503 370.403 179.551C370.191 180.598 369.766 181.227 369.342 181.646C368.917 182.065 368.068 182.274 367.007 182.274H358.941C355.757 182.274 353.422 182.065 352.148 181.855C350.662 181.436 349.601 180.808 349.177 179.76C348.752 178.922 348.752 177.455 349.177 175.57L352.573 160.485C352.997 158.599 353.634 157.342 354.271 156.294C354.908 155.456 356.181 154.828 357.667 154.409C359.153 154.199 361.063 153.99 364.035 153.99H373.162C374.224 153.99 374.861 154.199 375.285 154.618C375.71 155.037 375.71 155.875 375.497 156.923C375.285 157.761 375.285 158.389 375.71 158.809C375.922 159.228 376.346 159.437 376.983 159.437C378.469 159.437 379.318 158.599 379.743 156.504C380.167 154.199 380.167 152.523 379.318 151.475C378.469 150.428 376.983 150.009 374.861 150.009H365.309C361.7 150.009 358.941 150.428 356.606 151.056C354.483 151.685 352.785 152.733 351.511 154.199C350.238 155.666 349.389 157.761 348.752 160.485L345.356 175.779C344.719 178.503 344.719 180.598 345.356 182.065C345.993 183.531 347.266 184.579 349.177 185.207C351.299 186.046 354.271 186.255 358.092 186.255Z" fill="white"/>
<path d="M412.009 150.008C413.919 150.008 414.768 150.846 414.344 152.312C413.919 153.989 412.858 154.617 410.948 154.617H402.457L395.877 184.578C395.665 185.416 395.24 186.044 394.603 186.464C393.966 186.883 393.117 187.302 392.268 187.302C391.419 187.302 390.782 187.092 390.358 186.673C389.933 186.254 389.933 185.625 390.146 184.787L396.726 154.827H388.023C387.174 154.827 386.325 154.617 385.9 154.198C385.476 153.779 385.264 153.151 385.476 152.522C385.688 151.893 386.113 151.265 386.537 150.846C387.174 150.427 388.023 150.217 388.872 150.217L412.009 150.008Z" fill="white"/>
<path d="M392.265 187.709C391.204 187.709 390.567 187.499 389.931 186.87C389.506 186.242 389.294 185.613 389.506 184.566L395.874 155.234H387.808C386.747 155.234 385.897 155.024 385.473 154.396C385.048 153.977 384.624 153.348 385.048 152.3C385.261 151.462 385.685 150.834 386.322 150.205C386.959 149.786 387.808 149.577 388.869 149.367H411.794C413.067 149.367 413.916 149.577 414.341 150.205C414.765 150.624 414.765 151.462 414.765 152.3C414.553 153.558 413.704 155.024 410.945 155.024H402.666L396.298 184.566C396.086 185.404 395.662 186.242 394.813 186.661C394.176 187.499 393.114 187.709 392.265 187.709ZM388.869 150.415C388.02 150.415 387.383 150.624 386.959 151.043C386.534 151.462 386.11 151.881 385.897 152.51C385.685 153.138 385.897 153.558 386.11 153.767C386.534 154.186 386.959 154.396 387.808 154.396H397.147L390.567 184.775C390.355 185.404 390.567 186.032 390.78 186.242C390.992 186.661 391.629 186.87 392.265 186.87C393.114 186.87 393.751 186.661 394.176 186.242C394.813 185.823 395.025 185.194 395.237 184.566L402.03 154.186H410.945C412.643 154.186 413.704 153.558 413.916 152.091C414.129 151.462 413.916 151.043 413.704 150.834C413.492 150.415 412.855 150.205 411.794 150.205L388.869 150.415Z" fill="white"/>
<path d="M421.768 168.655L418.796 182.273H441.933C442.995 182.273 443.631 182.483 444.056 182.902C444.48 183.321 444.693 183.949 444.48 184.787C444.268 185.416 443.844 186.044 443.419 186.464C442.782 186.883 441.933 187.092 441.084 187.092H415.4C414.551 187.092 414.127 186.883 413.702 186.254C413.49 185.835 413.278 184.997 413.49 184.159L420.282 152.941C420.495 152.103 420.919 151.265 421.344 150.846C421.98 150.427 422.617 150.008 423.254 150.008H448.938C449.999 150.008 450.636 150.217 451.061 150.636C451.485 151.055 451.697 151.684 451.485 152.522C451.273 153.151 450.848 153.779 450.424 154.198C449.787 154.617 448.938 154.827 448.089 154.827H424.952L423.042 163.836H438.749C439.811 163.836 440.66 164.045 441.084 164.464C441.509 164.883 441.721 165.512 441.509 166.35C441.084 167.817 439.811 168.655 437.688 168.655H421.768Z" fill="white"/>
<path d="M440.874 187.512H415.19C414.341 187.512 413.492 187.093 413.28 186.465C412.855 185.836 412.855 184.998 413.068 183.95L419.86 152.733C420.072 151.685 420.497 150.847 421.134 150.428C421.771 149.799 422.407 149.59 423.256 149.59H448.94C450.002 149.59 450.851 149.799 451.275 150.428C451.912 151.056 451.912 151.685 451.7 152.733C451.488 153.571 451.063 154.199 450.426 154.618C449.789 155.037 448.94 155.247 447.879 155.247H425.167L423.469 163.418H438.539C439.813 163.418 440.662 163.627 441.299 164.256C441.936 164.884 442.148 165.513 441.936 166.561C441.511 168.237 440.025 169.075 437.69 169.284H422.407L419.648 181.855H442.148C443.209 181.855 444.058 182.065 444.483 182.693C445.12 183.322 445.12 183.95 444.907 184.998C444.695 185.836 444.271 186.465 443.634 186.884C442.785 187.303 441.936 187.512 440.874 187.512ZM423.256 150.428C422.62 150.428 422.195 150.637 421.558 151.056C421.134 151.475 420.709 152.104 420.497 152.942L413.704 184.16C413.492 184.998 413.492 185.627 413.917 185.836C414.129 186.255 414.553 186.465 415.19 186.465H440.874C441.723 186.465 442.36 186.255 442.997 186.046C443.421 185.627 443.846 185.207 444.058 184.579C444.271 183.95 444.058 183.322 443.846 183.112C443.422 182.693 442.997 182.693 442.148 182.693H418.587L421.771 168.237H437.69C439.601 168.237 440.662 167.608 441.087 166.351C441.299 165.723 441.087 165.304 440.662 164.884C440.238 164.465 439.601 164.465 438.539 164.256H422.407L424.53 154.409H447.879C448.728 154.409 449.365 154.199 450.002 153.99C450.426 153.571 450.851 153.152 451.063 152.523C451.275 151.895 451.063 151.266 450.851 151.056C450.426 150.637 450.002 150.637 449.153 150.637L423.256 150.428Z" fill="white"/>
<path d="M451.702 184.765L458.706 152.5C459.131 150.614 460.192 149.776 461.89 149.776C463.588 149.776 464.225 150.824 463.801 152.709L458.07 178.899L485.239 151.243C486.301 150.195 487.15 149.776 488.211 149.776C489.909 149.776 490.334 150.614 489.909 152.5L482.905 184.765C482.48 186.651 481.419 187.489 479.721 187.489C478.022 187.489 477.386 186.651 477.81 184.975L483.541 158.366L456.584 185.813C455.947 186.441 455.522 186.86 455.098 187.07C454.673 187.28 454.249 187.28 453.612 187.28C451.914 187.489 451.277 186.441 451.702 184.765ZM470.805 151.033C468.47 151.033 466.985 150.405 466.136 149.357C465.499 148.31 465.287 146.214 465.923 143.491L466.56 140.977H471.654L471.018 144.329C470.805 145.167 470.805 145.586 471.018 145.795C471.23 146.005 471.655 146.005 472.504 146.214H478.659C479.508 146.214 479.933 146.214 480.145 146.005C480.357 145.795 480.57 145.376 480.782 144.538L481.419 141.186H486.513L485.876 143.7C485.239 146.424 484.39 148.519 483.117 149.567C481.843 150.614 480.145 151.243 477.81 151.243L470.805 151.033Z" fill="white"/>
<path d="M479.715 187.926C478.653 187.926 478.017 187.717 477.592 187.088C477.168 186.46 476.955 185.831 477.168 184.783L482.686 159.851L457.002 186.25C456.366 186.879 455.729 187.298 455.304 187.717C454.88 187.926 454.243 188.136 453.606 188.136C452.757 188.136 452.12 187.926 451.696 187.298C451.271 186.669 451.059 185.831 451.271 184.783L458.276 152.518C458.913 150.004 460.611 149.375 461.885 149.375C462.734 149.375 463.37 149.585 463.795 150.213C464.219 150.842 464.432 151.68 464.219 152.937L458.913 177.66L485.021 151.051C486.083 150.004 487.144 149.585 488.205 149.585C489.054 149.585 489.691 149.794 490.116 150.423C490.54 151.051 490.753 151.889 490.54 152.937L483.535 185.202C482.899 186.879 481.625 187.926 479.715 187.926ZM484.385 156.918L478.229 184.993C478.017 185.831 478.017 186.25 478.441 186.669C478.653 186.879 479.078 187.088 479.927 187.088C481.413 187.088 482.262 186.25 482.686 184.783L489.691 152.518C489.903 151.68 489.903 151.051 489.479 150.632C489.267 150.423 488.842 150.213 488.205 150.213C487.356 150.213 486.507 150.632 485.658 151.47L457.215 180.384L463.37 152.728C463.583 151.889 463.583 151.051 463.158 150.842C462.946 150.632 462.521 150.423 461.885 150.423C460.399 150.423 459.55 151.261 459.125 152.937L452.12 185.202C451.908 186.041 451.908 186.669 452.333 186.879C452.545 187.088 452.969 187.298 453.606 187.298C454.243 187.298 454.667 187.298 454.88 187.088C455.092 186.879 455.517 186.669 456.366 185.831L484.385 156.918ZM478.017 151.68H470.8C468.252 151.68 466.554 151.051 465.705 149.794C464.856 148.537 464.856 146.442 465.493 143.509L466.13 140.785H472.073L471.224 144.766C471.012 145.814 471.012 146.023 471.012 146.023C471.012 146.023 471.224 146.233 472.073 146.233H478.229C479.078 146.233 479.502 146.023 479.502 146.023C479.502 146.023 479.715 145.814 479.927 144.766L480.776 140.995H486.719L486.083 143.928C485.446 146.861 484.385 148.956 483.111 150.004C482.262 151.051 480.564 151.47 478.017 151.68ZM466.979 141.414L466.554 143.509C465.918 146.233 465.918 148.118 466.554 148.956C467.191 150.004 468.677 150.423 470.8 150.423H477.804C479.927 150.423 481.837 150.004 482.899 148.956C483.96 147.909 485.021 146.023 485.446 143.299L485.87 141.414H481.625L480.988 144.347C480.776 145.395 480.564 145.814 480.139 146.233C479.715 146.442 479.29 146.652 478.229 146.652H472.073C471.012 146.652 470.375 146.442 470.163 146.233C469.951 145.814 469.951 145.395 470.163 144.347L470.8 141.623L466.979 141.414Z" fill="white"/>
<path d="M725.823 206.771V192.918H730.769C732.174 191.16 733.68 187.564 735.284 182.132C736.888 176.7 737.911 169.741 738.349 161.253L738.81 152.02H765.973V192.918H772.238V206.771H766.966V198.197H731.099V206.771H725.823ZM743.625 165.546C743.142 172.583 742.197 178.552 740.789 183.455C739.38 188.359 738.106 191.516 736.963 192.922H760.367V157.302H744.213L743.625 165.546Z" fill="white"/>
<path d="M778.967 211.393V168.515H784.243V172.013C785.296 170.783 786.739 169.782 788.56 169.01C790.385 168.242 792.307 167.855 794.33 167.855C798.505 167.855 801.836 169.25 804.32 172.043C806.804 174.836 808.045 178.454 808.045 182.897C808.045 187.47 806.617 191.272 803.758 194.309C800.899 197.342 797.186 198.86 792.614 198.86C789.096 198.86 786.308 198.178 784.239 196.813V211.393H778.967ZM792.813 172.804C789.294 172.804 786.439 174.169 784.243 176.894V191.606C786.529 193.147 789.167 193.915 792.153 193.915C795.275 193.915 797.766 192.903 799.636 190.882C801.502 188.861 802.439 186.263 802.439 183.099C802.439 180.021 801.581 177.535 799.868 175.646C798.152 173.749 795.799 172.804 792.813 172.804Z" fill="white"/>
<path d="M841.398 168.523L829.531 198.208C827.422 203.352 825.552 206.839 823.926 208.664C822.3 210.49 820.389 211.405 818.189 211.405C816.297 211.405 814.431 210.786 812.583 209.557L814.296 205.534C815.701 206.194 816.803 206.524 817.593 206.524C818.822 206.524 819.935 205.999 820.921 204.942C821.91 203.884 822.91 202.171 823.922 199.794L824.581 198.212L810.339 168.527H816.668L825.372 187.392C825.548 187.786 826.14 189.282 827.152 191.876C827.545 190.425 828.01 188.907 828.538 187.325L835.396 168.523H841.398Z" fill="white"/>
<path d="M846.807 198.208V168.523H865.599V173.468H852.083V198.205H846.807V198.208Z" fill="white"/>
<path d="M872.088 194.474C869.165 191.549 867.704 187.845 867.704 183.358C867.704 178.874 869.165 175.166 872.088 172.242C875.01 169.318 878.821 167.855 883.527 167.855C888.23 167.855 892.041 169.318 894.967 172.242C897.89 175.166 899.351 178.87 899.351 183.358C899.351 187.842 897.89 191.549 894.967 194.474C892.045 197.398 888.23 198.86 883.527 198.86C878.821 198.86 875.01 197.398 872.088 194.474ZM873.305 183.358C873.305 186.436 874.261 188.963 876.172 190.942C878.083 192.922 880.534 193.911 883.524 193.911C886.51 193.911 888.964 192.933 890.876 190.976C892.787 189.019 893.742 186.481 893.742 183.358C893.742 180.28 892.787 177.749 890.876 175.77C888.964 173.79 886.514 172.8 883.524 172.8C880.579 172.8 878.139 173.779 876.206 175.736C874.272 177.697 873.305 180.239 873.305 183.358Z" fill="white"/>
<path d="M930.346 190.811L931.994 194.969C929.135 197.563 925.422 198.86 920.85 198.86C916.058 198.86 912.213 197.454 909.313 194.639C906.413 191.823 904.963 188.063 904.963 183.358C904.963 178.874 906.323 175.166 909.051 172.242C911.775 169.318 915.511 167.855 920.258 167.855C924.17 167.855 927.445 169.119 930.083 171.646C932.721 174.176 934.04 177.438 934.04 181.442C934.04 182.807 933.932 183.995 933.71 185.004H910.898C911.119 187.774 912.161 189.952 914.031 191.534C915.897 193.12 918.306 193.911 921.251 193.911C925.115 193.915 928.146 192.88 930.346 190.811ZM919.992 172.804C917.354 172.804 915.2 173.543 913.532 175.012C911.861 176.49 910.872 178.387 910.565 180.718H928.562C928.431 178.255 927.606 176.325 926.089 174.915C924.575 173.509 922.544 172.804 919.992 172.804Z" fill="white"/>
<path d="M952.153 207.055V190.069H957.459C958.92 188.276 960.464 184.606 962.094 179.061C963.72 173.516 964.724 166.686 965.099 158.573L965.594 148.664H996.3V190.072H1003.02V207.059H994.884V198.211H960.291V207.059H952.153V207.055ZM973.238 165.437C972.814 171.241 971.941 176.456 970.618 181.078C969.296 185.705 968.097 188.7 967.01 190.069H987.668V156.799H974.013L973.238 165.437Z" fill="white"/>
<path d="M1033.09 189.291L1035.42 195.027C1032.31 197.67 1028.25 198.99 1023.26 198.99C1018.11 198.99 1013.97 197.456 1010.84 194.39C1007.7 191.323 1006.13 187.289 1006.13 182.284C1006.13 177.519 1007.67 173.541 1010.73 170.358C1013.8 167.172 1017.88 165.582 1022.97 165.582C1027.17 165.582 1030.73 166.962 1033.65 169.721C1036.58 172.48 1038.04 176.031 1038.04 180.372C1038.04 182.168 1037.88 183.63 1037.55 184.758H1014.55C1014.88 187.12 1015.92 188.946 1017.67 190.243C1019.41 191.54 1021.56 192.189 1024.11 192.189C1027.68 192.193 1030.68 191.226 1033.09 189.291ZM1022.62 172.375C1017.99 172.375 1015.21 174.688 1014.27 179.311H1029.9C1029.95 177.328 1029.31 175.678 1027.99 174.359C1026.67 173.039 1024.88 172.375 1022.62 172.375Z" fill="white"/>
<path d="M1064.49 198.207V174.498H1056.07L1055.86 177.895C1055.34 183.605 1054.48 187.991 1053.28 191.058C1052.08 194.125 1050.57 196.19 1048.76 197.251C1046.94 198.312 1044.52 198.845 1041.5 198.845L1040.8 190.919C1041.83 191.013 1042.81 190.721 1043.73 190.034C1044.65 189.348 1045.54 187.841 1046.39 185.502C1047.24 183.166 1047.78 180.088 1048.01 176.264L1048.51 166.355H1072.63V198.207H1064.49Z" fill="white"/>
<path d="M1084.48 194.281C1081.29 191.143 1079.71 187.143 1079.71 182.284C1079.71 177.425 1081.3 173.425 1084.48 170.287C1087.66 167.149 1091.85 165.582 1097.04 165.582C1102.22 165.582 1106.41 167.149 1109.59 170.287C1112.78 173.425 1114.37 177.425 1114.37 182.284C1114.37 187.147 1112.77 191.143 1109.59 194.281C1106.41 197.419 1102.22 198.99 1097.04 198.99C1091.85 198.99 1087.66 197.419 1084.48 194.281ZM1088.4 182.284C1088.4 184.927 1089.22 187.109 1090.84 188.834C1092.47 190.558 1094.53 191.417 1097.03 191.417C1099.58 191.417 1101.67 190.581 1103.29 188.901C1104.92 187.225 1105.73 185.021 1105.73 182.284C1105.73 179.641 1104.91 177.47 1103.26 175.772C1101.6 174.074 1099.53 173.223 1097.03 173.223C1094.58 173.223 1092.53 174.062 1090.88 175.734C1089.23 177.414 1088.4 179.596 1088.4 182.284Z" fill="white"/>
<path d="M927.727 5.52344H816.761V117.498H927.727V5.52344Z" fill="#F3E700"/>
<path d="M911.593 59.1929C912.539 28.8406 937.252 4.53113 967.227 4.53113C997.2 4.53113 1021.61 28.8406 1022.56 59.1929V117.515H911.593V59.1929Z" fill="#00E1BB"/>
<path fill-rule="evenodd" clip-rule="evenodd" d="M927.727 21.2891C918.14 31.093 912.049 44.434 911.589 59.207V117.5H927.727V21.2891Z" fill="#60CFAF"/>
<path d="M786.315 5.52344C816.668 6.46984 840.977 31.183 840.977 61.158C840.977 91.132 816.668 115.543 786.315 116.489H727.994V5.52344H786.315Z" fill="#FF7E86"/>
<path fill-rule="evenodd" clip-rule="evenodd" d="M816.767 15.543C831.403 25.6356 840.979 42.376 840.979 61.19C840.979 80.003 831.403 96.624 816.767 106.628V15.543Z" fill="#E77188"/>
<path d="M1114.36 61.524C1114.36 93.559 1088.84 119.529 1057.36 119.529C1025.88 119.529 1000.36 93.559 1000.36 61.524C1000.36 29.4903 1025.88 3.51953 1057.36 3.51953C1088.84 3.51953 1114.36 29.4852 1114.36 61.524Z" fill="#5267FF"/>
<path fill-rule="evenodd" clip-rule="evenodd" d="M1011.5 27.1055C1018.13 36.099 1022.19 47.177 1022.56 59.205V107.496C1009.06 96.889 1000.36 80.254 1000.36 61.553C1000.36 48.654 1004.5 36.738 1011.5 27.1055Z" fill="#2C68E1"/>
<path fill-rule="evenodd" clip-rule="evenodd" d="M619.727 211.149V0.179688H623.374V211.149H619.727Z" fill="white"/>
</g>
<defs>
<filter id="filter0_d_303_2301" x="-4" y="0.179688" width="1122.37" height="219.225" filterUnits="userSpaceOnUse" color-interpolation-filters="sRGB">
<feFlood flood-opacity="0" result="BackgroundImageFix"/>
<feColorMatrix in="SourceAlpha" type="matrix" values="0 0 0 0 0 0 0 0 0 0 0 0 0 0 0 0 0 0 127 0" result="hardAlpha"/>
<feOffset dy="4"/>
<feGaussianBlur stdDeviation="2"/>
<feComposite in2="hardAlpha" operator="out"/>
<feColorMatrix type="matrix" values="0 0 0 0 0 0 0 0 0 0 0 0 0 0 0 0 0 0 0.25 0"/>
<feBlend mode="normal" in2="BackgroundImageFix" result="effect1_dropShadow_303_2301"/>
<feBlend mode="normal" in="SourceGraphic" in2="effect1_dropShadow_303_2301" result="shape"/>
</filter>
</defs>
</svg>
