<svg preserveAspectRatio="none" width="270" height="52" viewBox="0 0 270 52" fill="none" xmlns="http://www.w3.org/2000/svg">
<g clip-path="url(#clip0_971_5124)">
<path d="M102.616 1.34961H28.7561L25.5781 16.0987H99.592L102.616 1.34961Z" fill="#EEEEEE"/>
<path d="M31.8292 13.0663C31.7266 13.4774 31.4704 13.7344 31.0604 13.6829C30.6504 13.6829 30.4965 13.4774 30.5992 13.0148L32.2904 5.15208C32.3419 4.94654 32.4443 4.74096 32.5469 4.63819C32.7007 4.53539 32.8543 4.43262 33.0081 4.43262H35.7758C37.0061 4.43262 37.8774 4.63819 38.39 4.94653C38.8512 5.30627 39.0562 5.87155 38.8512 6.64242C38.6974 7.41322 38.2874 8.02987 37.7236 8.44121C37.16 8.8523 36.3911 9.05785 35.4685 9.05785H32.6493L31.8292 13.0663ZM35.0584 7.92709C36.0323 7.92709 36.6985 7.87583 37.0061 7.72154C37.3135 7.56751 37.5185 7.25911 37.6212 6.79658C37.6724 6.48824 37.6724 6.2313 37.57 6.07712C37.4674 5.92296 37.2623 5.82016 36.9547 5.76877C36.6473 5.71739 36.1861 5.666 35.5196 5.666H33.3669L32.8543 7.92709H35.0584Z" fill="black"/>
<path d="M31.8292 13.0663C31.7266 13.4774 31.4704 13.7344 31.0604 13.6829C30.6504 13.6829 30.4965 13.4774 30.5992 13.0148L32.2904 5.15208C32.3419 4.94654 32.4443 4.74096 32.5469 4.63819C32.7007 4.53539 32.8543 4.43262 33.0081 4.43262H35.7758C37.0061 4.43262 37.8774 4.63819 38.39 4.94653C38.8512 5.30627 39.0562 5.87155 38.8512 6.64242C38.6974 7.41322 38.2874 8.02987 37.7236 8.44121C37.16 8.8523 36.3911 9.05785 35.4685 9.05785H32.6493L31.8292 13.0663ZM35.0584 7.92709C36.0323 7.92709 36.6985 7.87583 37.0061 7.72154C37.3135 7.56751 37.5185 7.25911 37.6212 6.79658C37.6724 6.48824 37.6724 6.2313 37.57 6.07712C37.4674 5.92296 37.2623 5.82016 36.9547 5.76877C36.6473 5.71739 36.1861 5.666 35.5196 5.666H33.3669L32.8543 7.92709H35.0584Z" fill="black"/>
<path d="M31.1118 13.8372C31.0606 13.8372 31.0606 13.8372 31.1118 13.8372C30.8556 13.8372 30.7018 13.7857 30.5991 13.6316C30.4968 13.4774 30.4453 13.3233 30.4967 13.0663L32.188 5.20347C32.2395 4.94653 32.3418 4.74096 32.4957 4.63819C32.6495 4.48401 32.8033 4.43262 33.0595 4.43262H35.8272C37.1087 4.43262 37.98 4.63819 38.4926 4.99792C39.0053 5.35765 39.2103 5.97434 39.0053 6.79658C38.8514 7.61877 38.4414 8.23541 37.8264 8.64675C37.2111 9.05785 36.4423 9.26339 35.5199 9.26339H32.7519L31.9318 13.1175C31.8294 13.5801 31.5218 13.8372 31.1118 13.8372ZM33.0083 4.5868C32.8545 4.5868 32.7519 4.63819 32.5983 4.74096C32.4957 4.84374 32.393 4.99792 32.3418 5.20347L30.6503 13.0663C30.5991 13.2718 30.5991 13.3746 30.7018 13.4774C30.753 13.5289 30.8556 13.5801 31.0092 13.5801C31.368 13.5801 31.573 13.4261 31.6756 13.0148L32.5468 8.95507H35.4684C36.3911 8.95507 37.1087 8.74953 37.6726 8.3897C38.2364 7.9786 38.5952 7.41322 38.7488 6.64242C38.9026 5.92296 38.7488 5.40904 38.3388 5.04931C37.8776 4.68958 37.0061 4.53539 35.8272 4.53539L33.0083 4.5868ZM35.2122 8.02987C35.161 8.02987 35.1098 8.02987 35.0584 8.02987H32.8033L33.3157 5.51181H35.571C36.2373 5.51181 36.6987 5.56323 37.0061 5.61461C37.3649 5.666 37.57 5.82016 37.6726 5.97434C37.775 6.17989 37.775 6.43685 37.7238 6.74519C37.6211 7.25911 37.3649 7.56751 37.0575 7.72154C36.7499 7.9786 36.1349 8.02987 35.2122 8.02987ZM33.0595 7.82432H35.0584C36.0323 7.82432 36.6473 7.77305 36.9549 7.61877C37.2626 7.516 37.4161 7.20773 37.5188 6.79658C37.57 6.48824 37.57 6.28269 37.5188 6.17989C37.4676 6.02573 37.2626 5.97434 37.0061 5.92296C36.6987 5.87155 36.2373 5.82016 35.571 5.82016H33.5207L33.0595 7.82432Z" fill="white"/>
<path d="M46.8986 10.3419C46.7448 11.0101 46.4886 11.6267 46.0274 12.1406C45.6171 12.6544 45.1047 13.0655 44.4383 13.3226C43.8232 13.5796 43.1058 13.7337 42.337 13.7337C41.5681 13.7337 40.9529 13.5796 40.4405 13.3226C39.9278 13.0655 39.569 12.6544 39.364 12.1406C39.159 11.6267 39.159 11.0101 39.3128 10.3419L39.8254 7.8751C39.979 7.20712 40.2354 6.59043 40.6967 6.07651C41.1067 5.56262 41.6193 5.15148 42.2855 4.89454C42.9006 4.63758 43.6182 4.4834 44.3871 4.4834C45.1559 4.4834 45.7709 4.63758 46.2836 4.89454C46.7962 5.15148 47.1548 5.56262 47.3598 6.07651C47.5651 6.59043 47.5651 7.20712 47.4113 7.8751L46.8986 10.3419ZM44.1309 5.61401C43.3108 5.61401 42.6444 5.81955 42.1317 6.17931C41.6193 6.59043 41.2605 7.15571 41.1067 7.8751L40.5943 10.2391C40.4405 11.0101 40.5428 11.5752 40.8505 11.935C41.2093 12.3461 41.7731 12.5004 42.5932 12.5517C43.4132 12.5517 44.0797 12.3461 44.5921 11.9865C45.1047 11.5752 45.4636 11.0101 45.6174 10.2906L46.1298 7.92661C46.2836 7.20712 46.181 6.64182 45.8736 6.2307C45.5659 5.81958 44.9509 5.61401 44.1309 5.61401Z" fill="black"/>
<path d="M46.8986 10.3419C46.7448 11.0101 46.4886 11.6267 46.0274 12.1406C45.6171 12.6544 45.1047 13.0655 44.4383 13.3226C43.8232 13.5796 43.1058 13.7337 42.337 13.7337C41.5681 13.7337 40.9529 13.5796 40.4405 13.3226C39.9278 13.0655 39.569 12.6544 39.364 12.1406C39.159 11.6267 39.159 11.0101 39.3128 10.3419L39.8254 7.8751C39.979 7.20712 40.2354 6.59043 40.6967 6.07651C41.1067 5.56262 41.6193 5.15148 42.2855 4.89454C42.9006 4.63758 43.6182 4.4834 44.3871 4.4834C45.1559 4.4834 45.7709 4.63758 46.2836 4.89454C46.7962 5.15148 47.1548 5.56262 47.3598 6.07651C47.5651 6.59043 47.5651 7.20712 47.4113 7.8751L46.8986 10.3419ZM44.1309 5.61401C43.3108 5.61401 42.6444 5.81955 42.1317 6.17931C41.6193 6.59043 41.2605 7.15571 41.1067 7.8751L40.5943 10.2391C40.4405 11.0101 40.5428 11.5752 40.8505 11.935C41.2093 12.3461 41.7731 12.5004 42.5932 12.5517C43.4132 12.5517 44.0797 12.3461 44.5921 11.9865C45.1047 11.5752 45.4636 11.0101 45.6174 10.2906L46.1298 7.92661C46.2836 7.20712 46.181 6.64182 45.8736 6.2307C45.5659 5.81958 44.9509 5.61401 44.1309 5.61401Z" fill="black"/>
<path d="M42.4398 13.8892H42.3886C41.6197 13.8892 40.9533 13.7349 40.4409 13.4266C39.9282 13.1183 39.5182 12.7072 39.3132 12.1933C39.1082 11.6792 39.1082 11.0113 39.262 10.3431L39.7744 7.87631C39.9282 7.15692 40.2359 6.54023 40.6459 6.02634C41.0559 5.51242 41.6197 5.1013 42.2348 4.79296C42.8498 4.48461 43.6186 4.38184 44.3363 4.38184C45.1051 4.38184 45.7714 4.536 46.284 4.84434C46.7967 5.15269 47.2067 5.56381 47.4117 6.07772C47.6167 6.59164 47.6167 7.25972 47.4629 7.92782L46.9502 10.3946C46.7966 11.114 46.489 11.7307 46.079 12.2446C45.669 12.7584 45.1051 13.1695 44.4901 13.4781C43.8748 13.7349 43.2086 13.8892 42.4398 13.8892ZM44.3363 4.58738C43.6186 4.58738 42.9524 4.74157 42.3374 4.99853C41.7221 5.25546 41.2097 5.6666 40.7997 6.1805C40.3894 6.69441 40.1332 7.25972 39.9794 7.92782L39.467 10.3946C39.3132 11.0625 39.3644 11.6279 39.5182 12.1418C39.7232 12.6556 40.0308 13.0155 40.5432 13.2723C41.0559 13.5293 41.6709 13.6836 42.3886 13.6836C43.1574 13.6836 43.8236 13.5293 44.4387 13.2723C45.0539 13.0155 45.5664 12.6044 45.9764 12.0905C46.3864 11.5764 46.6428 11.0113 46.7967 10.3431L47.3091 7.87631C47.4629 7.20831 47.4117 6.64303 47.2579 6.12911C47.0529 5.61522 46.7452 5.25546 46.2328 4.99853C45.7202 4.74157 45.1051 4.58738 44.3875 4.58738H44.3363ZM42.696 12.7072C42.6448 12.7072 42.6448 12.7072 42.696 12.7072C41.7735 12.7072 41.1583 12.5016 40.7997 12.0905C40.4409 11.6792 40.3382 11.0625 40.4921 10.2919L41.0047 7.92782C41.1583 7.15692 41.5171 6.54023 42.0809 6.1805C42.5936 5.76938 43.3112 5.56381 44.1313 5.56381H44.1825C45.0539 5.56381 45.669 5.76938 46.0278 6.1805C46.3864 6.64303 46.489 7.25972 46.3352 7.97908L45.8228 10.3431C45.669 11.114 45.3101 11.7307 44.7463 12.0905C44.1825 12.5016 43.5163 12.7072 42.696 12.7072ZM44.0801 5.76938C43.3112 5.76938 42.6448 5.97495 42.1836 6.33468C41.6709 6.69441 41.3633 7.25972 41.2097 7.97908L40.6971 10.3431C40.5432 11.0625 40.6459 11.5764 40.9533 11.9362C41.2609 12.2961 41.8247 12.5016 42.6448 12.5016C43.4136 12.5016 44.0801 12.2961 44.5925 11.9362C45.1051 11.5764 45.4125 11.0113 45.5664 10.2919L46.079 7.92782C46.2328 7.25972 46.1302 6.69441 45.8228 6.33468C45.5152 5.92354 44.9513 5.76938 44.0801 5.76938C44.1313 5.76938 44.1313 5.76938 44.0801 5.76938Z" fill="white"/>
<path d="M51.768 13.6815C50.7941 13.6815 50.0765 13.5787 49.5638 13.4246C49.0514 13.2704 48.7438 12.962 48.59 12.6022C48.4362 12.2426 48.4362 11.6773 48.59 11.0091L49.41 7.25764C49.5638 6.58956 49.7688 6.07567 50.0765 5.71594C50.3839 5.35621 50.7941 5.04786 51.3577 4.89368C51.9216 4.73952 52.588 4.63672 53.4593 4.63672H55.7658C56.3296 4.63672 56.7397 4.7909 56.9447 5.04786C57.1497 5.3048 57.2011 5.76733 57.0985 6.33263C56.9961 6.84652 56.7397 7.10348 56.3296 7.10348C56.1246 7.10348 56.0222 7.0521 55.9196 6.89791C55.817 6.74375 55.817 6.58956 55.8684 6.33263C55.9196 6.07567 55.9196 5.92149 55.8684 5.8701C55.817 5.76733 55.6634 5.76733 55.4584 5.76733H53.2542C52.588 5.76733 52.0754 5.81871 51.768 5.8701C51.4604 5.92149 51.2041 6.07567 51.0503 6.28122C50.8965 6.48679 50.7427 6.79514 50.6403 7.25764L49.82 10.9578C49.7176 11.4202 49.7176 11.7285 49.7688 11.9343C49.8715 12.1399 50.0765 12.2939 50.3839 12.3454C50.7427 12.3967 51.2553 12.4482 52.0242 12.4482H53.9719C54.1769 12.4482 54.3307 12.3967 54.4331 12.3454C54.5357 12.2426 54.5869 12.0883 54.6381 11.8828C54.6896 11.6257 54.7919 11.4717 54.8946 11.3174C55.0481 11.1634 55.202 11.1119 55.407 11.1119C55.817 11.1119 55.9708 11.3689 55.8684 11.9343C55.7658 12.4994 55.5096 12.962 55.1508 13.2189C54.7919 13.4759 54.3819 13.6302 53.7669 13.6302L51.768 13.6815Z" fill="black"/>
<path d="M51.768 13.6815C50.7941 13.6815 50.0765 13.5787 49.5638 13.4246C49.0514 13.2704 48.7438 12.962 48.59 12.6022C48.4362 12.2426 48.4362 11.6773 48.59 11.0091L49.41 7.25764C49.5638 6.58956 49.7688 6.07567 50.0765 5.71594C50.3839 5.35621 50.7941 5.04786 51.3577 4.89368C51.9216 4.73952 52.588 4.63672 53.4593 4.63672H55.7658C56.3296 4.63672 56.7397 4.7909 56.9447 5.04786C57.1497 5.3048 57.2011 5.76733 57.0985 6.33263C56.9961 6.84652 56.7397 7.10348 56.3296 7.10348C56.1246 7.10348 56.0222 7.0521 55.9196 6.89791C55.817 6.74375 55.817 6.58956 55.8684 6.33263C55.9196 6.07567 55.9196 5.92149 55.8684 5.8701C55.817 5.76733 55.6634 5.76733 55.4584 5.76733H53.2542C52.588 5.76733 52.0754 5.81871 51.768 5.8701C51.4604 5.92149 51.2041 6.07567 51.0503 6.28122C50.8965 6.48679 50.7427 6.79514 50.6403 7.25764L49.82 10.9578C49.7176 11.4202 49.7176 11.7285 49.7688 11.9343C49.8715 12.1399 50.0765 12.2939 50.3839 12.3454C50.7427 12.3967 51.2553 12.4482 52.0242 12.4482H53.9719C54.1769 12.4482 54.3307 12.3967 54.4331 12.3454C54.5357 12.2426 54.5869 12.0883 54.6381 11.8828C54.6896 11.6257 54.7919 11.4717 54.8946 11.3174C55.0481 11.1634 55.202 11.1119 55.407 11.1119C55.817 11.1119 55.9708 11.3689 55.8684 11.9343C55.7658 12.4994 55.5096 12.962 55.1508 13.2189C54.7919 13.4759 54.3819 13.6302 53.7669 13.6302L51.768 13.6815Z" fill="black"/>
<path d="M53.8191 13.7844H51.7176C50.7437 13.7844 50.0261 13.6817 49.5137 13.5276C49.001 13.3733 48.6422 13.065 48.4372 12.6539C48.2834 12.2428 48.2834 11.6775 48.386 11.0093L49.206 7.25788C49.3598 6.5898 49.5649 6.02449 49.9237 5.66476C50.2311 5.25364 50.6925 4.99669 51.2564 4.79114C51.8202 4.63695 52.5376 4.53418 53.4091 4.53418H55.7156C56.3307 4.53418 56.7407 4.68834 56.9969 4.99669C57.2533 5.30503 57.3045 5.76756 57.1507 6.38423C56.9969 7.10372 56.5869 7.25788 56.2795 7.25788C56.023 7.25788 55.8695 7.1551 55.7668 7.00092C55.6642 6.84676 55.6642 6.64119 55.7156 6.38423C55.7668 6.12729 55.7156 6.0245 55.7156 6.0245C55.7156 6.0245 55.613 5.97311 55.3568 5.92172H53.1529C52.4864 5.92172 51.9738 5.97311 51.6664 6.0245C51.3588 6.07588 51.1537 6.23007 50.9999 6.38423C50.8463 6.5898 50.7437 6.89814 50.6413 7.30926L49.8211 11.0093C49.7187 11.4204 49.7187 11.729 49.7699 11.9345C49.8211 12.0886 50.0261 12.2428 50.3337 12.2941C50.6413 12.3456 51.2049 12.3969 51.9226 12.3969H53.8703C54.0753 12.3969 54.2291 12.3456 54.2803 12.2941C54.3318 12.2428 54.3829 12.1401 54.4853 11.883C54.5368 11.6262 54.6392 11.4204 54.793 11.2664C54.9468 11.1121 55.1518 11.0608 55.3568 11.0608C55.5618 11.0608 55.7156 11.1121 55.818 11.2664C55.9206 11.4204 55.9718 11.6775 55.9206 11.9858C55.7668 12.6024 55.5618 13.0135 55.203 13.3221C54.8956 13.6304 54.4341 13.7844 53.8191 13.7844ZM53.3065 4.73973C52.4864 4.73973 51.8202 4.84253 51.3076 4.99669C50.7949 5.15087 50.3849 5.40781 50.0775 5.76756C49.7699 6.12729 49.5649 6.64119 49.411 7.30926L48.591 11.0608C48.4372 11.729 48.4372 12.1913 48.591 12.5512C48.7448 12.9107 49.0522 13.1678 49.5137 13.3221C50.0261 13.4761 50.7437 13.5789 51.6664 13.5789H53.7165C54.2803 13.5789 54.6903 13.4249 54.998 13.1678C55.3056 12.9107 55.5106 12.4996 55.6642 11.9345C55.7156 11.6775 55.7156 11.4719 55.613 11.3691C55.5618 11.3176 55.4592 11.2664 55.3056 11.2664C55.1518 11.2664 54.998 11.3176 54.8956 11.4204C54.793 11.5232 54.6903 11.6775 54.6392 11.9345C54.588 12.1913 54.4853 12.3456 54.383 12.4484C54.2803 12.5512 54.0753 12.6024 53.8703 12.6024H51.9226C51.1537 12.6024 50.5899 12.5512 50.2825 12.4996C49.9237 12.3969 49.6675 12.2428 49.5649 11.9858C49.4622 11.7802 49.4622 11.4204 49.5649 10.958L50.3849 7.25788C50.4875 6.79537 50.6413 6.48703 50.7949 6.23007C50.9487 6.0245 51.2564 5.87034 51.6152 5.76756C51.9738 5.71615 52.4864 5.66476 53.1529 5.66476H55.3568C55.613 5.66476 55.7668 5.71615 55.8695 5.81895C55.9718 5.92172 55.9718 6.12729 55.9206 6.38423C55.8695 6.5898 55.8695 6.74396 55.9718 6.84676C56.023 6.94953 56.1257 7.00092 56.2795 7.00092C56.6383 7.00092 56.8433 6.79537 56.9457 6.28145C57.0483 5.71615 57.0483 5.30503 56.8433 5.04807C56.6383 4.79114 56.2795 4.68834 55.7668 4.68834H53.4603C53.4091 4.73973 53.3579 4.73973 53.3065 4.73973Z" fill="white"/>
<path d="M60.9455 13.7362C59.9716 13.7362 59.254 13.6334 58.7416 13.4792C58.2289 13.3251 57.9213 13.0168 57.7677 12.657C57.6139 12.2971 57.6139 11.732 57.7677 11.0639L58.5877 7.31233C58.7416 6.64425 58.9466 6.13034 59.254 5.7706C59.5616 5.41087 59.9716 5.10253 60.5355 4.94836C61.0993 4.79418 61.7655 4.69141 62.637 4.69141H64.9435C65.5074 4.69141 65.9174 4.84557 66.1224 5.10253C66.3274 5.35948 66.3786 5.82199 66.2762 6.38729C66.1736 6.90121 65.9174 7.15814 65.5074 7.15814C65.3024 7.15814 65.1997 7.10676 65.0971 6.9526C64.9947 6.79841 64.9947 6.64425 65.0459 6.38729C65.0971 6.13033 65.0971 5.97617 65.0459 5.92479C64.9947 5.82199 64.8409 5.82199 64.6359 5.82199H62.432C61.7655 5.82199 61.2531 5.8734 60.9455 5.92479C60.6378 5.97617 60.3816 6.13033 60.2278 6.33591C60.0742 6.54148 59.9204 6.84982 59.8178 7.31233L58.9978 11.0123C58.8951 11.475 58.8951 11.7833 58.9466 11.9888C59.049 12.1944 59.254 12.3487 59.5616 12.3999C59.9204 12.4514 60.4328 12.5027 61.2017 12.5027H63.1494C63.3544 12.5027 63.5082 12.4514 63.6108 12.3999C63.7132 12.2971 63.7647 12.1431 63.8159 11.9376C63.867 11.6805 63.9697 11.5265 64.0721 11.3722C64.2259 11.2179 64.3797 11.1666 64.5847 11.1666C64.9947 11.1666 65.1485 11.4237 65.0459 11.9888C64.9435 12.5542 64.6871 13.0168 64.3285 13.2736C63.9697 13.5307 63.5597 13.6847 62.9444 13.6847L60.9455 13.7362Z" fill="black"/>
<path d="M60.9455 13.7362C59.9716 13.7362 59.254 13.6334 58.7416 13.4792C58.2289 13.3251 57.9213 13.0168 57.7677 12.657C57.6139 12.2971 57.6139 11.732 57.7677 11.0639L58.5877 7.31233C58.7416 6.64425 58.9466 6.13034 59.254 5.7706C59.5616 5.41087 59.9716 5.10253 60.5355 4.94836C61.0993 4.79418 61.7655 4.69141 62.637 4.69141H64.9435C65.5074 4.69141 65.9174 4.84557 66.1224 5.10253C66.3274 5.35948 66.3786 5.82199 66.2762 6.38729C66.1736 6.90121 65.9174 7.15814 65.5074 7.15814C65.3024 7.15814 65.1997 7.10676 65.0971 6.9526C64.9947 6.79841 64.9947 6.64425 65.0459 6.38729C65.0971 6.13033 65.0971 5.97617 65.0459 5.92479C64.9947 5.82199 64.8409 5.82199 64.6359 5.82199H62.432C61.7655 5.82199 61.2531 5.8734 60.9455 5.92479C60.6378 5.97617 60.3816 6.13033 60.2278 6.33591C60.0742 6.54148 59.9204 6.84982 59.8178 7.31233L58.9978 11.0123C58.8951 11.475 58.8951 11.7833 58.9466 11.9888C59.049 12.1944 59.254 12.3487 59.5616 12.3999C59.9204 12.4514 60.4328 12.5027 61.2017 12.5027H63.1494C63.3544 12.5027 63.5082 12.4514 63.6108 12.3999C63.7132 12.2971 63.7647 12.1431 63.8159 11.9376C63.867 11.6805 63.9697 11.5265 64.0721 11.3722C64.2259 11.2179 64.3797 11.1666 64.5847 11.1666C64.9947 11.1666 65.1485 11.4237 65.0459 11.9888C64.9435 12.5542 64.6871 13.0168 64.3285 13.2736C63.9697 13.5307 63.5597 13.6847 62.9444 13.6847L60.9455 13.7362Z" fill="black"/>
<path d="M63.0455 13.8362C62.9943 13.8362 62.9943 13.8362 63.0455 13.8362H60.9442C59.9701 13.8362 59.2527 13.7334 58.74 13.5794C58.2274 13.4251 57.8688 13.1168 57.6638 12.7057C57.51 12.2946 57.51 11.7292 57.6123 11.0611L58.4326 7.30963C58.5862 6.64156 58.7912 6.07628 59.15 5.71655C59.4577 5.3054 59.9189 5.04847 60.4827 4.8429C61.0466 4.68871 61.7642 4.58594 62.6355 4.58594H64.942C65.557 4.58594 65.967 4.74012 66.2235 5.04844C66.4797 5.35679 66.5309 5.81932 66.3773 6.43601C66.2235 7.15547 65.8135 7.30963 65.5058 7.30963C65.2496 7.30963 65.0958 7.20686 64.9932 7.0527C64.8908 6.89851 64.8908 6.69294 64.942 6.43601C64.9932 6.17905 64.942 6.07628 64.942 6.07628C64.942 6.07628 64.8396 6.02487 64.5832 6.02487H62.3793C61.7128 6.02487 61.2004 6.07628 60.8928 6.12766C60.5854 6.17905 60.3803 6.33321 60.2265 6.4874C60.0727 6.69297 59.9701 7.00129 59.8677 7.41251L59.0477 11.1126C58.945 11.5237 58.945 11.832 58.9962 12.0376C59.0477 12.1918 59.2527 12.3459 59.5601 12.3974C59.8677 12.4487 60.4315 12.5002 61.1492 12.5002H63.0969C63.3531 12.5002 63.4555 12.4487 63.5069 12.3974C63.5581 12.3459 63.6093 12.2431 63.7119 11.9863C63.7631 11.7292 63.8658 11.5237 64.0193 11.3694C64.1731 11.2154 64.3782 11.1639 64.5832 11.1639C64.7882 11.1639 64.942 11.2154 65.0446 11.3694C65.147 11.5237 65.1982 11.7805 65.147 12.0891C64.9932 12.7057 64.7882 13.1168 64.4296 13.4251C64.0708 13.6822 63.6093 13.8362 63.0455 13.8362ZM62.5331 4.74012C61.713 4.74012 61.0466 4.8429 60.5339 4.99706C60.0215 5.15124 59.6115 5.4082 59.3039 5.76793C58.9962 6.12766 58.7912 6.64156 58.6376 7.30963L57.8174 11.0611C57.6638 11.7292 57.6638 12.1918 57.8174 12.5514C57.9712 12.9113 58.2788 13.1681 58.74 13.3224C59.2527 13.4766 59.9701 13.5794 60.8928 13.5794H62.9431C63.5069 13.5794 63.9169 13.4251 64.2243 13.1681C64.532 12.9113 64.737 12.5002 64.8908 11.9348C64.942 11.6777 64.942 11.4722 64.8396 11.3694C64.7882 11.3181 64.6858 11.2666 64.532 11.2666C64.3782 11.2666 64.2243 11.3181 64.122 11.4209C64.0193 11.5237 63.9169 11.6777 63.8658 11.9348C63.8143 12.1918 63.7119 12.3459 63.6093 12.4487C63.5069 12.5514 63.3019 12.6029 63.0969 12.6029H61.1492C60.3803 12.6029 59.8165 12.5514 59.5089 12.5002C59.15 12.3974 58.8938 12.2431 58.7912 11.9863C58.6888 11.7805 58.6888 11.4209 58.7912 10.9583L59.6115 7.25825C59.7139 6.79574 59.8677 6.4874 60.0215 6.23044C60.1753 6.02487 60.4827 5.81932 60.8416 5.76793C61.2004 5.71655 61.6616 5.66513 62.3793 5.66513H64.5832C64.8396 5.66513 64.9932 5.71652 65.0958 5.81932C65.1984 5.92209 65.1982 6.12766 65.147 6.38462C65.0958 6.59017 65.0958 6.74436 65.1984 6.84713C65.2496 6.9499 65.352 7.00129 65.5058 7.00129C65.8647 7.00129 66.0697 6.79574 66.1723 6.28182C66.2747 5.71655 66.2747 5.3054 66.0697 5.04844C65.8647 4.79151 65.5058 4.68871 64.9932 4.68871H62.6869C62.5843 4.74012 62.5843 4.74012 62.5331 4.74012Z" fill="white"/>
<path d="M66.6831 13.1681L68.3746 5.25402C68.477 4.79151 68.7334 4.58594 69.1434 4.58594C69.5534 4.58594 69.7073 4.8429 69.6046 5.3054L68.2208 11.7292L74.7815 4.94567C75.0377 4.68871 75.2428 4.58594 75.4992 4.58594C75.9092 4.58594 76.0116 4.79151 75.9092 5.25402L74.2177 13.1681C74.1153 13.6307 73.8589 13.8362 73.4489 13.8362C73.0388 13.8362 72.885 13.6307 72.9877 13.2196L74.3715 6.69294L67.8619 13.4251C67.7083 13.5794 67.6057 13.6822 67.5031 13.7334C67.4007 13.785 67.2981 13.785 67.1445 13.785C66.7342 13.8362 66.5807 13.5794 66.6831 13.1681Z" fill="black"/>
<path d="M66.6831 13.1681L68.3746 5.25402C68.477 4.79151 68.7334 4.58594 69.1434 4.58594C69.5534 4.58594 69.7073 4.8429 69.6046 5.3054L68.2208 11.7292L74.7815 4.94567C75.0377 4.68871 75.2428 4.58594 75.4992 4.58594C75.9092 4.58594 76.0116 4.79151 75.9092 5.25402L74.2177 13.1681C74.1153 13.6307 73.8589 13.8362 73.4489 13.8362C73.0388 13.8362 72.885 13.6307 72.9877 13.2196L74.3715 6.69294L67.8619 13.4251C67.7083 13.5794 67.6057 13.6822 67.5031 13.7334C67.4007 13.785 67.2981 13.785 67.1445 13.785C66.7342 13.8362 66.5807 13.5794 66.6831 13.1681Z" fill="black"/>
<path d="M73.4489 13.9392C73.1927 13.9392 73.0389 13.888 72.9365 13.7337C72.8339 13.5796 72.7827 13.4254 72.8339 13.1683L74.1666 7.05293L67.9646 13.5281C67.8108 13.6824 67.657 13.7852 67.5546 13.888C67.452 13.9392 67.2981 13.9907 67.1446 13.9907C66.9396 13.9907 66.7857 13.9392 66.6831 13.7852C66.5807 13.6309 66.5293 13.4254 66.5807 13.1683L68.2722 5.25427C68.4258 4.63758 68.8358 4.4834 69.1435 4.4834C69.3485 4.4834 69.5023 4.53481 69.6047 4.68897C69.7073 4.84316 69.7585 5.0487 69.7073 5.35705L68.3746 11.3696L74.6792 4.84316C74.9354 4.5862 75.1916 4.4834 75.4481 4.4834C75.6531 4.4834 75.8067 4.53481 75.9093 4.68897C76.0117 4.84316 76.0631 5.0487 76.0117 5.30566L74.3204 13.2198C74.2178 13.6824 73.9104 13.9392 73.4489 13.9392ZM74.5766 6.33347L73.0901 13.2198C73.0389 13.3741 73.0389 13.5281 73.1415 13.6309C73.1927 13.6824 73.2951 13.7337 73.5004 13.7337C73.8589 13.7337 74.064 13.5281 74.1666 13.1683L75.8581 5.25427C75.9093 5.0487 75.9093 4.89454 75.8067 4.79174C75.7555 4.74036 75.6531 4.68897 75.4993 4.68897C75.2943 4.68897 75.0892 4.79174 74.8842 4.99732L68.067 12.0893L69.5535 5.30566C69.6047 5.10009 69.6047 4.89454 69.5023 4.84316C69.4511 4.79174 69.3485 4.74036 69.1947 4.74036C68.8358 4.74036 68.6308 4.94593 68.5284 5.35705L66.8369 13.2713C66.7857 13.4769 66.7857 13.6309 66.8881 13.6824C66.9396 13.7337 67.0419 13.7852 67.1958 13.7852C67.3496 13.7852 67.452 13.7852 67.5034 13.7337C67.6058 13.6824 67.7084 13.5796 67.862 13.4254L74.5766 6.33347Z" fill="white"/>
<path d="M82.1114 13.2189L82.8288 9.77581H80.7787C80.3172 9.77581 79.9584 9.82708 79.7534 9.98136C79.4972 10.1356 79.2922 10.3925 79.1384 10.7008L78.4722 11.9856C78.1645 12.5509 77.8057 12.962 77.3957 13.3216C76.9345 13.6302 76.473 13.8357 76.0118 13.8357C75.4992 13.8357 75.2941 13.6302 75.3968 13.2704C75.4992 12.9105 75.7556 12.705 76.268 12.705C76.4218 12.705 76.6268 12.6022 76.8318 12.4482C77.0368 12.2939 77.1395 12.1399 77.2419 11.9343L77.9595 10.4952C78.1645 10.0841 78.4722 9.72431 78.831 9.41599C77.9595 9.00489 77.6007 8.23397 77.8571 7.20625C78.0107 6.38402 78.4722 5.76733 79.1898 5.3048C79.9072 4.89368 80.8299 4.63672 81.9576 4.63672H84.6229C85.033 4.63672 85.1353 4.89368 85.033 5.35621L83.3926 13.2189C83.2903 13.6302 83.0338 13.887 82.6752 13.8357C82.2138 13.887 82.06 13.6815 82.1114 13.2189ZM83.7003 5.8701H81.6499C80.8299 5.8701 80.2661 5.97287 79.856 6.17844C79.446 6.38402 79.1896 6.74375 79.0872 7.25764C78.8822 8.13119 79.5484 8.5938 81.0861 8.5938H83.1364L83.7003 5.8701Z" fill="black"/>
<path d="M82.1114 13.2189L82.8288 9.77581H80.7787C80.3172 9.77581 79.9584 9.82708 79.7534 9.98136C79.4972 10.1356 79.2922 10.3925 79.1384 10.7008L78.4722 11.9856C78.1645 12.5509 77.8057 12.962 77.3957 13.3216C76.9345 13.6302 76.473 13.8357 76.0118 13.8357C75.4992 13.8357 75.2941 13.6302 75.3968 13.2704C75.4992 12.9105 75.7556 12.705 76.268 12.705C76.4218 12.705 76.6268 12.6022 76.8318 12.4482C77.0368 12.2939 77.1395 12.1399 77.2419 11.9343L77.9595 10.4952C78.1645 10.0841 78.4722 9.72431 78.831 9.41599C77.9595 9.00489 77.6007 8.23397 77.8571 7.20625C78.0107 6.38402 78.4722 5.76733 79.1898 5.3048C79.9072 4.89368 80.8299 4.63672 81.9576 4.63672H84.6229C85.033 4.63672 85.1353 4.89368 85.033 5.35621L83.3926 13.2189C83.2903 13.6302 83.0338 13.887 82.6752 13.8357C82.2138 13.887 82.06 13.6815 82.1114 13.2189ZM83.7003 5.8701H81.6499C80.8299 5.8701 80.2661 5.97287 79.856 6.17844C79.446 6.38402 79.1896 6.74375 79.0872 7.25764C78.8822 8.13119 79.5484 8.5938 81.0861 8.5938H83.1364L83.7003 5.8701Z" fill="black"/>
<path d="M82.6246 13.99C82.3684 13.99 82.2145 13.9387 82.1122 13.7844C82.0095 13.6304 81.9583 13.4761 82.0095 13.2193L82.7272 9.93031H80.8307C80.4206 9.93031 80.0618 9.98157 79.8568 10.1359C79.6518 10.2899 79.4468 10.4954 79.293 10.8038L78.6268 12.0886C78.3191 12.6539 77.9603 13.1163 77.4991 13.4249C77.0376 13.7844 76.5764 13.9387 76.0638 13.9387C75.7564 13.9387 75.5514 13.8872 75.3975 13.7332C75.2949 13.6304 75.2949 13.4249 75.2949 13.2193C75.3464 12.9107 75.6026 12.5512 76.2688 12.5512C76.4226 12.5512 76.5764 12.4996 76.7302 12.3456C76.8841 12.1913 77.0376 12.0373 77.1403 11.883L77.8579 10.4442C78.0629 10.0331 78.3191 9.72452 78.6268 9.4162C77.8065 8.95384 77.4991 8.18291 77.7041 7.1551C77.9091 6.33284 78.3703 5.66476 79.088 5.20226C79.8056 4.79114 80.728 4.53418 81.8557 4.53418H81.9069H84.5723C84.7773 4.53418 84.9311 4.58557 85.0337 4.73973C85.1361 4.89391 85.1873 5.09946 85.1361 5.4078L83.4446 13.2193C83.3934 13.7332 83.086 13.99 82.6246 13.99ZM82.2145 13.2706C82.1634 13.4761 82.1634 13.5789 82.2657 13.6817C82.3172 13.7844 82.4708 13.7844 82.6246 13.7844C82.9834 13.7844 83.1884 13.6304 83.2396 13.2193L84.9311 5.4078C84.9823 5.20226 84.9823 4.99669 84.8799 4.9453C84.8287 4.89391 84.7261 4.84253 84.5723 4.84253H81.9069C80.7795 4.84253 79.908 5.04807 79.1903 5.45922C78.5241 5.87033 78.0629 6.48703 77.9091 7.25788C77.7041 8.28569 78.0115 8.95384 78.8318 9.36493L78.9853 9.4162L78.8318 9.51897C78.4729 9.77603 78.2165 10.1359 77.9603 10.547L77.2426 11.9858C77.1403 12.1913 76.9864 12.3456 76.7814 12.4996C76.5764 12.6539 76.3714 12.7567 76.1664 12.7567C75.7049 12.7567 75.4487 12.9107 75.3975 13.2193C75.3464 13.3733 75.3975 13.4761 75.4487 13.5276C75.4999 13.6304 75.7049 13.6817 75.9102 13.6817C76.3202 13.6817 76.7814 13.5276 77.1914 13.2193C77.6015 12.9107 77.9603 12.4484 78.2679 11.9345L78.9342 10.6497C79.1392 10.2899 79.3442 10.0331 79.6006 9.8788C79.8568 9.72452 80.2156 9.67325 80.6769 9.67325C80.6769 9.67325 80.6769 9.67325 80.728 9.67325H82.9322L82.2145 13.2706ZM83.1884 8.74829H81.0869C80.0618 8.74829 79.4468 8.54274 79.1392 8.18291C78.9342 7.92586 78.883 7.66905 78.9853 7.30926C79.088 6.79537 79.3956 6.38423 79.8056 6.17868C80.2156 5.97311 80.8307 5.81895 81.6507 5.81895H83.8034L83.1884 8.74829ZM81.5995 5.97311C80.8819 5.97311 80.2668 6.07588 79.908 6.28145C79.498 6.48703 79.293 6.79537 79.1903 7.25788C79.1392 7.56627 79.1904 7.77182 79.293 7.97737C79.5492 8.28569 80.1644 8.43997 81.0869 8.49123H83.0346L83.5984 5.97311H81.7019C81.6507 5.97311 81.6507 5.97311 81.5995 5.97311Z" fill="white"/>
<path d="M91.0824 10.2958C91.031 10.193 90.9798 10.0903 91.031 9.93624C91.0824 9.78195 91.1336 9.67918 91.2362 9.57641C91.3386 9.47363 91.4924 9.47363 91.6462 9.47363H97.0794C97.2332 9.47363 97.3868 9.52514 97.4382 9.57641C97.4894 9.67918 97.5406 9.78195 97.4894 9.93624C97.4382 10.0903 97.3868 10.193 97.2844 10.2958C97.1817 10.3986 97.0279 10.3986 96.8743 10.3986H91.4412C91.2874 10.4501 91.1848 10.3986 91.0824 10.2958Z" fill="black"/>
<path d="M91.0824 10.2958C91.031 10.193 90.9798 10.0903 91.031 9.93624C91.0824 9.78195 91.1336 9.67918 91.2362 9.57641C91.3386 9.47363 91.4924 9.47363 91.6462 9.47363H97.0794C97.2332 9.47363 97.3868 9.52514 97.4382 9.57641C97.4894 9.67918 97.5406 9.78195 97.4894 9.93624C97.4382 10.0903 97.3868 10.193 97.2844 10.2958C97.1817 10.3986 97.0279 10.3986 96.8743 10.3986H91.4412C91.2874 10.4501 91.1848 10.3986 91.0824 10.2958Z" fill="black"/>
<path d="M96.8733 10.5541C96.8221 10.5541 96.8221 10.5541 96.8733 10.5541H91.4401C91.2351 10.5541 91.1327 10.5026 91.0301 10.3998C90.9277 10.297 90.9277 10.143 90.9277 9.93745C90.9789 9.7319 91.0301 9.62913 91.1839 9.52611C91.3378 9.42333 91.4916 9.37207 91.6452 9.37207H97.0783C97.2833 9.37207 97.4371 9.42333 97.5397 9.52611C97.6421 9.62913 97.6421 9.78316 97.5909 9.98871C97.5397 10.1943 97.4885 10.297 97.3347 10.3998C97.1809 10.5026 97.0271 10.5541 96.8733 10.5541ZM91.6452 9.57762C91.4916 9.57762 91.3889 9.62913 91.3378 9.68039C91.2351 9.7319 91.1839 9.83467 91.1839 9.98871C91.1839 10.0915 91.1839 10.1943 91.2351 10.2458C91.2866 10.297 91.3889 10.3485 91.4916 10.3485H96.9247C97.0783 10.3485 97.1809 10.297 97.2833 10.2458C97.3859 10.1943 97.4371 10.0915 97.4371 9.93745C97.4885 9.83467 97.4371 9.7319 97.3859 9.68039C97.3347 9.62913 97.2321 9.57762 97.1297 9.57762H91.6452Z" fill="white"/>
<path d="M38.4434 17.6426L35.2656 32.5457H96.0038L99.2331 17.6426H38.4434Z" fill="#25649F"/>
<path d="M43.7209 30.1268C42.747 30.1268 42.0294 30.0241 41.517 29.8698C41.0043 29.7157 40.6967 29.4074 40.5431 29.0476C40.3893 28.688 40.3893 28.1226 40.5431 27.4545L41.3631 23.7031C41.517 23.035 41.722 22.5211 42.0294 22.1613C42.337 21.8014 42.747 21.4931 43.3108 21.3391C43.8747 21.1848 44.5409 21.082 45.4124 21.082H47.7189C48.2828 21.082 48.6928 21.2363 48.8978 21.4931C49.1028 21.7502 49.154 22.2128 49.0516 22.7779C48.949 23.2918 48.6928 23.5488 48.2828 23.5488C48.0775 23.5488 47.9751 23.4973 47.8725 23.3433C47.7701 23.189 47.7701 23.035 47.8213 22.7779C47.8725 22.5211 47.8725 22.3668 47.8213 22.3156C47.7701 22.2128 47.6163 22.2128 47.4113 22.2128H45.2074C44.5409 22.2128 44.0285 22.264 43.7209 22.3156C43.4132 22.3668 43.157 22.5211 43.0032 22.7267C42.8494 22.9322 42.6958 23.2405 42.5932 23.7031L41.7732 27.4032C41.6705 27.8656 41.6705 28.1739 41.722 28.3794C41.8243 28.585 42.0294 28.7393 42.337 28.7908C42.6958 28.842 43.2082 28.8936 43.9771 28.8936H45.9248C46.1298 28.8936 46.2836 28.842 46.3862 28.7908C46.4886 28.688 46.5401 28.5337 46.5913 28.3282C46.6424 28.1226 46.7451 27.9171 46.8475 27.7628C47.0013 27.6088 47.1551 27.5573 47.3601 27.5573C47.7701 27.5573 47.9239 27.8143 47.8213 28.3794C47.7189 28.9448 47.4625 29.4074 47.1037 29.6642C46.7451 29.9213 46.3348 30.0753 45.7198 30.0753L43.7209 30.1268Z" fill="white"/>
<path d="M45.823 30.2338H43.7215C42.7476 30.2338 42.03 30.131 41.5173 29.9767C41.0049 29.8227 40.6461 29.5141 40.4411 29.103C40.2873 28.6919 40.2873 28.1268 40.3899 27.4586L41.2099 23.707C41.3638 23.0391 41.5688 22.4737 41.9276 22.1139C42.235 21.7028 42.6964 21.446 43.26 21.2402C43.8239 21.0862 44.5415 20.9834 45.413 20.9834H47.7193C48.3346 20.9834 48.7446 21.1374 49.0008 21.446C49.257 21.7543 49.3084 22.2167 49.1546 22.8333C49.0008 23.553 48.5908 23.707 48.2831 23.707C48.0269 23.707 47.8731 23.6042 47.7707 23.4502C47.6681 23.2959 47.6681 23.0904 47.7193 22.8333C47.7707 22.5765 47.7193 22.4737 47.7193 22.4737C47.7193 22.4737 47.6169 22.4222 47.3607 22.371H45.1566C44.4903 22.371 43.9777 22.4222 43.6703 22.4737C43.3627 22.525 43.1576 22.6793 43.0038 22.8333C42.85 23.0389 42.7476 23.3474 42.645 23.7585L41.825 27.4586C41.7223 27.8697 41.7226 28.178 41.7738 28.3836C41.825 28.5379 42.03 28.6919 42.3376 28.7434C42.645 28.7947 43.2088 28.8462 43.9265 28.8462H45.8742C46.0792 28.8462 46.233 28.7947 46.2842 28.7434C46.3354 28.6919 46.3869 28.5891 46.4892 28.3323C46.5404 28.0753 46.6431 27.8697 46.7969 27.7154C46.9504 27.5614 47.1557 27.5099 47.3607 27.5099C47.5657 27.5099 47.7193 27.5614 47.8219 27.7154C47.9246 27.8697 47.9757 28.1268 47.9245 28.4351C47.7707 29.0517 47.5657 29.4628 47.2069 29.7712C46.8481 30.0795 46.3869 30.2338 45.823 30.2338ZM45.3104 21.1374C44.4903 21.1374 43.8239 21.2402 43.3115 21.3945C42.7988 21.5488 42.3888 21.8056 42.0812 22.1654C41.7738 22.525 41.5688 23.0391 41.4149 23.707L40.5949 27.4586C40.4411 28.1268 40.4411 28.5891 40.5949 28.949C40.7485 29.3086 41.0561 29.5656 41.5173 29.7199C42.03 29.8739 42.7476 29.9767 43.6703 29.9767H45.7204C46.2842 29.9767 46.6942 29.8227 47.0019 29.5656C47.3093 29.3085 47.5143 28.8975 47.6681 28.3323C47.7193 28.0753 47.7193 27.8697 47.6169 27.7669C47.5657 27.7154 47.4631 27.6642 47.3093 27.6642C47.1557 27.6642 47.0019 27.7154 46.8993 27.8182C46.7969 27.921 46.6942 28.0753 46.6431 28.3323C46.5919 28.5891 46.4892 28.7434 46.3869 28.8462C46.2842 28.949 46.0792 29.0002 45.823 29.0002H43.8753C43.1065 29.0002 42.5426 28.949 42.235 28.8975C41.8762 28.7947 41.62 28.6406 41.5173 28.3836C41.4149 28.178 41.4149 27.8182 41.5173 27.3558L42.3376 23.6558C42.44 23.1932 42.5938 22.8848 42.7476 22.6278C42.9014 22.4222 43.2088 22.2682 43.5677 22.1654C43.9265 22.1139 44.3877 22.0626 45.1054 22.0626H47.3093C47.5657 22.0626 47.7193 22.1139 47.8219 22.2167C47.9246 22.3195 47.9245 22.525 47.8731 22.7821C47.8219 22.9876 47.8219 23.1419 47.9245 23.2447C47.9757 23.3474 48.0781 23.3987 48.2319 23.3987C48.5908 23.3987 48.7958 23.1932 48.8984 22.6793C49.0008 22.1139 49.0008 21.7028 48.7958 21.446C48.5908 21.1889 48.2319 21.0862 47.7193 21.0862H45.413C45.3616 21.1374 45.3616 21.1374 45.3104 21.1374Z" fill="white"/>
<path d="M56.7396 21.082C57.201 21.082 57.406 21.2876 57.3034 21.6474C57.201 22.0585 56.9446 22.2128 56.4834 22.2128H54.433L52.8441 29.5615C52.7929 29.767 52.6903 29.9213 52.5365 30.0241C52.3829 30.1268 52.1779 30.2296 51.9729 30.1781C51.7676 30.1781 51.6141 30.1268 51.5114 30.0241C51.4091 29.9213 51.4091 29.767 51.4603 29.5615L53.0491 22.2128H50.9476C50.7426 22.2128 50.5376 22.1613 50.4352 22.0585C50.3326 21.9557 50.2814 21.8014 50.3326 21.6474C50.3838 21.4931 50.4864 21.3391 50.5888 21.2363C50.7426 21.1335 50.9476 21.082 51.1526 21.082H56.7396Z" fill="white"/>
<path d="M51.9744 30.3356C51.7182 30.3356 51.5132 30.2841 51.4108 30.13C51.3082 29.9758 51.257 29.8217 51.3082 29.5647L52.8459 22.37H50.8982C50.642 22.37 50.437 22.3185 50.3343 22.1645C50.1805 22.0102 50.1805 21.8562 50.232 21.6506C50.2831 21.4451 50.3855 21.2908 50.5394 21.1367C50.6932 21.034 50.8982 20.9309 51.1544 20.9825H56.6901C56.9975 20.9825 57.2028 21.034 57.3052 21.188C57.4078 21.2908 57.4078 21.4963 57.4078 21.7019C57.3564 22.0102 57.1513 22.37 56.4851 22.37H54.486L52.9485 29.6162C52.8971 29.8217 52.7947 30.0273 52.5897 30.13C52.3847 30.2841 52.1797 30.3356 51.9744 30.3356ZM51.1544 21.188C50.9494 21.188 50.7956 21.2395 50.6932 21.3423C50.5905 21.4451 50.4882 21.5478 50.437 21.7019C50.3855 21.8562 50.437 21.9589 50.4882 22.0102C50.5905 22.113 50.6932 22.113 50.8982 22.1645H53.1535L51.5644 29.6162C51.5132 29.7702 51.5644 29.9245 51.6158 29.9758C51.667 30.0785 51.8208 30.13 51.9744 30.13C52.1797 30.13 52.3332 30.0785 52.4871 29.9758C52.6409 29.873 52.6921 29.7189 52.7433 29.5647L54.3324 22.113H56.4851C56.8951 22.113 57.1513 21.9589 57.2028 21.5991C57.254 21.4451 57.2028 21.3423 57.1513 21.2908C57.1001 21.188 56.9463 21.1367 56.6901 21.1367L51.1544 21.188Z" fill="white"/>
<path d="M58.2766 29.6169C58.174 30.0282 57.9178 30.2338 57.5078 30.2338C57.0977 30.2338 56.9439 30.0282 57.0463 29.5656L58.7378 21.7028C58.789 21.4973 58.8916 21.2917 58.9943 21.1889C59.0967 21.0862 59.3017 20.9834 59.4555 20.9834H62.2232C63.4535 20.9834 64.3248 21.1889 64.8374 21.4973C65.2986 21.8571 65.5036 22.4222 65.2986 23.1932C65.1448 23.9641 64.7348 24.5807 64.171 24.9918C63.6071 25.4029 62.8383 25.6085 61.9158 25.6085H59.0967L58.2766 29.6169ZM61.5058 24.4779C62.4797 24.4779 63.1459 24.4264 63.4535 24.2209C63.7609 24.0669 63.9659 23.7585 64.0686 23.2959C64.1198 22.9876 64.1198 22.7306 64.0174 22.5765C63.9147 22.4222 63.7097 22.3195 63.4021 22.2682C63.0947 22.2167 62.6333 22.1654 61.967 22.1654H59.8143L59.3017 24.4264L61.5058 24.4779Z" fill="white"/>
<path d="M57.5101 30.3878C57.2539 30.3878 57.1001 30.3365 56.9975 30.1822C56.8951 30.0282 56.8439 29.8739 56.8951 29.6171L58.5866 21.7543C58.6378 21.4973 58.7402 21.2917 58.894 21.1889C59.0478 21.0347 59.2528 20.9834 59.4578 20.9834H62.2256C63.5071 20.9834 64.3785 21.1889 64.891 21.5488C65.4036 21.9084 65.6086 22.525 65.4036 23.3474C65.2498 24.1696 64.8398 24.7863 64.2247 25.1974C63.6097 25.6085 62.8409 25.814 61.9182 25.814H59.1504L58.3302 29.6684C58.279 30.131 57.9716 30.3878 57.5101 30.3878ZM59.4578 21.1374C59.304 21.1374 59.2016 21.1889 59.0478 21.2917C58.9454 21.3945 58.8428 21.5488 58.7916 21.7543L57.1001 29.6171C57.0489 29.8227 57.0489 29.9254 57.1513 30.0282C57.2027 30.0795 57.3051 30.131 57.4589 30.131C57.8177 30.131 58.0228 29.9767 58.0739 29.5656L58.9454 25.5057H61.867C62.7382 25.5057 63.5071 25.3001 64.0709 24.9405C64.6348 24.5292 64.9936 23.9641 65.1474 23.1932C65.301 22.4737 65.1474 21.9599 64.7371 21.6C64.2759 21.2402 63.4047 21.0862 62.2256 21.0862L59.4578 21.1374ZM61.662 24.5807C61.6106 24.5807 61.5594 24.5807 61.5082 24.5807H59.2528L59.8167 22.0626H62.072C62.7382 22.0626 63.1997 22.1139 63.5071 22.1654C63.8659 22.2167 64.0709 22.371 64.1735 22.525C64.2759 22.7306 64.2759 22.9876 64.2247 23.2959C64.1221 23.8098 63.8659 24.1181 63.5583 24.2724C63.1997 24.5292 62.5844 24.5807 61.662 24.5807ZM61.5082 24.3752C62.482 24.3752 63.0971 24.3237 63.4047 24.1696C63.7121 24.0669 63.8659 23.7585 63.9683 23.3474C64.0197 23.0389 64.0197 22.8333 63.9683 22.7305C63.9171 22.5765 63.7121 22.525 63.4559 22.4737C63.1482 22.4222 62.687 22.371 62.0206 22.371H59.9705L59.509 24.4264L61.5082 24.3752Z" fill="white"/>
<path d="M71.2972 21.1406L72.9885 29.5685C72.9885 29.6713 72.9885 29.7741 72.9373 29.9284C72.8861 30.0824 72.8349 30.1852 72.6811 30.288C72.5273 30.3907 72.3734 30.4422 72.2196 30.4422C71.9122 30.4422 71.7584 30.288 71.7072 29.9796L71.2458 27.5643H67.2991L65.8126 29.9796C65.6076 30.288 65.3514 30.4422 65.0952 30.4422C64.9414 30.4422 64.7876 30.3907 64.685 30.288C64.5826 30.1852 64.5314 30.0824 64.5826 29.9284C64.6338 29.7741 64.6338 29.6713 64.685 29.5685L69.9645 21.1406H71.2972ZM70.2207 22.8878L68.0168 26.3823H70.9384L70.2207 22.8878Z" fill="white"/>
<path d="M72.219 30.5453C71.8602 30.5453 71.6552 30.3397 71.5528 30.0314L71.0913 27.7189H67.2985L65.812 30.0827C65.607 30.391 65.2994 30.5965 64.992 30.5965C64.787 30.5965 64.6332 30.5453 64.5305 30.391C64.4281 30.2369 64.377 30.0827 64.377 29.9286C64.4281 29.7743 64.4281 29.6716 64.5305 29.5688L69.9125 21.0381H71.399V21.1409L73.0905 29.5688C73.0905 29.6716 73.0905 29.8258 73.039 29.9799C72.9879 30.1342 72.8855 30.2882 72.7316 30.391C72.5778 30.4937 72.424 30.5453 72.219 30.5453ZM67.2471 27.4618H71.3478L71.809 29.9799C71.8602 30.2369 71.9628 30.3397 72.219 30.3397C72.3728 30.3397 72.4752 30.2882 72.629 30.1854C72.7317 30.0827 72.834 30.0314 72.834 29.8771C72.8852 29.7743 72.8855 29.6203 72.8855 29.5688L71.2451 21.2436H70.0663L64.787 29.6203C64.7355 29.6716 64.6843 29.8258 64.6843 29.9286C64.6843 30.0314 64.6843 30.0827 64.787 30.1854C64.8894 30.2882 64.992 30.2882 65.0944 30.2882C65.3508 30.2882 65.5558 30.1342 65.7094 29.8771L67.2471 27.4618ZM71.0913 26.4853H67.8109L70.2713 22.6312L71.0913 26.4853ZM68.221 26.2798H70.8351L70.1687 23.1963L68.221 26.2798Z" fill="white"/>
<path d="M75.6028 29.6642C75.5002 30.1268 75.244 30.3324 74.8339 30.3324C74.4239 30.3324 74.2701 30.1268 74.3725 29.6642L76.064 21.7502C76.1666 21.2876 76.4228 21.082 76.7817 21.082C77.1917 21.082 77.3967 21.2876 77.2943 21.7502L76.6278 24.7821H81.7021L82.3686 21.8014C82.471 21.3391 82.7274 21.1335 83.1374 21.1335C83.5475 21.1335 83.7013 21.3391 83.5987 21.8014L81.9071 29.6642C81.8048 30.1268 81.5486 30.3324 81.1383 30.3324C80.7283 30.3324 80.5745 30.1268 80.6771 29.6642L81.4971 25.9641H76.4228L75.6028 29.6642Z" fill="white"/>
<path d="M81.1883 30.4361C80.9318 30.4361 80.7783 30.3846 80.6756 30.2306C80.5732 30.0763 80.5218 29.8707 80.5732 29.6137L81.3421 26.0164H76.4726L75.7037 29.6652C75.6013 30.1791 75.2937 30.4361 74.8325 30.4361C74.6275 30.4361 74.4225 30.3846 74.3198 30.2306C74.2175 30.0763 74.166 29.8707 74.2175 29.6137L75.9087 21.6996C76.0625 21.083 76.4214 20.9287 76.729 20.9287C76.9852 20.9287 77.139 20.9802 77.2414 21.1343C77.344 21.2885 77.3952 21.4941 77.344 21.7509L76.729 24.6288H81.5983L82.2133 21.6996C82.3671 21.083 82.7772 20.9287 83.0848 20.9287C83.2898 20.9287 83.4948 20.9802 83.5972 21.1343C83.6998 21.2885 83.751 21.4941 83.6998 21.7509L82.0083 29.6652C81.9057 30.1791 81.5983 30.4361 81.1883 30.4361ZM76.319 25.8108H81.5983L80.7783 29.6652C80.7268 29.8707 80.7268 30.0248 80.8294 30.0763C80.8806 30.1278 80.9833 30.1791 81.1368 30.1791C81.4957 30.1791 81.7007 29.9735 81.8033 29.6137L83.4948 21.6996C83.546 21.4941 83.546 21.3398 83.4434 21.237C83.3922 21.1858 83.2898 21.1343 83.136 21.1343C82.7772 21.1343 82.5722 21.3398 82.4695 21.7509L81.8033 24.8343H76.524L77.1902 21.6996C77.2414 21.4941 77.2414 21.3398 77.139 21.2885C77.0878 21.1858 76.9852 21.1858 76.7802 21.1858C76.4214 21.1858 76.2676 21.3913 76.1652 21.8024L74.5248 29.6652C74.4737 29.8707 74.4737 30.0248 74.5763 30.0763C74.6275 30.1278 74.7299 30.1791 74.8837 30.1791C75.2425 30.1791 75.4475 29.9735 75.5501 29.6137L76.319 25.8108Z" fill="white"/>
<path d="M90.0047 21.1875L91.696 29.6154C91.696 29.7182 91.696 29.8212 91.6448 29.9753C91.5936 30.1295 91.5422 30.2323 91.3886 30.3351C91.2348 30.4379 91.081 30.4891 90.9272 30.4891C90.6198 30.4891 90.466 30.3351 90.4148 30.0268L89.9021 27.6112H85.9555L84.469 30.0268C84.264 30.3351 84.0078 30.4891 83.7513 30.4891C83.5975 30.4891 83.4439 30.4379 83.3413 30.3351C83.2389 30.2323 83.1875 30.1295 83.2389 29.9753C83.2901 29.8212 83.2901 29.7182 83.3413 29.6154L88.6206 21.1875H90.0047ZM88.9283 22.9347L86.7243 26.4292H89.6459L88.9283 22.9347Z" fill="white"/>
<path d="M90.9282 30.5894C90.5694 30.5894 90.3644 30.3839 90.2618 30.0241L89.8006 27.7115H86.0075L84.5212 30.0753C84.316 30.3839 84.0086 30.5894 83.701 30.5894C83.496 30.5894 83.3421 30.5379 83.2398 30.3839C83.1371 30.2296 83.0859 30.0753 83.0859 29.9213C83.1371 29.767 83.1371 29.6642 83.2398 29.5615L88.5703 21.082H90.0568V21.1848L91.7483 29.613C91.7483 29.7157 91.7483 29.8698 91.6971 30.0241C91.6456 30.1781 91.5433 30.3324 91.3894 30.4352C91.2868 30.5379 91.0818 30.5894 90.9282 30.5894ZM85.9051 27.506H90.0056L90.4668 30.0241C90.5182 30.2809 90.6206 30.3839 90.8768 30.3839C91.0306 30.3839 91.1332 30.3324 91.2868 30.2296C91.3894 30.1268 91.4921 30.0241 91.4921 29.9726C91.5433 29.8185 91.5433 29.7157 91.5433 29.6642L89.9029 21.2876H88.7241L83.4448 29.6642C83.3936 29.767 83.3421 29.8698 83.3421 29.9726C83.3421 30.0753 83.3421 30.1268 83.4448 30.2296C83.5472 30.3324 83.6498 30.3324 83.7524 30.3324C84.0086 30.3324 84.2136 30.1781 84.3674 29.9213L85.9051 27.506ZM89.8006 26.5295H86.5202L88.9805 22.6751L89.8006 26.5295ZM86.9302 26.324H89.5441L88.8779 23.2405L86.9302 26.324Z" fill="white"/>
<path d="M3.17787 33.7744L0 48.5235H122.963L126.09 33.7744H3.17787Z" fill="#AE3857"/>
<path d="M6.76785 37.2226C6.81911 37.0168 6.92162 36.8112 7.02412 36.7085C7.17789 36.6057 7.33166 36.5029 7.48543 36.5029H10.202C11.0733 36.5029 11.7397 36.6057 12.2522 36.76C12.7135 36.914 13.0723 37.1711 13.2261 37.5309C13.3799 37.8905 13.4311 38.3016 13.2774 38.867C13.1236 39.5351 12.8673 39.9975 12.406 40.3573C13.0723 40.7684 13.2774 41.5393 13.0211 42.6698L12.9698 42.9269C12.816 43.5948 12.611 44.1089 12.2522 44.52C11.9447 44.8796 11.4834 45.1879 10.9196 45.3422C10.3558 45.4965 9.58694 45.5992 8.66432 45.5992H5.48645C5.28142 45.5992 5.17891 45.5477 5.07638 45.3935C5.02514 45.2907 4.97388 45.0851 5.02514 44.8796L6.76785 37.2226ZM7.12663 41.231L6.46031 44.4172H8.97186C9.74068 44.4172 10.2533 44.3657 10.6121 44.3145C10.9708 44.2629 11.2271 44.1089 11.4321 43.9034C11.5859 43.6976 11.7397 43.3892 11.8422 42.9269L11.8935 42.7213C11.996 42.2587 11.996 41.9504 11.9447 41.7449C11.8935 41.5393 11.6884 41.385 11.3809 41.3338C11.0733 41.2823 10.6121 41.231 9.94572 41.231H7.12663ZM9.48441 40.1002C10.1508 40.1002 10.6121 40.049 10.9708 39.9975C11.3296 39.9462 11.5859 39.8434 11.7397 39.6892C11.8935 39.5351 12.0472 39.2781 12.0985 38.9697C12.1497 38.6614 12.1497 38.4044 12.0472 38.2503C11.9447 38.096 11.7397 37.9933 11.4321 37.942C11.1246 37.8905 10.6121 37.8392 9.99698 37.8392H7.89547L7.38292 40.1002H9.48441Z" fill="white"/>
<path d="M8.86615 45.7499C8.81489 45.7499 8.76362 45.7499 8.71238 45.7499H5.53451C5.32948 45.7499 5.12444 45.6471 5.0732 45.4928C4.9707 45.3388 4.9707 45.1332 5.02194 44.8762L6.66214 37.2189C6.7134 36.9621 6.81591 36.7566 6.96968 36.6538C7.12345 36.4995 7.27721 36.4482 7.48222 36.4482H10.1988C11.0702 36.4482 11.7877 36.551 12.2491 36.7051C12.7616 36.8593 13.1204 37.1677 13.2742 37.5272C13.4792 37.8871 13.4792 38.3497 13.3767 38.9663C13.2229 39.583 12.9666 40.0456 12.6078 40.4051C13.2229 40.8677 13.4279 41.6387 13.1716 42.7692L13.1204 43.0262C12.9666 43.6941 12.7104 44.2595 12.4028 44.6706C12.044 45.0817 11.5827 45.3388 11.0189 45.5443C10.5063 45.6471 9.7375 45.6984 8.86615 45.7499ZM7.48222 36.6538C7.32845 36.6538 7.17469 36.7051 7.07218 36.8078C6.96968 36.9106 6.86717 37.0649 6.81591 37.2704L5.17571 44.9277C5.12444 45.1332 5.12447 45.2873 5.22697 45.3388C5.27821 45.4415 5.38074 45.4928 5.53451 45.4928H8.71238C9.635 45.4928 10.4038 45.39 10.9676 45.236C11.5315 45.0817 11.9415 44.8249 12.2491 44.4651C12.5566 44.1052 12.8129 43.5914 12.9154 42.9235L12.9666 42.6664C13.2229 41.5872 13.0179 40.8678 12.3516 40.4567L12.2491 40.3539L12.3516 40.2511C12.7616 39.8913 13.0179 39.4289 13.1716 38.812C13.2742 38.2982 13.2742 37.8358 13.1204 37.5272C12.9666 37.2189 12.6591 36.9621 12.1978 36.8078C11.7365 36.6538 11.0702 36.551 10.1988 36.551L7.48222 36.6538ZM9.17369 44.5678C9.12242 44.5678 9.07116 44.5678 9.01992 44.5678H6.3546L7.07218 41.1761H9.94251C10.6089 41.1761 11.0702 41.2276 11.3777 41.2788C11.6852 41.3816 11.9415 41.5359 11.9928 41.7414C12.0953 41.947 12.044 42.3066 11.9415 42.7692L11.8903 42.9747C11.7877 43.4373 11.634 43.7457 11.4802 44.0025C11.2752 44.2083 11.0189 44.3623 10.6089 44.4651C10.3526 44.5166 9.84001 44.5678 9.17369 44.5678ZM6.61087 44.311H9.01992C9.7375 44.311 10.3013 44.2595 10.6601 44.2083C11.0189 44.1568 11.2239 44.0025 11.3777 43.8484C11.5315 43.6429 11.6852 43.3346 11.7365 42.9235L11.7877 42.7179C11.8903 42.3066 11.8903 41.9983 11.839 41.8442C11.7877 41.6899 11.634 41.5872 11.3777 41.4844C11.0702 41.4331 10.6089 41.3816 9.99378 41.3816H7.27721L6.61087 44.311ZM9.635 40.1996C9.58373 40.1996 9.53247 40.1996 9.48123 40.1996H7.22595L7.78976 37.6815H9.99378C10.6601 37.6815 11.1214 37.733 11.4802 37.7843C11.839 37.8358 12.044 37.9898 12.1465 38.1441C12.2491 38.3497 12.3003 38.6065 12.1978 38.9148C12.1465 39.2746 11.9928 39.5317 11.839 39.6857C11.634 39.84 11.3777 39.9941 11.0189 40.0456C10.6601 40.1483 10.2501 40.1996 9.635 40.1996ZM7.53349 39.9428H9.48123C10.1475 39.9428 10.6089 39.8913 10.9676 39.84C11.2752 39.7885 11.5315 39.6857 11.6852 39.5317C11.839 39.3774 11.9415 39.1719 11.9928 38.8635C12.044 38.5552 12.044 38.3497 11.9415 38.2469C11.839 38.1441 11.6852 38.0414 11.3777 37.9898C11.0702 37.9386 10.6089 37.8871 9.94251 37.8871H7.94353L7.53349 39.9428Z" fill="white"/>
<path d="M22.2951 42.3615C22.1413 43.0297 21.8851 43.6463 21.4238 44.1602C21.0137 44.674 20.5011 45.0851 19.8348 45.3422C19.2197 45.5992 18.5022 45.7533 17.7333 45.7533C16.9645 45.7533 16.3494 45.5992 15.8368 45.3422C15.3243 45.0851 14.9655 44.674 14.7605 44.1602C14.5554 43.6463 14.5554 43.0297 14.7092 42.3615L15.2218 39.8947C15.3755 39.2268 15.6318 38.6099 16.0931 38.096C16.5032 37.5822 17.0157 37.1711 17.6821 36.914C18.2971 36.6572 19.0147 36.5029 19.7836 36.5029C20.5524 36.5029 21.1675 36.6572 21.68 36.914C22.1926 37.1711 22.5514 37.5822 22.7564 38.096C22.9614 38.6099 22.9614 39.2268 22.8077 39.8947L22.2951 42.3615ZM19.5786 37.6337C18.7584 37.6337 18.0921 37.8392 17.5795 38.1988C17.067 38.6099 16.7082 39.1753 16.5544 39.8947L16.0419 42.2587C15.8881 43.0297 15.9906 43.5948 16.2982 43.9546C16.657 44.3657 17.2208 44.52 18.0409 44.5713C18.861 44.5713 19.5273 44.3657 20.0398 44.0061C20.5524 43.5948 20.9112 43.0297 21.065 42.3102L21.5775 39.9462C21.7313 39.2268 21.6288 38.6614 21.3213 38.2503C21.0137 37.8392 20.3986 37.6337 19.5786 37.6337Z" fill="white"/>
<path d="M17.8383 45.9046H17.787C17.0182 45.9046 16.3518 45.7503 15.8393 45.442C15.3267 45.1337 14.9167 44.7226 14.7116 44.2087C14.5066 43.6949 14.5066 43.0267 14.6604 42.3586L15.173 39.892C15.3267 39.1723 15.6343 38.5557 16.0443 38.0418C16.4543 37.528 17.0182 37.1169 17.6332 36.8086C18.2483 36.5002 18.9659 36.3975 19.7347 36.3975C20.5036 36.3975 21.1699 36.5515 21.6825 36.8598C22.195 37.1681 22.6051 37.5792 22.8101 38.0933C23.0151 38.6072 23.0151 39.2754 22.8614 39.9433L22.3488 42.4101C22.195 43.1295 21.8875 43.7461 21.4775 44.2603C21.0674 44.7741 20.5036 45.1852 19.8885 45.4935C19.3247 45.7503 18.6071 45.8531 17.8383 45.9046ZM19.786 36.5515C19.0684 36.5515 18.4021 36.7058 17.787 36.9626C17.1719 37.2196 16.6594 37.6307 16.2493 38.1446C15.8393 38.6585 15.583 39.2239 15.4292 39.892L14.9167 42.3586C14.7629 43.0267 14.8141 43.5921 14.9679 44.106C15.173 44.6198 15.4805 44.9797 15.993 45.2365C16.5056 45.4935 17.1207 45.6476 17.8383 45.6476C18.5559 45.6476 19.2734 45.4935 19.8885 45.2365C20.5036 44.9797 21.0161 44.5686 21.4262 44.0545C21.8362 43.5406 22.0925 42.9755 22.2463 42.3073L22.7588 39.8405C22.9126 39.1723 22.8614 38.6072 22.7076 38.0933C22.5026 37.5792 22.195 37.2196 21.6825 36.9626C21.1699 36.7058 20.5548 36.5515 19.786 36.5515ZM18.0945 44.7226C17.1719 44.7226 16.5569 44.5171 16.1981 44.106C15.8393 43.6949 15.7368 43.0782 15.8905 42.3073L16.4031 39.9433C16.5569 39.1723 16.9157 38.5557 17.4795 38.1961C17.992 37.785 18.7096 37.5792 19.5297 37.5792H19.581C20.4523 37.5792 21.0674 37.785 21.4262 38.1961C21.785 38.6585 21.8875 39.2751 21.7337 39.9948L21.2212 42.3586C21.0674 43.1295 20.7086 43.7461 20.1448 44.106C19.6322 44.5171 18.9146 44.7226 18.0945 44.7226ZM19.5297 37.7335C18.7609 37.7335 18.0945 37.9391 17.6332 38.2989C17.1207 38.6585 16.8132 39.2239 16.6594 39.9433L16.1468 42.3073C15.993 43.0267 16.0956 43.5406 16.4031 43.9004C16.7106 44.2603 17.2745 44.4658 18.0945 44.4658C18.9146 44.4658 19.5297 44.2603 20.0423 43.9004C20.5548 43.5406 20.8624 42.9755 21.0161 42.2558L21.5287 39.892C21.6825 39.2239 21.58 38.6585 21.2724 38.2989C20.9136 37.9391 20.3498 37.7335 19.5297 37.7335Z" fill="white"/>
<path d="M28.8056 40.4091C29.3694 40.4091 29.8306 40.3063 30.1895 40.0492C30.5483 39.8437 30.8045 39.5354 30.8557 39.1243C30.9583 38.7132 30.8557 38.4049 30.5483 38.1478C30.2406 37.891 29.8306 37.7367 29.318 37.7367H26.6529C26.3964 37.7367 26.2428 37.7882 26.1914 37.8395C26.089 37.891 26.0376 38.0965 25.9864 38.3533L25.9352 38.6104C25.8326 39.073 25.5764 39.3298 25.1664 39.3298C24.7563 39.3298 24.6025 39.073 24.7051 38.6104C24.8587 37.8395 25.1152 37.3256 25.4226 37.0173C25.7302 36.709 26.1914 36.5547 26.8579 36.5547H29.7282C30.2918 36.5547 30.8045 36.6575 31.2145 36.863C31.6245 37.0686 31.881 37.3769 32.086 37.7367C32.2398 38.0965 32.291 38.5589 32.1884 39.0215C32.0345 39.8437 31.5733 40.5118 30.8557 40.9744C31.3683 41.4883 31.5221 42.2077 31.3683 43.0299C31.2657 43.5438 31.0607 43.9549 30.7021 44.3662C30.3433 44.7773 29.9333 45.0856 29.4206 45.2912C28.908 45.4967 28.3956 45.5995 27.8317 45.5995H24.9613C24.3463 45.5995 23.9362 45.4452 23.7312 45.1369C23.5262 44.8286 23.5262 44.3147 23.6799 43.5438C23.7824 43.0814 24.0387 42.8244 24.4487 42.8244C24.8587 42.8244 25.0125 43.0814 24.9101 43.5438L24.8587 43.8008C24.8075 44.0579 24.8075 44.2119 24.8587 44.3147C24.9101 44.3662 25.0637 44.4175 25.2687 44.4175H27.9341C28.4468 44.4175 28.908 44.2634 29.318 44.0064C29.7282 43.6981 29.9844 43.3382 30.0868 42.9271C30.1895 42.516 30.0868 42.2077 29.8306 41.9507C29.5744 41.6939 29.1644 41.5396 28.6518 41.5396H27.4217C26.9091 41.5396 26.704 41.334 26.8064 40.9744C26.9091 40.5631 27.1653 40.4091 27.6779 40.4091H28.8056Z" fill="white"/>
<path d="M27.7292 45.8004H24.8074C24.1412 45.8004 23.7311 45.6461 23.5261 45.2865C23.3211 44.9782 23.3211 44.4128 23.4748 43.6419C23.6286 42.974 24.0387 42.8712 24.3462 42.8197C24.5512 42.8197 24.705 42.8712 24.8074 43.0253C24.91 43.1796 24.9612 43.3851 24.91 43.6934L24.8588 43.9502C24.8074 44.2586 24.8074 44.3616 24.8588 44.3616C24.8588 44.3616 24.91 44.4128 25.2176 44.4128H27.8828C28.3954 44.4128 28.8054 44.2586 29.2155 44.0018C29.6255 43.7447 29.8305 43.3851 29.9331 42.974C30.0355 42.6142 29.9331 42.3059 29.6769 42.1003C29.4205 41.8433 29.0616 41.7405 28.5492 41.7405H27.3189C27.0115 41.7405 26.8065 41.6892 26.6527 41.5349C26.5501 41.4322 26.5501 41.2266 26.5501 41.0211C26.6015 40.7127 26.8577 40.3529 27.5239 40.3529H28.7542C29.2667 40.3529 29.7281 40.2501 30.0869 40.0446C30.4458 39.8391 30.6508 39.5822 30.702 39.2224C30.8043 38.8626 30.702 38.5543 30.4458 38.3487C30.1893 38.0919 29.7793 37.9891 29.2667 37.9891H26.6015C26.3451 37.9891 26.2427 38.0404 26.1915 38.0919C26.1401 38.1432 26.0889 38.2459 26.0377 38.503L25.9865 38.7598C25.8327 39.428 25.4227 39.5307 25.115 39.5822C24.91 39.5822 24.7562 39.5307 24.6538 39.3767C24.5512 39.2224 24.5 39.0169 24.5512 38.7085C24.705 37.9376 24.9612 37.3722 25.32 37.0639C25.6789 36.7556 26.1401 36.6016 26.8065 36.6016H29.6769C30.2919 36.6016 30.8043 36.7043 31.2146 36.9099C31.6246 37.1154 31.932 37.4238 32.137 37.8348C32.2908 38.2459 32.342 38.7085 32.2397 39.1709C32.0858 39.9933 31.6246 40.61 30.9582 41.1238C31.4196 41.6892 31.5732 42.3571 31.3682 43.1796C31.2658 43.6934 31.0094 44.1558 30.702 44.5671C30.3431 44.9782 29.9331 45.2865 29.4205 45.5434C28.8566 45.6461 28.3442 45.8004 27.7292 45.8004ZM24.3462 43.0253C23.9874 43.0253 23.7824 43.2308 23.6799 43.6419C23.5261 44.3616 23.5261 44.8754 23.7311 45.1323C23.8849 45.3893 24.295 45.5434 24.8588 45.5434H27.7292C28.2928 45.5434 28.8054 45.4406 29.2667 45.235C29.7281 45.0295 30.1381 44.7212 30.497 44.3616C30.8043 44.0017 31.0608 43.5391 31.1632 43.0768C31.317 42.2544 31.1632 41.6377 30.702 41.1238L30.5993 41.0211L30.702 40.9696C31.4196 40.5072 31.8296 39.8906 31.9835 39.1196C32.0858 38.657 32.0346 38.2459 31.8808 37.8864C31.727 37.5265 31.4708 37.2695 31.0608 37.0639C30.6508 36.8584 30.1893 36.7556 29.6255 36.7556H26.7553C26.7553 36.7556 26.7553 36.7556 26.7039 36.7556C26.1401 36.7556 25.6789 36.9099 25.4227 37.1667C25.115 37.475 24.91 37.9376 24.7562 38.657C24.705 38.8626 24.705 39.0169 24.8074 39.1196C24.8588 39.1709 24.9612 39.2224 25.115 39.2224C25.4738 39.2224 25.6789 39.0169 25.7812 38.6058L25.8327 38.3487C25.8839 38.0919 25.9865 37.8864 26.0889 37.7836C26.1915 37.6806 26.3965 37.6806 26.6527 37.6293H29.3181C29.8819 37.6293 30.3431 37.7836 30.6508 38.0404C30.9582 38.3487 31.0608 38.7085 31.0094 39.1709C30.907 39.5822 30.702 39.8906 30.2919 40.1474C29.8819 40.4044 29.4205 40.5072 28.8566 40.5072H27.6266C27.1654 40.5072 26.9089 40.6612 26.8577 41.0211C26.8065 41.1754 26.8577 41.2781 26.9089 41.3294C26.9604 41.4322 27.1654 41.4837 27.3704 41.4837H28.6004C29.1643 41.4837 29.5743 41.6377 29.8819 41.8948C30.1893 42.2031 30.2919 42.5627 30.1893 42.974C30.0869 43.4364 29.8305 43.7962 29.3693 44.1045C28.9593 44.4128 28.4466 44.5671 27.9342 44.5671H25.2688C25.0126 44.5671 24.8074 44.5156 24.7562 44.4128C24.6538 44.3101 24.6538 44.1045 24.7562 43.8475L24.8074 43.5907C24.8588 43.3851 24.8588 43.2308 24.7562 43.128C24.6024 43.0768 24.5 43.0253 24.3462 43.0253Z" fill="white"/>
<path d="M37.9297 41.5911C37.7759 41.7451 37.5709 41.7966 37.4171 41.7966C37.2121 41.7966 37.1097 41.7451 36.9559 41.5911L35.4182 38.5589L34.0343 45.0856C33.9317 45.548 33.6755 45.805 33.2655 45.805C32.8554 45.805 32.7016 45.5995 32.8042 45.1369L34.4955 37.2228C34.5981 36.7602 34.8543 36.5547 35.2132 36.5547C35.4694 36.5547 35.6232 36.6575 35.777 36.9145L37.6735 40.5631L41.1589 36.9145C41.4151 36.6575 41.6201 36.5547 41.8252 36.5547C42.2352 36.5547 42.389 36.7602 42.2866 37.2228L40.5951 45.1369C40.4925 45.5995 40.2363 45.805 39.8262 45.805C39.4162 45.805 39.2624 45.548 39.3648 45.0856L40.7489 38.5589L37.9297 41.5911Z" fill="white"/>
<path d="M39.878 45.9046C39.6218 45.9046 39.4679 45.8531 39.3656 45.6991C39.2629 45.5448 39.2117 45.3393 39.2629 45.0309L40.5956 38.9155L37.9817 41.6907C37.7767 41.8447 37.6228 41.8962 37.4178 41.8962C37.2128 41.8962 37.0078 41.7934 36.9052 41.6392L35.4701 38.864L34.1374 45.0824C33.9836 45.7503 33.5736 45.9046 33.266 45.9046C33.061 45.9046 32.8559 45.8531 32.7536 45.6991C32.6509 45.5448 32.5997 45.3393 32.6509 45.0824L34.3425 37.1681C34.4963 36.5515 34.8549 36.3975 35.1625 36.3975C35.4701 36.3975 35.6751 36.5515 35.829 36.8086L37.674 40.3031L41.0571 36.8086C41.3133 36.5515 41.5695 36.4487 41.8259 36.4487C42.0309 36.4487 42.1845 36.5002 42.2871 36.6543C42.3895 36.8086 42.4409 37.0141 42.3895 37.2709L40.6982 45.1852C40.5956 45.6476 40.3394 45.9046 39.878 45.9046ZM41.0056 38.2474L39.5194 45.1337C39.4679 45.3393 39.4679 45.4935 39.5706 45.5963C39.6218 45.6476 39.7244 45.6991 39.878 45.6991C40.2368 45.6991 40.4418 45.4935 40.5444 45.1337L42.2359 37.2196C42.2871 37.0141 42.2871 36.8598 42.1845 36.757C42.1333 36.7058 42.0309 36.6543 41.8771 36.6543C41.6721 36.6543 41.4671 36.757 41.2621 36.9626L37.674 40.7142L35.6751 36.9626C35.5725 36.757 35.4187 36.6543 35.2137 36.6543C34.9063 36.6543 34.7013 36.8598 34.5987 37.2709L32.9071 45.1852C32.8559 45.3908 32.8559 45.5448 32.9586 45.5963C33.0098 45.6476 33.1121 45.6991 33.266 45.6991C33.6248 45.6991 33.8298 45.4935 33.9324 45.0824L35.4187 38.2474L37.1102 41.5364C37.1614 41.6392 37.3152 41.6907 37.469 41.6907C37.6229 41.6907 37.7767 41.6392 37.8791 41.5364L41.0056 38.2474Z" fill="white"/>
<path d="M50.6916 42.4599C50.5378 43.1281 50.2816 43.7447 49.8201 44.2586C49.4101 44.7727 48.8975 45.1838 48.2312 45.4406C47.6162 45.6976 46.8986 45.8517 46.1297 45.8517C45.3609 45.8517 44.7458 45.6976 44.2332 45.4406C43.7208 45.1838 43.3619 44.7727 43.1569 44.2586C42.9519 43.7447 42.9519 43.1281 43.1057 42.4599L43.6182 39.9933C43.772 39.3252 44.0282 38.7085 44.4896 38.1947C44.8996 37.6806 45.412 37.2695 46.0785 37.0127C46.6935 36.7556 47.4112 36.6016 48.18 36.6016C48.9489 36.6016 49.5639 36.7556 50.0766 37.0127C50.589 37.2695 50.9478 37.6806 51.1528 38.1947C51.3578 38.7085 51.3578 39.3252 51.204 39.9933L50.6916 42.4599ZM47.975 37.7321C47.1548 37.7321 46.4885 37.9376 45.9759 38.2974C45.4635 38.7085 45.1047 39.2737 44.9508 39.9933L44.4382 42.3571C44.2846 43.1281 44.387 43.6934 44.6946 44.053C45.0535 44.4644 45.6173 44.6184 46.4373 44.6699C47.2574 44.6699 47.9236 44.4644 48.4362 44.1045C48.9489 43.6934 49.3077 43.1281 49.4613 42.4086L49.9739 40.0446C50.1278 39.3252 50.0251 38.7598 49.7177 38.3487C49.4101 37.9376 48.7951 37.7321 47.975 37.7321Z" fill="white"/>
<path d="M46.2327 45.9554C45.4127 45.9554 44.7462 45.8014 44.2338 45.4928C43.7212 45.1845 43.3112 44.7734 43.1062 44.2595C42.9011 43.7457 42.9011 43.0775 43.055 42.4094L43.5674 39.9428C43.7212 39.2234 44.0288 38.6065 44.4388 38.0926C44.8489 37.5788 45.4127 37.1677 46.0277 36.8593C46.6428 36.6023 47.3604 36.4482 48.1293 36.4482C48.8981 36.4482 49.5643 36.6023 50.077 36.9106C50.5896 37.2189 50.9996 37.6303 51.2046 38.1441C51.4097 38.658 51.4097 39.3261 51.2558 39.9941L50.7432 42.4609C50.5896 43.1803 50.282 43.7969 49.872 44.311C49.4619 44.8249 48.8981 45.236 48.2831 45.5443C47.7192 45.8526 47.0016 45.9554 46.2327 45.9554ZM48.1805 36.6538C47.4628 36.6538 46.7966 36.8078 46.1815 37.0649C45.5665 37.3217 45.0539 37.733 44.6439 38.2469C44.2338 38.7608 43.9774 39.3261 43.8238 39.9941L43.3112 42.4609C43.1573 43.129 43.2085 43.6941 43.3624 44.2083C43.5674 44.7221 43.875 45.0817 44.3874 45.3388C44.9001 45.5956 45.5151 45.7499 46.2327 45.7499C46.9504 45.7499 47.6678 45.5956 48.2831 45.3388C48.8981 45.0817 49.4105 44.6706 49.8208 44.1567C50.2308 43.6429 50.487 43.0775 50.6408 42.4094L51.1532 39.9428C51.307 39.2746 51.2558 38.7093 51.102 38.1954C50.897 37.6815 50.5896 37.3217 50.077 37.0649C49.5643 36.8078 48.9493 36.6538 48.1805 36.6538ZM46.4889 44.8249C45.5665 44.8249 44.9512 44.6194 44.5927 44.2083C44.2338 43.7969 44.1312 43.1803 44.285 42.4094L44.7977 40.0456C44.9512 39.2746 45.3101 38.658 45.8739 38.2982C46.3866 37.8871 47.104 37.6815 47.9754 37.6815C48.8467 37.6815 49.4619 37.8871 49.8208 38.2982C50.1794 38.7608 50.282 39.3774 50.1282 40.0968L49.6155 42.4609C49.4619 43.2318 49.1031 43.8484 48.5393 44.2083C48.0266 44.5678 47.3092 44.7734 46.4889 44.8249ZM47.9242 37.8358C47.1554 37.8358 46.4889 38.0414 46.0277 38.4009C45.5151 38.7608 45.2077 39.3261 45.0539 40.0456L44.5412 42.4094C44.3874 43.129 44.49 43.6429 44.7977 44.0025C45.1051 44.3623 45.6689 44.5678 46.4889 44.5678C47.3092 44.5678 47.9243 44.3623 48.4367 44.0025C48.9493 43.6429 49.2569 43.0775 49.4105 42.3581L49.9232 39.9941C50.077 39.3261 49.9743 38.7608 49.667 38.4009C49.3593 38.0414 48.7443 37.8358 47.9242 37.8358Z" fill="white"/>
<path d="M58.2258 42.1521L57.5595 45.2356C57.5083 45.4411 57.4057 45.5954 57.2519 45.6982C57.0983 45.8009 56.9445 45.9037 56.7395 45.9037C56.5345 45.9037 56.4319 45.8525 56.3295 45.6982C56.2268 45.5954 56.2268 45.4411 56.278 45.2356L56.9445 42.1521H56.8419C56.4319 42.1521 56.0218 42.2549 55.663 42.4607C55.3042 42.6662 55.048 42.9745 54.7918 43.3856C54.638 43.6425 54.4329 44.0023 54.1767 44.4649C53.9203 44.9272 53.6129 45.2356 53.2541 45.4926C52.8953 45.7497 52.4852 45.8525 52.0238 45.8525C51.7676 45.8525 51.6138 45.8009 51.5114 45.6982C51.4088 45.5954 51.3576 45.4411 51.4088 45.2871C51.5114 44.876 51.7676 44.7217 52.2802 44.7217C52.3314 44.7217 52.3826 44.6704 52.434 44.6189C52.4852 44.5677 52.5876 44.4649 52.6391 44.3621C52.8953 43.9508 53.0491 43.5912 53.1515 43.3341C53.3565 42.923 53.6641 42.5635 54.0229 42.1521C54.4329 41.741 54.843 41.4842 55.3042 41.2787C55.1506 41.0216 54.9456 40.6105 54.7403 40.0966C54.5353 39.5313 54.3303 39.0687 54.1767 38.7091C54.0229 38.4008 53.8179 38.2465 53.6129 38.1952C53.3565 38.1952 53.2029 38.1437 53.1003 38.0409C52.9976 37.9382 52.9464 37.7841 52.9976 37.6298C53.1003 37.27 53.3565 37.0645 53.8179 37.0645C54.1767 37.0645 54.5353 37.1672 54.843 37.4243C55.1506 37.6813 55.4068 38.0409 55.663 38.5035C55.8168 38.8631 55.9706 39.2229 56.1757 39.6855C56.3295 40.0966 56.483 40.4562 56.6369 40.6618C56.7395 40.9188 56.8933 41.0216 57.0469 41.0216H57.1495L57.8672 37.7841C57.9184 37.5786 58.0207 37.4243 58.1746 37.27C58.3284 37.1672 58.4822 37.0645 58.6872 37.0645C59.0972 37.0645 59.3022 37.27 59.1998 37.7326L58.4822 40.9703H58.5846C58.6872 40.9703 58.8922 40.8676 59.1484 40.6105C59.3534 40.405 59.6611 40.0966 60.0199 39.634C60.4299 39.1202 60.8399 38.7091 61.1476 38.3492C61.455 37.9897 61.8138 37.7326 62.1726 37.4755C62.6338 37.2187 62.9926 37.0645 63.4027 37.0645C63.6591 37.0645 63.8127 37.116 63.9153 37.2187C64.0177 37.3215 64.0691 37.4755 64.0177 37.6298C63.9665 37.7841 63.8641 37.9382 63.7615 38.0409C63.6077 38.1437 63.4027 38.1952 63.1465 38.1952C62.9415 38.1952 62.6338 38.4008 62.3776 38.7091C62.07 39.0174 61.66 39.48 61.1988 40.0451C60.7887 40.559 60.4299 40.9703 60.1223 41.2272C60.3787 41.3814 60.6349 41.5355 60.8399 41.741C61.0449 41.9466 61.1988 42.2036 61.2499 42.4607C61.4038 42.9745 61.5061 43.4884 61.5061 44.0023C61.5061 44.2078 61.5061 44.3621 61.5576 44.5162C61.6088 44.6189 61.66 44.6704 61.7626 44.6704C61.9676 44.6704 62.1726 44.7217 62.275 44.8245C62.3776 44.9272 62.4288 45.0815 62.3776 45.2356C62.275 45.6467 61.9676 45.8009 61.455 45.8009C60.9937 45.8009 60.6861 45.6982 60.3787 45.4411C60.1223 45.1843 59.9685 44.876 59.9173 44.4134C59.9173 44.2593 59.8661 44.1051 59.8661 44.0535C59.8149 43.6425 59.7634 43.2829 59.7123 43.0773C59.6611 42.8203 59.5584 42.6147 59.3534 42.4607C59.0972 42.2036 58.7384 42.1008 58.2772 42.1008L58.2258 42.1521Z" fill="white"/>
<path d="M61.4574 46.0121C60.9959 46.0121 60.5859 45.8578 60.3297 45.601C60.022 45.3439 59.8685 44.9841 59.817 44.5217C59.817 44.3675 59.7658 44.2134 59.7658 44.1106C59.7146 43.6995 59.6635 43.391 59.612 43.1342C59.5608 42.9286 59.4582 42.7231 59.3046 42.5175C59.0996 42.312 58.7408 42.2092 58.3308 42.2092L57.6643 45.1899C57.6131 45.3954 57.5105 45.601 57.3569 45.7038C57.2031 45.8578 56.9981 45.9093 56.7931 45.9093C56.5881 45.9093 56.3831 45.8065 56.2804 45.7038C56.1778 45.5495 56.1266 45.3954 56.1778 45.1384L56.7931 42.1577C56.3831 42.1577 56.0242 42.2605 55.7166 42.466C55.4092 42.6716 55.1016 42.9799 54.8966 43.3397C54.7427 43.5968 54.5377 43.9564 54.2815 44.419C54.0251 44.8813 53.7177 45.2412 53.3077 45.4982C52.9488 45.755 52.4874 45.8578 52.0774 45.8578C51.8212 45.8578 51.6162 45.8065 51.4623 45.6522C51.36 45.5495 51.2573 45.3954 51.3085 45.1384C51.36 44.8301 51.6162 44.4702 52.2824 44.4702C52.2824 44.4702 52.3338 44.4702 52.385 44.419C52.4362 44.3675 52.4874 44.2647 52.5388 44.1619C52.795 43.7508 52.9488 43.391 53.0512 43.1342C53.2562 42.7231 53.5639 42.312 53.9739 41.9009C54.3327 41.5411 54.7427 41.2327 55.1528 41.0785C54.9989 40.8216 54.8454 40.4618 54.6404 39.9479C54.4351 39.3826 54.2301 38.9202 54.0765 38.5604C53.9227 38.3033 53.7689 38.1493 53.6151 38.1493C53.3589 38.1493 53.1538 38.0465 53.0512 37.9437C52.9488 37.841 52.8462 37.6867 52.8976 37.4299C52.9488 37.1215 53.1538 36.7617 53.8201 36.7617C54.2301 36.7617 54.5889 36.916 54.9477 37.1728C55.2554 37.4299 55.5628 37.7895 55.7678 38.3033C55.9216 38.6632 56.0754 39.023 56.2804 39.4853C56.4342 39.8964 56.5881 40.2563 56.7416 40.4618C56.8443 40.6674 56.9467 40.7701 57.0493 40.7701L57.7155 37.6354C57.7669 37.3784 57.8693 37.2243 58.0231 37.07C58.177 36.916 58.382 36.8645 58.587 36.8645C58.8432 36.8645 58.997 36.916 59.0996 37.07C59.202 37.2243 59.2532 37.4299 59.202 37.6867L58.5358 40.7701C58.587 40.7701 58.7408 40.6674 58.997 40.4618C59.202 40.2563 59.5096 39.9479 59.8685 39.4853C60.2785 38.9715 60.6885 38.5091 60.9959 38.2005C61.3035 37.841 61.6624 37.5839 62.0724 37.3271C62.5336 37.0188 62.9436 36.8645 63.3539 36.916C63.6101 36.916 63.8151 36.9673 63.9689 37.1215C64.1227 37.2756 64.1739 37.4299 64.1227 37.6354C64.0713 37.841 63.9689 37.995 63.8151 38.0978C63.6613 38.2006 63.4563 38.2521 63.1489 38.3033C62.9436 38.3033 62.7386 38.4576 62.4312 38.7659C62.1236 39.0742 61.7136 39.5369 61.2523 40.1022C60.8935 40.5646 60.5347 40.9244 60.2785 41.1812C60.4835 41.284 60.6885 41.4896 60.8935 41.6951C61.0985 41.9522 61.2523 42.2092 61.3035 42.466C61.4574 42.9799 61.5597 43.494 61.5597 44.0079C61.5597 44.2134 61.5597 44.3675 61.6112 44.4702C61.6112 44.5217 61.6624 44.573 61.7136 44.573C61.9698 44.573 62.175 44.6245 62.2774 44.7785C62.4312 44.9328 62.4824 45.0871 62.4312 45.2927C62.38 45.6522 62.1748 46.0121 61.4574 46.0121ZM58.1258 42.0549H58.3308C58.8432 42.0549 59.202 42.2092 59.4582 42.4148C59.6635 42.6203 59.7658 42.8259 59.817 43.0827C59.8685 43.3397 59.9197 43.648 59.9708 44.0591C59.9708 44.1619 59.9709 44.2647 60.022 44.419C60.0735 44.8301 60.1759 45.1384 60.4321 45.3954C60.6885 45.601 60.9959 45.755 61.4062 45.755C61.8674 45.755 62.1236 45.601 62.2262 45.2412C62.2774 45.0871 62.2262 44.9841 62.1236 44.9328C62.0212 44.8301 61.8674 44.7785 61.6624 44.7785C61.5597 44.7785 61.4574 44.7273 61.3547 44.5217C61.3035 44.419 61.3035 44.2134 61.3035 44.0079C61.3035 43.5453 61.2009 43.0314 61.0473 42.5175C60.9959 42.2605 60.8423 42.0549 60.6885 41.8494C60.4835 41.6438 60.2785 41.4895 60.022 41.3355L59.8685 41.284L59.9708 41.1812C60.2785 40.9244 60.6373 40.5133 61.0473 39.9992C61.5085 39.3826 61.9186 38.9202 62.2262 38.6119C62.5336 38.2521 62.79 38.0978 63.0974 38.0978C63.3024 38.0978 63.5075 38.0465 63.6101 37.9437C63.7125 37.841 63.8151 37.7382 63.8663 37.5839C63.9175 37.4299 63.8663 37.3271 63.7639 37.2756C63.6613 37.1728 63.5075 37.1215 63.3024 37.1215C62.9436 37.1215 62.585 37.2756 62.1748 37.5326C61.8162 37.7895 61.4574 38.0465 61.1497 38.4061C60.8423 38.7147 60.4835 39.177 60.022 39.6909C59.612 40.1535 59.3558 40.4618 59.1508 40.6674C58.8432 40.9244 58.6382 41.0785 58.5358 41.0785H58.3308L59.0482 37.6867C59.0996 37.4811 59.0996 37.3271 58.997 37.2243C58.9458 37.1215 58.8432 37.1215 58.6382 37.1215C58.4843 37.1215 58.3308 37.1728 58.2281 37.2756C58.1258 37.3784 58.0231 37.5326 57.9719 37.7382L57.2543 41.0785H57.1005C56.8955 41.0785 56.7416 40.9244 56.6393 40.6161C56.4854 40.4105 56.3316 40.0507 56.1778 39.6396C56.0242 39.2285 55.8192 38.8174 55.6654 38.4576C55.4604 37.995 55.2039 37.6867 54.8966 37.4299C54.5889 37.2243 54.2815 37.07 53.9227 37.07C53.5127 37.07 53.3077 37.2243 53.205 37.5326C53.1538 37.6867 53.205 37.7895 53.2562 37.841C53.3589 37.9437 53.5127 37.995 53.7177 37.995C53.9739 37.995 54.1789 38.2005 54.3839 38.5604C54.5377 38.8687 54.7427 39.3313 54.9477 39.9479C55.1528 40.5133 55.3066 40.8729 55.5116 41.13L55.5628 41.2327L55.4604 41.284C54.9989 41.4383 54.5889 41.7466 54.2301 42.1064C53.8715 42.466 53.5639 42.8771 53.3589 43.2369C53.2562 43.494 53.0512 43.8023 52.795 44.2647C52.7438 44.3675 52.6412 44.4702 52.59 44.573C52.4874 44.6758 52.385 44.6758 52.3338 44.6758C51.8724 44.6758 51.6673 44.8301 51.565 45.1899C51.5135 45.3439 51.565 45.4467 51.6673 45.4982C51.77 45.601 51.9238 45.6522 52.1288 45.6522C52.5388 45.6522 52.8976 45.5495 53.2562 45.2927C53.6151 45.0871 53.9227 44.7273 54.1277 44.3162C54.3839 43.8536 54.5889 43.494 54.7427 43.2369C54.9989 42.8259 55.2554 42.466 55.6142 42.2605C55.9728 42.0549 56.3831 41.9522 56.8443 41.9009H57.1005L56.3831 45.1384C56.3316 45.2927 56.3831 45.3954 56.4342 45.4982C56.4854 45.601 56.5881 45.6522 56.7416 45.6522C56.8955 45.6522 57.0493 45.601 57.2031 45.4982C57.3569 45.3954 57.4081 45.2412 57.4593 45.0871L58.1258 42.0549Z" fill="white"/>
<path d="M65.2491 45.235C65.1467 45.6976 64.8905 45.9032 64.4802 45.9032C64.0702 45.9032 63.9166 45.6976 64.019 45.235L65.7105 37.321C65.8129 36.8584 66.0693 36.6528 66.4279 36.6528C66.8382 36.6528 67.0432 36.8584 66.9406 37.321L66.2743 40.3017H71.3486L72.0149 37.2695C72.1175 36.8071 72.3737 36.6016 72.7837 36.6016C73.1937 36.6016 73.3475 36.8071 73.2452 37.2695L71.5536 45.1838C71.451 45.6461 71.1948 45.8517 70.7848 45.8517C70.3748 45.8517 70.221 45.6461 70.3236 45.1838L71.1436 41.4837H66.0693L65.2491 45.235Z" fill="white"/>
<path d="M70.7839 46.0103C70.5277 46.0103 70.3738 45.9588 70.2712 45.8048C70.1688 45.6505 70.1174 45.445 70.1688 45.1879L70.9377 41.5906H66.0684L65.2996 45.2394C65.1969 45.7533 64.8893 46.0103 64.4281 46.0103C64.2231 46.0103 64.0181 45.9588 63.9154 45.8048C63.8131 45.6505 63.7619 45.445 63.8131 45.1879L65.5046 37.2739C65.6581 36.6572 66.017 36.5029 66.3246 36.5029C66.5808 36.5029 66.7346 36.5544 66.837 36.7085C66.9396 36.8628 66.9908 37.0683 66.9396 37.3254L66.3246 40.203H71.1939L71.8089 37.2739C71.9627 36.6572 72.3728 36.5029 72.6804 36.5029C72.8854 36.5029 73.0904 36.5544 73.1928 36.7085C73.2954 36.8628 73.3466 37.0683 73.2954 37.3254L71.6039 45.2394C71.5015 45.7533 71.2451 46.0103 70.7839 46.0103ZM65.9146 41.385H71.1939L70.3739 45.2394C70.3224 45.445 70.3224 45.5993 70.425 45.6505C70.4762 45.702 70.5789 45.7533 70.7327 45.7533C71.0913 45.7533 71.2965 45.5477 71.3989 45.1879L73.0904 37.2739C73.1416 37.0683 73.1416 36.914 73.0392 36.8112C72.9878 36.76 72.8854 36.7085 72.7316 36.7085C72.3728 36.7085 72.1677 36.914 72.0651 37.3254L71.3989 40.4086H66.1196L66.7858 37.2739C66.837 37.0683 66.837 36.914 66.7346 36.8112C66.6834 36.7085 66.5296 36.7085 66.3758 36.7085C66.0684 36.7085 65.8632 36.914 65.7608 37.3254L64.0693 45.2394C64.0181 45.445 64.0181 45.5993 64.1204 45.6505C64.1719 45.702 64.2743 45.7533 64.4281 45.7533C64.7869 45.7533 64.9919 45.5477 65.0943 45.1879L65.9146 41.385Z" fill="white"/>
<path d="M81.5998 42.5656C81.446 43.2338 81.1898 43.8504 80.7286 44.3643C80.3185 44.8781 79.8059 45.2892 79.1397 45.5463C78.5244 45.8034 77.807 45.9574 77.0381 45.9574C76.2693 45.9574 75.6543 45.8034 75.1416 45.5463C74.629 45.2892 74.2701 44.8781 74.0651 44.3643C73.8601 43.8504 73.8601 43.2338 74.014 42.5656L74.5266 40.0988C74.6804 39.4309 74.9366 38.814 75.3978 38.3001C75.8078 37.7863 76.3205 37.3752 76.9867 37.1181C77.602 36.8613 78.3194 36.707 79.0882 36.707C79.8571 36.707 80.4721 36.8613 80.9848 37.1181C81.4974 37.3752 81.8562 37.7863 82.0612 38.3001C82.2663 38.814 82.2663 39.4309 82.1124 40.0988L81.5998 42.5656ZM78.8832 37.8378C78.0632 37.8378 77.397 38.0433 76.8843 38.4029C76.3717 38.814 76.0129 39.3794 75.8593 40.0988L75.3466 42.4628C75.1928 43.2338 75.2954 43.7989 75.6028 44.1587C75.9617 44.5698 76.5255 44.7241 77.3455 44.7754C78.1658 44.7754 78.832 44.5698 79.3447 44.2102C79.8571 43.7991 80.2159 43.2338 80.3697 42.5144L80.8824 40.1503C81.036 39.4309 80.9336 38.8655 80.6259 38.4544C80.3185 38.0433 79.7033 37.8378 78.8832 37.8378Z" fill="white"/>
<path d="M77.1917 46.0621H77.1405C76.3717 46.0621 75.7055 45.9078 75.1928 45.5995C74.6804 45.2912 74.2701 44.8801 74.0651 44.3662C73.8601 43.8521 73.8601 43.1842 74.014 42.516L74.5266 40.0492C74.6804 39.3298 74.9878 38.7132 75.3978 38.1993C75.8078 37.6854 76.3717 37.2741 76.9867 36.9658C77.602 36.6575 78.3194 36.5547 79.0882 36.5547C79.8571 36.5547 80.5236 36.709 81.036 37.0173C81.5486 37.3256 81.9586 37.7367 82.1636 38.2506C82.3686 38.7644 82.3686 39.4326 82.2148 40.1007L81.7024 42.5676C81.5486 43.287 81.241 43.9036 80.8309 44.4175C80.4209 44.9313 79.8571 45.3424 79.2421 45.651C78.627 45.9078 77.9094 46.0621 77.1917 46.0621ZM79.0882 36.7602C78.3708 36.7602 77.7044 36.9145 77.0893 37.1713C76.4743 37.4284 75.9617 37.8395 75.5516 38.3533C75.1416 38.8672 74.8854 39.4326 74.7316 40.1007L74.219 42.5676C74.0651 43.2355 74.1166 43.8008 74.2702 44.3147C74.4752 44.8286 74.7828 45.1884 75.2954 45.4452C75.8078 45.7023 76.4231 45.8566 77.1405 45.8566C77.8582 45.8566 78.5758 45.7023 79.1909 45.4452C79.8059 45.1884 80.3185 44.7773 80.7286 44.2634C81.1386 43.7493 81.3948 43.1842 81.5486 42.516L82.0613 40.0492C82.2148 39.3813 82.1636 38.8159 82.0098 38.3021C81.8048 37.7882 81.4974 37.4284 80.9848 37.1713C80.4721 36.9145 79.8571 36.7602 79.0882 36.7602ZM77.397 44.8801C76.5255 44.8801 75.8593 44.6745 75.5004 44.2634C75.1416 43.8521 75.039 43.2355 75.1928 42.4648L75.7055 40.1007C75.8593 39.3298 76.2179 38.7132 76.7817 38.3533C77.2943 37.9423 78.012 37.7367 78.832 37.7367H78.8832C79.7547 37.7367 80.3697 37.9423 80.7286 38.3533C81.0874 38.8159 81.1898 39.4326 81.036 40.152L80.5236 42.516C80.3697 43.287 80.0109 43.9036 79.4471 44.2634C78.9347 44.6745 78.217 44.8801 77.397 44.8801ZM78.832 37.9423C78.0632 37.9423 77.397 38.1478 76.9355 38.5076C76.4231 38.8672 76.1155 39.4326 75.9617 40.152L75.449 42.516C75.2954 43.2355 75.3978 43.7493 75.7055 44.1092C76.0129 44.469 76.5767 44.6745 77.397 44.6745C78.1658 44.6745 78.832 44.469 79.3447 44.1092C79.8571 43.7493 80.1647 43.1842 80.3185 42.4648L80.8309 40.1007C80.9848 39.4326 80.8824 38.8672 80.5747 38.5076C80.2671 38.1478 79.6521 37.9423 78.832 37.9423Z" fill="white"/>
<path d="M86.4692 45.8502C85.4953 45.8502 84.7777 45.7475 84.265 45.5934C83.7526 45.4391 83.445 45.1308 83.2911 44.7712C83.1373 44.4114 83.1373 43.846 83.2911 43.1781L84.1112 39.4265C84.265 38.7584 84.47 38.2445 84.7776 37.8849C85.0853 37.5251 85.4953 37.2168 86.0591 37.0625C86.6227 36.9084 87.2892 36.8057 88.1604 36.8057H90.467C91.0308 36.8057 91.4408 36.9597 91.6458 37.2168C91.8509 37.4736 91.9023 37.9362 91.7997 38.5016C91.6973 39.0154 91.4408 39.2722 91.0308 39.2722C90.8258 39.2722 90.7234 39.221 90.6208 39.0667C90.5184 38.9126 90.5184 38.7584 90.5696 38.5016C90.6208 38.2445 90.6208 38.0905 90.5696 38.0389C90.5184 37.9362 90.3646 37.9362 90.1596 37.9362H87.9554C87.2892 37.9362 86.7766 37.9877 86.4692 38.0389C86.1615 38.0905 85.9053 38.2445 85.7515 38.45C85.5977 38.6556 85.4439 38.9639 85.3415 39.4265L84.5214 43.1266C84.4188 43.5892 84.4188 43.8975 84.47 44.1031C84.5726 44.3086 84.7777 44.4629 85.0853 44.5142C85.4439 44.5657 85.9565 44.6169 86.7254 44.6169H88.6731C88.8781 44.6169 89.0319 44.5657 89.1343 44.5142C89.2369 44.4114 89.2881 44.2571 89.3393 44.0516C89.3907 43.7948 89.4931 43.6405 89.5957 43.4864C89.7496 43.3322 89.9031 43.2809 90.1082 43.2809C90.5184 43.2809 90.672 43.5377 90.5696 44.1031C90.467 44.6685 90.2108 45.1308 89.8519 45.3879C89.4931 45.6447 89.0831 45.799 88.4681 45.799L86.4692 45.8502Z" fill="white"/>
<path d="M88.5709 46.0121H86.4696C85.4957 46.0121 84.7781 45.9093 84.2654 45.755C83.753 45.601 83.3942 45.2927 83.1892 44.8813C83.0354 44.4702 83.0354 43.9051 83.1377 43.2369L83.958 39.4853C84.1116 38.8174 84.3168 38.2521 84.6754 37.8922C84.9831 37.4811 85.4443 37.2243 86.0081 37.0188C86.572 36.8645 87.2896 36.7617 88.1608 36.7617H90.4674C91.0824 36.7617 91.4927 36.916 91.7489 37.2243C92.0051 37.5326 92.0563 37.995 91.9027 38.6119C91.7489 39.3313 91.3389 39.4853 91.0312 39.4853C90.775 39.4853 90.6212 39.3826 90.5188 39.2285C90.4162 39.0742 90.4162 38.8687 90.4674 38.6119C90.5188 38.3548 90.4674 38.2521 90.4674 38.2521C90.4674 38.2521 90.365 38.2005 90.1086 38.1493H87.9046C87.2384 38.1493 86.7258 38.2005 86.4181 38.2521C86.1107 38.3033 85.9057 38.4576 85.7519 38.6119C85.5981 38.8174 85.4957 39.1258 85.3931 39.5368L84.5731 43.2369C84.4704 43.648 84.4704 43.9564 84.5219 44.1619C84.5731 44.3162 84.7781 44.4702 85.0855 44.5217C85.3931 44.573 85.9569 44.6245 86.6746 44.6245H88.6223C88.8273 44.6245 88.9811 44.573 89.0323 44.5217C89.0835 44.4702 89.1347 44.3675 89.2373 44.1106C89.2885 43.8536 89.3911 43.648 89.545 43.494C89.6985 43.3397 89.9035 43.2882 90.1086 43.2882C90.3136 43.2882 90.4674 43.3397 90.57 43.494C90.6724 43.648 90.7238 43.9051 90.6724 44.2134C90.5188 44.8301 90.3136 45.2412 89.955 45.5495C89.5962 45.8578 89.1347 46.0121 88.5709 46.0121ZM86.4696 45.755H88.5197C89.0835 45.755 89.4935 45.601 89.8012 45.3439C90.1086 45.0871 90.3136 44.6758 90.4674 44.1106C90.5188 43.8536 90.5188 43.648 90.4162 43.5453C90.365 43.494 90.2624 43.4425 90.1086 43.4425C89.955 43.4425 89.8012 43.494 89.6985 43.5968C89.5962 43.6995 89.4935 43.8536 89.4423 44.1106C89.3911 44.3675 89.2885 44.5217 89.1861 44.6245C89.0835 44.7273 88.8785 44.7785 88.6223 44.7785H86.6746C85.9057 44.7785 85.3419 44.7273 85.0343 44.6758C84.6754 44.573 84.4192 44.419 84.3168 44.1619C84.2142 43.9564 84.2142 43.5968 84.3168 43.1342L85.1369 39.4341C85.2393 38.9715 85.3931 38.6632 85.5469 38.4061C85.7007 38.2005 86.0081 38.0465 86.3669 37.9437C86.7258 37.8922 87.187 37.841 87.9046 37.841H90.1086C90.365 37.841 90.5188 37.8922 90.6212 37.995C90.7238 38.0978 90.7238 38.3033 90.6724 38.5604C90.6212 38.7659 90.6212 38.9202 90.7238 39.023C90.775 39.1258 90.8774 39.177 91.0312 39.177C91.3901 39.177 91.5951 38.9715 91.6977 38.4576C91.8001 37.8922 91.8001 37.4811 91.5951 37.2243C91.3901 36.9673 91.0312 36.8645 90.5188 36.8645H88.2123C87.3408 36.8645 86.6746 36.9673 86.1107 37.1215C85.5981 37.2756 85.1881 37.5326 84.8804 37.8922C84.573 38.2521 84.368 38.7659 84.2142 39.4341L83.3942 43.1854C83.2404 43.8536 83.2404 44.3675 83.3942 44.7273C83.548 45.0871 83.8554 45.3439 84.3168 45.4982C84.8293 45.7038 85.5469 45.755 86.4696 45.755Z" fill="white"/>
<path d="M99.4896 36.8643C99.9508 36.8643 100.156 37.0698 100.053 37.4296C99.9508 37.8407 99.6946 37.9948 99.2334 37.9948H97.183L95.5941 45.3437C95.5429 45.5492 95.4403 45.7035 95.2865 45.8063C95.1327 45.9091 94.9277 46.0118 94.7227 46.0118C94.5177 46.0118 94.3638 45.9603 94.2614 45.8576C94.1588 45.7548 94.1588 45.6007 94.2103 45.3952L95.7991 38.0463H93.6976C93.4926 38.0463 93.2876 37.9948 93.185 37.892C93.0826 37.7892 93.0314 37.6352 93.0826 37.4809C93.1338 37.3269 93.2364 37.1726 93.3388 37.0698C93.4926 36.967 93.6976 36.9155 93.9026 36.9155L99.4896 36.8643Z" fill="white"/>
<path d="M94.7207 46.1117C94.4645 46.1117 94.3106 46.0602 94.1571 45.9061C94.0544 45.7518 94.0032 45.5978 94.0544 45.3407L95.5921 38.1461H93.6444C93.3882 38.1461 93.183 38.0946 93.0806 37.9406C92.9779 37.8378 92.8756 37.6835 92.978 37.4267C93.0294 37.2211 93.1318 37.0669 93.2856 36.9126C93.4394 36.8098 93.6444 36.7585 93.9006 36.707H99.4364C99.7438 36.707 99.9488 36.7585 100.051 36.9126C100.154 37.0154 100.154 37.2211 100.154 37.4267C100.103 37.735 99.8976 38.0946 99.2314 38.0946H97.2322L95.6945 45.3407C95.6433 45.5463 95.5409 45.7518 95.3359 45.8546C95.1821 46.0602 94.9257 46.1117 94.7207 46.1117ZM93.9006 36.9641C93.6956 36.9641 93.5418 37.0154 93.4394 37.1181C93.3368 37.2211 93.2344 37.3239 93.183 37.478C93.1318 37.6322 93.183 37.735 93.2344 37.7863C93.3368 37.8891 93.4394 37.9406 93.6444 37.9406H95.8995L94.3106 45.392C94.2594 45.5463 94.3106 45.7006 94.3621 45.7518C94.4133 45.8546 94.5671 45.9061 94.7207 45.9061C94.9257 45.9061 95.0795 45.8546 95.1821 45.7518C95.3359 45.6491 95.3871 45.495 95.4383 45.3407L97.0786 37.8891H99.2314C99.6414 37.8891 99.8976 37.735 99.9488 37.3752C100 37.2211 99.9488 37.1181 99.8976 37.0669C99.8464 36.9641 99.6926 36.9126 99.4364 36.9126L93.9006 36.9641Z" fill="white"/>
<path d="M101.844 41.4381L101.127 44.7783H106.714C106.97 44.7783 107.124 44.8298 107.226 44.9326C107.329 45.0354 107.38 45.1894 107.329 45.3952C107.277 45.5492 107.175 45.7035 107.072 45.8063C106.919 45.9091 106.714 45.9603 106.509 45.9603H100.307C100.102 45.9603 99.9992 45.9091 99.8966 45.7548C99.8454 45.652 99.7942 45.4465 99.8454 45.2409L101.486 37.5837C101.537 37.3781 101.639 37.1726 101.742 37.0698C101.896 36.967 102.049 36.8643 102.203 36.8643H108.405C108.661 36.8643 108.815 36.9155 108.918 37.0185C109.02 37.1213 109.071 37.2754 109.02 37.4809C108.969 37.6352 108.866 37.7892 108.764 37.892C108.61 37.9948 108.405 38.0463 108.2 38.0463H102.613L102.152 40.256H105.945C106.201 40.256 106.406 40.3075 106.509 40.4103C106.611 40.5131 106.662 40.6671 106.611 40.8727C106.509 41.2325 106.201 41.4381 105.689 41.4381H101.844Z" fill="white"/>
<path d="M106.459 46.0633H100.257C100.052 46.0633 99.8471 45.9606 99.7959 45.8065C99.6933 45.6522 99.6933 45.4467 99.7447 45.1899L101.385 37.5326C101.436 37.2756 101.539 37.07 101.692 36.9673C101.846 36.8132 102 36.7617 102.205 36.7617H108.407C108.663 36.7617 108.868 36.8132 108.971 36.9673C109.124 37.1215 109.124 37.2756 109.073 37.5326C109.022 37.7382 108.919 37.8922 108.766 37.995C108.612 38.0978 108.407 38.1493 108.151 38.1493H102.666L102.256 40.1535H105.895C106.203 40.1535 106.408 40.205 106.562 40.359C106.716 40.5133 106.767 40.6674 106.716 40.9244C106.613 41.3355 106.254 41.5411 105.69 41.5923H102L101.334 44.6758H106.767C107.023 44.6758 107.228 44.7273 107.331 44.8813C107.484 45.0356 107.484 45.1899 107.433 45.4467C107.382 45.6522 107.279 45.8065 107.126 45.9093C106.921 46.0121 106.716 46.0633 106.459 46.0633ZM102.205 36.9673C102.051 36.9673 101.949 37.0188 101.795 37.1215C101.692 37.2243 101.59 37.3784 101.539 37.5839L99.8983 45.2412C99.8471 45.4467 99.8471 45.601 99.9497 45.6522C100.001 45.755 100.103 45.8065 100.257 45.8065H106.459C106.664 45.8065 106.818 45.755 106.972 45.7038C107.074 45.601 107.177 45.4982 107.228 45.3439C107.279 45.1899 107.228 45.0356 107.177 44.9841C107.074 44.8813 106.972 44.8813 106.767 44.8813H101.077L101.846 41.3355H105.69C106.152 41.3355 106.408 41.1812 106.511 40.8729C106.562 40.7189 106.511 40.6161 106.408 40.5133C106.306 40.4105 106.152 40.4105 105.895 40.359H102L102.512 37.9437H108.151C108.356 37.9437 108.509 37.8922 108.663 37.841C108.766 37.7382 108.868 37.6354 108.919 37.4811C108.971 37.3271 108.919 37.1728 108.868 37.1215C108.766 37.0188 108.663 37.0188 108.458 37.0188L102.205 36.9673Z" fill="white"/>
<path d="M109.074 45.3899L110.765 37.4758C110.868 37.0132 111.124 36.8077 111.534 36.8077C111.944 36.8077 112.098 37.0647 111.995 37.5273L110.611 43.951L117.172 37.1675C117.428 36.9104 117.633 36.8077 117.89 36.8077C118.3 36.8077 118.402 37.0132 118.3 37.4758L116.608 45.3899C116.506 45.8525 116.25 46.058 115.84 46.058C115.429 46.058 115.276 45.8525 115.378 45.4414L116.762 38.9149L110.253 45.6469C110.099 45.8012 109.996 45.904 109.894 45.9552C109.791 46.0068 109.689 46.0068 109.535 46.0068C109.125 46.058 108.971 45.8012 109.074 45.3899ZM113.687 37.116C113.123 37.116 112.764 36.9619 112.559 36.7049C112.405 36.4481 112.354 35.9342 112.508 35.2661L112.662 34.6494H113.892L113.738 35.4716C113.687 35.6772 113.687 35.7799 113.738 35.8314C113.789 35.8827 113.892 35.8827 114.097 35.9342H115.583C115.788 35.9342 115.891 35.9342 115.942 35.8827C115.993 35.8314 116.045 35.7287 116.096 35.5229L116.25 34.7007H117.48L117.326 35.3173C117.172 35.9855 116.967 36.4993 116.66 36.7564C116.352 37.0132 115.942 37.1675 115.378 37.1675L113.687 37.116Z" fill="white"/>
<path d="M115.838 46.1654C115.581 46.1654 115.428 46.1142 115.325 45.9599C115.223 45.8058 115.171 45.6516 115.223 45.3947L116.555 39.2791L110.353 45.7543C110.2 45.9086 110.046 46.0114 109.943 46.1142C109.841 46.1654 109.687 46.2169 109.533 46.2169C109.328 46.2169 109.174 46.1654 109.072 46.0114C108.969 45.8571 108.918 45.6516 108.969 45.3947L110.661 37.4804C110.815 36.8638 111.225 36.7095 111.532 36.7095C111.737 36.7095 111.891 36.761 111.993 36.9153C112.096 37.0693 112.147 37.2749 112.096 37.5832L110.815 43.6473L117.119 37.1209C117.375 36.8638 117.632 36.761 117.888 36.761C118.093 36.761 118.247 36.8123 118.349 36.9666C118.452 37.1209 118.503 37.3264 118.452 37.5832L116.76 45.4975C116.607 45.9086 116.299 46.1654 115.838 46.1654ZM116.965 38.5597L115.479 45.446C115.428 45.6516 115.428 45.7543 115.53 45.8571C115.581 45.9086 115.684 45.9599 115.889 45.9599C116.248 45.9599 116.453 45.7543 116.555 45.3947L118.247 37.4804C118.298 37.2749 118.298 37.1209 118.195 37.0181C118.144 36.9666 118.042 36.9153 117.888 36.9153C117.683 36.9153 117.478 37.0181 117.273 37.2236L110.405 44.3155L111.891 37.532C111.942 37.3264 111.942 37.1209 111.84 37.0693C111.788 37.0181 111.686 36.9666 111.532 36.9666C111.173 36.9666 110.968 37.1721 110.866 37.5832L109.174 45.4975C109.123 45.7031 109.123 45.8571 109.226 45.9086C109.277 45.9599 109.379 46.0114 109.533 46.0114C109.687 46.0114 109.789 46.0114 109.841 45.9599C109.892 45.9086 109.995 45.8571 110.2 45.6516L116.965 38.5597ZM115.428 37.2749H113.685C113.07 37.2749 112.66 37.1209 112.455 36.8123C112.25 36.504 112.25 35.9901 112.404 35.2707L112.557 34.6025H113.992L113.787 35.579C113.736 35.8361 113.736 35.8873 113.736 35.8873C113.736 35.8873 113.787 35.9388 113.992 35.9388H115.479C115.684 35.9388 115.786 35.8873 115.786 35.8873C115.786 35.8873 115.838 35.8361 115.889 35.579L116.094 34.654H117.529L117.375 35.3735C117.222 36.0929 116.965 36.6067 116.658 36.8638C116.453 37.1209 116.043 37.2236 115.428 37.2749ZM112.762 34.7568L112.66 35.2707C112.506 35.9388 112.506 36.4012 112.66 36.6067C112.814 36.8638 113.172 36.9666 113.685 36.9666H115.376C115.889 36.9666 116.35 36.8638 116.607 36.6067C116.863 36.3499 117.119 35.8873 117.222 35.2194L117.324 34.7568H116.299L116.145 35.4762C116.094 35.7333 116.043 35.8361 115.94 35.9388C115.838 35.9901 115.735 36.0416 115.479 36.0416H113.992C113.736 36.0416 113.582 35.9901 113.531 35.9388C113.48 35.8361 113.48 35.7333 113.531 35.4762L113.685 34.8081L112.762 34.7568Z" fill="white"/>
<path d="M175.266 50.7869V47.389H176.46C176.799 46.9578 177.163 46.0758 177.55 44.7434C177.938 43.411 178.185 41.7041 178.29 39.6224L178.402 37.3574H184.961V47.389H186.474V50.7869H185.201V48.6839H176.54V50.7869H175.266ZM179.564 40.6751C179.448 42.4012 179.219 43.8653 178.879 45.0679C178.539 46.2708 178.232 47.0451 177.956 47.39H183.607V38.653H179.706L179.564 40.6751Z" fill="white"/>
<path d="M188.1 51.9211V41.4038H189.374V42.2618C189.628 41.9604 189.976 41.7148 190.416 41.5252C190.857 41.3369 191.321 41.2422 191.809 41.2422C192.818 41.2422 193.622 41.5841 194.222 42.2692C194.821 42.9543 195.121 43.8417 195.121 44.9315C195.121 46.0534 194.776 46.9857 194.086 47.7307C193.396 48.4746 192.499 48.8469 191.395 48.8469C190.545 48.8469 189.872 48.6797 189.373 48.3448V51.9211H188.1ZM191.443 42.4558C190.593 42.4558 189.904 42.7907 189.374 43.4593V47.0677C189.926 47.4456 190.563 47.634 191.284 47.634C192.038 47.634 192.639 47.3858 193.091 46.8901C193.541 46.3946 193.767 45.7571 193.767 44.981C193.767 44.2261 193.56 43.6165 193.147 43.1529C192.732 42.6876 192.164 42.4558 191.443 42.4558Z" fill="white"/>
<path d="M203.174 41.4062L200.308 48.6875C199.799 49.949 199.347 50.8043 198.955 51.2522C198.562 51.6998 198.101 51.9242 197.569 51.9242C197.113 51.9242 196.662 51.7726 196.216 51.4709L196.629 50.4842C196.969 50.6461 197.235 50.727 197.425 50.727C197.722 50.727 197.991 50.5982 198.229 50.339C198.468 50.0797 198.709 49.6593 198.954 49.0763L199.113 48.6882L195.674 41.407H197.202L199.304 46.0345C199.346 46.1309 199.489 46.4978 199.734 47.1341C199.829 46.7782 199.941 46.4058 200.068 46.0178L201.724 41.4062H203.174Z" fill="white"/>
<path d="M204.48 48.6875V41.4062H209.018V42.6192H205.754V48.6865H204.48V48.6875Z" fill="white"/>
<path d="M210.584 47.7711C209.878 47.0539 209.525 46.1454 209.525 45.0446C209.525 43.9447 209.878 43.0352 210.584 42.318C211.29 41.6008 212.21 41.2422 213.346 41.2422C214.482 41.2422 215.402 41.6008 216.109 42.318C216.814 43.0352 217.167 43.9437 217.167 45.0446C217.167 46.1444 216.814 47.0539 216.109 47.7711C215.403 48.4883 214.482 48.8469 213.346 48.8469C212.21 48.8469 211.29 48.4883 210.584 47.7711ZM210.878 45.0446C210.878 45.7995 211.109 46.4194 211.57 46.9048C212.032 47.3904 212.623 47.633 213.345 47.633C214.067 47.633 214.659 47.3931 215.121 46.9131C215.582 46.4331 215.813 45.8106 215.813 45.0446C215.813 44.2896 215.582 43.6688 215.121 43.1834C214.659 42.6977 214.067 42.4551 213.345 42.4551C212.634 42.4551 212.045 42.695 211.578 43.175C211.111 43.656 210.878 44.2795 210.878 45.0446Z" fill="white"/>
<path d="M224.653 46.8727L225.051 47.8925C224.36 48.5288 223.464 48.8469 222.36 48.8469C221.203 48.8469 220.274 48.5021 219.574 47.8116C218.874 47.1209 218.523 46.1986 218.523 45.0446C218.523 43.9447 218.852 43.0352 219.511 42.318C220.168 41.6008 221.07 41.2422 222.217 41.2422C223.161 41.2422 223.952 41.552 224.589 42.1718C225.226 42.7926 225.545 43.5925 225.545 44.5746C225.545 44.9094 225.519 45.2008 225.465 45.4483H219.957C220.01 46.1277 220.262 46.662 220.713 47.0502C221.164 47.439 221.745 47.633 222.457 47.633C223.39 47.634 224.121 47.3802 224.653 46.8727ZM222.153 42.4558C221.516 42.4558 220.995 42.6371 220.593 42.9977C220.189 43.36 219.95 43.8253 219.876 44.3973H224.222C224.19 43.7929 223.991 43.3195 223.625 42.9736C223.259 42.6288 222.769 42.4558 222.153 42.4558Z" fill="white"/>
<path d="M229.918 50.8577V46.6911H231.199C231.552 46.2516 231.925 45.3511 232.318 43.991C232.711 42.6312 232.954 40.9556 233.044 38.9657L233.164 36.5352H240.578V46.6918H242.201V50.8585H240.236V48.6884H231.883V50.8585H229.918V50.8577ZM235.009 40.6493C234.907 42.0729 234.696 43.3521 234.377 44.4858C234.058 45.6207 233.768 46.3553 233.506 46.6911H238.494V38.5308H235.197L235.009 40.6493Z" fill="white"/>
<path d="M249.463 46.5L250.026 47.9069C249.275 48.5552 248.294 48.879 247.09 48.879C245.846 48.879 244.846 48.503 244.09 47.7507C243.332 46.9984 242.953 46.0089 242.953 44.7813C242.953 43.6125 243.325 42.6368 244.064 41.856C244.805 41.0746 245.79 40.6846 247.02 40.6846C248.034 40.6846 248.893 41.0231 249.598 41.6998C250.306 42.3765 250.659 43.2475 250.659 44.3123C250.659 44.7528 250.62 45.1114 250.54 45.3884H244.986C245.066 45.9675 245.317 46.4154 245.74 46.7335C246.16 47.0519 246.679 47.2108 247.295 47.2108C248.157 47.2118 248.881 46.9746 249.463 46.5ZM246.935 42.3508C245.817 42.3508 245.146 42.9184 244.919 44.0521H248.693C248.705 43.5657 248.55 43.1609 248.232 42.8374C247.913 42.5136 247.481 42.3508 246.935 42.3508Z" fill="white"/>
<path d="M257.045 48.6868V42.8714H255.011L254.961 43.7043C254.835 45.1049 254.628 46.1807 254.338 46.933C254.048 47.6853 253.683 48.192 253.246 48.4523C252.807 48.7123 252.222 48.843 251.493 48.843L251.324 46.8989C251.573 46.922 251.81 46.8503 252.032 46.6821C252.254 46.5138 252.469 46.1439 252.674 45.5702C252.879 44.9972 253.01 44.2422 253.065 43.3043L253.186 40.874H259.01V48.6868H257.045Z" fill="white"/>
<path d="M261.873 47.7239C261.102 46.9543 260.721 45.9731 260.721 44.7813C260.721 43.5895 261.105 42.6083 261.873 41.8386C262.64 41.0689 263.652 40.6846 264.905 40.6846C266.156 40.6846 267.168 41.0689 267.936 41.8386C268.706 42.6083 269.09 43.5895 269.09 44.7813C269.09 45.9741 268.704 46.9543 267.936 47.7239C267.168 48.4936 266.156 48.879 264.905 48.879C263.652 48.879 262.64 48.4936 261.873 47.7239ZM262.819 44.7813C262.819 45.4296 263.017 45.9648 263.408 46.3879C263.802 46.8108 264.299 47.0215 264.903 47.0215C265.519 47.0215 266.023 46.8164 266.415 46.4043C266.808 45.9932 267.004 45.4526 267.004 44.7813C267.004 44.133 266.806 43.6005 266.407 43.184C266.007 42.7675 265.507 42.5588 264.903 42.5588C264.311 42.5588 263.816 42.7648 263.418 43.1749C263.02 43.5868 262.819 44.122 262.819 44.7813Z" fill="white"/>
<path d="M224.02 1.4248H197.225V28.8904H224.02V1.4248Z" fill="#F3E700"/>
<path d="M220.125 14.5894C220.353 7.14435 226.321 1.18164 233.559 1.18164C240.797 1.18164 246.691 7.14435 246.92 14.5894V28.8946H220.125V14.5894Z" fill="#00E1BB"/>
<path fill-rule="evenodd" clip-rule="evenodd" d="M224.02 5.29199C221.705 7.6967 220.234 10.969 220.123 14.5926V28.8909H224.02V5.29199Z" fill="#60CFAF"/>
<path d="M189.874 1.4248C197.203 1.65692 203.073 7.71862 203.073 15.071C203.073 22.4233 197.203 28.4107 189.874 28.643H175.791V1.4248H189.874Z" fill="#FF7E86"/>
<path fill-rule="evenodd" clip-rule="evenodd" d="M197.227 3.88281C200.761 6.35838 203.073 10.4645 203.073 15.0792C203.073 19.6937 200.761 23.7706 197.227 26.2244V3.88281Z" fill="#E77188"/>
<path d="M269.086 15.1613C269.086 23.0187 262.924 29.389 255.323 29.389C247.721 29.389 241.559 23.0187 241.559 15.1613C241.559 7.30379 247.721 0.933594 255.323 0.933594C262.924 0.933594 269.086 7.30251 269.086 15.1613Z" fill="#5267FF"/>
<path fill-rule="evenodd" clip-rule="evenodd" d="M244.249 6.71875C245.85 8.92468 246.83 11.6422 246.919 14.5922V26.4374C243.659 23.8354 241.559 19.7551 241.559 15.1681C241.559 12.0042 242.558 9.08166 244.249 6.71875Z" fill="#2C68E1"/>
<path fill-rule="evenodd" clip-rule="evenodd" d="M149.646 51.8617V0.114258H150.527V51.8617H149.646Z" fill="white"/>
</g>
<defs>
<clipPath id="clip0_971_5124">
<rect width="269" height="52" fill="white"/>
</clipPath>
</defs>
</svg>
