<svg width="230" height="80" viewBox="0 0 230 80" fill="none" xmlns="http://www.w3.org/2000/svg">
<path fill-rule="evenodd" clip-rule="evenodd" d="M28.5553 37.6387H37.4452V4.95007H28.5553V37.6387ZM23.6987 42.2982H42.2993V0.295776H23.6987V42.2982Z" fill="#2A2936"/>
<path fill-rule="evenodd" clip-rule="evenodd" d="M0.340836 51.5126H79.4038V46.8719H0.340836V51.5126Z" fill="#2A2936"/>
<path fill-rule="evenodd" clip-rule="evenodd" d="M5.18019 69.6451H28.0333V60.786H5.18019V69.6451ZM0.340836 79.5378H5.17987V74.2799H32.8732V56.1464H0.340836V79.5378Z" fill="#2A2936"/>
<path fill-rule="evenodd" clip-rule="evenodd" d="M60.8042 4.94993V42.2976H65.658V14.2669L74.5461 4.95362V42.2976H79.4048V0.295776H72.5824L65.658 7.53024V0.295776H58.8388L47.055 12.5044V42.2976H51.915V14.2687L60.8042 4.94993Z" fill="#2A2936"/>
<path fill-rule="evenodd" clip-rule="evenodd" d="M42.4497 69.6451H55.9333V60.786H42.4497V69.6451ZM60.9808 69.6451H74.5671V60.786H60.9808V69.6451ZM37.6072 74.2799H55.933V79.5378H60.981V74.2799H79.4058V56.1464H37.6072V74.2799Z" fill="#2A2936"/>
<path fill-rule="evenodd" clip-rule="evenodd" d="M5.19902 14.2681L14.0852 4.953V37.6385H5.19902V14.2681ZM14.0858 42.2976H18.9432V0.295776H12.1233L0.340836 12.5044V42.2976H14.0858Z" fill="#2A2936"/>
<rect x="101.547" width="2.49761" height="80" fill="#8BC540"/>
<path d="M136.676 51.4468C133.581 51.4468 131.024 50.4278 129.006 48.39C126.988 46.3521 125.979 43.8388 125.979 40.8499C125.979 37.8416 126.988 35.3283 129.006 33.3098C131.024 31.272 133.581 30.2531 136.676 30.2531C138.538 30.2531 140.252 30.6897 141.819 31.5631C143.406 32.4171 144.64 33.5816 145.522 35.0566L142.025 37.0653C141.516 36.1531 140.791 35.4447 139.85 34.9401C138.91 34.4161 137.852 34.1541 136.676 34.1541C134.678 34.1541 133.062 34.7752 131.828 36.0173C130.613 37.2594 130.006 38.8703 130.006 40.8499C130.006 42.8101 130.613 44.4113 131.828 45.6534C133.062 46.8956 134.678 47.5166 136.676 47.5166C137.852 47.5166 138.91 47.2643 139.85 46.7597C140.81 46.2357 141.535 45.5273 142.025 44.6345L145.522 46.6432C144.64 48.1183 143.416 49.2925 141.849 50.1658C140.281 51.0198 138.557 51.4468 136.676 51.4468Z" fill="#2A2936"/>
<path d="M161.497 36.4831V51.0392H157.706V40.0057H151.858V51.0392H148.067V36.4831H161.497Z" fill="#2A2936"/>
<path d="M173.522 36.0755C175.5 36.0755 177.185 36.8227 178.576 38.3171C179.987 39.7922 180.692 41.6068 180.692 43.7611C180.692 45.9154 179.987 47.7398 178.576 49.2342C177.185 50.7093 175.5 51.4468 173.522 51.4468C171.465 51.4468 169.878 50.7384 168.761 49.3216V56.8617H164.97V36.4831H168.761V38.2007C169.878 36.7839 171.465 36.0755 173.522 36.0755ZM169.907 46.7306C170.671 47.4875 171.641 47.866 172.816 47.866C173.992 47.866 174.962 47.4875 175.726 46.7306C176.509 45.9543 176.901 44.9644 176.901 43.7611C176.901 42.5578 176.509 41.5777 175.726 40.8208C174.962 40.0445 173.992 39.6563 172.816 39.6563C171.641 39.6563 170.671 40.0445 169.907 40.8208C169.143 41.5777 168.761 42.5578 168.761 43.7611C168.761 44.9644 169.143 45.9543 169.907 46.7306Z" fill="#2A2936"/>
<path d="M195.885 49.2342C194.376 50.7093 192.535 51.4468 190.36 51.4468C188.185 51.4468 186.344 50.7093 184.835 49.2342C183.346 47.7398 182.602 45.9154 182.602 43.7611C182.602 41.6068 183.346 39.7922 184.835 38.3171C186.344 36.8227 188.185 36.0755 190.36 36.0755C192.535 36.0755 194.376 36.8227 195.885 38.3171C197.393 39.7922 198.148 41.6068 198.148 43.7611C198.148 45.9154 197.393 47.7398 195.885 49.2342ZM187.509 46.6432C188.273 47.4002 189.224 47.7786 190.36 47.7786C191.496 47.7786 192.446 47.4002 193.21 46.6432C193.975 45.8863 194.357 44.9256 194.357 43.7611C194.357 42.5966 193.975 41.6359 193.21 40.879C192.446 40.1221 191.496 39.7436 190.36 39.7436C189.224 39.7436 188.273 40.1221 187.509 40.879C186.765 41.6359 186.393 42.5966 186.393 43.7611C186.393 44.9256 186.765 45.8863 187.509 46.6432Z" fill="#2A2936"/>
<path d="M207.809 51.4468C205.595 51.4468 203.743 50.7093 202.254 49.2342C200.785 47.7592 200.05 45.9349 200.05 43.7611C200.05 41.5874 200.785 39.7631 202.254 38.288C203.743 36.813 205.595 36.0755 207.809 36.0755C209.239 36.0755 210.542 36.4151 211.717 37.0944C212.893 37.7737 213.784 38.6859 214.391 39.831L211.129 41.7233C210.836 41.1216 210.385 40.6461 209.778 40.2968C209.19 39.9474 208.524 39.7728 207.779 39.7728C206.643 39.7728 205.703 40.1512 204.958 40.9081C204.214 41.6456 203.841 42.5966 203.841 43.7611C203.841 44.9062 204.214 45.8572 204.958 46.6141C205.703 47.3516 206.643 47.7204 207.779 47.7204C208.543 47.7204 209.219 47.5554 209.807 47.2255C210.414 46.8761 210.865 46.4006 211.159 45.799L214.45 47.6622C213.804 48.8073 212.893 49.7291 211.717 50.4278C210.542 51.1071 209.239 51.4468 207.809 51.4468Z" fill="#2A2936"/>
<path d="M227.179 36.4831H230V51.0392H226.297V42.7713L219.391 51.0392H216.57V36.4831H220.273V44.751L227.179 36.4831Z" fill="#2A2936"/>
</svg>
