<svg width="45" height="48" viewBox="0 0 45 48" fill="none" xmlns="http://www.w3.org/2000/svg">
<path d="M18.4951 24.4185H14.0595C14.0142 24.4185 13.9916 24.4412 13.9689 24.4864C13.8558 26.5006 13.4711 28.6505 12.9279 30.4157C12.9279 30.4383 12.9279 30.461 12.9506 30.4836C12.9732 30.5062 12.9958 30.5062 13.0184 30.5062H14.5347C14.58 30.5062 14.6026 30.4836 14.6026 30.461C15.0326 29.1031 15.3721 27.3379 15.5078 25.8443H16.9562V30.4383C16.9562 30.4836 17.0015 30.5288 17.0467 30.5288H18.4951C18.5404 30.5288 18.5856 30.4836 18.5856 30.4383V24.4864C18.5856 24.4412 18.5404 24.4185 18.4951 24.4185V24.4185ZM37.2561 24.4185H35.8077C35.7624 24.4185 35.7172 24.4638 35.7172 24.509V29.1031C35.4003 29.1936 35.0835 29.2389 34.7214 29.2389C33.7709 29.2389 33.5446 28.9447 33.5446 27.6774V24.509C33.5446 24.4638 33.4994 24.4185 33.4541 24.4185H32.0283C31.9831 24.4185 31.9378 24.4638 31.9378 24.509V27.8358C31.9378 29.9178 32.6394 30.7099 34.4272 30.7099C35.4456 30.7099 36.5998 30.4383 37.2787 30.1894C37.3013 30.1668 37.324 30.1441 37.324 30.1215V24.509C37.3466 24.4412 37.3013 24.4185 37.2561 24.4185V24.4185ZM6.56866 24.4185H5.09766C5.0524 24.4185 5.02976 24.4412 5.02976 24.4864C4.80346 25.3916 4.32821 26.9305 3.69455 28.5373L2.22354 24.4864C2.20091 24.4638 2.17828 24.4412 2.15565 24.4412H0.662014C0.639383 24.4412 0.616752 24.4638 0.594122 24.4864C0.571491 24.509 0.571491 24.5317 0.594122 24.5543L2.81194 30.6194C2.58563 31.0946 2.38196 31.4793 2.17828 31.8414C2.01986 32.113 1.88408 32.3846 1.74829 32.6561C1.72566 32.6788 1.72566 32.7014 1.74829 32.724C1.77092 32.7467 1.79356 32.7693 1.81619 32.7693H3.42298C3.44561 32.7693 3.49087 32.7467 3.49087 32.724C3.76244 32.2035 4.1019 31.4793 4.41873 30.7325C5.36923 28.5147 6.11604 26.4327 6.68181 24.5317C6.68181 24.509 6.68181 24.4864 6.65918 24.4638C6.61392 24.4185 6.59129 24.4185 6.56866 24.4185V24.4185ZM11.8416 29.1031C11.8416 29.0805 11.819 29.0578 11.7964 29.0578H11.7285C11.3664 29.1936 10.7101 29.2841 10.2575 29.2841C9.2391 29.2841 8.76385 29.0126 8.76385 27.4737C8.76385 26.229 8.92227 25.6632 10.2575 25.6632C10.6422 25.6632 10.9817 25.7085 11.4343 25.8443C11.4796 25.8443 11.5022 25.8443 11.5248 25.799C11.6832 25.4822 11.8869 25.0974 12.1132 24.6222V24.5543C12.1132 24.5317 12.0906 24.509 12.068 24.509C11.4796 24.328 10.778 24.2148 10.1443 24.2148C8.03966 24.2148 7.08917 25.2106 7.08917 27.4511C7.08917 29.7141 8.03966 30.7325 10.1443 30.7325C10.6648 30.7325 11.7285 30.6194 12.2264 30.4157C12.2716 30.3931 12.2943 30.3478 12.2716 30.3025L11.8416 29.1031V29.1031ZM25.6238 24.4185H24.1528C24.1076 24.4185 24.0849 24.4412 24.0849 24.4864C23.8586 25.4143 23.3834 26.9305 22.7497 28.5373L21.2787 24.4864C21.2561 24.4638 21.2334 24.4412 21.2108 24.4412H19.7172C19.6945 24.4412 19.6719 24.4638 19.6493 24.4864C19.6267 24.509 19.6267 24.5317 19.6493 24.5543L21.8671 30.6194C21.6408 31.0946 21.4371 31.4793 21.2334 31.8414C21.075 32.113 20.9392 32.3846 20.8035 32.6788C20.7808 32.7014 20.7808 32.724 20.8035 32.7467C20.8261 32.7693 20.8487 32.7919 20.8713 32.7919H22.4781C22.5008 32.7919 22.546 32.7693 22.546 32.7467C22.8176 32.2262 23.1571 31.502 23.4739 30.7552C24.4018 28.5373 25.1712 26.4553 25.737 24.5543C25.737 24.5317 25.737 24.509 25.7143 24.4864C25.6691 24.4185 25.6464 24.4185 25.6238 24.4185V24.4185ZM31.0552 24.4185H26.778C26.7327 24.4185 26.6875 24.4638 26.6875 24.509V30.461C26.6875 30.5062 26.7327 30.5515 26.778 30.5515H28.2264C28.2716 30.5515 28.3169 30.5062 28.3169 30.461V25.8669H30.5573C30.58 25.8669 30.6252 25.8443 30.6252 25.8216C30.8063 25.4143 30.9647 24.9843 31.1457 24.5543V24.4864C31.1005 24.4185 31.0779 24.4185 31.0552 24.4185" fill="#EF4058"/>
<path d="M8.2884 15.2757C6.20637 15.2757 5.39166 16.181 5.39166 18.4667C5.39166 20.7977 6.20637 21.7029 8.2884 21.7029C10.3931 21.7029 11.2078 20.7977 11.2078 18.4667C11.2078 16.1583 10.3931 15.2757 8.2884 15.2757ZM8.2884 20.3677C7.33791 20.3677 7.04371 20.1187 7.04371 18.4893C7.04371 16.7694 7.36054 16.6109 8.2884 16.6109C9.2389 16.6109 9.55573 16.7694 9.55573 18.4893C9.55573 20.1187 9.26153 20.3677 8.2884 20.3677ZM17.0013 20.1187C17.0013 20.0961 16.9786 20.0735 16.956 20.0735H16.8881C16.526 20.2093 15.8697 20.2998 15.4171 20.2998C14.3987 20.2998 13.9235 20.0282 13.9235 18.4893C13.9235 17.2446 14.0819 16.6788 15.4171 16.6788C15.8018 16.6788 16.1413 16.7241 16.5939 16.8599C16.6392 16.8599 16.6618 16.8599 16.6844 16.8146C16.8429 16.4978 17.0465 16.1131 17.2728 15.6378V15.5699C17.2728 15.5473 17.2502 15.5247 17.2276 15.5247C16.6392 15.3436 15.9376 15.2305 15.304 15.2305C13.1993 15.2305 12.2488 16.2262 12.2488 18.4667C12.2488 20.7298 13.1993 21.7481 15.304 21.7481C15.8245 21.7481 16.8881 21.635 17.386 21.4313C17.4313 21.4087 17.4539 21.3634 17.4313 21.3182L17.0013 20.1187V20.1187ZM4.93904 15.4341H0.661812C0.616551 15.4341 0.571289 15.4794 0.571289 15.5247V21.4766C0.571289 21.5218 0.616551 21.5671 0.661812 21.5671H2.11019C2.15545 21.5671 2.20071 21.5218 2.20071 21.4766V16.8599H4.41853C4.44116 16.8599 4.48642 16.8373 4.48642 16.8146C4.66747 16.4073 4.82589 15.9773 5.00693 15.5473V15.4794C4.9843 15.4568 4.96167 15.4341 4.93904 15.4341Z" fill="#1466AC"/>
<path d="M44.0228 29.8953V29.8048C44.0228 29.7595 44.0228 29.6916 44.0454 29.6464C44.1133 28.809 44.1585 27.7907 44.2038 26.6139V26.5233C44.2264 25.7313 44.2491 24.8713 44.2491 23.9887C44.2491 23.1061 44.2264 22.2461 44.2038 21.454V21.3635C44.1585 20.2093 44.1133 19.1683 44.0454 18.331C44.0454 18.2857 44.0454 18.2178 44.0228 18.1726V18.082C44.0228 17.9915 44.0001 17.9236 44.0001 17.8331V17.7426C43.9322 16.86 43.887 16.3168 43.8643 16.2716C43.8643 16.181 43.8417 16.0905 43.8417 16.0226V15.9547C43.8191 15.7963 43.7965 15.6605 43.7512 15.5021C43.7512 15.4795 43.7512 15.4569 43.7286 15.4342C43.3438 13.6011 42.3255 11.587 41.0581 10.0707C40.5602 9.48232 40.0397 8.96181 39.4966 8.55445C39.4513 8.50919 38.8177 8.05658 37.8219 7.35502C36.6677 6.56294 35.0157 5.45403 33.1373 4.36775C29.788 2.39887 26.8233 1.01839 26.416 0.859972C26.3933 0.859972 26.3933 0.837341 26.3933 0.837341C25.5107 0.452617 24.4471 0.181047 23.2929 0.0678925C23.0666 0.0452617 22.8403 0.0226308 22.614 0.0226308C22.3877 0 22.184 0 21.9803 0H21.6635C20.1246 0.0452617 18.6989 0.316832 17.5673 0.837341C17.4089 0.905233 14.399 2.28571 10.9818 4.29986L10.846 4.36775C7.33819 6.42716 4.59986 8.46393 4.4867 8.55445C3.62673 9.18812 2.85728 10.0028 2.15573 11.0438C1.99731 11.2702 1.99731 11.8586 2.67623 11.8586H4.41881C5.16563 11.8586 5.34667 11.4059 6.18401 10.7949C7.11188 10.116 8.94498 8.75813 12.2943 6.76662C14.7158 5.34088 16.9789 4.20933 18.0878 3.68883C18.1105 3.68883 18.1331 3.66619 18.1557 3.66619C18.1557 3.66619 18.1784 3.66619 18.1784 3.64356C18.1784 3.64356 18.201 3.64356 18.201 3.62093C18.2236 3.62093 18.2462 3.5983 18.2462 3.5983C18.2689 3.5983 18.2915 3.57567 18.3141 3.57567C18.5857 3.43989 18.7668 3.37199 18.7668 3.37199C19.5362 3.03253 20.6225 2.80622 21.7767 2.78359H22.2293C22.5687 2.78359 22.9082 2.80622 23.225 2.85148C23.9266 2.94201 24.5603 3.07779 25.0808 3.3041C25.126 3.32673 25.1939 3.34936 25.2392 3.37199C25.2392 3.37199 25.2618 3.39462 25.3297 3.41726C25.8502 3.64356 28.6564 4.97878 31.7116 6.76662C33.5221 7.83027 35.1288 8.89392 36.2378 9.66336C37.2109 10.3423 37.7993 10.7723 37.8219 10.7949C38.2519 11.1117 38.6819 11.5644 39.0892 12.0622C40.1076 13.3748 40.945 15.1627 41.0808 16.5431C41.0808 16.5658 41.1487 17.1089 41.2165 18.0368C41.2165 18.1047 41.2165 18.1499 41.2392 18.2178V18.3536C41.2392 18.4441 41.2618 18.512 41.2618 18.6025V18.6931C41.2618 18.7383 41.2618 18.8062 41.2844 18.8515C41.2844 18.9646 41.3071 19.0778 41.3071 19.1909C41.3071 19.2588 41.3071 19.3267 41.3297 19.3946V19.4399C41.3297 19.5304 41.3297 19.5983 41.3523 19.6888V19.8699C41.4202 21.0467 41.4655 22.4498 41.4655 23.9208C41.4655 25.3918 41.4202 26.7949 41.3523 27.9717V28.1528C41.3523 28.2433 41.3523 28.3112 41.3297 28.4017V28.447C41.3297 28.5148 41.3297 28.5827 41.3071 28.6506C41.3071 28.7638 41.2844 28.8769 41.2844 28.9901C41.2844 29.058 41.2844 29.1032 41.2618 29.1485V29.239C41.2618 29.3296 41.2392 29.3974 41.2392 29.488V29.6238C41.2392 29.6916 41.2392 29.7595 41.2165 29.8048C41.1487 30.7327 41.0808 31.2984 41.0808 31.2984C40.945 32.6789 40.1076 34.4668 39.0892 35.7793C38.6819 36.2999 38.2519 36.7298 37.8219 37.0467C37.7993 37.0467 37.2109 37.4993 36.2378 38.1782C35.1288 38.9477 33.4994 40.0113 31.7116 41.075C28.6564 42.8854 25.8276 44.198 25.3297 44.4243L25.2392 44.4696C25.1939 44.4922 25.126 44.5148 25.0808 44.5375C24.5603 44.7412 23.9266 44.8996 23.225 44.9901C22.9082 45.0354 22.5687 45.058 22.2293 45.058H21.7767C20.6225 45.0354 19.5362 44.8317 18.7668 44.4696C18.7668 44.4696 18.6083 44.4017 18.3141 44.2659C18.2915 44.2433 18.2462 44.2433 18.2236 44.2206C18.201 44.198 18.1784 44.198 18.1557 44.1754C18.1331 44.1754 18.1331 44.1528 18.1105 44.1528C18.0878 44.1528 18.0652 44.1301 18.0426 44.1301C18.0199 44.1075 17.9973 44.1075 17.952 44.0849H17.9294C16.7752 43.6322 14.6027 42.546 12.2943 41.1881C8.92235 39.2192 7.11188 37.8387 6.18401 37.1598C5.34667 36.5488 5.16563 36.0962 4.41881 36.0962H2.67623C1.99731 36.0962 1.99731 36.6846 2.15573 36.9109C2.85728 37.9519 3.62673 38.7666 4.4867 39.4003C4.59986 39.4908 7.36082 41.5276 10.846 43.587C11.027 43.7001 11.2081 43.8133 11.4117 43.9038C14.6479 45.7595 17.4315 47.0269 17.59 47.1174C18.6989 47.6153 20.1472 47.9095 21.6861 47.9547H22.003C22.2066 47.9547 22.4103 47.9547 22.614 47.9321C22.8403 47.9321 23.0666 47.9095 23.2929 47.8868C24.4471 47.7737 25.5334 47.5021 26.3933 47.1174C26.3933 47.1174 26.416 47.1174 26.416 47.0948C26.8007 46.9137 29.788 45.5332 33.1147 43.587C34.9931 42.4781 36.6451 41.3918 37.7993 40.5997C38.795 39.8982 39.4287 39.4455 39.474 39.4003C40.0171 38.9929 40.5376 38.4724 41.0355 37.884C42.3028 36.3677 43.3212 34.3536 43.7059 32.5205C43.7059 32.4979 43.7059 32.4752 43.7286 32.4526C43.7512 32.2942 43.7965 32.1358 43.8191 32V31.9321C43.8417 31.8416 43.8417 31.7511 43.8417 31.6832C43.8417 31.6379 43.9096 31.0948 43.9775 30.2122V30.1216C44.0228 30.0537 44.0228 29.9859 44.0228 29.8953Z" fill="url(#paint0_linear_4024_72345)"/>
<defs>
<linearGradient id="paint0_linear_4024_72345" x1="23.1585" y1="0" x2="23.1585" y2="47.9961" gradientUnits="userSpaceOnUse">
<stop offset="0.398" stop-color="#1466AC"/>
<stop offset="0.659" stop-color="#EF4058"/>
</linearGradient>
</defs>
</svg>
