<svg width="44" height="44" viewBox="0 0 44 44" fill="none" xmlns="http://www.w3.org/2000/svg">
<path d="M28.5477 0.571289L21.9992 12.1799L15.4505 0.571289L7.11914 5.48127L12.2963 14.6349C13.1535 16.143 14.7306 17.0898 16.4448 17.0898H27.5191C29.2334 17.0898 30.8106 16.143 31.6678 14.6349L36.8791 5.48127L28.5477 0.571289Z" fill="#4FA2F0"/>
<path d="M43.4266 17.0898H33.0723C31.358 17.0898 29.7809 18.0367 28.9238 19.5448L23.3694 29.3648C22.5123 30.8728 22.5123 32.7667 23.3694 34.2747L28.5466 43.4284L36.8438 38.5184L30.3294 26.9098H43.4266V17.0898Z" fill="#004A90"/>
<path d="M20.6275 29.3648L15.0732 19.5448C14.2161 18.0367 12.6389 17.0898 10.9246 17.0898H0.570312V26.9098H13.6675L7.11889 38.5184L15.4161 43.4284L20.5932 34.2747C21.4846 32.7667 21.4846 30.9079 20.6275 29.3648Z" fill="#D43333"/>
</svg>
