<svg width="55" height="48" viewBox="0 0 55 48" fill="none" xmlns="http://www.w3.org/2000/svg">
<path fill-rule="evenodd" clip-rule="evenodd" d="M14.2086 13.7273C14.2086 22.8182 14.2394 27.4545 14.2995 27.4545C14.3495 27.4545 14.3904 27.5364 14.3904 27.6364C14.3904 27.7364 14.4314 27.8182 14.4814 27.8182C14.5314 27.8182 14.5723 27.891 14.5723 27.9799C14.5723 28.0689 14.6541 28.2006 14.7541 28.2727C14.8541 28.3448 14.9359 28.4765 14.9359 28.5655C14.9359 28.66 15.0032 28.7273 15.0976 28.7273C15.1866 28.7273 15.3184 28.8091 15.3904 28.9091C15.4625 29.0091 15.5943 29.0909 15.6833 29.0909C15.7722 29.0909 15.845 29.1318 15.845 29.1818C15.845 29.2318 15.9268 29.2727 16.0268 29.2727C16.1268 29.2727 16.2086 29.3136 16.2086 29.3636C16.2086 29.4231 17.8147 29.4545 20.845 29.4545H25.4814V32.1818C25.4814 33.6818 25.5026 34.9091 25.5286 34.9091C25.5546 34.9091 26.3106 34.1727 27.2086 33.2727C28.1066 32.3727 28.8871 31.6364 28.9431 31.6364C28.999 31.6364 29.1594 31.5136 29.2995 31.3636C29.4396 31.2136 29.6107 31.0909 29.6795 31.0909C29.7484 31.0909 29.8638 31.0091 29.9359 30.9091C30.008 30.8091 30.1397 30.7273 30.2287 30.7273C30.3176 30.7273 30.3904 30.6864 30.3904 30.6364C30.3904 30.5864 30.4723 30.5455 30.5723 30.5455C30.6723 30.5455 30.7541 30.5045 30.7541 30.4545C30.7541 30.4045 30.8359 30.3636 30.9359 30.3636C31.0359 30.3636 31.1177 30.3227 31.1177 30.2727C31.1177 30.2227 31.1995 30.1818 31.2995 30.1818C31.3995 30.1818 31.4814 30.1409 31.4814 30.0909C31.4814 30.0409 31.6041 30 31.7541 30C31.9041 30 32.0268 29.9591 32.0268 29.9091C32.0268 29.8591 32.1904 29.8182 32.3904 29.8182C32.5905 29.8182 32.7541 29.7773 32.7541 29.7273C32.7541 29.6767 32.9965 29.6364 33.2995 29.6364C33.6025 29.6364 33.845 29.596 33.845 29.5455C33.845 29.4869 34.7844 29.4545 36.4814 29.4545C38.1784 29.4545 39.1177 29.4222 39.1177 29.3636C39.1177 29.3136 39.1995 29.2727 39.2995 29.2727C39.3995 29.2727 39.4814 29.2318 39.4814 29.1818C39.4814 29.1318 39.5542 29.0909 39.6431 29.0909C39.7321 29.0909 39.8638 29.0091 39.9359 28.9091C40.008 28.8091 40.1397 28.7273 40.2287 28.7273C40.3232 28.7273 40.3904 28.66 40.3904 28.5655C40.3904 28.4765 40.4723 28.3448 40.5723 28.2727C40.6723 28.2006 40.7541 28.0689 40.7541 27.9799C40.7541 27.891 40.795 27.8182 40.845 27.8182C40.895 27.8182 40.9359 27.7364 40.9359 27.6364C40.9359 27.5364 40.9768 27.4545 41.0268 27.4545C41.087 27.4545 41.1177 22.8182 41.1177 13.7273V0H27.6632H14.2086V13.7273ZM39.2995 14.3636C39.2995 22.5455 39.2688 26.7273 39.2086 26.7273C39.1586 26.7273 39.1177 26.7905 39.1177 26.8677C39.1177 26.945 39.0173 27.1086 38.8945 27.2314C38.7718 27.3541 38.6082 27.4545 38.5309 27.4545C38.4536 27.4545 38.3904 27.4955 38.3904 27.5455C38.3904 27.6041 37.3904 27.6364 35.5723 27.6364C33.7541 27.6364 32.7541 27.6686 32.7541 27.7273C32.7541 27.7773 32.5495 27.8182 32.2995 27.8182C32.0495 27.8182 31.845 27.8591 31.845 27.9091C31.845 27.9591 31.7223 28 31.5723 28C31.4223 28 31.2995 28.0409 31.2995 28.0909C31.2995 28.1409 31.1768 28.1818 31.0268 28.1818C30.8768 28.1818 30.7541 28.2227 30.7541 28.2727C30.7541 28.3227 30.6723 28.3636 30.5723 28.3636C30.4723 28.3636 30.3904 28.4045 30.3904 28.4545C30.3904 28.5045 30.3176 28.5455 30.2287 28.5455C30.1397 28.5455 30.008 28.6273 29.9359 28.7273C29.8638 28.8273 29.7321 28.9091 29.6431 28.9091C29.5542 28.9091 29.4814 28.95 29.4814 29C29.4814 29.05 29.416 29.0909 29.336 29.0909C29.2561 29.0909 29.076 29.2136 28.9359 29.3636C28.7958 29.5136 28.6342 29.6364 28.5769 29.6364C28.5195 29.6364 28.1902 29.9227 27.845 30.2727C27.4998 30.6227 27.195 30.9091 27.1675 30.9091C27.1402 30.9091 27.1177 30.1727 27.1177 29.2727V27.6364H22.0268C18.6934 27.6364 16.9359 27.605 16.9359 27.5455C16.9359 27.4955 16.8727 27.4545 16.7954 27.4545C16.6135 27.4545 16.2086 27.0496 16.2086 26.8677C16.2086 26.7905 16.1677 26.7273 16.1177 26.7273C16.0575 26.7273 16.0268 22.5455 16.0268 14.3636V2H27.6632H39.2995V14.3636ZM4.75408 38.6364C4.75408 38.6864 4.63136 38.7273 4.48136 38.7273C4.33136 38.7273 4.20863 38.7682 4.20863 38.8182C4.20863 38.8682 4.0949 38.9091 3.95599 38.9091C3.80763 38.9091 3.64927 38.9842 3.57227 39.0909C3.50017 39.1909 3.38481 39.2727 3.3159 39.2727C3.24708 39.2727 3.07599 39.3955 2.9359 39.5455C2.79581 39.6955 2.65663 39.8182 2.62672 39.8182C2.59672 39.8182 2.57227 39.5727 2.57227 39.2727V38.7273H1.57227H0.572266V43.2727V47.8182H1.57227H2.57227V44.5885V41.3588L2.97899 40.9522C3.20263 40.7285 3.44808 40.5455 3.52445 40.5455C3.60072 40.5455 3.66317 40.5045 3.66317 40.4545C3.66317 40.4045 3.7859 40.3636 3.9359 40.3636C4.0859 40.3636 4.20863 40.3227 4.20863 40.2727C4.20863 40.2227 4.37227 40.1818 4.57227 40.1818C4.77227 40.1818 4.9359 40.2227 4.9359 40.2727C4.9359 40.3227 5.03954 40.3636 5.16617 40.3636C5.52627 40.3636 6.02681 40.917 6.02681 41.3152C6.02681 41.4918 6.06772 41.6364 6.11772 41.6364C6.17654 41.6364 6.20863 42.7273 6.20863 44.7273V47.8182H7.11772H8.02681V44.5879V41.3575L8.34199 41.0425C8.51527 40.8691 8.71981 40.7273 8.79654 40.7273C8.87317 40.7273 8.9359 40.6864 8.9359 40.6364C8.9359 40.5864 9.01772 40.5455 9.11772 40.5455C9.21772 40.5455 9.29954 40.5045 9.29954 40.4545C9.29954 40.4045 9.42227 40.3636 9.57227 40.3636C9.72227 40.3636 9.84499 40.3227 9.84499 40.2727C9.84499 40.2227 10.0086 40.1818 10.2086 40.1818C10.4086 40.1818 10.5723 40.2227 10.5723 40.2727C10.5723 40.3227 10.6541 40.3636 10.7541 40.3636C10.8541 40.3636 10.9359 40.4045 10.9359 40.4545C10.9359 40.5045 11.0177 40.5455 11.1177 40.5455C11.2389 40.5455 11.2995 40.6061 11.2995 40.7273C11.2995 40.8273 11.3404 40.9091 11.3904 40.9091C11.4404 40.9091 11.4814 40.9909 11.4814 41.0909C11.4814 41.1909 11.5223 41.2727 11.5723 41.2727C11.6312 41.2727 11.6632 42.4243 11.6632 44.5455V47.8182H12.5723H13.4814V43.9091C13.4814 41.3636 13.4496 40 13.3904 40C13.3404 40 13.2995 39.9182 13.2995 39.8182C13.2995 39.7182 13.2586 39.6364 13.2086 39.6364C13.1586 39.6364 13.1177 39.5732 13.1177 39.4959C13.1177 39.314 12.7128 38.9091 12.5309 38.9091C12.4536 38.9091 12.3904 38.8682 12.3904 38.8182C12.3904 38.7682 12.2677 38.7273 12.1177 38.7273C11.9677 38.7273 11.845 38.6864 11.845 38.6364C11.845 38.5825 11.5116 38.5455 11.0268 38.5455C10.542 38.5455 10.2086 38.5825 10.2086 38.6364C10.2086 38.6864 10.0859 38.7273 9.9359 38.7273C9.7859 38.7273 9.66317 38.7682 9.66317 38.8182C9.66317 38.8682 9.58136 38.9091 9.48136 38.9091C9.38136 38.9091 9.29954 38.95 9.29954 39C9.29954 39.05 9.22672 39.0909 9.13781 39.0909C9.04881 39.0909 8.91708 39.1727 8.84499 39.2727C8.7729 39.3727 8.65872 39.4545 8.59117 39.4545C8.42472 39.4545 8.20863 39.6819 8.20863 39.8572C8.20863 39.9357 8.14436 40 8.06581 40C7.90099 40 7.66318 39.7873 7.66318 39.6398C7.66318 39.4885 7.05299 38.9091 6.89345 38.9091C6.81681 38.9091 6.75408 38.8682 6.75408 38.8182C6.75408 38.7682 6.63136 38.7273 6.48136 38.7273C6.33136 38.7273 6.20863 38.6864 6.20863 38.6364C6.20863 38.5834 5.90563 38.5455 5.48136 38.5455C5.05708 38.5455 4.75408 38.5834 4.75408 38.6364ZM19.2995 38.6364C19.2995 38.6864 19.1359 38.7273 18.9359 38.7273C18.7359 38.7273 18.5723 38.7682 18.5723 38.8182C18.5723 38.8682 18.4495 38.9091 18.2995 38.9091C18.1495 38.9091 18.0268 38.95 18.0268 39C18.0268 39.05 17.9614 39.0909 17.8814 39.0909C17.8015 39.0909 17.6214 39.2136 17.4814 39.3636C17.3413 39.5136 17.1787 39.6364 17.1202 39.6364C16.9829 39.6364 16.7541 39.8652 16.7541 40.0025C16.7541 40.061 16.6314 40.2235 16.4814 40.3636C16.3314 40.5037 16.2086 40.6838 16.2086 40.7637C16.2086 40.8437 16.1677 40.9091 16.1177 40.9091C16.0677 40.9091 16.0268 40.9909 16.0268 41.0909C16.0268 41.1909 15.9859 41.2727 15.9359 41.2727C15.8859 41.2727 15.845 41.4364 15.845 41.6364C15.845 41.8364 15.8041 42 15.7541 42C15.6978 42 15.6632 42.4848 15.6632 43.2727C15.6632 44.0606 15.6978 44.5455 15.7541 44.5455C15.8041 44.5455 15.845 44.6682 15.845 44.8182C15.845 44.9682 15.8859 45.0909 15.9359 45.0909C15.9859 45.0909 16.0268 45.2046 16.0268 45.3435C16.0268 45.4919 16.1019 45.6503 16.2086 45.7273C16.3086 45.7994 16.3904 45.9115 16.3904 45.9763C16.3904 46.1417 17.539 47.2727 17.7069 47.2727C17.7829 47.2727 17.845 47.3136 17.845 47.3636C17.845 47.4136 17.9268 47.4545 18.0268 47.4545C18.1268 47.4545 18.2086 47.4955 18.2086 47.5455C18.2086 47.5955 18.2904 47.6364 18.3904 47.6364C18.4904 47.6364 18.5723 47.6773 18.5723 47.7273C18.5723 47.7773 18.7768 47.8182 19.0268 47.8182C19.2768 47.8182 19.4814 47.8591 19.4814 47.9091C19.4814 47.9621 19.7844 48 20.2086 48C20.6329 48 20.9359 47.9621 20.9359 47.9091C20.9359 47.8591 21.1404 47.8182 21.3904 47.8182C21.6404 47.8182 21.845 47.7773 21.845 47.7273C21.845 47.6773 21.9268 47.6364 22.0268 47.6364C22.1268 47.6364 22.2086 47.5955 22.2086 47.5455C22.2086 47.4955 22.2904 47.4545 22.3904 47.4545C22.4904 47.4545 22.5723 47.4136 22.5723 47.3636C22.5723 47.3136 22.6451 47.2727 22.734 47.2727C22.823 47.2727 22.9547 47.1909 23.0268 47.0909C23.0989 46.9909 23.2131 46.9091 23.2806 46.9091C23.4315 46.9091 23.6632 46.6875 23.6632 46.543C23.6632 46.4845 23.7859 46.3219 23.9359 46.1818C24.0859 46.0417 24.2086 45.8616 24.2086 45.7817C24.2086 45.7017 24.2495 45.6364 24.2995 45.6364C24.3495 45.6364 24.3904 45.5136 24.3904 45.3636C24.3904 45.2136 24.4314 45.0909 24.4814 45.0909C24.5314 45.0909 24.5723 44.9682 24.5723 44.8182C24.5723 44.6682 24.6132 44.5455 24.6632 44.5455C24.7194 44.5455 24.7541 44.0606 24.7541 43.2727C24.7541 42.4848 24.7194 42 24.6632 42C24.6132 42 24.5723 41.8364 24.5723 41.6364C24.5723 41.4364 24.5314 41.2727 24.4814 41.2727C24.4314 41.2727 24.3904 41.1909 24.3904 41.0909C24.3904 40.9909 24.3495 40.9091 24.2995 40.9091C24.2495 40.9091 24.2086 40.8363 24.2086 40.7474C24.2086 40.6584 24.1268 40.5266 24.0268 40.4545C23.9268 40.3825 23.845 40.2693 23.845 40.2031C23.845 40.0555 23.438 39.6364 23.2947 39.6364C23.2374 39.6364 23.076 39.5136 22.9359 39.3636C22.7958 39.2136 22.6157 39.0909 22.5358 39.0909C22.4558 39.0909 22.3904 39.05 22.3904 39C22.3904 38.95 22.2677 38.9091 22.1177 38.9091C21.9677 38.9091 21.845 38.8682 21.845 38.8182C21.845 38.7682 21.6814 38.7273 21.4814 38.7273C21.2814 38.7273 21.1177 38.6864 21.1177 38.6364C21.1177 38.5818 20.7541 38.5455 20.2086 38.5455C19.6632 38.5455 19.2995 38.5818 19.2995 38.6364ZM28.9359 38.6364C28.9359 38.6864 28.7723 38.7273 28.5723 38.7273C28.3723 38.7273 28.2086 38.7682 28.2086 38.8182C28.2086 38.8682 28.1268 38.9091 28.0268 38.9091C27.9268 38.9091 27.845 38.95 27.845 39C27.845 39.05 27.7827 39.0909 27.7066 39.0909C27.6305 39.0909 27.3442 39.315 27.0703 39.5889C26.7964 39.8628 26.5723 40.1492 26.5723 40.2253C26.5723 40.3014 26.5314 40.3636 26.4814 40.3636C26.4268 40.3636 26.3904 40.7273 26.3904 41.2727C26.3904 41.8182 26.4268 42.1818 26.4814 42.1818C26.5314 42.1818 26.5723 42.2443 26.5723 42.3205C26.5723 42.501 27.344 43.2727 27.5244 43.2727C27.6007 43.2727 27.6632 43.3136 27.6632 43.3636C27.6632 43.4136 27.745 43.4545 27.845 43.4545C27.945 43.4545 28.0268 43.4955 28.0268 43.5455C28.0268 43.5955 28.1495 43.6364 28.2995 43.6364C28.4495 43.6364 28.5723 43.6773 28.5723 43.7273C28.5723 43.7773 28.7359 43.8182 28.9359 43.8182C29.1359 43.8182 29.2995 43.8591 29.2995 43.9091C29.2995 43.9591 29.4632 44 29.6632 44C29.8632 44 30.0268 44.0409 30.0268 44.0909C30.0268 44.1409 30.1904 44.1818 30.3904 44.1818C30.5904 44.1818 30.7541 44.2227 30.7541 44.2727C30.7541 44.3227 30.8577 44.3636 30.9844 44.3636C31.3206 44.3636 31.845 44.9172 31.845 45.2721C31.845 45.6915 31.1468 46.3636 30.711 46.3636C30.5347 46.3636 30.3904 46.4045 30.3904 46.4545C30.3904 46.5045 30.1859 46.5455 29.9359 46.5455C29.6859 46.5455 29.4814 46.5045 29.4814 46.4545C29.4814 46.4045 29.3177 46.3636 29.1177 46.3636C28.9177 46.3636 28.7541 46.3227 28.7541 46.2727C28.7541 46.2227 28.6723 46.1818 28.5723 46.1818C28.4723 46.1818 28.3904 46.1409 28.3904 46.0909C28.3904 46.0409 28.2767 46 28.1378 46C27.9894 46 27.8311 45.9249 27.7541 45.8182C27.682 45.7182 27.5593 45.6364 27.4814 45.6364C27.4034 45.6364 27.2807 45.5545 27.2086 45.4545C27.1365 45.3545 27.0048 45.2727 26.9158 45.2727C26.8147 45.2727 26.7541 45.3408 26.7541 45.4545C26.7541 45.5545 26.7132 45.6364 26.6632 45.6364C26.6132 45.6364 26.5723 45.7092 26.5723 45.7981C26.5723 45.8871 26.4904 46.0188 26.3904 46.0909C26.2904 46.163 26.2086 46.2947 26.2086 46.3837C26.2086 46.4726 26.1677 46.5455 26.1177 46.5455C26.0677 46.5455 26.0268 46.5864 26.0268 46.6364C26.0268 46.6864 26.0922 46.7273 26.1722 46.7273C26.2521 46.7273 26.4322 46.85 26.5723 47C26.7124 47.15 26.8924 47.2727 26.9724 47.2727C27.0524 47.2727 27.1177 47.3136 27.1177 47.3636C27.1177 47.4136 27.1995 47.4545 27.2995 47.4545C27.3995 47.4545 27.4814 47.4955 27.4814 47.5455C27.4814 47.5955 27.6041 47.6364 27.7541 47.6364C27.9041 47.6364 28.0268 47.6773 28.0268 47.7273C28.0268 47.7773 28.2314 47.8182 28.4814 47.8182C28.7314 47.8182 28.9359 47.8591 28.9359 47.9091C28.9359 47.9636 29.2995 48 29.845 48C30.3904 48 30.7541 47.9636 30.7541 47.9091C30.7541 47.8591 30.9586 47.8182 31.2086 47.8182C31.4586 47.8182 31.6632 47.7773 31.6632 47.7273C31.6632 47.6773 31.745 47.6364 31.845 47.6364C31.945 47.6364 32.0268 47.5955 32.0268 47.5455C32.0268 47.4955 32.1086 47.4545 32.2086 47.4545C32.3086 47.4545 32.3904 47.4136 32.3904 47.3636C32.3904 47.3136 32.4532 47.2727 32.5298 47.2727C32.7108 47.2727 33.2995 46.684 33.2995 46.503C33.2995 46.4264 33.3405 46.3636 33.3904 46.3636C33.4404 46.3636 33.4814 46.2409 33.4814 46.0909C33.4814 45.9409 33.5223 45.8182 33.5723 45.8182C33.6242 45.8182 33.6632 45.5455 33.6632 45.1818C33.6632 44.8182 33.6242 44.5455 33.5723 44.5455C33.5223 44.5455 33.4814 44.4227 33.4814 44.2727C33.4814 44.1227 33.4404 44 33.3904 44C33.3405 44 33.2995 43.9373 33.2995 43.8606C33.2995 43.6796 32.7108 43.0909 32.5298 43.0909C32.4532 43.0909 32.3904 43.05 32.3904 43C32.3904 42.95 32.3086 42.9091 32.2086 42.9091C32.1086 42.9091 32.0268 42.8682 32.0268 42.8182C32.0268 42.7682 31.9041 42.7273 31.7541 42.7273C31.6041 42.7273 31.4814 42.6864 31.4814 42.6364C31.4814 42.5864 31.3586 42.5455 31.2086 42.5455C31.0586 42.5455 30.9359 42.5045 30.9359 42.4545C30.9359 42.4045 30.7314 42.3636 30.4814 42.3636C30.2314 42.3636 30.0268 42.3227 30.0268 42.2727C30.0268 42.2227 29.8632 42.1818 29.6632 42.1818C29.4632 42.1818 29.2995 42.1409 29.2995 42.0909C29.2995 42.0409 29.1959 42 29.0693 42C28.732 42 28.2086 41.4465 28.2086 41.0898C28.2086 40.7875 28.5512 40.3636 28.7954 40.3636C28.8727 40.3636 28.9359 40.3227 28.9359 40.2727C28.9359 40.2227 29.0586 40.1818 29.2086 40.1818C29.3586 40.1818 29.4814 40.1409 29.4814 40.0909C29.4814 40.0409 29.6859 40 29.9359 40C30.1859 40 30.3904 40.0409 30.3904 40.0909C30.3904 40.1409 30.5541 40.1818 30.7541 40.1818C30.9541 40.1818 31.1177 40.2227 31.1177 40.2727C31.1177 40.3227 31.2404 40.3636 31.3904 40.3636C31.5404 40.3636 31.6632 40.4045 31.6632 40.4545C31.6632 40.5045 31.7285 40.5455 31.8085 40.5455C31.8884 40.5455 32.0714 40.6713 32.215 40.825L32.4761 41.1045L32.706 40.8745C32.8325 40.7481 32.9359 40.5814 32.9359 40.5041C32.9359 40.4268 32.9768 40.3636 33.0268 40.3636C33.0768 40.3636 33.1177 40.2818 33.1177 40.1818C33.1177 40.0818 33.1586 40 33.2086 40C33.3436 40 33.3186 39.7334 33.1696 39.5845C33.0983 39.513 32.9845 39.4545 32.917 39.4545C32.8494 39.4545 32.7353 39.3727 32.6632 39.2727C32.5911 39.1727 32.4594 39.0909 32.3704 39.0909C32.2814 39.0909 32.2086 39.05 32.2086 39C32.2086 38.95 32.0859 38.9091 31.9359 38.9091C31.7859 38.9091 31.6632 38.8682 31.6632 38.8182C31.6632 38.7682 31.4995 38.7273 31.2995 38.7273C31.0995 38.7273 30.9359 38.6864 30.9359 38.6364C30.9359 38.5813 30.542 38.5455 29.9359 38.5455C29.3298 38.5455 28.9359 38.5813 28.9359 38.6364ZM44.3904 38.6364C44.3904 38.6864 44.2677 38.7273 44.1177 38.7273C43.9677 38.7273 43.845 38.7682 43.845 38.8182C43.845 38.8682 43.7632 38.9091 43.6632 38.9091C43.5632 38.9091 43.4814 38.95 43.4814 39C43.4814 39.05 43.4174 39.0909 43.3391 39.0909C43.2608 39.0909 42.9976 39.2955 42.7541 39.5455C42.5105 39.7955 42.2883 40 42.26 40C42.2317 40 42.2086 39.7136 42.2086 39.3636V38.7273H41.2086H40.2086V43.2727V47.8182H41.2086H42.2086V44.6788V41.5394L42.5238 41.2243C42.6971 41.0509 42.9016 40.9091 42.9784 40.9091C43.055 40.9091 43.1177 40.8682 43.1177 40.8182C43.1177 40.7682 43.1995 40.7273 43.2995 40.7273C43.3995 40.7273 43.4814 40.6864 43.4814 40.6364C43.4814 40.5864 43.6041 40.5455 43.7541 40.5455C43.9041 40.5455 44.0268 40.5045 44.0268 40.4545C44.0268 40.404 44.2693 40.3636 44.5723 40.3636H45.1177V39.4545V38.5455H44.7541C44.5541 38.5455 44.3904 38.5864 44.3904 38.6364ZM46.7541 42.4545C46.7541 44.8788 46.7859 46.1818 46.845 46.1818C46.895 46.1818 46.9359 46.2955 46.9359 46.4345C46.9359 46.5828 47.011 46.7412 47.1177 46.8182C47.2177 46.8903 47.2995 47.0045 47.2995 47.072C47.2995 47.2385 47.5269 47.4545 47.7022 47.4545C47.7807 47.4545 47.845 47.4955 47.845 47.5455C47.845 47.5955 47.9268 47.6364 48.0268 47.6364C48.1268 47.6364 48.2086 47.6773 48.2086 47.7273C48.2086 47.7773 48.3314 47.8182 48.4814 47.8182C48.6314 47.8182 48.7541 47.8591 48.7541 47.9091C48.7541 47.963 49.0874 48 49.5723 48C50.0571 48 50.3904 47.963 50.3904 47.9091C50.3904 47.8591 50.5541 47.8182 50.7541 47.8182C50.9541 47.8182 51.1177 47.7773 51.1177 47.7273C51.1177 47.6773 51.1995 47.6364 51.2995 47.6364C51.3995 47.6364 51.4814 47.5955 51.4814 47.5455C51.4814 47.4955 51.5542 47.4545 51.6431 47.4545C51.7321 47.4545 51.8638 47.3727 51.9359 47.2727C52.008 47.1727 52.1307 47.0909 52.2086 47.0909C52.2865 47.0909 52.4093 47.0091 52.4814 46.9091C52.6938 46.6144 52.7541 46.6947 52.7541 47.2727V47.8182H53.7541H54.7541V43.2727V38.7273H53.7541H52.7541V41.9576V45.1879L52.4389 45.503C52.2656 45.6764 52.0611 45.8182 51.9844 45.8182C51.9077 45.8182 51.845 45.8591 51.845 45.9091C51.845 45.9591 51.7632 46 51.6632 46C51.5632 46 51.4814 46.0409 51.4814 46.0909C51.4814 46.1409 51.3177 46.1818 51.1177 46.1818C50.9177 46.1818 50.7541 46.2227 50.7541 46.2727C50.7541 46.3227 50.5905 46.3636 50.3904 46.3636C50.1904 46.3636 50.0268 46.3227 50.0268 46.2727C50.0268 46.2227 49.9041 46.1818 49.7541 46.1818C49.6041 46.1818 49.4814 46.1409 49.4814 46.0909C49.4814 46.0409 49.4171 46 49.3385 46C49.1548 46 48.9359 45.7811 48.9359 45.5974C48.9359 45.5188 48.895 45.4545 48.845 45.4545C48.795 45.4545 48.7541 45.3318 48.7541 45.1818C48.7541 45.0318 48.7132 44.9091 48.6632 44.9091C48.6044 44.9091 48.5723 43.8182 48.5723 41.8182V38.7273H47.6632H46.7541V42.4545ZM20.7541 40.2727C20.7541 40.3227 20.8768 40.3636 21.0268 40.3636C21.1768 40.3636 21.2995 40.4045 21.2995 40.4545C21.2995 40.5045 21.362 40.5455 21.4383 40.5455C21.6187 40.5455 22.3904 41.3172 22.3904 41.4976C22.3904 41.5739 22.4314 41.6364 22.4814 41.6364C22.5314 41.6364 22.5723 41.7591 22.5723 41.9091C22.5723 42.0591 22.6132 42.1818 22.6632 42.1818C22.7132 42.1818 22.7541 42.3455 22.7541 42.5455C22.7541 42.7455 22.795 42.9091 22.845 42.9091C22.895 42.9091 22.9359 43.0318 22.9359 43.1818C22.9359 43.3318 22.895 43.4545 22.845 43.4545C22.795 43.4545 22.7541 43.6591 22.7541 43.9091C22.7541 44.1591 22.7132 44.3636 22.6632 44.3636C22.6132 44.3636 22.5723 44.4774 22.5723 44.6163C22.5723 44.7646 22.4972 44.923 22.3904 45C22.2904 45.0721 22.2086 45.1853 22.2086 45.2515C22.2086 45.4174 21.7936 45.8182 21.6218 45.8182C21.5445 45.8182 21.4814 45.8591 21.4814 45.9091C21.4814 45.9591 21.3995 46 21.2995 46C21.1995 46 21.1177 46.0409 21.1177 46.0909C21.1177 46.1409 20.995 46.1818 20.845 46.1818C20.695 46.1818 20.5723 46.2227 20.5723 46.2727C20.5723 46.3227 20.4086 46.3636 20.2086 46.3636C20.0086 46.3636 19.845 46.3227 19.845 46.2727C19.845 46.2227 19.7223 46.1818 19.5723 46.1818C19.4223 46.1818 19.2995 46.1409 19.2995 46.0909C19.2995 46.0409 19.2177 46 19.1177 46C19.0177 46 18.9359 45.9591 18.9359 45.9091C18.9359 45.8591 18.8727 45.8182 18.7954 45.8182C18.6236 45.8182 18.2086 45.4174 18.2086 45.2515C18.2086 45.1853 18.1268 45.0721 18.0268 45C17.9201 44.923 17.845 44.7646 17.845 44.6163C17.845 44.4774 17.8041 44.3636 17.7541 44.3636C17.7041 44.3636 17.6632 44.1591 17.6632 43.9091C17.6632 43.6591 17.6223 43.4545 17.5723 43.4545C17.5223 43.4545 17.4814 43.3727 17.4814 43.2727C17.4814 43.1727 17.5223 43.0909 17.5723 43.0909C17.6223 43.0909 17.6632 42.8864 17.6632 42.6364C17.6632 42.3864 17.7041 42.1818 17.7541 42.1818C17.8041 42.1818 17.845 42.0591 17.845 41.9091C17.845 41.7591 17.8859 41.6364 17.9359 41.6364C17.9859 41.6364 18.0268 41.5739 18.0268 41.4976C18.0268 41.3172 18.7985 40.5455 18.979 40.5455C19.0553 40.5455 19.1177 40.5045 19.1177 40.4545C19.1177 40.4045 19.2404 40.3636 19.3904 40.3636C19.5404 40.3636 19.6632 40.3227 19.6632 40.2727C19.6632 40.2222 19.9056 40.1818 20.2086 40.1818C20.5116 40.1818 20.7541 40.2222 20.7541 40.2727ZM35.7768 45.7764C35.5005 46.0657 35.4814 46.1274 35.4814 46.7288C35.4814 47.2904 35.5096 47.4002 35.7045 47.595C35.8273 47.7177 36.0318 47.8182 36.1591 47.8182C36.2864 47.8182 36.3904 47.8591 36.3904 47.9091C36.3904 47.9591 36.5132 48 36.6632 48C36.8132 48 36.9359 47.9591 36.9359 47.9091C36.9359 47.8591 37.0411 47.8182 37.1696 47.8182C37.4327 47.8182 37.6632 47.6302 37.6632 47.4155C37.6632 47.337 37.7041 47.2727 37.7541 47.2727C37.8055 47.2727 37.845 47.0142 37.845 46.6788C37.845 46.1223 37.8251 46.065 37.5298 45.7697C37.2351 45.4749 37.1777 45.4549 36.6434 45.4608C36.1159 45.4665 36.0497 45.4907 35.7768 45.7764Z" fill="#EA221D"/>
</svg>
