<svg width="35" height="56" viewBox="0 0 35 56" fill="none" xmlns="http://www.w3.org/2000/svg">
<path fill-rule="evenodd" clip-rule="evenodd" d="M0.716031 18.0945H8.57631V0.571809H5.62825V0.572225L5.62797 0.571289L0.714844 5.43929L0.716031 5.44042V18.0945ZM6.61112 2.5189V16.1475H2.68118V6.41278L6.61112 2.5189ZM31.1745 0.572266V0.578391L28.2274 3.49929V0.572266H25.2794L20.3671 5.43964V18.095H22.332V6.41345L26.2623 2.51936V18.095H28.2274V6.41345L32.157 2.51936V18.095H34.1222V0.572266H31.1745ZM10.5412 0.572261H18.4011V18.0949H10.5412V0.572261ZM16.4361 2.51925H12.506V16.1481H16.4361V2.51925ZM0.716736 21.9901H34.1223V20.043H0.716736V21.9901ZM0.716736 33.6713V23.9366H14.4721V31.7246H2.68189V33.6713H0.716736ZM2.68189 29.7775H12.507V25.8837H2.68189V29.7775ZM16.4374 23.9365V31.7244H24.2978V33.6712H26.2626V31.7244H34.1228V23.9365H16.4374ZM18.4023 25.8836H24.2974V29.7774H18.4023V25.8836ZM32.1576 29.7774H26.2626V25.8836H32.1576V29.7774ZM0.715627 39.1875L0.715627 41.1522L33.8066 41.1522V39.1875H0.715627ZM4.24584 55.4284H0.714851V46.669H6.54952V48.1942H2.4374V49.9653H4.24584C6.01746 49.9653 7.10666 51.0985 7.10666 52.697C7.10666 54.297 6.02962 55.4284 4.24584 55.4284ZM4.15928 51.4917H2.4374V53.9038H4.15928C4.92701 53.9038 5.38519 53.4239 5.38519 52.697C5.38519 51.9842 4.92701 51.4917 4.15928 51.4917ZM13.9484 53.879L14.4693 55.4284H16.265L13.0443 46.669H11.6943L8.48614 55.4284H10.2813L10.8146 53.879H13.9484ZM11.2976 52.439L12.4126 49.2528L13.4898 52.439H11.2976ZM22.7784 55.4284V51.7614H19.7934V55.4284H18.0722V46.669H19.7934V50.2485H22.7784V46.669H24.5012V55.4284H22.7784ZM27.1992 46.6689V55.4284H28.9203V50.8515L32.0184 55.4284H34.1234L30.8657 50.7788L33.8272 46.6689H31.7701L28.9203 50.8276V46.6689H27.1992Z" fill="#1E2321"/>
</svg>
