<svg width="20" height="26" viewBox="0 0 20 26" fill="none" xmlns="http://www.w3.org/2000/svg">
<path d="M10 25.8599C8.19563 24.3208 6.52313 22.6335 5 20.8156C2.71429 18.0856 1.25556e-06 14.0199 1.25556e-06 10.1456C-0.000990028 8.16701 0.585013 6.23256 1.68385 4.58711C2.78268 2.94165 4.34496 1.65915 6.17296 0.901922C8.00095 0.144692 10.0125 -0.053232 11.953 0.333199C13.8935 0.71963 15.6758 1.67304 17.0743 3.07278C18.0054 3.99972 18.7434 5.10212 19.2456 6.31617C19.7478 7.53023 20.0042 8.83183 20 10.1456C20 14.0199 17.2857 18.0856 15 20.8156C13.4769 22.6335 11.8044 24.3208 10 25.8599ZM10 5.85993C8.86336 5.85993 7.77327 6.31145 6.96954 7.11518C6.16582 7.91891 5.71429 9.009 5.71429 10.1456C5.71429 11.2823 6.16582 12.3724 6.96954 13.1761C7.77327 13.9798 8.86336 14.4314 10 14.4314C11.1366 14.4314 12.2267 13.9798 13.0305 13.1761C13.8342 12.3724 14.2857 11.2823 14.2857 10.1456C14.2857 9.009 13.8342 7.91891 13.0305 7.11518C12.2267 6.31145 11.1366 5.85993 10 5.85993Z" fill="#8BC540"/>
</svg>
