<svg width="16" height="16" viewBox="0 0 16 16" fill="none" xmlns="http://www.w3.org/2000/svg">
<path d="M10.2043 13.878H12.4085C12.7982 13.878 13.172 13.7232 13.4476 13.4476C13.7232 13.172 13.878 12.7982 13.878 12.4085V10.2043C13.878 10.0094 13.9554 9.82252 14.0932 9.68473C14.231 9.54694 14.4179 9.46953 14.6127 9.46953C14.8076 9.46953 14.9945 9.54694 15.1323 9.68473C15.2701 9.82252 15.3475 10.0094 15.3475 10.2043V12.4085C15.3475 13.188 15.0378 13.9355 14.4867 14.4867C13.9355 15.0378 13.188 15.3475 12.4085 15.3475H3.59157C2.8121 15.3475 2.06456 15.0378 1.5134 14.4867C0.96223 13.9355 0.652588 13.188 0.652588 12.4085V10.2043C0.652588 10.0094 0.729998 9.82252 0.86779 9.68473C1.00558 9.54694 1.19247 9.46953 1.38733 9.46953C1.5822 9.46953 1.76909 9.54694 1.90688 9.68473C2.04467 9.82252 2.12208 10.0094 2.12208 10.2043V12.4085C2.12208 12.7982 2.2769 13.172 2.55248 13.4476C2.82806 13.7232 3.20184 13.878 3.59157 13.878H5.7958C5.99067 13.878 6.17756 13.9554 6.31535 14.0932C6.45314 14.231 6.53055 14.4179 6.53055 14.6127C6.53055 14.8076 6.45314 14.9945 6.31535 15.1323C6.17756 15.2701 5.99067 15.3475 5.7958 15.3475H10.2043C10.0094 15.3475 9.82252 15.2701 9.68473 15.1323C9.54694 14.9945 9.46953 14.8076 9.46953 14.6127C9.46953 14.4179 9.54694 14.231 9.68473 14.0932C9.82252 13.9554 10.0094 13.878 10.2043 13.878ZM2.12208 5.7958C2.12208 5.99067 2.04467 6.17756 1.90688 6.31535C1.76909 6.45314 1.5822 6.53055 1.38733 6.53055C1.19247 6.53055 1.00558 6.45314 0.86779 6.31535C0.729998 6.17756 0.652588 5.99067 0.652588 5.7958V3.59157C0.652588 2.8121 0.96223 2.06456 1.5134 1.5134C2.06456 0.96223 2.8121 0.652588 3.59157 0.652588H5.7958C5.99067 0.652588 6.17756 0.729998 6.31535 0.86779C6.45314 1.00558 6.53055 1.19247 6.53055 1.38733C6.53055 1.5822 6.45314 1.76909 6.31535 1.90688C6.17756 2.04467 5.99067 2.12208 5.7958 2.12208H3.59157C3.20184 2.12208 2.82806 2.2769 2.55248 2.55248C2.2769 2.82806 2.12208 3.20184 2.12208 3.59157V5.7958ZM13.878 5.7958V3.59157C13.878 3.20184 13.7232 2.82806 13.4476 2.55248C13.172 2.2769 12.7982 2.12208 12.4085 2.12208H10.2043C10.0094 2.12208 9.82252 2.04467 9.68473 1.90688C9.54694 1.76909 9.46953 1.5822 9.46953 1.38733C9.46953 1.19247 9.54694 1.00558 9.68473 0.86779C9.82252 0.729998 10.0094 0.652588 10.2043 0.652588H12.4085C13.188 0.652588 13.9355 0.96223 14.4867 1.5134C15.0378 2.06456 15.3475 2.8121 15.3475 3.59157V5.7958C15.3475 5.99067 15.2701 6.17756 15.1323 6.31535C14.9945 6.45314 14.8076 6.53055 14.6127 6.53055C14.4179 6.53055 14.231 6.45314 14.0932 6.31535C13.9554 6.17756 13.878 5.99067 13.878 5.7958Z" fill="#686D82"/>
<rect x="3.31836" y="3.672" width="3.84276" height="3.84276" rx="1" fill="#686D82"/>
</svg>
