<svg width="92" height="93" viewBox="0 0 92 93" fill="none" xmlns="http://www.w3.org/2000/svg">
<path d="M0 63.6546C0 58.1484 0 55.3953 1.05455 53.2849C2.02249 51.3477 3.59308 49.7771 5.53021 48.8092C7.64071 47.7546 10.3938 47.7546 15.9 47.7546H27.6V92.0819H15.9C10.3938 92.0819 7.64071 92.0819 5.53021 91.0274C3.59308 90.0594 2.02249 88.4888 1.05455 86.5517C0 84.4412 0 81.6881 0 76.1819V63.6546Z" fill="url(#paint0_linear)"/>
<path d="M19.2364 38.5638C19.2364 33.0576 19.2364 30.3045 20.2909 28.194C21.2588 26.2569 22.8294 24.6863 24.7666 23.7184C26.8771 22.6638 29.6302 22.6638 35.1364 22.6638H46.8273C52.3335 22.6638 55.0866 22.6638 57.1971 23.7184C59.1342 24.6863 60.7048 26.2569 61.6727 28.194C62.7273 30.3045 62.7273 33.0576 62.7273 38.5638V76.182C62.7273 81.6882 62.7273 84.4413 61.6727 86.5518C60.7048 88.4889 59.1342 90.0595 57.1971 91.0274C55.0866 92.082 52.3335 92.082 46.8273 92.082H35.1363C29.6302 92.082 26.8771 92.082 24.7666 91.0274C22.8294 90.0595 21.2588 88.4889 20.2909 86.5518C19.2364 84.4413 19.2364 81.6882 19.2364 76.182V38.5638Z" fill="url(#paint1_linear)"/>
<g filter="url(#filter0_bii)">
<path d="M42.6545 16.8182C42.6545 11.312 42.6545 8.55892 43.7091 6.44843C44.677 4.51129 46.2476 2.9407 48.1847 1.97277C50.2952 0.918213 53.0483 0.918213 58.5545 0.918213H76.1C81.6062 0.918213 84.3593 0.918213 86.4697 1.97277C88.4069 2.9407 89.9775 4.51129 90.9454 6.44843C92 8.55892 92 11.312 92 16.8182V76.1818C92 81.688 92 84.4411 90.9454 86.5516C89.9775 88.4888 88.4069 90.0594 86.4697 91.0273C84.3593 92.0818 81.6062 92.0818 76.1 92.0818H58.5545C53.0483 92.0818 50.2952 92.0818 48.1847 91.0273C46.2476 90.0594 44.677 88.4888 43.7091 86.5516C42.6545 84.4411 42.6545 81.688 42.6545 76.1818V16.8182Z" fill="url(#paint2_linear)" fill-opacity="0.5"/>
</g>
<defs>
<filter id="filter0_bii" x="32.6545" y="-9.08179" width="69.3455" height="111.164" filterUnits="userSpaceOnUse" color-interpolation-filters="sRGB">
<feFlood flood-opacity="0" result="BackgroundImageFix"/>
<feGaussianBlur in="BackgroundImage" stdDeviation="5"/>
<feComposite in2="SourceAlpha" operator="in" result="effect1_backgroundBlur"/>
<feBlend mode="normal" in="SourceGraphic" in2="effect1_backgroundBlur" result="shape"/>
<feColorMatrix in="SourceAlpha" type="matrix" values="0 0 0 0 0 0 0 0 0 0 0 0 0 0 0 0 0 0 127 0" result="hardAlpha"/>
<feOffset/>
<feGaussianBlur stdDeviation="5"/>
<feComposite in2="hardAlpha" operator="arithmetic" k2="-1" k3="1"/>
<feColorMatrix type="matrix" values="0 0 0 0 1 0 0 0 0 1 0 0 0 0 1 0 0 0 0.65 0"/>
<feBlend mode="normal" in2="shape" result="effect2_innerShadow"/>
<feColorMatrix in="SourceAlpha" type="matrix" values="0 0 0 0 0 0 0 0 0 0 0 0 0 0 0 0 0 0 127 0" result="hardAlpha"/>
<feOffset dy="1"/>
<feGaussianBlur stdDeviation="1.5"/>
<feComposite in2="hardAlpha" operator="arithmetic" k2="-1" k3="1"/>
<feColorMatrix type="matrix" values="0 0 0 0 1 0 0 0 0 1 0 0 0 0 1 0 0 0 0.8 0"/>
<feBlend mode="normal" in2="effect2_innerShadow" result="effect3_innerShadow"/>
</filter>
<linearGradient id="paint0_linear" x1="0" y1="74.4517" x2="30.4552" y2="74.4517" gradientUnits="userSpaceOnUse">
<stop stop-color="#8DEA33"/>
<stop offset="1" stop-color="#6CBE1C"/>
</linearGradient>
<linearGradient id="paint1_linear" x1="19.2364" y1="64.4725" x2="67.2263" y2="64.4725" gradientUnits="userSpaceOnUse">
<stop stop-color="#8DEA33"/>
<stop offset="1" stop-color="#6CBE1C"/>
</linearGradient>
<linearGradient id="paint2_linear" x1="42.6545" y1="55.8236" x2="97.1047" y2="55.8236" gradientUnits="userSpaceOnUse">
<stop stop-color="#8DEA33"/>
<stop offset="0.436866" stop-color="#7FD72B"/>
<stop offset="1" stop-color="#6EBE21"/>
</linearGradient>
</defs>
</svg>
