<svg width="109" height="102" viewBox="0 0 109 102" fill="none" xmlns="http://www.w3.org/2000/svg">
<path d="M53.2031 29.9509C53.2031 27.2562 54.4338 24.7092 56.5449 23.0345L75.4203 8.06188C78.6337 5.51289 83.1795 5.51289 86.3929 8.06188L105.268 23.0345C107.379 24.7091 108.61 27.2562 108.61 29.9509V92.7675C108.61 97.6431 104.658 101.596 99.782 101.596H62.0312C57.1556 101.596 53.2031 97.6431 53.2031 92.7675V29.9509Z" fill="#FF7F7F"/>
<g filter="url(#filter0_i)">
<path d="M66.8547 87.4819V72.2053C66.8547 71.9133 66.9823 71.636 67.2039 71.446L80.8485 59.7507C81.223 59.4297 81.7756 59.4297 82.1501 59.7507L95.7946 71.446C96.0162 71.636 96.1438 71.9133 96.1438 72.2053V87.4819C96.1438 88.0342 95.6961 88.4819 95.1438 88.4819H67.8547C67.3025 88.4819 66.8547 88.0342 66.8547 87.4819Z" fill="#F47575"/>
</g>
<g filter="url(#filter1_d)">
<path fill-rule="evenodd" clip-rule="evenodd" d="M93.5174 13.7132C94.3164 15.2971 94.6423 17.1266 94.3677 18.9813L90.8387 42.8142C90.444 45.4798 88.8535 47.8191 86.5198 49.1665L53.2031 68.4019V29.9508C53.2031 27.2562 54.4338 24.7091 56.5449 23.0345L75.4203 8.06182C76.9117 6.87877 78.6901 6.2448 80.4891 6.15991L87.4811 8.925L93.5174 13.7132Z" fill="#FF7F7F" fill-opacity="0.5" shape-rendering="crispEdges"/>
</g>
<g filter="url(#filter2_bii)">
<path d="M58.8163 1.18275C61.1499 -0.164564 63.9711 -0.372304 66.4769 0.618662L88.8813 9.47891C92.6955 10.9873 94.9684 14.924 94.3676 18.9814L90.8386 42.8143C90.4439 45.4799 88.8534 47.8193 86.5198 49.1666L32.119 80.5749C27.8966 83.0127 22.4974 81.566 20.0596 77.3436L1.18421 44.6504C-1.25359 40.428 0.19311 35.0289 4.41551 32.5911L58.8163 1.18275Z" fill="#FF7F7F" fill-opacity="0.5"/>
</g>
<g filter="url(#filter3_d)">
<rect width="57.0229" height="9.91702" rx="4.95851" transform="matrix(-0.866025 0.5 0.5 0.866025 58.7058 12.1213)" fill="#F1F2F4" fill-opacity="0.5" shape-rendering="crispEdges"/>
</g>
<g filter="url(#filter4_d)">
<rect width="39.6681" height="9.91702" rx="4.95851" transform="matrix(-0.866025 0.5 0.5 0.866025 51.363 34.9688)" fill="#F1F2F4" fill-opacity="0.5" shape-rendering="crispEdges"/>
</g>
<circle cx="80.9069" cy="20.3319" r="7.38759" fill="#F1F2F4"/>
<defs>
<filter id="filter0_i" x="66.8547" y="59.51" width="30.2891" height="29.972" filterUnits="userSpaceOnUse" color-interpolation-filters="sRGB">
<feFlood flood-opacity="0" result="BackgroundImageFix"/>
<feBlend mode="normal" in="SourceGraphic" in2="BackgroundImageFix" result="shape"/>
<feColorMatrix in="SourceAlpha" type="matrix" values="0 0 0 0 0 0 0 0 0 0 0 0 0 0 0 0 0 0 127 0" result="hardAlpha"/>
<feOffset dx="1" dy="1"/>
<feGaussianBlur stdDeviation="1"/>
<feComposite in2="hardAlpha" operator="arithmetic" k2="-1" k3="1"/>
<feColorMatrix type="matrix" values="0 0 0 0 0 0 0 0 0 0 0 0 0 0 0 0 0 0 0.06 0"/>
<feBlend mode="normal" in2="shape" result="effect1_innerShadow"/>
</filter>
<filter id="filter1_d" x="47.2031" y="6.15991" width="59.2603" height="80.2419" filterUnits="userSpaceOnUse" color-interpolation-filters="sRGB">
<feFlood flood-opacity="0" result="BackgroundImageFix"/>
<feColorMatrix in="SourceAlpha" type="matrix" values="0 0 0 0 0 0 0 0 0 0 0 0 0 0 0 0 0 0 127 0" result="hardAlpha"/>
<feOffset dx="3" dy="9"/>
<feGaussianBlur stdDeviation="4.5"/>
<feComposite in2="hardAlpha" operator="out"/>
<feColorMatrix type="matrix" values="0 0 0 0 0.858218 0 0 0 0 0.358025 0 0 0 0 0.358025 0 0 0 0.5 0"/>
<feBlend mode="normal" in2="BackgroundImageFix" result="effect1_dropShadow"/>
<feBlend mode="normal" in="SourceGraphic" in2="effect1_dropShadow" result="shape"/>
</filter>
<filter id="filter2_bii" x="-10" y="-10" width="114.463" height="101.759" filterUnits="userSpaceOnUse" color-interpolation-filters="sRGB">
<feFlood flood-opacity="0" result="BackgroundImageFix"/>
<feGaussianBlur in="BackgroundImage" stdDeviation="5"/>
<feComposite in2="SourceAlpha" operator="in" result="effect1_backgroundBlur"/>
<feBlend mode="normal" in="SourceGraphic" in2="effect1_backgroundBlur" result="shape"/>
<feColorMatrix in="SourceAlpha" type="matrix" values="0 0 0 0 0 0 0 0 0 0 0 0 0 0 0 0 0 0 127 0" result="hardAlpha"/>
<feOffset/>
<feGaussianBlur stdDeviation="5"/>
<feComposite in2="hardAlpha" operator="arithmetic" k2="-1" k3="1"/>
<feColorMatrix type="matrix" values="0 0 0 0 1 0 0 0 0 1 0 0 0 0 1 0 0 0 0.65 0"/>
<feBlend mode="normal" in2="shape" result="effect2_innerShadow"/>
<feColorMatrix in="SourceAlpha" type="matrix" values="0 0 0 0 0 0 0 0 0 0 0 0 0 0 0 0 0 0 127 0" result="hardAlpha"/>
<feOffset dy="1"/>
<feGaussianBlur stdDeviation="1.5"/>
<feComposite in2="hardAlpha" operator="arithmetic" k2="-1" k3="1"/>
<feColorMatrix type="matrix" values="0 0 0 0 1 0 0 0 0 1 0 0 0 0 1 0 0 0 0.8 0"/>
<feBlend mode="normal" in2="effect2_innerShadow" result="effect3_innerShadow"/>
</filter>
<filter id="filter3_d" x="8.13666" y="12.9355" width="56.7135" height="39.4716" filterUnits="userSpaceOnUse" color-interpolation-filters="sRGB">
<feFlood flood-opacity="0" result="BackgroundImageFix"/>
<feColorMatrix in="SourceAlpha" type="matrix" values="0 0 0 0 0 0 0 0 0 0 0 0 0 0 0 0 0 0 127 0" result="hardAlpha"/>
<feOffset dy="2"/>
<feGaussianBlur stdDeviation="1.5"/>
<feComposite in2="hardAlpha" operator="out"/>
<feColorMatrix type="matrix" values="0 0 0 0 0 0 0 0 0 0 0 0 0 0 0 0 0 0 0.1 0"/>
<feBlend mode="color-burn" in2="BackgroundImageFix" result="effect1_dropShadow"/>
<feBlend mode="normal" in="SourceGraphic" in2="effect1_dropShadow" result="shape"/>
</filter>
<filter id="filter4_d" x="15.8236" y="35.783" width="41.6838" height="30.7942" filterUnits="userSpaceOnUse" color-interpolation-filters="sRGB">
<feFlood flood-opacity="0" result="BackgroundImageFix"/>
<feColorMatrix in="SourceAlpha" type="matrix" values="0 0 0 0 0 0 0 0 0 0 0 0 0 0 0 0 0 0 127 0" result="hardAlpha"/>
<feOffset dy="2"/>
<feGaussianBlur stdDeviation="1.5"/>
<feComposite in2="hardAlpha" operator="out"/>
<feColorMatrix type="matrix" values="0 0 0 0 0 0 0 0 0 0 0 0 0 0 0 0 0 0 0.1 0"/>
<feBlend mode="color-burn" in2="BackgroundImageFix" result="effect1_dropShadow"/>
<feBlend mode="normal" in="SourceGraphic" in2="effect1_dropShadow" result="shape"/>
</filter>
</defs>
</svg>
