<svg width="99" height="82" viewBox="0 0 99 82" fill="none" baseProfile="full" xmlns="http://www.w3.org/2000/svg" xmlns:xlink="http://www.w3.org/1999/xlink" xmlns:ev="http://www.w3.org/2001/xml-events" >
<path opacity="0.8" d="M56.0813 -4.37114e-07C61.6041 -1.95702e-07 66.0812 4.47715 66.0812 10L66.0812 36.8842C66.0812 42.407 61.6041 46.8842 56.0812 46.8842L10.2439 46.8842C4.72104 46.8842 0.243895 42.407 0.243895 36.8842L0.243896 10C0.243896 4.47715 4.72105 -2.68214e-06 10.2439 -2.44073e-06L56.0813 -4.37114e-07Z" fill="url(#paint0_linear)"/>
<path d="M73.0394 7.98047C78.5622 7.98047 83.0394 12.4576 83.0394 17.9805L83.0394 55.8375C83.0394 61.3604 78.5622 65.8375 73.0394 65.8375L16.2291 65.8375C10.7063 65.8375 6.22912 61.3604 6.22912 55.8375L6.22912 17.9805C6.22912 12.4576 10.7063 7.98047 16.2291 7.98047L73.0394 7.98047Z" fill="url(#paint1_linear)"/>
<g filter="url(#filter0_bii)">
<path d="M89 18.9536C94.5228 18.9536 99 23.4308 99 28.9536L99 71.7984C99 77.3212 94.5228 81.7984 89 81.7984L25.207 81.7984C19.6842 81.7984 15.207 77.3212 15.207 71.7984L15.207 28.9536C15.207 23.4308 19.6842 18.9536 25.207 18.9536L89 18.9536Z" fill="url(#paint2_radial)" fill-opacity="0.5"/>
</g>
<g opacity="0.5" filter="url(#filter1_d)">
<path d="M70.5593 48.2765C72.5593 49.4312 72.5593 52.3179 70.5593 53.4726L49.6332 65.5543C47.6332 66.709 45.1332 65.2656 45.1332 62.9562L45.1332 38.7929C45.1332 36.4835 47.6332 35.0401 49.6332 36.1948L70.5593 48.2765Z" fill="white"/>
</g>
<defs>
<filter id="filter0_bii" x="5.20701" y="8.95361" width="103.793" height="82.8448" filterUnits="userSpaceOnUse" color-interpolation-filters="sRGB">
<feFlood flood-opacity="0" result="BackgroundImageFix"/>
<feGaussianBlur in="BackgroundImage" stdDeviation="5"/>
<feComposite in2="SourceAlpha" operator="in" result="effect1_backgroundBlur"/>
<feBlend mode="normal" in="SourceGraphic" in2="effect1_backgroundBlur" result="shape"/>
<feColorMatrix in="SourceAlpha" type="matrix" values="0 0 0 0 0 0 0 0 0 0 0 0 0 0 0 0 0 0 127 0" result="hardAlpha"/>
<feOffset/>
<feGaussianBlur stdDeviation="5"/>
<feComposite in2="hardAlpha" operator="arithmetic" k2="-1" k3="1"/>
<feColorMatrix type="matrix" values="0 0 0 0 1 0 0 0 0 1 0 0 0 0 1 0 0 0 0.65 0"/>
<feBlend mode="normal" in2="shape" result="effect2_innerShadow"/>
<feColorMatrix in="SourceAlpha" type="matrix" values="0 0 0 0 0 0 0 0 0 0 0 0 0 0 0 0 0 0 127 0" result="hardAlpha"/>
<feOffset dy="1"/>
<feGaussianBlur stdDeviation="1.5"/>
<feComposite in2="hardAlpha" operator="arithmetic" k2="-1" k3="1"/>
<feColorMatrix type="matrix" values="0 0 0 0 1 0 0 0 0 0.992173 0 0 0 0 0.992173 0 0 0 0.8 0"/>
<feBlend mode="normal" in2="effect2_innerShadow" result="effect3_innerShadow"/>
</filter>
<filter id="filter1_d" x="42.1332" y="34.7883" width="32.9261" height="36.1723" filterUnits="userSpaceOnUse" color-interpolation-filters="sRGB">
<feFlood flood-opacity="0" result="BackgroundImageFix"/>
<feColorMatrix in="SourceAlpha" type="matrix" values="0 0 0 0 0 0 0 0 0 0 0 0 0 0 0 0 0 0 127 0" result="hardAlpha"/>
<feOffset dy="2"/>
<feGaussianBlur stdDeviation="1.5"/>
<feComposite in2="hardAlpha" operator="out"/>
<feColorMatrix type="matrix" values="0 0 0 0 0 0 0 0 0 0 0 0 0 0 0 0 0 0 0.1 0"/>
<feBlend mode="color-burn" in2="BackgroundImageFix" result="effect1_dropShadow"/>
<feBlend mode="normal" in="SourceGraphic" in2="effect1_dropShadow" result="shape"/>
</filter>
<linearGradient id="paint0_linear" x1="26.4292" y1="-1.73325e-06" x2="26.4292" y2="51.7343" gradientUnits="userSpaceOnUse">
<stop stop-color="#716FFF"/>
<stop offset="1" stop-color="#9C9AFF"/>
</linearGradient>
<linearGradient id="paint1_linear" x1="36.7786" y1="7.98047" x2="36.7786" y2="57.5564" gradientUnits="userSpaceOnUse">
<stop stop-color="#7270FF"/>
<stop offset="1" stop-color="#9C9AFF"/>
</linearGradient>
<radialGradient id="paint2_radial" cx="0" cy="0" r="1" gradientUnits="userSpaceOnUse" gradientTransform="translate(19.6421 23.1098) rotate(37.6476) scale(96.372 318.127)">
<stop stop-color="white"/>
<stop offset="0.358739" stop-color="#8C8BFF"/>
<stop offset="1" stop-color="#716FFF"/>
</radialGradient>
</defs>
</svg>
