<svg width="56" height="58" viewBox="0 0 56 58" fill="none" xmlns="http://www.w3.org/2000/svg">
<path d="M0 19.5342C0 13.377 4.47941 8.13483 10.5613 7.17453L46.2265 1.54319C51.0083 0.788161 55.1072 4.97403 54.252 9.73896L47.5333 47.1714C46.4631 53.1341 41.2752 57.4737 35.2173 57.4737H12.5128C5.60218 57.4737 0 51.8715 0 44.9609V19.5342Z" fill="url(#paint0_linear)"/>
<path d="M13.0051 20.2336H10.1397V17.7436H8.78831V24H10.1397V21.5099H13.0051V24H14.3565V17.7436H13.0051V20.2336ZM20.8796 18.632C20.3666 17.9313 19.6408 17.5809 18.6899 17.5809C17.8265 17.5809 17.1007 17.8937 16.4876 18.5319C15.8745 19.1701 15.5742 19.9458 15.5742 20.8718C15.5742 21.7852 15.8745 22.5735 16.4876 23.2117C17.1007 23.8498 17.8265 24.1627 18.6899 24.1627C19.6408 24.1627 20.3666 23.8123 20.8796 23.0991V24H22.231V17.7436H20.8796V18.632ZM17.4886 22.3108C17.1132 21.9229 16.9256 21.4474 16.9256 20.8718C16.9256 20.2962 17.1132 19.8207 17.4886 19.4453C17.864 19.0574 18.3395 18.8697 18.9026 18.8697C19.4657 18.8697 19.9411 19.0574 20.3165 19.4453C20.6919 19.8207 20.8796 20.2962 20.8796 20.8718C20.8796 21.4474 20.6919 21.9229 20.3165 22.3108C19.9411 22.6862 19.4657 22.8738 18.9026 22.8738C18.3395 22.8738 17.864 22.6862 17.4886 22.3108ZM31.2137 22.7237H28.8613V17.7436H27.5099V22.7237H25.1575V17.7436H23.8061V24H32.5651V17.7436H31.2137V22.7237ZM34.945 22.2732C34.4069 22.2732 34.0065 22.6987 34.0065 23.2117C34.0065 23.7247 34.432 24.1502 34.945 24.1502C35.458 24.1502 35.8835 23.7247 35.8835 23.2117C35.8835 22.6987 35.458 22.2732 34.945 22.2732ZM14.2939 27.7436H9.52656V30.4589C9.52656 31.4224 9.33887 32.1856 8.95097 32.7237H8.18769V35.6767H9.51405V34H13.8059V35.6767H15.1323V32.7237H14.2939V27.7436ZM10.44 32.7237C10.7153 32.1106 10.8529 31.3473 10.8529 30.4589V28.9824H12.9676V32.7237H10.44ZM18.9386 34.1627C19.8646 34.1627 20.6404 33.8498 21.2785 33.2117C21.9167 32.5735 22.242 31.7977 22.242 30.8718C22.242 29.9458 21.9167 29.1701 21.2785 28.5319C20.6404 27.8937 19.8646 27.5809 18.9386 27.5809C18.0252 27.5809 17.2369 27.8937 16.5988 28.5319C15.9606 29.1701 15.6353 29.9458 15.6353 30.8718C15.6353 31.7977 15.9606 32.5735 16.5988 33.2117C17.2369 33.8498 18.0252 34.1627 18.9386 34.1627ZM17.5497 32.2857C17.1743 31.9104 16.9866 31.4349 16.9866 30.8718C16.9866 30.3087 17.1743 29.8332 17.5497 29.4578C17.9251 29.0825 18.3881 28.8948 18.9386 28.8948C19.4892 28.8948 19.9522 29.0825 20.3276 29.4578C20.703 29.8332 20.8906 30.3087 20.8906 30.8718C20.8906 31.4349 20.703 31.9104 20.3276 32.2857C19.9522 32.6611 19.4892 32.8488 18.9386 32.8488C18.3881 32.8488 17.9251 32.6611 17.5497 32.2857ZM28.4691 27.7436L26.6548 30.6341L24.8404 27.7436H23.464V34H24.7778V29.8958L26.5672 32.7487H26.7298L28.5317 29.8833V34H29.8455V27.7436H28.4691ZM32.22 32.2732C31.682 32.2732 31.2816 32.6987 31.2816 33.2117C31.2816 33.7247 31.707 34.1502 32.22 34.1502C32.7331 34.1502 33.1585 33.7247 33.1585 33.2117C33.1585 32.6987 32.7331 32.2732 32.22 32.2732ZM12.3294 37.5809C11.3785 37.5809 10.6527 37.9313 10.1397 38.6445V37.7436H8.78831V46.5026H10.1397V43.1116C10.6527 43.8123 11.3785 44.1627 12.3294 44.1627C13.1928 44.1627 13.9186 43.8498 14.5317 43.2117C15.1448 42.5735 15.4451 41.7977 15.4451 40.8718C15.4451 39.9584 15.1448 39.1826 14.5317 38.5444C13.9186 37.9063 13.1928 37.5809 12.3294 37.5809ZM10.7028 42.3108C10.3274 41.9229 10.1397 41.4474 10.1397 40.8718C10.1397 40.2962 10.3274 39.8207 10.7028 39.4453C11.0782 39.0574 11.5536 38.8697 12.1167 38.8697C12.6798 38.8697 13.1553 39.0574 13.5307 39.4453C13.9061 39.8207 14.0937 40.2962 14.0937 40.8718C14.0937 41.4474 13.9061 41.9229 13.5307 42.3108C13.1553 42.6862 12.6798 42.8738 12.1167 42.8738C11.5536 42.8738 11.0782 42.6862 10.7028 42.3108ZM20.7991 44.1126C21.7626 43.9875 22.5384 43.6246 23.1015 43.0365C23.6646 42.4484 23.9524 41.7227 23.9524 40.8718C23.9524 40.0209 23.6646 39.2952 23.1015 38.7071C22.5384 38.119 21.7626 37.7561 20.7991 37.631V35.241H19.4728V37.631C18.5093 37.7561 17.7335 38.119 17.1704 38.7071C16.6074 39.2952 16.3196 40.0209 16.3196 40.8718C16.3196 41.7227 16.6074 42.4484 17.1704 43.0365C17.7335 43.6246 18.5093 43.9875 19.4728 44.1126V46.5026H20.7991V44.1126ZM20.7991 38.9198C21.9503 39.1325 22.6135 39.8708 22.6135 40.8718C22.6135 41.8728 21.9503 42.6111 20.7991 42.8238V38.9198ZM19.4728 42.8238C18.3216 42.6111 17.6584 41.8603 17.6584 40.8718C17.6584 39.8833 18.3216 39.1325 19.4728 38.9198V42.8238Z" fill="white"/>
<defs>
<linearGradient id="paint0_linear" x1="1.58581" y1="10.2171" x2="49.4333" y2="53.1156" gradientUnits="userSpaceOnUse">
<stop stop-color="#6AC9FE"/>
<stop offset="1" stop-color="#2EB9E4"/>
</linearGradient>
</defs>
</svg>
