<svg width="56" height="56" viewBox="0 0 56 56" fill="none" xmlns="http://www.w3.org/2000/svg">
<circle cx="28" cy="28" r="28" fill="#A3D562"/>
<path fill-rule="evenodd" clip-rule="evenodd" d="M27.1192 27.1735H24.0048V15.7325H27.1192V27.1735ZM28.8197 28.8044H22.3032V14.1035H28.8197V28.8044ZM41.8188 32.0296H14.1201V30.4053H41.8188V32.0296ZM15.8154 38.3763H23.8217V35.2756H15.8154V38.3763ZM14.1201 41.8388H15.8154V39.9986H25.5174V33.6518H14.1201V41.8388ZM35.303 28.8042V15.7325L32.1888 18.994V28.8042H30.4861V18.3765L34.6144 14.1035H37.0035V16.6356L39.4293 14.1035H41.8195V28.8042H40.1173V15.7338L37.0035 18.9934V28.8042H35.303ZM28.8717 38.3763H33.5956V35.2756H28.8717V38.3763ZM35.3643 38.3763H40.1241V35.2756H35.3643V38.3763ZM27.1756 39.9986H33.5958V41.8388H35.3643V39.9986H41.8192V33.6518H27.1756V39.9986ZM18.9355 15.7338L15.8223 18.994V27.1737H18.9355V15.7338ZM20.6372 28.8042H18.9355H14.1201V18.3765L18.248 14.1035H20.6372V28.8042Z" fill="white"/>
</svg>
