<svg width="56" height="56" viewBox="0 0 56 56" fill="none" xmlns="http://www.w3.org/2000/svg">
<path d="M25.3195 26.6485C26.1268 26.0683 27.0997 25.7637 28.0938 25.7801C29.0879 25.7965 30.0502 26.1329 30.838 26.7394L51.7496 42.8381C46.8005 50.7422 38.0141 56 28 56C18.0494 56 9.31157 50.8094 4.34562 42.9887L25.1751 26.7556L25.3195 26.6485ZM28 0C43.4641 0 56 12.5359 56 28C56 31.3631 55.407 34.5881 54.32 37.5754L46.9268 31.9461V24.2076L46.9243 24.0769C46.8907 23.3608 46.5826 22.6852 46.064 22.1904C45.5454 21.6955 44.8561 21.4194 44.1392 21.4194L44.0073 21.4225C43.2902 21.4563 42.6134 21.764 42.1166 22.2823C41.6198 22.8005 41.3409 23.4897 41.3374 24.2076L41.3199 27.6764L31.6089 20.2807L31.4677 20.1774C29.6433 18.9075 26.5894 18.9417 24.3924 20.2807L1.68002 37.5754C0.564909 34.5062 -0.00369168 31.2654 1.80356e-05 28C1.80356e-05 12.5359 12.5359 0 28 0Z" fill="url(#paint0_linear)"/>
<defs>
<linearGradient id="paint0_linear" x1="8.97344" y1="47.4118" x2="48.0754" y2="7.83159" gradientUnits="userSpaceOnUse">
<stop stop-color="#8BC540"/>
<stop offset="1" stop-color="#00C5A3"/>
</linearGradient>
</defs>
</svg>
