<svg width="56" height="56" viewBox="0 0 56 56" fill="none" xmlns="http://www.w3.org/2000/svg">
<mask id="mask0" style="mask-type:alpha" maskUnits="userSpaceOnUse" x="0" y="0" width="56" height="56">
<rect width="56" height="56" rx="16" fill="#FED141"/>
</mask>
<g mask="url(#mask0)">
<rect width="56" height="56" rx="16" fill="#FED141"/>
<g clip-path="url(#clip0)">
<path fill-rule="evenodd" clip-rule="evenodd" d="M32.0157 67.8837C33.5967 69.6627 41.8358 77.0325 41.8358 77.0325C41.8358 77.0325 58.9296 83.8825 68.0843 85.0122C69.7608 85.2189 73.393 85.3533 74.5869 84.1651C75.3832 83.3727 74.6175 81.9709 72.2899 79.9596C74.6874 79.5128 75.8514 78.8748 75.782 78.0458C75.6778 76.8023 71.8404 75.2676 72.9642 75.7144C74.088 76.1613 75.8382 75.3924 75.8861 75.0441C76.058 73.7975 74.6403 72.6687 73.4137 72.3629C75.5098 73.1024 78.5677 72.3647 77.5586 70.3932C76.55 68.4213 72.7459 67.3879 70.2237 66.8519C61.9437 65.0928 56.562 67.519 49.8194 65.3202C49.8194 65.3202 36.7316 43.906 30.387 45.9116C24.0423 47.9164 18.9219 53.1527 32.0157 67.8837Z" fill="white" stroke="#1C1B28" stroke-width="2.56749" stroke-linecap="round" stroke-linejoin="round"/>
<path fill-rule="evenodd" clip-rule="evenodd" d="M19.116 53.9266L7.57172 101.123L51.5537 100.904L40.647 54.0411C39.5346 48.9868 35.0244 45.391 29.8227 45.4124C24.6998 45.4341 20.2651 48.9604 19.116 53.9266Z" fill="#FED141" stroke="#1C1B28" stroke-width="2.56749" stroke-linecap="round" stroke-linejoin="round"/>
<path fill-rule="evenodd" clip-rule="evenodd" d="M24.5537 47.6392C22.6911 48.3507 21.2848 49.8958 20.5823 51.7536C19.6369 54.2521 19.7034 56.9468 20.2488 59.5197C22.2416 68.9182 25.0766 78.1396 28.71 87.0391C29.604 89.2302 30.5808 91.4535 32.2303 93.1561C33.7545 94.7292 35.7551 95.7533 37.7688 96.6272C42.3341 98.6072 49.1442 99.9647 58.199 100.7C61.4731 101.438 63.3334 101.365 63.7798 100.478C64.2263 99.5918 62.8125 98.3361 59.5384 96.7111C63.259 98.3361 65.3425 98.4838 65.7889 97.1543C66.4587 95.1599 62.8761 93.5282 61.7707 93.1656C62.4306 93.4541 66.4586 95.1599 67.3516 93.1656C67.9469 91.836 66.8307 90.5803 64.0031 89.3984C66.8307 90.8757 68.4678 90.8019 68.9142 89.1768C69.5839 86.7393 64.5092 85.2519 62.2853 84.4264C54.6593 81.5961 50.9002 80.1943 44.8617 77.7242C43.9812 77.3636 43.3011 76.6412 42.9848 75.7479C41.9785 72.9041 40.7254 70.2156 39.8159 67.3109C38.0451 61.6596 35.9498 54.2152 31.9993 49.7886C30.5955 48.2155 28.8329 47.9881 26.8 47.4098C26.0881 47.2072 25.2905 47.3578 24.5537 47.6392Z" fill="white" stroke="#1C1B28" stroke-width="2.56749" stroke-linecap="round" stroke-linejoin="round"/>
<path d="M30.9277 43.4646C37.5443 43.4646 42.9082 38.1173 42.9082 31.521C42.9082 24.9248 37.5443 19.5775 30.9277 19.5775C24.3111 19.5775 18.9473 24.9248 18.9473 31.521C18.9473 38.1173 24.3111 43.4646 30.9277 43.4646Z" fill="white" stroke="#1C1B28" stroke-width="2.56749" stroke-linecap="round" stroke-linejoin="round"/>
<path fill-rule="evenodd" clip-rule="evenodd" d="M35.2904 13.9044C35.2904 17.3659 32.486 20.1726 29.0273 20.1726C25.5681 20.1726 22.7642 17.3659 22.7642 13.9044C22.7642 10.4428 25.5681 7.63611 29.0273 7.63611C32.486 7.63611 35.2904 10.4428 35.2904 13.9044Z" fill="#1C1B28"/>
<path fill-rule="evenodd" clip-rule="evenodd" d="M38.2028 20.745C43.8293 25.1895 31.5526 35.3176 26.4388 36.4915C29.2698 40.1684 30.7319 46.6142 29.9006 50.9545C29.0692 55.2958 26.6596 58.9615 22.8231 61.089C18.9866 63.217 13.0713 62.9647 9.81253 60.0135C6.92794 57.4019 5.51746 52.6451 7.05717 49.0549C8.16578 46.4686 10.7982 44.7181 11.9647 42.158C12.6942 40.5585 12.9869 38.7977 13.3081 37.0672C14.611 30.0388 18.2238 22.1628 24.7047 19.2852C32.8565 15.6658 38.2028 20.745 38.2028 20.745Z" fill="#1C1B28"/>
<path fill-rule="evenodd" clip-rule="evenodd" d="M41.5755 30.1213L43.0617 29.8376C44.011 29.6245 44.9511 30.2206 45.1625 31.1694C45.3736 32.1184 44.7747 33.0601 43.8257 33.273L41.5765 33.9394" fill="white"/>
<path d="M41.5755 30.1213L43.0617 29.8376C44.011 29.6245 44.9511 30.2206 45.1625 31.1694C45.3736 32.1184 44.7747 33.0601 43.8257 33.273L41.5765 33.9394" stroke="#1C1B28" stroke-width="2.56749" stroke-linecap="round" stroke-linejoin="round"/>
<path fill-rule="evenodd" clip-rule="evenodd" d="M40.7247 37.5136C39.8845 37.857 38.8623 37.699 38.1696 37.1184L40.7247 37.5136Z" fill="white"/>
<path d="M40.7247 37.5136C39.8845 37.857 38.8623 37.699 38.1696 37.1184" stroke="#1C1B28" stroke-width="2.56749" stroke-linecap="round" stroke-linejoin="round"/>
<path fill-rule="evenodd" clip-rule="evenodd" d="M39.951 30.4044C39.9558 31.304 39.2284 32.0499 38.3266 32.0701C37.4233 32.091 36.6885 31.3789 36.6836 30.4793C36.6788 29.5804 37.4062 28.8339 38.308 28.8137C39.2106 28.7928 39.9461 29.5048 39.951 30.4044Z" fill="#1C1B28"/>
</g>
</g>
<defs>
<clipPath id="clip0">
<rect width="197.697" height="165.02" fill="white" transform="matrix(-1 0 0 1 165.455 7.63635)"/>
</clipPath>
</defs>
</svg>
