<svg width="56" height="56" viewBox="0 0 56 56" fill="none" xmlns="http://www.w3.org/2000/svg">
<g clip-path="url(#clip0_2380_2080)">
<path fill-rule="evenodd" clip-rule="evenodd" d="M28 47.2889C38.653 47.2889 47.2889 38.653 47.2889 28C47.2889 20.5477 43.0649 14.0674 36.8399 10.8494C34.2013 9.48537 31.2038 8.71111 28 8.71111C17.347 8.71111 8.71111 17.347 8.71111 28C8.71111 31.7503 9.77273 35.2261 11.6079 38.1738C13.2513 40.8135 15.5165 43.0303 18.1936 44.6152C21.0601 46.3124 24.4028 47.2889 28 47.2889ZM28 56C43.464 56 56 43.464 56 28C56 17.1642 49.8449 7.76604 40.8402 3.11111C36.9941 1.1229 32.6282 0 28 0C12.536 0 0 12.536 0 28C0 33.4244 1.5425 38.4886 4.21281 42.7778C6.5946 46.6035 9.87365 49.8127 13.7557 52.1111C17.9288 54.5818 22.7988 56 28 56Z" fill="#B3EB6C"/>
<path fill-rule="evenodd" clip-rule="evenodd" d="M36.8427 10.8519C34.1986 9.48502 31.196 8.71111 28 8.71111V0C32.6204 0 36.9914 1.12254 40.843 3.11357C49.8368 7.76287 56 17.158 56 28C56 43.464 43.464 56 28 56V47.2889C38.653 47.2889 47.2889 38.653 47.2889 28C47.2889 20.5415 43.0568 14.0642 36.8427 10.8519Z" fill="#A3D562"/>
<path fill-rule="evenodd" clip-rule="evenodd" d="M27.8178 8.71111C17.2968 8.71111 8.71062 17.3153 8.71062 28H-0.000488281C-0.000488281 12.5678 12.4226 0 27.8178 0C32.4142 0 36.7611 1.12543 40.5896 3.1199L36.565 10.8455C33.9478 9.48212 30.9779 8.71111 27.8178 8.71111Z" fill="#2C4821"/>
</g>
<defs>
<clipPath id="clip0_2380_2080">
<rect width="56" height="56" fill="white"/>
</clipPath>
</defs>
</svg>
