<svg width="56" height="56" viewBox="0 0 56 56" fill="none" xmlns="http://www.w3.org/2000/svg">
<circle cx="28" cy="28" r="28" fill="#A7DD56"/>
<path fill-rule="evenodd" clip-rule="evenodd" d="M27.1192 27.1732H24.0048V15.7322H27.1192V27.1732ZM28.8197 28.8041H22.3032V14.1033H28.8197V28.8041ZM41.8188 32.0293H14.1201V30.4051H41.8188V32.0293ZM15.8154 38.376H23.8217V35.2754H15.8154V38.376ZM14.1201 41.8386H15.8154V39.9983H25.5174V33.6516H14.1201V41.8386ZM35.303 28.8039V15.7322L32.1888 18.9938V28.8039H30.4861V18.3763L34.6144 14.1033H37.0035V16.6353L39.4293 14.1033H41.8195V28.8039H40.1173V15.7335L37.0035 18.9931V28.8039H35.303ZM28.8717 38.376H33.5956V35.2754H28.8717V38.376ZM35.3643 38.376H40.1241V35.2754H35.3643V38.376ZM27.1756 39.9983H33.5958V41.8386H35.3643V39.9983H41.8192V33.6516H27.1756V39.9983ZM18.9355 15.7335L15.8223 18.9938V27.1735H18.9355V15.7335ZM20.6372 28.8039H18.9355H14.1201V18.3763L18.248 14.1033H20.6372V28.8039Z" fill="#131313"/>
</svg>
