<svg width="56" height="56" viewBox="0 0 56 56" fill="none" xmlns="http://www.w3.org/2000/svg">
<path d="M51 38.2857L36.7297 30.0612L8.83784 25L3 44.6122L15.973 56L49.0541 48.4082L51 38.2857Z" fill="#E8F9D3"/>
<path fill-rule="evenodd" clip-rule="evenodd" d="M13.5 18.871C13.5 10.9455 19.9804 4.5 28 4.5C36.0196 4.5 42.5 10.9455 42.5 18.871C42.5 24.2482 38.8275 30.1687 34.8482 34.9383C32.8949 37.2795 30.9373 39.2622 29.4665 40.6603C28.892 41.2064 28.3933 41.662 28 42.0133C27.6067 41.662 27.108 41.2064 26.5335 40.6603C25.0627 39.2622 23.1051 37.2795 21.1518 34.9383C17.1725 30.1687 13.5 24.2482 13.5 18.871ZM27.0436 45.1556C27.044 45.1559 27.0443 45.1561 28 44C28.9557 45.1561 28.956 45.1559 28.9564 45.1556L28 45.9461L27.0436 45.1556ZM27.0436 45.1556L28 44L28.9564 45.1556L28.9574 45.1547L28.9606 45.1521L28.9713 45.1432L29.0098 45.111C29.0428 45.0833 29.0906 45.043 29.1521 44.9907C29.2751 44.8859 29.4531 44.7328 29.6783 44.5347C30.1285 44.1386 30.7679 43.5624 31.5335 42.8347C33.0627 41.3809 35.1051 39.3132 37.1518 36.8601C41.1725 32.0409 45.5 25.397 45.5 18.871C45.5 9.26582 37.6535 1.5 28 1.5C18.3465 1.5 10.5 9.26582 10.5 18.871C10.5 25.397 14.8275 32.0409 18.8482 36.8601C20.8949 39.3132 22.9373 41.3809 24.4665 42.8347C25.2321 43.5624 25.8715 44.1386 26.3217 44.5347C26.5469 44.7328 26.7249 44.8859 26.8479 44.9907C26.9094 45.043 26.9572 45.0833 26.9902 45.111L27.0287 45.1432L27.0394 45.1521L27.0436 45.1556ZM28 26C31.866 26 35 22.866 35 19C35 15.134 31.866 12 28 12C24.134 12 21 15.134 21 19C21 22.866 24.134 26 28 26Z" fill="#A3D562"/>
</svg>
