<svg width="56" height="56" viewBox="0 0 56 56" fill="none" xmlns="http://www.w3.org/2000/svg">
<path fill-rule="evenodd" clip-rule="evenodd" d="M36.8672 20.1185C36.1167 19.4635 35.0376 19.4785 34.4184 19.6687C34.8239 19.1731 35.769 18.7664 36.0471 18.7172C36.2589 18.7963 36.8672 19.4182 36.8672 20.1185ZM39.2632 17.4065C38.7696 14.7786 32.6346 16.5201 29.5449 15.4039C29.4858 16.17 30.4961 17.3975 31.4626 17.8515C29.8107 19.2788 28.3277 22.1544 28.0281 25.6674C27.7298 22.1544 26.2466 19.2788 24.5948 17.8517C25.5611 17.3976 26.5724 16.1702 26.5123 15.4042C23.4227 16.5204 17.2875 14.7791 16.7931 17.407C16.6892 17.9634 16.958 18.8108 17.2483 19.0546C17.3003 18.8783 17.5715 18.3017 18.4268 18.1725C22.7491 17.5223 26.3579 24.1536 23.1003 26.8347C23.0507 26.8759 23.0788 26.9509 23.1458 26.9509H32.9123C32.9785 26.9509 33.0067 26.8758 32.9577 26.8349C29.6993 24.1539 33.3081 17.5227 37.6306 18.1728C38.4863 18.302 38.7569 18.8785 38.809 19.0548C39.0994 18.8109 39.368 17.9629 39.2632 17.4065ZM40.3146 11.3755C40.2368 11.1272 42.7714 11.1209 42.7714 12.7001C42.7714 13.7582 41.2552 14.2594 41.2552 15.3577C41.2552 15.8691 41.808 16.2441 41.9777 16.2441C41.5871 14.4812 43.2017 15.4039 43.6378 15.7334C42.7714 13.3625 44.7216 13.3773 44.5296 12.2902C44.3961 11.5307 42.7007 11.76 42.0873 11.3755C40.9985 10.6934 39.7104 8.03859 38.8617 10.6934C40.444 12.1556 39.5232 14.3082 37.5144 14.3082C37.5144 14.3082 37.5033 14.6237 37.5216 14.6488C39.9177 14.5321 40.7529 12.7791 40.3146 11.3755ZM12.3609 15.7334C12.7969 15.4039 14.4113 14.4812 14.0217 16.2441C14.1905 16.2441 14.7434 15.8691 14.7434 15.3577C14.7434 14.2594 13.2272 13.7582 13.2272 12.7001C13.2272 11.1209 15.7616 11.1272 15.684 11.3755C15.2464 12.7792 16.0816 14.5323 18.4776 14.6488C18.4953 14.6237 18.4842 14.308 18.4842 14.308C16.4762 14.308 15.5554 12.1556 17.1369 10.6932C16.2881 8.03859 15.0001 10.6932 13.9113 11.3753C13.2977 11.76 11.6023 11.5305 11.4689 12.2902C11.2778 13.3776 13.2272 13.3625 12.3609 15.7334ZM19.1641 20.1185C19.9153 19.4635 20.9948 19.4785 21.613 19.6687C21.2091 19.1731 20.2624 18.7664 19.9849 18.7172C19.7731 18.7963 19.1641 19.4182 19.1641 20.1185ZM29.168 5.41858L27.9995 4L26.8306 5.41858L27.9991 6.91131L29.168 5.41858ZM35.84 9.70778L35.0091 8.69978L34.1785 9.70778L35.0089 10.693L35.84 9.70778ZM42.5815 38.8475L41.5282 37.7377L40.4745 38.8474L41.5282 39.8211L42.5815 38.8475ZM21.8207 9.70778L20.9898 8.69978L20.1594 9.70778L20.99 10.693L21.8207 9.70778ZM19.4401 14.6489H22.5402C25.1466 14.6489 26.3193 13.0564 26.6737 11.6753H29.3257C29.6803 13.0564 30.8523 14.6488 33.4595 14.6488H36.5597C36.5597 14.6488 37.1019 13.9164 37.2379 13.5538C37.7275 12.2489 37.1019 11.6401 36.1891 11.6401L35.0089 12.7048L33.8291 11.6404C32.9163 11.6404 32.2906 12.2489 32.7802 13.5539C32.8428 13.7207 32.9924 13.9658 33.1341 14.1813C32.0341 14.0309 30.6298 13.2813 30.322 11.6753C30.322 11.6753 31.1347 10.3902 31.3389 9.87007C32.0717 7.99955 31.1357 7.23506 29.7668 7.23506L27.9996 9.3028L26.2324 7.23506C24.8636 7.23506 23.9277 7.99955 24.6613 9.87007C24.8644 10.3902 25.6781 11.6755 25.6781 11.6755C25.3694 13.2813 23.9655 14.0309 22.8654 14.1815C23.0078 13.9657 23.1568 13.7207 23.219 13.5538C23.7078 12.2489 23.0838 11.6402 22.1703 11.6402L20.9901 12.7049L19.81 11.6406C18.8967 11.6406 18.2727 12.249 18.7614 13.5541C18.8975 13.9166 19.4401 14.6489 19.4401 14.6489ZM51.4905 24.2142C50.8921 24.5157 47.3817 26.1526 42.8849 25.5471C42.9315 25.3336 42.971 25.1187 43.0034 24.9026C45.9963 24.5462 48.4291 24.0409 49.9795 23.1825C51.7467 22.2033 52.5195 19.8659 51.6275 18.1272C51.6043 18.0833 51.5403 18.0754 51.5083 18.1123C51.0194 18.6725 47.9459 22.0007 43.1034 23.0354C43.091 22.7856 43.0681 22.5365 43.0347 22.2887C45.3867 20.961 47.6827 19.4312 48.7765 18.0324C50.429 15.9176 50.2771 13.2198 48.7043 11.8444C48.6962 11.8375 48.6868 11.8323 48.6766 11.8294C48.6663 11.8264 48.6556 11.8256 48.645 11.8271C48.6345 11.8286 48.6244 11.8323 48.6154 11.838C48.6064 11.8436 48.5987 11.8512 48.5929 11.86C48.0954 12.6772 43.4377 20.1705 38.3242 23.4058C38.2619 23.4455 38.199 23.4843 38.1356 23.5224C37.9889 23.611 37.9728 23.8008 38.0975 23.9134C38.6874 24.4452 39.0537 25.1853 39.0537 26.0071C39.0537 27.4361 37.9474 28.6244 36.4848 28.8822C35.7417 29.0255 34.6691 28.9839 33.6385 28.6446C33.5921 28.6298 33.5441 28.6603 33.5441 28.7066V33.2315C33.5441 33.3044 33.6553 33.3225 33.6815 33.253C34.3081 31.6007 36.1833 31.2498 37.0034 31.2498C37.2985 33.0154 37.8257 34.4778 38.5104 35.265C39.6257 36.544 41.4467 36.5261 42.2362 35.6418C42.2426 35.6346 42.2473 35.626 42.2499 35.6167C42.2525 35.6074 42.253 35.5976 42.2513 35.5881C42.2496 35.5786 42.2457 35.5697 42.2401 35.5618C42.2344 35.554 42.227 35.5476 42.2185 35.543C41.7546 35.2777 39.1002 33.6553 38.5689 30.9969C38.7774 30.9264 38.9813 30.843 39.1793 30.747C40.0362 32.1585 41.2834 33.4156 42.2874 33.8958C43.974 34.701 45.5179 34.3094 46.2027 33.1305C46.2275 33.089 46.1971 33.0373 46.1467 33.0327C45.1035 32.9498 41.9019 32.0364 40.5387 29.8111C40.6963 29.6686 40.8469 29.5185 40.9899 29.3613C42.4166 30.4425 44.4333 31.3981 45.8773 31.5932C47.5669 31.8218 49.4812 31.2851 49.5276 29.3294C49.5284 29.2903 49.4932 29.2582 49.4515 29.2605C48.8506 29.2967 44.8741 29.4689 42.0404 27.8498C42.1389 27.6635 42.2307 27.4738 42.3157 27.2811C42.3157 27.2811 46.5973 28.2886 48.626 27.9549C50.642 27.6238 51.8228 26.1277 51.5949 24.2665C51.5883 24.2203 51.5338 24.1923 51.4905 24.2142ZM13.6834 27.2804C13.7686 27.4732 13.8606 27.663 13.9593 27.8493C11.1265 29.4676 7.15158 29.2967 6.54811 29.26C6.50574 29.2577 6.47032 29.2913 6.47131 29.3297C6.51848 31.2847 8.43219 31.8214 10.1218 31.5927C11.5651 31.3976 13.5827 30.442 15.009 29.361C15.1522 29.5179 15.3028 29.668 15.4602 29.8108C14.0963 32.0359 10.8952 32.9495 9.85216 33.0323C9.80168 33.0373 9.77222 33.0889 9.79622 33.1304C10.481 34.3092 12.0249 34.7009 13.7123 33.8957C14.7154 33.4154 15.9626 32.1583 16.8191 30.7468C17.0173 30.8425 17.2213 30.926 17.4299 30.9967C16.8986 33.6551 14.2442 35.2772 13.7802 35.543C13.7717 35.5476 13.7644 35.5541 13.7588 35.5619C13.7532 35.5697 13.7494 35.5787 13.7477 35.5882C13.746 35.5977 13.7464 35.6074 13.749 35.6167C13.7516 35.6259 13.7562 35.6345 13.7625 35.6418C14.552 36.5259 16.3737 36.5439 17.489 35.2648C18.1737 34.4776 18.7002 33.0152 18.9952 31.2496C19.8161 31.2496 21.6906 31.6006 22.3171 33.2526C22.3441 33.3223 22.4553 33.3042 22.4553 33.2312V28.7064C22.4553 28.6603 22.4065 28.6296 22.3601 28.6445C21.3298 28.9839 20.2569 29.0251 19.5145 28.8817C18.0514 28.6242 16.9449 27.4359 16.9449 26.0071C16.9449 25.1857 17.3123 24.4447 17.9009 23.913C18.0267 23.801 18.0097 23.6112 17.8642 23.5226C17.8002 23.4845 17.7368 23.4457 17.6738 23.4061C12.5633 20.1727 7.90833 12.6845 7.40648 11.862C7.40059 11.8529 7.39281 11.8452 7.38367 11.8393C7.37452 11.8335 7.36423 11.8296 7.35347 11.8281C7.34271 11.8265 7.33175 11.8273 7.3213 11.8303C7.31086 11.8333 7.30119 11.8385 7.29294 11.8455C5.72251 13.2218 5.5699 15.9184 7.22259 18.0328C8.31633 19.4316 10.6124 20.9614 12.9636 22.289C12.9304 22.5367 12.9078 22.7857 12.8957 23.0354C8.05713 22.0017 4.98596 18.6791 4.49239 18.115C4.45928 18.0764 4.3939 18.0842 4.37156 18.1282C3.48108 19.868 4.25404 22.2035 6.01945 23.1827C7.57001 24.0411 10.0029 24.5464 12.9957 24.9028C13.028 25.1188 13.0675 25.3338 13.114 25.5473C8.62187 26.152 5.11324 24.5189 4.5101 24.2151C4.46541 24.1923 4.41112 24.2205 4.40549 24.2674C4.17824 26.1286 5.35821 27.6231 7.3742 27.9544C9.40229 28.2881 13.6834 27.2804 13.6834 27.2804ZM41.5283 41.2504L39.9682 40.0285C39.3455 40.3976 38.888 40.9835 38.7102 41.6704C37.7717 41.801 35.2135 41.2354 35.4623 40.8603C38.2661 36.9345 36.1215 34.5971 33.5439 34.7272V37.3634C33.5439 38.2103 32.8016 38.8965 31.8871 38.8965H30.1071C28.8303 38.8965 27.9991 40.174 27.9991 40.174C27.9991 40.174 27.1679 38.8963 25.8911 38.8963H24.1113C23.196 38.8963 22.4553 38.2101 22.4553 37.3634V34.7272C19.8777 34.5971 17.7314 36.9344 20.5361 40.8601C20.7827 41.2315 18.153 41.8259 16.9196 41.6756C16.5945 41.3402 16.1258 41.1286 15.6009 41.1286C15.3777 41.1288 15.1563 41.1684 14.9471 41.2456C14.9471 41.2456 10.1001 36.6773 10.0114 36.6327L10.0511 36.5404C10.3275 36.0264 9.90496 35.4662 9.63782 35.5057C9.94816 35.135 9.96256 33.5129 8.24085 33.1376C8.29134 33.4635 8.31699 34.1285 8.31699 34.1285C8.31699 34.1285 6.98822 33.4134 6.32085 34.0306C5.73459 34.7215 6.54811 35.9748 6.54811 35.9748C6.54811 35.9748 5.86817 35.9913 5.53299 35.9629C6.02574 37.6221 7.67859 37.5046 8.03611 37.1772C8.01294 37.4408 8.61045 37.817 9.11693 37.5155L9.33939 37.4084C9.37862 37.4606 14.0993 41.9004 14.0993 41.9004C13.8825 42.2207 13.7794 42.6138 13.8506 43.0329C13.9626 43.6879 14.5105 44.2307 15.2106 44.3718C15.705 44.4706 16.1698 44.3751 16.5425 44.1579L17.7922 45.3124C17.9031 45.4129 18.0537 45.4755 18.2215 45.4636C18.5272 45.4432 18.7562 45.1967 18.733 44.9138C18.723 44.7861 18.6575 44.6766 18.5671 44.5934C18.5473 44.5716 17.2943 43.4137 17.2943 43.4137C18.328 42.6925 20.2537 42.1843 21.852 42.1843C22.1327 42.1843 22.2648 41.9477 22.1681 41.7159C21.444 39.9826 23.0007 38.7268 24.6112 39.7489C25.3136 40.1946 26.0271 41.0726 26.5647 42.5375C23.9226 43.1743 20.605 44.9288 19.9338 46.844C19.6753 47.5834 20.529 48.5914 21.5658 48.7943C21.5749 48.7962 21.5843 48.7964 21.5934 48.7948C21.6026 48.7931 21.6113 48.7897 21.6191 48.7847C21.6269 48.7796 21.6336 48.7731 21.6389 48.7655C21.6441 48.7579 21.6478 48.7493 21.6497 48.7402C22.1913 45.8811 25.2802 43.7506 26.8873 43.3888C26.9679 43.6042 26.9416 43.5345 27.0224 43.749C25.2719 44.5731 23.5744 46.311 23.0897 48.3774C22.8671 49.3236 23.9272 50.1766 24.8023 50.4101C24.8464 50.4216 24.8896 50.3913 24.892 50.3491C25.0584 47.736 26.2175 45.5167 27.2559 44.5072C27.2844 44.7047 27.3058 44.903 27.32 45.102C27.32 45.102 26.2567 48.0509 26.2567 50.2025C26.2567 51.2035 27.7513 51.9023 27.972 52C28.2479 51.9023 29.7414 51.2035 29.7414 50.2025C29.7414 48.0507 28.6784 45.1018 28.6784 45.1018C28.6929 44.9029 28.7146 44.7045 28.7433 44.507C29.7811 45.517 30.9409 47.7352 31.1065 50.3483C31.1075 50.3586 31.1107 50.3685 31.1159 50.3774C31.1212 50.3863 31.1283 50.394 31.1368 50.3998C31.1453 50.4057 31.155 50.4097 31.1652 50.4115C31.1754 50.4132 31.1859 50.4128 31.1959 50.4101C32.0722 50.1766 33.1313 49.3236 32.9097 48.3774C32.4241 46.3113 30.7273 44.5731 28.977 43.749C29.0569 43.5345 29.0305 43.604 29.1114 43.3887C30.7194 43.7505 33.8071 45.881 34.3489 48.7401C34.3528 48.7583 34.3639 48.7742 34.3796 48.7843C34.3953 48.7944 34.4145 48.7979 34.4328 48.7939C35.4689 48.5913 36.324 47.5829 36.0639 46.8437C35.3944 44.9285 32.076 43.174 29.4333 42.5372C29.9719 41.0725 30.6856 40.1943 31.3881 39.7486C32.9976 38.7264 34.5544 39.9821 33.8303 41.7155C33.7336 41.9473 33.8647 42.1839 34.1464 42.1839C35.9544 42.1839 38.1817 42.8339 39.0631 43.7058C39.6264 44.5471 40.667 45.0852 41.8415 44.97C43.1759 44.8399 44.264 43.8421 44.4143 42.6084C44.5455 41.5275 43.9839 40.5571 43.0888 40.0282L41.5283 41.2504ZM30.0298 33.3762C30.5857 33.1709 31.4569 33.337 31.4273 34.1357C31.4202 34.317 31.6753 34.317 31.6938 34.132C31.8601 32.9358 31.0483 32.5914 30.1985 32.7315C30.0929 32.3203 30.0065 31.9607 29.9082 31.6045C29.8297 31.3162 29.8009 30.7748 30.1361 30.7748C30.3169 30.7748 30.2442 31.2783 30.2271 31.4953C30.2122 31.6856 30.2809 31.8008 30.4362 31.8062C30.5329 31.8102 30.6537 31.6872 30.7258 31.6057C31.2121 31.0582 31.325 30.2107 30.7553 29.8019C30.2786 29.4587 29.0849 29.7141 28.7569 30.2029C28.7072 30.0187 28.4705 29.7147 28.357 29.5824C28.2466 29.4531 28.2179 29.3646 28.3705 29.2513C28.4425 29.1962 28.6602 28.9807 28.6602 28.7583C28.6602 28.6268 28.5576 28.384 28.2322 28.384C27.9753 28.384 27.6898 28.5609 27.6898 28.9557C27.6898 29.0435 27.7113 29.1374 27.7681 29.2386C27.6059 29.2119 27.1649 29.2228 26.9385 29.2785L30.0689 37.8295C30.965 37.3893 31.622 36.6922 31.622 35.944C31.622 35.3064 30.6785 35.5179 30.2204 36.0153C30.073 35.2068 29.942 34.4603 29.7986 33.7163C29.7596 33.511 29.8643 33.438 30.0298 33.3762ZM25.6033 27.5673L26.261 29.3862C25.6979 29.5197 24.7922 29.9283 24.7922 30.4695C24.7922 31.1902 26.0733 31.6594 26.8139 31.6031C26.7771 31.7675 26.8195 31.914 26.9347 32.0479C26.6659 32.0479 26.1587 32.1725 25.9922 32.3511C25.5995 31.9869 24.9851 31.8543 24.6929 32.0759C24.3995 32.2993 24.3907 32.6776 24.6971 33.1053C24.9106 33.4014 24.9907 33.6935 24.7507 34.0366C25.6433 34.0366 25.3146 32.8813 25.6643 32.8813C25.6185 33.1053 25.6465 33.3645 25.7481 33.652C25.8153 33.8431 25.8153 33.9789 25.7001 34.1628C25.4121 34.6211 24.9642 35.6736 25.0248 36.6256C24.7321 36.6239 24.5833 36.5528 24.6865 36.1547C24.7249 36.0068 24.633 35.901 24.5113 36.0835C24.3769 36.2849 24.3121 36.6289 24.3121 36.7759C24.3121 37.6234 25.3267 37.7941 25.7137 37.6148C26.8337 38.694 29.0339 38.406 29.7705 38.044L25.8969 27.4643C25.8178 27.2644 25.5337 27.3597 25.6033 27.5673ZM25.4692 36.2822C25.3891 35.8468 25.9979 35.0683 26.7723 34.317C26.6075 34.8066 26.7099 35.6502 27.0332 35.9408C26.4714 35.9408 25.8044 36.0458 25.4692 36.2822Z" fill="#A3D562"/>
</svg>
