<svg width="56" height="56" viewBox="0 0 56 56" fill="none" xmlns="http://www.w3.org/2000/svg">
<circle cx="28" cy="22" r="22" fill="#E8F9D3"/>
<path fill-rule="evenodd" clip-rule="evenodd" d="M29.5 12C29.5 11.1716 28.8284 10.5 28 10.5C27.1716 10.5 26.5 11.1716 26.5 12V25.9874V26.0146V32.3507L18.7717 27.7138C18.0614 27.2876 17.14 27.5179 16.7137 28.2283C16.2875 28.9386 16.5179 29.86 17.2282 30.2863L26.5 35.8493V49.5H16C15.1716 49.5 14.5 50.1716 14.5 51C14.5 51.8284 15.1716 52.5 16 52.5H26.5H29.5H40C40.8284 52.5 41.5 51.8284 41.5 51C41.5 50.1716 40.8284 49.5 40 49.5H29.5V35.0265C29.5003 35.0098 29.5003 34.9931 29.5 34.9764V26.721L38.937 19.1714C39.5839 18.6538 39.6888 17.7099 39.1713 17.063C38.6538 16.4161 37.7098 16.3112 37.063 16.8288L29.5 22.8791V12Z" fill="#A3D562"/>
</svg>
