<svg width="56" height="56" viewBox="0 0 56 56" fill="none" xmlns="http://www.w3.org/2000/svg">
<path d="M51.6444 28C51.6444 41.0585 41.0585 51.6444 28 51.6444C23.6008 51.6444 19.4945 50.4471 15.9747 48.3632C12.6951 46.4215 9.92294 43.7085 7.91035 40.4758C5.65762 36.8573 4.35556 32.5874 4.35556 28C4.35556 14.9415 14.9415 4.35556 28 4.35556C31.916 4.35556 35.5977 5.30413 38.84 6.98026C46.4549 10.9167 51.6444 18.856 51.6444 28Z" stroke="#D3FF8C" stroke-width="8.71111"/>
<path d="M28 51.6444C41.0585 51.6444 51.6444 41.0584 51.6444 27.9999C51.6444 18.8497 46.4468 10.9135 38.8428 6.98263C35.595 5.30369 31.9082 4.35547 28 4.35547" stroke="#ADED7E" stroke-width="8.71111"/>
<path d="M4.35498 27.9999C4.35498 14.9414 14.8596 4.35547 27.8177 4.35547C31.6959 4.35547 35.3544 5.30369 38.5772 6.98263" stroke="#87CB1A" stroke-width="8.71111"/>
</svg>
