<svg xmlns="http://www.w3.org/2000/svg">
    <symbol id="ico-fb" viewBox="0 0 28 28">
        <path fill-rule="evenodd" clip-rule="evenodd" d="M15.599 24V14.8785H18.6026L19.0006 11.1288H15.599L15.6041 9.25209C15.6041 8.27412 15.697 7.7501 17.1016 7.7501H18.9794V4H15.9753C12.3669 4 11.0969 5.81899 11.0969 8.87797V11.1293H9V14.8789H11.0969V24H15.599Z" />
    </symbol>
    <symbol id="ico-insta" viewBox="0 0 28 28">
        <path fill-rule="evenodd" clip-rule="evenodd" d="M18 6H10C7.79086 6 6 7.79086 6 10V18C6 20.2091 7.79086 22 10 22H18C20.2091 22 22 20.2091 22 18V10C22 7.79086 20.2091 6 18 6ZM10 3C6.13401 3 3 6.13401 3 10V18C3 21.866 6.13401 25 10 25H18C21.866 25 25 21.866 25 18V10C25 6.13401 21.866 3 18 3H10ZM14 16.5C15.3807 16.5 16.5 15.3807 16.5 14C16.5 12.6193 15.3807 11.5 14 11.5C12.6193 11.5 11.5 12.6193 11.5 14C11.5 15.3807 12.6193 16.5 14 16.5ZM14 19.5C17.0376 19.5 19.5 17.0376 19.5 14C19.5 10.9624 17.0376 8.5 14 8.5C10.9624 8.5 8.5 10.9624 8.5 14C8.5 17.0376 10.9624 19.5 14 19.5ZM19.5 9.875C20.2594 9.875 20.875 9.25939 20.875 8.5C20.875 7.74061 20.2594 7.125 19.5 7.125C18.7406 7.125 18.125 7.74061 18.125 8.5C18.125 9.25939 18.7406 9.875 19.5 9.875Z" />
    </symbol>
    <symbol id="ico-vk" viewBox="0 0 28 28">
        <path fill-rule="evenodd" clip-rule="evenodd" d="M15.0789 20.9457C15.0789 20.9457 15.476 20.9 15.6793 20.6737C15.8655 20.4664 15.859 20.0752 15.859 20.0752C15.859 20.0752 15.8343 18.2485 16.6531 17.9788C17.4601 17.7136 18.4964 19.7453 19.596 20.5266C20.4267 21.1173 21.0573 20.988 21.0573 20.988L23.9959 20.9457C23.9959 20.9457 25.5325 20.8476 24.804 19.596C24.7437 19.4935 24.379 18.6698 22.6197 16.978C20.7764 15.207 21.0239 15.4935 23.2427 12.4296C24.5942 10.5639 25.1343 9.42491 24.9654 8.93787C24.8051 8.472 23.8108 8.59571 23.8108 8.59571L20.5031 8.61689C20.5031 8.61689 20.2578 8.58234 20.076 8.6949C19.8984 8.80524 19.7833 9.06269 19.7833 9.06269C19.7833 9.06269 19.2603 10.506 18.562 11.7342C17.0889 14.3243 16.5003 14.4614 16.2593 14.3009C15.6987 13.9253 15.8386 12.7941 15.8386 11.9905C15.8386 9.47952 16.2066 8.43299 15.123 8.16216C14.7636 8.07189 14.4989 8.01282 13.5789 8.00279C12.3985 7.99053 11.4 8.00725 10.834 8.29368C10.4574 8.48426 10.1669 8.91 10.3444 8.93452C10.5629 8.96462 11.0578 9.07272 11.3204 9.44274C11.6593 9.92087 11.6475 10.993 11.6475 10.993C11.6475 10.993 11.8422 13.9487 11.1923 14.3154C10.7469 14.5673 10.1357 14.0535 8.82185 11.703C8.14934 10.4993 7.64146 9.16857 7.64146 9.16857C7.64146 9.16857 7.54354 8.92004 7.36815 8.78629C7.15617 8.62469 6.86027 8.57454 6.86027 8.57454L3.71721 8.59571C3.71721 8.59571 3.24484 8.60909 3.0716 8.82196C2.91773 9.01031 3.05976 9.40151 3.05976 9.40151C3.05976 9.40151 5.52062 15.3653 8.30751 18.3711C10.8631 21.1262 13.764 20.9457 13.764 20.9457H15.0789Z" />
    </symbol>
    <symbol id="ico-tw" viewBox="0 0 28 28">
        <path fill-rule="evenodd" clip-rule="evenodd" d="M14.2256 10.2563L14.2668 10.9483L13.5803 10.8636C11.0817 10.5387 8.89891 9.4371 7.04555 7.58693L6.13947 6.66891L5.90608 7.34684C5.41186 8.85804 5.72761 10.454 6.75725 11.5274C7.3064 12.1205 7.18284 12.2053 6.23557 11.8522C5.90608 11.7392 5.61778 11.6545 5.59033 11.6968C5.49423 11.7957 5.82371 13.0809 6.08456 13.5894C6.4415 14.2955 7.16911 14.9876 7.96537 15.3972L8.63807 15.722L7.84181 15.7361C7.07301 15.7361 7.04555 15.7502 7.12793 16.0468C7.4025 16.9649 8.48705 17.9394 9.69516 18.3631L10.5463 18.6597L9.80499 19.1116C8.70671 19.7613 7.41622 20.1285 6.12574 20.1567C5.50796 20.1709 5 20.2274 5 20.2697C5 20.411 6.67488 21.2019 7.64961 21.5126C10.5738 22.4306 14.0471 22.0351 16.6555 20.4674C18.5089 19.3517 20.3622 17.1343 21.2271 14.9876C21.6939 13.8436 22.1607 11.7533 22.1607 10.7506C22.1607 10.1009 22.2019 10.0162 22.9707 9.23937C23.4237 8.78742 23.8493 8.2931 23.9317 8.15187C24.069 7.88352 24.0552 7.88352 23.3551 8.12362C22.1881 8.54732 22.0234 8.49083 22.6 7.85528C23.0256 7.40333 23.5335 6.58417 23.5335 6.34408C23.5335 6.30171 23.3276 6.37232 23.0942 6.49943C22.8471 6.64067 22.298 6.85252 21.8861 6.97963L21.1448 7.21973L20.4721 6.75365C20.1014 6.49943 19.5797 6.21697 19.3051 6.13223C18.605 5.9345 17.5342 5.96275 16.9027 6.18872C15.1866 6.82427 14.102 8.46258 14.2256 10.2563Z" />
    </symbol>
    <symbol id="external-link" viewBox="0 0 12 12">
        <path d="M10.5 10C10.5 10.2761 10.2761 10.5 10 10.5L2 10.5C1.72386 10.5 1.5 10.2761 1.5 10L1.5 2C1.5 1.72386 1.72386 1.5 2 1.5L5.25 1.5C5.66421 1.5 6 1.16421 6 0.75C6 0.335786 5.66421 0 5.25 0L1 0C0.447715 0 0 0.447715 0 1L0 11C0 11.5523 0.447715 12 1 12L11 12C11.5523 12 12 11.5523 12 11L12 6.75C12 6.33579 11.6642 6 11.25 6C10.8358 6 10.5 6.33579 10.5 6.75L10.5 10Z"/>
        <path fill-rule="evenodd" clip-rule="evenodd" d="M9.43934 1.5H8.25C7.83579 1.5 7.5 1.16421 7.5 0.75C7.5 0.335786 7.83579 0 8.25 0L11 0C11.5523 0 12 0.447715 12 1V3.75C12 4.16421 11.6642 4.5 11.25 4.5C10.8358 4.5 10.5 4.16421 10.5 3.75V2.56066L7.68211 5.43222C7.37525 5.74493 6.87224 5.7473 6.56245 5.4375C6.25265 5.12771 6.25502 4.62469 6.56774 4.31784L9.43934 1.5Z"/>
    </symbol>
</svg>
