<svg width="70" height="92" viewBox="0 0 70 92" fill="none" xmlns="http://www.w3.org/2000/svg">
<path d="M60.7406 20.6088C62.0854 21.9584 62.841 23.7899 62.841 25.6998V77.6105C62.841 81.584 59.6358 84.8052 55.6819 84.8052H14.3183C10.3644 84.8052 7.15918 81.584 7.15918 77.6105L7.15918 14.3893C7.15918 10.4157 10.3644 7.19458 14.3183 7.19458L44.4114 7.19458C46.3084 7.19458 48.1278 7.9512 49.4701 9.29826L60.7406 20.6088Z" fill="url(#paint0_linear_3505_3724)"/>
<path d="M67.8994 13.4142C69.2442 14.7638 69.9998 16.5953 69.9998 18.5052V70.416C69.9998 74.3895 66.7946 77.6106 62.8407 77.6106H21.4771C17.5232 77.6106 14.318 74.3895 14.318 70.416L14.318 7.19468C14.318 3.22117 17.5232 -1.72948e-07 21.4771 0L51.5702 1.14356e-06C53.4672 1.22654e-06 55.2866 0.756617 56.6289 2.10368L67.8994 13.4142Z" fill="url(#paint1_linear_3505_3724)"/>
<g filter="url(#filter0_bi_3505_3724)">
<path d="M53.5814 27.8035C54.9262 29.1531 55.6818 30.9846 55.6818 32.8945V84.8052C55.6818 88.7788 52.4766 91.9999 48.5227 91.9999H7.1591C3.20524 91.9999 -1.73567e-07 88.7788 0 84.8052L2.76157e-06 21.584C2.93514e-06 17.6105 3.20524 14.3893 7.15909 14.3893L37.2522 14.3893C39.1492 14.3893 40.9686 15.1459 42.3109 16.493L53.5814 27.8035Z" fill="#FED141" fill-opacity="0.2"/>
</g>
<defs>
<filter id="filter0_bi_3505_3724" x="-10" y="4.38928" width="75.6819" height="97.6106" filterUnits="userSpaceOnUse" color-interpolation-filters="sRGB">
<feFlood flood-opacity="0" result="BackgroundImageFix"/>
<feGaussianBlur in="BackgroundImage" stdDeviation="5"/>
<feComposite in2="SourceAlpha" operator="in" result="effect1_backgroundBlur_3505_3724"/>
<feBlend mode="normal" in="SourceGraphic" in2="effect1_backgroundBlur_3505_3724" result="shape"/>
<feColorMatrix in="SourceAlpha" type="matrix" values="0 0 0 0 0 0 0 0 0 0 0 0 0 0 0 0 0 0 127 0" result="hardAlpha"/>
<feOffset dx="-1" dy="1"/>
<feGaussianBlur stdDeviation="0.5"/>
<feComposite in2="hardAlpha" operator="arithmetic" k2="-1" k3="1"/>
<feColorMatrix type="matrix" values="0 0 0 0 1 0 0 0 0 1 0 0 0 0 1 0 0 0 0.15 0"/>
<feBlend mode="normal" in2="shape" result="effect2_innerShadow_3505_3724"/>
</filter>
<linearGradient id="paint0_linear_3505_3724" x1="94.2614" y1="-32.6759" x2="-5.96213" y2="13.3713" gradientUnits="userSpaceOnUse">
<stop stop-color="#FED141" stop-opacity="0"/>
<stop offset="0.288069" stop-color="#FED141" stop-opacity="0.1"/>
<stop offset="1" stop-color="#FB9C0F"/>
</linearGradient>
<linearGradient id="paint1_linear_3505_3724" x1="101.42" y1="-39.8705" x2="1.19669" y2="6.17671" gradientUnits="userSpaceOnUse">
<stop stop-color="#FED141" stop-opacity="0"/>
<stop offset="0.288069" stop-color="#FED141" stop-opacity="0.1"/>
<stop offset="1" stop-color="#FB9C0F"/>
</linearGradient>
</defs>
</svg>
