<svg width="210" height="184" viewBox="0 0 210 184" fill="none" xmlns="http://www.w3.org/2000/svg">
<path d="M91.4578 177.154C91.8414 177.271 92.1283 177.503 92.3186 177.851C92.5003 178.203 92.5325 178.571 92.4152 178.954C92.302 179.325 92.0727 179.602 91.7272 179.785C91.3752 179.967 91.0073 179.999 90.6237 179.882C90.2533 179.769 89.9763 179.539 89.7926 179.194C89.6089 178.849 89.5737 178.491 89.6869 178.12C89.8042 177.737 90.0365 177.45 90.384 177.259C90.7295 177.076 91.0874 177.041 91.4578 177.154Z" fill="#A3D562"/>
<path d="M79.8131 170.258L77.9541 174.279L82.6381 171.564L83.6268 172.021L80.5792 178.613L79.2797 178.012L81.1431 173.982L76.4548 176.706L75.466 176.249L78.5136 169.657L79.8131 170.258Z" fill="#A3D562"/>
<path d="M67.3607 171.675L71.0655 165.429L72.2968 166.16L69.2906 171.228L71.4945 172.535L74.5008 167.467L75.7321 168.197L72.0273 174.443L67.3607 171.675Z" fill="#A3D562"/>
<path d="M62.814 160.689C63.8366 160.551 64.7675 160.798 65.6068 161.432C66.4461 162.065 66.9398 162.892 67.0878 163.913C67.2261 164.936 66.9767 165.869 66.3395 166.714C65.7023 167.559 64.8752 168.053 63.8581 168.195C62.8313 168.339 61.8983 168.094 61.059 167.461C60.2197 166.828 59.7281 165.998 59.5842 164.972C59.4362 163.95 59.6808 163.017 60.318 162.172C60.9552 161.328 61.7872 160.833 62.814 160.689ZM65.6972 164.086C65.6048 163.461 65.2935 162.949 64.7635 162.55C64.2334 162.15 63.6556 161.991 63.0302 162.074C62.4005 162.162 61.8775 162.482 61.461 163.035C61.0446 163.587 60.8804 164.178 60.9686 164.807C61.0568 165.437 61.366 165.952 61.8961 166.351C62.4262 166.751 63.006 166.907 63.6356 166.819C64.2653 166.731 64.7883 166.41 65.2048 165.858C65.6212 165.306 65.7854 164.715 65.6972 164.086Z" fill="#A3D562"/>
<path d="M51.7521 159.297L52.6862 158.295L54.12 159.633L58.1394 155.324L59.1863 156.3L55.1669 160.609L56.5931 161.94L55.659 162.941L51.7521 159.297Z" fill="#A3D562"/>
<path d="M52.7275 151.774L50.6802 149.499L51.6981 148.583L54.7031 151.922L49.305 156.78L46.3348 153.479L47.3527 152.563L49.3653 154.8L50.5143 153.766L48.6752 151.722L49.6777 150.82L51.5168 152.863L52.7275 151.774Z" fill="#A3D562"/>
<path d="M46.5109 141.869L47.4975 143.191L46.3216 147.305L49.0487 145.269L49.905 146.417L44.085 150.76L43.2288 149.613L45.7979 147.695L41.7396 147.617L40.753 146.295L45.1869 146.339L46.5109 141.869Z" fill="#A3D562"/>
<path d="M42.5913 135.594L41.6952 136.64L43.1857 139.122L44.5306 138.822L45.3266 140.147L37.7926 141.708L36.8791 140.187L41.79 134.26L42.5913 135.594ZM41.8034 139.419L40.7777 137.712L38.7472 140.094L41.8034 139.419Z" fill="#A3D562"/>
<path d="M36.2367 127.76C36.3946 128.129 36.4021 128.498 36.2594 128.867C36.1077 129.233 35.8474 129.495 35.4786 129.653C35.1226 129.806 34.763 129.809 34.3997 129.664C34.0338 129.512 33.7719 129.252 33.614 128.883C33.4616 128.527 33.458 128.167 33.6035 127.804C33.7489 127.441 33.9996 127.183 34.3557 127.03C34.7244 126.873 35.0936 126.865 35.4632 127.008C35.8264 127.153 36.0842 127.404 36.2367 127.76Z" fill="#A3D562"/>
<path d="M33.9933 114.414L29.7217 115.588L34.8179 117.415L35.1065 118.465L28.104 120.39L27.7246 119.009L32.0062 117.833L26.9 116.008L26.6114 114.958L33.6139 113.034L33.9933 114.414Z" fill="#A3D562"/>
<path d="M24.8763 105.814L32.0387 104.615L32.275 106.027L26.4633 107L26.8863 109.528L32.6981 108.555L32.9344 109.967L25.772 111.166L24.8763 105.814Z" fill="#A3D562"/>
<path d="M30.3366 95.2528C31.102 95.9449 31.5136 96.8158 31.5714 97.8654C31.6293 98.9151 31.3158 99.8259 30.631 100.598C29.9389 101.363 29.0646 101.775 28.008 101.833C26.9514 101.892 26.0406 101.578 25.2756 100.893C24.5032 100.201 24.0882 99.3305 24.0303 98.2808C23.9725 97.2312 24.2895 96.3202 24.9812 95.5478C25.6659 94.7759 26.5366 94.3608 27.5932 94.3026C28.6498 94.2444 29.5642 94.5611 30.3366 95.2528ZM29.6019 99.6467C30.0192 99.1735 30.2095 98.6054 30.173 97.9425C30.1365 97.2795 29.8849 96.7358 29.4182 96.3113C28.9446 95.8871 28.3625 95.694 27.6719 95.7321C26.9814 95.7701 26.424 96.0259 25.9999 96.4995C25.5757 96.9732 25.3819 97.5414 25.4184 98.2044C25.4549 98.8673 25.71 99.4109 26.1836 99.835C26.6572 100.259 27.2393 100.452 27.9298 100.414C28.6204 100.376 29.1778 100.12 29.6019 99.6467Z" fill="#A3D562"/>
<path d="M24.2639 85.9023L25.6316 85.9699L25.5348 87.9283L31.4202 88.2193L31.3495 89.6492L25.4641 89.3582L25.3677 91.3062L24 91.2385L24.2639 85.9023Z" fill="#A3D562"/>
<path d="M30.6409 81.7941L31.0582 78.7622L32.4148 78.949L31.8023 83.3991L24.608 82.4088L25.2135 78.0101L26.5701 78.1968L26.1599 81.1773L27.6912 81.3881L28.0661 78.6646L29.4022 78.8485L29.0273 81.572L30.6409 81.7941Z" fill="#A3D562"/>
<path d="M34.1981 70.6542L33.8246 72.2609L29.9229 74.0165L33.2373 74.7871L32.9131 76.1815L25.8397 74.537L26.1639 73.1426L29.2863 73.8685L26.7277 70.7174L27.1012 69.1107L29.9284 72.5266L34.1981 70.6542Z" fill="#A3D562"/>
<path d="M36.4641 63.6108L35.0863 63.6014L34.1522 66.341L35.2488 67.1752L34.7499 68.6383L28.6967 63.8889L29.2692 62.2098L36.9663 62.1379L36.4641 63.6108ZM33.0328 65.477L33.6756 63.5917L30.5459 63.5768L33.0328 65.477Z" fill="#A3D562"/>
<path d="M38.3495 53.7018C38.1696 54.0604 37.8924 54.3043 37.518 54.4337C37.1405 54.5538 36.7725 54.524 36.4139 54.3441C36.0677 54.1704 35.833 53.8979 35.7098 53.5266C35.5897 53.149 35.6196 52.781 35.7995 52.4225C35.9732 52.0763 36.2457 51.8416 36.617 51.7184C36.9883 51.5951 37.3471 51.6204 37.6933 51.7941C38.0518 51.9739 38.2958 52.2511 38.4252 52.6255C38.5484 52.9969 38.5232 53.3556 38.3495 53.7018Z" fill="#A3D562"/>
<path d="M47.0991 43.3771L43.4465 40.8707L45.3381 45.9434L44.7218 46.8415L38.734 42.7326L39.544 41.5522L43.2051 44.0645L41.305 38.986L41.9213 38.0878L47.9091 42.1967L47.0991 43.3771Z" fill="#A3D562"/>
<path d="M47.7878 30.8634L53.3247 35.5623L52.3983 36.6539L47.9055 32.841L46.2475 34.7948L50.7403 38.6076L49.8139 39.6992L44.277 35.0003L47.7878 30.8634Z" fill="#A3D562"/>
<path d="M59.38 28.2212C59.3451 29.2526 58.9452 30.1289 58.1805 30.8503C57.4158 31.5717 56.5177 31.9198 55.4861 31.8946C54.4548 31.8597 53.576 31.4573 52.8499 30.6876C52.1238 29.9178 51.7757 29.0197 51.8056 27.9931C51.8358 26.9568 52.2333 26.0779 52.998 25.3565C53.7627 24.6351 54.6632 24.2895 55.6995 24.3198C56.7311 24.3449 57.61 24.7424 58.3361 25.5121C59.0623 26.2818 59.4102 27.1849 59.38 28.2212ZM55.5489 30.4947C56.1797 30.5082 56.7365 30.2871 57.2195 29.8315C57.7025 29.3759 57.9556 28.8329 57.9788 28.2024C57.9974 27.5669 57.7693 26.9976 57.2947 26.4945C56.8201 25.9914 56.2651 25.7306 55.6296 25.7121C54.9941 25.6936 54.4349 25.9121 53.9519 26.3677C53.4689 26.8233 53.2182 27.3689 53.1997 28.0044C53.1811 28.6399 53.4092 29.2092 53.8838 29.7123C54.3584 30.2154 54.9134 30.4762 55.5489 30.4947Z" fill="#A3D562"/>
<path d="M62.6064 17.5489L63.4372 18.6375L61.8784 19.827L65.4531 24.5115L64.315 25.38L60.7403 20.6955L59.1898 21.8787L58.359 20.79L62.6064 17.5489Z" fill="#A3D562"/>
<path d="M69.8595 19.7707L72.4452 18.1335L73.1778 19.2905L69.3825 21.6936L65.4977 15.558L69.2492 13.1827L69.9817 14.3397L67.4398 15.9491L68.2667 17.2551L70.5895 15.7844L71.311 16.9239L68.9882 18.3946L69.8595 19.7707Z" fill="#A3D562"/>
<path d="M80.6663 15.3017L79.1978 16.0528L75.3392 14.2044L76.8887 17.2339L75.6141 17.8858L72.3071 11.4204L73.5817 10.7685L75.0415 13.6225L75.7984 9.63467L77.267 8.88351L76.4811 13.2474L80.6663 15.3017Z" fill="#A3D562"/>
<path d="M87.509 12.4891L86.6273 11.4303L83.9315 12.4841L84.0016 13.8602L82.5619 14.4229L82.2853 6.73389L83.9376 6.08804L88.9584 11.9226L87.509 12.4891ZM83.8694 11.0714L85.7246 10.3463L83.7168 7.9454L83.8694 11.0714Z" fill="#A3D562"/>
<path d="M96.2969 7.53665C95.9069 7.63053 95.5417 7.57617 95.2012 7.37356C94.8659 7.16262 94.6513 6.86214 94.5574 6.47214C94.4668 6.09559 94.5236 5.74046 94.7278 5.40674C94.9387 5.07141 95.2392 4.85681 95.6292 4.76293C96.0058 4.67228 96.3609 4.72907 96.6946 4.9333C97.0283 5.13752 97.2405 5.4279 97.3311 5.80446C97.425 6.19446 97.3707 6.55968 97.1681 6.90011C96.9638 7.23382 96.6734 7.446 96.2969 7.53665Z" fill="#A3D562"/>
<path d="M109.83 7.56048L109.389 3.15268L106.733 7.87064L105.649 7.9792L104.926 0.753297L106.35 0.610626L106.793 5.02874L109.447 0.300466L110.531 0.19191L111.255 7.41781L109.83 7.56048Z" fill="#A3D562"/>
<path d="M119.836 0.0134553L119.818 7.27548L118.386 7.27193L118.401 1.37932L115.839 1.37296L115.824 7.26558L114.392 7.26203L114.41 0L119.836 0.0134553Z" fill="#A3D562"/>
<path d="M129.333 7.16591C128.523 7.80457 127.595 8.06447 126.551 7.94561C125.506 7.82675 124.661 7.3651 124.015 6.56066C123.376 5.75013 123.116 4.81917 123.236 3.76777C123.356 2.71637 123.817 1.87095 124.621 1.23151C125.432 0.585981 126.36 0.322646 127.405 0.441507C128.449 0.560369 129.294 1.02545 129.94 1.83677C130.586 2.6412 130.85 3.56912 130.73 4.62052C130.61 5.67192 130.145 6.52038 129.333 7.16591ZM125.125 5.7055C125.521 6.19613 126.049 6.47898 126.709 6.55405C127.369 6.62912 127.947 6.47217 128.444 6.0832C128.941 5.68735 129.229 5.14584 129.307 4.45865C129.386 3.77146 129.227 3.17912 128.831 2.68162C128.435 2.18411 127.907 1.89783 127.248 1.82276C126.588 1.74769 126.009 1.90808 125.512 2.30392C125.014 2.69976 124.726 3.24128 124.648 3.92847C124.57 4.61565 124.729 5.208 125.125 5.7055Z" fill="#A3D562"/>
<path d="M139.569 2.74567L139.273 4.08275L137.359 3.65918L136.086 9.41268L134.688 9.10341L135.961 3.34991L134.057 2.92858L134.353 1.5915L139.569 2.74567Z" fill="#A3D562"/>
<path d="M142.55 9.7209L145.47 10.6403L145.058 11.9465L140.774 10.597L142.955 3.67036L147.19 5.00425L146.779 6.31042L143.909 5.40661L143.445 6.88099L146.067 7.70688L145.662 8.99325L143.04 8.16736L142.55 9.7209Z" fill="#A3D562"/>
<path d="M152.937 15.0944L151.416 14.4569L150.339 10.3162L149.024 13.4547L147.704 12.9014L150.51 6.20353L151.83 6.75678L150.592 9.71342L154.127 7.71896L155.648 8.3564L151.807 10.5713L152.937 15.0944Z" fill="#A3D562"/>
<path d="M159.501 18.508L159.741 17.1512L157.197 15.7713L156.191 16.7126L154.832 15.9757L160.528 10.8037L162.088 11.6495L160.869 19.2498L159.501 18.508ZM158.236 14.8125L159.987 15.7621L160.526 12.6791L158.236 14.8125Z" fill="#A3D562"/>
<path d="M168.955 22.0273C168.631 21.7899 168.437 21.4757 168.372 21.0849C168.317 20.6926 168.408 20.3348 168.646 20.0115C168.875 19.6993 169.183 19.5135 169.57 19.4543C169.962 19.3991 170.32 19.4902 170.643 19.7276C170.955 19.9569 171.141 20.2648 171.2 20.6516C171.26 21.0383 171.175 21.3878 170.945 21.7C170.708 22.0233 170.394 22.2174 170.003 22.2822C169.616 22.3415 169.267 22.2565 168.955 22.0273Z" fill="#A3D562"/>
<path d="M177.667 32.3828L180.75 29.2017L175.433 30.2167L174.65 29.4586L179.704 24.2438L180.732 25.2402L177.642 28.4287L182.967 27.4062L183.75 28.1643L178.696 33.3791L177.667 32.3828Z" fill="#A3D562"/>
<path d="M189.889 35.1586L184.328 39.83L183.408 38.7339L187.919 34.9434L186.271 32.9814L181.759 36.7719L180.838 35.6758L186.398 31.0044L189.889 35.1586Z" fill="#A3D562"/>
<path d="M190.551 47.0295C189.54 46.8222 188.743 46.2812 188.16 45.4065C187.577 44.5317 187.385 43.588 187.582 42.5751C187.789 41.5643 188.333 40.7654 189.214 40.1785C190.094 39.5916 191.038 39.3988 192.045 39.6003C193.062 39.8038 193.862 40.3428 194.445 41.2176C195.028 42.0924 195.218 43.038 195.014 44.0547C194.817 45.0675 194.277 45.8673 193.397 46.4542C192.516 47.0412 191.568 47.2329 190.551 47.0295ZM188.952 42.8716C188.833 43.4912 188.957 44.0772 189.326 44.6297C189.694 45.1822 190.187 45.5227 190.805 45.6513C191.428 45.776 192.027 45.6466 192.603 45.263C193.178 44.8794 193.529 44.3759 193.653 43.7525C193.778 43.129 193.656 42.5411 193.288 41.9886C192.92 41.4361 192.424 41.0975 191.8 40.9728C191.177 40.8481 190.578 40.9775 190.002 41.3611C189.427 41.7447 189.077 42.2482 188.952 42.8716Z" fill="#A3D562"/>
<path d="M200.532 51.9985L199.32 52.6351L198.408 50.8991L193.191 53.6384L192.525 52.3709L197.743 49.6316L196.836 47.9047L198.048 47.2681L200.532 51.9985Z" fill="#A3D562"/>
<path d="M197.127 58.7766L198.307 61.6L197.044 62.1284L195.311 57.9841L202.011 55.1822L203.724 59.2786L202.46 59.807L201.3 57.0314L199.874 57.6278L200.934 60.1641L199.69 60.6845L198.629 58.1481L197.127 58.7766Z" fill="#A3D562"/>
<path d="M199.722 70.1792L199.228 68.6055L201.696 65.1111L198.45 66.1312L198.021 64.7654L204.949 62.5884L205.378 63.9542L202.32 64.9152L206.125 66.3295L206.619 67.9032L202.449 66.3972L199.722 70.1792Z" fill="#A3D562"/>
<path d="M201.349 77.3967L202.54 76.7048L201.953 73.8705L200.585 73.7091L200.271 72.1954L207.898 73.211L208.258 74.9482L201.664 78.9204L201.349 77.3967ZM203.356 74.046L203.76 75.9965L206.464 74.4193L203.356 74.046Z" fill="#A3D562"/>
<path d="M204.759 86.8901C204.731 86.4899 204.846 86.1389 205.103 85.8373C205.367 85.542 205.699 85.3808 206.1 85.3536C206.486 85.3273 206.827 85.4428 207.121 85.7C207.417 85.9642 207.578 86.2964 207.605 86.6966C207.631 87.083 207.516 87.4236 207.259 87.7184C207.001 88.0131 206.679 88.1737 206.293 88.2C205.893 88.2272 205.542 88.1124 205.24 87.8556C204.945 87.5984 204.785 87.2765 204.759 86.8901Z" fill="#A3D562"/>
<path d="M202.467 100.228L206.887 100.531L202.68 97.123L202.755 96.0362L210 96.5334L209.902 97.9617L205.472 97.6577L209.689 101.067L209.614 102.153L202.369 101.656L202.467 100.228Z" fill="#A3D562"/>
<path d="M208.232 111.356L201.076 110.122L201.319 108.711L207.126 109.713L207.561 107.188L201.754 106.186L201.998 104.775L209.154 106.01L208.232 111.356Z" fill="#A3D562"/>
<path d="M199.589 119.522C199.095 118.615 198.994 117.658 199.286 116.648C199.578 115.638 200.175 114.882 201.076 114.379C201.983 113.885 202.944 113.786 203.96 114.08C204.977 114.374 205.733 114.971 206.229 115.87C206.729 116.778 206.833 117.737 206.541 118.747C206.249 119.757 205.649 120.512 204.741 121.012C203.84 121.515 202.881 121.619 201.864 121.325C200.848 121.031 200.089 120.43 199.589 119.522ZM201.734 115.617C201.183 115.926 200.816 116.399 200.632 117.037C200.447 117.675 200.505 118.271 200.805 118.826C201.112 119.383 201.598 119.757 202.262 119.949C202.926 120.142 203.537 120.084 204.094 119.777C204.651 119.471 205.021 118.998 205.206 118.36C205.39 117.723 205.329 117.125 205.022 116.569C204.715 116.012 204.23 115.637 203.565 115.445C202.901 115.253 202.29 115.31 201.734 115.617Z" fill="#A3D562"/>
<path d="M202.232 130.353L200.963 129.838L201.701 128.021L196.242 125.802L196.781 124.476L202.24 126.695L202.975 124.888L204.243 125.404L202.232 130.353Z" fill="#A3D562"/>
<path d="M194.856 132.124L193.461 134.848L192.242 134.223L194.29 130.226L200.753 133.537L198.729 137.489L197.51 136.864L198.882 134.187L197.506 133.482L196.252 135.928L195.052 135.314L196.306 132.867L194.856 132.124Z" fill="#A3D562"/>
<path d="M187.818 141.464L188.701 140.071L192.964 139.702L190.09 137.88L190.857 136.671L196.99 140.56L196.223 141.769L193.516 140.052L194.89 143.872L194.006 145.265L192.466 141.107L187.818 141.464Z" fill="#A3D562"/>
<path d="M183.353 147.363L184.65 147.827L186.437 145.55L185.678 144.4L186.632 143.184L190.776 149.666L189.681 151.062L182.393 148.587L183.353 147.363ZM187.208 146.735L185.979 148.302L188.928 149.35L187.208 146.735Z" fill="#A3D562"/>
<path d="M178.299 156.093C178.588 155.814 178.93 155.675 179.326 155.677C179.722 155.688 180.06 155.838 180.339 156.126C180.608 156.404 180.739 156.739 180.733 157.13C180.722 157.526 180.572 157.864 180.284 158.143C180.005 158.412 179.671 158.544 179.279 158.537C178.888 158.531 178.558 158.389 178.289 158.11C178.01 157.822 177.871 157.48 177.872 157.084C177.879 156.693 178.021 156.362 178.299 156.093Z" fill="#A3D562"/>
<path d="M159.057 164.068L161.433 167.807L161.684 162.399L162.603 161.815L166.499 167.944L165.29 168.712L162.909 164.964L162.664 170.381L161.744 170.965L157.849 164.836L159.057 164.068Z" fill="#A3D562"/>
<path d="M153.513 175.308L150.264 168.814L151.544 168.173L154.181 173.443L156.472 172.297L153.836 167.027L155.116 166.386L158.365 172.881L153.513 175.308Z" fill="#A3D562"/>
<path d="M141.813 173.19C142.25 172.255 142.962 171.606 143.948 171.242C144.935 170.879 145.897 170.911 146.836 171.339C147.771 171.776 148.422 172.491 148.787 173.484C149.153 174.477 149.121 175.439 148.691 176.372C148.256 177.313 147.546 177.966 146.559 178.329C145.573 178.692 144.609 178.657 143.668 178.223C142.729 177.795 142.076 177.084 141.71 176.091C141.344 175.098 141.379 174.131 141.813 173.19ZM146.229 172.602C145.654 172.342 145.055 172.327 144.432 172.556C143.809 172.786 143.363 173.186 143.095 173.757C142.828 174.334 142.815 174.947 143.054 175.596C143.293 176.245 143.701 176.703 144.278 176.969C144.856 177.236 145.456 177.254 146.079 177.025C146.702 176.795 147.146 176.392 147.413 175.814C147.679 175.237 147.693 174.624 147.454 173.975C147.215 173.326 146.806 172.868 146.229 172.602Z" fill="#A3D562"/>
<path d="M134.658 181.74L134.321 180.413L136.222 179.93L134.772 174.219L136.16 173.866L137.609 179.578L139.5 179.098L139.837 180.425L134.658 181.74Z" fill="#A3D562"/>
<path d="M128.858 176.85L125.838 177.341L125.618 175.99L130.052 175.269L131.217 182.437L126.835 183.149L126.615 181.798L129.584 181.315L129.336 179.789L126.623 180.23L126.406 178.899L129.12 178.458L128.858 176.85Z" fill="#A3D562"/>
<path d="M117.165 176.72L118.811 176.606L121.634 179.82L121.398 176.425L122.826 176.326L123.331 183.57L121.903 183.67L121.68 180.472L119.419 183.843L117.773 183.957L120.209 180.252L117.165 176.72Z" fill="#A3D562"/>
<path d="M109.767 176.622L110.162 177.942L113.056 178.031L113.531 176.737L115.076 176.785L112.313 183.966L110.54 183.911L108.212 176.575L109.767 176.622ZM112.558 179.354L110.567 179.293L111.472 182.29L112.558 179.354Z" fill="#A3D562"/>
<rect y="50" width="55" height="82" fill="#1E1B1B"/>
</svg>
