<svg width="333" height="329" viewBox="0 0 333 329" fill="none" xmlns="http://www.w3.org/2000/svg">
<g clip-path="url(#clip0_535_2566)">
<path d="M13.0021 163.993L5.08073 164.044L13.0374 169.559L13.0498 171.507L0.06403 171.589L0.04776 169.029L7.98764 168.979L0.01238 163.464L0 161.516L12.9858 161.433L13.0021 163.993Z" fill="#A3D562"/>
<path d="M1.23465 144.92L14.161 146.164L13.9157 148.712L3.42693 147.703L2.98797 152.264L13.4767 153.273L13.2315 155.822L0.305176 154.578L1.23465 144.92Z" fill="#A3D562"/>
<path d="M15.5542 129.204C16.556 130.754 16.8639 132.449 16.478 134.289C16.092 136.128 15.129 137.557 13.5889 138.573C12.0393 139.575 10.3385 139.882 8.48655 139.493C6.6346 139.105 5.20646 138.142 4.20213 136.604C3.18823 135.052 2.87425 133.356 3.26019 131.516C3.64614 129.676 4.6152 128.249 6.1674 127.235C7.70748 126.219 9.4035 125.905 11.2554 126.293C13.1074 126.682 14.5403 127.652 15.5542 129.204ZM12.2517 136.454C13.1914 135.83 13.7831 134.936 14.0269 133.774C14.2706 132.612 14.0877 131.557 13.4781 130.608C12.8563 129.656 11.9403 129.053 10.7298 128.799C9.51943 128.545 8.43831 128.729 7.48649 129.351C6.53468 129.972 5.93689 130.864 5.69314 132.026C5.44938 133.188 5.63837 134.245 6.2601 135.197C6.88184 136.149 7.79791 136.752 9.00834 137.006C10.2187 137.26 11.2999 137.076 12.2517 136.454Z" fill="#A3D562"/>
<path d="M9.39254 110.243L11.7238 110.993L10.6501 114.33L20.6812 117.557L19.8973 119.994L9.86616 116.768L8.79821 120.088L6.46704 119.338L9.39254 110.243Z" fill="#A3D562"/>
<path d="M22.3089 106.098L24.4329 101.055L26.6898 102.005L23.5721 109.408L11.604 104.368L14.6857 97.0504L16.9425 98.0008L14.8545 102.959L17.402 104.032L19.31 99.5011L21.5327 100.437L19.6246 104.968L22.3089 106.098Z" fill="#A3D562"/>
<path d="M33.609 88.503L32.2202 91.1053L24.6683 92.332L30.0365 95.1969L28.8311 97.4555L17.3745 91.3413L18.5799 89.0827L23.6372 91.7817L20.6762 85.1547L22.065 82.5524L25.3674 89.7611L33.609 88.503Z" fill="#A3D562"/>
<path d="M40.7827 77.3859L38.4071 76.7319L35.5257 81.0316L37.0338 82.9801L35.495 85.2764L27.2375 74.2714L29.0035 71.6361L42.3319 75.0743L40.7827 77.3859ZM33.9921 79.0213L35.975 76.0623L30.576 74.5881L33.9921 79.0213Z" fill="#A3D562"/>
<path d="M48.6255 61.1428C48.1489 61.6789 47.5572 61.972 46.8506 62.0222C46.1429 62.055 45.5211 61.833 44.985 61.3564C44.4674 60.8961 44.1882 60.3168 44.1472 59.6184C44.1145 58.9107 44.3364 58.2889 44.8131 57.7528C45.2733 57.2353 45.8526 56.956 46.551 56.915C47.2494 56.8741 47.8574 57.0837 48.375 57.5439C48.9111 58.0205 49.2042 58.6122 49.2544 59.3188C49.2954 60.0172 49.0857 60.6252 48.6255 61.1428Z" fill="#A3D562"/>
<path d="M68.5168 47.3589L63.3678 41.3391L64.2874 50.9765L62.8072 52.2426L54.3662 42.3741L56.3117 40.71L61.4728 46.7439L60.5411 37.0924L62.0214 35.8263L70.4623 45.6948L68.5168 47.3589Z" fill="#A3D562"/>
<path d="M75.498 26.0629L82.8871 36.7418L80.7818 38.1985L74.7861 29.5333L71.018 32.1406L77.0136 40.8058L74.9084 42.2625L67.5193 31.5836L75.498 26.0629Z" fill="#A3D562"/>
<path d="M96.7438 26.8643C96.2061 28.6295 95.1099 29.9582 93.4552 30.8503C91.8005 31.7424 90.088 31.928 88.3178 31.4071C86.5526 30.8694 85.221 29.7677 84.3231 28.1021C83.4251 26.4365 83.2395 24.724 83.7663 22.9647C84.2981 21.1886 85.3914 19.8545 87.0461 18.9624C88.7008 18.0703 90.4162 17.8902 92.1923 18.422C93.9625 18.9429 95.2966 20.0362 96.1946 21.7018C97.0926 23.3674 97.2757 25.0883 96.7438 26.8643ZM89.0742 29.0181C90.1575 29.3334 91.2216 29.2093 92.2667 28.6458C93.3118 28.0824 94.0003 27.2616 94.3323 26.1833C94.6584 25.0942 94.528 24.0054 93.9411 22.9167C93.3542 21.8281 92.5162 21.1207 91.4271 20.7946C90.338 20.4685 89.2709 20.5871 88.2258 21.1506C87.1807 21.714 86.4951 22.5403 86.169 23.6294C85.8429 24.7185 85.9733 25.8074 86.5602 26.896C87.1471 27.9846 87.9851 28.692 89.0742 29.0181Z" fill="#A3D562"/>
<path d="M107.256 9.92346L108.187 12.1883L104.944 13.5214L108.951 23.2673L106.583 24.2407L102.577 14.4948L99.3508 15.8209L98.4197 13.556L107.256 9.92346Z" fill="#A3D562"/>
<path d="M118.756 17.1181L123.98 15.487L124.71 17.8245L117.042 20.2186L113.172 7.82278L120.751 5.4563L121.481 7.79381L116.345 9.39727L117.169 12.0358L121.862 10.5706L122.581 12.8726L117.888 14.3379L118.756 17.1181Z" fill="#A3D562"/>
<path d="M139.491 14.4004L136.606 15.0182L130.797 10.0396L132.071 15.9896L129.568 16.5257L126.848 3.82764L129.352 3.29146L130.552 8.89675L133.705 2.35898L136.59 1.74121L133.212 8.91514L139.491 14.4004Z" fill="#A3D562"/>
<path d="M152.612 12.7094L151.579 10.4724L146.435 11.0449L145.919 13.4542L143.172 13.7599L146.253 0.35086L149.405 0L155.377 12.4016L152.612 12.7094ZM146.981 8.57614L150.521 8.1822L148.164 3.10599L146.981 8.57614Z" fill="#A3D562"/>
<path d="M170.083 8.22234C169.366 8.20399 168.76 7.94107 168.266 7.43355C167.784 6.914 167.553 6.29567 167.571 5.57858C167.589 4.88622 167.851 4.29909 168.358 3.8172C168.878 3.33562 169.496 3.104 170.213 3.12235C170.906 3.14006 171.493 3.40251 171.975 3.90971C172.457 4.4169 172.689 5.01668 172.671 5.70904C172.653 6.42613 172.39 7.03181 171.882 7.52606C171.375 8.00796 170.775 8.24005 170.083 8.22234Z" fill="#A3D562"/>
<path d="M193.447 14.527L194.725 6.70921L187.955 13.6294L186.032 13.3153L188.127 0.499268L190.653 0.912138L189.373 8.74824L196.146 1.80968L198.068 2.12382L195.974 14.9398L193.447 14.527Z" fill="#A3D562"/>
<path d="M214.223 6.12206L210.831 18.6572L208.36 17.9885L211.112 7.81711L206.689 6.62017L203.937 16.7915L201.466 16.1228L204.858 3.58765L214.223 6.12206Z" fill="#A3D562"/>
<path d="M227.318 22.8721C225.622 23.6001 223.9 23.6197 222.15 22.931C220.401 22.2423 219.155 21.0536 218.411 19.365C217.683 17.6694 217.665 15.9412 218.359 14.1806C219.052 12.4199 220.24 11.1733 221.925 10.4407C223.625 9.70117 225.349 9.67578 227.098 10.3646C228.848 11.0533 230.092 12.2477 230.832 13.9478C231.576 15.6365 231.601 17.3611 230.908 19.1218C230.214 20.8825 229.018 22.1326 227.318 22.8721ZM220.724 18.4017C221.182 19.4327 221.963 20.1657 223.068 20.6007C224.173 21.0357 225.244 21.0322 226.282 20.5902C227.325 20.1367 228.072 19.3346 228.526 18.1838C228.979 17.0331 228.979 15.9364 228.525 14.8939C228.072 13.8514 227.292 13.1126 226.188 12.6776C225.083 12.2426 224.009 12.2519 222.967 12.7053C221.924 13.1588 221.176 13.9609 220.723 15.1117C220.27 16.2625 220.27 17.3591 220.724 18.4017Z" fill="#A3D562"/>
<path d="M247.043 19.9744L245.914 22.147L242.803 20.5293L237.941 29.878L235.67 28.6969L240.532 19.3481L237.437 17.739L238.567 15.5664L247.043 19.9744Z" fill="#A3D562"/>
<path d="M248.965 33.4023L253.581 36.3413L252.266 38.407L245.49 34.0931L252.464 23.1385L259.162 27.4028L257.847 29.4685L253.308 26.5792L251.824 28.9109L255.971 31.5511L254.676 33.5854L250.529 30.9454L248.965 33.4023Z" fill="#A3D562"/>
<path d="M264.419 47.4911L262.086 45.6859L262.142 38.0353L258.418 42.8476L256.393 41.2809L264.341 31.0106L266.365 32.5774L262.857 37.111L269.887 35.3021L272.219 37.1073L264.559 39.1552L264.419 47.4911Z" fill="#A3D562"/>
<path d="M274.176 56.4252L275.219 54.1928L271.463 50.6318L269.289 51.792L267.283 49.8903L279.516 43.5933L281.818 45.7759L276.196 58.3397L274.176 56.4252ZM273.702 49.4567L276.287 51.9073L278.645 46.8316L273.702 49.4567Z" fill="#A3D562"/>
<path d="M288.876 66.8793C288.428 66.3196 288.238 65.6872 288.307 64.9822C288.393 64.279 288.716 63.7031 289.276 63.2545C289.816 62.8214 290.434 62.6431 291.129 62.7197C291.833 62.806 292.408 63.129 292.857 63.6887C293.29 64.2291 293.469 64.8471 293.392 65.5425C293.315 66.2379 293.007 66.8022 292.466 67.2353C291.907 67.6839 291.274 67.8738 290.569 67.8049C289.874 67.7283 289.309 67.4198 288.876 66.8793Z" fill="#A3D562"/>
<path d="M299.133 88.7985L305.93 84.7308L296.275 84.0228L295.275 82.3513L306.418 75.6831L307.733 77.8799L300.919 81.957L310.59 82.6555L311.591 84.327L300.447 90.9953L299.133 88.7985Z" fill="#A3D562"/>
<path d="M318.957 99.2493L307.191 104.745L306.108 102.425L315.655 97.966L313.716 93.8144L304.169 98.2735L303.086 95.9539L314.852 90.4585L318.957 99.2493Z" fill="#A3D562"/>
<path d="M314.608 120.06C312.958 119.234 311.832 117.931 311.229 116.15C310.627 114.37 310.731 112.65 311.541 110.992C312.367 109.342 313.676 108.214 315.469 107.608C317.261 107.001 318.98 107.105 320.627 107.92C322.289 108.741 323.421 110.043 324.023 111.824C324.625 113.604 324.515 115.326 323.693 116.988C322.883 118.645 321.582 119.778 319.789 120.384C317.997 120.99 316.27 120.882 314.608 120.06ZM313.77 112.138C313.277 113.153 313.221 114.223 313.602 115.348C313.982 116.473 314.676 117.289 315.683 117.797C316.702 118.301 317.798 118.355 318.969 117.959C320.141 117.562 320.979 116.855 321.483 115.836C321.987 114.817 322.048 113.745 321.668 112.62C321.288 111.495 320.588 110.681 319.569 110.177C318.55 109.673 317.454 109.619 316.283 110.015C315.111 110.412 314.273 111.119 313.77 112.138Z" fill="#A3D562"/>
<path d="M329.548 133.263L327.159 133.801L326.388 130.381L316.109 132.698L315.546 130.2L325.825 127.883L325.058 124.481L327.447 123.942L329.548 133.263Z" fill="#A3D562"/>
<path d="M320.529 143.394L321.261 148.817L318.835 149.145L317.759 141.185L330.628 139.446L331.691 147.314L329.265 147.642L328.544 142.311L325.805 142.681L326.463 147.553L324.073 147.876L323.415 143.004L320.529 143.394Z" fill="#A3D562"/>
<path d="M319.734 164.291L319.609 161.344L325.49 156.45L319.411 156.71L319.302 154.152L332.276 153.598L332.385 156.156L326.658 156.401L332.575 160.604L332.701 163.551L326.194 159.02L319.734 164.291Z" fill="#A3D562"/>
<path d="M319.203 177.51L321.582 176.867L321.879 171.699L319.591 170.787L319.749 168.027L332.453 173.311L332.27 176.478L319.044 180.288L319.203 177.51ZM324.222 172.652L324.017 176.208L329.416 174.735L324.222 172.652Z" fill="#A3D562"/>
<path d="M319.7 194.486C319.838 193.782 320.198 193.229 320.782 192.827C321.375 192.439 322.023 192.314 322.727 192.453C323.406 192.586 323.941 192.943 324.331 193.524C324.719 194.117 324.844 194.765 324.706 195.469C324.572 196.149 324.215 196.684 323.634 197.074C323.053 197.464 322.423 197.592 321.744 197.459C321.04 197.32 320.487 196.96 320.085 196.377C319.694 195.796 319.566 195.166 319.7 194.486Z" fill="#A3D562"/>
<path d="M309.569 216.464L317.062 219.033L311.374 211.199L312.006 209.357L324.29 213.568L323.459 215.99L315.949 213.415L321.654 221.255L321.023 223.097L308.738 218.886L309.569 216.464Z" fill="#A3D562"/>
<path d="M314.375 238.354L302.586 232.909L303.659 230.585L313.225 235.003L315.146 230.843L305.58 226.425L306.653 224.101L318.443 229.545L314.375 238.354Z" fill="#A3D562"/>
<path d="M295.667 248.457C295.233 246.663 295.503 244.962 296.475 243.353C297.447 241.744 298.828 240.714 300.617 240.263C302.411 239.83 304.117 240.102 305.737 241.081C307.356 242.059 308.386 243.44 308.826 245.223C309.271 247.023 309.007 248.727 308.035 250.336C307.062 251.945 305.676 252.972 303.876 253.416C302.087 253.867 300.383 253.603 298.763 252.624C297.143 251.646 296.111 250.257 295.667 248.457ZM301.179 242.705C300.086 242.984 299.232 243.632 298.618 244.648C298.004 245.664 297.828 246.721 298.09 247.818C298.363 248.922 299.028 249.794 300.087 250.433C301.145 251.073 302.226 251.256 303.33 250.984C304.434 250.711 305.293 250.067 305.907 249.051C306.521 248.035 306.691 246.975 306.419 245.871C306.147 244.767 305.481 243.895 304.423 243.256C303.364 242.616 302.283 242.433 301.179 242.705Z" fill="#A3D562"/>
<path d="M295.219 268.389L293.266 266.911L295.382 264.116L286.98 257.757L288.525 255.715L296.927 262.074L299.032 259.293L300.985 260.771L295.219 268.389Z" fill="#A3D562"/>
<path d="M281.66 268.034L277.989 272.093L276.173 270.451L281.561 264.493L291.192 273.204L285.866 279.093L284.05 277.45L287.659 273.46L285.608 271.606L282.311 275.252L280.522 273.634L283.82 269.988L281.66 268.034Z" fill="#A3D562"/>
<path d="M265.18 280.909L267.351 278.912L274.884 280.248L270.764 275.771L272.647 274.037L281.441 283.593L279.557 285.327L275.675 281.108L276.281 288.342L274.111 290.339L273.375 282.444L265.18 280.909Z" fill="#A3D562"/>
<path d="M254.738 289.032L256.764 290.434L260.904 287.327L260.125 284.99L262.336 283.331L266.494 296.446L263.957 298.35L252.512 290.702L254.738 289.032ZM261.688 289.732L258.839 291.869L263.448 295.044L261.688 289.732Z" fill="#A3D562"/>
<path d="M238.719 303.522C239.346 303.174 240.001 303.093 240.685 303.279C241.363 303.482 241.877 303.896 242.225 304.523C242.562 305.129 242.634 305.768 242.442 306.441C242.239 307.119 241.824 307.633 241.197 307.981C240.592 308.318 239.953 308.39 239.28 308.198C238.607 308.006 238.103 307.607 237.766 307.002C237.418 306.375 237.337 305.72 237.523 305.036C237.715 304.363 238.113 303.859 238.719 303.522Z" fill="#A3D562"/>
<path d="M212.041 309.642L214.415 317.2L217.351 307.975L219.209 307.391L223.1 319.78L220.658 320.547L218.279 312.972L215.348 322.215L213.49 322.799L209.598 310.41L212.041 309.642Z" fill="#A3D562"/>
<path d="M197.262 326.491L194.656 313.769L197.164 313.255L199.279 323.578L203.768 322.659L201.653 312.336L204.161 311.822L206.767 324.544L197.262 326.491Z" fill="#A3D562"/>
<path d="M178.034 317.417C179.221 316.004 180.751 315.212 182.623 315.041C184.495 314.87 186.143 315.371 187.567 316.545C188.98 317.732 189.772 319.268 189.944 321.152C190.117 323.037 189.616 324.685 188.441 326.096C187.255 327.521 185.725 328.319 183.853 328.49C181.981 328.662 180.333 328.154 178.908 326.968C177.484 325.794 176.686 324.265 176.514 322.381C176.341 320.496 176.848 318.842 178.034 317.417ZM185.934 318.445C185.061 317.73 184.034 317.427 182.851 317.535C181.669 317.643 180.714 318.128 179.985 318.989C179.258 319.863 178.95 320.916 179.063 322.148C179.176 323.379 179.669 324.359 180.543 325.086C181.417 325.813 182.445 326.123 183.627 326.015C184.809 325.907 185.764 325.416 186.491 324.542C187.219 323.668 187.526 322.615 187.413 321.384C187.301 320.152 186.808 319.173 185.934 318.445Z" fill="#A3D562"/>
<path d="M161.718 328.874L161.751 326.425L165.256 326.471L165.396 315.935L167.956 315.969L167.816 326.505L171.304 326.551L171.271 329L161.718 328.874Z" fill="#A3D562"/>
<path d="M153.964 317.743L148.519 317.194L148.764 314.757L156.757 315.564L155.452 328.485L147.553 327.687L147.798 325.251L153.151 325.791L153.429 323.041L148.538 322.547L148.78 320.148L153.671 320.641L153.964 317.743Z" fill="#A3D562"/>
<path d="M133.826 312.107L136.721 312.671L140.111 319.53L141.274 313.557L143.787 314.046L141.306 326.793L138.793 326.304L139.888 320.677L134.422 325.453L131.527 324.889L137.449 319.616L133.826 312.107Z" fill="#A3D562"/>
<path d="M121.093 308.514L121.165 310.977L126.121 312.469L127.541 310.455L130.188 311.252L122.092 322.377L119.055 321.462L118.428 307.712L121.093 308.514ZM124.65 314.525L121.239 313.498L121.415 319.092L124.65 314.525Z" fill="#A3D562"/>
</g>
<defs>
<clipPath id="clip0_535_2566">
<rect width="333" height="329" fill="white"/>
</clipPath>
</defs>
</svg>
