<svg width="333" height="327" viewBox="0 0 333 327" fill="none" xmlns="http://www.w3.org/2000/svg">
<path d="M83.2218 298.958C83.8301 299.338 84.2182 299.872 84.3861 300.561C84.537 301.253 84.4223 301.903 84.0422 302.511C83.6752 303.099 83.1509 303.471 82.4692 303.628C81.777 303.779 81.1268 303.665 80.5184 303.285C79.9311 302.918 79.5587 302.393 79.4013 301.712C79.2439 301.03 79.3487 300.395 79.7157 299.808C80.0958 299.2 80.63 298.812 81.3182 298.644C81.9999 298.486 82.6344 298.591 83.2218 298.958Z" fill="#A3D562"/>
<path d="M66.2999 281.658L61.2278 287.742L70.5749 285.221L72.0711 286.468L63.7563 296.443L61.7898 294.804L66.8737 288.705L57.5148 291.241L56.0185 289.993L64.3334 280.018L66.2999 281.658Z" fill="#A3D562"/>
<path d="M44.135 278.342L53.4251 269.269L55.2139 271.1L47.6757 278.463L50.8774 281.741L58.4156 274.378L60.2045 276.21L50.9144 285.283L44.135 278.342Z" fill="#A3D562"/>
<path d="M41.3661 257.263C43.1964 257.497 44.6899 258.355 45.8466 259.837C47.0034 261.319 47.4733 262.976 47.2563 264.809C47.0219 266.639 46.1589 268.136 44.6673 269.301C43.1757 270.465 41.5185 270.935 39.6958 270.71C37.8557 270.483 36.3573 269.629 35.2006 268.147C34.0439 266.665 33.5789 265.004 33.8056 263.164C34.0226 261.332 34.8769 259.833 36.3685 258.669C37.8601 257.505 39.526 257.036 41.3661 257.263ZM44.7744 264.463C44.9037 263.342 44.603 262.314 43.8724 261.378C43.1419 260.442 42.2173 259.901 41.0987 259.754C39.9703 259.615 38.9187 259.926 37.9438 260.687C36.9689 261.448 36.4119 262.393 36.2729 263.521C36.1338 264.65 36.4296 265.682 37.1602 266.618C37.8907 267.554 38.8202 268.091 39.9485 268.23C41.0769 268.369 42.1285 268.058 43.1034 267.297C44.0783 266.536 44.6353 265.591 44.7744 264.463Z" fill="#A3D562"/>
<path d="M22.9038 249.737L24.9807 248.44L26.8383 251.414L35.7752 245.831L37.1315 248.002L28.1946 253.585L30.0424 256.543L27.9655 257.84L22.9038 249.737Z" fill="#A3D562"/>
<path d="M28.0702 237.195L25.5869 232.318L27.7691 231.207L31.414 238.365L19.8419 244.258L16.239 237.182L18.4212 236.071L20.8624 240.865L23.3256 239.611L21.0949 235.23L23.244 234.136L25.4747 238.517L28.0702 237.195Z" fill="#A3D562"/>
<path d="M21.9168 217.209L23.0091 219.949L19.0741 226.51L24.7265 224.257L25.6745 226.635L13.6116 231.444L12.6636 229.066L17.9885 226.943L11.0149 224.93L9.92258 222.19L17.5609 224.318L21.9168 217.209Z" fill="#A3D562"/>
<path d="M18.0509 204.556L16.0186 205.949L17.4448 210.925L19.9065 211.03L20.6681 213.687L6.9324 212.896L6.05827 209.846L17.2841 201.881L18.0509 204.556ZM14.9193 210.799L13.9379 207.375L9.32828 210.549L14.9193 210.799Z" fill="#A3D562"/>
<path d="M10.7003 188.084C10.8023 188.794 10.6446 189.435 10.2271 190.007C9.79554 190.569 9.22476 190.901 8.51473 191.003C7.82919 191.102 7.20638 190.941 6.64633 190.522C6.08451 190.09 5.75257 189.52 5.65051 188.81C5.55198 188.124 5.71235 187.501 6.13164 186.941C6.55093 186.381 7.10335 186.052 7.78889 185.953C8.49892 185.851 9.14009 186.009 9.71238 186.426C10.2724 186.846 10.6017 187.398 10.7003 188.084Z" fill="#A3D562"/>
<path d="M13.0021 163.993L5.08073 164.044L13.0374 169.559L13.0498 171.507L0.0640292 171.589L0.0477566 169.029L7.98764 168.979L0.0123813 163.464L0 161.516L12.9858 161.433L13.0021 163.993Z" fill="#A3D562"/>
<path d="M1.23464 144.92L14.161 146.164L13.9157 148.712L3.42692 147.703L2.98796 152.264L13.4767 153.273L13.2315 155.822L0.305166 154.578L1.23464 144.92Z" fill="#A3D562"/>
<path d="M15.5542 129.204C16.556 130.754 16.8639 132.449 16.478 134.289C16.092 136.128 15.129 137.557 13.5889 138.573C12.0393 139.575 10.3385 139.882 8.48653 139.493C6.63458 139.105 5.20644 138.142 4.20211 136.604C3.18821 135.052 2.87423 133.356 3.26017 131.516C3.64612 129.676 4.61518 128.249 6.16738 127.235C7.70746 126.219 9.40348 125.905 11.2554 126.293C13.1074 126.682 14.5403 127.652 15.5542 129.204ZM12.2517 136.454C13.1914 135.83 13.7831 134.936 14.0269 133.774C14.2706 132.612 14.0877 131.557 13.4781 130.608C12.8563 129.656 11.9403 129.053 10.7298 128.799C9.51941 128.545 8.43829 128.729 7.48647 129.351C6.53466 129.972 5.93687 130.864 5.69312 132.026C5.44936 133.188 5.63835 134.245 6.26008 135.197C6.88182 136.149 7.79789 136.752 9.00832 137.006C10.2187 137.26 11.2999 137.076 12.2517 136.454Z" fill="#A3D562"/>
<path d="M9.39258 110.243L11.7238 110.993L10.6501 114.33L20.6812 117.557L19.8973 119.994L9.8662 116.768L8.79825 120.088L6.46708 119.338L9.39258 110.243Z" fill="#A3D562"/>
<path d="M22.3088 106.098L24.4328 101.055L26.6897 102.005L23.572 109.408L11.6039 104.368L14.6856 97.0504L16.9424 98.0008L14.8544 102.959L17.4019 104.032L19.3099 99.5011L21.5326 100.437L19.6245 104.968L22.3088 106.098Z" fill="#A3D562"/>
<path d="M33.609 88.503L32.2202 91.1053L24.6683 92.332L30.0365 95.1969L28.8311 97.4555L17.3745 91.3413L18.5799 89.0827L23.6372 91.7817L20.6762 85.1547L22.065 82.5524L25.3674 89.7611L33.609 88.503Z" fill="#A3D562"/>
<path d="M40.7828 77.3859L38.4072 76.7319L35.5258 81.0316L37.0339 82.9801L35.4951 85.2764L27.2376 74.2714L29.0036 71.6361L42.3319 75.0743L40.7828 77.3859ZM33.9922 79.0213L35.9751 76.0623L30.5761 74.5881L33.9922 79.0213Z" fill="#A3D562"/>
<path d="M48.6254 61.1429C48.1488 61.679 47.5571 61.9721 46.8505 62.0223C46.1428 62.0551 45.521 61.8331 44.9849 61.3565C44.4673 60.8962 44.1881 60.3169 44.1471 59.6185C44.1144 58.9108 44.3363 58.289 44.813 57.7529C45.2732 57.2354 45.8525 56.9561 46.5509 56.9151C47.2493 56.8742 47.8573 57.0838 48.3749 57.544C48.911 58.0206 49.2041 58.6123 49.2543 59.3189C49.2953 60.0173 49.0856 60.6253 48.6254 61.1429Z" fill="#A3D562"/>
<path d="M68.5169 47.3589L63.3679 41.3391L64.2875 50.9765L62.8073 52.2426L54.3663 42.3741L56.3118 40.71L61.4729 46.7439L60.5412 37.0924L62.0215 35.8263L70.4624 45.6948L68.5169 47.3589Z" fill="#A3D562"/>
<path d="M75.498 26.0629L82.8871 36.7418L80.7818 38.1985L74.7861 29.5333L71.018 32.1406L77.0136 40.8058L74.9084 42.2625L67.5193 31.5836L75.498 26.0629Z" fill="#A3D562"/>
<path d="M96.7439 26.8643C96.2062 28.6295 95.11 29.9582 93.4553 30.8503C91.8006 31.7424 90.0881 31.928 88.3179 31.4071C86.5527 30.8694 85.2211 29.7677 84.3232 28.1021C83.4252 26.4365 83.2396 24.724 83.7664 22.9647C84.2982 21.1886 85.3915 19.8545 87.0462 18.9624C88.7009 18.0703 90.4163 17.8902 92.1924 18.422C93.9626 18.9429 95.2967 20.0362 96.1947 21.7018C97.0927 23.3674 97.2758 25.0883 96.7439 26.8643ZM89.0743 29.0181C90.1576 29.3334 91.2217 29.2093 92.2668 28.6458C93.3119 28.0824 94.0004 27.2616 94.3324 26.1833C94.6585 25.0942 94.5281 24.0054 93.9412 22.9167C93.3543 21.8281 92.5163 21.1207 91.4272 20.7946C90.3381 20.4685 89.271 20.5871 88.2259 21.1506C87.1808 21.714 86.4952 22.5403 86.1691 23.6294C85.843 24.7185 85.9734 25.8074 86.5603 26.896C87.1472 27.9846 87.9852 28.692 89.0743 29.0181Z" fill="#A3D562"/>
<path d="M107.256 9.92352L108.187 12.1884L104.944 13.5215L108.951 23.2674L106.583 24.2408L102.577 14.4949L99.3508 15.821L98.4197 13.5561L107.256 9.92352Z" fill="#A3D562"/>
<path d="M118.756 17.1181L123.98 15.487L124.71 17.8245L117.042 20.2186L113.172 7.82275L120.751 5.45627L121.481 7.79378L116.345 9.39724L117.169 12.0358L121.862 10.5706L122.581 12.8726L117.888 14.3379L118.756 17.1181Z" fill="#A3D562"/>
<path d="M139.491 14.4004L136.606 15.0182L130.797 10.0396L132.071 15.9896L129.568 16.5257L126.848 3.82768L129.352 3.2915L130.552 8.89679L133.705 2.35902L136.59 1.74125L133.212 8.91518L139.491 14.4004Z" fill="#A3D562"/>
<path d="M152.612 12.7094L151.579 10.4724L146.435 11.0449L145.919 13.4542L143.172 13.7599L146.253 0.350858L149.405 0L155.377 12.4016L152.612 12.7094ZM146.981 8.57614L150.521 8.1822L148.164 3.10599L146.981 8.57614Z" fill="#A3D562"/>
<path d="M170.083 8.2223C169.366 8.20395 168.76 7.94103 168.266 7.43351C167.784 6.91396 167.553 6.29563 167.571 5.57854C167.589 4.88618 167.851 4.29905 168.358 3.81716C168.878 3.33558 169.496 3.10396 170.213 3.12231C170.906 3.14002 171.493 3.40247 171.975 3.90967C172.457 4.41686 172.689 5.01664 172.671 5.709C172.653 6.42609 172.39 7.03177 171.882 7.52602C171.375 8.00792 170.775 8.24001 170.083 8.2223Z" fill="#A3D562"/>
<path d="M193.447 14.527L194.725 6.70916L187.955 13.6294L186.032 13.3153L188.127 0.499218L190.653 0.912088L189.373 8.74819L196.146 1.80963L198.068 2.12377L195.974 14.9398L193.447 14.527Z" fill="#A3D562"/>
<path d="M214.223 6.12211L210.831 18.6573L208.36 17.9886L211.112 7.81716L206.689 6.62022L203.937 16.7916L201.466 16.1229L204.858 3.5877L214.223 6.12211Z" fill="#A3D562"/>
<path d="M227.318 22.872C225.622 23.6 223.9 23.6196 222.15 22.9309C220.401 22.2422 219.155 21.0535 218.411 19.3649C217.683 17.6693 217.665 15.9411 218.359 14.1805C219.052 12.4198 220.24 11.1732 221.925 10.4406C223.625 9.70111 225.349 9.67572 227.098 10.3645C228.848 11.0532 230.092 12.2476 230.832 13.9477C231.576 15.6364 231.601 17.361 230.908 19.1217C230.214 20.8824 229.018 22.1325 227.318 22.872ZM220.724 18.4016C221.182 19.4326 221.963 20.1656 223.068 20.6006C224.173 21.0356 225.244 21.0321 226.282 20.5901C227.325 20.1366 228.072 19.3345 228.526 18.1837C228.979 17.033 228.979 15.9363 228.525 14.8938C228.072 13.8513 227.292 13.1125 226.188 12.6775C225.083 12.2425 224.009 12.2518 222.967 12.7052C221.924 13.1587 221.176 13.9608 220.723 15.1116C220.27 16.2624 220.27 17.359 220.724 18.4016Z" fill="#A3D562"/>
<path d="M247.043 19.9744L245.914 22.147L242.803 20.5293L237.941 29.878L235.67 28.6969L240.532 19.3481L237.437 17.739L238.567 15.5664L247.043 19.9744Z" fill="#A3D562"/>
<path d="M248.965 33.4023L253.581 36.3413L252.266 38.407L245.49 34.0931L252.464 23.1386L259.162 27.4028L257.847 29.4685L253.308 26.5792L251.824 28.911L255.971 31.5511L254.676 33.5855L250.529 30.9454L248.965 33.4023Z" fill="#A3D562"/>
<path d="M264.419 47.4911L262.086 45.6859L262.142 38.0353L258.418 42.8476L256.393 41.2809L264.341 31.0106L266.365 32.5774L262.857 37.111L269.887 35.3021L272.219 37.1073L264.559 39.1552L264.419 47.4911Z" fill="#A3D562"/>
<path d="M274.176 56.4251L275.219 54.1927L271.463 50.6317L269.289 51.7919L267.283 49.8902L279.516 43.5932L281.818 45.7758L276.196 58.3396L274.176 56.4251ZM273.702 49.4566L276.287 51.9072L278.645 46.8315L273.702 49.4566Z" fill="#A3D562"/>
<path d="M288.876 66.8792C288.428 66.3195 288.238 65.6871 288.307 64.9821C288.393 64.2789 288.716 63.703 289.276 63.2544C289.816 62.8213 290.434 62.643 291.129 62.7196C291.833 62.8059 292.408 63.1289 292.857 63.6886C293.29 64.229 293.469 64.847 293.392 65.5424C293.315 66.2378 293.007 66.8021 292.466 67.2352C291.907 67.6838 291.274 67.8737 290.569 67.8048C289.874 67.7282 289.309 67.4197 288.876 66.8792Z" fill="#A3D562"/>
<path d="M299.133 88.7985L305.93 84.7308L296.275 84.0228L295.275 82.3513L306.418 75.6831L307.733 77.8799L300.919 81.957L310.59 82.6555L311.591 84.327L300.447 90.9953L299.133 88.7985Z" fill="#A3D562"/>
<path d="M318.957 99.2493L307.191 104.745L306.108 102.425L315.655 97.966L313.716 93.8144L304.169 98.2735L303.086 95.9539L314.852 90.4585L318.957 99.2493Z" fill="#A3D562"/>
<path d="M314.608 120.06C312.958 119.234 311.832 117.931 311.229 116.15C310.627 114.37 310.731 112.65 311.541 110.992C312.367 109.342 313.676 108.214 315.469 107.608C317.261 107.001 318.98 107.105 320.627 107.92C322.289 108.741 323.421 110.043 324.023 111.824C324.625 113.604 324.515 115.326 323.693 116.988C322.883 118.645 321.582 119.778 319.789 120.384C317.997 120.99 316.27 120.882 314.608 120.06ZM313.77 112.138C313.277 113.153 313.221 114.223 313.602 115.348C313.982 116.473 314.676 117.289 315.683 117.797C316.702 118.301 317.798 118.355 318.969 117.959C320.141 117.562 320.979 116.855 321.483 115.836C321.987 114.817 322.048 113.745 321.668 112.62C321.288 111.495 320.588 110.681 319.569 110.177C318.55 109.673 317.454 109.619 316.283 110.015C315.111 110.412 314.273 111.119 313.77 112.138Z" fill="#A3D562"/>
<path d="M329.548 133.263L327.159 133.801L326.388 130.381L316.109 132.698L315.546 130.2L325.825 127.883L325.058 124.481L327.447 123.942L329.548 133.263Z" fill="#A3D562"/>
<path d="M320.529 143.394L321.261 148.817L318.835 149.145L317.759 141.185L330.628 139.446L331.691 147.314L329.265 147.642L328.544 142.311L325.805 142.681L326.463 147.553L324.073 147.876L323.415 143.004L320.529 143.394Z" fill="#A3D562"/>
<path d="M319.734 164.291L319.609 161.344L325.49 156.45L319.411 156.71L319.302 154.152L332.276 153.598L332.385 156.156L326.658 156.401L332.575 160.604L332.701 163.551L326.194 159.02L319.734 164.291Z" fill="#A3D562"/>
<path d="M319.203 177.51L321.582 176.867L321.879 171.699L319.591 170.787L319.749 168.027L332.453 173.311L332.27 176.478L319.044 180.288L319.203 177.51ZM324.222 172.652L324.017 176.208L329.416 174.735L324.222 172.652Z" fill="#A3D562"/>
<path d="M320.7 195.486C320.838 194.782 321.198 194.229 321.782 193.827C322.375 193.439 323.023 193.314 323.727 193.453C324.406 193.586 324.941 193.943 325.331 194.524C325.719 195.117 325.844 195.765 325.706 196.469C325.572 197.149 325.215 197.684 324.634 198.074C324.053 198.464 323.423 198.592 322.744 198.459C322.04 198.32 321.487 197.96 321.085 197.377C320.694 196.796 320.566 196.166 320.7 195.486Z" fill="#A3D562"/>
<path d="M310.569 217.464L318.062 220.033L312.374 212.199L313.006 210.357L325.29 214.568L324.459 216.99L316.949 214.415L322.654 222.255L322.023 224.097L309.738 219.886L310.569 217.464Z" fill="#A3D562"/>
<path d="M315.375 239.354L303.586 233.909L304.659 231.585L314.225 236.003L316.146 231.843L306.58 227.425L307.653 225.101L319.443 230.545L315.375 239.354Z" fill="#A3D562"/>
<path d="M296.667 249.457C296.233 247.663 296.503 245.962 297.475 244.353C298.447 242.744 299.828 241.714 301.617 241.263C303.411 240.83 305.117 241.102 306.737 242.081C308.356 243.059 309.386 244.44 309.826 246.223C310.271 248.023 310.007 249.727 309.035 251.336C308.062 252.945 306.676 253.972 304.876 254.416C303.087 254.867 301.383 254.603 299.763 253.624C298.143 252.646 297.111 251.257 296.667 249.457ZM302.179 243.705C301.086 243.984 300.232 244.632 299.618 245.648C299.004 246.664 298.828 247.721 299.09 248.818C299.363 249.922 300.028 250.794 301.087 251.433C302.145 252.073 303.226 252.256 304.33 251.984C305.434 251.711 306.293 251.067 306.907 250.051C307.521 249.035 307.691 247.975 307.419 246.871C307.147 245.767 306.481 244.895 305.423 244.256C304.364 243.616 303.283 243.433 302.179 243.705Z" fill="#A3D562"/>
<path d="M296.219 269.389L294.266 267.911L296.382 265.116L287.98 258.757L289.525 256.715L297.927 263.074L300.032 260.293L301.985 261.771L296.219 269.389Z" fill="#A3D562"/>
<path d="M282.66 269.034L278.989 273.093L277.173 271.451L282.561 265.493L292.192 274.204L286.866 280.093L285.05 278.45L288.659 274.46L286.608 272.606L283.311 276.252L281.522 274.634L284.82 270.988L282.66 269.034Z" fill="#A3D562"/>
<path d="M266.18 281.909L268.351 279.912L275.884 281.248L271.764 276.771L273.647 275.037L282.441 284.593L280.557 286.327L276.675 282.108L277.281 289.342L275.111 291.339L274.375 283.444L266.18 281.909Z" fill="#A3D562"/>
<path d="M255.738 290.032L257.764 291.434L261.904 288.327L261.125 285.99L263.336 284.331L267.494 297.446L264.957 299.35L253.512 291.702L255.738 290.032ZM262.688 290.732L259.839 292.869L264.448 296.044L262.688 290.732Z" fill="#A3D562"/>
<path d="M242.969 302.772C243.596 302.424 244.251 302.343 244.935 302.529C245.613 302.732 246.127 303.146 246.475 303.773C246.812 304.379 246.884 305.018 246.692 305.691C246.489 306.369 246.074 306.883 245.447 307.231C244.842 307.568 244.203 307.64 243.53 307.448C242.857 307.256 242.353 306.857 242.016 306.252C241.668 305.625 241.587 304.97 241.773 304.286C241.965 303.613 242.363 303.109 242.969 302.772Z" fill="#A3D562"/>
<path d="M206.041 307.642L208.415 315.2L211.351 305.975L213.209 305.391L217.1 317.78L214.658 318.547L212.279 310.972L209.348 320.215L207.49 320.799L203.598 308.41L206.041 307.642Z" fill="#A3D562"/>
<path d="M191.262 324.491L188.656 311.769L191.164 311.255L193.279 321.578L197.768 320.659L195.653 310.336L198.161 309.822L200.767 322.544L191.262 324.491Z" fill="#A3D562"/>
<path d="M172.034 315.417C173.221 314.004 174.751 313.212 176.623 313.041C178.495 312.87 180.143 313.371 181.567 314.545C182.98 315.732 183.772 317.268 183.944 319.152C184.117 321.037 183.616 322.685 182.441 324.096C181.255 325.521 179.725 326.319 177.853 326.49C175.981 326.662 174.333 326.154 172.908 324.968C171.484 323.794 170.686 322.265 170.514 320.381C170.341 318.496 170.848 316.842 172.034 315.417ZM179.934 316.445C179.061 315.73 178.034 315.427 176.851 315.535C175.669 315.643 174.714 316.128 173.985 316.989C173.258 317.863 172.95 318.916 173.063 320.148C173.176 321.379 173.669 322.359 174.543 323.086C175.417 323.813 176.445 324.123 177.627 324.015C178.809 323.907 179.764 323.416 180.491 322.542C181.219 321.668 181.526 320.615 181.413 319.384C181.301 318.152 180.808 317.173 179.934 316.445Z" fill="#A3D562"/>
<path d="M155.718 326.874L155.751 324.425L159.256 324.471L159.396 313.935L161.956 313.969L161.816 324.505L165.304 324.551L165.271 327L155.718 326.874Z" fill="#A3D562"/>
<path d="M147.964 315.743L142.519 315.194L142.764 312.757L150.757 313.564L149.452 326.485L141.553 325.687L141.798 323.251L147.151 323.791L147.429 321.041L142.538 320.547L142.78 318.148L147.671 318.641L147.964 315.743Z" fill="#A3D562"/>
<path d="M127.826 310.107L130.721 310.671L134.111 317.53L135.274 311.557L137.787 312.046L135.306 324.793L132.793 324.304L133.888 318.677L128.422 323.453L125.527 322.889L131.449 317.616L127.826 310.107Z" fill="#A3D562"/>
<path d="M115.093 306.514L115.165 308.977L120.121 310.469L121.541 308.455L124.188 309.252L116.092 320.377L113.055 319.462L112.428 305.712L115.093 306.514ZM118.65 312.525L115.239 311.498L115.415 317.092L118.65 312.525Z" fill="#A3D562"/>
</svg>
