<svg width="210" height="184" viewBox="0 0 210 184" fill="none" xmlns="http://www.w3.org/2000/svg">
<g clip-path="url(#clip0_535_2515)">
<path d="M33.9932 114.414L29.7216 115.588L34.8178 117.415L35.1064 118.465L28.1039 120.39L27.7245 119.009L32.0061 117.833L26.8999 116.008L26.6113 114.958L33.6138 113.034L33.9932 114.414Z" fill="#A3D562"/>
<path d="M24.8762 105.814L32.0386 104.615L32.2749 106.027L26.4632 107L26.8862 109.528L32.698 108.555L32.9343 109.967L25.7719 111.166L24.8762 105.814Z" fill="#A3D562"/>
<path d="M30.3367 95.2528C31.1021 95.9449 31.5137 96.8158 31.5715 97.8654C31.6294 98.9151 31.3159 99.8259 30.6311 100.598C29.939 101.363 29.0647 101.775 28.0081 101.833C26.9515 101.892 26.0407 101.578 25.2757 100.893C24.5033 100.201 24.0883 99.3305 24.0304 98.2808C23.9726 97.2312 24.2896 96.3202 24.9813 95.5478C25.666 94.7759 26.5367 94.3608 27.5933 94.3026C28.6499 94.2444 29.5643 94.5611 30.3367 95.2528ZM29.602 99.6467C30.0193 99.1735 30.2096 98.6054 30.1731 97.9425C30.1366 97.2795 29.885 96.7358 29.4183 96.3113C28.9447 95.8871 28.3626 95.694 27.672 95.7321C26.9815 95.7701 26.4241 96.0259 26 96.4995C25.5758 96.9732 25.382 97.5414 25.4185 98.2044C25.455 98.8673 25.7101 99.4109 26.1837 99.835C26.6573 100.259 27.2394 100.452 27.9299 100.414C28.6205 100.376 29.1779 100.12 29.602 99.6467Z" fill="#A3D562"/>
<path d="M24.2639 85.9023L25.6316 85.9699L25.5348 87.9283L31.4202 88.2193L31.3495 89.6492L25.4641 89.3582L25.3677 91.3062L24 91.2385L24.2639 85.9023Z" fill="#A3D562"/>
<path d="M30.6408 81.7941L31.0581 78.7622L32.4147 78.949L31.8022 83.3991L24.6079 82.4088L25.2134 78.0101L26.57 78.1968L26.1598 81.1773L27.6911 81.3881L28.066 78.6646L29.4021 78.8485L29.0272 81.572L30.6408 81.7941Z" fill="#A3D562"/>
<path d="M34.198 70.6542L33.8245 72.2609L29.9228 74.0165L33.2372 74.7871L32.913 76.1815L25.8396 74.537L26.1638 73.1426L29.2862 73.8685L26.7276 70.7174L27.1011 69.1107L29.9283 72.5266L34.198 70.6542Z" fill="#A3D562"/>
<path d="M36.4642 63.6108L35.0864 63.6014L34.1523 66.341L35.2489 67.1752L34.75 68.6383L28.6968 63.8889L29.2693 62.2098L36.9664 62.1379L36.4642 63.6108ZM33.0329 65.477L33.6757 63.5917L30.546 63.5768L33.0329 65.477Z" fill="#A3D562"/>
<path d="M38.3495 53.7017C38.1696 54.0603 37.8924 54.3042 37.518 54.4336C37.1405 54.5537 36.7725 54.5239 36.4139 54.344C36.0677 54.1703 35.833 53.8978 35.7098 53.5265C35.5897 53.1489 35.6196 52.7809 35.7995 52.4224C35.9732 52.0762 36.2457 51.8415 36.617 51.7183C36.9883 51.595 37.3471 51.6203 37.6933 51.794C38.0518 51.9738 38.2958 52.251 38.4252 52.6254C38.5484 52.9968 38.5232 53.3555 38.3495 53.7017Z" fill="#A3D562"/>
<path d="M47.099 43.3771L43.4464 40.8707L45.338 45.9434L44.7217 46.8415L38.7339 42.7326L39.5439 41.5522L43.205 44.0645L41.3049 38.986L41.9212 38.0878L47.909 42.1967L47.099 43.3771Z" fill="#A3D562"/>
<path d="M47.7879 30.8634L53.3248 35.5623L52.3984 36.6539L47.9056 32.841L46.2476 34.7948L50.7404 38.6076L49.814 39.6992L44.2771 35.0003L47.7879 30.8634Z" fill="#A3D562"/>
<path d="M59.3799 28.2212C59.345 29.2526 58.9451 30.1289 58.1804 30.8503C57.4157 31.5717 56.5176 31.9198 55.486 31.8946C54.4547 31.8597 53.5759 31.4573 52.8498 30.6876C52.1237 29.9178 51.7756 29.0197 51.8055 27.9931C51.8357 26.9568 52.2332 26.0779 52.9979 25.3565C53.7626 24.6351 54.6631 24.2895 55.6994 24.3198C56.731 24.3449 57.6099 24.7424 58.336 25.5121C59.0622 26.2818 59.4101 27.1849 59.3799 28.2212ZM55.5488 30.4947C56.1796 30.5082 56.7364 30.2871 57.2194 29.8315C57.7024 29.3759 57.9555 28.8329 57.9787 28.2024C57.9973 27.5669 57.7692 26.9976 57.2946 26.4945C56.82 25.9914 56.265 25.7306 55.6295 25.7121C54.994 25.6936 54.4348 25.9121 53.9518 26.3677C53.4688 26.8233 53.2181 27.3689 53.1996 28.0044C53.181 28.6399 53.4091 29.2092 53.8837 29.7123C54.3583 30.2154 54.9133 30.4762 55.5488 30.4947Z" fill="#A3D562"/>
<path d="M62.6063 17.549L63.4371 18.6376L61.8783 19.827L65.453 24.5115L64.3149 25.38L60.7402 20.6955L59.1897 21.8787L58.3589 20.7901L62.6063 17.549Z" fill="#A3D562"/>
<path d="M69.8596 19.7707L72.4453 18.1335L73.1779 19.2905L69.3826 21.6936L65.4978 15.558L69.2493 13.1827L69.9818 14.3397L67.4399 15.9491L68.2668 17.2551L70.5896 15.7844L71.3111 16.9239L68.9883 18.3946L69.8596 19.7707Z" fill="#A3D562"/>
<path d="M80.6663 15.3017L79.1978 16.0528L75.3392 14.2044L76.8887 17.2339L75.6141 17.8858L72.3071 11.4204L73.5817 10.7685L75.0415 13.6225L75.7984 9.63471L77.267 8.88354L76.4811 13.2474L80.6663 15.3017Z" fill="#A3D562"/>
<path d="M87.5091 12.4891L86.6274 11.4303L83.9316 12.4841L84.0017 13.8602L82.562 14.4229L82.2854 6.73386L83.9377 6.08801L88.9585 11.9226L87.5091 12.4891ZM83.8695 11.0714L85.7247 10.3463L83.7169 7.94537L83.8695 11.0714Z" fill="#A3D562"/>
<path d="M96.2969 7.53659C95.9069 7.63047 95.5417 7.57611 95.2012 7.3735C94.8659 7.16256 94.6513 6.86208 94.5574 6.47208C94.4668 6.09553 94.5236 5.7404 94.7278 5.40668C94.9387 5.07135 95.2392 4.85675 95.6292 4.76287C96.0058 4.67222 96.3609 4.72901 96.6946 4.93324C97.0283 5.13746 97.2405 5.42784 97.3311 5.8044C97.425 6.1944 97.3707 6.55962 97.1681 6.90005C96.9638 7.23376 96.6734 7.44594 96.2969 7.53659Z" fill="#A3D562"/>
<path d="M109.83 7.56046L109.389 3.15266L106.733 7.87062L105.649 7.97918L104.926 0.753281L106.35 0.610611L106.793 5.02872L109.447 0.300451L110.531 0.191895L111.255 7.41779L109.83 7.56046Z" fill="#A3D562"/>
<path d="M119.836 0.013455L119.818 7.27548L118.386 7.27193L118.401 1.37932L115.839 1.37296L115.824 7.26558L114.392 7.26203L114.41 0L119.836 0.013455Z" fill="#A3D562"/>
<path d="M129.333 7.16595C128.523 7.80461 127.595 8.06451 126.551 7.94565C125.506 7.82679 124.661 7.36514 124.015 6.5607C123.376 5.75017 123.116 4.81921 123.236 3.76781C123.356 2.71641 123.817 1.87099 124.621 1.23155C125.432 0.586016 126.36 0.322681 127.405 0.441542C128.449 0.560404 129.294 1.02549 129.94 1.83681C130.586 2.64124 130.85 3.56916 130.73 4.62056C130.61 5.67196 130.145 6.52042 129.333 7.16595ZM125.125 5.70554C125.521 6.19617 126.049 6.47902 126.709 6.55409C127.369 6.62916 127.947 6.47221 128.444 6.08324C128.941 5.68739 129.229 5.14588 129.307 4.45869C129.386 3.7715 129.227 3.17916 128.831 2.68166C128.435 2.18415 127.907 1.89787 127.248 1.8228C126.588 1.74773 126.009 1.90812 125.512 2.30396C125.014 2.6998 124.726 3.24132 124.648 3.92851C124.57 4.61569 124.729 5.20804 125.125 5.70554Z" fill="#A3D562"/>
<path d="M139.569 2.74572L139.273 4.0828L137.359 3.65923L136.086 9.41273L134.688 9.10346L135.961 3.34996L134.057 2.92863L134.353 1.59155L139.569 2.74572Z" fill="#A3D562"/>
<path d="M142.55 9.72095L145.47 10.6403L145.058 11.9466L140.774 10.5971L142.955 3.67041L147.19 5.0043L146.779 6.31047L143.909 5.40666L143.445 6.88104L146.067 7.70693L145.662 8.9933L143.04 8.16741L142.55 9.72095Z" fill="#A3D562"/>
<path d="M152.937 15.0944L151.416 14.4569L150.339 10.3162L149.024 13.4547L147.704 12.9014L150.51 6.20349L151.83 6.75674L150.592 9.71338L154.127 7.71892L155.648 8.35636L151.807 10.5713L152.937 15.0944Z" fill="#A3D562"/>
<path d="M159.501 18.508L159.741 17.1512L157.197 15.7713L156.191 16.7126L154.832 15.9757L160.528 10.8037L162.088 11.6495L160.869 19.2498L159.501 18.508ZM158.236 14.8125L159.987 15.7621L160.526 12.6791L158.236 14.8125Z" fill="#A3D562"/>
<path d="M168.955 22.0273C168.631 21.7899 168.437 21.4757 168.372 21.0849C168.317 20.6926 168.408 20.3348 168.646 20.0115C168.875 19.6993 169.183 19.5135 169.57 19.4543C169.962 19.3991 170.32 19.4902 170.643 19.7276C170.955 19.9569 171.141 20.2648 171.2 20.6516C171.26 21.0383 171.175 21.3878 170.945 21.7C170.708 22.0233 170.394 22.2174 170.003 22.2822C169.616 22.3415 169.267 22.2565 168.955 22.0273Z" fill="#A3D562"/>
<path d="M177.667 32.3828L180.75 29.2017L175.433 30.2167L174.65 29.4586L179.704 24.2438L180.732 25.2402L177.642 28.4287L182.967 27.4062L183.75 28.1643L178.696 33.3791L177.667 32.3828Z" fill="#A3D562"/>
<path d="M189.889 35.1586L184.328 39.83L183.408 38.7339L187.919 34.9434L186.271 32.9814L181.759 36.7719L180.838 35.6758L186.398 31.0044L189.889 35.1586Z" fill="#A3D562"/>
<path d="M190.551 47.0295C189.54 46.8222 188.743 46.2812 188.16 45.4065C187.577 44.5317 187.385 43.588 187.582 42.5751C187.789 41.5643 188.333 40.7654 189.214 40.1785C190.094 39.5916 191.038 39.3988 192.045 39.6003C193.062 39.8038 193.862 40.3428 194.445 41.2176C195.028 42.0924 195.218 43.038 195.014 44.0547C194.817 45.0675 194.277 45.8673 193.397 46.4542C192.516 47.0412 191.568 47.2329 190.551 47.0295ZM188.952 42.8716C188.833 43.4912 188.957 44.0772 189.326 44.6297C189.694 45.1822 190.187 45.5227 190.805 45.6513C191.428 45.776 192.027 45.6466 192.603 45.263C193.178 44.8794 193.529 44.3759 193.653 43.7525C193.778 43.129 193.656 42.5411 193.288 41.9886C192.92 41.4361 192.424 41.0975 191.8 40.9728C191.177 40.8481 190.578 40.9775 190.002 41.3611C189.427 41.7447 189.077 42.2482 188.952 42.8716Z" fill="#A3D562"/>
<path d="M200.532 51.9985L199.32 52.6351L198.408 50.8991L193.191 53.6384L192.525 52.3709L197.743 49.6316L196.836 47.9047L198.048 47.2681L200.532 51.9985Z" fill="#A3D562"/>
<path d="M197.127 58.7766L198.307 61.6L197.044 62.1284L195.311 57.9841L202.011 55.1823L203.724 59.2786L202.46 59.807L201.3 57.0314L199.874 57.6278L200.934 60.1642L199.69 60.6846L198.629 58.1482L197.127 58.7766Z" fill="#A3D562"/>
<path d="M199.722 70.1792L199.228 68.6055L201.696 65.1111L198.45 66.1312L198.021 64.7654L204.949 62.5884L205.378 63.9542L202.32 64.9152L206.125 66.3295L206.619 67.9032L202.449 66.3972L199.722 70.1792Z" fill="#A3D562"/>
<path d="M201.349 77.3967L202.54 76.7048L201.953 73.8705L200.585 73.7091L200.271 72.1954L207.898 73.211L208.258 74.9482L201.664 78.9204L201.349 77.3967ZM203.356 74.046L203.76 75.9965L206.464 74.4193L203.356 74.046Z" fill="#A3D562"/>
<path d="M204.759 86.8901C204.731 86.4899 204.846 86.1389 205.103 85.8373C205.367 85.542 205.699 85.3808 206.1 85.3536C206.486 85.3273 206.827 85.4428 207.121 85.7C207.417 85.9642 207.578 86.2964 207.605 86.6966C207.631 87.083 207.516 87.4236 207.259 87.7184C207.001 88.0131 206.679 88.1737 206.293 88.2C205.893 88.2272 205.542 88.1124 205.24 87.8556C204.945 87.5984 204.785 87.2765 204.759 86.8901Z" fill="#A3D562"/>
<path d="M202.467 100.228L206.887 100.531L202.68 97.1231L202.755 96.0363L210 96.5335L209.902 97.9618L205.472 97.6578L209.689 101.067L209.614 102.153L202.369 101.656L202.467 100.228Z" fill="#A3D562"/>
<path d="M208.232 111.356L201.076 110.122L201.319 108.711L207.126 109.713L207.561 107.188L201.754 106.186L201.998 104.775L209.154 106.01L208.232 111.356Z" fill="#A3D562"/>
<path d="M199.589 119.522C199.095 118.615 198.994 117.658 199.286 116.648C199.578 115.638 200.175 114.882 201.076 114.379C201.983 113.885 202.944 113.786 203.96 114.08C204.977 114.374 205.733 114.971 206.229 115.87C206.729 116.778 206.833 117.737 206.541 118.747C206.249 119.757 205.649 120.512 204.741 121.012C203.84 121.515 202.881 121.619 201.864 121.325C200.848 121.031 200.089 120.43 199.589 119.522ZM201.734 115.617C201.183 115.926 200.816 116.399 200.632 117.037C200.447 117.675 200.505 118.271 200.805 118.826C201.112 119.383 201.598 119.757 202.262 119.949C202.926 120.142 203.537 120.084 204.094 119.777C204.651 119.471 205.021 118.998 205.206 118.36C205.39 117.723 205.329 117.125 205.022 116.569C204.715 116.012 204.23 115.637 203.565 115.445C202.901 115.253 202.29 115.31 201.734 115.617Z" fill="#A3D562"/>
<path d="M202.232 130.353L200.963 129.838L201.701 128.021L196.242 125.802L196.781 124.476L202.24 126.695L202.975 124.888L204.243 125.404L202.232 130.353Z" fill="#A3D562"/>
<path d="M194.856 132.124L193.461 134.848L192.242 134.223L194.29 130.226L200.753 133.537L198.729 137.489L197.51 136.864L198.882 134.187L197.506 133.482L196.252 135.928L195.052 135.314L196.306 132.867L194.856 132.124Z" fill="#A3D562"/>
<path d="M187.818 141.464L188.701 140.071L192.964 139.702L190.09 137.88L190.857 136.671L196.99 140.56L196.223 141.769L193.516 140.052L194.89 143.872L194.006 145.265L192.466 141.107L187.818 141.464Z" fill="#A3D562"/>
<path d="M183.353 147.363L184.65 147.827L186.437 145.55L185.678 144.4L186.632 143.184L190.776 149.666L189.681 151.062L182.393 148.587L183.353 147.363ZM187.208 146.735L185.979 148.302L188.928 149.35L187.208 146.735Z" fill="#A3D562"/>
<path d="M177.299 156.593C177.588 156.314 177.93 156.175 178.326 156.177C178.722 156.188 179.06 156.338 179.339 156.626C179.608 156.904 179.739 157.239 179.733 157.63C179.722 158.026 179.572 158.364 179.284 158.643C179.005 158.912 178.671 159.044 178.279 159.037C177.888 159.031 177.558 158.889 177.289 158.61C177.01 158.322 176.871 157.98 176.872 157.584C176.879 157.193 177.021 156.862 177.299 156.593Z" fill="#A3D562"/>
<path d="M165.057 164.068L167.433 167.807L167.684 162.399L168.603 161.815L172.499 167.944L171.29 168.712L168.909 164.964L168.664 170.381L167.744 170.965L163.849 164.836L165.057 164.068Z" fill="#A3D562"/>
<path d="M159.513 175.308L156.264 168.814L157.544 168.173L160.181 173.443L162.472 172.297L159.836 167.027L161.116 166.386L164.365 172.881L159.513 175.308Z" fill="#A3D562"/>
<path d="M147.813 173.19C148.25 172.255 148.962 171.606 149.948 171.242C150.935 170.879 151.897 170.911 152.836 171.339C153.771 171.776 154.422 172.491 154.787 173.484C155.153 174.477 155.121 175.439 154.691 176.372C154.256 177.313 153.546 177.966 152.559 178.329C151.573 178.692 150.609 178.657 149.668 178.223C148.729 177.795 148.076 177.084 147.71 176.091C147.344 175.098 147.379 174.131 147.813 173.19ZM152.229 172.602C151.654 172.342 151.055 172.327 150.432 172.556C149.809 172.786 149.363 173.186 149.095 173.757C148.828 174.334 148.815 174.947 149.054 175.596C149.293 176.245 149.701 176.703 150.278 176.969C150.856 177.236 151.456 177.254 152.079 177.025C152.702 176.795 153.146 176.392 153.413 175.814C153.679 175.237 153.693 174.624 153.454 173.975C153.215 173.326 152.806 172.868 152.229 172.602Z" fill="#A3D562"/>
<path d="M140.658 181.74L140.321 180.413L142.222 179.93L140.772 174.219L142.16 173.866L143.609 179.578L145.5 179.098L145.837 180.425L140.658 181.74Z" fill="#A3D562"/>
<path d="M134.858 176.85L131.838 177.341L131.618 175.99L136.052 175.269L137.217 182.437L132.835 183.149L132.615 181.798L135.584 181.315L135.336 179.789L132.623 180.23L132.406 178.899L135.12 178.458L134.858 176.85Z" fill="#A3D562"/>
<path d="M123.165 176.72L124.811 176.606L127.634 179.82L127.398 176.425L128.826 176.326L129.331 183.57L127.903 183.67L127.68 180.472L125.419 183.843L123.773 183.957L126.209 180.252L123.165 176.72Z" fill="#A3D562"/>
<path d="M115.767 176.622L116.162 177.942L119.056 178.031L119.531 176.737L121.076 176.785L118.313 183.966L116.54 183.911L114.212 176.575L115.767 176.622ZM118.558 179.354L116.567 179.293L117.472 182.29L118.558 179.354Z" fill="#A3D562"/>
</g>
<defs>
<clipPath id="clip0_535_2515">
<rect width="210" height="184" fill="white"/>
</clipPath>
</defs>
</svg>
