<svg width="116" height="117" viewBox="0 0 116 117" fill="none" xmlns="http://www.w3.org/2000/svg">
<path d="M2.18386 60.7187C2.16036 60.982 2.04934 61.1987 1.8508 61.3687C1.64812 61.5337 1.41488 61.6045 1.15109 61.5811C0.896386 61.5584 0.686175 61.4482 0.520453 61.2504C0.355136 61.048 0.284228 60.8152 0.307727 60.5518C0.330415 60.2976 0.440827 60.0877 0.638962 59.9222C0.837096 59.7568 1.06351 59.6854 1.31821 59.7081C1.58201 59.7315 1.79904 59.8424 1.96931 60.0406C2.13503 60.2384 2.20655 60.4644 2.18386 60.7187Z" fill="#A3D562"/>
<path d="M0.403822 45.1155C0.508001 44.6669 0.746915 44.3245 1.12056 44.0881C1.49421 43.8517 1.90122 43.7845 2.34159 43.8864C2.78196 43.9884 3.1178 44.2276 3.34911 44.604C3.58041 44.9804 3.64397 45.3929 3.53979 45.8414L3.34949 46.6608L4.88411 47.016L4.6706 47.9353L0 46.854L0.403822 45.1155ZM2.67907 45.6422C2.72446 45.4468 2.69538 45.2693 2.59185 45.1096C2.48387 44.9489 2.32979 44.8454 2.12962 44.799C1.92501 44.7516 1.74102 44.7769 1.57766 44.8748C1.4143 44.9727 1.30993 45.1193 1.26455 45.3147L1.07424 46.134L2.48876 46.4615L2.67907 45.6422Z" fill="#A3D562"/>
<path d="M5.41559 41.6179L6.05508 39.7044L6.91271 39.9901L5.97407 42.7987L1.42601 41.2838L2.35381 38.5076L3.21145 38.7933L2.5828 40.6743L3.55088 40.9968L4.12534 39.2779L4.96998 39.5592L4.39552 41.2781L5.41559 41.6179Z" fill="#A3D562"/>
<path d="M5.14607 32.0087L9.50482 34.0026L9.11394 34.8542L6.28698 33.5611L7.74862 35.7114L7.70297 35.8109L5.12343 36.1127L7.94416 37.403L7.55043 38.2608L3.19168 36.267L3.59682 35.3842L6.23137 35.0776L4.74092 32.8915L5.14607 32.0087Z" fill="#A3D562"/>
<path d="M12.0753 28.4353C12.2276 29.0982 12.1208 29.7241 11.755 30.3129C11.3891 30.9018 10.8749 31.2753 10.2123 31.4336C9.54827 31.5857 8.91941 31.4779 8.32572 31.1102C7.73203 30.7426 7.35783 30.2292 7.20313 29.5701C7.04696 28.9048 7.1518 28.2777 7.51766 27.6889C7.88352 27.1001 8.39967 26.7277 9.06612 26.5718C9.72869 26.4135 10.3568 26.5181 10.9505 26.8858C11.5442 27.2534 11.9191 27.7699 12.0753 28.4353ZM10.0154 30.5312C10.4202 30.4332 10.7381 30.1982 10.9692 29.8263C11.2003 29.4544 11.2699 29.0657 11.178 28.6601C11.0822 28.2521 10.8403 27.928 10.4523 27.6877C10.0642 27.4474 9.66589 27.375 9.25721 27.4706C8.84854 27.5662 8.52867 27.8 8.2976 28.1719C8.06653 28.5438 7.99888 28.9337 8.09465 29.3417C8.19042 29.7497 8.43232 30.0739 8.82035 30.3141C9.20838 30.5544 9.60673 30.6268 10.0154 30.5312Z" fill="#A3D562"/>
<path d="M12.1084 21.4213L12.6925 20.6881L16.4451 23.6672L15.8611 24.4004L14.3064 23.1662L13.198 24.5578L14.7527 25.792L14.1644 26.5306L10.4117 23.5514L11 22.8128L12.4904 23.996L13.5988 22.6044L12.1084 21.4213Z" fill="#A3D562"/>
<path d="M16.6437 16.4729L17.2911 17.103L16.3874 18.0284L19.1731 20.7397L18.5132 21.4153L15.7276 18.7041L14.8287 19.6245L14.1813 18.9945L16.6437 16.4729Z" fill="#A3D562"/>
<path d="M23.4215 15.0216C23.2125 15.184 22.9781 15.2506 22.7181 15.2215C22.459 15.186 22.2481 15.0639 22.0855 14.8553C21.9284 14.6538 21.8659 14.4251 21.8979 14.1692C21.9334 13.9105 22.0557 13.7 22.2647 13.5376C22.4665 13.3808 22.6956 13.3184 22.9519 13.3503C23.2082 13.3822 23.4149 13.4989 23.5719 13.7004C23.7346 13.909 23.8013 14.1431 23.7722 14.4026C23.7402 14.6585 23.6233 14.8648 23.4215 15.0216Z" fill="#A3D562"/>
<path d="M31.5806 11.3886L30.133 8.85161L29.7952 12.404L29.1703 12.7594L26.7971 8.60041L27.6184 8.13331L29.0694 10.6763L29.4038 7.1179L30.0287 6.7625L32.4019 10.9215L31.5806 11.3886Z" fill="#A3D562"/>
<path d="M35.6254 4.17951L37.5374 8.56897L36.6706 8.94528L35.1191 5.38355L33.5677 6.0571L35.1192 9.61884L34.2524 9.99515L32.3403 5.60569L35.6254 4.17951Z" fill="#A3D562"/>
<path d="M43.2711 6.01376C42.9465 6.61177 42.4521 7.01105 41.7877 7.21159C41.1234 7.41212 40.4901 7.35322 39.8881 7.0349C39.2891 6.71089 38.8885 6.21508 38.6863 5.54746C38.4841 4.87984 38.5431 4.24768 38.8633 3.65098C39.1865 3.0486 39.6803 2.64714 40.3446 2.4466C41.009 2.24607 41.6429 2.30715 42.2463 2.62983C42.8483 2.94816 43.2505 3.44113 43.4526 4.10875C43.6548 4.77637 43.5943 5.41138 43.2711 6.01376ZM40.3377 6.22768C40.7064 6.42119 41.1005 6.45462 41.5201 6.32797C41.9397 6.20132 42.2493 5.95548 42.4488 5.59046C42.647 5.22107 42.68 4.8182 42.5479 4.38185C42.4157 3.9455 42.1647 3.62838 41.7947 3.43051C41.4247 3.23263 41.0299 3.19702 40.6103 3.32367C40.1907 3.45033 39.8818 3.69835 39.6836 4.06773C39.4854 4.43712 39.4523 4.83999 39.5845 5.27634C39.7166 5.71269 39.9677 6.02981 40.3377 6.22768Z" fill="#A3D562"/>
<path d="M48.3487 0.688603L48.5139 1.57602L47.2412 1.81215L47.952 5.63071L47.0227 5.80312L46.3119 1.98456L45.0459 2.21944L44.8807 1.33203L48.3487 0.688603Z" fill="#A3D562"/>
<path d="M51.9622 4.16201L53.9742 3.97706L54.0571 4.87586L51.1039 5.14733L50.6643 0.38094L53.5834 0.112606L53.6663 1.01141L51.6884 1.19323L51.782 2.20779L53.5894 2.04164L53.671 2.92683L51.8636 3.09297L51.9622 4.16201Z" fill="#A3D562"/>
<path d="M59.6545 4.80369L58.5654 4.7987L56.8635 2.54802L56.8531 4.79084L55.9079 4.7865L55.93 0L56.8752 0.00433761L56.8654 2.11724L58.519 0.0118813L59.608 0.016879L57.8234 2.33361L59.6545 4.80369Z" fill="#A3D562"/>
<path d="M64.5148 5.25024L64.3236 4.36235L62.4242 4.15296L62.0435 4.97781L61.0291 4.86598L63.2233 0.292224L64.3875 0.420561L65.536 5.36282L64.5148 5.25024ZM62.8207 3.30921L64.1278 3.45331L63.6893 1.43743L62.8207 3.30921Z" fill="#A3D562"/>
<path d="M71.1706 5.07459C70.9142 5.00828 70.7183 4.86344 70.5829 4.64005C70.453 4.41339 70.4213 4.17209 70.4877 3.91614C70.5518 3.66901 70.6952 3.48005 70.9178 3.34926C71.1448 3.21961 71.3866 3.18794 71.6429 3.25424C71.8905 3.31826 72.0797 3.46139 72.2108 3.68364C72.3418 3.90588 72.3752 4.14057 72.3111 4.38769C72.2447 4.64364 72.0996 4.83922 71.8758 4.97443C71.6532 5.10522 71.4181 5.13861 71.1706 5.07459Z" fill="#A3D562"/>
<path d="M79.9583 4.5118C80.3844 4.68791 80.6837 4.97933 80.856 5.38605C81.0284 5.79277 81.0281 6.20463 80.8552 6.62162C80.6823 7.0386 80.3909 7.33015 79.981 7.49625C79.5711 7.66236 79.1531 7.65736 78.727 7.48125L77.9486 7.15955L77.3461 8.61269L76.4727 8.25176L78.3066 3.82917L79.9583 4.5118ZM79.065 6.66623C79.2506 6.74295 79.4308 6.74341 79.6055 6.66762C79.782 6.58761 79.9096 6.45284 79.9882 6.2633C80.0685 6.06955 80.0737 5.88421 80.0038 5.70729C79.9338 5.53036 79.806 5.40354 79.6204 5.32682L78.842 5.00512L78.2866 6.34453L79.065 6.66623Z" fill="#A3D562"/>
<path d="M82.5931 10.0209L84.3791 10.9642L83.9563 11.7621L81.3348 10.3774L83.5771 6.14652L86.1683 7.51524L85.7454 8.31305L83.9897 7.38565L83.5125 8.28621L85.1168 9.13367L84.7004 9.91939L83.096 9.07194L82.5931 10.0209Z" fill="#A3D562"/>
<path d="M92.132 11.33L89.4475 15.2959L88.67 14.7714L90.4111 12.1992L88.0467 13.2863L87.9559 13.225L88.0805 10.6351L86.3432 13.2016L85.5601 12.6733L88.2446 8.70737L89.0505 9.25103L88.9218 11.8959L91.3261 10.7863L92.132 11.33Z" fill="#A3D562"/>
<path d="M94.528 18.74C93.848 18.7813 93.247 18.5736 92.7252 18.1168C92.2033 17.66 91.9184 17.0923 91.8706 16.4138C91.8292 15.7349 92.0388 15.1333 92.4993 14.6088C92.9599 14.0844 93.5285 13.8 94.2051 13.7557C94.8881 13.7109 95.4906 13.9169 96.0125 14.3738C96.5343 14.8306 96.8177 15.3999 96.8625 16.0818C96.9104 16.7603 96.704 17.3617 96.2434 17.8862C95.7829 18.4106 95.211 18.6952 94.528 18.74ZM92.7946 16.3678C92.8251 16.7825 93.0051 17.1341 93.3347 17.4227C93.6644 17.7112 94.0371 17.8434 94.4529 17.8194C94.8717 17.7919 95.2317 17.6068 95.5327 17.2641C95.8338 16.9213 95.9705 16.5408 95.943 16.1227C95.9155 15.7046 95.737 15.3512 95.4074 15.0627C95.0778 14.7742 94.7036 14.6437 94.2847 14.6711C93.8659 14.6986 93.5059 14.8837 93.2049 15.2264C92.9039 15.5692 92.7671 15.9497 92.7946 16.3678Z" fill="#A3D562"/>
<path d="M101.453 19.9218L102.082 20.6172L98.523 23.8247L97.8942 23.1293L99.3686 21.8005L98.1752 20.4809L96.7008 21.8097L96.0675 21.1093L99.6262 17.9018L100.26 18.6022L98.8463 19.876L100.04 21.1957L101.453 19.9218Z" fill="#A3D562"/>
<path d="M105.599 25.1997L104.87 25.734L104.104 24.6924L100.969 26.9914L100.409 26.2309L103.545 23.9318L102.782 22.8957L103.511 22.3614L105.599 25.1997Z" fill="#A3D562"/>
<path d="M105.923 32.1122C105.796 31.8797 105.769 31.6379 105.84 31.3867C105.918 31.1373 106.073 30.9496 106.306 30.8236C106.531 30.702 106.767 30.6779 107.015 30.7513C107.264 30.8287 107.452 30.9836 107.579 31.2161C107.7 31.4405 107.725 31.6763 107.651 31.9236C107.578 32.1708 107.428 32.3552 107.204 32.4768C106.971 32.6028 106.728 32.6302 106.477 32.5589C106.229 32.4855 106.045 32.3366 105.923 32.1122Z" fill="#A3D562"/>
<path d="M108.175 40.7433L110.919 39.7334L107.464 38.8186L107.216 38.1449L111.714 36.4892L112.041 37.3746L109.291 38.3869L112.752 39.2994L113.001 39.973L108.502 41.6287L108.175 40.7433Z" fill="#A3D562"/>
<path d="M114.636 45.9081L109.985 47.0718L109.756 46.1565L113.529 45.2122L113.118 43.5739L109.344 44.5182L109.114 43.6028L113.765 42.4392L114.636 45.9081Z" fill="#A3D562"/>
<path d="M111.57 53.1372C111.032 52.7196 110.719 52.1672 110.63 51.48C110.54 50.7929 110.702 50.1789 111.116 49.6381C111.534 49.1013 112.089 48.788 112.782 48.6983C113.475 48.6086 114.09 48.7703 114.627 49.1834C115.169 49.6005 115.485 50.1526 115.575 50.8397C115.664 51.5269 115.5 52.1411 115.082 52.6825C114.669 53.2233 114.116 53.5385 113.423 53.6282C112.73 53.7179 112.112 53.5542 111.57 53.1372ZM111.84 50.2132C111.588 50.5446 111.49 50.9273 111.547 51.3613C111.603 51.7953 111.795 52.1404 112.123 52.3968C112.456 52.6525 112.848 52.751 113.301 52.6924C113.754 52.6338 114.109 52.4385 114.365 52.1065C114.621 51.7746 114.721 51.3916 114.664 50.9576C114.608 50.5236 114.414 50.1787 114.081 49.923C113.748 49.6673 113.356 49.5687 112.903 49.6273C112.45 49.686 112.096 49.8813 111.84 50.2132Z" fill="#A3D562"/>
<path d="M116 59.0106L115.096 59.0279L115.071 57.7358L111.182 57.81L111.164 56.8665L115.053 56.7923L115.029 55.507L115.933 55.4897L116 59.0106Z" fill="#A3D562"/>
<path d="M111.976 61.9998L111.829 64.0117L110.927 63.946L111.143 60.993L115.925 61.3412L115.711 64.2601L114.81 64.1945L114.954 62.2167L113.936 62.1426L113.804 63.9498L112.916 63.8852L113.048 62.0779L111.976 61.9998Z" fill="#A3D562"/>
<path d="M110.081 69.4705L110.264 68.3988L112.767 67.0914L110.553 66.7137L110.712 65.7836L115.438 66.5897L115.279 67.5199L113.193 67.164L115.002 69.1375L114.819 70.2092L112.822 68.0719L110.081 69.4705Z" fill="#A3D562"/>
<path d="M108.843 74.1839L109.752 74.1411L110.27 72.3048L109.518 71.7947L109.794 70.814L113.954 73.7245L113.637 74.85L108.565 75.1711L108.843 74.1839ZM111.039 72.8336L110.682 74.0972L112.746 73.9957L111.039 72.8336Z" fill="#A3D562"/>
<path d="M107.926 80.7675C108.034 80.5259 108.209 80.3567 108.452 80.26C108.697 80.1692 108.941 80.1775 109.183 80.2849C109.416 80.3885 109.58 80.5607 109.672 80.8014C109.763 81.0462 109.755 81.2894 109.647 81.5311C109.544 81.7643 109.371 81.9273 109.13 82.0199C108.889 82.1125 108.652 82.107 108.418 82.0033C108.176 81.896 108.006 81.721 107.91 81.4785C107.817 81.2378 107.822 81.0008 107.926 80.7675Z" fill="#A3D562"/>
<path d="M107.042 89.5145C106.798 89.9053 106.461 90.1522 106.031 90.2553C105.601 90.3584 105.194 90.2906 104.81 90.052C104.427 89.8134 104.186 89.4786 104.089 89.0477C103.992 88.6169 104.066 88.206 104.31 87.8152L104.755 87.1013L103.418 86.2698L103.918 85.4688L107.987 87.9997L107.042 89.5145ZM105.06 88.2816C104.953 88.4519 104.923 88.6292 104.97 88.8138C105.02 89.0007 105.132 89.1484 105.306 89.2569C105.485 89.3677 105.667 89.4032 105.853 89.3633C106.04 89.3234 106.186 89.2184 106.292 89.0481L106.738 88.3342L105.505 87.5677L105.06 88.2816Z" fill="#A3D562"/>
<path d="M101.167 91.2061L99.9418 92.8104L99.2228 92.2632L101.021 89.9085L104.834 92.8101L103.057 95.1377L102.338 94.5905L103.542 93.0134L102.73 92.3958L101.63 93.8369L100.922 93.298L102.022 91.8569L101.167 91.2061Z" fill="#A3D562"/>
<path d="M98.3094 100.386L94.8306 97.0925L95.4763 96.4128L97.7326 98.549L97.0459 96.0424L97.1213 95.963L99.66 96.5101L97.4087 94.3786L98.0592 93.6939L101.538 96.9876L100.869 97.6922L98.2764 97.132L98.9787 99.6817L98.3094 100.386Z" fill="#A3D562"/>
<path d="M90.595 101.531C90.6656 100.855 90.9694 100.297 91.5063 99.8578C92.0432 99.4187 92.6508 99.2312 93.329 99.2953C94.0067 99.3658 94.5668 99.6708 95.0095 100.21C95.4523 100.75 95.6401 101.356 95.573 102.03C95.5053 102.71 95.203 103.27 94.6661 103.709C94.1292 104.148 93.5201 104.334 92.839 104.266C92.1607 104.202 91.6003 103.9 91.1575 103.361C90.7148 102.821 90.5273 102.211 90.595 101.531ZM93.2231 100.213C92.8083 100.175 92.4313 100.295 92.0922 100.572C91.7531 100.849 91.5614 101.195 91.517 101.608C91.4754 102.025 91.5994 102.41 91.8887 102.763C92.1781 103.115 92.5316 103.312 92.9493 103.354C93.367 103.395 93.7454 103.277 94.0845 103C94.4236 102.723 94.6139 102.375 94.6554 101.958C94.6969 101.541 94.573 101.157 94.2836 100.804C93.9943 100.451 93.6408 100.254 93.2231 100.213Z" fill="#A3D562"/>
<path d="M88.2922 108.158L87.502 108.663L84.9158 104.633L85.706 104.127L86.7774 105.797L88.2769 104.838L87.2055 103.168L88.0014 102.659L90.5876 106.69L89.7917 107.199L88.7646 105.598L87.2651 106.557L88.2922 108.158Z" fill="#A3D562"/>
<path d="M82.3975 111.376L81.989 110.571L83.1438 109.987L81.3859 106.522L82.2291 106.096L83.987 109.56L85.1357 108.979L85.5443 109.785L82.3975 111.376Z" fill="#A3D562"/>
<path d="M75.514 110.562C75.7644 110.476 76.0078 110.488 76.2444 110.6C76.4781 110.717 76.6381 110.901 76.7244 111.151C76.8078 111.392 76.7929 111.628 76.6798 111.86C76.5623 112.094 76.3784 112.253 76.128 112.34C75.8863 112.423 75.6493 112.408 75.4171 112.295C75.1849 112.182 75.0271 112.005 74.9437 111.764C74.8574 111.514 74.8701 111.271 74.9817 111.034C75.0948 110.803 75.2723 110.645 75.514 110.562Z" fill="#A3D562"/>
<path d="M66.6165 111.365L67.1647 114.233L68.6348 110.981L69.3413 110.846L70.24 115.548L69.3115 115.725L68.762 112.85L67.2932 116.109L66.5867 116.244L65.688 111.542L66.6165 111.365Z" fill="#A3D562"/>
<path d="M60.4543 116.882L60.0666 112.111L61.0087 112.035L61.3233 115.906L63.0095 115.77L62.695 111.898L63.6371 111.822L64.0247 116.593L60.4543 116.882Z" fill="#A3D562"/>
<path d="M53.8134 112.678C54.3142 112.217 54.9114 111.999 55.605 112.023C56.2986 112.048 56.8787 112.308 57.3454 112.804C57.8073 113.304 58.0258 113.902 58.0009 114.599C57.976 115.296 57.7154 115.875 57.2192 116.337C56.7182 116.802 56.1209 117.023 55.4273 116.998C54.7337 116.973 54.1536 116.711 53.6872 116.211C53.2205 115.715 52.9997 115.119 53.0246 114.422C53.0495 113.725 53.3124 113.144 53.8134 112.678ZM56.6585 113.422C56.3723 113.12 56.0101 112.961 55.572 112.946C55.134 112.93 54.7614 113.063 54.4544 113.344C54.1472 113.629 53.9855 114 53.9692 114.456C53.9529 114.911 54.0878 115.292 54.3738 115.599C54.6599 115.906 55.0219 116.067 55.46 116.082C55.8981 116.098 56.2707 115.963 56.5779 115.677C56.8851 115.392 57.0468 115.021 57.0631 114.566C57.0794 114.11 56.9445 113.729 56.6585 113.422Z" fill="#A3D562"/>
<path d="M47.2836 116.078L47.4147 115.185L48.6955 115.372L49.2596 111.529L50.1949 111.666L49.6307 115.509L50.9048 115.695L50.7737 116.588L47.2836 116.078Z" fill="#A3D562"/>
<path d="M44.9892 111.625L43.0254 111.15L43.238 110.273L46.1206 110.97L44.9928 115.622L42.1436 114.933L42.3562 114.056L44.2868 114.523L44.5268 113.532L42.7627 113.106L42.9721 112.242L44.7363 112.668L44.9892 111.625Z" fill="#A3D562"/>
<path d="M37.9179 108.535L38.9469 108.891L39.8285 111.57L40.5646 109.451L41.4577 109.76L39.8866 114.282L38.9935 113.973L39.6871 111.977L37.4405 113.436L36.4115 113.079L38.8507 111.463L37.9179 108.535Z" fill="#A3D562"/>
<path d="M33.4633 106.543L33.3567 107.445L35.0862 108.256L35.7136 107.599L36.6373 108.032L33.0796 111.652L32.0195 111.154L32.5334 106.107L33.4633 106.543ZM34.4377 108.927L33.2475 108.368L33.0096 110.417L34.4377 108.927Z" fill="#A3D562"/>
<path d="M27.1081 104.561C27.3293 104.706 27.4677 104.907 27.5236 105.162C27.573 105.418 27.5249 105.657 27.3792 105.877C27.2384 106.091 27.0416 106.223 26.7885 106.275C26.5317 106.324 26.2927 106.276 26.0716 106.131C25.8581 105.99 25.7253 105.794 25.6734 105.541C25.6214 105.289 25.6657 105.056 25.8064 104.843C25.9522 104.622 26.1528 104.484 26.4084 104.428C26.6614 104.376 26.8946 104.42 27.1081 104.561Z" fill="#A3D562"/>
<path d="M18.6103 102.257C18.2641 101.953 18.0754 101.58 18.044 101.14C18.0127 100.699 18.1463 100.31 18.445 99.9708C18.7437 99.632 19.1138 99.4502 19.5555 99.4253C19.9971 99.4004 20.3911 99.5401 20.7372 99.8443L21.3696 100.4L22.4105 99.2194L23.12 99.8429L19.9523 103.436L18.6103 102.257ZM20.1535 100.506C20.0027 100.374 19.8323 100.315 19.6424 100.331C19.4495 100.349 19.2851 100.436 19.1494 100.59C19.0106 100.747 18.9456 100.921 18.9545 101.111C18.9634 101.301 19.0433 101.462 19.1941 101.595L19.8265 102.15L20.7859 101.062L20.1535 100.506Z" fill="#A3D562"/>
<path d="M17.9015 96.1933L16.517 94.724L17.1755 94.1056L19.2076 96.2621L15.7155 99.5418L13.7068 97.4102L14.3654 96.7918L15.7264 98.2361L16.4697 97.538L15.226 96.2182L15.8745 95.6091L17.1182 96.9289L17.9015 96.1933Z" fill="#A3D562"/>
<path d="M9.29883 91.8749L13.1236 88.9887L13.6895 89.736L11.2088 91.6079L13.7982 91.3425L13.8643 91.4298L12.9076 93.8403L15.3828 91.9725L15.9528 92.7253L12.128 95.6115L11.5415 94.837L12.5199 92.3757L9.88531 92.6495L9.29883 91.8749Z" fill="#A3D562"/>
<path d="M9.43148 84.0896C10.0884 84.27 10.5897 84.6606 10.9356 85.2613C11.2815 85.8621 11.3672 86.4912 11.1928 87.1486C11.0121 87.8044 10.6189 88.3061 10.0132 88.6537C9.40748 89.0013 8.77733 89.0868 8.12272 88.9104C7.46187 88.7323 6.95851 88.3428 6.61262 87.7421C6.26674 87.1414 6.183 86.5111 6.36143 85.8514C6.53589 85.1939 6.92597 84.6914 7.53167 84.3438C8.13736 83.9962 8.77063 83.9115 9.43148 84.0896ZM10.3035 86.8939C10.4089 86.4916 10.3524 86.1008 10.134 85.7214C9.91552 85.3419 9.60566 85.0965 9.20438 84.985C8.79915 84.8758 8.39859 84.9347 8.00271 85.1619C7.60683 85.3891 7.35419 85.705 7.24477 86.1095C7.13537 86.5141 7.18989 86.9061 7.40834 87.2855C7.6268 87.6649 7.93864 87.9092 8.34387 88.0184C8.74911 88.1277 9.14967 88.0687 9.54555 87.8415C9.94143 87.6143 10.1941 87.2985 10.3035 86.8939Z" fill="#A3D562"/>
<path d="M3.26126 80.7355L2.89144 79.8745L7.29791 77.9881L7.66773 78.8491L5.84219 79.6306L6.54404 81.2645L8.36957 80.483L8.74209 81.3503L4.33562 83.2367L3.96311 82.3695L5.7131 81.6203L5.01126 79.9863L3.26126 80.7355Z" fill="#A3D562"/>
<path d="M1.04734 74.4032L1.90994 74.1328L2.29769 75.3658L6.00948 74.2025L6.2926 75.1028L2.58081 76.2661L2.96652 77.4927L2.10392 77.763L1.04734 74.4032Z" fill="#A3D562"/>
</svg>
