<svg width="180" height="180" viewBox="0 0 180 180" fill="none" xmlns="http://www.w3.org/2000/svg">
<g clip-path="url(#clip0_87_846)">
<rect x="36.3887" y="171.789" width="102.093" height="8.21099" rx="0.5" fill="#A3D562"/>
<path fill-rule="evenodd" clip-rule="evenodd" d="M26.3548 72.2677L21.579 80.6345C18.6774 86.2561 17.9999 93.4235 20.0872 101.669C26.1353 125.561 53.1062 149.459 80.3283 155.046C97.2945 158.528 110.354 154.076 116.322 144.443L121.934 135.349C115.766 144.596 102.844 148.803 86.1659 145.38C58.8107 139.766 31.7081 115.751 25.6304 91.7424C23.7334 84.2488 24.1089 77.6414 26.3548 72.2677Z" fill="#225DB8"/>
<path d="M124.692 112.074C130.77 136.083 113.521 150.994 86.1656 145.38C58.8105 139.766 31.7078 115.751 25.6301 91.7422C19.5524 67.7332 36.8012 52.8215 64.1563 58.436C91.5115 64.0504 118.614 88.0649 124.692 112.074Z" fill="#69A4FE"/>
<path opacity="0.6" d="M124.692 112.074C130.77 136.083 113.521 150.994 86.1656 145.38C58.8105 139.766 31.7078 115.751 25.6301 91.7422C19.5524 67.7332 36.8012 52.8215 64.1563 58.436C91.5115 64.0504 118.614 88.0649 124.692 112.074Z" fill="url(#paint0_linear_87_846)"/>
<path fill-rule="evenodd" clip-rule="evenodd" d="M84.4742 134.605C106 139.022 118.843 127.222 114.306 109.302C109.77 91.3815 89.2172 72.7266 67.6919 68.3087C46.1665 63.8908 33.3233 75.6914 37.8596 93.6116C42.396 111.532 62.9488 130.187 84.4742 134.605ZM85.369 138.139C108.452 142.877 123.007 130.294 117.878 110.035C112.75 89.7755 89.8799 69.5116 66.7971 64.774C43.7143 60.0365 29.1594 72.6193 34.2879 92.8785C39.4164 113.138 62.2861 133.402 85.369 138.139Z" fill="#225DB8"/>
<path d="M83.406 93.8383L82.1185 88.752L62.7519 84.7772L63.5931 100.899L69.933 102.201C70.4137 101.503 71.0026 101.046 71.6997 100.832C72.3895 100.589 73.3618 100.596 74.6166 100.854C75.5742 101.051 76.4529 101.368 77.2527 101.807C78.0525 102.246 78.7826 102.781 79.443 103.411C80.1034 104.041 80.6537 104.731 81.0939 105.48C81.5342 106.23 81.8533 106.996 82.0514 107.779C82.2422 108.532 82.2807 109.241 82.1669 109.904C82.0788 110.546 81.8403 111.088 81.4513 111.53C81.0881 111.95 80.5707 112.256 79.8993 112.448C79.2536 112.617 78.4684 112.607 77.5438 112.418C75.9588 112.092 74.5518 111.419 73.3228 110.397C72.0864 109.347 71.2095 108.109 70.6923 106.684L63.6589 105.24C64.0954 106.841 64.8145 108.321 65.816 109.681C66.8433 111.018 68.054 112.215 69.4481 113.27C70.8423 114.325 72.3502 115.212 73.9719 115.929C75.6192 116.625 77.2849 117.145 78.9689 117.491C80.7264 117.879 82.315 117.971 83.735 117.768C85.1475 117.536 86.307 117.046 87.2132 116.298C88.1525 115.557 88.8002 114.59 89.1561 113.4C89.5048 112.18 89.481 110.787 89.0848 109.222C88.7253 107.802 88.1402 106.418 87.3294 105.07C86.5443 103.7 85.5721 102.457 84.4128 101.34C83.2865 100.229 81.9932 99.2632 80.533 98.4415C79.0728 97.6197 77.4841 97.0327 75.767 96.6803C74.3802 96.3956 73.1896 96.3298 72.1953 96.483C71.1936 96.6071 70.3204 96.9911 69.5756 97.635L69.4545 97.5278L69.0916 90.9003L83.406 93.8383Z" fill="#225DB8"/>
<path fill-rule="evenodd" clip-rule="evenodd" d="M77.5161 38.9406L78.6671 44.1721C79.7569 48.1451 82.33 51.9879 86.4376 55.3046C99.1435 65.5641 121.72 66.904 136.864 58.2974C144.949 53.703 149.281 47.2027 149.63 40.58L149.837 36.5544C149.158 42.9928 144.779 49.2445 136.903 53.7206C121.476 62.4878 98.4773 61.1229 85.5342 50.6718C81.2153 47.1846 78.5617 43.1263 77.5161 38.9406Z" fill="#D7785A"/>
<path d="M141.4 18.9231C154.343 29.3741 152.33 44.9535 136.903 53.7207C121.476 62.4879 98.4777 61.123 85.5346 50.672C72.5914 40.221 74.6048 24.6416 90.0316 15.8744C105.458 7.10716 128.457 8.4721 141.4 18.9231Z" fill="#FFB39B"/>
<path fill-rule="evenodd" clip-rule="evenodd" d="M132.299 49.62C144.884 42.4678 146.309 29.9237 136.052 21.6419C125.796 13.3602 107.312 12.13 94.7271 19.2821C82.1422 26.4342 80.7178 38.9784 90.9744 47.2601C101.231 55.5418 119.715 56.7721 132.299 49.62ZM134.285 51.2234C147.959 43.4526 149.743 29.644 138.271 20.3808C126.799 11.1177 106.415 9.90792 92.7413 17.6787C79.0679 25.4494 77.2833 39.2581 88.7554 48.5212C100.227 57.7843 120.612 58.9941 134.285 51.2234Z" fill="#D7785A"/>
<path d="M126.704 40.5433L107.018 24.6478L103.23 26.8004C103.846 27.4821 104.194 28.148 104.276 28.798C104.358 29.4481 104.245 30.0796 103.938 30.6925C103.635 31.2776 103.158 31.8454 102.507 32.3958C101.859 32.9185 101.113 33.4071 100.267 33.8619L103.277 36.2916L109.176 32.9389L121.944 43.2483L126.704 40.5433Z" fill="#D7785A"/>
</g>
<defs>
<linearGradient id="paint0_linear_87_846" x1="64.1563" y1="58.436" x2="47.9227" y2="137.531" gradientUnits="userSpaceOnUse">
<stop stop-color="#38CFFF"/>
<stop offset="1" stop-color="#38CFFF" stop-opacity="0"/>
</linearGradient>
<clipPath id="clip0_87_846">
<rect width="180" height="180" fill="white"/>
</clipPath>
</defs>
</svg>
