<svg width="32" height="32" viewBox="0 0 32 32" fill="none" xmlns="http://www.w3.org/2000/svg">
<g clip-path="url(#clip0_87_810)">
<rect x="6.46924" y="30.5402" width="18.1499" height="1.45973" rx="0.5" fill="#A3D562"/>
<path fill-rule="evenodd" clip-rule="evenodd" d="M4.6853 12.8476L3.83627 14.335C3.32043 15.3344 3.19998 16.6086 3.57106 18.0745C4.64628 22.322 9.4411 26.5705 14.2806 27.5638C17.2968 28.1828 19.6185 27.3913 20.6795 25.6787L21.6772 24.062C20.5806 25.706 18.2835 26.4539 15.3184 25.8454C10.4552 24.8473 5.63699 20.578 4.55652 16.3098C4.21928 14.9776 4.28603 13.8029 4.6853 12.8476Z" fill="#225DB8"/>
<path d="M22.1674 19.9242C23.2479 24.1925 20.1815 26.8435 15.3183 25.8453C10.4552 24.8472 5.63695 20.578 4.55648 16.3097C3.476 12.0415 6.54245 9.3905 11.4056 10.3886C16.2687 11.3867 21.087 15.656 22.1674 19.9242Z" fill="#69A4FE"/>
<path opacity="0.6" d="M22.1674 19.9242C23.2479 24.1925 20.1815 26.8435 15.3183 25.8453C10.4552 24.8472 5.63695 20.578 4.55648 16.3097C3.476 12.0415 6.54245 9.3905 11.4056 10.3886C16.2687 11.3867 21.087 15.656 22.1674 19.9242Z" fill="url(#paint0_linear_87_810)"/>
<path fill-rule="evenodd" clip-rule="evenodd" d="M15.0177 23.9297C18.8444 24.7151 21.1276 22.6172 20.3212 19.4314C19.5147 16.2456 15.8609 12.9292 12.0341 12.1438C8.20742 11.3584 5.92417 13.4563 6.73063 16.6421C7.53709 19.8279 11.1909 23.1443 15.0177 23.9297ZM15.1767 24.5581C19.2803 25.4004 21.8679 23.1634 20.9562 19.5618C20.0444 15.9601 15.9787 12.3576 11.8751 11.5154C7.77146 10.6732 5.18393 12.9101 6.09566 16.5118C7.00738 20.1134 11.0731 23.7159 15.1767 24.5581Z" fill="#225DB8"/>
<path d="M14.8276 16.6824L14.5987 15.7781L11.1558 15.0715L11.3053 17.9377L12.4324 18.169C12.5179 18.0449 12.6226 17.9638 12.7465 17.9257C12.8691 17.8825 13.042 17.8838 13.2651 17.9296C13.4353 17.9645 13.5915 18.021 13.7337 18.099C13.8759 18.1771 14.0057 18.2721 14.1231 18.3841C14.2405 18.4961 14.3383 18.6188 14.4166 18.7521C14.4949 18.8854 14.5516 19.0216 14.5868 19.1607C14.6207 19.2946 14.6276 19.4206 14.6073 19.5386C14.5917 19.6526 14.5493 19.7489 14.4801 19.8275C14.4156 19.9022 14.3236 19.9566 14.2042 19.9907C14.0894 20.0209 13.9498 20.0191 13.7855 19.9853C13.5037 19.9275 13.2535 19.8078 13.035 19.6262C12.8152 19.4394 12.6594 19.2194 12.5674 18.966L11.317 18.7094C11.3946 18.994 11.5225 19.2571 11.7005 19.4988C11.8831 19.7366 12.0984 19.9492 12.3462 20.1369C12.5941 20.3245 12.8622 20.4821 13.1504 20.6097C13.4433 20.7333 13.7394 20.8258 14.0388 20.8873C14.3512 20.9563 14.6337 20.9727 14.8861 20.9366C15.1372 20.8953 15.3434 20.8082 15.5045 20.6752C15.6715 20.5434 15.7866 20.3716 15.8499 20.1599C15.9118 19.9431 15.9076 19.6955 15.8372 19.4173C15.7733 19.1649 15.6693 18.9188 15.5251 18.6792C15.3856 18.4356 15.2127 18.2145 15.0066 18.0159C14.8064 17.8185 14.5765 17.6468 14.3169 17.5007C14.0573 17.3546 13.7748 17.2503 13.4696 17.1876C13.223 17.137 13.0114 17.1253 12.8346 17.1525C12.6565 17.1746 12.5013 17.2429 12.3689 17.3573L12.3474 17.3383L12.2828 16.1601L14.8276 16.6824Z" fill="#225DB8"/>
<path fill-rule="evenodd" clip-rule="evenodd" d="M13.7808 6.9228L13.9854 7.85285C14.1791 8.55915 14.6366 9.24232 15.3668 9.83196C17.6256 11.6559 21.6393 11.8941 24.3316 10.364C25.7688 9.54722 26.5389 8.39163 26.601 7.21425L26.6377 6.4986C26.5172 7.64319 25.7386 8.7546 24.3384 9.55035C21.5958 11.109 17.5072 10.8663 15.2062 9.00836C14.4384 8.38839 13.9666 7.66692 13.7808 6.9228Z" fill="#D7785A"/>
<path d="M25.1378 3.36409C27.4388 5.22204 27.0809 7.99172 24.3383 9.55033C21.5958 11.109 17.5071 10.8663 15.2061 9.00834C12.9051 7.15039 13.2631 4.38072 16.0056 2.8221C18.7482 1.26348 22.8368 1.50614 25.1378 3.36409Z" fill="#FFB39B"/>
<path fill-rule="evenodd" clip-rule="evenodd" d="M23.5199 8.82131C25.7572 7.54983 26.0105 5.31975 24.1871 3.84744C22.3637 2.37514 19.0777 2.15643 16.8404 3.42792C14.6031 4.6994 14.3498 6.92948 16.1732 8.40179C17.9966 9.87409 21.2826 10.0928 23.5199 8.82131ZM23.8729 9.10637C26.3038 7.7249 26.621 5.27003 24.5816 3.62325C22.5421 1.97647 18.9182 1.7614 16.4873 3.14286C14.0565 4.52433 13.7393 6.9792 15.7787 8.62598C17.8182 10.2728 21.4421 10.4878 23.8729 9.10637Z" fill="#D7785A"/>
<path d="M22.5251 7.20768L19.0253 4.38182L18.352 4.7645C18.4615 4.8857 18.5235 5.00407 18.538 5.11964C18.5525 5.2352 18.5324 5.34746 18.4779 5.45643C18.4239 5.56045 18.3391 5.66139 18.2234 5.75925C18.1083 5.85215 17.9756 5.93903 17.8253 6.01988L18.3603 6.45183L19.4091 5.85579L21.6789 7.68857L22.5251 7.20768Z" fill="#D7785A"/>
</g>
<defs>
<linearGradient id="paint0_linear_87_810" x1="11.4056" y1="10.3886" x2="8.51961" y2="24.45" gradientUnits="userSpaceOnUse">
<stop stop-color="#38CFFF"/>
<stop offset="1" stop-color="#38CFFF" stop-opacity="0"/>
</linearGradient>
<clipPath id="clip0_87_810">
<rect width="32" height="32" fill="white"/>
</clipPath>
</defs>
</svg>
