<svg width="16" height="16" viewBox="0 0 16 16" fill="none" xmlns="http://www.w3.org/2000/svg">
<rect x="3.23462" y="15.2701" width="9.07496" height="0.729866" rx="0.364933" fill="#A3D562"/>
<path fill-rule="evenodd" clip-rule="evenodd" d="M2.34265 6.42383L1.91813 7.16754C1.66021 7.66724 1.59999 8.30434 1.78553 9.03729C2.32314 11.161 4.72055 13.2853 7.14029 13.7819C8.6484 14.0914 9.80925 13.6957 10.3397 12.8394L10.8386 12.031C10.2903 12.853 9.14173 13.227 7.65919 12.9227C5.22762 12.4237 2.8185 10.289 2.27826 8.15491C2.10964 7.48881 2.14301 6.90149 2.34265 6.42383Z" fill="#225DB8"/>
<path d="M11.0837 9.96209C11.624 12.0962 10.0907 13.4217 7.65917 12.9226C5.2276 12.4236 2.81848 10.289 2.27824 8.15483C1.738 6.0207 3.27122 4.69522 5.70279 5.19428C8.13436 5.69334 10.5435 7.82796 11.0837 9.96209Z" fill="#69A4FE"/>
<path opacity="0.6" d="M11.0837 9.96209C11.624 12.0962 10.0907 13.4217 7.65917 12.9226C5.2276 12.4236 2.81848 10.289 2.27824 8.15483C1.738 6.0207 3.27122 4.69522 5.70279 5.19428C8.13436 5.69334 10.5435 7.82796 11.0837 9.96209Z" fill="url(#paint0_linear_87_798)"/>
<path fill-rule="evenodd" clip-rule="evenodd" d="M7.50883 11.9648C9.4222 12.3575 10.5638 11.3086 10.1606 9.71569C9.75736 8.12279 7.93044 6.46458 6.01707 6.07187C4.10371 5.67917 2.96208 6.72811 3.36532 8.32102C3.76855 9.91392 5.59547 11.5721 7.50883 11.9648ZM7.58837 12.279C9.64017 12.7001 10.9339 11.5817 10.4781 9.78085C10.0222 7.98003 7.98934 6.17879 5.93754 5.75768C3.88573 5.33656 2.59196 6.45503 3.04783 8.25585C3.50369 10.0567 5.53656 11.8579 7.58837 12.279Z" fill="#225DB8"/>
<path d="M7.41382 8.34115L7.29937 7.88904L5.5779 7.53572L5.65267 8.96881L6.21622 9.08447C6.25894 9.02242 6.31129 8.98187 6.37326 8.96284C6.43457 8.94123 6.521 8.94188 6.63253 8.96477C6.71765 8.98224 6.79576 9.01048 6.86685 9.04949C6.93795 9.08851 7.00285 9.13602 7.06155 9.19203C7.12025 9.24804 7.16916 9.30937 7.2083 9.37601C7.24743 9.44266 7.2758 9.51076 7.29341 9.58031C7.31036 9.64729 7.31378 9.71027 7.30367 9.76925C7.29584 9.82626 7.27464 9.87442 7.24007 9.91373C7.20778 9.95106 7.16179 9.97826 7.10211 9.99532C7.04471 10.0104 6.97491 10.0095 6.89273 9.99264C6.75184 9.96372 6.62677 9.90386 6.51752 9.81306C6.40762 9.71967 6.32968 9.60965 6.2837 9.48298L5.65851 9.35467C5.69732 9.49696 5.76123 9.62853 5.85026 9.74937C5.94157 9.86825 6.04919 9.97459 6.17311 10.0684C6.29704 10.1622 6.43108 10.241 6.57522 10.3048C6.72165 10.3666 6.86971 10.4129 7.01941 10.4436C7.17562 10.4781 7.31684 10.4863 7.44305 10.4683C7.56862 10.4476 7.67168 10.4041 7.75223 10.3376C7.83573 10.2717 7.89329 10.1858 7.92494 10.0799C7.95592 9.97151 7.95381 9.84774 7.9186 9.70863C7.88664 9.5824 7.83463 9.45938 7.76256 9.33957C7.69278 9.21779 7.60636 9.10724 7.5033 9.00794C7.40319 8.90924 7.28823 8.82337 7.15843 8.75032C7.02864 8.67728 6.88742 8.6251 6.73479 8.59377C6.61152 8.56847 6.50569 8.56262 6.4173 8.57623C6.32827 8.58727 6.25065 8.6214 6.18444 8.67864L6.17368 8.6691L6.14142 8.08L7.41382 8.34115Z" fill="#225DB8"/>
<path fill-rule="evenodd" clip-rule="evenodd" d="M6.89038 3.46137L6.99269 3.92639C7.08956 4.27955 7.31828 4.62113 7.6834 4.91595C8.81282 5.8279 10.8197 5.94701 12.1658 5.18198C12.8844 4.77358 13.2695 4.19578 13.3005 3.6071L13.3189 3.24927C13.2586 3.82156 12.8693 4.37727 12.1692 4.77514C10.7979 5.55446 8.7536 5.43313 7.6031 4.50415C7.2192 4.19417 6.98332 3.83343 6.89038 3.46137Z" fill="#D7785A"/>
<path d="M12.569 1.68208C13.7195 2.61105 13.5405 3.99589 12.1693 4.7752C10.798 5.55451 8.75369 5.43318 7.60319 4.5042C6.45269 3.57523 6.63166 2.19039 8.00293 1.41108C9.3742 0.631772 11.4185 0.7531 12.569 1.68208Z" fill="#FFB39B"/>
<path fill-rule="evenodd" clip-rule="evenodd" d="M11.76 4.41069C12.8786 3.77494 13.0052 2.65991 12.0935 1.92375C11.1818 1.1876 9.53884 1.07825 8.42019 1.71399C7.30153 2.34973 7.17491 3.46477 8.08661 4.20092C8.99831 4.93708 10.6413 5.04643 11.76 4.41069ZM11.9365 4.55321C13.1519 3.86248 13.3105 2.63504 12.2908 1.81166C11.271 0.988267 9.45909 0.880728 8.24367 1.57146C7.02826 2.26219 6.86963 3.48963 7.88937 4.31302C8.90911 5.13641 10.7211 5.24395 11.9365 4.55321Z" fill="#D7785A"/>
<path d="M11.2625 3.60384L9.51266 2.19091L9.17598 2.38225C9.23073 2.44285 9.26173 2.50204 9.26898 2.55982C9.27624 2.6176 9.26622 2.67373 9.23894 2.72821C9.21197 2.78022 9.16956 2.83069 9.1117 2.87962C9.05417 2.92608 8.98782 2.96952 8.91266 3.00994L9.18014 3.22591L9.70453 2.9279L10.8394 3.84428L11.2625 3.60384Z" fill="#D7785A"/>
<defs>
<linearGradient id="paint0_linear_87_798" x1="5.70279" y1="5.19428" x2="4.2598" y2="12.2249" gradientUnits="userSpaceOnUse">
<stop stop-color="#38CFFF"/>
<stop offset="1" stop-color="#38CFFF" stop-opacity="0"/>
</linearGradient>
</defs>
</svg>
