<svg width="256" height="256" viewBox="0 0 256 256" fill="none" xmlns="http://www.w3.org/2000/svg">
<g clip-path="url(#clip0_87_858)">
<rect x="51.7529" y="244.322" width="145.199" height="11.6779" rx="0.5" fill="#A3D562"/>
<path fill-rule="evenodd" clip-rule="evenodd" d="M37.4824 102.781L30.6901 114.68C26.5634 122.675 25.5998 132.869 28.5685 144.596C37.1703 178.576 75.5288 212.564 114.245 220.51C138.374 225.462 156.948 219.13 165.436 205.43L173.418 192.496C164.645 205.648 146.268 211.632 122.547 206.763C83.642 198.778 45.0959 164.624 36.4521 130.478C33.7542 119.82 34.2882 110.423 37.4824 102.781Z" fill="#225DB8"/>
<path d="M177.34 159.394C185.983 193.54 161.452 214.748 122.547 206.763C83.6416 198.778 45.0956 164.624 36.4518 130.478C27.808 96.3317 52.3396 75.124 91.2447 83.1089C130.15 91.0939 168.696 125.248 177.34 159.394Z" fill="#69A4FE"/>
<path opacity="0.6" d="M177.34 159.394C185.983 193.54 161.452 214.748 122.547 206.763C83.6416 198.778 45.0956 164.624 36.4518 130.478C27.808 96.3317 52.3396 75.124 91.2447 83.1089C130.15 91.0939 168.696 125.248 177.34 159.394Z" fill="url(#paint0_linear_87_858)"/>
<path fill-rule="evenodd" clip-rule="evenodd" d="M120.141 191.438C150.755 197.721 169.021 180.938 162.569 155.451C156.118 129.965 126.887 103.433 96.2732 97.1502C65.6593 90.867 47.3933 107.65 53.845 133.136C60.2967 158.623 89.5275 185.154 120.141 191.438ZM121.414 196.465C154.243 203.203 174.943 185.307 167.649 156.494C160.355 127.681 127.829 98.861 95.0006 92.1231C62.1717 85.3852 41.4714 103.281 48.7652 132.094C56.0591 160.907 88.585 189.727 121.414 196.465Z" fill="#225DB8"/>
<path d="M118.622 133.459L116.791 126.225L89.2473 120.572L90.4436 143.501L99.4604 145.352C100.144 144.359 100.982 143.71 101.973 143.406C102.954 143.06 104.337 143.07 106.121 143.437C107.483 143.716 108.733 144.168 109.871 144.792C111.008 145.417 112.047 146.177 112.986 147.073C113.925 147.969 114.708 148.95 115.334 150.017C115.96 151.083 116.414 152.173 116.695 153.286C116.967 154.357 117.021 155.365 116.86 156.309C116.734 157.221 116.395 157.991 115.842 158.62C115.325 159.217 114.59 159.653 113.635 159.926C112.716 160.167 111.6 160.153 110.285 159.883C108.03 159.42 106.029 158.462 104.281 157.009C102.523 155.515 101.276 153.755 100.54 151.728L90.5372 149.675C91.158 151.952 92.1807 154.057 93.6051 155.99C95.0661 157.892 96.788 159.594 98.7708 161.095C100.754 162.596 102.898 163.857 105.205 164.877C107.547 165.866 109.916 166.606 112.312 167.098C114.811 167.65 117.07 167.782 119.09 167.493C121.099 167.163 122.748 166.466 124.037 165.402C125.373 164.347 126.294 162.973 126.8 161.279C127.296 159.545 127.262 157.564 126.699 155.339C126.187 153.319 125.355 151.351 124.202 149.434C123.085 147.485 121.703 145.716 120.054 144.128C118.452 142.548 116.613 141.174 114.536 140.006C112.459 138.837 110.2 138.002 107.758 137.501C105.785 137.096 104.092 137.002 102.678 137.22C101.253 137.397 100.011 137.943 98.952 138.859L98.7798 138.706L98.2638 129.28L118.622 133.459Z" fill="#225DB8"/>
<path fill-rule="evenodd" clip-rule="evenodd" d="M110.245 55.3821L111.882 62.8225C113.432 68.473 117.092 73.9384 122.933 78.6554C141.004 93.2466 173.113 95.1523 194.652 82.9119C206.15 76.3775 212.31 67.1328 212.807 57.7138L213.101 51.9885C212.136 61.1453 205.907 70.0366 194.706 76.4026C172.766 88.8715 140.057 86.9303 121.649 72.0666C115.506 67.1069 111.732 61.3351 110.245 55.3821Z" fill="#D7785A"/>
<path d="M201.102 26.9128C219.51 41.7765 216.647 63.9339 194.706 76.4028C172.766 88.8717 140.057 86.9305 121.649 72.0669C103.241 57.2033 106.105 35.0459 128.045 22.5769C149.985 10.108 182.694 12.0492 201.102 26.9128Z" fill="#FFB39B"/>
<path fill-rule="evenodd" clip-rule="evenodd" d="M188.159 70.5706C206.058 60.3987 208.084 42.5581 193.496 30.7797C178.909 19.0012 152.622 17.2516 134.723 27.4235C116.825 37.5953 114.799 55.436 129.386 67.2144C143.973 78.9928 170.261 80.7425 188.159 70.5706ZM190.984 72.8511C210.43 61.7993 212.968 42.1603 196.652 28.9861C180.337 15.8119 151.345 14.0913 131.899 25.143C112.452 36.1947 109.914 55.8337 126.23 69.008C142.546 82.1822 171.537 83.9028 190.984 72.8511Z" fill="#D7785A"/>
<path d="M180.2 57.6615L152.203 35.0547L146.816 38.1161C147.692 39.0857 148.188 40.0327 148.304 40.9572C148.42 41.8817 148.26 42.7798 147.823 43.6516C147.392 44.4837 146.713 45.2912 145.787 46.0741C144.867 46.8174 143.805 47.5124 142.603 48.1591L146.882 51.6147L155.272 46.8465L173.431 61.5087L180.2 57.6615Z" fill="#D7785A"/>
</g>
<defs>
<linearGradient id="paint0_linear_87_858" x1="91.2447" y1="83.1089" x2="68.1569" y2="195.6" gradientUnits="userSpaceOnUse">
<stop stop-color="#38CFFF"/>
<stop offset="1" stop-color="#38CFFF" stop-opacity="0"/>
</linearGradient>
<clipPath id="clip0_87_858">
<rect width="256" height="256" fill="white"/>
</clipPath>
</defs>
</svg>
