<svg width="64" height="64" viewBox="0 0 64 64" fill="none" xmlns="http://www.w3.org/2000/svg">
<g clip-path="url(#clip0_87_822)">
<rect x="12.9382" y="61.0805" width="36.2998" height="2.91946" rx="0.5" fill="#A3D562"/>
<path fill-rule="evenodd" clip-rule="evenodd" d="M9.3706 25.6952L7.67253 28.67C6.64086 30.6688 6.39996 33.2172 7.14212 36.149C9.29257 44.644 18.8822 53.141 28.5612 55.1275C34.5936 56.3656 39.237 54.7826 41.3589 51.3574L43.3545 48.1241C41.1613 51.412 36.5669 52.9079 30.6368 51.6908C20.9105 49.6945 11.274 41.156 9.11303 32.6195C8.43856 29.9551 8.57205 27.6058 9.3706 25.6952Z" fill="#225DB8"/>
<path d="M44.3349 39.8485C46.4958 48.385 40.3629 53.6869 30.6367 51.6907C20.9104 49.6944 11.2739 41.156 9.11295 32.6194C6.952 24.0829 13.0849 18.781 22.8112 20.7772C32.5374 22.7735 42.1739 31.312 44.3349 39.8485Z" fill="#69A4FE"/>
<path opacity="0.6" d="M44.3349 39.8485C46.4958 48.385 40.3629 53.6869 30.6367 51.6907C20.9104 49.6944 11.2739 41.156 9.11295 32.6194C6.952 24.0829 13.0849 18.781 22.8112 20.7772C32.5374 22.7735 42.1739 31.312 44.3349 39.8485Z" fill="url(#paint0_linear_87_822)"/>
<path fill-rule="evenodd" clip-rule="evenodd" d="M30.0353 47.8594C37.6888 49.4302 42.2553 45.2344 40.6424 38.8628C39.0294 32.4912 31.7217 25.8584 24.0683 24.2876C16.4148 22.7167 11.8483 26.9125 13.4613 33.2841C15.0742 39.6557 22.3819 46.2886 30.0353 47.8594ZM30.3535 49.1162C38.5607 50.8006 43.7358 46.3268 41.9123 39.1235C40.0888 31.9202 31.9574 24.7152 23.7501 23.0308C15.5429 21.3463 10.3679 25.8202 12.1913 33.0235C14.0148 40.2268 22.1462 47.4317 30.3535 49.1162Z" fill="#225DB8"/>
<path d="M29.6555 33.3647L29.1977 31.5563L22.3118 30.143L22.6109 35.8754L24.8651 36.338C25.036 36.0898 25.2454 35.9276 25.4933 35.8515C25.7385 35.7651 26.0842 35.7676 26.5304 35.8592C26.8708 35.9291 27.1833 36.042 27.4677 36.1981C27.752 36.3542 28.0116 36.5442 28.2464 36.7682C28.4812 36.9923 28.6769 37.2376 28.8334 37.5042C28.99 37.7708 29.1034 38.0432 29.1739 38.3214C29.2417 38.5893 29.2554 38.8412 29.2149 39.0771C29.1836 39.3052 29.0988 39.4978 28.9605 39.655C28.8313 39.8044 28.6474 39.9132 28.4087 39.9814C28.1791 40.0417 27.8999 40.0382 27.5712 39.9707C27.0076 39.855 26.5073 39.6156 26.0703 39.2523C25.6307 38.8788 25.319 38.4387 25.1351 37.9321L22.6343 37.4188C22.7895 37.988 23.0452 38.5142 23.4013 38.9976C23.7665 39.4731 24.197 39.8985 24.6927 40.2738C25.1884 40.649 25.7245 40.9642 26.3011 41.2193C26.8869 41.4666 27.4791 41.6516 28.0779 41.7745C28.7027 41.9125 29.2676 41.9454 29.7725 41.8732C30.2747 41.7907 30.6869 41.6164 31.0092 41.3504C31.3432 41.0868 31.5734 40.7433 31.7 40.3199C31.8239 39.8862 31.8155 39.3911 31.6746 38.8346C31.5468 38.3297 31.3388 37.8376 31.0505 37.3584C30.7713 36.8713 30.4257 36.4291 30.0135 36.0319C29.613 35.6371 29.1532 35.2936 28.634 35.0014C28.1148 34.7092 27.5499 34.5005 26.9394 34.3752C26.4463 34.274 26.023 34.2506 25.6695 34.3051C25.3133 34.3492 25.0028 34.4857 24.738 34.7147L24.695 34.6765L24.5659 32.3201L29.6555 33.3647Z" fill="#225DB8"/>
<path fill-rule="evenodd" clip-rule="evenodd" d="M27.5613 13.8455L27.9705 15.7056C28.358 17.1182 29.2729 18.4846 30.7334 19.6639C35.251 23.3117 43.2784 23.7881 48.6629 20.728C51.5374 19.0944 53.0776 16.7832 53.2017 14.4284L53.2752 12.9971C53.0341 15.2863 51.4769 17.5091 48.6765 19.1006C43.1914 22.2179 35.0142 21.7326 30.4121 18.0167C28.8765 16.7767 27.9331 15.3338 27.5613 13.8455Z" fill="#D7785A"/>
<path d="M50.2756 6.72824C54.8776 10.4441 54.1617 15.9835 48.6766 19.1007C43.1915 22.218 35.0143 21.7327 30.4123 18.0167C25.8103 14.3008 26.5261 8.7615 32.0112 5.64426C37.4963 2.52703 45.6735 3.01234 50.2756 6.72824Z" fill="#FFB39B"/>
<path fill-rule="evenodd" clip-rule="evenodd" d="M47.0398 17.6427C51.5144 15.0997 52.0209 10.6396 48.3741 7.69495C44.7273 4.75034 38.1554 4.31292 33.6808 6.85589C29.2061 9.39887 28.6997 13.859 32.3465 16.8036C35.9933 19.7482 42.5652 20.1857 47.0398 17.6427ZM47.7459 18.2128C52.6075 15.4499 53.2421 10.5401 49.1631 7.24656C45.0842 3.95301 37.8364 3.52285 32.9747 6.28578C28.113 9.04871 27.4785 13.9585 31.5575 17.252C35.6364 20.5456 42.8842 20.9757 47.7459 18.2128Z" fill="#D7785A"/>
<path d="M45.0501 14.4154L38.0507 8.76369L36.7039 9.52906C36.9229 9.77145 37.0469 10.0082 37.0759 10.2393C37.105 10.4705 37.0649 10.695 36.9557 10.9129C36.8479 11.121 36.6782 11.3228 36.4468 11.5186C36.2167 11.7044 35.9513 11.8781 35.6506 12.0398L36.7206 12.9037L38.8181 11.7117L43.3578 15.3772L45.0501 14.4154Z" fill="#D7785A"/>
</g>
<defs>
<linearGradient id="paint0_linear_87_822" x1="22.8112" y1="20.7772" x2="17.0392" y2="48.8999" gradientUnits="userSpaceOnUse">
<stop stop-color="#38CFFF"/>
<stop offset="1" stop-color="#38CFFF" stop-opacity="0"/>
</linearGradient>
<clipPath id="clip0_87_822">
<rect width="64" height="64" fill="white"/>
</clipPath>
</defs>
</svg>
