<svg width="128" height="128" viewBox="0 0 128 128" fill="none" xmlns="http://www.w3.org/2000/svg">
<g clip-path="url(#clip0_87_834)">
<rect x="25.8765" y="122.161" width="72.5997" height="5.83893" rx="0.5" fill="#A3D562"/>
<path fill-rule="evenodd" clip-rule="evenodd" d="M18.7412 51.3904L15.3451 57.3401C13.2817 61.3377 12.7999 66.4345 14.2842 72.2981C18.5851 89.2881 37.7644 106.282 57.1224 110.255C69.1872 112.731 78.474 109.565 82.7179 102.715L86.7089 96.2481C82.3226 102.824 73.1338 105.816 61.2735 103.382C41.821 99.389 22.548 82.3121 18.2261 65.2391C16.8771 59.9102 17.1441 55.2117 18.7412 51.3904Z" fill="#225DB8"/>
<path d="M88.6698 79.6969C92.9917 96.77 80.7259 107.374 61.2734 103.381C41.8208 99.3889 22.5478 82.3119 18.2259 65.2389C13.904 48.1659 26.1698 37.562 45.6223 41.5545C65.0749 45.5469 84.3479 62.6239 88.6698 79.6969Z" fill="#69A4FE"/>
<path opacity="0.6" d="M88.6698 79.6969C92.9917 96.77 80.7259 107.374 61.2734 103.381C41.8208 99.3889 22.5478 82.3119 18.2259 65.2389C13.904 48.1659 26.1698 37.562 45.6223 41.5545C65.0749 45.5469 84.3479 62.6239 88.6698 79.6969Z" fill="url(#paint0_linear_87_834)"/>
<path fill-rule="evenodd" clip-rule="evenodd" d="M60.0707 95.7188C75.3776 98.8604 84.5106 90.4689 81.2847 77.7256C78.0589 64.9824 63.4435 51.7167 48.1366 48.5751C32.8297 45.4335 23.6967 53.825 26.9225 66.5682C30.1484 79.3115 44.7637 92.5772 60.0707 95.7188ZM60.7069 98.2323C77.1214 101.601 87.4715 92.6535 83.8246 78.2469C80.1777 63.8404 63.9147 49.4305 47.5003 46.0615C31.0858 42.6926 20.7357 51.6404 24.3826 66.047C28.0295 80.4535 44.2925 94.8634 60.7069 98.2323Z" fill="#225DB8"/>
<path d="M59.311 66.7294L58.3954 63.1126L44.6237 60.286L45.2218 71.7507L49.7302 72.676C50.072 72.1796 50.4908 71.8552 50.9865 71.703C51.4771 71.5301 52.1685 71.5352 53.0607 71.7184C53.7417 71.8581 54.3666 72.0841 54.9353 72.3962C55.5041 72.7083 56.0233 73.0884 56.4929 73.5365C56.9625 73.9845 57.3538 74.4752 57.6669 75.0083C57.9799 75.5415 58.2069 76.0863 58.3477 76.6428C58.4834 77.1786 58.5107 77.6824 58.4298 78.1543C58.3672 78.6103 58.1976 78.9956 57.921 79.3101C57.6627 79.6087 57.2948 79.8263 56.8173 79.9628C56.3581 80.0834 55.7998 80.0763 55.1423 79.9414C54.0152 79.71 53.0147 79.2311 52.1407 78.5047C51.2615 77.7576 50.6379 76.8774 50.2701 75.8641L45.2686 74.8376C45.579 75.9759 46.0903 77.0285 46.8026 77.9952C47.5331 78.9462 48.394 79.797 49.3854 80.5475C50.3768 81.2981 51.4491 81.9285 52.6023 82.4387C53.7737 82.9331 54.9582 83.3032 56.1558 83.549C57.4055 83.825 58.5352 83.8908 59.5449 83.7464C60.5494 83.5813 61.3739 83.2328 62.0184 82.7008C62.6863 82.1735 63.1468 81.4865 63.4 80.6397C63.6479 79.7723 63.631 78.7822 63.3493 77.6693C63.0936 76.6594 62.6775 75.6753 62.101 74.7168C61.5427 73.7425 60.8513 72.8582 60.0269 72.0638C59.226 71.2742 58.3063 70.5872 57.2679 70.0028C56.2296 69.4185 55.0999 69.001 53.8788 68.7504C52.8926 68.548 52.046 68.5012 51.3389 68.6101C50.6266 68.6984 50.0057 68.9715 49.476 69.4294L49.3899 69.3531L49.1319 64.6402L59.311 66.7294Z" fill="#225DB8"/>
<path fill-rule="evenodd" clip-rule="evenodd" d="M55.1226 27.6911L55.941 31.4113C56.716 34.2365 58.5458 36.9692 61.4667 39.3277C70.5021 46.6233 86.5567 47.5762 97.3258 41.4559C103.075 38.1888 106.155 33.5664 106.403 28.8569L106.55 25.9943C106.068 30.5726 102.954 35.0183 97.353 38.2013C86.3828 44.4358 70.0283 43.4651 60.8243 36.0333C57.7531 33.5535 55.8661 30.6676 55.1226 27.6911Z" fill="#D7785A"/>
<path d="M100.551 13.4564C109.755 20.8882 108.323 31.9669 97.3532 38.2014C86.383 44.4359 70.0286 43.4652 60.8245 36.0334C51.6205 28.6016 53.0523 17.5229 64.0225 11.2885C74.9927 5.05399 91.3471 6.02462 100.551 13.4564Z" fill="#FFB39B"/>
<path fill-rule="evenodd" clip-rule="evenodd" d="M94.0796 35.2853C103.029 30.1994 104.042 21.2791 96.7482 15.3898C89.4546 9.50061 76.3108 8.62578 67.3615 13.7117C58.4123 18.7977 57.3993 27.718 64.6929 33.6072C71.9865 39.4964 85.1304 40.3713 94.0796 35.2853ZM95.4918 36.4255C105.215 30.8997 106.484 21.0802 98.3262 14.4931C90.1683 7.90595 75.6727 7.04564 65.9494 12.5715C56.2261 18.0974 54.957 27.9169 63.1149 34.504C71.2728 41.0911 85.7684 41.9514 95.4918 36.4255Z" fill="#D7785A"/>
<path d="M90.1002 28.8308L76.1013 17.5273L73.4079 19.058C73.8458 19.5428 74.0938 20.0164 74.1519 20.4786C74.2099 20.9409 74.1298 21.3899 73.9115 21.8258C73.6958 22.2419 73.3565 22.6456 72.8936 23.037C72.4333 23.4087 71.9026 23.7562 71.3013 24.0796L73.4411 25.8074L77.6362 23.4232L86.7155 30.7543L90.1002 28.8308Z" fill="#D7785A"/>
</g>
<defs>
<linearGradient id="paint0_linear_87_834" x1="45.6223" y1="41.5545" x2="34.0784" y2="97.7998" gradientUnits="userSpaceOnUse">
<stop stop-color="#38CFFF"/>
<stop offset="1" stop-color="#38CFFF" stop-opacity="0"/>
</linearGradient>
<clipPath id="clip0_87_834">
<rect width="128" height="128" fill="white"/>
</clipPath>
</defs>
</svg>
