<svg width="69" height="24" viewBox="0 0 69 24" fill="none" xmlns="http://www.w3.org/2000/svg">
<path fill-rule="evenodd" clip-rule="evenodd" d="M9.105 11.2921H11.7384V1.48548H9.105V11.2921ZM7.6665 12.6895H13.1764V0.0887451H7.6665V12.6895Z" fill="#686D82"/>
<path fill-rule="evenodd" clip-rule="evenodd" d="M0.747192 15.454H24.1675V14.0618H0.747192V15.454Z" fill="#686D82"/>
<path fill-rule="evenodd" clip-rule="evenodd" d="M2.1806 20.8938H8.95022V18.2361H2.1806V20.8938ZM0.747192 23.8619H2.18063V22.2845H10.384V16.8445H0.747192V23.8619Z" fill="#686D82"/>
<path fill-rule="evenodd" clip-rule="evenodd" d="M18.6578 1.48499V12.6893H20.0956V4.28007L22.7285 1.4861V12.6893H24.1677V0.0887451H22.1468L20.0956 2.25908V0.0887451H18.0756L14.585 3.75133V12.6893H16.0246V4.28062L18.6578 1.48499Z" fill="#686D82"/>
<path fill-rule="evenodd" clip-rule="evenodd" d="M13.2204 20.8938H17.2146V18.2361H13.2204V20.8938ZM18.7099 20.8938H22.7345V18.2361H18.7099V20.8938ZM11.7863 22.2845H17.2148V23.8619H18.7101V22.2845H24.1679V16.8445H11.7863V22.2845Z" fill="#686D82"/>
<path fill-rule="evenodd" clip-rule="evenodd" d="M2.18646 4.28076L4.81876 1.48624V11.2919H2.18646V4.28076ZM4.81876 12.6893H6.25765V0.0887451H4.23744L0.747192 3.75133V12.6893H4.81876Z" fill="#686D82"/>
<rect x="30.7267" width="0.739843" height="24" fill="#686D82"/>
<path d="M41.1332 14.7352C40.2162 14.7352 39.4589 14.4336 38.8611 13.8305C38.2634 13.2275 37.9645 12.4837 37.9645 11.5992C37.9645 10.7089 38.2634 9.96509 38.8611 9.36776C39.4589 8.76467 40.2162 8.46313 41.1332 8.46313C41.6845 8.46313 42.1923 8.59237 42.6566 8.85083C43.1267 9.10355 43.4923 9.44817 43.7534 9.88468L42.7175 10.4791C42.5666 10.2092 42.3519 9.99955 42.0733 9.85022C41.7948 9.69514 41.4814 9.6176 41.1332 9.6176C40.5412 9.6176 40.0624 9.8014 39.6968 10.169C39.337 10.5366 39.1571 11.0133 39.1571 11.5992C39.1571 12.1793 39.337 12.6531 39.6968 13.0207C40.0624 13.3883 40.5412 13.5721 41.1332 13.5721C41.4814 13.5721 41.7948 13.4974 42.0733 13.3481C42.3577 13.193 42.5724 12.9834 42.7175 12.7192L43.7534 13.3136C43.4923 13.7501 43.1296 14.0976 42.6653 14.3561C42.201 14.6088 41.6903 14.7352 41.1332 14.7352Z" fill="#686D82"/>
<path d="M48.4855 10.3068V14.6146H47.3625V11.3493H45.6302V14.6146H44.5072V10.3068H48.4855Z" fill="#686D82"/>
<path d="M52.0476 10.1862C52.6337 10.1862 53.1328 10.4074 53.5449 10.8496C53.9627 11.2861 54.1717 11.8232 54.1717 12.4607C54.1717 13.0982 53.9627 13.6381 53.5449 14.0804C53.1328 14.5169 52.6337 14.7352 52.0476 14.7352C51.4382 14.7352 50.9681 14.5255 50.6373 14.1062V16.3376H49.5144V10.3068H50.6373V10.8151C50.9681 10.3959 51.4382 10.1862 52.0476 10.1862ZM50.9768 13.3395C51.2032 13.5635 51.4905 13.6755 51.8387 13.6755C52.1869 13.6755 52.4741 13.5635 52.7005 13.3395C52.9326 13.1097 53.0487 12.8168 53.0487 12.4607C53.0487 12.1046 52.9326 11.8145 52.7005 11.5905C52.4741 11.3608 52.1869 11.2459 51.8387 11.2459C51.4905 11.2459 51.2032 11.3608 50.9768 11.5905C50.7505 11.8145 50.6373 12.1046 50.6373 12.4607C50.6373 12.8168 50.7505 13.1097 50.9768 13.3395Z" fill="#686D82"/>
<path d="M58.672 14.0804C58.2252 14.5169 57.6796 14.7352 57.0355 14.7352C56.3913 14.7352 55.8458 14.5169 55.3989 14.0804C54.9578 13.6381 54.7373 13.0982 54.7373 12.4607C54.7373 11.8232 54.9578 11.2861 55.3989 10.8496C55.8458 10.4074 56.3913 10.1862 57.0355 10.1862C57.6796 10.1862 58.2252 10.4074 58.672 10.8496C59.1189 11.2861 59.3423 11.8232 59.3423 12.4607C59.3423 13.0982 59.1189 13.6381 58.672 14.0804ZM56.1911 13.3136C56.4174 13.5376 56.6989 13.6496 57.0355 13.6496C57.3721 13.6496 57.6535 13.5376 57.8799 13.3136C58.1062 13.0896 58.2194 12.8053 58.2194 12.4607C58.2194 12.1161 58.1062 11.8318 57.8799 11.6078C57.6535 11.3838 57.3721 11.2718 57.0355 11.2718C56.6989 11.2718 56.4174 11.3838 56.1911 11.6078C55.9705 11.8318 55.8603 12.1161 55.8603 12.4607C55.8603 12.8053 55.9705 13.0896 56.1911 13.3136Z" fill="#686D82"/>
<path d="M62.2042 14.7352C61.5484 14.7352 61 14.5169 60.5589 14.0804C60.1236 13.6439 59.906 13.104 59.906 12.4607C59.906 11.8174 60.1236 11.2775 60.5589 10.841C61 10.4045 61.5484 10.1862 62.2042 10.1862C62.6278 10.1862 63.0138 10.2867 63.362 10.4878C63.7102 10.6888 63.9742 10.9587 64.1541 11.2976L63.1879 11.8576C63.1008 11.6796 62.9673 11.5388 62.7874 11.4355C62.6133 11.3321 62.416 11.2804 62.1955 11.2804C61.8589 11.2804 61.5803 11.3924 61.3598 11.6164C61.1392 11.8346 61.029 12.1161 61.029 12.4607C61.029 12.7996 61.1392 13.081 61.3598 13.305C61.5803 13.5233 61.8589 13.6324 62.1955 13.6324C62.4218 13.6324 62.622 13.5836 62.7961 13.4859C62.976 13.3825 63.1095 13.2418 63.1966 13.0638L64.1715 13.6152C63.98 13.954 63.7102 14.2269 63.362 14.4336C63.0138 14.6347 62.6278 14.7352 62.2042 14.7352Z" fill="#686D82"/>
<path d="M67.9421 10.3068H68.7778V14.6146H67.6809V12.1678L65.6352 14.6146H64.7995V10.3068H65.8963V12.7536L67.9421 10.3068Z" fill="#686D82"/>
</svg>
