<svg width="93" height="32" viewBox="0 0 93 32" fill="none" xmlns="http://www.w3.org/2000/svg">
<path fill-rule="evenodd" clip-rule="evenodd" d="M11.4336 15.055H14.993V1.9796H11.4336V15.055ZM9.48901 16.9189H16.9364V0.11792H9.48901V16.9189Z" fill="#2A2936"/>
<path fill-rule="evenodd" clip-rule="evenodd" d="M0.136597 20.6048H31.7922V18.7485H0.136597V20.6048Z" fill="#2A2936"/>
<path fill-rule="evenodd" clip-rule="evenodd" d="M2.07407 27.8581H11.2241V24.3145H2.07407V27.8581ZM0.136597 31.8153H2.07407V29.7122H13.1621V22.4587H0.136597V31.8153Z" fill="#2A2936"/>
<path fill-rule="evenodd" clip-rule="evenodd" d="M24.3451 1.97958V16.9187H26.2885V5.70635L29.8471 1.98106V16.9187H31.7925V0.11792H29.0609L26.2885 3.0117V0.11792H23.5581L18.8401 5.00137V16.9187H20.7859V5.70709L24.3451 1.97958Z" fill="#2A2936"/>
<path fill-rule="evenodd" clip-rule="evenodd" d="M16.9957 27.8581H22.3943V24.3145H16.9957V27.8581ZM24.4158 27.8581H29.8556V24.3145H24.4158V27.8581ZM15.0573 29.7122H22.3946V31.8153H24.4158V29.7122H31.7928V22.4587H15.0573V29.7122Z" fill="#2A2936"/>
<path fill-rule="evenodd" clip-rule="evenodd" d="M2.08219 5.70713L5.6401 1.9811V15.0553H2.08219V5.70713ZM5.6401 16.9187H7.58496V0.11792H4.85438L0.136841 5.00137V16.9187H5.6401Z" fill="#2A2936"/>
<rect x="40.6578" width="1" height="32" fill="#8BC540"/>
<path d="M54.7236 20.579C53.4842 20.579 52.4605 20.1715 51.6526 19.3563C50.8446 18.5412 50.4407 17.5358 50.4407 16.3403C50.4407 15.137 50.8446 14.1317 51.6526 13.3243C52.4605 12.5091 53.4842 12.1016 54.7236 12.1016C55.4688 12.1016 56.1551 12.2762 56.7827 12.6256C57.4181 12.9672 57.9122 13.433 58.2652 14.023L56.865 14.8265C56.6611 14.4616 56.3709 14.1782 55.9943 13.9764C55.6178 13.7668 55.1942 13.662 54.7236 13.662C53.9235 13.662 53.2763 13.9104 52.7822 14.4073C52.2958 14.9041 52.0526 15.5485 52.0526 16.3403C52.0526 17.1244 52.2958 17.7649 52.7822 18.2617C53.2763 18.7586 53.9235 19.007 54.7236 19.007C55.1942 19.007 55.6178 18.9061 55.9943 18.7042C56.3787 18.4946 56.6689 18.2113 56.865 17.8541L58.2652 18.6576C57.9122 19.2476 57.422 19.7173 56.7944 20.0667C56.1669 20.4083 55.4766 20.579 54.7236 20.579Z" fill="#2A2936"/>
<path d="M64.6612 14.5936V20.416H63.1433V16.0026H60.8019V20.416H59.284V14.5936H64.6612Z" fill="#2A2936"/>
<path d="M69.4759 14.4305C70.2681 14.4305 70.9427 14.7294 71.4997 15.3272C72.0644 15.9172 72.3468 16.6431 72.3468 17.5048C72.3468 18.3665 72.0644 19.0963 71.4997 19.694C70.9427 20.284 70.2681 20.579 69.4759 20.579C68.6522 20.579 68.0169 20.2957 67.5697 19.729V22.745H66.0519V14.5936H67.5697V15.2806C68.0169 14.7139 68.6522 14.4305 69.4759 14.4305ZM68.0286 18.6926C68.3345 18.9953 68.7228 19.1467 69.1935 19.1467C69.6641 19.1467 70.0524 18.9953 70.3583 18.6926C70.6721 18.382 70.829 17.9861 70.829 17.5048C70.829 17.0235 70.6721 16.6314 70.3583 16.3287C70.0524 16.0181 69.6641 15.8629 69.1935 15.8629C68.7228 15.8629 68.3345 16.0181 68.0286 16.3287C67.7227 16.6314 67.5697 17.0235 67.5697 17.5048C67.5697 17.9861 67.7227 18.382 68.0286 18.6926Z" fill="#2A2936"/>
<path d="M78.4297 19.694C77.8257 20.284 77.0883 20.579 76.2176 20.579C75.3469 20.579 74.6096 20.284 74.0056 19.694C73.4094 19.0963 73.1114 18.3665 73.1114 17.5048C73.1114 16.6431 73.4094 15.9172 74.0056 15.3272C74.6096 14.7294 75.3469 14.4305 76.2176 14.4305C77.0883 14.4305 77.8257 14.7294 78.4297 15.3272C79.0337 15.9172 79.3357 16.6431 79.3357 17.5048C79.3357 18.3665 79.0337 19.0963 78.4297 19.694ZM75.0763 18.6576C75.3822 18.9604 75.7627 19.1118 76.2176 19.1118C76.6726 19.1118 77.053 18.9604 77.359 18.6576C77.6649 18.3549 77.8179 17.9706 77.8179 17.5048C77.8179 17.039 77.6649 16.6547 77.359 16.352C77.053 16.0492 76.6726 15.8978 76.2176 15.8978C75.7627 15.8978 75.3822 16.0492 75.0763 16.352C74.7782 16.6547 74.6292 17.039 74.6292 17.5048C74.6292 17.9706 74.7782 18.3549 75.0763 18.6576Z" fill="#2A2936"/>
<path d="M83.2038 20.579C82.3175 20.579 81.5762 20.284 80.98 19.694C80.3917 19.104 80.0976 18.3743 80.0976 17.5048C80.0976 16.6353 80.3917 15.9056 80.98 15.3156C81.5762 14.7255 82.3175 14.4305 83.2038 14.4305C83.7765 14.4305 84.2981 14.5664 84.7688 14.8381C85.2394 15.1098 85.5963 15.4747 85.8395 15.9327L84.5334 16.6897C84.4158 16.449 84.2353 16.2588 83.9922 16.1191C83.7569 15.9793 83.4902 15.9094 83.1921 15.9094C82.7371 15.9094 82.3606 16.0608 82.0625 16.3636C81.7644 16.6586 81.6154 17.039 81.6154 17.5048C81.6154 17.9628 81.7644 18.3432 82.0625 18.646C82.3606 18.941 82.7371 19.0885 83.1921 19.0885C83.498 19.0885 83.7686 19.0225 84.0039 18.8905C84.2471 18.7508 84.4275 18.5606 84.5452 18.3199L85.863 19.0652C85.6042 19.5232 85.2394 19.892 84.7688 20.1715C84.2981 20.4432 83.7765 20.579 83.2038 20.579Z" fill="#2A2936"/>
<path d="M90.9594 14.5936H92.0889V20.416H90.6064V17.1089L87.8413 20.416H86.7117V14.5936H88.1943V17.9007L90.9594 14.5936Z" fill="#2A2936"/>
</svg>
