<svg width="88" height="114" viewBox="0 0 88 114" fill="none" xmlns="http://www.w3.org/2000/svg">
<path d="M16 60V36.3764C16 32.8733 17.5308 29.5451 20.1905 27.2653L44.1905 6.69385C48.6844 2.84196 55.3156 2.84196 59.8095 6.69385L83.8095 27.2653C86.4692 29.5451 88 32.8733 88 36.3764V60C88 66.6274 82.6274 72 76 72H28C21.3726 72 16 66.6274 16 60Z" fill="url(#paint0_linear_5608_53523)"/>
<path d="M8 80V56.3764C8 52.8733 9.53075 49.5451 12.1905 47.2653L36.1905 26.6939C40.6844 22.842 47.3156 22.842 51.8095 26.6939L75.8095 47.2653C78.4692 49.5451 80 52.8733 80 56.3764V80C80 86.6274 74.6274 92 68 92H20C13.3726 92 8 86.6274 8 80Z" fill="url(#paint1_linear_5608_53523)"/>
<g filter="url(#filter0_bi_5608_53523)">
<path d="M0 102L0 78.3764C0 74.8733 1.53075 71.5451 4.1905 69.2653L28.1905 48.6939C32.6844 44.842 39.3156 44.842 43.8095 48.6939L67.8095 69.2653C70.4692 71.5451 72 74.8733 72 78.3764V102C72 108.627 66.6274 114 60 114H12C5.37258 114 0 108.627 0 102Z" fill="#3DB5D3" fill-opacity="0.2"/>
</g>
<defs>
<filter id="filter0_bi_5608_53523" x="-10" y="35.8049" width="92" height="88.1951" filterUnits="userSpaceOnUse" color-interpolation-filters="sRGB">
<feFlood flood-opacity="0" result="BackgroundImageFix"/>
<feGaussianBlur in="BackgroundImage" stdDeviation="5"/>
<feComposite in2="SourceAlpha" operator="in" result="effect1_backgroundBlur_5608_53523"/>
<feBlend mode="normal" in="SourceGraphic" in2="effect1_backgroundBlur_5608_53523" result="shape"/>
<feColorMatrix in="SourceAlpha" type="matrix" values="0 0 0 0 0 0 0 0 0 0 0 0 0 0 0 0 0 0 127 0" result="hardAlpha"/>
<feOffset dx="-1" dy="1"/>
<feGaussianBlur stdDeviation="0.5"/>
<feComposite in2="hardAlpha" operator="arithmetic" k2="-1" k3="1"/>
<feColorMatrix type="matrix" values="0 0 0 0 1 0 0 0 0 1 0 0 0 0 1 0 0 0 0.15 0"/>
<feBlend mode="normal" in2="shape" result="effect2_innerShadow_5608_53523"/>
</filter>
<linearGradient id="paint0_linear_5608_53523" x1="163.847" y1="19.9895" x2="125.222" y2="98.9503" gradientUnits="userSpaceOnUse">
<stop stop-color="#3DB7D3" stop-opacity="0"/>
<stop offset="0.164476" stop-color="#3DB5D3" stop-opacity="0.1"/>
<stop offset="1" stop-color="#3DB5D3"/>
</linearGradient>
<linearGradient id="paint1_linear_5608_53523" x1="155.847" y1="39.9895" x2="117.222" y2="118.95" gradientUnits="userSpaceOnUse">
<stop stop-color="#3DB7D3" stop-opacity="0"/>
<stop offset="0.164476" stop-color="#3DB5D3" stop-opacity="0.1"/>
<stop offset="1" stop-color="#3DB5D3"/>
</linearGradient>
</defs>
</svg>
