<svg width="57" height="64" viewBox="0 0 57 64" fill="none" xmlns="http://www.w3.org/2000/svg">
<path opacity="0.3" fill-rule="evenodd" clip-rule="evenodd" d="M31.5067 16.1894L40.7955 21.6784C41.5895 22.1477 42.2475 22.8159 42.7045 23.617C43.1616 24.4182 43.402 25.3246 43.402 26.2469V37.4372C43.4019 38.3599 43.1614 39.2667 42.704 40.0681C42.2467 40.8695 41.5884 41.5379 40.794 42.0073L31.5082 47.4947C30.6902 47.9779 29.7577 48.2327 28.8077 48.2327C27.8577 48.2327 26.9251 47.9779 26.1072 47.4947L16.8199 42.0058C16.0259 41.5364 15.3679 40.8682 14.9108 40.0671C14.4538 39.266 14.2134 38.3595 14.2134 37.4372V26.2469C14.2134 24.3698 15.205 22.6321 16.8214 21.6768L26.1072 16.1894C26.9251 15.7063 27.8577 15.4514 28.8077 15.4514C29.7577 15.4514 30.6902 15.7063 31.5082 16.1894H31.5067Z" fill="#A3D562"/>
<path d="M28.8086 51.7434C29.4894 51.7434 30.0505 52.2559 30.1278 52.9155L30.1354 53.0701V60.0709L37.4378 55.898C37.7318 55.7285 38.0796 55.6781 38.4096 55.7572C38.7397 55.8362 39.0268 56.0387 39.2121 56.3231C39.3974 56.6074 39.4667 56.9519 39.4057 57.2857C39.3448 57.6196 39.1582 57.9174 38.8844 58.1179L38.754 58.2028L29.4667 63.5098C29.2917 63.6094 29.0964 63.668 28.8954 63.6812C28.6945 63.6943 28.4932 63.6616 28.3067 63.5856L28.1506 63.5098L18.8633 58.2028C18.5746 58.032 18.3613 57.7583 18.2661 57.4367C18.1709 57.1151 18.2008 56.7694 18.35 56.469C18.4991 56.1686 18.7564 55.9357 19.0702 55.8171C19.3839 55.6986 19.7309 55.7031 20.0414 55.8298L20.1794 55.898L27.4819 60.0709V53.0701C27.4819 52.4424 27.9186 51.9162 28.5038 51.7783L28.654 51.7525L28.8086 51.7434ZM2.27353 35.1582C2.95435 35.1582 3.51537 35.6707 3.5927 36.3303L3.60029 36.4849V44.8882L9.55173 41.3189C9.84197 41.1442 10.188 41.0872 10.5189 41.1595C10.8499 41.2318 11.1406 41.4279 11.3316 41.7077C11.5226 41.9874 11.5993 42.3297 11.5461 42.6642C11.4928 42.9987 11.3137 43.3002 11.0453 43.5069L10.9164 43.5933L5.01195 47.1354L12.2189 51.2551C12.8102 51.5918 13.0422 52.3165 12.7814 52.9261L12.7132 53.0656C12.5519 53.3481 12.2923 53.5613 11.9839 53.6648C11.6755 53.7683 11.3398 53.7547 11.0407 53.6266L10.9027 53.5584L1.61546 48.2514C1.43562 48.1484 1.28233 48.0049 1.16781 47.8322C1.05329 47.6595 0.980715 47.4624 0.955875 47.2567L0.946777 47.099V36.4849C0.946777 35.7526 1.54116 35.1582 2.27353 35.1582ZM55.3437 35.1582C56.0761 35.1582 56.6705 35.7526 56.6705 36.4849V47.099C56.6705 47.3328 56.6089 47.5625 56.4917 47.7648C56.3746 47.9672 56.2061 48.135 56.0033 48.2514L46.7145 53.5584C46.563 53.6497 46.3949 53.7099 46.2198 53.7353C46.0448 53.7607 45.8664 53.7509 45.6952 53.7064C45.5241 53.6619 45.3635 53.5836 45.223 53.4761C45.0826 53.3686 44.965 53.2342 44.8772 53.0806C44.7895 52.927 44.7333 52.7575 44.712 52.5819C44.6908 52.4063 44.7048 52.2282 44.7534 52.0581C44.8019 51.888 44.884 51.7294 44.9948 51.5915C45.1055 51.4536 45.2428 51.3392 45.3984 51.2551L53.1709 46.8124L46.7009 42.9307C46.4011 42.7615 46.179 42.4823 46.0815 42.1523C45.9839 41.8222 46.0186 41.4672 46.1781 41.1622C46.3377 40.8573 46.6096 40.6264 46.9364 40.5184C47.2632 40.4104 47.6192 40.4337 47.929 40.5835L48.0655 40.6547L54.0154 44.2241L54.017 36.4849C54.017 35.8056 54.5295 35.2446 55.189 35.1673L55.3437 35.1582ZM12.7132 10.6185C12.8745 10.9008 12.9265 11.2324 12.8594 11.5505C12.7923 11.8686 12.6108 12.151 12.3493 12.3441L12.2189 12.429L4.44486 16.8717L10.9164 20.7534C11.1951 20.9208 11.4027 21.1845 11.4999 21.4947C11.5972 21.8049 11.5773 22.14 11.4441 22.4365L11.3713 22.573C11.2044 22.8521 10.9406 23.0602 10.6303 23.1575C10.3199 23.2548 9.9846 23.2346 9.68819 23.1006L9.55173 23.0294L3.60029 19.4585V27.1977C3.60424 27.5386 3.47675 27.868 3.24428 28.1175C3.01181 28.367 2.69221 28.5174 2.3518 28.5375C2.01139 28.5576 1.67631 28.4458 1.41611 28.2254C1.1559 28.005 0.990547 27.6929 0.954359 27.3538L0.946777 27.1992V16.5851C0.946777 16.1606 1.14844 15.7663 1.48354 15.5192L1.61546 15.4328L10.9027 10.1257C11.054 10.0392 11.2208 9.98334 11.3936 9.96128C11.5664 9.93922 11.7419 9.95142 11.91 9.99718C12.0781 10.0429 12.2356 10.1214 12.3734 10.228C12.5112 10.3346 12.6267 10.4673 12.7132 10.6185ZM46.5765 10.0575L46.7145 10.1257L56.0018 15.4328C56.1816 15.5357 56.3349 15.6792 56.4494 15.8519C56.5639 16.0246 56.6365 16.2217 56.6614 16.4274L56.6705 16.5851V27.1992C56.674 27.54 56.5462 27.8691 56.3136 28.1182C56.081 28.3674 55.7615 28.5175 55.4212 28.5374C55.0809 28.5572 54.7461 28.4454 54.486 28.2251C54.226 28.0047 54.0608 27.6927 54.0245 27.3538L54.017 27.1992V18.7944L48.0655 22.3652C47.7753 22.5399 47.4292 22.5969 47.0983 22.5246C46.7674 22.4523 46.4766 22.2562 46.2856 21.9764C46.0947 21.6967 46.0179 21.3544 46.0712 21.0199C46.1244 20.6854 46.3036 20.3839 46.572 20.1772L46.7009 20.0908L52.6038 16.5472L45.3984 12.429C45.116 12.2679 44.9026 12.0087 44.7989 11.7006C44.6952 11.3925 44.7083 11.0571 44.8358 10.758L44.904 10.6185C45.0654 10.3361 45.325 10.1228 45.6334 10.0193C45.9418 9.91586 46.2775 9.92945 46.5765 10.0575ZM29.309 0.0969894L29.4652 0.172804L38.7525 5.47982C39.0411 5.65063 39.2544 5.9243 39.3497 6.2459C39.4449 6.5675 39.4149 6.91321 39.2657 7.21362C39.1166 7.51403 38.8593 7.74689 38.5456 7.86546C38.2318 7.98402 37.8848 7.97951 37.5743 7.85282L37.4363 7.78458L30.1339 3.61175V10.614C30.1339 10.9392 30.0146 11.2532 29.7985 11.4963C29.5825 11.7395 29.2848 11.8949 28.9618 11.9332L28.8086 11.9392C28.4834 11.9393 28.1694 11.8199 27.9263 11.6039C27.6831 11.3879 27.5277 11.0901 27.4894 10.7671L27.4834 10.614V3.61175L20.1809 7.7861C19.8869 7.95562 19.5392 8.00603 19.2091 7.92697C18.8791 7.84791 18.5919 7.64539 18.4066 7.36106C18.2214 7.07674 18.1521 6.73222 18.213 6.39838C18.274 6.06454 18.4606 5.76674 18.7344 5.56625L18.8648 5.48134L28.1521 0.17432C28.3271 0.0746826 28.5224 0.0160867 28.7233 0.00295351C28.9243 -0.0101797 29.1256 0.0224927 29.312 0.0985057L29.309 0.0969894ZM18.369 25.877C18.5437 25.5716 18.8325 25.348 19.1719 25.2553C19.5114 25.1627 19.8737 25.2085 20.1794 25.3827L28.8086 30.3136L37.4363 25.3827C37.7409 25.2227 38.0957 25.1872 38.4259 25.2836C38.7562 25.38 39.0362 25.6007 39.2069 25.8994C39.3777 26.1981 39.4259 26.5514 39.3414 26.8849C39.2569 27.2184 39.0463 27.5061 38.754 27.6874L30.1354 32.6108V41.1293C30.1354 41.4546 30.0161 41.7686 29.8001 42.0117C29.584 42.2548 29.2863 42.4103 28.9633 42.4485L28.8086 42.4561C28.4567 42.4561 28.1193 42.3163 27.8705 42.0675C27.6216 41.8187 27.4819 41.4812 27.4819 41.1293V32.6108L18.8618 27.6874C18.5795 27.5259 18.3663 27.2664 18.2626 26.9581C18.159 26.6498 18.172 26.3143 18.2992 26.0149L18.3674 25.877H18.369Z" fill="#A3D562"/>
</svg>
